<?xml version="1.0" encoding="UTF-8" standalone="no"?>
<!-- Created with Inkscape (http://www.inkscape.org/) -->

<svg
   xmlns:dc="http://purl.org/dc/elements/1.1/"
   xmlns:cc="http://creativecommons.org/ns#"
   xmlns:rdf="http://www.w3.org/1999/02/22-rdf-syntax-ns#"
   xmlns:svg="http://www.w3.org/2000/svg"
   xmlns="http://www.w3.org/2000/svg"
   xmlns:sodipodi="http://sodipodi.sourceforge.net/DTD/sodipodi-0.dtd"
   xmlns:inkscape="http://www.inkscape.org/namespaces/inkscape"
   width="210mm"
   height="297mm"
   viewBox="0 0 744.09448819 1052.3622047"
   id="svg11335"
   version="1.1"
   inkscape:version="0.91 r13725"
   sodipodi:docname="curitiba_livre2.svg">
  <defs
     id="defs11337" />
  <sodipodi:namedview
     id="base"
     pagecolor="#ffffff"
     bordercolor="#666666"
     borderopacity="1.0"
     inkscape:pageopacity="0.0"
     inkscape:pageshadow="2"
     inkscape:zoom="0.35"
     inkscape:cx="-270.71429"
     inkscape:cy="634.28571"
     inkscape:document-units="px"
     inkscape:current-layer="layer1"
     showgrid="false"
     inkscape:window-width="1920"
     inkscape:window-height="1135"
     inkscape:window-x="0"
     inkscape:window-y="0"
     inkscape:window-maximized="1" />
  <metadata
     id="metadata11340">
    <rdf:RDF>
      <cc:Work
         rdf:about="">
        <dc:format>image/svg+xml</dc:format>
        <dc:type
           rdf:resource="http://purl.org/dc/dcmitype/StillImage" />
        <dc:title></dc:title>
      </cc:Work>
    </rdf:RDF>
  </metadata>
  <g
     inkscape:label="Camada 1"
     inkscape:groupmode="layer"
     id="layer1">
    <g
       id="g3061-0-9-2_1_"
       transform="matrix(2.2078666,0,0,2.2078666,2648.9327,-716.15097)"
       inkscape:export-filename="/home/phls/Dropbox/eventos/flisol/2015/marcador.png"
       inkscape:export-xdpi="90"
       inkscape:export-ydpi="90">
      <g
         id="g7521-8_1_"
         transform="translate(-4.5359905,-0.22619927)">
        <path
           style="fill:#213a74"
           id="path4065-7-8-1-9-5_1_"
           inkscape:connector-curvature="0"
           class="st425"
           d="m -1033.7,526.6 c -0.4,0 -0.9,0.1 -1.2,0.2 -0.5,0.1 -0.5,0.2 -0.5,0.5 l 0,0.3 2,0 2,0 0,-0.1 c 0,-0.1 0,-0.2 0,-0.3 0,-0.2 -0.1,-0.2 -0.3,-0.3 -0.5,-0.2 -1.3,-0.3 -2,-0.3 l 0,0 z m -1.7,1.5 0,0.2 c 0,0.2 0,0.2 -0.3,0.2 -0.5,0.1 -1.1,0.4 -1.1,0.7 0,0.1 0.3,1.4 1.4,5.1 0.8,2.7 1.5,5 1.5,5 0.1,0.4 0.3,1.1 0.5,1.6 0.3,-0.5 0.5,-1.3 0.6,-1.7 0,0 0.7,-2.3 1.5,-5 1.1,-3.8 1.5,-5 1.4,-5.1 -0.1,-0.3 -0.5,-0.6 -1,-0.7 l -0.3,0 0,-0.2 0,-0.2 -2,0 -2.2,0 0,0.1 z m 2,2.4 c 0.8,0 1.1,0 1.1,0.1 0,0 -0.2,1.3 -0.5,2.7 -0.3,1.5 -0.5,2.7 -0.5,2.7 0,0 0,0 0,-0.1 -0.1,-0.3 -1.1,-5.3 -1.1,-5.4 -0.1,0 0.1,0 1,0 z" />
        <path
           style="fill:#175628"
           id="path4067-9-9-8-5-9_1_"
           inkscape:connector-curvature="0"
           class="st426"
           d="m -1026.8,527.1 c -0.1,0 -2.4,1.7 -2.4,1.8 0,0 0.2,0.3 0.5,0.7 0.3,0.4 0.5,0.7 0.5,0.7 0,0 0.5,-0.1 0.9,-0.3 0.6,-0.2 0.8,-0.3 0.8,-0.4 -0.1,-1.2 -0.3,-2.5 -0.3,-2.5 z" />
        <path
           style="fill:#175628"
           id="path4069-7-3-4-3-9_1_"
           inkscape:connector-curvature="0"
           class="st426"
           d="m -1040.4,527.2 c -0.1,0.1 -0.3,2.5 -0.3,2.5 0,0 0.4,0.1 1,0.3 0.5,0.1 0.9,0.3 1,0.3 0,0 0.2,-0.3 0.4,-0.7 0.3,-0.6 0.4,-0.7 0.3,-0.7 0,0 -0.6,-0.4 -1.2,-0.9 -0.8,-0.5 -1.2,-0.8 -1.2,-0.8 l 0,0 z" />
        <path
           style="fill:#213a74"
           id="path4071-7-9-2-2-4_1_"
           inkscape:connector-curvature="0"
           class="st425"
           d="m -1044.3,529.3 -0.3,0 c -0.6,0.1 -1.5,0.4 -2.1,0.9 -0.4,0.3 -0.9,0.8 -1,1 l -0.1,0.2 0.3,0.3 c 0.2,0.1 0.3,0.3 0.4,0.2 0.1,0 3.4,-2.1 3.4,-2.1 0,0 -0.1,-0.1 -0.3,-0.3 l -0.3,-0.2 0,0 z m 2.4,0.8 c -0.2,0 -0.5,0.1 -0.7,0.2 l -0.3,0.1 -0.2,-0.1 -0.2,-0.1 -1.7,1.1 -1.7,1.1 0.2,0.2 0.2,0.2 -0.2,0.2 c -0.4,0.4 -0.6,0.9 -0.3,1.3 0.1,0.1 0.9,0.5 2.2,1.2 6.5,3.3 9.6,4.9 9.6,4.9 0.3,0.1 1,0.6 1.3,0.7 -0.1,-0.3 -0.5,-1.1 -0.7,-1.4 0,0 -1.5,-2 -3.2,-4.5 -1.7,-2.5 -3.2,-4.5 -3.3,-4.6 -0.3,-0.4 -0.6,-0.5 -1,-0.5 l 0,0 z m 0,2.5 c 0,0 0.2,0.2 0.5,0.4 1.2,1.5 3.5,4.1 3.6,4.2 0.1,0.1 0.1,0.1 0.1,0.1 0,0 -5.8,-3.5 -5.9,-3.5 -0.1,0 1.4,-1.1 1.7,-1.2 l 0,0 z" />
        <path
           style="fill:#213a74"
           id="path4073-5-1-3-0-1_1_"
           inkscape:connector-curvature="0"
           class="st425"
           d="m -1022.5,529.4 c -0.1,0 -0.2,0.1 -0.5,0.3 -0.2,0.2 -0.2,0.2 -0.1,0.2 0,0 0.8,0.5 1.8,1.1 l 1.7,1 0.1,-0.1 c 0.1,-0.1 0.2,-0.2 0.3,-0.3 l 0.2,-0.2 -0.2,-0.3 c -0.5,-0.7 -1.8,-1.5 -2.9,-1.7 -0.2,0 -0.3,0 -0.4,0 l 0,0 z m -1.1,0.8 -0.2,0.1 -0.2,0.1 -0.3,-0.1 c -0.4,-0.2 -1.1,-0.2 -1.4,-0.1 -0.1,0 -0.3,0.2 -0.4,0.2 -0.1,0.1 -1.2,1.6 -2.4,3.4 -3.9,5.5 -4,5.5 -4,5.6 -0.3,0.6 -0.6,1.1 -0.8,1.5 0.4,-0.2 1.3,-0.6 1.6,-0.8 l 0.8,-0.4 c 0.7,-0.4 3.7,-1.9 8.8,-4.5 2.2,-1.1 2.3,-1.2 2.3,-1.6 0,-0.3 -0.2,-0.6 -0.6,-0.9 -0.1,-0.1 -0.1,-0.1 0.1,-0.2 0.1,-0.1 0.1,-0.2 0.1,-0.2 0,0 -0.8,-0.5 -1.7,-1.1 l -1.7,-1 0,0 z m -1.4,2.5 c 0,0 0.5,0.3 1,0.6 0.7,0.5 0.9,0.6 0.8,0.6 0,0 -0.5,0.4 -1.1,0.7 -0.6,0.4 -1.9,1.2 -2.9,1.8 -1,0.6 -1.8,1.1 -1.8,1.1 0,0 0,0 0,-0.1 0.2,-0.2 1.4,-1.7 2.7,-3.2 0.7,-1 1.3,-1.6 1.3,-1.5 l 0,0 z" />
        <path
           style="fill:#175628"
           id="path4075-0-2-8-8-7_1_"
           inkscape:connector-curvature="0"
           class="st426"
           d="m -1014.7,534.3 -2.1,0 -2.1,0 -0.2,0.8 c -0.1,0.4 -0.2,0.8 -0.2,0.9 0,0.1 0.3,0.1 1.1,0.4 0.6,0.2 1.2,0.3 1.2,0.3 0,0 0.6,-0.5 1.2,-1.2 l 1.1,-1.2 z" />
        <path
           style="fill:#175628"
           id="path4077-2-0-2-6-3_1_"
           inkscape:connector-curvature="0"
           class="st426"
           d="m -1052.5,534.6 1.2,1.2 c 1,1 1.2,1.2 1.3,1.2 0.4,-0.1 2.3,-0.7 2.3,-0.7 0,0 -0.1,-0.4 -0.3,-0.8 l -0.3,-0.8 -2.1,0 -2.1,-0.1 z" />
        <path
           style="fill:#213a74"
           id="path4079-4-2-2-5-2_1_"
           inkscape:connector-curvature="0"
           class="st425"
           d="m -1049.9,537.7 c -0.7,0 -1.3,0.4 -1.5,0.9 -0.2,0.4 -0.2,0.4 -0.5,0.4 -0.3,0 -0.4,0 -0.4,0.1 0,0.1 -0.3,1 -0.7,2.1 -0.3,1.1 -0.6,2 -0.6,2 0,0 0.2,0 0.3,0 l 0.3,0 0,0.4 c 0,0.8 0.4,1.2 1.2,1.2 0.2,0 1.9,-0.3 5.1,-1 2.6,-0.6 6.2,-1.3 8,-1.7 1.8,-0.4 3.2,-0.7 3.2,-0.6 0.6,-0.2 1.1,-0.2 1.3,-0.3 -0.4,-0.2 -0.9,-0.4 -1.4,-0.5 0,0 -3.2,-0.6 -7,-1.5 -5,-1.1 -7,-1.5 -7.3,-1.5 l 0,0 z m -4.3,1.2 -0.3,0.3 c -0.5,0.5 -1,1.3 -1.3,2 -0.2,0.5 -0.2,1.6 0,1.9 l 0.1,0.2 0.7,0 0.7,0 0.7,-2.1 c 0.4,-1.2 0.7,-2.1 0.7,-2.2 0,0 -0.2,-0.1 -0.6,-0.1 l -0.7,0 0,0 z m 5.8,1 0.2,0 c 0.4,0 8.1,1 8.1,1 0,0 -0.3,0.1 -0.5,0.1 -0.3,0 -2.1,0.3 -4.2,0.6 -2.1,0.3 -3.8,0.5 -3.9,0.5 -0.1,0 -0.1,0 -0.1,0 0,0 0.1,-0.5 0.3,-1.2 l 0.1,-1 0,0 z" />
        <path
           style="fill:#213a74"
           id="path4081-2-8-7-3-4_1_"
           inkscape:connector-curvature="0"
           class="st425"
           d="m -1017.3,537.7 c -0.7,0 -2.3,0.4 -7.1,1.5 -3.8,0.8 -6.9,1.5 -6.9,1.5 -0.4,0.1 -0.9,0.3 -1.7,0.5 0.6,0.2 1,0.3 1.7,0.4 0.1,0 3.6,0.7 8,1.6 7.1,1.5 7.9,1.7 8.3,1.6 0.3,0 0.4,-0.1 0.6,-0.2 0.3,-0.2 0.4,-0.5 0.4,-1 l 0,-0.4 0.4,0 c 0.3,0 0.4,0 0.4,-0.1 0,0 -0.3,-1 -0.6,-2.2 l -0.6,-2.1 -0.4,0 -0.4,0 -0.1,-0.2 c -0.2,-0.3 -0.6,-0.7 -1,-0.9 -0.4,0.1 -0.5,0 -1,0 l 0,0 z m 3.9,1.3 c -0.3,0 -0.6,0 -0.6,0 0,0 0.3,1 0.7,2.2 l 0.7,2.2 0.7,0 0.7,0 0.1,-0.2 c 0.1,-0.1 0.1,-0.4 0.1,-0.8 0,-0.5 0,-0.6 -0.1,-1 -0.1,-0.3 -0.2,-0.6 -0.3,-0.8 -0.2,-0.5 -0.7,-1.1 -1,-1.3 l -0.3,-0.3 -0.7,0 0,0 z m -5.3,1 c 0,0 0.1,0.5 0.3,1.1 0.2,0.6 0.3,1.1 0.3,1.1 0,0 -0.9,-0.1 -1.9,-0.2 -1,-0.1 -3,-0.4 -4.4,-0.5 -1.6,-0.2 -2.5,-0.3 -2.4,-0.4 0.2,0 8.1,-1.1 8.1,-1.1 l 0,0 z" />
        <g
           id="text4083-6-2-7-9-8_1_"
           transform="scale(1.0051942,0.99483265)">
          <path
             style="fill:#175628"
             id="path6430_1_"
             inkscape:connector-curvature="0"
             class="st426"
             d="m -1023.1,555.7 3.2,0 0,-0.6 -2.5,0 0,-5.6 -0.6,0 0,6.2" />
          <path
             style="fill:#175628"
             id="path6432_1_"
             inkscape:connector-curvature="0"
             class="st426"
             d="m -1019.4,555.7 0.6,0 0,-4.5 -0.6,0 0,4.5 m 0,-5.1 0.6,0 0,-1 -0.6,0 0,1" />
          <path
             style="fill:#175628"
             id="path6434_1_"
             inkscape:connector-curvature="0"
             class="st426"
             d="m -1016.3,555.7 0.6,0 1.9,-4.5 -0.6,0 -1.6,3.8 -1.6,-3.8 -0.6,0 1.9,4.5" />
          <path
             style="fill:#175628"
             id="path6436_1_"
             inkscape:connector-curvature="0"
             class="st426"
             d="m -1013.1,555.7 0.6,0 0,-2.7 c 0,-0.8 0.4,-1.3 1.3,-1.4 l 0,-0.6 c -0.7,0 -1,0.3 -1.3,0.8 l 0,-0.6 -0.6,0 0,4.5" />
          <path
             style="fill:#175628"
             id="path6438_1_"
             inkscape:connector-curvature="0"
             class="st426"
             d="m -1006.1,553.6 c 0,-0.6 -0.1,-1 -0.3,-1.4 -0.4,-0.7 -1.2,-1.2 -2.1,-1.2 -1.3,0 -2.4,1 -2.4,2.4 0,1.3 1.1,2.4 2.4,2.4 0.6,0 1.1,-0.2 1.5,-0.6 0.3,-0.3 0.5,-0.6 0.7,-1 l -0.6,0 c -0.3,0.6 -0.9,1 -1.6,1 -0.9,0 -1.7,-0.7 -1.8,-1.6 l 4.2,0 m -4.1,-0.5 c 0.2,-0.9 0.9,-1.5 1.7,-1.5 0.9,0 1.6,0.6 1.8,1.5 l -3.5,0" />
        </g>
        <g
           id="text4087-3-0-3-9-8_1_"
           transform="scale(0.92901758,1.0764059)">
          <path
             style="fill:#213a74"
             id="path6442_1_"
             inkscape:connector-curvature="0"
             class="st425"
             d="m -1131.5,512.1 c -0.2,0.3 -0.4,0.5 -0.6,0.6 -0.4,0.3 -0.9,0.5 -1.4,0.5 -1.3,0 -2.4,-1.1 -2.4,-2.4 0,-1.4 1,-2.4 2.4,-2.4 0.5,0 1,0.1 1.3,0.4 0.3,0.2 0.4,0.3 0.6,0.7 l 0.6,0 c -0.4,-1 -1.5,-1.6 -2.6,-1.6 -1.7,0 -3,1.3 -3,3 0,1.7 1.3,2.9 3,2.9 1.2,0 2,-0.5 2.6,-1.6 l -0.5,0" />
          <path
             style="fill:#213a74"
             id="path6444_1_"
             inkscape:connector-curvature="0"
             class="st425"
             d="m -1126.4,509.4 -0.6,0 0,2.2 c 0,0.5 -0.1,0.8 -0.3,1.1 -0.2,0.3 -0.6,0.5 -1.1,0.5 -0.5,0 -0.9,-0.2 -1.1,-0.5 -0.1,-0.2 -0.2,-0.6 -0.2,-1 l 0,-2.3 -0.6,0 0,2.3 c 0,0.6 0.1,1.1 0.3,1.4 0.3,0.4 0.8,0.7 1.5,0.7 0.7,0 1.1,-0.2 1.4,-0.8 l 0,0.7 0.6,0 0,-4.3" />
          <path
             style="fill:#213a74"
             id="path6446_1_"
             inkscape:connector-curvature="0"
             class="st425"
             d="m -1125.4,513.6 0.6,0 0,-2.5 c 0,-0.8 0.4,-1.2 1.2,-1.3 l 0,-0.6 c -0.6,0 -1,0.2 -1.2,0.7 l 0,-0.6 -0.6,0 0,4.3" />
          <path
             style="fill:#213a74"
             id="path6448_1_"
             inkscape:connector-curvature="0"
             class="st425"
             d="m -1123,513.6 0.6,0 0,-4.2 -0.6,0 0,4.2 m 0,-4.8 0.6,0 0,-1 -0.6,0 0,1" />
          <path
             style="fill:#213a74"
             id="path6450_1_"
             inkscape:connector-curvature="0"
             class="st425"
             d="m -1121,513.6 0.6,0 0,-3.7 1,0 0,-0.5 -1,0 0,-1.5 -0.6,0 0,1.5 -0.9,0 0,0.5 0.9,0 0,3.7" />
          <path
             style="fill:#213a74"
             id="path6452_1_"
             inkscape:connector-curvature="0"
             class="st425"
             d="m -1118.9,513.6 0.6,0 0,-4.2 -0.6,0 0,4.2 m 0,-4.8 0.6,0 0,-1 -0.6,0 0,1" />
          <path
             style="fill:#213a74"
             id="path6454_1_"
             inkscape:connector-curvature="0"
             class="st425"
             d="m -1117.3,513.6 0.6,0 0,-0.7 c 0.4,0.5 1,0.8 1.7,0.8 1.3,0 2.2,-1 2.2,-2.2 0,-1.2 -1,-2.2 -2.2,-2.2 -0.7,0 -1.3,0.3 -1.7,0.8 l 0,-2.2 -0.6,0 0,5.7 m 2.2,-3.8 c 1,0 1.7,0.7 1.7,1.7 0,1 -0.7,1.7 -1.7,1.7 -0.5,0 -0.9,-0.2 -1.2,-0.5 -0.3,-0.3 -0.5,-0.7 -0.5,-1.2 0,-1 0.8,-1.7 1.7,-1.7" />
          <path
             style="fill:#213a74"
             id="path6456_1_"
             inkscape:connector-curvature="0"
             class="st425"
             d="m -1107.7,509.4 -0.6,0 0,0.8 c -0.4,-0.6 -0.9,-0.9 -1.7,-0.9 -1.3,0 -2.2,1 -2.2,2.2 0,1.3 1,2.2 2.3,2.2 0.7,0 1.2,-0.2 1.6,-0.8 l 0,0.7 0.6,0 0,-4.2 m -2.2,0.4 c 0.9,0 1.7,0.7 1.7,1.7 0,1 -0.7,1.7 -1.6,1.7 -1,0 -1.7,-0.8 -1.7,-1.7 -0.1,-1 0.6,-1.7 1.6,-1.7" />
        </g>
        <path
           style="fill:#175628"
           id="path4091-5-0-6-7-7_1_"
           inkscape:connector-curvature="0"
           class="st426"
           d="m -1031.2,541.1 c 0,1.1 -1,1.9 -2.2,1.9 -1.2,0 -2.2,-0.9 -2.2,-1.9 0,-1 1,-1.9 2.2,-1.9 1.2,0 2.2,0.9 2.2,1.9 z" />
        <path
           style="fill:#213a74"
           id="path3872-7-0-3-2_1_"
           inkscape:connector-curvature="0"
           sodipodi:nodetypes="ccccc"
           class="st425"
           d="m -1053.3,539 1.2,0 -1.2,4.2 -1.2,0 1.2,-4.2 z" />
        <path
           style="fill:#213a74"
           id="path3872-1-8-8-3-1_1_"
           inkscape:connector-curvature="0"
           sodipodi:nodetypes="ccccc"
           class="st425"
           d="m -1043.9,529.6 1,0.8 -3.7,2 -1,-0.8 3.7,-2 z" />
        <path
           style="fill:#213a74"
           id="path3893-8-4-2-0_1_"
           inkscape:connector-curvature="0"
           sodipodi:nodetypes="ccccc"
           class="st425"
           d="m -1013.8,539 -1.3,0.1 1.2,4.3 1.3,0 -1.2,-4.4 z" />
        <path
           style="fill:#213a74"
           id="path3914-5-7-2-3_1_"
           inkscape:connector-curvature="0"
           sodipodi:nodetypes="ccccc"
           class="st425"
           d="m -1022.8,529.6 -1,0.8 3.6,2.1 0.8,-0.6 -3.4,-2.3 z" />
        <path
           style="fill:#213a74"
           id="path3914-0-3-7-4-4_1_"
           inkscape:connector-curvature="0"
           sodipodi:nodetypes="ccccc"
           class="st425"
           d="m -1035.4,527.6 0,0.6 4,-0.1 0,-0.6 -4,0.1 z" />
      </g>
    </g>
  </g>
</svg>
