<?xml version="1.0" encoding="UTF-8" standalone="no"?>
<!-- Created with Inkscape (http://www.inkscape.org/) -->

<svg
   xmlns:dc="http://purl.org/dc/elements/1.1/"
   xmlns:cc="http://creativecommons.org/ns#"
   xmlns:rdf="http://www.w3.org/1999/02/22-rdf-syntax-ns#"
   xmlns:svg="http://www.w3.org/2000/svg"
   xmlns="http://www.w3.org/2000/svg"
   xmlns:sodipodi="http://sodipodi.sourceforge.net/DTD/sodipodi-0.dtd"
   xmlns:inkscape="http://www.inkscape.org/namespaces/inkscape"
   width="210mm"
   height="297mm"
   viewBox="0 0 744.09448819 1052.3622047"
   id="svg7314"
   version="1.1"
   inkscape:version="0.91 r13725"
   sodipodi:docname="curitiba_livre.svg">
  <defs
     id="defs7316" />
  <sodipodi:namedview
     id="base"
     pagecolor="#ffffff"
     bordercolor="#666666"
     borderopacity="1.0"
     inkscape:pageopacity="0.0"
     inkscape:pageshadow="2"
     inkscape:zoom="0.35"
     inkscape:cx="-270.71429"
     inkscape:cy="520"
     inkscape:document-units="px"
     inkscape:current-layer="layer1"
     showgrid="false"
     inkscape:window-width="1920"
     inkscape:window-height="1135"
     inkscape:window-x="0"
     inkscape:window-y="0"
     inkscape:window-maximized="1" />
  <metadata
     id="metadata7319">
    <rdf:RDF>
      <cc:Work
         rdf:about="">
        <dc:format>image/svg+xml</dc:format>
        <dc:type
           rdf:resource="http://purl.org/dc/dcmitype/StillImage" />
        <dc:title></dc:title>
      </cc:Work>
    </rdf:RDF>
  </metadata>
  <g
     inkscape:label="Camada 1"
     inkscape:groupmode="layer"
     id="layer1">
    <path
       style="fill:#ffffff"
       id="path4065-7-8-1-9-5_1_"
       inkscape:connector-curvature="0"
       class="st425"
       d="m 374.00188,392.32774 c -3.04428,0 -6.84963,0.76107 -9.13284,1.52214 -3.80535,0.76107 -3.80535,1.52214 -3.80535,3.80535 l 0,2.2832 15.22139,0 15.22139,0 0,-0.76106 c 0,-0.76107 0,-1.52214 0,-2.28321 0,-1.52214 -0.76107,-1.52214 -2.2832,-2.28321 -3.80535,-1.52214 -9.89391,-2.28321 -15.22139,-2.28321 l 0,0 z m -12.93819,11.41604 0,1.52214 c 0,1.52214 0,1.52214 -2.28321,1.52214 -3.80534,0.76107 -8.37176,3.04428 -8.37176,5.32749 0,0.76107 2.28321,10.65497 10.65497,38.81454 6.08856,20.54888 11.41605,38.05348 11.41605,38.05348 0.76107,3.04428 2.2832,8.37176 3.80534,12.17711 2.28321,-3.80535 3.80535,-9.8939 4.56642,-12.93818 0,0 5.32749,-17.5046 11.41604,-38.05348 8.37177,-28.92064 11.41605,-38.05347 10.65498,-38.81454 -0.76107,-2.28321 -3.80535,-4.56642 -7.6107,-5.32749 l -2.28321,0 0,-1.52214 0,-1.52214 -15.22139,0 -16.74353,0 0,0.76107 z m 15.22139,18.26567 c 6.08856,0 8.37177,0 8.37177,0.76107 0,0 -1.52214,9.8939 -3.80535,20.54888 -2.28321,11.41604 -3.80535,20.54887 -3.80535,20.54887 0,0 0,0 0,-0.76107 -0.76107,-2.2832 -8.37176,-40.33668 -8.37176,-41.09775 -0.76107,0 0.76107,0 7.61069,0 z" />
    <path
       style="fill:#aad400"
       id="path4067-9-9-8-5-9_1_"
       inkscape:connector-curvature="0"
       class="st426"
       d="m 426.51567,396.13309 c -0.76107,0 -18.26567,12.93818 -18.26567,13.69925 0,0 1.52214,2.28321 3.80535,5.32748 2.28321,3.04428 3.80535,5.32749 3.80535,5.32749 0,0 3.80535,-0.76107 6.84962,-2.28321 4.56642,-1.52214 6.08856,-2.28321 6.08856,-3.04428 -0.76107,-9.13283 -2.28321,-19.02673 -2.28321,-19.02673 z" />
    <path
       style="fill:#aad400"
       id="path4069-7-3-4-3-9_1_"
       inkscape:connector-curvature="0"
       class="st426"
       d="m 323.01022,396.89416 c -0.76107,0.76107 -2.28321,19.02673 -2.28321,19.02673 0,0 3.04428,0.76107 7.61069,2.28321 3.80535,0.76107 6.84963,2.28321 7.6107,2.28321 0,0 1.52214,-2.28321 3.04428,-5.32749 2.28321,-4.56641 3.04428,-5.32748 2.28321,-5.32748 0,0 -4.56642,-3.04428 -9.13284,-6.84963 -6.08855,-3.80534 -9.13283,-6.08855 -9.13283,-6.08855 l 0,0 z" />
    <path
       style="fill:#ffffff"
       id="path4071-7-9-2-2-4_1_"
       inkscape:connector-curvature="0"
       class="st425"
       d="m 293.32851,412.87662 -2.28321,0 c -4.56642,0.76107 -11.41604,3.04427 -15.98246,6.84962 -3.04428,2.28321 -6.84963,6.08856 -7.6107,7.6107 l -0.76107,1.52214 2.28321,2.2832 c 1.52214,0.76107 2.28321,2.28321 3.04428,1.52214 0.76107,0 25.87636,-15.98246 25.87636,-15.98246 0,0 -0.76107,-0.76107 -2.2832,-2.2832 l -2.28321,-1.52214 0,0 z m 18.26567,6.08855 c -1.52214,0 -3.80535,0.76107 -5.32749,1.52214 l -2.28321,0.76107 -1.52214,-0.76107 -1.52214,-0.76107 -12.93818,8.37177 -12.93818,8.37176 1.52214,1.52214 1.52214,1.52214 -1.52214,1.52214 c -3.04428,3.04428 -4.56642,6.84962 -2.28321,9.8939 0.76107,0.76107 6.84962,3.80535 16.74353,9.13284 49.46952,25.11529 73.06267,37.2924 73.06267,37.2924 2.28321,0.76107 7.6107,4.56642 9.89391,5.32749 -0.76107,-2.28321 -3.80535,-8.37177 -5.32749,-10.65497 0,0 -11.41604,-15.22139 -24.35423,-34.24813 -12.93818,-19.02674 -24.35422,-34.24813 -25.11529,-35.0092 -2.28321,-3.04428 -4.56642,-3.80535 -7.61069,-3.80535 l 0,0 z m 0,19.02674 c 0,0 1.52213,1.52214 3.80534,3.04428 9.13284,11.41604 26.63744,31.20385 27.39851,31.96492 0.76106,0.76107 0.76106,0.76107 0.76106,0.76107 0,0 -44.14203,-26.63744 -44.9031,-26.63744 -0.76107,0 10.65498,-8.37176 12.93819,-9.13283 l 0,0 z" />
    <path
       style="fill:#ffffff"
       id="path4073-5-1-3-0-1_1_"
       inkscape:connector-curvature="0"
       class="st425"
       d="m 459.24166,413.63769 c -0.76107,0 -1.52214,0.76107 -3.80535,2.2832 -1.52214,1.52214 -1.52214,1.52214 -0.76107,1.52214 0,0 6.08856,3.80535 13.69925,8.37177 l 12.93819,7.61069 0.76107,-0.76107 c 0.76107,-0.76107 1.52213,-1.52214 2.2832,-2.2832 l 1.52214,-1.52214 -1.52214,-2.28321 c -3.80534,-5.32749 -13.69925,-11.41605 -22.07101,-12.93818 -1.52214,0 -2.28321,0 -3.04428,0 l 0,0 z m -8.37176,6.08855 -1.52214,0.76107 -1.52214,0.76107 -2.28321,-0.76107 c -3.04428,-1.52214 -8.37177,-1.52214 -10.65497,-0.76107 -0.76107,0 -2.28321,1.52214 -3.04428,1.52214 -0.76107,0.76107 -9.13284,12.17711 -18.26567,25.87636 -29.68171,41.85883 -30.44278,41.85883 -30.44278,42.6199 -2.28321,4.56641 -4.56642,8.37176 -6.08856,11.41604 3.04428,-1.52214 9.89391,-4.56642 12.17712,-6.08856 l 6.08855,-3.04427 c 5.32749,-3.04428 28.15957,-14.46033 66.97412,-34.24813 16.74353,-8.37177 17.5046,-9.13284 17.5046,-12.17711 0,-2.28321 -1.52214,-4.56642 -4.56642,-6.84963 -0.76107,-0.76107 -0.76107,-0.76107 0.76107,-1.52214 0.76107,-0.76107 0.76107,-1.52214 0.76107,-1.52214 0,0 -6.08856,-3.80535 -12.93818,-8.37176 l -12.93818,-7.6107 0,0 z m -10.65498,19.02674 c 0,0 3.80535,2.28321 7.6107,4.56642 5.32748,3.80534 6.84962,4.56641 6.08855,4.56641 0,0 -3.80534,3.04428 -8.37176,5.32749 -4.56642,3.04428 -14.46032,9.13283 -22.07102,13.69925 -7.61069,4.56642 -13.69925,8.37177 -13.69925,8.37177 0,0 0,0 0,-0.76107 1.52214,-1.52214 10.65498,-12.93818 20.54888,-24.35423 5.32749,-7.61069 9.8939,-12.17711 9.8939,-11.41604 l 0,0 z" />
    <path
       style="fill:#aad400"
       id="path4075-0-2-8-8-7_1_"
       inkscape:connector-curvature="0"
       class="st426"
       d="m 518.60508,450.93009 -15.98246,0 -15.98246,0 -1.52214,6.08856 c -0.76107,3.04428 -1.52214,6.08855 -1.52214,6.84962 0,0.76107 2.28321,0.76107 8.37177,3.04428 4.56642,1.52214 9.13283,2.28321 9.13283,2.28321 0,0 4.56642,-3.80535 9.13284,-9.13283 l 8.37176,-9.13284 z" />
    <path
       style="fill:#aad400"
       id="path4077-2-0-2-6-3_1_"
       inkscape:connector-curvature="0"
       class="st426"
       d="m 230.92081,453.2133 9.13283,9.13283 c 7.6107,7.6107 9.13284,9.13284 9.8939,9.13284 3.04428,-0.76107 17.5046,-5.32749 17.5046,-5.32749 0,0 -0.76107,-3.04428 -2.2832,-6.08855 l -2.28321,-6.08856 -15.98246,0 -15.98246,-0.76107 z" />
    <path
       style="fill:#ffffff"
       id="path4079-4-2-2-5-2_1_"
       inkscape:connector-curvature="0"
       class="st425"
       d="m 250.70861,476.80646 c -5.32748,0 -9.8939,3.04427 -11.41604,6.84962 -1.52214,3.04428 -1.52214,3.04428 -3.80535,3.04428 -2.2832,0 -3.04427,0 -3.04427,0.76107 0,0.76107 -2.28321,7.61069 -5.32749,15.98246 -2.28321,8.37176 -4.56642,15.22139 -4.56642,15.22139 0,0 1.52214,0 2.28321,0 l 2.28321,0 0,3.04428 c 0,6.08855 3.04428,9.13283 9.13283,9.13283 1.52214,0 14.46032,-2.28321 38.81455,-7.61069 19.78781,-4.56642 47.18631,-9.89391 60.88556,-12.93819 13.69925,-3.04427 24.35422,-5.32748 24.35422,-4.56641 4.56642,-1.52214 8.37177,-1.52214 9.89391,-2.28321 -3.04428,-1.52214 -6.84963,-3.04428 -10.65498,-3.80535 0,0 -24.35422,-4.56642 -53.27486,-11.41604 -38.05348,-8.37177 -53.27487,-11.41604 -55.55808,-11.41604 l 0,0 z m -32.72598,9.13283 -2.28321,2.28321 c -3.80535,3.80535 -7.6107,9.8939 -9.89391,15.22139 -1.52214,3.80535 -1.52214,12.17711 0,14.46032 l 0.76107,1.52214 5.32749,0 5.32749,0 5.32748,-15.98246 c 3.04428,-9.13284 5.32749,-15.98246 5.32749,-16.74353 0,0 -1.52214,-0.76107 -4.56642,-0.76107 l -5.32748,0 0,0 z m 44.14203,7.61069 1.52214,0 c 3.04427,0 61.64663,7.6107 61.64663,7.6107 0,0 -2.28321,0.76107 -3.80535,0.76107 -2.28321,0 -15.98246,2.28321 -31.96492,4.56642 -15.98246,2.2832 -28.92064,3.80534 -29.68171,3.80534 -0.76107,0 -0.76107,0 -0.76107,0 0,0 0.76107,-3.80534 2.28321,-9.13283 l 0.76107,-7.6107 0,0 z" />
    <path
       style="fill:#ffffff"
       id="path4081-2-8-7-3-4_1_"
       inkscape:connector-curvature="0"
       class="st425"
       d="m 498.81727,476.80646 c -5.32748,0 -17.50459,3.04427 -54.03593,11.41604 -28.92064,6.08855 -52.5138,11.41604 -52.5138,11.41604 -3.04427,0.76107 -6.84962,2.28321 -12.93818,3.80535 4.56642,1.52214 7.6107,2.28321 12.93818,3.04428 0.76107,0 27.39851,5.32748 60.88556,12.17711 54.03594,11.41604 60.1245,12.93818 63.16877,12.17711 2.28321,0 3.04428,-0.76107 4.56642,-1.52214 2.28321,-1.52214 3.04428,-3.80535 3.04428,-7.61069 l 0,-3.04428 3.04428,0 c 2.28321,0 3.04427,0 3.04427,-0.76107 0,0 -2.2832,-7.6107 -4.56641,-16.74353 l -4.56642,-15.98246 -3.04428,0 -3.04428,0 -0.76107,-1.52214 c -1.52213,-2.28321 -4.56641,-5.32749 -7.61069,-6.84962 -3.04428,0.76106 -3.80535,0 -7.6107,0 l 0,0 z m 29.68172,9.8939 c -2.28321,0 -4.56642,0 -4.56642,0 0,0 2.28321,7.61069 5.32749,16.74353 l 5.32748,16.74353 5.32749,0 5.32748,0 0.76107,-1.52214 c 0.76107,-0.76107 0.76107,-3.04428 0.76107,-6.08856 0,-3.80535 0,-4.56641 -0.76107,-7.61069 -0.76107,-2.28321 -1.52213,-4.56642 -2.2832,-6.08856 -1.52214,-3.80535 -5.32749,-8.37176 -7.6107,-9.8939 l -2.28321,-2.28321 -5.32748,0 0,0 z m -40.33669,7.61069 c 0,0 0.76107,3.80535 2.28321,8.37177 1.52214,4.56642 2.28321,8.37176 2.28321,8.37176 0,0 -6.84963,-0.76107 -14.46032,-1.52214 -7.6107,-0.76107 -22.83209,-3.04427 -33.48706,-3.80534 -12.17711,-1.52214 -19.02674,-2.28321 -18.26567,-3.04428 1.52214,0 61.64663,-8.37177 61.64663,-8.37177 l 0,0 z" />
    <g
       id="text4083-6-2-7-9-8_1_"
       transform="matrix(7.6502266,0,0,7.571368,8241.1774,-3615.4643)">
      <path
         style="fill:#aad400"
         id="path6430_1_"
         inkscape:connector-curvature="0"
         class="st426"
         d="m -1023.1,555.7 3.2,0 0,-0.6 -2.5,0 0,-5.6 -0.6,0 0,6.2" />
      <path
         style="fill:#aad400"
         id="path6432_1_"
         inkscape:connector-curvature="0"
         class="st426"
         d="m -1019.4,555.7 0.6,0 0,-4.5 -0.6,0 0,4.5 m 0,-5.1 0.6,0 0,-1 -0.6,0 0,1" />
      <path
         style="fill:#aad400"
         id="path6434_1_"
         inkscape:connector-curvature="0"
         class="st426"
         d="m -1016.3,555.7 0.6,0 1.9,-4.5 -0.6,0 -1.6,3.8 -1.6,-3.8 -0.6,0 1.9,4.5" />
      <path
         style="fill:#aad400"
         id="path6436_1_"
         inkscape:connector-curvature="0"
         class="st426"
         d="m -1013.1,555.7 0.6,0 0,-2.7 c 0,-0.8 0.4,-1.3 1.3,-1.4 l 0,-0.6 c -0.7,0 -1,0.3 -1.3,0.8 l 0,-0.6 -0.6,0 0,4.5" />
      <path
         style="fill:#aad400"
         id="path6438_1_"
         inkscape:connector-curvature="0"
         class="st426"
         d="m -1006.1,553.6 c 0,-0.6 -0.1,-1 -0.3,-1.4 -0.4,-0.7 -1.2,-1.2 -2.1,-1.2 -1.3,0 -2.4,1 -2.4,2.4 0,1.3 1.1,2.4 2.4,2.4 0.6,0 1.1,-0.2 1.5,-0.6 0.3,-0.3 0.5,-0.6 0.7,-1 l -0.6,0 c -0.3,0.6 -0.9,1 -1.6,1 -0.9,0 -1.7,-0.7 -1.8,-1.6 l 4.2,0 m -4.1,-0.5 c 0.2,-0.9 0.9,-1.5 1.7,-1.5 0.9,0 1.6,0.6 1.8,1.5 l -3.5,0" />
    </g>
    <g
       id="text4087-3-0-3-9-8_1_"
       transform="matrix(7.0704695,0,0,8.1921971,8241.1774,-3615.4643)">
      <path
         style="fill:#ffffff"
         id="path6442_1_"
         inkscape:connector-curvature="0"
         class="st425"
         d="m -1131.5,512.1 c -0.2,0.3 -0.4,0.5 -0.6,0.6 -0.4,0.3 -0.9,0.5 -1.4,0.5 -1.3,0 -2.4,-1.1 -2.4,-2.4 0,-1.4 1,-2.4 2.4,-2.4 0.5,0 1,0.1 1.3,0.4 0.3,0.2 0.4,0.3 0.6,0.7 l 0.6,0 c -0.4,-1 -1.5,-1.6 -2.6,-1.6 -1.7,0 -3,1.3 -3,3 0,1.7 1.3,2.9 3,2.9 1.2,0 2,-0.5 2.6,-1.6 l -0.5,0" />
      <path
         style="fill:#ffffff"
         id="path6444_1_"
         inkscape:connector-curvature="0"
         class="st425"
         d="m -1126.4,509.4 -0.6,0 0,2.2 c 0,0.5 -0.1,0.8 -0.3,1.1 -0.2,0.3 -0.6,0.5 -1.1,0.5 -0.5,0 -0.9,-0.2 -1.1,-0.5 -0.1,-0.2 -0.2,-0.6 -0.2,-1 l 0,-2.3 -0.6,0 0,2.3 c 0,0.6 0.1,1.1 0.3,1.4 0.3,0.4 0.8,0.7 1.5,0.7 0.7,0 1.1,-0.2 1.4,-0.8 l 0,0.7 0.6,0 0,-4.3" />
      <path
         style="fill:#ffffff"
         id="path6446_1_"
         inkscape:connector-curvature="0"
         class="st425"
         d="m -1125.4,513.6 0.6,0 0,-2.5 c 0,-0.8 0.4,-1.2 1.2,-1.3 l 0,-0.6 c -0.6,0 -1,0.2 -1.2,0.7 l 0,-0.6 -0.6,0 0,4.3" />
      <path
         style="fill:#ffffff"
         id="path6448_1_"
         inkscape:connector-curvature="0"
         class="st425"
         d="m -1123,513.6 0.6,0 0,-4.2 -0.6,0 0,4.2 m 0,-4.8 0.6,0 0,-1 -0.6,0 0,1" />
      <path
         style="fill:#ffffff"
         id="path6450_1_"
         inkscape:connector-curvature="0"
         class="st425"
         d="m -1121,513.6 0.6,0 0,-3.7 1,0 0,-0.5 -1,0 0,-1.5 -0.6,0 0,1.5 -0.9,0 0,0.5 0.9,0 0,3.7" />
      <path
         style="fill:#ffffff"
         id="path6452_1_"
         inkscape:connector-curvature="0"
         class="st425"
         d="m -1118.9,513.6 0.6,0 0,-4.2 -0.6,0 0,4.2 m 0,-4.8 0.6,0 0,-1 -0.6,0 0,1" />
      <path
         style="fill:#ffffff"
         id="path6454_1_"
         inkscape:connector-curvature="0"
         class="st425"
         d="m -1117.3,513.6 0.6,0 0,-0.7 c 0.4,0.5 1,0.8 1.7,0.8 1.3,0 2.2,-1 2.2,-2.2 0,-1.2 -1,-2.2 -2.2,-2.2 -0.7,0 -1.3,0.3 -1.7,0.8 l 0,-2.2 -0.6,0 0,5.7 m 2.2,-3.8 c 1,0 1.7,0.7 1.7,1.7 0,1 -0.7,1.7 -1.7,1.7 -0.5,0 -0.9,-0.2 -1.2,-0.5 -0.3,-0.3 -0.5,-0.7 -0.5,-1.2 0,-1 0.8,-1.7 1.7,-1.7" />
      <path
         style="fill:#ffffff"
         id="path6456_1_"
         inkscape:connector-curvature="0"
         class="st425"
         d="m -1107.7,509.4 -0.6,0 0,0.8 c -0.4,-0.6 -0.9,-0.9 -1.7,-0.9 -1.3,0 -2.2,1 -2.2,2.2 0,1.3 1,2.2 2.3,2.2 0.7,0 1.2,-0.2 1.6,-0.8 l 0,0.7 0.6,0 0,-4.2 m -2.2,0.4 c 0.9,0 1.7,0.7 1.7,1.7 0,1 -0.7,1.7 -1.6,1.7 -1,0 -1.7,-0.8 -1.7,-1.7 -0.1,-1 0.6,-1.7 1.6,-1.7" />
    </g>
    <path
       style="fill:#aad400"
       id="path4091-5-0-6-7-7_1_"
       inkscape:connector-curvature="0"
       class="st426"
       d="m 393.02861,502.68282 c 0,8.37176 -7.61069,14.46032 -16.74353,14.46032 -9.13283,0 -16.74353,-6.84963 -16.74353,-14.46032 0,-7.6107 7.6107,-14.46032 16.74353,-14.46032 9.13284,0 16.74353,6.84962 16.74353,14.46032 z" />
    <path
       style="fill:#ffffff"
       id="path3872-7-0-3-2_1_"
       inkscape:connector-curvature="0"
       sodipodi:nodetypes="ccccc"
       class="st425"
       d="m 224.83225,486.70036 9.13284,0 -9.13284,31.96492 -9.13283,0 9.13283,-31.96492 z" />
    <path
       style="fill:#ffffff"
       id="path3872-1-8-8-3-1_1_"
       inkscape:connector-curvature="0"
       sodipodi:nodetypes="ccccc"
       class="st425"
       d="m 296.37279,415.15982 7.61069,6.08856 -28.15957,15.22139 -7.6107,-6.08855 28.15958,-15.2214 z" />
    <path
       style="fill:#ffffff"
       id="path3893-8-4-2-0_1_"
       inkscape:connector-curvature="0"
       sodipodi:nodetypes="ccccc"
       class="st425"
       d="m 525.45471,486.70036 -9.89391,0.76107 9.13284,32.72599 9.8939,0 -9.13283,-33.48706 z" />
    <path
       style="fill:#ffffff"
       id="path3914-5-7-2-3_1_"
       inkscape:connector-curvature="0"
       sodipodi:nodetypes="ccccc"
       class="st425"
       d="m 456.95845,415.15982 -7.61069,6.08856 27.3985,15.98246 6.08856,-4.56642 -25.87637,-17.5046 z" />
    <path
       style="fill:#ffffff"
       id="path3914-0-3-7-4-4_1_"
       inkscape:connector-curvature="0"
       sodipodi:nodetypes="ccccc"
       class="st425"
       d="m 361.06369,399.93843 0,4.56642 30.44278,-0.76107 0,-4.56641 -30.44278,0.76106 z" />
  </g>
</svg>
