<?xml version="1.0" encoding="UTF-8" standalone="no"?>
<!-- Created with Inkscape (http://www.inkscape.org/) -->

<svg
   xmlns:dc="http://purl.org/dc/elements/1.1/"
   xmlns:cc="http://creativecommons.org/ns#"
   xmlns:rdf="http://www.w3.org/1999/02/22-rdf-syntax-ns#"
   xmlns:svg="http://www.w3.org/2000/svg"
   xmlns="http://www.w3.org/2000/svg"
   xmlns:sodipodi="http://sodipodi.sourceforge.net/DTD/sodipodi-0.dtd"
   xmlns:inkscape="http://www.inkscape.org/namespaces/inkscape"
   width="210mm"
   height="297mm"
   viewBox="0 0 744.09448819 1052.3622047"
   id="svg5437"
   version="1.1"
   inkscape:version="0.91 r13725"
   sodipodi:docname="icon_email.svg">
  <defs
     id="defs5439" />
  <sodipodi:namedview
     id="base"
     pagecolor="#ffffff"
     bordercolor="#666666"
     borderopacity="1.0"
     inkscape:pageopacity="0.0"
     inkscape:pageshadow="2"
     inkscape:zoom="0.35"
     inkscape:cx="-270.71429"
     inkscape:cy="520"
     inkscape:document-units="px"
     inkscape:current-layer="layer1"
     showgrid="false"
     inkscape:window-width="1920"
     inkscape:window-height="1135"
     inkscape:window-x="0"
     inkscape:window-y="0"
     inkscape:window-maximized="1" />
  <metadata
     id="metadata5442">
    <rdf:RDF>
      <cc:Work
         rdf:about="">
        <dc:format>image/svg+xml</dc:format>
        <dc:type
           rdf:resource="http://purl.org/dc/dcmitype/StillImage" />
        <dc:title></dc:title>
      </cc:Work>
    </rdf:RDF>
  </metadata>
  <g
     inkscape:label="Camada 1"
     inkscape:groupmode="layer"
     id="layer1">
    <path
       style="fill:#b3b3b3"
       d="m 126.42863,538.57652 0,-152.5 205.5,0 205.5,0 0,152.5 0,152.5 -205.5,0 -205.5,0 0,-152.5 z m 371,23.87756 c 0,-70.74773 -0.25212,-88.42714 -1.25,-87.65413 -0.6875,0.53258 -37.62477,30.99111 -82.08283,67.68562 -44.45806,36.69451 -81.38032,66.92738 -82.04946,67.18415 -0.92431,0.3547 -87.25221,-70.38266 -160.86771,-131.81552 l -4.75,-3.96392 0,88.59312 0,88.59312 165.5,0 165.5,0 0,-88.62244 z m -87.283,-71.62756 77.73199,-64.25 -78.2245,-0.25609 c -43.02347,-0.14086 -113.29559,-0.14086 -156.16027,0 l -77.93578,0.25609 77.55148,64.25 c 42.65332,35.3375 77.94605,64.25 78.42829,64.25 0.48225,0 35.8562,-28.9125 78.60879,-64.25 z"
       id="path5996"
       inkscape:connector-curvature="0" />
  </g>
</svg>
