<?xml version="1.0" encoding="UTF-8" standalone="no"?>
<!-- Created with Inkscape (http://www.inkscape.org/) -->

<svg
   xmlns:dc="http://purl.org/dc/elements/1.1/"
   xmlns:cc="http://creativecommons.org/ns#"
   xmlns:rdf="http://www.w3.org/1999/02/22-rdf-syntax-ns#"
   xmlns:svg="http://www.w3.org/2000/svg"
   xmlns="http://www.w3.org/2000/svg"
   xmlns:sodipodi="http://sodipodi.sourceforge.net/DTD/sodipodi-0.dtd"
   xmlns:inkscape="http://www.inkscape.org/namespaces/inkscape"
   width="210mm"
   height="297mm"
   viewBox="0 0 744.09448819 1052.3622047"
   id="svg4818"
   version="1.1"
   inkscape:version="0.91 r13725"
   sodipodi:docname="icon_cracha.svg">
  <defs
     id="defs4820" />
  <sodipodi:namedview
     id="base"
     pagecolor="#ffffff"
     bordercolor="#666666"
     borderopacity="1.0"
     inkscape:pageopacity="0.0"
     inkscape:pageshadow="2"
     inkscape:zoom="0.35"
     inkscape:cx="-270.71429"
     inkscape:cy="520"
     inkscape:document-units="px"
     inkscape:current-layer="layer1"
     showgrid="false"
     inkscape:window-width="1920"
     inkscape:window-height="1135"
     inkscape:window-x="0"
     inkscape:window-y="0"
     inkscape:window-maximized="1" />
  <metadata
     id="metadata4823">
    <rdf:RDF>
      <cc:Work
         rdf:about="">
        <dc:format>image/svg+xml</dc:format>
        <dc:type
           rdf:resource="http://purl.org/dc/dcmitype/StillImage" />
        <dc:title></dc:title>
      </cc:Work>
    </rdf:RDF>
  </metadata>
  <g
     inkscape:label="Camada 1"
     inkscape:groupmode="layer"
     id="layer1">
    <path
       style="fill:#b3b3b3"
       d="m 297.7799,686.39842 c -12.05591,-1.91818 -20.40987,-9.47316 -23.04264,-20.83876 -0.50612,-2.18492 -0.523,-7.77223 -0.523,-173.14394 0,-165.37167 0.0169,-170.95899 0.523,-173.14391 2.35907,-10.18408 9.48855,-17.48115 19.79707,-20.26245 l 2.25778,-0.60916 42.82737,-0.0832 42.82737,-0.0832 0.006,-5.56776 c 0.008,-8.57624 0.91305,-13.63345 3.38028,-18.89839 5.19301,-11.08158 15.48252,-18.62081 27.65877,-20.26588 20.16444,-2.7243 38.1068,10.7493 40.7932,30.63317 0.22958,1.6993 0.40271,5.33833 0.40587,8.5311 l 0.005,5.56776 42.82739,0.0832 42.82736,0.0832 2.25779,0.60916 c 10.30851,2.7813 17.438,10.07837 19.79708,20.26245 0.50611,2.18492 0.52299,7.77224 0.52299,173.14391 0,165.37171 -0.0169,170.95902 -0.52299,173.14394 -2.35894,10.18337 -9.46788,17.46092 -19.79708,20.26653 l -2.25779,0.61327 -120.93264,0.0356 c -66.51295,0.0195 -121.25013,-0.0149 -121.63819,-0.0767 z m 186.81523,-63.44653 c 2.86079,-0.76133 5.0487,-2.94923 5.81002,-5.81002 1.39808,-5.25333 -1.10231,-10.16861 -5.81002,-11.42146 -2.31185,-0.61527 -129.73556,-0.61527 -132.04743,0 -2.86079,0.76133 -5.04868,2.94923 -5.81002,5.81002 -1.37782,5.17727 1.09682,10.14855 5.67779,11.40602 2.1514,0.59055 129.96252,0.60548 132.17966,0.0155 z m 0,-36.12458 c 2.86079,-0.76133 5.0487,-2.94924 5.81002,-5.81002 1.39808,-5.25333 -1.10231,-10.16861 -5.81002,-11.42146 -2.31185,-0.61527 -129.73556,-0.61527 -132.04743,0 -2.86079,0.76133 -5.04868,2.94923 -5.81002,5.81002 -1.37782,5.17727 1.09682,10.14855 5.67779,11.40602 2.1514,0.59057 129.96252,0.60549 132.17966,0.0155 z m 5.22723,-55.25312 c -0.9619,-8.33552 -3.93529,-14.18368 -9.84143,-19.35643 -4.31167,-3.77625 -9.75174,-6.64578 -21.47494,-11.3276 -8.42198,-3.36342 -12.85594,-5.43691 -15.54875,-7.27117 -2.1932,-1.49395 -4.66579,-4.12199 -5.58519,-5.93635 l -0.73835,-1.45706 0,-8.18661 0,-8.18661 0.81435,-0.42112 c 2.82681,-1.46179 6.35345,-8.17743 7.65927,-14.58521 0.32726,-1.60589 0.61833,-2.92194 0.64683,-2.92457 0.0285,-0.002 0.5598,-0.27725 1.18069,-0.61028 1.36181,-0.73046 2.80095,-2.73138 3.38936,-4.71244 0.23776,-0.80047 0.56276,-2.9577 0.72223,-4.79383 0.34515,-3.97403 0.0105,-5.57645 -1.60714,-7.69569 l -1.01817,-1.33388 0.87245,-3.12936 c 1.17455,-4.21299 2.20366,-9.50097 2.60485,-13.38487 0.41327,-4.00078 0.17975,-11.29679 -0.4531,-14.1568 -1.39529,-6.30567 -4.38049,-10.86619 -8.9025,-13.60047 -1.80304,-1.09022 -5.65361,-2.48625 -6.85765,-2.48625 -0.41894,0 -1.08012,-0.51308 -1.93052,-1.4981 -3.10029,-3.59106 -9.25234,-5.239 -18.28769,-4.8987 -5.07553,0.19115 -8.65471,0.75022 -12.41782,1.93967 -12.09731,3.82372 -18.33756,12.84215 -19.09726,27.59943 -0.27659,5.37277 0.72577,14.18415 2.41729,21.24963 l 0.52658,2.19956 -1.21866,1.81735 c -0.77698,1.15867 -1.28892,2.28582 -1.4125,3.10991 -0.38663,2.57828 0.54776,7.73324 1.87237,10.3297 0.81402,1.59562 2.41609,3.27142 3.50332,3.66457 0.85339,0.30859 0.96544,0.48816 1.2697,2.03467 0.94653,4.8111 4.62102,12.13872 7.68377,15.32288 l 1.12247,1.16696 0.0437,7.86418 0.0437,7.86418 -0.80344,1.63621 c -0.44189,0.89992 -1.50174,2.39046 -2.35522,3.31232 -3.02705,3.26958 -7.05236,5.43497 -18.86814,10.15002 -9.30712,3.71398 -13.88286,5.90654 -17.84923,8.55283 -3.2055,2.13865 -6.98983,5.73266 -8.61619,8.18288 -2.51224,3.78486 -4.36264,8.96248 -4.83649,13.53311 l -0.19751,1.90501 71.85799,0 71.85799,0 -0.17097,-1.48167 z M 436.6337,306.41875 c 0,-21.34636 -0.0141,-21.5248 -2.02513,-25.65402 -0.87688,-1.80045 -1.65433,-2.87648 -3.18235,-4.4045 -8.50143,-8.50144 -23.73764,-6.17872 -28.89196,4.4045 -2.01104,4.12922 -2.02513,4.30766 -2.02513,25.65402 l 0,18.92086 18.06228,0 18.06229,0 0,-18.92086 z m -20.11279,-8.46313 c -1.60567,-0.40324 -3.18066,-1.29052 -4.32876,-2.43862 -3.36997,-3.36997 -3.35199,-9.25194 0.0386,-12.64258 3.40891,-3.40891 9.27231,-3.40891 12.68123,0 2.55149,2.5515 3.30877,6.77273 1.80006,10.03393 -0.91277,1.97303 -2.44154,3.52148 -4.3305,4.38628 -1.65774,0.75894 -4.28899,1.0557 -5.86068,0.66099 z"
       id="path5377"
       inkscape:connector-curvature="0" />
  </g>
</svg>
