<?xml version="1.0" encoding="UTF-8" standalone="no"?>
<!-- Created with Inkscape (http://www.inkscape.org/) -->

<svg
   xmlns:dc="http://purl.org/dc/elements/1.1/"
   xmlns:cc="http://creativecommons.org/ns#"
   xmlns:rdf="http://www.w3.org/1999/02/22-rdf-syntax-ns#"
   xmlns:svg="http://www.w3.org/2000/svg"
   xmlns="http://www.w3.org/2000/svg"
   xmlns:sodipodi="http://sodipodi.sourceforge.net/DTD/sodipodi-0.dtd"
   xmlns:inkscape="http://www.inkscape.org/namespaces/inkscape"
   width="210mm"
   height="297mm"
   viewBox="0 0 744.09448819 1052.3622047"
   id="svg2"
   version="1.1"
   inkscape:version="0.91 r13725"
   sodipodi:docname="icon_site.svg">
  <defs
     id="defs4" />
  <sodipodi:namedview
     id="base"
     pagecolor="#ffffff"
     bordercolor="#666666"
     borderopacity="1.0"
     inkscape:pageopacity="0.0"
     inkscape:pageshadow="2"
     inkscape:zoom="0.35"
     inkscape:cx="-270.71429"
     inkscape:cy="520"
     inkscape:document-units="px"
     inkscape:current-layer="layer1"
     showgrid="false"
     showborder="false"
     inkscape:window-width="1920"
     inkscape:window-height="1135"
     inkscape:window-x="0"
     inkscape:window-y="0"
     inkscape:window-maximized="1" />
  <metadata
     id="metadata7">
    <rdf:RDF>
      <cc:Work
         rdf:about="">
        <dc:format>image/svg+xml</dc:format>
        <dc:type
           rdf:resource="http://purl.org/dc/dcmitype/StillImage" />
        <dc:title></dc:title>
      </cc:Work>
    </rdf:RDF>
  </metadata>
  <g
     inkscape:label="Camada 1"
     inkscape:groupmode="layer"
     id="layer1">
    <path
       style="fill:#b3b3b3"
       d="m 181.74588,606.70512 c -10.96152,-2.58344 -21.94824,-11.45735 -27.02162,-21.82521 l -3.2243,-6.58912 -0.26684,-153 c -0.26233,-150.40968 -0.23309,-153.11005 1.72749,-159.5 3.45617,-11.26442 12.16096,-20.48549 23.75704,-25.16606 l 5.78231,-2.33394 213.00004,-0.2955 c 155.6869,-0.21599 214.6144,0.01 219,0.83837 12.4906,2.36047 23.9248,11.22822 29.3199,22.73907 l 2.6801,5.71806 0,155.5 0,155.5 -2.6801,5.71807 c -3.1545,6.73038 -10.2869,14.69346 -16.3356,18.23827 -10.0189,5.87144 3.3852,5.55276 -228.9444,5.44321 -119.6293,-0.0564 -214.68597,-0.48839 -216.79402,-0.98522 z M 615.0101,580.54079 c 1.8183,-1.2375 4.2473,-3.52037 5.3979,-5.07305 2.089,-2.8191 2.0923,-2.97729 2.3591,-113.25 l 0.2671,-110.42695 -224.0343,0 -224.03433,0 0.26719,109.75 c 0.26457,108.66859 0.28744,109.78445 2.32127,113.2466 1.12973,1.92313 3.55878,4.51063 5.39788,5.75 l 3.34381,2.2534 212.70428,0 212.7042,0 3.3059,-2.25 z M 573.923,498.86771 c -2.3933,-2.3933 -2.923,-3.76653 -2.923,-7.57692 0,-3.81039 0.5297,-5.18362 2.923,-7.57692 2.3884,-2.38837 3.7694,-2.92308 7.5497,-2.92308 6.614,0 10.2259,2.16693 11.5002,6.89959 0.5756,2.13743 0.7763,4.72192 0.4461,5.74332 -2.1128,6.53528 -4.7382,8.35709 -12.043,8.35709 -3.6734,0 -5.0826,-0.55269 -7.453,-2.92308 z m -333.9366,-0.32692 c -1.19792,-2.77676 -19.98644,-67.43333 -19.98644,-68.77898 0,-0.55933 3.99493,-0.97102 9.42245,-0.97102 l 9.42244,0 1.04964,3.25 c 2.74638,8.50362 10.04075,38.94422 10.66338,44.5 0.38523,3.4375 1.02819,6.25 1.4288,6.25 0.40061,0 1.00616,-2.65771 1.34568,-5.90602 0.33951,-3.24831 3.0095,-15.28581 5.9333,-26.75 l 5.31605,-20.84398 10.9775,-0.28058 10.9775,-0.28059 4.8692,19.64397 c 2.678,10.80418 5.4183,23.30544 6.0895,27.78058 1.3429,8.9527 1.2442,9.10951 4.3191,-6.86338 1.0588,-5.5 3.8364,-16.8625 6.1725,-25.25 l 4.2473,-15.25 9.3828,0 c 6.8573,0 9.374,0.33647 9.3498,1.25 -0.018,0.6875 -4.64,16.775 -10.2707,35.75 l -10.2377,34.5 -10.7018,0.28355 c -10.4322,0.27641 -10.7149,0.22603 -11.2217,-2 -1.83,-8.03692 -8.7658,-37.845 -10.6395,-45.7256 -1.6803,-7.06717 -2.4494,-8.95358 -3.0578,-7.5 -0.447,1.06813 -3.5621,13.64205 -6.9224,27.94205 -3.3603,14.3 -6.3175,26.3375 -6.5715,26.75 -0.254,0.4125 -4.94496,0.75 -10.4243,0.75 -9.37712,0 -10.01945,-0.13219 -10.9331,-2.25 z m 115.0168,0 C 353.7699,495.63166 335,431.06347 335,429.72999 c 0,-0.63204 3.62,-0.90423 9.6476,-0.72541 l 9.6476,0.28621 4.3072,16 c 2.369,8.8 5.1151,20.83696 6.1024,26.74879 0.9873,5.91184 2.0425,10.74934 2.3448,10.75 0.3024,6.7e-4 1.0935,-3.71129 1.7582,-8.24879 0.6646,-4.5375 3.3826,-16.575 6.0399,-26.75 l 4.8315,-18.5 10.9288,-0.28058 10.9287,-0.28059 4.8692,19.64397 c 2.678,10.80418 5.4183,23.30544 6.0895,27.78058 1.3492,8.99507 1.2861,9.09462 4.3496,-6.86338 1.0559,-5.5 3.835,-16.8625 6.1759,-25.25 l 4.2562,-15.25 9.3614,0 c 6.8316,0 9.3569,0.3378 9.3444,1.25 -0.01,0.6875 -4.6267,16.775 -10.2608,35.75 l -10.2437,34.5 -10.7118,0.28355 c -10.4425,0.27643 -10.7248,0.22617 -11.2316,-2 -1.2577,-5.5235 -8.8055,-38.10542 -10.7219,-46.28355 -1.6258,-6.93801 -2.3019,-8.54178 -2.9509,-7 -0.463,1.1 -3.5603,13.65298 -6.883,27.89551 -3.3226,14.24253 -6.2787,26.28003 -6.5692,26.75 -0.2904,0.46997 -5.0112,0.85449 -10.4905,0.85449 -9.3821,0 -10.018,-0.13106 -10.9163,-2.25 z m 115.5149,1.2793 C 469.8126,498.67853 450,430.85831 450,429.5848 c 0,-0.47654 4.3355,-0.73764 9.6345,-0.58022 l 9.6345,0.28621 3.9524,14.5 c 2.1738,7.975 4.9969,20.04606 6.2734,26.82458 1.2765,6.77852 2.5278,12.53136 2.7805,12.7841 0.2527,0.25273 0.7671,-2.59333 1.1431,-6.32458 0.376,-3.73126 3.0504,-16.0091 5.9431,-27.2841 l 5.2596,-20.5 10.9741,-0.28074 10.9741,-0.28073 5.1998,21.28073 c 2.8598,11.70441 5.4966,23.89333 5.8595,27.0865 0.3629,3.19318 0.9656,5.44318 1.3393,5 0.3737,-0.44317 1.457,-5.08076 2.4073,-10.30576 0.9504,-5.225 3.8029,-17.0375 6.3389,-26.25 l 4.6109,-16.75 9.3375,0 c 6.0822,0 9.3375,0.38066 9.3375,1.09189 0,1.30603 -19.8764,68.89908 -20.6091,70.08452 -0.2799,0.45297 -5.1697,0.82359 -10.8662,0.82359 l -10.3572,0 -2.6015,-11.25 c -8.9774,-38.82239 -10.9116,-46.13749 -11.6934,-44.22404 -0.4436,1.08572 -3.5384,13.6319 -6.8772,27.88039 -3.3389,14.2485 -6.3053,26.286 -6.5921,26.75 -0.7288,1.17931 -20.1509,1.06117 -20.8852,-0.12705 z m 73.2962,-202.45855 c -0.3457,-26.86352 -0.3533,-26.89759 -7.1995,-32.00896 l -2.7615,-2.06179 -174.3533,0 -174.35338,0 -2.82333,2.10453 c -1.55283,1.15749 -3.72333,3.63249 -4.82333,5.5 -1.82062,3.09093 -2.02829,5.52563 -2.31542,27.14547 l -0.31542,23.75 184.62978,0 184.6298,0 -0.3144,-24.42925 z m 57.749,22.75296 c 6.6082,-2.25163 14.5087,-10.15219 16.7604,-16.76034 3.6749,-10.78542 1.2852,-21.08483 -6.7585,-29.12859 -11.3702,-11.3702 -27.7603,-11.3702 -39.1305,0 -11.3788,11.37883 -11.371,27.75943 0.019,39.14912 7.9991,7.99911 18.3683,10.39987 29.1099,6.73981 z"
       id="path4147"
       inkscape:connector-curvature="0" />
  </g>
</svg>
