<?xml version="1.0" encoding="UTF-8" standalone="no"?>
<!-- Created with Inkscape (http://www.inkscape.org/) -->

<svg
   xmlns:dc="http://purl.org/dc/elements/1.1/"
   xmlns:cc="http://creativecommons.org/ns#"
   xmlns:rdf="http://www.w3.org/1999/02/22-rdf-syntax-ns#"
   xmlns:svg="http://www.w3.org/2000/svg"
   xmlns="http://www.w3.org/2000/svg"
   xmlns:sodipodi="http://sodipodi.sourceforge.net/DTD/sodipodi-0.dtd"
   xmlns:inkscape="http://www.inkscape.org/namespaces/inkscape"
   width="210mm"
   height="297mm"
   viewBox="0 0 744.09448819 1052.3622047"
   id="svg15616"
   version="1.1"
   inkscape:version="0.91 r13725"
   sodipodi:docname="13.svg">
  <defs
     id="defs15618" />
  <sodipodi:namedview
     id="base"
     pagecolor="#ffffff"
     bordercolor="#666666"
     borderopacity="1.0"
     inkscape:pageopacity="0.0"
     inkscape:pageshadow="2"
     inkscape:zoom="0.35"
     inkscape:cx="-319.28571"
     inkscape:cy="520"
     inkscape:document-units="px"
     inkscape:current-layer="layer1"
     showgrid="false"
     showborder="false"
     inkscape:window-width="1440"
     inkscape:window-height="836"
     inkscape:window-x="0"
     inkscape:window-y="27"
     inkscape:window-maximized="1" />
  <metadata
     id="metadata15621">
    <rdf:RDF>
      <cc:Work
         rdf:about="">
        <dc:format>image/svg+xml</dc:format>
        <dc:type
           rdf:resource="http://purl.org/dc/dcmitype/StillImage" />
        <dc:title></dc:title>
      </cc:Work>
    </rdf:RDF>
  </metadata>
  <g
     inkscape:label="Camada 1"
     inkscape:groupmode="layer"
     id="layer1">
    <g
       transform="matrix(0.04637774,0,0,-0.04637774,-76.939531,392.15888)"
       id="g10320">
      <path
         inkscape:connector-curvature="0"
         id="path9396"
         style="fill:#ffffff;fill-opacity:1;fill-rule:nonzero;stroke:none"
         d="m 0,0 8000,0 0,7999.93 -8000,0 L 0,0 Z" />
      <path
         inkscape:connector-curvature="0"
         id="path9398"
         style="fill:#f3b90b;fill-opacity:1;fill-rule:nonzero;stroke:none"
         d="m 7221.06,8000 -21.08,-12.4 800.02,-470.65 0,483.05 -778.94,0" />
      <path
         inkscape:connector-curvature="0"
         id="path9400"
         style="fill:#f9d805;fill-opacity:1;fill-rule:nonzero;stroke:none"
         d="m 7199.98,7987.6 800.02,-470.65 -800.02,-470.7 0,941.35" />
      <path
         inkscape:connector-curvature="0"
         id="path9402"
         style="fill:#f3b90b;fill-opacity:1;fill-rule:nonzero;stroke:none"
         d="m 8000,6575.55 -800.02,470.7 800.02,470.7 0,-941.4" />
      <path
         inkscape:connector-curvature="0"
         id="path9404"
         style="fill:#f3b90b;fill-opacity:1;fill-rule:nonzero;stroke:none"
         d="m 7199.98,7046.25 800.02,-470.7 -800.02,-470.65 0,941.35" />
      <path
         inkscape:connector-curvature="0"
         id="path9406"
         style="fill:#f6a50d;fill-opacity:1;fill-rule:nonzero;stroke:none"
         d="m 8000,5634.24 -800.02,470.66 800.02,470.65 0,-941.31" />
      <path
         inkscape:connector-curvature="0"
         id="path9408"
         style="fill:#f6a50d;fill-opacity:1;fill-rule:nonzero;stroke:none"
         d="m 7199.98,6104.9 800.02,-470.66 -800.02,-470.66 0,941.32" />
      <path
         inkscape:connector-curvature="0"
         id="path9410"
         style="fill:#f3b90b;fill-opacity:1;fill-rule:nonzero;stroke:none"
         d="m 8000,4692.89 -800.02,470.69 800.02,470.66 0,-941.35" />
      <path
         inkscape:connector-curvature="0"
         id="path9412"
         style="fill:#facd08;fill-opacity:1;fill-rule:nonzero;stroke:none"
         d="M 7199.98,5163.58 8000,4692.89 7199.98,4222.2 l 0,941.38" />
      <path
         inkscape:connector-curvature="0"
         id="path9414"
         style="fill:#f7e805;fill-opacity:1;fill-rule:nonzero;stroke:none"
         d="m 8000,3751.54 -800.02,470.66 800.02,470.69 0,-941.35" />
      <path
         inkscape:connector-curvature="0"
         id="path9416"
         style="fill:#f6a50d;fill-opacity:1;fill-rule:nonzero;stroke:none"
         d="m 7199.98,4222.2 800.02,-470.66 -800.02,-470.66 0,941.32" />
      <path
         inkscape:connector-curvature="0"
         id="path9418"
         style="fill:#f3b90b;fill-opacity:1;fill-rule:nonzero;stroke:none"
         d="m 8000,2810.23 -800.02,470.65 800.02,470.66 0,-941.31" />
      <path
         inkscape:connector-curvature="0"
         id="path9420"
         style="fill:#facd08;fill-opacity:1;fill-rule:nonzero;stroke:none"
         d="m 7199.98,3280.88 800.02,-470.65 -800.02,-470.7 0,941.35" />
      <path
         inkscape:connector-curvature="0"
         id="path9422"
         style="fill:#f6a50d;fill-opacity:1;fill-rule:nonzero;stroke:none"
         d="m 8000,1868.84 -800.02,470.69 800.02,470.7 0,-941.39" />
      <path
         inkscape:connector-curvature="0"
         id="path9424"
         style="fill:#f6a50d;fill-opacity:1;fill-rule:nonzero;stroke:none"
         d="m 7199.98,2339.53 800.02,-470.69 -800.02,-470.66 0,941.35" />
      <path
         inkscape:connector-curvature="0"
         id="path9426"
         style="fill:#facd08;fill-opacity:1;fill-rule:nonzero;stroke:none"
         d="m 8000,927.52 -800.02,470.66 800.02,470.66 0,-941.32" />
      <path
         inkscape:connector-curvature="0"
         id="path9428"
         style="fill:#f7e805;fill-opacity:1;fill-rule:nonzero;stroke:none"
         d="M 7199.98,1398.18 8000,927.52 7199.98,456.871 l 0,941.309" />
      <path
         inkscape:connector-curvature="0"
         id="path9430"
         style="fill:#f6a50d;fill-opacity:1;fill-rule:nonzero;stroke:none"
         d="m 8000,0 0,927.52 L 7199.98,456.871 7976.5,0 8000,0" />
      <path
         inkscape:connector-curvature="0"
         id="path9432"
         style="fill:#f7e805;fill-opacity:1;fill-rule:nonzero;stroke:none"
         d="M 7976.5,0 7199.98,456.871 7199.98,0 7976.5,0" />
      <path
         inkscape:connector-curvature="0"
         id="path9434"
         style="fill:#f9d805;fill-opacity:1;fill-rule:nonzero;stroke:none"
         d="m 6400.01,8000 0,-483.05 799.97,470.65 -21.08,12.4 -778.89,0" />
      <path
         inkscape:connector-curvature="0"
         id="path9436"
         style="fill:#f3b90b;fill-opacity:1;fill-rule:nonzero;stroke:none"
         d="m 7199.98,7046.25 -799.97,470.7 799.97,470.65 0,-941.35" />
      <path
         inkscape:connector-curvature="0"
         id="path9438"
         style="fill:#f6a50d;fill-opacity:1;fill-rule:nonzero;stroke:none"
         d="m 6400.01,7516.95 799.97,-470.7 -799.97,-470.7 0,941.4" />
      <path
         inkscape:connector-curvature="0"
         id="path9440"
         style="fill:#f9d805;fill-opacity:1;fill-rule:nonzero;stroke:none"
         d="m 7199.98,6104.9 -799.97,470.65 799.97,470.7 0,-941.35" />
      <path
         inkscape:connector-curvature="0"
         id="path9442"
         style="fill:#f9d805;fill-opacity:1;fill-rule:nonzero;stroke:none"
         d="m 6400.01,6575.55 799.97,-470.65 -799.97,-470.66 0,941.31" />
      <path
         inkscape:connector-curvature="0"
         id="path9444"
         style="fill:#facd08;fill-opacity:1;fill-rule:nonzero;stroke:none"
         d="m 7199.98,5163.58 -799.97,470.66 799.97,470.66 0,-941.32" />
      <path
         inkscape:connector-curvature="0"
         id="path9446"
         style="fill:#facd08;fill-opacity:1;fill-rule:nonzero;stroke:none"
         d="m 6400.01,5634.24 799.97,-470.66 -799.97,-470.69 0,941.35" />
      <path
         inkscape:connector-curvature="0"
         id="path9448"
         style="fill:#f9d805;fill-opacity:1;fill-rule:nonzero;stroke:none"
         d="m 7199.98,4222.2 -799.97,470.69 799.97,470.69 0,-941.38" />
      <path
         inkscape:connector-curvature="0"
         id="path9450"
         style="fill:#f9d805;fill-opacity:1;fill-rule:nonzero;stroke:none"
         d="m 6400.01,4692.89 799.97,-470.69 -799.97,-470.66 0,941.35" />
      <path
         inkscape:connector-curvature="0"
         id="path9452"
         style="fill:#f6a50d;fill-opacity:1;fill-rule:nonzero;stroke:none"
         d="m 7199.98,3280.88 -799.97,470.66 799.97,470.66 0,-941.32" />
      <path
         inkscape:connector-curvature="0"
         id="path9454"
         style="fill:#f3b90b;fill-opacity:1;fill-rule:nonzero;stroke:none"
         d="m 6400.01,3751.54 799.97,-470.66 -799.97,-470.65 0,941.31" />
      <path
         inkscape:connector-curvature="0"
         id="path9456"
         style="fill:#f9d805;fill-opacity:1;fill-rule:nonzero;stroke:none"
         d="m 7199.98,2339.53 -799.97,470.7 799.97,470.65 0,-941.35" />
      <path
         inkscape:connector-curvature="0"
         id="path9458"
         style="fill:#f3b90b;fill-opacity:1;fill-rule:nonzero;stroke:none"
         d="m 6400.01,2810.23 799.97,-470.7 -799.97,-470.69 0,941.39" />
      <path
         inkscape:connector-curvature="0"
         id="path9460"
         style="fill:#f3b90b;fill-opacity:1;fill-rule:nonzero;stroke:none"
         d="m 7199.98,1398.18 -799.97,470.66 799.97,470.69 0,-941.35" />
      <path
         inkscape:connector-curvature="0"
         id="path9462"
         style="fill:#f9d805;fill-opacity:1;fill-rule:nonzero;stroke:none"
         d="m 6400.01,1868.84 799.97,-470.66 -799.97,-470.66 0,941.32" />
      <path
         inkscape:connector-curvature="0"
         id="path9464"
         style="fill:#f9d805;fill-opacity:1;fill-rule:nonzero;stroke:none"
         d="m 7199.98,456.871 -799.97,470.649 799.97,470.66 0,-941.309" />
      <path
         inkscape:connector-curvature="0"
         id="path9466"
         style="fill:#f3b90b;fill-opacity:1;fill-rule:nonzero;stroke:none"
         d="m 6423.51,0 776.47,456.871 -799.97,470.649 0,-927.52 23.5,0" />
      <path
         inkscape:connector-curvature="0"
         id="path9468"
         style="fill:#f9d805;fill-opacity:1;fill-rule:nonzero;stroke:none"
         d="m 7199.98,0 0,456.871 L 6423.51,0 7199.98,0" />
      <path
         inkscape:connector-curvature="0"
         id="path9470"
         style="fill:#f6a50d;fill-opacity:1;fill-rule:nonzero;stroke:none"
         d="m 5621.07,8000 -21.08,-12.4 800.02,-470.65 0,483.05 -778.94,0" />
      <path
         inkscape:connector-curvature="0"
         id="path9472"
         style="fill:#f6a50d;fill-opacity:1;fill-rule:nonzero;stroke:none"
         d="m 5599.99,7987.6 800.02,-470.65 -800.02,-470.7 0,941.35" />
      <path
         inkscape:connector-curvature="0"
         id="path9474"
         style="fill:#f7e805;fill-opacity:1;fill-rule:nonzero;stroke:none"
         d="m 6400.01,6575.55 -800.02,470.7 800.02,470.7 0,-941.4" />
      <path
         inkscape:connector-curvature="0"
         id="path9476"
         style="fill:#f7e805;fill-opacity:1;fill-rule:nonzero;stroke:none"
         d="m 5599.99,7046.25 800.02,-470.7 -800.02,-470.65 0,941.35" />
      <path
         inkscape:connector-curvature="0"
         id="path9478"
         style="fill:#f9d805;fill-opacity:1;fill-rule:nonzero;stroke:none"
         d="m 6400.01,5634.24 -800.02,470.66 800.02,470.65 0,-941.31" />
      <path
         inkscape:connector-curvature="0"
         id="path9480"
         style="fill:#f6a50d;fill-opacity:1;fill-rule:nonzero;stroke:none"
         d="m 5599.99,6104.9 800.02,-470.66 -800.02,-470.66 0,941.32" />
      <path
         inkscape:connector-curvature="0"
         id="path9482"
         style="fill:#f7e805;fill-opacity:1;fill-rule:nonzero;stroke:none"
         d="m 6400.01,4692.89 -800.02,470.69 800.02,470.66 0,-941.35" />
      <path
         inkscape:connector-curvature="0"
         id="path9484"
         style="fill:#f9d805;fill-opacity:1;fill-rule:nonzero;stroke:none"
         d="m 5599.99,5163.58 800.02,-470.69 -800.02,-470.69 0,941.38" />
      <path
         inkscape:connector-curvature="0"
         id="path9486"
         style="fill:#f9d805;fill-opacity:1;fill-rule:nonzero;stroke:none"
         d="m 6400.01,3751.54 -800.02,470.66 800.02,470.69 0,-941.35" />
      <path
         inkscape:connector-curvature="0"
         id="path9488"
         style="fill:#f6a50d;fill-opacity:1;fill-rule:nonzero;stroke:none"
         d="m 5599.99,4222.2 800.02,-470.66 -800.02,-470.66 0,941.32" />
      <path
         inkscape:connector-curvature="0"
         id="path9490"
         style="fill:#f6a50d;fill-opacity:1;fill-rule:nonzero;stroke:none"
         d="m 6400.01,2810.23 -800.02,470.65 800.02,470.66 0,-941.31" />
      <path
         inkscape:connector-curvature="0"
         id="path9492"
         style="fill:#facd08;fill-opacity:1;fill-rule:nonzero;stroke:none"
         d="m 5599.99,3280.88 800.02,-470.65 -800.02,-470.7 0,941.35" />
      <path
         inkscape:connector-curvature="0"
         id="path9494"
         style="fill:#f3b90b;fill-opacity:1;fill-rule:nonzero;stroke:none"
         d="m 6400.01,1868.84 -800.02,470.69 800.02,470.7 0,-941.39" />
      <path
         inkscape:connector-curvature="0"
         id="path9496"
         style="fill:#f6a50d;fill-opacity:1;fill-rule:nonzero;stroke:none"
         d="m 5599.99,2339.53 800.02,-470.69 -800.02,-470.66 0,941.35" />
      <path
         inkscape:connector-curvature="0"
         id="path9498"
         style="fill:#facd08;fill-opacity:1;fill-rule:nonzero;stroke:none"
         d="m 6400.01,927.52 -800.02,470.66 800.02,470.66 0,-941.32" />
      <path
         inkscape:connector-curvature="0"
         id="path9500"
         style="fill:#f6a50d;fill-opacity:1;fill-rule:nonzero;stroke:none"
         d="m 5599.99,1398.18 800.02,-470.66 -800.02,-470.649 0,941.309" />
      <path
         inkscape:connector-curvature="0"
         id="path9502"
         style="fill:#f9d805;fill-opacity:1;fill-rule:nonzero;stroke:none"
         d="m 6400.01,0 0,927.52 L 5599.99,456.871 6376.5,0 l 23.51,0" />
      <path
         inkscape:connector-curvature="0"
         id="path9504"
         style="fill:#f9d805;fill-opacity:1;fill-rule:nonzero;stroke:none"
         d="M 6376.5,0 5599.99,456.871 5599.99,0 6376.5,0" />
      <path
         inkscape:connector-curvature="0"
         id="path9506"
         style="fill:#f6a50d;fill-opacity:1;fill-rule:nonzero;stroke:none"
         d="m 4799.98,8000 0,-483.05 800.01,470.65 -21.08,12.4 -778.93,0" />
      <path
         inkscape:connector-curvature="0"
         id="path9508"
         style="fill:#facd08;fill-opacity:1;fill-rule:nonzero;stroke:none"
         d="m 5599.99,7046.25 -800.01,470.7 800.01,470.65 0,-941.35" />
      <path
         inkscape:connector-curvature="0"
         id="path9510"
         style="fill:#f6a50d;fill-opacity:1;fill-rule:nonzero;stroke:none"
         d="m 4799.98,7516.95 800.01,-470.7 -800.01,-470.7 0,941.4" />
      <path
         inkscape:connector-curvature="0"
         id="path9512"
         style="fill:#f9d805;fill-opacity:1;fill-rule:nonzero;stroke:none"
         d="m 5599.99,6104.9 -800.01,470.65 800.01,470.7 0,-941.35" />
      <path
         inkscape:connector-curvature="0"
         id="path9514"
         style="fill:#facd08;fill-opacity:1;fill-rule:nonzero;stroke:none"
         d="m 4799.98,6575.55 800.01,-470.65 -800.01,-470.66 0,941.31" />
      <path
         inkscape:connector-curvature="0"
         id="path9516"
         style="fill:#facd08;fill-opacity:1;fill-rule:nonzero;stroke:none"
         d="m 5599.99,5163.58 -800.01,470.66 800.01,470.66 0,-941.32" />
      <path
         inkscape:connector-curvature="0"
         id="path9518"
         style="fill:#f7e805;fill-opacity:1;fill-rule:nonzero;stroke:none"
         d="m 4799.98,5634.24 800.01,-470.66 -800.01,-470.69 0,941.35" />
      <path
         inkscape:connector-curvature="0"
         id="path9520"
         style="fill:#f7e805;fill-opacity:1;fill-rule:nonzero;stroke:none"
         d="m 5599.99,4222.2 -800.01,470.69 800.01,470.69 0,-941.38" />
      <path
         inkscape:connector-curvature="0"
         id="path9522"
         style="fill:#facd08;fill-opacity:1;fill-rule:nonzero;stroke:none"
         d="m 4799.98,4692.89 800.01,-470.69 -800.01,-470.66 0,941.35" />
      <path
         inkscape:connector-curvature="0"
         id="path9524"
         style="fill:#f7e805;fill-opacity:1;fill-rule:nonzero;stroke:none"
         d="m 5599.99,3280.88 -800.01,470.66 800.01,470.66 0,-941.32" />
      <path
         inkscape:connector-curvature="0"
         id="path9526"
         style="fill:#f7e805;fill-opacity:1;fill-rule:nonzero;stroke:none"
         d="m 4799.98,3751.54 800.01,-470.66 -800.01,-470.65 0,941.31" />
      <path
         inkscape:connector-curvature="0"
         id="path9528"
         style="fill:#f3b90b;fill-opacity:1;fill-rule:nonzero;stroke:none"
         d="m 5599.99,2339.53 -800.01,470.7 800.01,470.65 0,-941.35" />
      <path
         inkscape:connector-curvature="0"
         id="path9530"
         style="fill:#f6a50d;fill-opacity:1;fill-rule:nonzero;stroke:none"
         d="m 4799.98,2810.23 800.01,-470.7 -800.01,-470.69 0,941.39" />
      <path
         inkscape:connector-curvature="0"
         id="path9532"
         style="fill:#f7e805;fill-opacity:1;fill-rule:nonzero;stroke:none"
         d="m 5599.99,1398.18 -800.01,470.66 800.01,470.69 0,-941.35" />
      <path
         inkscape:connector-curvature="0"
         id="path9534"
         style="fill:#f3b90b;fill-opacity:1;fill-rule:nonzero;stroke:none"
         d="m 4799.98,1868.84 800.01,-470.66 -800.01,-470.66 0,941.32" />
      <path
         inkscape:connector-curvature="0"
         id="path9536"
         style="fill:#f3b90b;fill-opacity:1;fill-rule:nonzero;stroke:none"
         d="m 5599.99,456.871 -800.01,470.649 800.01,470.66 0,-941.309" />
      <path
         inkscape:connector-curvature="0"
         id="path9538"
         style="fill:#f9d805;fill-opacity:1;fill-rule:nonzero;stroke:none"
         d="m 4823.48,0 776.51,456.871 -800.01,470.649 0,-927.52 23.5,0" />
      <path
         inkscape:connector-curvature="0"
         id="path9540"
         style="fill:#facd08;fill-opacity:1;fill-rule:nonzero;stroke:none"
         d="m 5599.99,0 0,456.871 L 4823.48,0 5599.99,0" />
      <path
         inkscape:connector-curvature="0"
         id="path9542"
         style="fill:#f6a50d;fill-opacity:1;fill-rule:nonzero;stroke:none"
         d="m 4021.07,8000 -21.07,-12.4 799.98,-470.65 0,483.05 -778.91,0" />
      <path
         inkscape:connector-curvature="0"
         id="path9544"
         style="fill:#f9d805;fill-opacity:1;fill-rule:nonzero;stroke:none"
         d="m 4000,7987.6 799.98,-470.65 -799.98,-470.7 0,941.35" />
      <path
         inkscape:connector-curvature="0"
         id="path9546"
         style="fill:#f6a50d;fill-opacity:1;fill-rule:nonzero;stroke:none"
         d="m 4799.98,6575.55 -799.98,470.7 799.98,470.7 0,-941.4" />
      <path
         inkscape:connector-curvature="0"
         id="path9548"
         style="fill:#f6a50d;fill-opacity:1;fill-rule:nonzero;stroke:none"
         d="m 4000,7046.25 799.98,-470.7 -799.98,-470.65 0,941.35" />
      <path
         inkscape:connector-curvature="0"
         id="path9550"
         style="fill:#facd08;fill-opacity:1;fill-rule:nonzero;stroke:none"
         d="M 4799.98,5634.24 4000,6104.9 l 799.98,470.65 0,-941.31" />
      <path
         inkscape:connector-curvature="0"
         id="path9552"
         style="fill:#f7e805;fill-opacity:1;fill-rule:nonzero;stroke:none"
         d="m 4000,6104.9 799.98,-470.66 -799.98,-470.66 0,941.32" />
      <path
         inkscape:connector-curvature="0"
         id="path9554"
         style="fill:#f3b90b;fill-opacity:1;fill-rule:nonzero;stroke:none"
         d="m 4799.98,4692.89 -799.98,470.69 799.98,470.66 0,-941.35" />
      <path
         inkscape:connector-curvature="0"
         id="path9556"
         style="fill:#f6a50d;fill-opacity:1;fill-rule:nonzero;stroke:none"
         d="M 4000,5163.58 4799.98,4692.89 4000,4222.2 l 0,941.38" />
      <path
         inkscape:connector-curvature="0"
         id="path9558"
         style="fill:#f7e805;fill-opacity:1;fill-rule:nonzero;stroke:none"
         d="M 4799.98,3751.54 4000,4222.2 l 799.98,470.69 0,-941.35" />
      <path
         inkscape:connector-curvature="0"
         id="path9560"
         style="fill:#facd08;fill-opacity:1;fill-rule:nonzero;stroke:none"
         d="m 4000,4222.2 799.98,-470.66 -799.98,-470.66 0,941.32" />
      <path
         inkscape:connector-curvature="0"
         id="path9562"
         style="fill:#f7e805;fill-opacity:1;fill-rule:nonzero;stroke:none"
         d="m 4799.98,2810.23 -799.98,470.65 799.98,470.66 0,-941.31" />
      <path
         inkscape:connector-curvature="0"
         id="path9564"
         style="fill:#facd08;fill-opacity:1;fill-rule:nonzero;stroke:none"
         d="m 4000,3280.88 799.98,-470.65 -799.98,-470.7 0,941.35" />
      <path
         inkscape:connector-curvature="0"
         id="path9566"
         style="fill:#f9d805;fill-opacity:1;fill-rule:nonzero;stroke:none"
         d="m 4799.98,1868.84 -799.98,470.69 799.98,470.7 0,-941.39" />
      <path
         inkscape:connector-curvature="0"
         id="path9568"
         style="fill:#facd08;fill-opacity:1;fill-rule:nonzero;stroke:none"
         d="m 4000,2339.53 799.98,-470.69 -799.98,-470.66 0,941.35" />
      <path
         inkscape:connector-curvature="0"
         id="path9570"
         style="fill:#facd08;fill-opacity:1;fill-rule:nonzero;stroke:none"
         d="m 4799.98,927.52 -799.98,470.66 799.98,470.66 0,-941.32" />
      <path
         inkscape:connector-curvature="0"
         id="path9572"
         style="fill:#f3b90b;fill-opacity:1;fill-rule:nonzero;stroke:none"
         d="M 4000,1398.18 4799.98,927.52 4000,456.871 l 0,941.309" />
      <path
         inkscape:connector-curvature="0"
         id="path9574"
         style="fill:#facd08;fill-opacity:1;fill-rule:nonzero;stroke:none"
         d="m 4799.98,0 0,927.52 L 4000,456.871 4776.48,0 l 23.5,0" />
      <path
         inkscape:connector-curvature="0"
         id="path9576"
         style="fill:#facd08;fill-opacity:1;fill-rule:nonzero;stroke:none"
         d="M 4776.48,0 4000,456.871 4000,0 4776.48,0" />
      <path
         inkscape:connector-curvature="0"
         id="path9578"
         style="fill:#f6a50d;fill-opacity:1;fill-rule:nonzero;stroke:none"
         d="m 3199.98,8000 0,-483.05 800.02,470.65 -21.08,12.4 -778.94,0" />
      <path
         inkscape:connector-curvature="0"
         id="path9580"
         style="fill:#f9d805;fill-opacity:1;fill-rule:nonzero;stroke:none"
         d="m 4000,7046.25 -800.02,470.7 800.02,470.65 0,-941.35" />
      <path
         inkscape:connector-curvature="0"
         id="path9582"
         style="fill:#f6a50d;fill-opacity:1;fill-rule:nonzero;stroke:none"
         d="m 3199.98,7516.95 800.02,-470.7 -800.02,-470.7 0,941.4" />
      <path
         inkscape:connector-curvature="0"
         id="path9584"
         style="fill:#f9d805;fill-opacity:1;fill-rule:nonzero;stroke:none"
         d="m 4000,6104.9 -800.02,470.65 800.02,470.7 0,-941.35" />
      <path
         inkscape:connector-curvature="0"
         id="path9586"
         style="fill:#f9d805;fill-opacity:1;fill-rule:nonzero;stroke:none"
         d="M 3199.98,6575.55 4000,6104.9 l -800.02,-470.66 0,941.31" />
      <path
         inkscape:connector-curvature="0"
         id="path9588"
         style="fill:#facd08;fill-opacity:1;fill-rule:nonzero;stroke:none"
         d="m 4000,5163.58 -800.02,470.66 800.02,470.66 0,-941.32" />
      <path
         inkscape:connector-curvature="0"
         id="path9590"
         style="fill:#f9d805;fill-opacity:1;fill-rule:nonzero;stroke:none"
         d="m 3199.98,5634.24 800.02,-470.66 -800.02,-470.69 0,941.35" />
      <path
         inkscape:connector-curvature="0"
         id="path9592"
         style="fill:#f7e805;fill-opacity:1;fill-rule:nonzero;stroke:none"
         d="m 4000,4222.2 -800.02,470.69 800.02,470.69 0,-941.38" />
      <path
         inkscape:connector-curvature="0"
         id="path9594"
         style="fill:#f3b90b;fill-opacity:1;fill-rule:nonzero;stroke:none"
         d="M 3199.98,4692.89 4000,4222.2 l -800.02,-470.66 0,941.35" />
      <path
         inkscape:connector-curvature="0"
         id="path9596"
         style="fill:#f6a50d;fill-opacity:1;fill-rule:nonzero;stroke:none"
         d="m 4000,3280.88 -800.02,470.66 800.02,470.66 0,-941.32" />
      <path
         inkscape:connector-curvature="0"
         id="path9598"
         style="fill:#facd08;fill-opacity:1;fill-rule:nonzero;stroke:none"
         d="m 3199.98,3751.54 800.02,-470.66 -800.02,-470.65 0,941.31" />
      <path
         inkscape:connector-curvature="0"
         id="path9600"
         style="fill:#f9d805;fill-opacity:1;fill-rule:nonzero;stroke:none"
         d="m 4000,2339.53 -800.02,470.7 800.02,470.65 0,-941.35" />
      <path
         inkscape:connector-curvature="0"
         id="path9602"
         style="fill:#f6a50d;fill-opacity:1;fill-rule:nonzero;stroke:none"
         d="m 3199.98,2810.23 800.02,-470.7 -800.02,-470.69 0,941.39" />
      <path
         inkscape:connector-curvature="0"
         id="path9604"
         style="fill:#f6a50d;fill-opacity:1;fill-rule:nonzero;stroke:none"
         d="m 4000,1398.18 -800.02,470.66 800.02,470.69 0,-941.35" />
      <path
         inkscape:connector-curvature="0"
         id="path9606"
         style="fill:#f3b90b;fill-opacity:1;fill-rule:nonzero;stroke:none"
         d="M 3199.98,1868.84 4000,1398.18 3199.98,927.52 l 0,941.32" />
      <path
         inkscape:connector-curvature="0"
         id="path9608"
         style="fill:#f6a50d;fill-opacity:1;fill-rule:nonzero;stroke:none"
         d="M 4000,456.871 3199.98,927.52 4000,1398.18 4000,456.871" />
      <path
         inkscape:connector-curvature="0"
         id="path9610"
         style="fill:#f6a50d;fill-opacity:1;fill-rule:nonzero;stroke:none"
         d="M 3223.49,0 4000,456.871 3199.98,927.52 l 0,-927.52 23.51,0" />
      <path
         inkscape:connector-curvature="0"
         id="path9612"
         style="fill:#facd08;fill-opacity:1;fill-rule:nonzero;stroke:none"
         d="m 4000,0 0,456.871 L 3223.49,0 4000,0" />
      <path
         inkscape:connector-curvature="0"
         id="path9614"
         style="fill:#f3b90b;fill-opacity:1;fill-rule:nonzero;stroke:none"
         d="m 2421.04,8000 -21.07,-12.4 800.01,-470.65 0,483.05 -778.94,0" />
      <path
         inkscape:connector-curvature="0"
         id="path9616"
         style="fill:#f9d805;fill-opacity:1;fill-rule:nonzero;stroke:none"
         d="m 2399.97,7987.6 800.01,-470.65 -800.01,-470.7 0,941.35" />
      <path
         inkscape:connector-curvature="0"
         id="path9618"
         style="fill:#f3b90b;fill-opacity:1;fill-rule:nonzero;stroke:none"
         d="m 3199.98,6575.55 -800.01,470.7 800.01,470.7 0,-941.4" />
      <path
         inkscape:connector-curvature="0"
         id="path9620"
         style="fill:#f9d805;fill-opacity:1;fill-rule:nonzero;stroke:none"
         d="m 2399.97,7046.25 800.01,-470.7 -800.01,-470.65 0,941.35" />
      <path
         inkscape:connector-curvature="0"
         id="path9622"
         style="fill:#facd08;fill-opacity:1;fill-rule:nonzero;stroke:none"
         d="m 3199.98,5634.24 -800.01,470.66 800.01,470.65 0,-941.31" />
      <path
         inkscape:connector-curvature="0"
         id="path9624"
         style="fill:#f6a50d;fill-opacity:1;fill-rule:nonzero;stroke:none"
         d="m 2399.97,6104.9 800.01,-470.66 -800.01,-470.66 0,941.32" />
      <path
         inkscape:connector-curvature="0"
         id="path9626"
         style="fill:#f6a50d;fill-opacity:1;fill-rule:nonzero;stroke:none"
         d="m 3199.98,4692.89 -800.01,470.69 800.01,470.66 0,-941.35" />
      <path
         inkscape:connector-curvature="0"
         id="path9628"
         style="fill:#f9d805;fill-opacity:1;fill-rule:nonzero;stroke:none"
         d="m 2399.97,5163.58 800.01,-470.69 -800.01,-470.69 0,941.38" />
      <path
         inkscape:connector-curvature="0"
         id="path9630"
         style="fill:#facd08;fill-opacity:1;fill-rule:nonzero;stroke:none"
         d="m 3199.98,3751.54 -800.01,470.66 800.01,470.69 0,-941.35" />
      <path
         inkscape:connector-curvature="0"
         id="path9632"
         style="fill:#f6a50d;fill-opacity:1;fill-rule:nonzero;stroke:none"
         d="m 2399.97,4222.2 800.01,-470.66 -800.01,-470.66 0,941.32" />
      <path
         inkscape:connector-curvature="0"
         id="path9634"
         style="fill:#f9d805;fill-opacity:1;fill-rule:nonzero;stroke:none"
         d="m 3199.98,2810.23 -800.01,470.65 800.01,470.66 0,-941.31" />
      <path
         inkscape:connector-curvature="0"
         id="path9636"
         style="fill:#f7e805;fill-opacity:1;fill-rule:nonzero;stroke:none"
         d="m 2399.97,3280.88 800.01,-470.65 -800.01,-470.7 0,941.35" />
      <path
         inkscape:connector-curvature="0"
         id="path9638"
         style="fill:#f3b90b;fill-opacity:1;fill-rule:nonzero;stroke:none"
         d="m 3199.98,1868.84 -800.01,470.69 800.01,470.7 0,-941.39" />
      <path
         inkscape:connector-curvature="0"
         id="path9640"
         style="fill:#f9d805;fill-opacity:1;fill-rule:nonzero;stroke:none"
         d="m 2399.97,2339.53 800.01,-470.69 -800.01,-470.66 0,941.35" />
      <path
         inkscape:connector-curvature="0"
         id="path9642"
         style="fill:#f7e805;fill-opacity:1;fill-rule:nonzero;stroke:none"
         d="m 3199.98,927.52 -800.01,470.66 800.01,470.66 0,-941.32" />
      <path
         inkscape:connector-curvature="0"
         id="path9644"
         style="fill:#f9d805;fill-opacity:1;fill-rule:nonzero;stroke:none"
         d="m 2399.97,1398.18 800.01,-470.66 -800.01,-470.649 0,941.309" />
      <path
         inkscape:connector-curvature="0"
         id="path9646"
         style="fill:#f6a50d;fill-opacity:1;fill-rule:nonzero;stroke:none"
         d="m 3199.98,0 0,927.52 L 2399.97,456.871 3176.48,0 l 23.5,0" />
      <path
         inkscape:connector-curvature="0"
         id="path9648"
         style="fill:#f6a50d;fill-opacity:1;fill-rule:nonzero;stroke:none"
         d="M 3176.48,0 2399.97,456.871 2399.97,0 3176.48,0" />
      <path
         inkscape:connector-curvature="0"
         id="path9650"
         style="fill:#f7e805;fill-opacity:1;fill-rule:nonzero;stroke:none"
         d="m 1599.99,8000 0,-483.05 799.98,470.65 -21.08,12.4 -778.9,0" />
      <path
         inkscape:connector-curvature="0"
         id="path9652"
         style="fill:#facd08;fill-opacity:1;fill-rule:nonzero;stroke:none"
         d="m 2399.97,7046.25 -799.98,470.7 799.98,470.65 0,-941.35" />
      <path
         inkscape:connector-curvature="0"
         id="path9654"
         style="fill:#f6a50d;fill-opacity:1;fill-rule:nonzero;stroke:none"
         d="m 1599.99,7516.95 799.98,-470.7 -799.98,-470.7 0,941.4" />
      <path
         inkscape:connector-curvature="0"
         id="path9656"
         style="fill:#f6a50d;fill-opacity:1;fill-rule:nonzero;stroke:none"
         d="m 2399.97,6104.9 -799.98,470.65 799.98,470.7 0,-941.35" />
      <path
         inkscape:connector-curvature="0"
         id="path9658"
         style="fill:#f7e805;fill-opacity:1;fill-rule:nonzero;stroke:none"
         d="m 1599.99,6575.55 799.98,-470.65 -799.98,-470.66 0,941.31" />
      <path
         inkscape:connector-curvature="0"
         id="path9660"
         style="fill:#f7e805;fill-opacity:1;fill-rule:nonzero;stroke:none"
         d="m 2399.97,5163.58 -799.98,470.66 799.98,470.66 0,-941.32" />
      <path
         inkscape:connector-curvature="0"
         id="path9662"
         style="fill:#facd08;fill-opacity:1;fill-rule:nonzero;stroke:none"
         d="m 1599.99,5634.24 799.98,-470.66 -799.98,-470.69 0,941.35" />
      <path
         inkscape:connector-curvature="0"
         id="path9664"
         style="fill:#f3b90b;fill-opacity:1;fill-rule:nonzero;stroke:none"
         d="m 2399.97,4222.2 -799.98,470.69 799.98,470.69 0,-941.38" />
      <path
         inkscape:connector-curvature="0"
         id="path9666"
         style="fill:#f9d805;fill-opacity:1;fill-rule:nonzero;stroke:none"
         d="m 1599.99,4692.89 799.98,-470.69 -799.98,-470.66 0,941.35" />
      <path
         inkscape:connector-curvature="0"
         id="path9668"
         style="fill:#f3b90b;fill-opacity:1;fill-rule:nonzero;stroke:none"
         d="m 2399.97,3280.88 -799.98,470.66 799.98,470.66 0,-941.32" />
      <path
         inkscape:connector-curvature="0"
         id="path9670"
         style="fill:#f6a50d;fill-opacity:1;fill-rule:nonzero;stroke:none"
         d="m 1599.99,3751.54 799.98,-470.66 -799.98,-470.65 0,941.31" />
      <path
         inkscape:connector-curvature="0"
         id="path9672"
         style="fill:#facd08;fill-opacity:1;fill-rule:nonzero;stroke:none"
         d="m 2399.97,2339.53 -799.98,470.7 799.98,470.65 0,-941.35" />
      <path
         inkscape:connector-curvature="0"
         id="path9674"
         style="fill:#f6a50d;fill-opacity:1;fill-rule:nonzero;stroke:none"
         d="m 1599.99,2810.23 799.98,-470.7 -799.98,-470.69 0,941.39" />
      <path
         inkscape:connector-curvature="0"
         id="path9676"
         style="fill:#f6a50d;fill-opacity:1;fill-rule:nonzero;stroke:none"
         d="m 2399.97,1398.18 -799.98,470.66 799.98,470.69 0,-941.35" />
      <path
         inkscape:connector-curvature="0"
         id="path9678"
         style="fill:#f9d805;fill-opacity:1;fill-rule:nonzero;stroke:none"
         d="m 1599.99,1868.84 799.98,-470.66 -799.98,-470.66 0,941.32" />
      <path
         inkscape:connector-curvature="0"
         id="path9680"
         style="fill:#f3b90b;fill-opacity:1;fill-rule:nonzero;stroke:none"
         d="m 2399.97,456.871 -799.98,470.649 799.98,470.66 0,-941.309" />
      <path
         inkscape:connector-curvature="0"
         id="path9682"
         style="fill:#f3b90b;fill-opacity:1;fill-rule:nonzero;stroke:none"
         d="m 1623.49,0 776.48,456.871 -799.98,470.649 0,-927.52 23.5,0" />
      <path
         inkscape:connector-curvature="0"
         id="path9684"
         style="fill:#f7e805;fill-opacity:1;fill-rule:nonzero;stroke:none"
         d="m 2399.97,0 0,456.871 L 1623.49,0 2399.97,0" />
      <path
         inkscape:connector-curvature="0"
         id="path9686"
         style="fill:#f3b90b;fill-opacity:1;fill-rule:nonzero;stroke:none"
         d="m 821.09,8000 -21.078,-12.4 799.978,-470.65 0,483.05 -778.9,0" />
      <path
         inkscape:connector-curvature="0"
         id="path9688"
         style="fill:#f7e805;fill-opacity:1;fill-rule:nonzero;stroke:none"
         d="m 800.012,7987.6 799.978,-470.65 -799.978,-470.7 0,941.35" />
      <path
         inkscape:connector-curvature="0"
         id="path9690"
         style="fill:#f3b90b;fill-opacity:1;fill-rule:nonzero;stroke:none"
         d="m 1599.99,6575.55 -799.978,470.7 799.978,470.7 0,-941.4" />
      <path
         inkscape:connector-curvature="0"
         id="path9692"
         style="fill:#f9d805;fill-opacity:1;fill-rule:nonzero;stroke:none"
         d="m 800.012,7046.25 799.978,-470.7 -799.978,-470.65 0,941.35" />
      <path
         inkscape:connector-curvature="0"
         id="path9694"
         style="fill:#f7e805;fill-opacity:1;fill-rule:nonzero;stroke:none"
         d="m 1599.99,5634.24 -799.978,470.66 799.978,470.65 0,-941.31" />
      <path
         inkscape:connector-curvature="0"
         id="path9696"
         style="fill:#facd08;fill-opacity:1;fill-rule:nonzero;stroke:none"
         d="m 800.012,6104.9 799.978,-470.66 -799.978,-470.66 0,941.32" />
      <path
         inkscape:connector-curvature="0"
         id="path9698"
         style="fill:#f7e805;fill-opacity:1;fill-rule:nonzero;stroke:none"
         d="m 1599.99,4692.89 -799.978,470.69 799.978,470.66 0,-941.35" />
      <path
         inkscape:connector-curvature="0"
         id="path9700"
         style="fill:#facd08;fill-opacity:1;fill-rule:nonzero;stroke:none"
         d="m 800.012,5163.58 799.978,-470.69 -799.978,-470.69 0,941.38" />
      <path
         inkscape:connector-curvature="0"
         id="path9702"
         style="fill:#facd08;fill-opacity:1;fill-rule:nonzero;stroke:none"
         d="m 1599.99,3751.54 -799.978,470.66 799.978,470.69 0,-941.35" />
      <path
         inkscape:connector-curvature="0"
         id="path9704"
         style="fill:#facd08;fill-opacity:1;fill-rule:nonzero;stroke:none"
         d="m 800.012,4222.2 799.978,-470.66 -799.978,-470.66 0,941.32" />
      <path
         inkscape:connector-curvature="0"
         id="path9706"
         style="fill:#f7e805;fill-opacity:1;fill-rule:nonzero;stroke:none"
         d="m 1599.99,2810.23 -799.978,470.65 799.978,470.66 0,-941.31" />
      <path
         inkscape:connector-curvature="0"
         id="path9708"
         style="fill:#f9d805;fill-opacity:1;fill-rule:nonzero;stroke:none"
         d="m 800.012,3280.88 799.978,-470.65 -799.978,-470.7 0,941.35" />
      <path
         inkscape:connector-curvature="0"
         id="path9710"
         style="fill:#f6a50d;fill-opacity:1;fill-rule:nonzero;stroke:none"
         d="m 1599.99,1868.84 -799.978,470.69 799.978,470.7 0,-941.39" />
      <path
         inkscape:connector-curvature="0"
         id="path9712"
         style="fill:#f6a50d;fill-opacity:1;fill-rule:nonzero;stroke:none"
         d="m 800.012,2339.53 799.978,-470.69 -799.978,-470.66 0,941.35" />
      <path
         inkscape:connector-curvature="0"
         id="path9714"
         style="fill:#facd08;fill-opacity:1;fill-rule:nonzero;stroke:none"
         d="m 1599.99,927.52 -799.978,470.66 799.978,470.66 0,-941.32" />
      <path
         inkscape:connector-curvature="0"
         id="path9716"
         style="fill:#f3b90b;fill-opacity:1;fill-rule:nonzero;stroke:none"
         d="M 800.012,1398.18 1599.99,927.52 800.012,456.871 l 0,941.309" />
      <path
         inkscape:connector-curvature="0"
         id="path9718"
         style="fill:#facd08;fill-opacity:1;fill-rule:nonzero;stroke:none"
         d="m 1599.99,0 0,927.52 L 800.012,456.871 1576.49,0 l 23.5,0" />
      <path
         inkscape:connector-curvature="0"
         id="path9720"
         style="fill:#f6a50d;fill-opacity:1;fill-rule:nonzero;stroke:none"
         d="M 1576.49,0 800.012,456.871 800.012,0 1576.49,0" />
      <path
         inkscape:connector-curvature="0"
         id="path9722"
         style="fill:#f9d805;fill-opacity:1;fill-rule:nonzero;stroke:none"
         d="M 0,8000 0,7516.95 800.012,7987.6 778.938,8000 0,8000" />
      <path
         inkscape:connector-curvature="0"
         id="path9724"
         style="fill:#f9d805;fill-opacity:1;fill-rule:nonzero;stroke:none"
         d="M 800.012,7046.25 0,7516.95 l 800.012,470.65 0,-941.35" />
      <path
         inkscape:connector-curvature="0"
         id="path9726"
         style="fill:#f6a50d;fill-opacity:1;fill-rule:nonzero;stroke:none"
         d="M 0,7516.95 800.012,7046.25 0,6575.55 l 0,941.4" />
      <path
         inkscape:connector-curvature="0"
         id="path9728"
         style="fill:#facd08;fill-opacity:1;fill-rule:nonzero;stroke:none"
         d="M 800.012,6104.9 0,6575.55 l 800.012,470.7 0,-941.35" />
      <path
         inkscape:connector-curvature="0"
         id="path9730"
         style="fill:#f6a50d;fill-opacity:1;fill-rule:nonzero;stroke:none"
         d="M 0,6575.55 800.012,6104.9 0,5634.24 0,6575.55" />
      <path
         inkscape:connector-curvature="0"
         id="path9732"
         style="fill:#facd08;fill-opacity:1;fill-rule:nonzero;stroke:none"
         d="M 800.012,5163.58 0,5634.24 l 800.012,470.66 0,-941.32" />
      <path
         inkscape:connector-curvature="0"
         id="path9734"
         style="fill:#f3b90b;fill-opacity:1;fill-rule:nonzero;stroke:none"
         d="M 0,5634.24 800.012,5163.58 0,4692.89 0,5634.24" />
      <path
         inkscape:connector-curvature="0"
         id="path9736"
         style="fill:#f9d805;fill-opacity:1;fill-rule:nonzero;stroke:none"
         d="M 800.012,4222.2 0,4692.89 l 800.012,470.69 0,-941.38" />
      <path
         inkscape:connector-curvature="0"
         id="path9738"
         style="fill:#f6a50d;fill-opacity:1;fill-rule:nonzero;stroke:none"
         d="M 0,4692.89 800.012,4222.2 0,3751.54 0,4692.89" />
      <path
         inkscape:connector-curvature="0"
         id="path9740"
         style="fill:#f6a50d;fill-opacity:1;fill-rule:nonzero;stroke:none"
         d="M 800.012,3280.88 0,3751.54 l 800.012,470.66 0,-941.32" />
      <path
         inkscape:connector-curvature="0"
         id="path9742"
         style="fill:#f3b90b;fill-opacity:1;fill-rule:nonzero;stroke:none"
         d="M 0,3751.54 800.012,3280.88 0,2810.23 0,3751.54" />
      <path
         inkscape:connector-curvature="0"
         id="path9744"
         style="fill:#facd08;fill-opacity:1;fill-rule:nonzero;stroke:none"
         d="M 800.012,2339.53 0,2810.23 l 800.012,470.65 0,-941.35" />
      <path
         inkscape:connector-curvature="0"
         id="path9746"
         style="fill:#f6a50d;fill-opacity:1;fill-rule:nonzero;stroke:none"
         d="M 0,2810.23 800.012,2339.53 0,1868.84 0,2810.23" />
      <path
         inkscape:connector-curvature="0"
         id="path9748"
         style="fill:#facd08;fill-opacity:1;fill-rule:nonzero;stroke:none"
         d="M 800.012,1398.18 0,1868.84 l 800.012,470.69 0,-941.35" />
      <path
         inkscape:connector-curvature="0"
         id="path9750"
         style="fill:#f7e805;fill-opacity:1;fill-rule:nonzero;stroke:none"
         d="M 0,1868.84 800.012,1398.18 0,927.52 0,1868.84" />
      <path
         inkscape:connector-curvature="0"
         id="path9752"
         style="fill:#f9d805;fill-opacity:1;fill-rule:nonzero;stroke:none"
         d="M 800.012,456.871 0,927.52 l 800.012,470.66 0,-941.309" />
      <path
         inkscape:connector-curvature="0"
         id="path9754"
         style="fill:#f3b90b;fill-opacity:1;fill-rule:nonzero;stroke:none"
         d="M 23.5039,0 800.012,456.871 0,927.52 0,0 23.5039,0" />
      <path
         inkscape:connector-curvature="0"
         id="path9756"
         style="fill:#f6a50d;fill-opacity:1;fill-rule:nonzero;stroke:none"
         d="m 800.012,0 0,456.871 L 23.5039,0 800.012,0" />
    </g>
  </g>
</svg>
