<?xml version="1.0" encoding="UTF-8" standalone="no"?>
<svg
   xmlns:dc="http://purl.org/dc/elements/1.1/"
   xmlns:cc="http://creativecommons.org/ns#"
   xmlns:rdf="http://www.w3.org/1999/02/22-rdf-syntax-ns#"
   xmlns:svg="http://www.w3.org/2000/svg"
   xmlns="http://www.w3.org/2000/svg"
   xmlns:xlink="http://www.w3.org/1999/xlink"
   xmlns:sodipodi="http://sodipodi.sourceforge.net/DTD/sodipodi-0.dtd"
   xmlns:inkscape="http://www.inkscape.org/namespaces/inkscape"
   version="1.1"
   id="svg4489"
   viewBox="0 0 429.36633 191.97881"
   height="54.180687mm"
   width="121.17672mm"
   inkscape:version="0.91 r13725"
   sodipodi:docname="16.svg">
  <sodipodi:namedview
     pagecolor="#ffffff"
     bordercolor="#666666"
     borderopacity="1"
     objecttolerance="10"
     gridtolerance="10"
     guidetolerance="10"
     inkscape:pageopacity="0"
     inkscape:pageshadow="2"
     inkscape:window-width="1440"
     inkscape:window-height="835"
     id="namedview5088"
     showgrid="false"
     inkscape:zoom="2.929899"
     inkscape:cx="214.68316"
     inkscape:cy="95.989406"
     inkscape:window-x="0"
     inkscape:window-y="0"
     inkscape:window-maximized="1"
     inkscape:current-layer="svg4489" />
  <defs
     id="defs4491">
    <filter
       id="filter14511">
      <feGaussianBlur
         id="feGaussianBlur14513"
         stdDeviation="0.85627009" />
    </filter>
    <filter
       style="color-interpolation-filters:sRGB"
       id="filter14506-80-6-24">
      <feGaussianBlur
         id="feGaussianBlur14508-15-9-58"
         stdDeviation="0.70957443" />
    </filter>
    <filter
       style="color-interpolation-filters:sRGB"
       id="filter14511-1">
      <feGaussianBlur
         id="feGaussianBlur14513-1"
         stdDeviation="0.85627009" />
    </filter>
    <filter
       style="color-interpolation-filters:sRGB"
       id="filter14506-80-6-946">
      <feGaussianBlur
         id="feGaussianBlur14508-15-9-03"
         stdDeviation="0.70957443" />
    </filter>
    <filter
       style="color-interpolation-filters:sRGB"
       id="filter14511-9">
      <feGaussianBlur
         id="feGaussianBlur14513-0"
         stdDeviation="0.85627009" />
    </filter>
    <filter
       style="color-interpolation-filters:sRGB"
       id="filter14511-3">
      <feGaussianBlur
         id="feGaussianBlur14513-8"
         stdDeviation="0.85627009" />
    </filter>
    <filter
       style="color-interpolation-filters:sRGB"
       id="filter14506-80-6-9">
      <feGaussianBlur
         id="feGaussianBlur14508-15-9-7"
         stdDeviation="0.70957443" />
    </filter>
    <filter
       style="color-interpolation-filters:sRGB"
       id="filter14506-80-3-8">
      <feGaussianBlur
         id="feGaussianBlur14508-15-7-9"
         stdDeviation="0.70957443" />
    </filter>
    <filter
       style="color-interpolation-filters:sRGB"
       id="filter14506-80-6">
      <feGaussianBlur
         id="feGaussianBlur14508-15-9"
         stdDeviation="0.70957443" />
    </filter>
    <filter
       style="color-interpolation-filters:sRGB"
       id="filter14506-80-3">
      <feGaussianBlur
         id="feGaussianBlur14508-15-7"
         stdDeviation="0.70957443" />
    </filter>
    <filter
       style="color-interpolation-filters:sRGB"
       id="filter14506-80-6-8">
      <feGaussianBlur
         id="feGaussianBlur14508-15-9-27"
         stdDeviation="0.70957443" />
    </filter>
    <filter
       style="color-interpolation-filters:sRGB"
       id="filter14506-80-6-94">
      <feGaussianBlur
         id="feGaussianBlur14508-15-9-1"
         stdDeviation="0.70957443" />
    </filter>
    <filter
       style="color-interpolation-filters:sRGB"
       id="filter14506-80-6-6">
      <feGaussianBlur
         id="feGaussianBlur14508-15-9-0"
         stdDeviation="0.70957443" />
    </filter>
    <filter
       style="color-interpolation-filters:sRGB"
       id="filter14506-80-6-66">
      <feGaussianBlur
         id="feGaussianBlur14508-15-9-6"
         stdDeviation="0.70957443" />
    </filter>
    <filter
       style="color-interpolation-filters:sRGB"
       id="filter14506-80-6-67">
      <feGaussianBlur
         id="feGaussianBlur14508-15-9-14"
         stdDeviation="0.70957443" />
    </filter>
    <filter
       style="color-interpolation-filters:sRGB"
       id="filter14506-80-6-61">
      <feGaussianBlur
         id="feGaussianBlur14508-15-9-2"
         stdDeviation="0.70957443" />
    </filter>
    <filter
       style="color-interpolation-filters:sRGB"
       id="filter14506-80-6-4">
      <feGaussianBlur
         id="feGaussianBlur14508-15-9-9"
         stdDeviation="0.70957443" />
    </filter>
    <filter
       style="color-interpolation-filters:sRGB"
       id="filter14506-80-6-2">
      <feGaussianBlur
         id="feGaussianBlur14508-15-9-3"
         stdDeviation="0.70957443" />
    </filter>
    <filter
       style="color-interpolation-filters:sRGB"
       id="filter14506-80-6-1">
      <feGaussianBlur
         id="feGaussianBlur14508-15-9-5"
         stdDeviation="0.70957443" />
    </filter>
    <filter
       style="color-interpolation-filters:sRGB"
       id="filter14506-80-6-3">
      <feGaussianBlur
         id="feGaussianBlur14508-15-9-16"
         stdDeviation="0.70957443" />
    </filter>
    <filter
       style="color-interpolation-filters:sRGB"
       id="filter14506-80-6-12">
      <feGaussianBlur
         id="feGaussianBlur14508-15-9-60"
         stdDeviation="0.70957443" />
    </filter>
    <filter
       style="color-interpolation-filters:sRGB"
       id="filter14506-80-6-121">
      <feGaussianBlur
         id="feGaussianBlur14508-15-9-4"
         stdDeviation="0.70957443" />
    </filter>
    <filter
       style="color-interpolation-filters:sRGB"
       id="filter14506-80-6-82">
      <feGaussianBlur
         id="feGaussianBlur14508-15-9-45"
         stdDeviation="0.70957443" />
    </filter>
    <radialGradient
       gradientTransform="matrix(0.68715852,0,0,0.68715852,100.09628,-20.757588)"
       xlink:href="#linearGradient11737"
       id="radialGradient20235"
       gradientUnits="userSpaceOnUse"
       cx="339.39481"
       cy="170.44995"
       fx="339.39481"
       fy="170.44995"
       r="68.636078" />
    <linearGradient
       id="linearGradient11737">
      <stop
         id="stop11739"
         offset="0"
         style="stop-color:#ffffff;stop-opacity:0;" />
      <stop
         style="stop-color:#0046af;stop-opacity:0;"
         offset="0.7044031"
         id="stop11741" />
      <stop
         style="stop-color:#0044ab;stop-opacity:0.42352942;"
         offset="0.86842364"
         id="stop11743" />
      <stop
         id="stop11745"
         offset="0.95386213"
         style="stop-color:#003996;stop-opacity:0.64999998;" />
      <stop
         id="stop11747"
         offset="1"
         style="stop-color:#002c80;stop-opacity:1;" />
    </linearGradient>
    <radialGradient
       xlink:href="#linearGradient11729"
       id="radialGradient20237"
       gradientUnits="userSpaceOnUse"
       gradientTransform="matrix(2.0322283,0,0,2.0322283,-350.33294,-138.65768)"
       cx="360.3381"
       cy="131.75188"
       fx="360.3381"
       fy="131.75188"
       r="68.136078" />
    <linearGradient
       id="linearGradient11729">
      <stop
         style="stop-color:#5bcaff;stop-opacity:1;"
         offset="0"
         id="stop11731" />
      <stop
         style="stop-color:#0071de;stop-opacity:1;"
         offset="1"
         id="stop11733" />
    </linearGradient>
    <filter
       id="filter4645"
       x="-0.16"
       width="1.3200001"
       y="-0.16"
       height="1.3200001">
      <feGaussianBlur
         stdDeviation="9.0848104"
         id="feGaussianBlur4647" />
    </filter>
    <filter
       id="filter15293">
      <feGaussianBlur
         id="feGaussianBlur15295"
         stdDeviation="2.6999294" />
    </filter>
    <linearGradient
       xlink:href="#linearGradient5073"
       id="linearGradient20239"
       gradientUnits="userSpaceOnUse"
       gradientTransform="matrix(-0.63593482,-0.37693419,-0.22248174,0.57997513,735.90178,212.41087)"
       x1="530.65643"
       y1="92.872658"
       x2="571.87354"
       y2="138.7977" />
    <linearGradient
       id="linearGradient5073">
      <stop
         style="stop-color:#ffffff;stop-opacity:1;"
         offset="0"
         id="stop5075" />
      <stop
         style="stop-color:#ffffff;stop-opacity:0;"
         offset="1"
         id="stop5077" />
    </linearGradient>
    <linearGradient
       xlink:href="#linearGradient5073-757"
       id="linearGradient20239-83"
       gradientUnits="userSpaceOnUse"
       gradientTransform="matrix(-0.63593482,-0.37693419,-0.22248174,0.57997513,735.90178,212.41087)"
       x1="530.65643"
       y1="92.872658"
       x2="571.87354"
       y2="138.7977" />
    <linearGradient
       id="linearGradient5073-757">
      <stop
         style="stop-color:#ffffff;stop-opacity:1;"
         offset="0"
         id="stop5287" />
      <stop
         style="stop-color:#ffffff;stop-opacity:0;"
         offset="1"
         id="stop5289" />
    </linearGradient>
    <radialGradient
       gradientTransform="matrix(0.68715852,0,0,0.68715852,100.09628,-20.757588)"
       xlink:href="#linearGradient11737-795"
       id="radialGradient20235-520"
       gradientUnits="userSpaceOnUse"
       cx="339.39481"
       cy="170.44995"
       fx="339.39481"
       fy="170.44995"
       r="68.636078" />
    <linearGradient
       id="linearGradient11737-795">
      <stop
         id="stop5293"
         offset="0"
         style="stop-color:#ffffff;stop-opacity:0;" />
      <stop
         style="stop-color:#575757;stop-opacity:0;"
         offset="0.7044031"
         id="stop5295" />
      <stop
         style="stop-color:#555555;stop-opacity:0.42352942;"
         offset="0.86842364"
         id="stop5297" />
      <stop
         id="stop5299"
         offset="0.95386213"
         style="stop-color:#4b4b4b;stop-opacity:0.64999998;" />
      <stop
         id="stop5301"
         offset="1"
         style="stop-color:#404040;stop-opacity:1;" />
    </linearGradient>
    <radialGradient
       xlink:href="#linearGradient11729-136"
       id="radialGradient20237-777"
       gradientUnits="userSpaceOnUse"
       gradientTransform="matrix(2.0322283,0,0,2.0322283,-350.33294,-138.65768)"
       cx="360.3381"
       cy="131.75188"
       fx="360.3381"
       fy="131.75188"
       r="68.136078" />
    <linearGradient
       id="linearGradient11729-136">
      <stop
         style="stop-color:#adadad;stop-opacity:1;"
         offset="0"
         id="stop5305" />
      <stop
         style="stop-color:#6f6f6f;stop-opacity:1;"
         offset="1"
         id="stop5307" />
    </linearGradient>
  </defs>
  <metadata
     id="metadata4494">
    <rdf:RDF>
      <cc:Work
         rdf:about="">
        <dc:format>image/svg+xml</dc:format>
        <dc:type
           rdf:resource="http://purl.org/dc/dcmitype/StillImage" />
        <dc:title></dc:title>
      </cc:Work>
    </rdf:RDF>
  </metadata>
  <path
     inkscape:connector-curvature="0"
     style="color:#000000;display:inline;overflow:visible;visibility:visible;fill:#000000;fill-opacity:1;fill-rule:nonzero;stroke:none;stroke-width:2.59126377;marker:none;enable-background:accumulate"
     d="m 320.92966,83.535854 -44.13714,-43.871679 -25.87107,23.912962 21.62019,20.472176 14.43701,-14.052345 -10.08034,-9.661356 -12.23219,9.289915 -1.05002,-1.056899 10.41203,-10.847956 c 1.5623,-1.566101 3.2696,-2.075395 5.28214,-0.361296 l 10.4834,10.120924 c 1.25453,1.572532 1.53168,3.116443 0.49371,4.621861 0,0 -6.34465,8.44695 -15.05653,16.067781 -2.71602,1.989622 -5.07672,1.49781 -7.22022,-0.510833 L 244.97124,67.596234 c -2.12702,-2.438322 -1.67261,-5.491999 0.5506,-7.767742 l 26.49647,-28.266545 c 2.5039,-2.901695 8.31743,-2.71602 10.84035,0.08786 l 46.20258,44.185243 z"
     id="path20109" />
  <path
     inkscape:connector-curvature="0"
     id="path20115"
     d="m 297.35853,96.474783 -45.94309,4.101247 c 0,0 2.25717,11.14775 -4.16601,10.17771 -6.42318,-0.96995 -2.31677,-15.214216 -2.31677,-15.214216 l 52.72204,-1.828855 z"
     style="color:#000000;display:inline;overflow:visible;visibility:visible;fill:#000000;fill-opacity:1;fill-rule:nonzero;stroke:none;stroke-width:2.59126377;marker:none;enable-background:accumulate" />
  <ellipse
     ry="6.687932"
     rx="4.567368"
     cy="-21.871923"
     cx="296.11453"
     transform="matrix(0.90525856,0.42486108,-0.42486108,0.90525856,0,0)"
     id="path20121"
     style="color:#000000;display:inline;overflow:visible;visibility:visible;fill:#000000;fill-opacity:1;fill-rule:nonzero;stroke:none;stroke-width:2.59126377;marker:none;enable-background:accumulate" />
  <ellipse
     ry="6.687932"
     rx="4.567368"
     cy="-12.184005"
     cx="286.93414"
     style="color:#000000;display:inline;overflow:visible;visibility:visible;fill:#000000;fill-opacity:1;fill-rule:nonzero;stroke:none;stroke-width:2.59126377;marker:none;enable-background:accumulate"
     id="path20123"
     transform="matrix(0.90525856,0.42486108,-0.42486108,0.90525856,0,0)" />
  <path
     inkscape:connector-curvature="0"
     id="path20129"
     d="m 344.99008,109.27713 44.13724,43.87168 25.87107,-23.91306 -21.6202,-20.47208 -14.43701,14.05225 10.08026,9.66145 12.23219,-9.28992 1.0501,1.05681 -10.41211,10.84796 c -1.56221,1.5661 -3.26961,2.07539 -5.28205,0.36129 l -10.4834,-10.12083 c -1.25462,-1.57262 -1.53169,-3.11644 -0.49372,-4.62186 0,0 6.34466,-8.44704 15.05644,-16.06787 2.71602,-1.98962 5.07681,-1.49772 7.22023,0.51092 l 23.03938,20.06279 c 2.12702,2.43832 1.67262,5.492 -0.55059,7.76774 l -26.49647,28.26654 c -2.5039,2.9017 -8.31744,2.71611 -10.84035,-0.0879 l -46.20258,-44.18534 z"
     style="color:#000000;display:inline;overflow:visible;visibility:visible;fill:#000000;fill-opacity:1;fill-rule:nonzero;stroke:none;stroke-width:2.59126377;marker:none;enable-background:accumulate" />
  <path
     inkscape:connector-curvature="0"
     style="color:#000000;display:inline;overflow:visible;visibility:visible;fill:#000000;fill-opacity:1;fill-rule:nonzero;stroke:none;stroke-width:2.59126377;marker:none;enable-background:accumulate"
     d="m 368.56131,96.338198 45.943,-4.101337 c 0,0 -2.25709,-11.147753 4.1661,-10.177713 6.42318,0.969948 2.31668,15.214219 2.31668,15.214219 l -52.72195,1.828855 z"
     id="path20133" />
  <ellipse
     ry="6.687932"
     rx="4.567368"
     cy="86.505959"
     cx="-388.6337"
     style="color:#000000;display:inline;overflow:visible;visibility:visible;fill:#000000;fill-opacity:1;fill-rule:nonzero;stroke:none;stroke-width:2.59126377;marker:none;enable-background:accumulate"
     id="path20139"
     transform="matrix(-0.90525856,-0.42486108,0.42486108,-0.90525856,0,0)" />
  <ellipse
     ry="6.687932"
     rx="4.567368"
     cy="96.193909"
     cx="-397.81418"
     transform="matrix(-0.90525856,-0.42486108,0.42486108,-0.90525856,0,0)"
     id="path20141"
     style="color:#000000;display:inline;overflow:visible;visibility:visible;fill:#000000;fill-opacity:1;fill-rule:nonzero;stroke:none;stroke-width:2.59126377;marker:none;enable-background:accumulate" />
  <path
     inkscape:connector-curvature="0"
     id="path20147"
     d="m 320.08924,108.4367 -43.87168,44.13715 23.91305,25.87106 20.47209,-21.62019 -14.05226,-14.43701 -9.66145,10.08035 9.28992,12.23218 -1.05681,1.05002 -10.84796,-10.41203 c -1.5661,-1.56229 -2.07539,-3.2696 -0.36138,-5.28214 l 10.12092,-10.4834 c 1.57262,-1.25453 3.11645,-1.53168 4.62186,-0.49371 0,0 8.44704,6.34465 16.06787,15.05653 1.98963,2.71602 1.49772,5.07672 -0.51092,7.22023 l -20.06287,23.03938 c -2.43824,2.12702 -5.49191,1.67262 -7.76765,-0.55059 l -28.26655,-26.49648 c -2.9017,-2.50389 -2.71611,-8.31752 0.0879,-10.84034 l 44.18524,-46.20259 z"
     style="color:#000000;display:inline;overflow:visible;visibility:visible;fill:#000000;fill-opacity:1;fill-rule:nonzero;stroke:none;stroke-width:2.59126377;marker:none;enable-background:accumulate" />
  <path
     inkscape:connector-curvature="0"
     style="color:#000000;display:inline;overflow:visible;visibility:visible;fill:#000000;fill-opacity:1;fill-rule:nonzero;stroke:none;stroke-width:2.59126377;marker:none;enable-background:accumulate"
     d="m 333.02816,132.00784 4.10125,45.94309 c 0,0 11.14784,-2.25718 10.17781,4.166 -0.96995,6.42318 -15.21422,2.31678 -15.21422,2.31678 l -1.82886,-52.72205 z"
     id="path20151" />
  <ellipse
     ry="6.687932"
     rx="4.567368"
     cy="374.69113"
     cx="7.9293799"
     style="color:#000000;display:inline;overflow:visible;visibility:visible;fill:#000000;fill-opacity:1;fill-rule:nonzero;stroke:none;stroke-width:2.59126377;marker:none;enable-background:accumulate"
     id="path20153"
     transform="matrix(0.42486108,-0.90525856,0.90525856,0.42486108,0,0)" />
  <ellipse
     ry="6.687932"
     rx="4.567368"
     cy="384.37909"
     cx="-1.2510828"
     transform="matrix(0.42486108,-0.90525856,0.90525856,0.42486108,0,0)"
     id="path20155"
     style="color:#000000;display:inline;overflow:visible;visibility:visible;fill:#000000;fill-opacity:1;fill-rule:nonzero;stroke:none;stroke-width:2.59126377;marker:none;enable-background:accumulate" />
  <path
     inkscape:connector-curvature="0"
     style="color:#000000;display:inline;overflow:visible;visibility:visible;fill:#000000;fill-opacity:1;fill-rule:nonzero;stroke:none;stroke-width:2.59126377;marker:none;enable-background:accumulate"
     d="m 345.83051,84.376283 43.87168,-44.13724 -23.91296,-25.871065 -20.47218,21.620192 14.05235,14.43701 9.66135,-10.080257 -9.28991,-12.232186 1.0568,-1.050106 10.84805,10.412117 c 1.5661,1.562207 2.0754,3.269603 0.3613,5.28205 l -10.12093,10.483398 c -1.57253,1.25462 -3.11644,1.531684 -4.62186,0.493714 0,0 -8.44695,-6.344654 -16.06778,-15.05644 -1.98962,-2.716019 -1.49781,-5.076811 0.51083,-7.220226 L 361.77013,8.4178602 c 2.43832,-2.1270217 5.492,-1.6726158 7.76765,0.5505946 l 28.26664,26.4963822 c 2.90169,2.503897 2.71602,8.317521 -0.0879,10.840438 l -44.18524,46.202581 z"
     id="path20161" />
  <path
     inkscape:connector-curvature="0"
     id="path20165"
     d="m 332.89158,60.805053 -4.10125,-45.942998 c 0,0 -11.14775,2.257085 -10.17771,-4.166097 0.96995,-6.4231816 15.21422,-2.316682 15.21422,-2.316682 l 1.82885,52.721951 z"
     style="color:#000000;display:inline;overflow:visible;visibility:visible;fill:#000000;fill-opacity:1;fill-rule:nonzero;stroke:none;stroke-width:2.59126377;marker:none;enable-background:accumulate" />
  <ellipse
     ry="6.687932"
     rx="4.567368"
     cy="-310.05716"
     cx="-100.4485"
     transform="matrix(-0.42486108,0.90525856,-0.90525856,-0.42486108,0,0)"
     id="path20169"
     style="color:#000000;display:inline;overflow:visible;visibility:visible;fill:#000000;fill-opacity:1;fill-rule:nonzero;stroke:none;stroke-width:2.59126377;marker:none;enable-background:accumulate" />
  <ellipse
     ry="6.687932"
     rx="4.567368"
     cy="-300.36911"
     cx="-109.62894"
     style="color:#000000;display:inline;overflow:visible;visibility:visible;fill:#000000;fill-opacity:1;fill-rule:nonzero;stroke:none;stroke-width:2.59126377;marker:none;enable-background:accumulate"
     id="path20173"
     transform="matrix(-0.42486108,0.90525856,-0.90525856,-0.42486108,0,0)" />
  <path
     inkscape:connector-curvature="0"
     style="color:#000000;display:inline;overflow:visible;visibility:visible;opacity:0.56734691;fill:#ffffff;fill-opacity:1;fill-rule:nonzero;stroke:none;stroke-width:1px;marker:none;filter:url(#filter14506-80-6-1);enable-background:accumulate"
     d="m -1409.7784,-1119.5574 11.6128,14.7799 c 0,0 -11.8565,-13.4806 -11.9377,-13.8054 -0.081,-0.3248 0.3249,-0.9745 0.3249,-0.9745 z"
     id="path20207"
     transform="matrix(0.80201649,0,0,0.80201649,1426.914,1050.6759)" />
  <path
     inkscape:connector-curvature="0"
     style="color:#000000;font-style:normal;font-variant:normal;font-weight:normal;font-stretch:normal;font-size:medium;line-height:normal;font-family:Sans;-inkscape-font-specification:Sans;text-indent:0;text-align:start;text-decoration:none;text-decoration-line:none;letter-spacing:normal;word-spacing:normal;text-transform:none;direction:ltr;block-progression:tb;writing-mode:lr-tb;baseline-shift:baseline;text-anchor:start;display:inline;overflow:visible;visibility:visible;fill:#000000;fill-opacity:1;stroke:none;stroke-width:2;marker:none;enable-background:accumulate"
     d="m 102.43932,47.522942 a 6.4167736,6.4167736 0 0 0 -6.340123,6.509951 l 0,84.742577 a 6.4250384,6.4250384 0 0 0 12.850073,0 l 0,-84.742577 a 6.4167736,6.4167736 0 0 0 -6.50995,-6.509951 z m -45.456435,0.3113 a 6.4167736,6.4167736 0 0 0 -6.340126,6.510041 l 0,66.146717 c 0,13.56089 11.120218,24.6812 24.681204,24.6812 l 11.43487,0 a 6.4167736,6.4167736 0 1 0 0,-12.82172 l -11.43487,0 c -6.673797,0 -11.859386,-5.18568 -11.859386,-11.85948 l 0,-66.146717 a 6.4167736,6.4167736 0 0 0 -6.481692,-6.510041 z m 169.004025,0 a 6.4167736,6.4167736 0 0 0 -6.31186,6.510041 l 0,66.146717 c 0,13.56089 11.09196,24.6812 24.65294,24.6812 l 11.43487,0 a 6.4167736,6.4167736 0 1 0 0,-12.82172 l -11.43487,0 c -6.67389,0 -11.83113,-5.18568 -11.83113,-11.85948 l 0,-66.146717 a 6.4167736,6.4167736 0 0 0 -6.50995,-6.510041 z M 29.867543,47.947459 c -13.560905,0 -24.6812051,11.091959 -24.6812051,24.652945 l 0,15.340841 a 6.4167736,6.4167736 0 0 0 0,12.595385 l 0,38.23884 a 6.4167736,6.4167736 0 1 0 12.8217731,0 l 0,-38.09736 20.095934,0 a 6.4250384,6.4250384 0 0 0 0,-12.850082 l -20.095934,0 0,-15.227624 c 0,-6.673978 5.185525,-11.831127 11.859432,-11.831127 l 11.406565,0 a 6.4167736,6.4167736 0 1 0 0,-12.821818 l -11.406565,0 z m 103.055377,0.792515 -0.31139,0.02808 c 0,0 -5.21584,0.541266 -10.41592,3.764495 -5.19999,3.22323 -10.72722,10.01278 -10.72722,20.010977 0,9.221895 3.09208,16.185617 7.44394,20.888451 4.35186,4.702743 9.39335,7.338965 13.3879,9.991315 4.53727,3.01283 8.7789,5.49345 11.46313,8.03837 2.68432,2.54511 3.96258,4.54922 3.96258,8.60446 0,8.39623 -6.32953,12.90668 -10.86879,12.90668 -7.92244,0 -15.70875,-0.50938 -15.70875,-0.50938 a 5.9843835,5.9843835 0 0 0 -0.76426,11.94425 c 0,0 8.05242,0.50957 16.47301,0.50957 11.80396,0 22.81313,-10.39772 22.81313,-24.85112 0,-7.36949 -3.45564,-13.29769 -7.67037,-17.29378 -4.21483,-3.996182 -9.01974,-6.618277 -13.07651,-9.312106 -4.59958,-3.054129 -8.654,-5.360486 -11.23679,-8.151591 -2.58269,-2.791014 -4.27388,-5.917058 -4.27388,-12.765119 0,-6.071938 2.37855,-8.166263 5.09475,-9.849838 2.60343,-1.613743 5.08097,-1.979659 5.29282,-2.009548 l 15.82206,0 a 5.9784307,5.9784307 0 1 0 0,-11.944435 l -16.35979,0 -0.33965,0 z m 47.69242,24.058605 c -10.03198,0 -18.28447,8.280657 -18.28447,18.312729 l 0,35.748072 c 0,10.03208 8.25249,18.31282 18.28447,18.31282 l 16.89761,0 c 10.03199,0 18.31273,-8.28065 18.31273,-18.31282 l 0,-35.748072 c 0,-10.032072 -8.28074,-18.312729 -18.31273,-18.312729 l -16.89761,0 z m 0,12.821727 16.89761,0 c 3.14489,0 5.46266,2.346028 5.46266,5.491002 l 0,35.748072 c 0,3.14498 -2.31777,5.4911 -5.46266,5.4911 l -16.89761,0 c -3.14488,0 -5.46265,-2.34612 -5.46265,-5.4911 l 0,-35.748072 c 0,-3.144974 2.31777,-5.491002 5.46265,-5.491002 z"
     id="path20219" />
  <circle
     r="44.300766"
     cy="96.368446"
     cx="333.31439"
     style="color:#000000;display:inline;overflow:visible;visibility:visible;fill:#ffffff;fill-opacity:1;fill-rule:nonzero;stroke:#6a6a6a;stroke-width:5.43439388;stroke-opacity:1;marker:none;enable-background:accumulate"
     id="path20221" />
  <circle
     r="46.820286"
     cy="96.368546"
     cx="333.3143"
     style="color:#000000;display:inline;overflow:visible;visibility:visible;fill:#000000;fill-opacity:1;fill-rule:nonzero;stroke:none;stroke-width:1;marker:none;enable-background:accumulate"
     id="path20223" />
  <path
     inkscape:connector-curvature="0"
     style="font-size:12px;fill:#6a6a6a;fill-opacity:1;fill-rule:nonzero;stroke:#919191;stroke-width:1.1452688;stroke-opacity:1;filter:url(#filter15293)"
     d="m -1392.4809,-1232.0483 c -0.8019,0.033 -1.509,0.2328 -2.0475,0.6749 -0.2982,2.8855 0.7189,6.5887 2.9222,8.6149 -0.1902,-0.2464 -0.4195,-0.6929 -0.7355,-1.4291 -0.9777,-1.6628 -2.7369,-9.0374 0.656,-5.4787 1.989,4.1785 2.6367,9.2781 5.7252,12.9819 2.3538,3.8651 6.8255,4.1147 10.5955,5.0816 3.2734,1.588 4.3264,6.2894 7.8522,7.2255 2.5104,3.2637 -0.6389,7.349 -2.0078,10.5006 -2.7461,4.8644 2.8883,7.8174 4.6716,11.632 3.6086,4.9811 7.031,11.5771 4.3138,17.8452 -1.6058,4.5347 -1.9956,9.5445 -3.1409,14.2721 -0.5096,3.3536 -1.2328,10.3996 2.3855,11.0564 0.7253,-3.6267 0.4384,-7.5298 3.3595,-10.2624 2.8735,-5.4672 8.4716,-8.8774 12.7226,-12.7436 1.9606,-2.3297 5.7601,-7.6173 9.5221,-10.203 1.6683,-2.8236 1.1693,-7.6219 4.2343,-10.4213 2.348,-2.4836 3.5146,-8.2489 -0.994,-8.9324 -6.0092,-2.3954 -10.9523,-6.9424 -14.9491,-12.0886 -4.3284,-2.3316 -7.0463,-2.9684 -11.6629,-4.4538 -0.281,-0.091 -0.6668,2.4248 -1.5084,2.4164 -1.1507,-0.011 0.2655,-3.2189 -2.2349,-3.1236 -0.4188,1.379 -2.8098,3.5597 -4.453,4.0295 -0.6343,-1.0347 -2.8863,-3.2068 -2.7234,-4.9624 -0.075,-3.5364 -4.592,-3.6234 -2.8626,-6.9872 -1.0331,-2.9637 -5.1833,4.3511 -6.8781,-0.6552 -1.002,-4.349 -1.1763,-11.7175 -5.1885,-12.545 -1.9336,-0.7657 -5.1682,-2.1428 -7.5739,-2.0447 z m 24.8308,12.2251 c 0.3973,0.1244 2.1717,-0.4166 4.1253,-0.3854 1.8411,0.03 4.9133,1.545 5.4703,1.0618 -0.868,-2.878 -6.9897,-2.3488 -6.8746,-2.3354 -0.9249,0.7782 -3.383,1.4105 -2.721,1.659 z m 20.154,5.4712 c -0.1529,0.27 -0.9304,0.3375 -0.9313,-0.2161 0.3055,-0.5351 0.9002,-0.076 0.9313,0.2161 z m -3.6979,-1.0674 c -3.4763,-0.1072 -1.191,-1.878 -3.0367,-1.8379 -1.2939,0.027 -0.927,1.3862 -3.1699,1.1772 2.062,0.9711 2.2009,0.732 3.6375,1.4994 2.0386,-0.1206 3.2905,-0.092 2.5691,-0.8387 z"
     id="path20229"
     transform="matrix(0.79084698,0,0,0.79084698,1412.034,1037.3632)" />
  <path
     inkscape:connector-curvature="0"
     id="path20231"
     d="m 310.7947,63.001635 c -0.63419,0.02627 -1.19339,0.184045 -1.61927,0.533748 -0.23585,2.281992 0.56853,5.210587 2.31098,6.813009 -0.15035,-0.194823 -0.33168,-0.547968 -0.58166,-1.130173 -0.77323,-1.315033 -2.16443,-7.147224 0.5188,-4.332842 1.57299,3.304564 2.08527,7.337609 4.52776,10.266747 1.86155,3.056665 5.39798,3.254115 8.37947,4.018734 2.58876,1.255888 3.42149,4.973919 6.20988,5.714265 1.98528,2.581065 -0.50531,5.811903 -1.58793,8.304388 -2.17167,3.847007 2.28426,6.182347 3.69457,9.199159 2.85388,3.93921 5.56048,9.15569 3.41154,14.11276 -1.26993,3.58625 -1.57824,7.54828 -2.48398,11.28705 -0.40296,2.65217 -0.97493,8.22451 1.88655,8.74394 0.5736,-2.86818 0.34672,-5.95491 2.65688,-8.11599 2.27248,-4.3237 6.6997,-7.0207 10.0616,-10.07827 1.55061,-1.84244 4.55538,-6.02411 7.53053,-8.06898 1.31938,-2.233 0.92475,-6.02774 3.34867,-8.24162 1.85693,-1.96418 2.77951,-6.523632 -0.78608,-7.064173 -4.75238,-1.894429 -8.66161,-5.490368 -11.82244,-9.560276 -3.42312,-1.843889 -5.57251,-2.347567 -9.22352,-3.522211 -0.22227,-0.07246 -0.52741,1.917616 -1.19294,1.911004 -0.91008,-0.0091 0.20995,-2.545651 -1.76745,-2.470294 -0.33122,1.090502 -2.22212,2.815106 -3.52167,3.186728 -0.50159,-0.818329 -2.28262,-2.536141 -2.15383,-3.924538 -0.0589,-2.79672 -3.63153,-2.865555 -2.26387,-5.525782 -0.81697,-2.343854 -4.09917,3.441058 -5.43947,-0.518169 -0.79243,-3.439428 -0.93028,-9.266728 -4.10333,-9.92121 -1.52915,-0.605573 -4.0873,-1.694625 -5.98979,-1.617004 z m 19.63736,9.668149 c 0.3142,0.09836 1.71745,-0.329415 3.26245,-0.304779 1.45606,0.02355 3.88568,1.221832 4.32623,0.839704 -0.68645,-2.276015 -5.52777,-1.857566 -5.43675,-1.846969 -0.73147,0.615445 -2.67544,1.1155 -2.15193,1.312044 z m 15.93872,4.326864 c -0.12092,0.213571 -0.73582,0.266919 -0.73654,-0.170912 0.24165,-0.423158 0.71199,-0.05978 0.73654,0.170912 z m -2.92443,-0.844143 c -2.74926,-0.08514 -0.94196,-1.48522 -2.40164,-1.453519 -1.02321,0.02174 -0.7331,1.096298 -2.50689,0.931002 1.63078,0.767971 1.74064,0.578944 2.8767,1.185785 1.6122,-0.09537 2.60235,-0.07246 2.03183,-0.663268 z"
     style="font-size:12px;fill:#ffffff;fill-opacity:1;fill-rule:nonzero;stroke:none;stroke-width:0.90573239;stroke-opacity:1" />
</svg>
