<?xml version="1.0" encoding="UTF-8" standalone="no"?>
<!-- Created with Inkscape (http://www.inkscape.org/) -->

<svg
   xmlns:dc="http://purl.org/dc/elements/1.1/"
   xmlns:cc="http://creativecommons.org/ns#"
   xmlns:rdf="http://www.w3.org/1999/02/22-rdf-syntax-ns#"
   xmlns:svg="http://www.w3.org/2000/svg"
   xmlns="http://www.w3.org/2000/svg"
   xmlns:sodipodi="http://sodipodi.sourceforge.net/DTD/sodipodi-0.dtd"
   xmlns:inkscape="http://www.inkscape.org/namespaces/inkscape"
   id="svg2"
   version="1.1"
   inkscape:version="0.48.4 r9939"
   width="200"
   height="90"
   xml:space="preserve"
   sodipodi:docname="escola-arquitetura-design.svg"
   inkscape:export-filename="/home/phls/Dropbox/eventos/flisol/2015/logos/escola-arquitetura-design.png"
   inkscape:export-xdpi="90"
   inkscape:export-ydpi="90"><metadata
     id="metadata8"><rdf:RDF><cc:Work
         rdf:about=""><dc:format>image/svg+xml</dc:format><dc:type
           rdf:resource="http://purl.org/dc/dcmitype/StillImage" /><dc:title></dc:title></cc:Work></rdf:RDF></metadata><defs
     id="defs6"><clipPath
       clipPathUnits="userSpaceOnUse"
       id="clipPath16"><path
         d="m 0,283.465 283.465,0 L 283.465,0 0,0 0,283.465 z"
         id="path18"
         inkscape:connector-curvature="0" /></clipPath></defs><sodipodi:namedview
     pagecolor="#ffffff"
     bordercolor="#666666"
     borderopacity="1"
     objecttolerance="10"
     gridtolerance="10"
     guidetolerance="10"
     inkscape:pageopacity="0"
     inkscape:pageshadow="2"
     inkscape:window-width="1920"
     inkscape:window-height="1028"
     id="namedview4"
     showgrid="false"
     inkscape:zoom="1.8838554"
     inkscape:cx="177.16562"
     inkscape:cy="113.46646"
     inkscape:window-x="0"
     inkscape:window-y="0"
     inkscape:window-maximized="1"
     inkscape:current-layer="g10" /><g
     id="g10"
     inkscape:groupmode="layer"
     inkscape:label="escola arquitetura e design"
     transform="matrix(1.25,0,0,-1.25,0,90.000023)"><g
       id="g12"
       transform="matrix(0.92652743,0,0,0.92652743,-55.509563,-100.41473)"><g
         id="g14"
         clip-path="url(#clipPath16)"><g
           id="g20"
           transform="translate(77.0591,112.0566)"><path
             d="M 0,0 C 0.137,0 0.28,0.017 0.428,0.056 0.576,0.095 0.708,0.159 0.821,0.251 0.934,0.335 1.025,0.441 1.092,0.55 1.155,0.665 1.207,0.812 1.246,0.989 1.285,1.168 1.305,1.347 1.305,1.525 1.305,1.749 1.271,1.97 1.207,2.187 1.155,2.354 1.074,2.495 0.957,2.63 0.845,2.759 0.706,2.858 0.544,2.929 0.381,3.005 0.209,3.04 0.027,3.04 -0.123,3.04 -0.268,3.013 -0.411,2.964 -0.552,2.915 -0.669,2.851 -0.762,2.778 -0.854,2.7 -0.938,2.592 -1.018,2.453 -1.096,2.312 -1.156,2.156 -1.196,1.989 -1.236,1.823 -1.258,1.671 -1.258,1.544 c 0,-0.133 0.022,-0.291 0.062,-0.461 0.04,-0.174 0.097,-0.321 0.168,-0.451 C -0.956,0.509 -0.867,0.396 -0.767,0.3 -0.662,0.201 -0.547,0.127 -0.415,0.075 -0.285,0.026 -0.149,0 0,0 m -1.707,1.525 c 0,0.169 0.023,0.316 0.061,0.445 0.042,0.133 0.108,0.271 0.204,0.426 0.094,0.152 0.211,0.281 0.343,0.382 0.136,0.102 0.321,0.191 0.557,0.268 0.17,0.056 0.379,0.083 0.636,0.083 0.172,0 0.339,-0.023 0.504,-0.066 C 0.762,3.013 0.909,2.952 1.045,2.868 1.179,2.788 1.314,2.661 1.449,2.489 1.54,2.373 1.612,2.249 1.659,2.109 1.723,1.932 1.751,1.749 1.751,1.558 1.751,1.341 1.731,1.161 1.691,1.02 1.649,0.876 1.579,0.739 1.479,0.601 1.403,0.487 1.27,0.364 1.087,0.226 0.957,0.132 0.805,0.054 0.618,-0.005 0.435,-0.063 0.236,-0.092 0.021,-0.092 c -0.219,0 -0.412,0.027 -0.583,0.073 -0.17,0.051 -0.312,0.115 -0.424,0.19 -0.116,0.072 -0.232,0.178 -0.352,0.321 -0.122,0.14 -0.212,0.299 -0.273,0.474 -0.064,0.17 -0.096,0.357 -0.096,0.559 m -2.95,1.566 c 0.029,0.004 0.049,0.005 0.058,0.005 0.055,0 0.147,-10e-4 0.272,-0.009 l 0.141,0 c 0.035,0 0.11,0 0.226,0.008 l 0.421,0.024 c 0.108,0.01 0.232,0.015 0.379,0.015 0.257,0 0.463,-0.038 0.614,-0.109 0.154,-0.073 0.271,-0.186 0.354,-0.341 0.084,-0.156 0.125,-0.311 0.125,-0.464 0,-0.258 -0.091,-0.477 -0.271,-0.662 C -2.52,1.369 -2.76,1.276 -3.065,1.276 c -0.085,0 -0.158,0.006 -0.212,0.024 -0.058,0.015 -0.12,0.051 -0.199,0.099 -0.03,0.022 -0.049,0.043 -0.056,0.068 0.007,0.012 0.016,0.02 0.026,0.023 0.024,0 0.047,-0.003 0.072,-0.014 0.058,-0.024 0.126,-0.03 0.211,-0.03 0.131,0 0.253,0.033 0.367,0.098 0.115,0.062 0.202,0.15 0.262,0.271 0.059,0.122 0.088,0.241 0.088,0.372 0,0.126 -0.03,0.25 -0.092,0.373 -0.063,0.119 -0.145,0.218 -0.246,0.288 -0.054,0.038 -0.143,0.073 -0.262,0.104 -0.12,0.026 -0.212,0.037 -0.276,0.037 -0.204,0 -0.324,-0.011 -0.361,-0.041 L -3.747,2.912 -3.735,2.637 -3.74,2.587 C -3.743,2.54 -3.747,2.474 -3.747,2.384 c 0,-0.336 0.007,-0.543 0.018,-0.624 l 0,-0.136 0.03,-1.12 c 0,-0.019 -0.002,-0.049 -0.007,-0.096 -0.003,-0.041 -0.005,-0.081 -0.005,-0.112 0,-0.08 0.005,-0.137 0.019,-0.181 0.04,-0.011 0.157,-0.036 0.343,-0.08 C -3.26,0.015 -3.209,0 -3.202,0 c 0.014,-0.01 0.023,-0.019 0.032,-0.033 -0.007,-0.027 -0.014,-0.041 -0.025,-0.05 -0.007,-0.004 -0.034,-0.009 -0.064,-0.009 -0.016,0 -0.063,0.005 -0.134,0.009 -0.141,0.018 -0.253,0.023 -0.335,0.023 l -0.43,-0.014 -0.259,0.009 c -0.016,0 -0.062,-0.006 -0.14,-0.006 l -0.004,0.061 0.321,0.064 c 0.053,0.011 0.082,0.029 0.094,0.042 0.016,0.024 0.026,0.067 0.026,0.135 0,0.016 0,0.044 0.001,0.096 10e-4,0.035 10e-4,0.081 10e-4,0.145 0,0.191 -0.008,0.603 -0.023,1.23 -0.005,0.294 -0.01,0.594 -0.01,0.9 l 0,0.04 c 0,0.117 -0.018,0.193 -0.054,0.223 -0.062,0.056 -0.212,0.099 -0.454,0.132 -0.008,0.022 -0.013,0.033 -0.013,0.047 0,0.014 0.005,0.027 0.015,0.047 m -2.236,0.017 c 0.008,-0.027 0.011,-0.045 0.011,-0.064 0,-0.007 -0.001,-0.023 -0.006,-0.039 -0.042,-0.016 -0.076,-0.018 -0.105,-0.018 -0.012,0 -0.028,0 -0.056,0.002 l -0.066,0 C -7.189,2.989 -7.25,2.978 -7.292,2.948 -7.322,2.929 -7.339,2.905 -7.346,2.876 L -7.373,2.597 -7.367,1.382 c 0.003,-0.447 0.018,-0.725 0.045,-0.834 0.03,-0.107 0.078,-0.199 0.14,-0.27 0.067,-0.068 0.166,-0.127 0.297,-0.174 0.131,-0.047 0.26,-0.069 0.385,-0.069 0.277,0 0.491,0.04 0.64,0.121 0.149,0.079 0.253,0.193 0.32,0.331 0.063,0.141 0.097,0.36 0.097,0.647 0,0.007 -0.005,0.072 -0.008,0.196 l 0,0.07 c 0,0.029 0.002,0.079 0.003,0.158 0.005,0.071 0.007,0.119 0.007,0.13 L -5.479,2.396 C -5.491,2.634 -5.505,2.771 -5.52,2.814 -5.536,2.858 -5.557,2.886 -5.587,2.909 -5.649,2.954 -5.77,2.997 -5.95,3.034 c -0.007,0.024 -0.014,0.047 -0.014,0.072 0.062,0.002 0.127,0.008 0.19,0.008 0.064,0 0.132,0 0.206,-0.008 0.107,-0.007 0.165,-0.011 0.175,-0.011 l 0.387,0.011 0.077,0 L -4.93,3.013 C -5.133,2.989 -5.253,2.959 -5.293,2.925 -5.331,2.886 -5.352,2.823 -5.352,2.729 c 0,-0.052 0.004,-0.161 0.012,-0.332 l 0.016,-0.509 -0.001,-0.2 0.007,-0.253 c 0,-0.329 -0.01,-0.545 -0.03,-0.659 C -5.373,0.614 -5.41,0.483 -5.457,0.388 -5.505,0.292 -5.577,0.21 -5.666,0.134 -5.759,0.056 -5.882,-0.01 -6.037,-0.054 c -0.152,-0.05 -0.302,-0.077 -0.448,-0.077 -0.236,0 -0.407,0.018 -0.509,0.048 -0.189,0.06 -0.338,0.133 -0.447,0.227 -0.116,0.091 -0.19,0.183 -0.232,0.275 -0.056,0.12 -0.087,0.299 -0.087,0.532 l 0,0.171 -0.006,0.688 0.006,0.552 0,0.375 c 0,0.092 -0.012,0.16 -0.04,0.196 -0.016,0.029 -0.042,0.045 -0.076,0.045 L -8.022,2.975 c -0.108,0 -0.176,0.012 -0.207,0.032 -0.004,0.014 -0.009,0.027 -0.009,0.037 0,0.019 0.008,0.027 0.016,0.037 0.022,0.01 0.042,0.018 0.068,0.018 l 0.06,0 0.167,0.003 0.389,0 0.645,0.006 z m -3.528,-1.469 c 0.046,0 0.078,-0.003 0.099,-0.003 0.12,0 0.257,0.011 0.41,0.041 0.108,0.023 0.193,0.056 0.262,0.103 0.065,0.049 0.122,0.122 0.167,0.216 0.045,0.096 0.071,0.193 0.071,0.292 0,0.113 -0.036,0.231 -0.108,0.354 -0.058,0.095 -0.145,0.175 -0.274,0.24 -0.129,0.063 -0.282,0.096 -0.464,0.096 -0.042,0 -0.101,0 -0.17,-0.009 -0.008,-0.085 -0.011,-0.152 -0.011,-0.197 l 0.011,-0.459 0,-0.187 c 0,-0.13 0,-0.29 0.007,-0.487 M -11.33,0.032 c 0.238,0.03 0.37,0.047 0.403,0.059 0.02,0.012 0.041,0.031 0.059,0.072 l 0,0.029 c 0,0.041 0.005,0.19 0.019,0.44 0.002,0.076 0.004,0.147 0.004,0.215 l -0.007,0.294 0.004,0.328 -10e-4,0.614 10e-4,0.445 c 0.001,0.184 -0.013,0.299 -0.041,0.34 -0.031,0.041 -0.11,0.071 -0.233,0.086 -0.13,0.021 -0.198,0.033 -0.209,0.041 -0.015,0.01 -0.023,0.018 -0.023,0.039 0,0.01 0.003,0.024 0.009,0.042 0.016,0.015 0.056,0.026 0.116,0.026 0.005,0 0.028,0.004 0.066,0.006 0.037,0.006 0.071,0.006 0.102,0.006 l 0.2,0 0.648,0.005 c 0.367,0 0.621,-0.024 0.77,-0.077 0.144,-0.055 0.259,-0.148 0.346,-0.275 0.086,-0.125 0.132,-0.274 0.132,-0.43 0,-0.302 -0.159,-0.532 -0.473,-0.69 C -9.49,1.618 -9.535,1.597 -9.565,1.575 -9.512,1.452 -9.435,1.312 -9.333,1.146 L -9.02,0.614 C -8.897,0.419 -8.812,0.292 -8.763,0.243 -8.716,0.192 -8.658,0.153 -8.592,0.12 -8.524,0.085 -8.41,0.056 -8.247,0.026 l 0,-0.041 0,-0.033 c -0.225,-0.006 -0.489,-0.006 -0.789,-0.006 -0.022,0 -0.052,0 -0.088,0.006 -0.118,0.223 -0.254,0.467 -0.411,0.733 l -0.364,0.662 c -0.047,0.07 -0.09,0.115 -0.122,0.132 -0.032,0.014 -0.073,0.026 -0.125,0.026 l -0.208,-0.003 -0.072,0.003 c -0.002,-0.055 -0.007,-0.16 -0.007,-0.323 l 0,-0.839 c -10e-4,-0.031 0.005,-0.076 0.021,-0.127 0.015,-0.035 0.036,-0.06 0.066,-0.082 0.033,-0.014 0.126,-0.046 0.279,-0.08 l 0.1,-0.028 c 0.015,-0.017 0.021,-0.041 0.021,-0.064 -0.046,-0.01 -0.076,-0.01 -0.096,-0.01 -0.146,0 -0.251,0 -0.308,0.006 l -0.078,0 -0.333,-0.006 -0.326,0.006 c -0.014,0 -0.089,-0.006 -0.224,-0.01 l -0.046,0.01 -0.007,0.023 c 0,0.014 0.01,0.034 0.034,0.051 m -0.741,2.906 0.026,-0.373 c 0.012,-0.115 0.015,-0.192 0.015,-0.228 l -0.068,-0.016 c -0.11,0.25 -0.247,0.436 -0.409,0.561 -0.162,0.123 -0.363,0.185 -0.597,0.185 -0.289,0 -0.513,-0.037 -0.673,-0.105 -0.232,-0.101 -0.434,-0.275 -0.597,-0.521 -0.165,-0.247 -0.247,-0.544 -0.247,-0.892 0,-0.202 0.028,-0.385 0.088,-0.544 0.063,-0.158 0.147,-0.31 0.258,-0.448 0.11,-0.138 0.242,-0.258 0.391,-0.359 0.097,-0.066 0.216,-0.119 0.353,-0.151 0.075,-0.021 0.191,-0.03 0.343,-0.03 0.1,0 0.207,0.015 0.326,0.045 0.12,0.023 0.21,0.064 0.268,0.113 0.062,0.041 0.104,0.094 0.125,0.157 0.022,0.056 0.033,0.172 0.033,0.341 0,0.281 -0.018,0.449 -0.054,0.495 -0.038,0.05 -0.157,0.08 -0.359,0.092 l -0.096,0.007 -0.067,0 c -0.01,0 -0.022,0.002 -0.041,0.004 l -0.035,0.062 c 0,0.008 0.007,0.021 0.017,0.033 0.087,0.016 0.27,0.023 0.556,0.023 0.063,0 0.166,-0.002 0.312,-0.005 l 0.251,-0.014 0.23,0.002 c 0.043,0 0.096,-0.002 0.159,-0.003 0.012,-0.003 0.017,-0.005 0.022,-0.01 0.003,-0.005 0.005,-0.012 0.005,-0.018 0,-0.021 -0.005,-0.043 -0.01,-0.072 -0.073,-0.016 -0.123,-0.019 -0.163,-0.019 l -0.158,0 c -0.056,0 -0.098,-0.019 -0.131,-0.057 -0.018,-0.018 -0.024,-0.079 -0.024,-0.183 l 10e-4,-0.322 c 0,-0.22 -0.005,-0.361 -0.024,-0.421 -0.011,-0.036 -0.03,-0.069 -0.063,-0.096 -0.034,-0.029 -0.097,-0.065 -0.196,-0.106 -0.143,-0.056 -0.273,-0.097 -0.389,-0.113 -0.216,-0.039 -0.426,-0.056 -0.626,-0.056 -0.323,0 -0.588,0.041 -0.797,0.125 -0.208,0.082 -0.386,0.195 -0.535,0.341 -0.149,0.149 -0.257,0.297 -0.321,0.448 -0.098,0.223 -0.143,0.447 -0.143,0.677 0,0.285 0.075,0.563 0.223,0.842 0.152,0.273 0.398,0.496 0.735,0.668 0.238,0.119 0.56,0.179 0.969,0.179 0.281,0 0.512,-0.021 0.688,-0.07 0.181,-0.048 0.324,-0.107 0.429,-0.168"
             style="fill:#606163;fill-opacity:1;fill-rule:nonzero;stroke:none"
             id="path22"
             inkscape:connector-curvature="0" /></g><g
           id="g24"
           transform="translate(100.4419,113.4111)"><path
             d="M 0,0 0.358,0.953 C 0.406,0.847 0.468,0.701 0.55,0.51 0.628,0.314 0.692,0.143 0.743,-0.004 L 0.683,-0.008 C 0.614,-0.008 0.386,-0.004 0,0 m -1.155,-1.381 0.043,0 c 0.108,0 0.226,0.008 0.346,0.027 l 0.101,0.02 c 0.385,-0.03 0.63,-0.044 0.731,-0.044 0.004,0.024 0.005,0.038 0.005,0.059 0,0.021 -10e-4,0.062 -10e-4,0.124 -0.104,0.015 -0.165,0.021 -0.177,0.024 -0.109,0.015 -0.179,0.034 -0.221,0.067 -0.021,0.018 -0.029,0.049 -0.029,0.092 0,0.032 0.014,0.09 0.044,0.173 0.111,0.311 0.182,0.504 0.217,0.581 l 0.94,0 0.193,-0.481 0.097,-0.245 C 1.141,-1.006 1.147,-1.027 1.147,-1.051 1.147,-1.07 1.14,-1.09 1.123,-1.104 1.109,-1.117 1.062,-1.133 0.98,-1.154 L 0.706,-1.213 C 0.7,-1.27 0.699,-1.322 0.699,-1.379 l 0.122,0.003 0.417,0.022 c 0.059,0.006 0.153,0.008 0.282,0.008 0.116,0 0.245,-0.008 0.395,-0.018 0.145,-0.012 0.279,-0.017 0.4,-0.017 0,0.027 0.004,0.041 0.004,0.053 0,0.027 -0.006,0.068 -0.014,0.121 -0.078,0.029 -0.149,0.051 -0.217,0.06 C 2.024,-1.143 1.975,-1.123 1.944,-1.1 1.928,-1.09 1.904,-1.051 1.871,-0.98 1.808,-0.851 1.763,-0.751 1.734,-0.664 1.676,-0.508 1.633,-0.396 1.604,-0.318 1.544,-0.19 1.48,-0.024 1.402,0.176 1.325,0.383 1.238,0.592 1.14,0.802 L 0.714,1.814 0.69,1.865 l -0.11,0 -0.157,0 -0.581,-1.531 -0.499,-1.303 C -0.695,-1.043 -0.73,-1.09 -0.757,-1.111 -0.785,-1.129 -0.86,-1.153 -0.986,-1.178 -1.065,-1.191 -1.121,-1.203 -1.149,-1.213 L -1.155,-1.381 z M -3.92,1.941 C -3.933,1.908 -3.951,1.848 -3.978,1.752 -4.067,1.434 -4.138,1.223 -4.188,1.111 c 0.018,-0.024 0.07,-0.054 0.145,-0.095 0.019,0 0.049,0.027 0.09,0.078 0.143,0.185 0.246,0.297 0.317,0.336 0.052,0.03 0.155,0.045 0.311,0.045 0.28,0 0.445,-0.004 0.495,-0.012 0.017,0 0.029,-0.003 0.037,-0.012 0.007,-0.006 0.014,-0.017 0.02,-0.035 0.006,-0.051 0.011,-0.208 0.011,-0.463 l 0.011,-0.935 c 0,-0.424 -0.004,-0.745 -0.016,-0.934 -0.004,-0.053 -0.012,-0.093 -0.028,-0.125 -0.066,-0.035 -0.185,-0.07 -0.355,-0.112 -0.101,-0.024 -0.168,-0.058 -0.205,-0.106 l 0,-0.02 0.002,-0.055 c 0.002,-0.014 0.004,-0.035 0.007,-0.059 0.028,0 0.086,0.005 0.181,0.012 0.242,0.017 0.384,0.027 0.433,0.027 0.308,0 0.523,0 0.642,-0.019 0.119,-0.008 0.263,-0.015 0.432,-0.015 0.023,0 0.053,0 0.088,10e-4 0.004,0.033 0.01,0.049 0.01,0.065 0,0.014 -0.006,0.047 -0.016,0.109 -0.037,0.012 -0.082,0.025 -0.129,0.036 -0.11,0.03 -0.17,0.038 -0.186,0.04 -0.068,0.014 -0.119,0.022 -0.143,0.033 -0.021,0.057 -0.03,0.145 -0.03,0.255 l 10e-4,0.321 -0.006,0.782 0,0.724 -0.004,0.329 c 0,0.039 0.004,0.091 0.014,0.156 0.069,0.008 0.125,0.012 0.173,0.012 0.308,0 0.483,-0.004 0.523,-0.012 0.027,-0.008 0.049,-0.022 0.068,-0.045 0.016,-0.014 0.045,-0.08 0.096,-0.199 0.05,-0.123 0.095,-0.215 0.137,-0.281 0.054,0.007 0.113,0.019 0.178,0.044 0.007,0.026 0.011,0.065 0.011,0.107 l 0.003,0.128 -0.003,0.219 c 0,0.228 -0.001,0.395 -0.004,0.513 -0.031,0 -0.056,0.004 -0.072,0.004 L -1.059,1.949 C -1.072,1.918 -1.078,1.898 -1.085,1.885 -1.109,1.821 -1.132,1.779 -1.154,1.765 l -0.144,-0.021 -0.761,0 L -2.615,1.747 -2.913,1.744 -2.964,1.74 C -3.063,1.736 -3.175,1.736 -3.302,1.736 c -0.202,0 -0.314,0.004 -0.337,0.008 -0.022,0.024 -0.059,0.077 -0.103,0.154 -0.007,0.01 -0.015,0.024 -0.026,0.043 l -0.152,0 z M -4.677,1.732 c -0.153,0.051 -0.276,0.089 -0.373,0.104 -0.151,0.029 -0.269,0.042 -0.347,0.042 -0.365,0 -0.641,-0.091 -0.828,-0.274 -0.186,-0.18 -0.278,-0.403 -0.278,-0.666 0,-0.127 0.03,-0.262 0.099,-0.405 0.065,-0.138 0.159,-0.252 0.276,-0.336 0.116,-0.083 0.324,-0.179 0.625,-0.285 0.302,-0.107 0.487,-0.191 0.556,-0.257 0.117,-0.103 0.172,-0.216 0.172,-0.337 0,-0.098 -0.031,-0.19 -0.097,-0.277 -0.067,-0.088 -0.151,-0.148 -0.259,-0.186 -0.102,-0.035 -0.202,-0.056 -0.291,-0.056 -0.098,0 -0.191,0.013 -0.278,0.047 -0.083,0.031 -0.158,0.068 -0.218,0.119 -0.061,0.055 -0.119,0.123 -0.169,0.205 -0.024,0.041 -0.075,0.148 -0.153,0.335 l -0.228,-0.007 0,-0.091 c 0,-0.048 0,-0.122 0.005,-0.226 0.008,-0.212 0.012,-0.324 0.012,-0.339 l 0,-0.03 c 0.005,-0.023 0.012,-0.04 0.021,-0.046 0.021,-0.018 0.073,-0.037 0.156,-0.059 l 0.295,-0.088 c 0.159,-0.033 0.295,-0.049 0.411,-0.049 0.173,0 0.316,0.014 0.427,0.043 0.111,0.033 0.218,0.079 0.324,0.145 0.101,0.065 0.176,0.125 0.228,0.174 0.069,0.071 0.115,0.144 0.148,0.224 0.058,0.149 0.086,0.299 0.086,0.455 0,0.141 -0.018,0.258 -0.055,0.353 -0.035,0.097 -0.107,0.194 -0.2,0.294 -0.076,0.078 -0.186,0.15 -0.328,0.217 -0.141,0.063 -0.263,0.111 -0.361,0.14 -0.3,0.086 -0.494,0.18 -0.587,0.28 -0.093,0.093 -0.136,0.194 -0.136,0.3 0,0.127 0.043,0.233 0.137,0.316 0.098,0.083 0.222,0.124 0.382,0.124 0.171,0 0.317,-0.062 0.443,-0.196 C -4.988,1.365 -4.915,1.217 -4.846,1 l 0.032,-0.008 0.175,-0.01 0.029,0.006 c 0.005,0.037 0.007,0.069 0.007,0.094 0,0.097 -0.007,0.229 -0.029,0.398 -0.014,0.111 -0.028,0.196 -0.045,0.252 m -3.875,-3.119 c 0.031,0.006 0.106,0.009 0.211,0.018 0.167,0.017 0.294,0.029 0.383,0.029 l 0.43,-0.006 c 0.196,-0.023 0.307,-0.032 0.328,-0.035 0.033,-0.006 0.052,-0.007 0.065,-0.007 0.008,0 0.038,0 0.088,10e-4 0.014,0.006 0.033,0.006 0.052,0.006 0.003,0.035 0.004,0.068 0.004,0.083 0,0.028 -0.007,0.075 -0.011,0.121 -0.088,0.015 -0.134,0.021 -0.148,0.023 -0.085,0.009 -0.175,0.025 -0.276,0.043 -0.007,0.025 -0.011,0.043 -0.011,0.056 l 0.005,0.096 -0.007,0.492 0.01,0.33 -0.003,0.649 c 0,0.148 0.003,0.363 0.006,0.638 -0.003,0.045 -0.006,0.103 -0.006,0.172 0,0.082 0.006,0.147 0.016,0.189 0.055,0.018 0.127,0.04 0.208,0.062 0.083,0.018 0.158,0.041 0.223,0.062 0.004,0.048 0.007,0.082 0.007,0.109 0,0.021 -0.002,0.05 -0.003,0.077 -0.031,0 -0.109,-0.007 -0.226,-0.011 -0.215,-0.016 -0.371,-0.019 -0.464,-0.019 -0.023,0 -0.076,0 -0.162,0.003 L -8.537,1.821 -8.532,1.607 C -8.514,1.6 -8.486,1.6 -8.446,1.598 -8.295,1.591 -8.188,1.573 -8.121,1.539 -8.108,1.504 -8.104,1.478 -8.104,1.463 L -8.099,1.354 -8.085,1.076 -8.091,0.941 -8.087,0.615 c 0,-0.009 -0.008,-0.177 -0.019,-0.503 l 0.002,-0.133 -0.004,-0.561 0.002,-0.289 c 0,-0.092 -0.018,-0.164 -0.045,-0.215 -0.054,-0.025 -0.132,-0.053 -0.24,-0.079 -0.076,-0.015 -0.13,-0.03 -0.161,-0.042 l 0,-0.18 z m -2.4,1.748 0,0.069 c 0,0.123 10e-4,0.216 0.007,0.293 l -0.003,0.269 0.006,0.201 -0.003,0.332 0.003,0.048 c 0.055,0.005 0.119,0.012 0.195,0.012 0.158,0 0.273,-0.012 0.346,-0.034 0.098,-0.034 0.176,-0.082 0.24,-0.147 0.042,-0.047 0.075,-0.113 0.103,-0.203 0.031,-0.096 0.043,-0.189 0.043,-0.291 0,-0.17 -0.057,-0.304 -0.173,-0.402 -0.115,-0.102 -0.314,-0.149 -0.593,-0.149 -0.037,0 -0.094,0.002 -0.171,0.002 m -1.112,-1.593 c -0.002,-0.032 -0.004,-0.059 -0.004,-0.076 0,-0.011 0.002,-0.038 0.004,-0.079 l 0.106,0 c 0.084,0 0.18,0.006 0.283,0.018 l 0.338,0.023 0.092,0 c 0.065,0 0.276,-0.013 0.629,-0.047 l 0.101,0.006 c 0.008,0 0.028,-10e-4 0.057,-10e-4 0.007,0.04 0.012,0.099 0.012,0.181 -0.095,0.036 -0.201,0.068 -0.329,0.096 -0.076,0.011 -0.135,0.032 -0.183,0.06 l 0.016,0.465 -0.01,0.547 c 0,0.062 0,0.121 0.007,0.168 0.075,0.004 0.133,0.007 0.165,0.007 0.122,0 0.209,-0.019 0.256,-0.051 0.033,-0.022 0.087,-0.116 0.172,-0.275 0.176,-0.35 0.298,-0.599 0.373,-0.761 0.024,-0.061 0.073,-0.153 0.144,-0.277 l 0.083,-0.16 c 0.025,10e-4 0.061,0.007 0.105,0.01 0.095,0.009 0.154,0.019 0.172,0.019 l 0.247,-0.005 c 0.075,0 0.141,-0.005 0.194,-0.012 l 0.1,0 0.128,-0.017 0.05,0.005 0.068,0 0,0.054 c 0,0.026 -0.003,0.048 -0.011,0.075 -0.04,0.027 -0.098,0.058 -0.173,0.082 -0.094,0.038 -0.155,0.07 -0.186,0.098 -0.03,0.028 -0.098,0.128 -0.195,0.297 l -0.393,0.636 c -0.04,0.071 -0.098,0.152 -0.167,0.253 -0.033,0.043 -0.057,0.084 -0.081,0.12 0.226,0.066 0.389,0.171 0.498,0.306 0.106,0.135 0.159,0.284 0.159,0.449 0,0.226 -0.096,0.422 -0.296,0.592 -0.197,0.17 -0.466,0.257 -0.803,0.257 -0.213,0 -0.417,-0.01 -0.609,-0.03 L -11.25,1.787 -11.382,1.779 c -0.009,0 -0.072,0.004 -0.192,0.015 -0.114,0 -0.191,-0.003 -0.229,-0.003 -0.07,0 -0.143,-0.008 -0.225,-0.02 l -0.013,-0.027 0.006,-0.146 c 0.046,-0.01 0.134,-0.02 0.266,-0.025 l 0.145,-0.03 c 0.007,-0.094 0.013,-0.316 0.013,-0.656 0,-0.158 -0.003,-0.321 -0.007,-0.498 l -0.006,-0.135 0.006,-0.231 -0.01,-0.291 0.004,-0.551 c 0,-0.136 -0.002,-0.216 -0.007,-0.237 0,-0.014 -0.006,-0.04 -0.013,-0.073 -0.069,-0.024 -0.143,-0.042 -0.229,-0.051 -0.08,-0.011 -0.148,-0.029 -0.191,-0.052 M -14.485,0 -14.13,0.953 c 0.051,-0.106 0.112,-0.252 0.192,-0.443 0.081,-0.196 0.143,-0.367 0.193,-0.514 l -0.061,-0.004 c -0.069,0 -0.297,0.004 -0.679,0.008 m -1.159,-1.381 0.046,0 c 0.109,0 0.222,0.008 0.347,0.027 l 0.101,0.02 c 0.385,-0.03 0.624,-0.044 0.728,-0.044 0.001,0.024 0.006,0.038 0.006,0.059 0,0.021 -0.002,0.062 -0.005,0.124 -0.102,0.015 -0.159,0.021 -0.177,0.024 -0.102,0.015 -0.175,0.034 -0.213,0.067 -0.024,0.018 -0.036,0.049 -0.036,0.092 0,0.032 0.017,0.09 0.05,0.173 0.106,0.311 0.179,0.504 0.213,0.581 l 0.94,0 0.193,-0.481 0.099,-0.245 c 0.01,-0.022 0.014,-0.043 0.014,-0.067 0,-0.019 -0.01,-0.039 -0.024,-0.053 -0.014,-0.013 -0.064,-0.029 -0.145,-0.05 l -0.273,-0.059 c -0.007,-0.057 -0.007,-0.109 -0.007,-0.166 l 0.122,0.003 0.417,0.022 c 0.057,0.006 0.151,0.008 0.278,0.008 0.119,0 0.252,-0.008 0.398,-0.018 0.144,-0.012 0.278,-0.017 0.402,-0.017 l 0,0.053 c 0,0.027 -0.005,0.068 -0.014,0.121 -0.076,0.029 -0.147,0.051 -0.214,0.06 -0.066,0.004 -0.114,0.024 -0.142,0.047 -0.017,0.01 -0.044,0.049 -0.075,0.12 -0.061,0.129 -0.106,0.229 -0.134,0.316 -0.06,0.156 -0.104,0.268 -0.136,0.346 -0.058,0.128 -0.123,0.294 -0.198,0.494 -0.081,0.207 -0.166,0.416 -0.265,0.626 l -0.424,1.012 -0.024,0.051 -0.113,0 -0.154,0 -0.586,-1.531 -0.495,-1.303 c -0.039,-0.074 -0.075,-0.121 -0.1,-0.142 -0.027,-0.018 -0.105,-0.042 -0.229,-0.067 -0.079,-0.013 -0.134,-0.025 -0.165,-0.035 l -0.006,-0.168 z m -4.429,0 0.01,0.168 c 0.201,0.025 0.331,0.068 0.388,0.125 0.037,0.037 0.066,0.141 0.085,0.308 l 0.031,0.876 0.038,0.89 c 0.002,0.056 0.003,0.086 0.003,0.101 0,0.229 -0.012,0.364 -0.04,0.399 -0.027,0.035 -0.133,0.072 -0.315,0.105 -0.045,0.009 -0.085,0.018 -0.108,0.028 -0.005,0.037 -0.005,0.072 -0.005,0.102 l 0,0.078 c 0.059,0.002 0.131,0.008 0.213,0.008 l 0.719,-0.028 c 0.015,-0.004 0.04,-0.004 0.072,-0.006 l 0.11,-0.005 c 0.027,-0.032 0.058,-0.077 0.086,-0.127 0.059,-0.123 0.14,-0.299 0.238,-0.53 l 0.028,-0.068 0.383,-0.832 c 0.011,-0.02 0.026,-0.049 0.043,-0.087 0.025,-0.058 0.05,-0.114 0.075,-0.165 0.03,-0.054 0.055,-0.111 0.083,-0.178 0.034,-0.062 0.06,-0.121 0.082,-0.17 0.024,0.039 0.046,0.082 0.067,0.131 0.066,0.152 0.13,0.29 0.191,0.416 0.11,0.225 0.259,0.565 0.445,1.026 0.027,0.072 0.076,0.181 0.144,0.33 0.068,0.15 0.105,0.227 0.111,0.238 0.015,0.01 0.043,0.016 0.088,0.016 0.017,0 0.042,0.003 0.074,0.003 0.088,0.004 0.19,0.011 0.311,0.012 0.17,0.004 0.31,0.008 0.413,0.018 0.107,0.009 0.165,0.013 0.177,0.013 0.016,0 0.035,-0.003 0.061,-0.004 l 0,-0.056 -0.004,-0.071 c 0,-0.017 0,-0.04 -0.002,-0.069 -0.159,-0.023 -0.282,-0.056 -0.377,-0.103 -0.067,-0.033 -0.101,-0.073 -0.101,-0.125 l 0,-0.036 0.039,-0.752 c 0.007,-0.068 0.021,-0.412 0.041,-1.028 0.006,-0.136 0.018,-0.309 0.034,-0.525 0.005,-0.025 0.005,-0.045 0.005,-0.059 0.003,-0.041 0.009,-0.065 0.024,-0.076 0.019,-0.013 0.166,-0.057 0.444,-0.144 l 0,-0.057 0,-0.105 c -0.045,0 -0.157,0.008 -0.336,0.027 -0.177,0.021 -0.347,0.029 -0.503,0.029 -0.238,0 -0.467,-0.008 -0.692,-0.029 -0.029,-0.004 -0.058,-0.007 -0.088,-0.009 l 0.006,0.171 c 0.069,0.027 0.157,0.051 0.267,0.068 0.078,0.012 0.129,0.035 0.151,0.066 0.02,0.03 0.033,0.118 0.033,0.262 0,0.052 0,0.102 -0.003,0.141 -0.01,0.175 -0.014,0.412 -0.019,0.716 l -0.039,0.872 c -0.004,0.124 -0.01,0.21 -0.017,0.254 l -0.611,-1.406 c -0.015,-0.031 -0.037,-0.082 -0.068,-0.141 -0.037,-0.082 -0.061,-0.137 -0.075,-0.168 -0.128,-0.303 -0.213,-0.536 -0.263,-0.696 -0.015,-0.04 -0.033,-0.095 -0.061,-0.157 l -0.189,0 -0.132,0.376 c -0.041,0.104 -0.108,0.249 -0.2,0.451 -0.059,0.118 -0.101,0.208 -0.133,0.281 -0.013,0.03 -0.027,0.052 -0.03,0.067 l -0.03,0.06 c -0.002,0.013 -0.004,0.018 -0.009,0.024 l -0.367,0.791 -0.222,0.481 -0.023,-1.166 -0.014,-0.756 c 0,-0.123 0.021,-0.21 0.067,-0.266 0.048,-0.051 0.15,-0.099 0.304,-0.135 l 0.118,-0.033 0,-0.175 c -0.096,0 -0.197,0.003 -0.308,0.018 -0.109,0.009 -0.254,0.019 -0.434,0.019 -0.037,0 -0.199,-0.01 -0.484,-0.022"
             style="fill:#606163;fill-opacity:1;fill-rule:evenodd;stroke:none"
             id="path26"
             inkscape:connector-curvature="0" /></g><path
           d="m 102.814,118.433 -40.816,0 0,0.23 40.816,0 0,-0.23 z"
           style="fill:#606163;fill-opacity:1;fill-rule:evenodd;stroke:none"
           id="path28"
           inkscape:connector-curvature="0" /><g
           id="g30"
           transform="translate(61.8521,121.8623)"><path
             d="m 0,0 0,9.01 3.282,0 0,-1.094 -2.037,0 0,-3.025 2.037,0 0,-1.096 -0.136,0 -1.901,0 L 1.245,0 0,0 z m 3.282,9.01 0.104,0 C 3.949,9.01 4.358,8.99 4.648,8.941 4.939,8.891 5.195,8.805 5.417,8.668 5.796,8.48 6.087,8.172 6.291,7.777 6.479,7.385 6.58,6.943 6.58,6.41 6.58,5.898 6.479,5.453 6.291,5.079 6.087,4.701 5.796,4.395 5.4,4.152 5.195,4.035 4.923,3.933 4.634,3.88 4.358,3.828 3.896,3.795 3.282,3.795 l 0,1.096 0.069,0 c 0.734,0 1.247,0.119 1.538,0.342 0.29,0.22 0.425,0.615 0.425,1.177 0,0.533 -0.135,0.924 -0.425,1.149 C 4.598,7.797 4.12,7.916 3.454,7.916 l -0.172,0 0,1.094 z"
             style="fill:#ad3847;fill-opacity:1;fill-rule:nonzero;stroke:none"
             id="path32"
             inkscape:connector-curvature="0" /></g><g
           id="g34"
           transform="translate(69.7837,125.2803)"><path
             d="m 0,0 0,5.592 1.248,0 0,-5.604 c 0,-0.84 0.188,-1.473 0.565,-1.865 0.392,-0.411 0.974,-0.618 1.777,-0.618 0.805,0 1.388,0.207 1.779,0.618 0.392,0.41 0.582,1.025 0.582,1.865 l 0,5.604 1.263,0 0,-5.592 c 0,-1.213 -0.323,-2.117 -0.956,-2.748 -0.634,-0.615 -1.572,-0.924 -2.805,-0.924 -1.162,0 -2.017,0.309 -2.599,0.924 C 0.29,-2.135 0,-1.229 0,0"
             style="fill:#ad3847;fill-opacity:1;fill-rule:nonzero;stroke:none"
             id="path36"
             inkscape:connector-curvature="0" /></g><g
           id="g38"
           transform="translate(85.2563,125.2139)"><path
             d="M 0,0 1.212,0 C 1.163,-1.094 0.768,-1.984 0.068,-2.634 c -0.717,-0.647 -1.642,-0.971 -2.771,-0.971 -1.283,0 -2.289,0.425 -3.025,1.297 -0.736,0.872 -1.11,2.068 -1.11,3.589 0,1.42 0.392,2.549 1.161,3.369 0.769,0.836 1.812,1.248 3.114,1.248 C -1.521,5.898 -0.669,5.639 0,5.109 0.666,4.582 1.042,3.863 1.144,2.957 l -1.212,0 c -0.122,0.6 -0.412,1.061 -0.839,1.367 -0.445,0.326 -1.01,0.48 -1.708,0.48 -0.924,0 -1.642,-0.308 -2.156,-0.958 -0.531,-0.631 -0.786,-1.537 -0.786,-2.717 0,-1.096 0.273,-1.983 0.804,-2.649 0.546,-0.669 1.247,-0.994 2.118,-0.994 0.754,0 1.387,0.224 1.864,0.686 0.48,0.46 0.736,1.072 0.771,1.828"
             style="fill:#ad3847;fill-opacity:1;fill-rule:nonzero;stroke:none"
             id="path40"
             inkscape:connector-curvature="0" /></g><g
           id="g42"
           transform="translate(87.855,121.8623)"><path
             d="m 0,0 0,9.01 3.282,0 0,-1.094 -2.035,0 0,-3.025 2.035,0 0,-1.096 -0.136,0 -1.899,0 L 1.247,0 0,0 z m 3.282,9.01 0.104,0 C 3.932,9.01 4.36,8.99 4.649,8.941 4.94,8.891 5.196,8.805 5.418,8.668 5.794,8.48 6.085,8.172 6.274,7.777 6.479,7.385 6.582,6.943 6.582,6.41 6.582,5.898 6.479,5.453 6.274,5.079 6.085,4.701 5.794,4.395 5.403,4.152 5.18,4.035 4.923,3.933 4.616,3.88 4.342,3.828 3.896,3.795 3.282,3.795 l 0,1.096 0.068,0 c 0.736,0 1.249,0.119 1.521,0.342 0.29,0.22 0.445,0.615 0.445,1.177 0,0.533 -0.136,0.924 -0.428,1.149 C 4.599,7.797 4.119,7.916 3.435,7.916 l -0.153,0 0,1.094 z"
             style="fill:#ad3847;fill-opacity:1;fill-rule:nonzero;stroke:none"
             id="path44"
             inkscape:connector-curvature="0" /></g><g
           id="g46"
           transform="translate(95.8198,130.8721)"><path
             d="m 0,0 3.369,0 0,-1.06 -2.138,0 0,-3.044 2.138,0 0,-1.042 -0.083,0 -2.036,0 0,-3.864 L 0,-9.01 0,0 z m 3.369,0 0.223,0 c 0.563,0 0.992,-0.02 1.265,-0.068 0.271,-0.051 0.531,-0.137 0.735,-0.241 0.393,-0.205 0.684,-0.496 0.889,-0.869 0.204,-0.379 0.308,-0.804 0.308,-1.318 0,-0.477 -0.104,-0.906 -0.326,-1.25 C 6.258,-4.087 5.934,-4.359 5.523,-4.549 5.882,-4.65 6.141,-4.822 6.294,-5.043 6.429,-5.281 6.53,-5.675 6.566,-6.224 L 6.67,-7.709 c 0.033,-0.326 0.068,-0.564 0.137,-0.717 0.066,-0.153 0.154,-0.275 0.288,-0.343 l 0,-0.241 -1.451,0 c -0.103,0.188 -0.189,0.584 -0.241,1.198 l 0,0.036 -0.067,1.176 c -0.052,0.617 -0.174,0.996 -0.394,1.182 -0.222,0.17 -0.753,0.256 -1.573,0.272 l 0,1.042 c 0.786,0 1.335,0.122 1.642,0.358 0.325,0.242 0.479,0.652 0.479,1.231 0,0.533 -0.136,0.91 -0.446,1.13 -0.309,0.223 -0.855,0.325 -1.675,0.325 l 0,1.06 z"
             style="fill:#ad3847;fill-opacity:1;fill-rule:nonzero;stroke:none"
             id="path48"
             inkscape:connector-curvature="0" /></g><g
           id="g50"
           transform="translate(65.0142,152.208)"><path
             d="m 0,0 c -0.274,0 -0.548,-0.07 -0.804,-0.223 -0.785,-0.428 -1.045,-1.42 -0.598,-2.17 0.291,-0.512 0.839,-0.789 1.402,-0.789 l 0,0.496 c -0.377,0 -0.751,0.189 -0.958,0.547 -0.307,0.513 -0.137,1.18 0.41,1.488 0.171,0.101 0.36,0.137 0.548,0.137 L 0,0 z M 0,3.283 C -0.462,2.786 -0.563,2.035 -0.204,1.435 -0.137,1.332 -0.068,1.229 0,1.162 L 0,3.283 z M 0,5.044 0,4.529 C -0.033,4.514 -0.068,4.479 -0.12,4.461 -1.368,3.743 -1.813,2.17 -1.078,0.922 l 0.018,-0.018 0,-0.017 0.018,0 0,-0.015 C -1.026,0.854 -1.009,0.82 -0.991,0.804 -1.111,0.752 -1.213,0.7 -1.316,0.649 -2.58,-0.07 -3.011,-1.658 -2.292,-2.888 -1.794,-3.712 -0.906,-4.172 0,-4.189 L 0,-4.65 c -1.078,0 -2.137,0.546 -2.702,1.519 -0.274,0.445 -0.392,0.926 -0.427,1.387 l 0,0.275 c 0.052,0.972 0.566,1.914 1.472,2.461 -0.635,1.417 -0.087,3.094 1.297,3.88 0.122,0.067 0.24,0.12 0.36,0.172 M 0,9.625 0,8.686 -0.204,8.342 0,8.223 0,7.676 -0.871,8.154 0,9.625 z m 0,2.136 0,-1.452 -0.65,0.359 0.65,1.093 z m 0,6.001 0,-1.112 c -0.204,0.31 -0.238,0.719 -0.033,1.061 0,0.018 0.016,0.031 0.033,0.051 m 1.214,-21.66 0,-0.532 C 0.82,-4.583 0.41,-4.65 0,-4.65 l 0,0.461 c 0.41,0 0.82,0.101 1.214,0.291 m 0,3.368 0,-2.136 C 1.095,-2.787 0.975,-2.888 0.82,-2.975 0.563,-3.111 0.274,-3.182 0,-3.182 l 0,0.496 c 0.188,0 0.377,0.053 0.563,0.138 0.532,0.308 0.719,0.975 0.412,1.485 C 0.77,-0.701 0.394,-0.514 0,-0.514 L 0,0 c 0.462,-0.017 0.888,-0.188 1.214,-0.53 m 0,4.343 0,-0.495 C 1.026,3.318 0.82,3.264 0.649,3.162 0.12,2.873 -0.068,2.205 0.24,1.675 0.445,1.332 0.82,1.127 1.214,1.127 l 0,-0.497 C 0.752,0.63 0.309,0.82 0,1.162 l 0,2.121 c 0.12,0.119 0.24,0.238 0.394,0.324 0.255,0.136 0.546,0.206 0.82,0.206 m 0,1.47 0,-0.48 C 0.803,4.803 0.394,4.717 0,4.529 l 0,0.515 c 0.394,0.171 0.803,0.239 1.214,0.239 m 0,3.556 L 0.599,9.199 0.016,8.223 0,8.223 0,7.676 0.188,7.556 0.77,8.549 0.99,8.41 0.41,7.436 1.214,6.99 l 0,0.548 -0.136,0.069 0.136,0.24 0,0.992 z m 0,3.965 0,-0.632 -0.239,0.137 -0.855,-1.438 0.461,-0.255 0.633,1.06 0,-0.958 L 0,8.686 0,9.625 0.309,10.137 0,10.309 l 0,1.452 0.77,1.282 0,0.019 0.444,-0.258 z m 0,1.009 0,-0.394 -0.17,0.102 0.17,0.292 z m 0,2.597 -0.599,0.346 C 0.357,16.891 0.274,17.199 0.41,17.455 l 0,-0.016 c 0.153,0.254 0.462,0.339 0.718,0.186 l 0.086,-0.033 0,0.529 C 0.77,18.293 0.274,18.156 0,17.762 L 0,16.65 c 0.084,-0.12 0.188,-0.22 0.326,-0.291 l 0.888,-0.495 0,0.546 z m 0,-8.563 0.444,0.752 -0.444,0.24 0,-0.992 z m 0,-10.513 0,2.136 c 0.068,-0.085 0.137,-0.171 0.189,-0.276 0.374,-0.612 0.274,-1.366 -0.189,-1.86 m 1.212,-2 0,-0.566 C 2.053,-5.008 1.709,-4.703 1.452,-4.311 1.367,-4.344 1.299,-4.395 1.214,-4.43 l 0,0.532 c 0.034,0.017 0.068,0.036 0.101,0.068 0.121,0.053 0.222,0.118 0.329,0.205 0.033,-0.102 0.083,-0.205 0.15,-0.309 0.172,-0.287 0.394,-0.529 0.632,-0.732 m 0,7.93 0,-2.084 C 2.326,1.043 2.188,0.941 2.017,0.836 1.761,0.7 1.486,0.63 1.214,0.63 l 0,0.497 C 1.403,1.127 1.592,1.18 1.761,1.28 2.292,1.571 2.479,2.256 2.17,2.77 1.966,3.112 1.592,3.318 1.214,3.318 l 0,0.495 c 0.463,0 0.907,-0.189 1.212,-0.549 m 0,1.78 0,-0.53 C 2.053,4.699 1.644,4.803 1.214,4.803 l 0,0.48 c 0.409,0 0.839,-0.086 1.212,-0.239 m 0,3.11 0,-1.111 L 2.343,6.89 2.426,6.838 2.426,6.291 1.677,6.717 2.255,7.693 2.053,7.83 1.472,6.838 1.214,6.99 l 0,0.548 0.068,-0.05 0.581,0.991 0.563,-0.325 z m 0,1.589 0,-0.853 -0.373,0.221 0.373,0.632 z m 0,2.001 0,-0.223 -0.083,0.071 0.083,0.152 z m -1.212,5.848 1.212,-0.701 0,0.548 -1.094,0.631 c -0.033,0.017 -0.084,0.035 -0.118,0.051 l 0,-0.529 z m 1.212,-1.864 -1.212,0.682 0,-0.546 0.907,-0.51 -0.907,-1.541 0,-0.394 0.307,-0.171 0.461,-0.271 -0.273,-0.463 -0.495,0.29 0,-0.632 0.222,-0.136 -0.222,-0.36 0,-0.958 1.212,2.086 0,0.942 -0.171,-0.293 -0.461,0.26 0.632,1.075 0,0.94 z m 0,-8.685 0.499,0.838 -0.499,0.273 0,-1.111 z m 0,-5.863 C 2.871,1.675 2.974,2.409 2.615,3.026 2.564,3.112 2.497,3.197 2.426,3.264 l 0,-2.084 z m 1.661,-6.394 0,-0.48 c -0.584,0 -1.162,0.153 -1.661,0.462 l 0,0.566 c 0.48,-0.359 1.06,-0.548 1.661,-0.548 m 0,4.171 0,-0.514 C 3.881,-1.557 3.691,-1.591 3.521,-1.691 2.991,-2 2.804,-2.666 3.112,-3.182 3.316,-3.54 3.691,-3.727 4.087,-3.727 l 0,-0.494 c -0.566,0 -1.113,0.27 -1.42,0.783 -0.444,0.772 -0.17,1.747 0.599,2.172 0.255,0.155 0.528,0.223 0.821,0.223 m 0,1.061 0,-0.071 -0.137,0 0.137,0.071 z m 0,3.434 0,-2.257 L 3.435,0.82 C 3.95,1.607 4.02,2.649 3.503,3.521 3.249,3.949 2.871,4.29 2.426,4.514 l 0,0.53 C 3.044,4.785 3.573,4.358 3.915,3.762 3.983,3.658 4.035,3.556 4.087,3.452 m 0,3.778 0,-0.271 -0.464,-0.787 0.206,-0.121 0.258,0.41 0,-0.958 L 4.02,5.401 2.957,6 3.539,6.975 3.316,7.094 2.738,6.121 2.426,6.291 2.426,6.838 2.564,6.771 3.146,7.76 4.087,7.23 z m 0,5.303 0,-0.755 L 3.284,12.223 3.009,11.761 3.881,11.248 2.719,9.283 3.214,9.008 4.087,10.479 4.087,9.541 3.623,8.769 3.384,8.359 2.957,8.599 2.426,8.89 l 0,0.853 0.806,1.335 -0.806,0.443 0,0.223 0.156,0.258 0.495,0.837 0.035,0.034 0.871,-0.494 0.104,0.154 z m -0.258,3.571 -0.513,-0.874 -0.89,0.498 0,-0.94 0.171,0.29 0.464,-0.257 -0.635,-1.075 0,-0.942 1.661,2.788 0,0.92 -1.661,0.927 0,-0.548 1.403,-0.787 z M 4.087,6.959 4.188,7.162 4.087,7.23 l 0,-0.271 z m 1.417,-11.779 0,-0.549 C 5.043,-5.592 4.565,-5.694 4.087,-5.694 l 0,0.48 c 0.442,-0.018 0.904,0.102 1.315,0.341 0.035,0.019 0.068,0.035 0.102,0.053 m 0,2.957 0,-1.54 C 5.37,-3.659 5.163,-3.862 4.889,-4.018 4.634,-4.156 4.36,-4.221 4.087,-4.221 l 0,0.494 c 0.187,0 0.376,0.051 0.547,0.136 0.529,0.308 0.718,0.974 0.409,1.506 -0.205,0.341 -0.58,0.528 -0.956,0.528 l 0,0.514 c 0.547,0 1.095,-0.291 1.4,-0.805 l 0.017,-0.015 z m 0,2.683 0,-0.547 L 5.317,0.17 C 5.386,0.154 5.437,0.119 5.504,0.084 l 0,-0.547 c -0.429,0.275 -0.921,0.41 -1.417,0.41 l 0,0.071 0.598,0.341 0.153,0.086 0.666,0.375 z m 0,1.726 L 5.504,2 4.172,1.248 4.087,1.195 l 0,2.257 C 4.309,2.941 4.377,2.392 4.324,1.877 l 1.18,0.669 z m 0,6.325 0,-0.955 -0.051,-0.069 0.051,-0.017 0,-0.632 -0.322,0.187 -1.095,-1.882 0,0.958 1.417,2.41 z m 0,2.018 -0.237,-0.41 -0.89,0.496 -0.238,-0.411 -0.052,-0.085 0,-0.938 0.462,0.786 0.888,-0.498 0.067,0.104 0,0.956 z m 0,1.763 0,-0.72 -0.187,-0.307 0.187,-0.104 0,-0.546 -0.854,0.48 0.496,0.854 -0.478,0.273 -0.496,-0.855 -0.085,0.051 0,0.755 0.408,0.699 0.411,-0.24 0.496,-0.273 0.102,-0.067 z m 0,3.743 0,-0.547 -0.648,0.359 C 4.668,16.309 4.479,16.275 4.377,16.088 l -0.29,-0.496 0,0.92 0.017,-0.016 c 0.273,0.241 0.682,0.291 0.991,0.121 l 0.409,-0.222 z m 0,-4.463 0,0.72 L 5.813,12.48 5.572,12.068 5.504,11.932 z m 0,-1.999 0.701,1.196 -0.701,0.392 0,-0.546 0.035,-0.018 -0.035,-0.068 0,-0.956 z m 0,-13.336 c 0.257,0.462 0.276,1.044 0,1.54 l 0,-1.54 z m 1.18,0.31 0,-1.251 C 6.429,-4.719 6.07,-5.045 5.642,-5.282 5.591,-5.316 5.559,-5.334 5.504,-5.369 l 0,0.549 c 0.633,0.39 1.043,1.023 1.18,1.727 m 0,2.169 0,-1.229 c -0.067,0.27 -0.153,0.546 -0.308,0.819 -0.223,0.359 -0.527,0.666 -0.872,0.871 l 0,0.547 c 0.462,-0.223 0.872,-0.563 1.18,-1.008 m 0,2.41 0,-0.545 -1.18,-0.668 0,0.547 1.18,0.666 z m 0,1.727 0,-0.564 L 5.504,2 l 0,0.546 1.18,0.667 z m 0,5.658 -0.767,-1.279 -0.413,0.238 0,-0.632 0.617,-0.341 0.563,0.92 0,1.094 z m 0,2 0,-0.953 -0.101,-0.156 0.101,-0.052 0,-0.631 -0.377,0.204 -0.803,-1.367 0,0.955 1.18,2 z m 0,4.857 0,-0.546 -1.18,0.666 0,0.547 1.18,-0.667 z m 1.607,-6.496 -0.77,0 -0.837,0.478 0,-0.631 0.087,-0.052 -0.087,-0.156 0,-1.094 0.394,0.685 0,-5.026 -0.394,-0.223 0,-0.564 0.394,0.24 0,-1.182 -0.394,-0.221 0,-0.545 0.394,0.221 0,-2.922 C 7.01,-1.54 6.907,-1.315 6.786,-1.111 6.752,-1.043 6.72,-0.994 6.684,-0.924 l 0,-1.229 C 6.72,-2.377 6.736,-2.598 6.72,-2.822 6.702,-2.905 6.702,-3.01 6.684,-3.093 l 0,-1.251 c 0.223,0.326 0.377,0.685 0.445,1.061 0.155,-1.3 0.548,-2.512 1.162,-3.608 l 0,1.078 C 7.83,-4.719 7.573,-3.54 7.557,-2.291 l -0.376,0 0.376,0 0,11.045 0.734,0 0,0.478 z m 0,4.376 0,-0.956 -0.103,-0.172 0.103,-0.07 0,-0.547 -0.343,0.19 -0.802,-1.35 0.46,-0.258 0.685,1.18 0,-1.18 -0.016,0.034 -0.462,-0.786 -0.015,0 -0.943,0.533 -0.171,-0.308 0,0.953 1.607,2.737 z m 0,1.197 0,-0.547 -1.607,0.924 0,0.546 1.607,-0.923 z m 0.256,-21.148 0,-0.973 c -0.086,0.135 -0.171,0.289 -0.256,0.425 l 0,1.078 c 0.085,-0.171 0.17,-0.342 0.256,-0.53 m 0,15.097 -0.256,0 0,0.479 0.256,0 0,-0.479 z m 0,3.504 0,-1.301 -0.015,-0.051 0.015,-0.035 0,-0.717 c -0.086,0.102 -0.171,0.19 -0.256,0.291 l 0,1.18 0.121,0.171 -0.121,0.067 0,0.547 0.256,-0.152 z m 0,1.796 0,-0.958 -0.256,-0.444 0,0.956 0.256,0.446 z m 0,0.616 0,-0.551 -0.256,0.139 0,0.547 0.256,-0.135 z m 0.498,-21.868 0,-0.839 c -0.172,0.24 -0.344,0.48 -0.498,0.721 l 0,0.973 c 0.154,-0.29 0.326,-0.581 0.498,-0.855 m 0,15.952 -0.498,0 0,0.479 0.498,0 0,-0.479 z m 0,1.59 0,-0.666 C 8.873,9.829 8.721,10.002 8.547,10.154 l 0,0.717 c 0.154,-0.186 0.326,-0.357 0.498,-0.527 m 0,1.64 0,-0.546 -0.155,0.083 -0.343,-0.564 0,1.301 0.498,-0.274 z m 0,2.409 0,-0.458 -0.103,-0.173 0.103,-0.049 0,-0.549 -0.344,0.188 -0.154,-0.256 0,0.958 0.032,0.05 -0.032,0.015 0,0.551 0.498,-0.277 z m 0,-0.458 0.205,0.34 -0.205,0.118 0,-0.458 z m 1.693,-23.098 0,-0.616 c -0.634,0.512 -1.199,1.095 -1.693,1.742 l 0,0.839 c 0.476,-0.717 1.041,-1.384 1.693,-1.965 m 0,12.53 0,-8.428 -1.676,0.973 0,8.414 1.676,-0.959 z m 0,5.865 0,-0.478 -1.693,0 0,0.478 0.529,0 C 9.386,9.369 9.215,9.523 9.045,9.678 l 0,0.666 C 9.455,9.933 9.899,9.557 10.361,9.232 l 0.377,0 z m 0,1.796 0,-0.549 -1.693,0.959 0,0.546 1.693,-0.956 z m 0,7.179 0,-1.161 C 10.721,17.01 10.703,16.978 10.703,16.939 l 0.035,0 0,-0.491 -0.243,0 c -0.134,-0.327 -0.238,-0.649 -0.356,-0.993 0.203,-0.101 0.391,-0.189 0.599,-0.273 l 0,-0.548 C 10.479,14.736 10.24,14.84 10.002,14.96 9.881,14.48 9.779,14 9.693,13.521 l 1.045,0 0,-0.494 -0.481,0 0.481,-0.274 0,-0.548 -1.693,0.959 0,0.549 0.152,-0.088 c 0.275,1.59 0.805,3.146 1.541,4.582 m 3.759,-29.406 0,-0.494 c -1.403,0.375 -2.667,1.025 -3.759,1.914 l 0,0.616 c 1.059,-0.941 2.339,-1.642 3.759,-2.036 m 0,12.412 -3.759,2.154 0,-8.428 3.759,-2.137 0,8.411 z m 0,5.197 0,-4.445 -1.831,1.045 0,4.442 1.831,-1.042 z m 0,2.822 -0.564,0 -3.195,1.796 0,-0.549 2.22,-1.247 -2.22,0 0,-0.478 3.759,0 0,0.478 z m 0,4.289 0,-0.494 -1.042,0 c -0.036,-0.582 -0.205,-1.095 -0.48,-1.539 l 1.522,-0.855 0,-0.547 -3.759,2.119 0,0.548 1.826,-1.026 c 0.223,0.377 0.362,0.806 0.411,1.3 l -2.237,0 0,0.494 3.759,0 z m 0,1.13 0,-0.495 c -0.308,-0.037 -0.615,-0.052 -0.922,-0.052 -0.959,0 -1.95,0.187 -2.837,0.53 l 0,0.548 c 0.887,-0.377 1.878,-0.582 2.837,-0.582 0.307,0 0.614,0.017 0.922,0.051 m 0,1.797 -3.759,0 0,0.491 3.759,0 0,-0.491 z m 0,6.598 0,-0.702 c -0.222,-0.204 -0.427,-0.41 -0.633,-0.631 0.189,-0.154 0.411,-0.293 0.633,-0.377 l 0,-0.531 c -0.359,0.119 -0.684,0.292 -0.976,0.549 -0.254,-0.291 -0.511,-0.582 -0.751,-0.887 l 1.727,0 0,-0.5 -2.087,0 c -0.34,-0.477 -0.665,-0.974 -0.956,-1.485 0.956,-0.497 2.001,-0.72 3.043,-0.633 l 0,-0.495 c -1.128,-0.089 -2.257,0.151 -3.263,0.716 -0.171,-0.341 -0.345,-0.666 -0.496,-1.024 l 0,1.161 c 0.939,1.814 2.22,3.453 3.759,4.839 m 2.103,-34.603 0,-0.477 c -0.718,0.032 -1.437,0.151 -2.103,0.341 l 0,0.494 c 0.666,-0.186 1.385,-0.307 2.103,-0.358 m 0,11.575 -2.103,1.195 0,-8.411 2.103,-1.213 0,8.429 z m 0,5.179 0,-4.462 -2.103,1.23 0,4.445 2.103,-1.213 z m 0,6.324 0,-1.384 C 16.514,9.967 16.412,9.775 16.309,9.607 l 0.291,-0.17 0,-0.683 -2.103,0 0,0.478 1.506,0 -1.506,0.854 0,0.547 1.35,-0.77 c 0.327,0.532 0.583,1.078 0.753,1.658 m 0,1.506 -2.103,0 0,0.494 2.103,0 0,-0.494 z m 0,2.203 0,-0.545 C 15.934,14.41 15.214,14.24 14.497,14.156 l 0,0.495 c 0.717,0.105 1.437,0.29 2.103,0.579 m 0,1.218 -2.103,0 0,0.491 2.103,0 0,-0.491 z m 0,1.947 0,-0.53 c -0.684,-0.292 -1.386,-0.48 -2.103,-0.511 l 0,0.495 c 0.717,0.051 1.437,0.221 2.103,0.546 m 0,1.572 -2.103,0 0,0.5 2.103,0 0,-0.5 z m 0,1.574 0,-0.563 C 15.95,20.65 15.183,20.584 14.497,20.805 l 0,0.531 c 0.686,-0.273 1.47,-0.205 2.103,0.205 m 0,7.336 0,-0.481 0,-1.505 -0.496,0 -1.06,0 0,-1.026 1.556,0 0,-1.483 0,-0.483 -0.223,0 c -0.667,-0.477 -1.3,-0.992 -1.88,-1.555 l 0,0.702 c 0.514,0.444 1.045,0.888 1.607,1.282 l 0,1.062 -1.248,0 -0.308,0 0,1.979 0.496,0 1.06,-0.015 0,1.042 0,0.481 0.496,0 z m 0,-28.142 0,4.462 0.205,-0.103 0,-4.464 -0.205,0.105 z m 0,-9.146 0,8.429 0.225,-0.139 0,-8.41 -0.225,0.12 z m 1.113,-3.146 0,-0.477 c -0.191,0 -0.379,-0.019 -0.565,-0.019 -0.189,0 -0.36,0.019 -0.548,0.019 l 0,0.477 c 0.188,0 0.359,-0.015 0.548,-0.015 0.186,0 0.374,0.015 0.565,0.015 m 0,11.575 0,-8.429 -0.226,-0.12 0,8.41 0.226,0.139 z m 0,5.197 0,-4.463 -0.226,-0.122 0,4.464 0.226,0.121 z m 0,4.222 0,-0.683 -1.113,0 0,0.683 0.377,-0.205 0.374,0 0.362,0.205 z m 0,4.084 0,-0.494 -0.291,0 c 0.032,-0.513 0.134,-1.025 0.291,-1.506 l 0,-1.367 c -0.242,0.479 -0.414,0.992 -0.55,1.505 C 17.027,11.146 16.84,10.633 16.6,10.137 l 0,1.384 c 0.153,0.481 0.256,0.993 0.29,1.506 l -0.29,0 0,0.494 1.113,0 z m 0,1.676 0,-0.546 c -0.208,0.085 -0.396,0.17 -0.582,0.257 C 16.959,14.84 16.788,14.756 16.6,14.685 l 0,0.545 c 0.188,0.071 0.359,0.157 0.531,0.257 0.186,-0.1 0.374,-0.202 0.582,-0.29 m 0,1.251 -1.113,0 0,0.491 1.113,0 0,-0.491 z m 0,1.913 0,-0.512 c -0.208,0.085 -0.396,0.188 -0.582,0.29 C 16.959,18.037 16.788,17.95 16.6,17.865 l 0,0.53 c 0.188,0.087 0.359,0.171 0.531,0.273 0.186,-0.102 0.374,-0.203 0.582,-0.307 m 0,1.606 -1.113,0 0,0.5 1.113,0 0,-0.5 z m 0,1.541 0,-0.569 c -0.226,0.104 -0.396,0.241 -0.582,0.397 -0.172,-0.137 -0.343,-0.257 -0.531,-0.358 l 0,0.563 c 0.188,0.139 0.377,0.291 0.531,0.479 0.168,-0.205 0.356,-0.375 0.582,-0.512 m 0,4.357 0,-1.966 -1.113,0 0,0.483 1.044,0 0,1.483 0.069,0 z m 0,3.012 0,-1.986 -0.069,0 0,1.505 -1.044,0 0,0.481 1.113,0 z m 2.102,-40.076 0,-0.494 c -0.684,-0.19 -1.385,-0.291 -2.102,-0.341 l 0,0.477 c 0.717,0.051 1.436,0.172 2.102,0.358 m 0,12.412 -2.102,-1.195 0,-8.429 2.102,1.213 0,8.411 z m 0,5.215 0,-4.463 -2.102,-1.213 0,4.463 2.102,1.213 z m 0,4.205 0,-0.547 -1.504,-0.854 1.504,0 0,-0.478 -2.102,0 0,0.683 0.289,0.17 c -0.104,0.168 -0.205,0.36 -0.289,0.547 l 0,1.367 c 0.17,-0.58 0.424,-1.126 0.749,-1.658 l 1.353,0.77 z m 0,2.394 -2.103,0 0,0.494 2.103,0 0,-0.494 z m 0,1.624 0,-0.495 c -0.717,0.067 -1.439,0.237 -2.102,0.495 l 0,0.546 c 0.663,-0.272 1.385,-0.461 2.102,-0.546 m 0,1.797 -2.103,0 0,0.491 2.103,0 0,-0.491 z m 0,1.384 0,-0.499 c -0.717,0.052 -1.419,0.226 -2.102,0.516 l 0,0.512 c 0.663,-0.308 1.385,-0.479 2.102,-0.529 m 0,2.135 -2.103,0 0,0.5 2.103,0 0,-0.5 z m 0,1.404 0,-0.532 c -0.684,-0.255 -1.454,-0.205 -2.102,0.1 l 0,0.569 c 0.629,-0.397 1.418,-0.445 2.102,-0.137 m 0,1.607 0,-0.703 c -0.616,0.581 -1.265,1.127 -1.949,1.624 l -0.153,0 0,1.966 1.486,0 0,1.026 -1.079,0 -0.407,0 0,1.986 0.407,0 0,-0.481 0,-1.042 1.079,0.015 0.478,0 0,-1.979 -0.309,0 -1.248,0 0,-1.062 c 0.601,-0.429 1.163,-0.871 1.695,-1.35 m 0,-21.013 1.811,1.045 0,4.442 -1.811,-1.024 0,-4.463 z m 3.742,-11.113 0,-0.631 c -1.076,-0.873 -2.359,-1.539 -3.742,-1.914 l 0,0.494 c 1.402,0.413 2.682,1.111 3.742,2.051 m 0,12.497 0,-8.41 -3.742,-2.137 0,8.411 3.742,2.136 z m 0,7.679 -3.178,-1.796 -0.564,0 0,-0.478 3.742,0 0,0.478 -2.204,0 2.204,1.247 0,0.549 z m 0,2.493 0,-0.494 -2.22,0 c 0.049,-0.494 0.185,-0.923 0.408,-1.3 l 1.812,1.009 0,-0.547 -3.742,-2.103 0,0.547 1.522,0.855 c -0.275,0.444 -0.447,0.957 -0.498,1.539 l -1.024,0 0,0.494 3.742,0 z m 0,1.676 0,-0.546 c -0.905,-0.342 -1.914,-0.547 -2.888,-0.547 -0.273,0 -0.566,0.015 -0.854,0.052 l 0,0.495 c 0.288,-0.034 0.581,-0.051 0.854,-0.051 0.974,0 1.983,0.221 2.888,0.597 m 0,2.89 0,-1.639 -3.742,0 0,0.491 3.725,0 c -0.171,0.394 -0.341,0.754 -0.529,1.131 -1.009,-0.547 -2.103,-0.784 -3.196,-0.737 l 0,0.499 c 1.006,-0.054 2.035,0.153 2.956,0.65 -0.29,0.529 -0.616,1.026 -0.958,1.502 l 0,-0.017 -1.998,0 0,0.5 1.639,0 c -0.237,0.305 -0.477,0.596 -0.751,0.887 -0.256,-0.243 -0.563,-0.415 -0.888,-0.515 l 0,0.532 c 0.203,0.084 0.392,0.202 0.564,0.342 -0.189,0.185 -0.377,0.376 -0.564,0.562 l 0,0.703 c 1.538,-1.405 2.803,-3.06 3.742,-4.891 m 0,-23.148 0,8.41 1.694,0.977 0,-8.414 -1.694,-0.973 z m 2.189,-1.267 0,-0.972 c -0.595,-0.941 -1.334,-1.782 -2.189,-2.479 l 0,0.631 c 0.89,0.789 1.642,1.763 2.189,2.82 m 0,17.269 0,-0.715 C 25.405,9.863 25.045,9.541 24.67,9.232 l 1.076,0 0,-0.478 -2.189,0 0,0.478 0.308,0 c 0.702,0.497 1.334,1.058 1.881,1.709 m 0,1.317 -2.189,-1.23 0,-0.549 1.865,1.042 0.324,-0.531 0,1.268 z m 0,2.393 0,-0.547 -0.017,0 0.017,-0.034 0,-0.957 -0.137,0.239 -2.052,-1.163 0,0.547 0.498,0.291 -0.498,0 0,0.494 0.992,0 C 24.463,14 24.362,14.48 24.224,14.941 24.021,14.84 23.78,14.736 23.557,14.651 l 0,0.546 c 0.172,0.069 0.362,0.157 0.531,0.241 -0.103,0.341 -0.223,0.683 -0.343,1.01 l -0.188,0 0,1.639 c 0.718,-1.419 1.232,-2.94 1.488,-4.497 l 0.309,0.172 -0.291,0.513 0.683,0.376 z m 0.274,-20.395 0,-1.078 C 25.934,-6.992 25.831,-7.148 25.746,-7.3 l 0,0.972 c 0.085,0.207 0.188,0.396 0.274,0.584 m 0,14.498 -0.273,0 0,0.479 0.273,0 0,-0.479 z m 0,3.656 0,-0.547 -0.121,-0.067 0.121,-0.171 0,-1.094 c -0.101,-0.104 -0.189,-0.204 -0.274,-0.305 l 0,0.715 0,0.016 0,0.033 0,1.268 0.274,0.152 z m 0,1.198 0,-0.956 -0.274,0.461 0,0.957 0.274,-0.462 z m 0,1.197 0,-0.547 -0.274,-0.154 0,0.547 0.274,0.154 z m 1.607,-5.095 -0.855,-0.478 -0.752,0 0,-0.478 0.702,0 0,-11.045 0.389,0 -0.389,0 C 26.705,-3.508 26.463,-4.666 26.02,-5.744 l 0,-1.078 c 0.599,1.093 1.009,2.326 1.129,3.64 0.085,-0.409 0.239,-0.802 0.478,-1.162 l 0,1.251 c -0.019,0.083 -0.019,0.188 -0.032,0.271 -0.02,0.224 0,0.445 0.032,0.669 l 0,1.229 c -0.032,-0.07 -0.07,-0.119 -0.103,-0.187 -0.153,-0.239 -0.256,-0.496 -0.323,-0.752 l 0,3.043 0.426,-0.239 0,0.545 -0.426,0.239 0,1.181 0.426,-0.257 0,0.548 -0.426,0.255 0,5.062 0.426,-0.737 0,1.094 -0.086,0.156 0.086,0.052 0,0.631 z m 0,1.161 0,-0.953 -0.17,0.308 -0.958,-0.533 -0.479,0.838 0,1.094 0.685,-1.18 0.46,0.258 -0.802,1.35 -0.343,-0.19 0,0.547 0.103,0.07 -0.103,0.172 0,0.956 1.607,-2.737 z m 0,4.857 0,-0.546 -1.607,-0.924 0,0.547 1.607,0.923 z m 1.179,-20.548 0,-0.549 c -0.05,0.035 -0.083,0.053 -0.135,0.087 -0.427,0.237 -0.787,0.563 -1.044,0.938 l 0,1.251 c 0.137,-0.704 0.548,-1.337 1.179,-1.727 m 0,2.957 c -0.274,-0.496 -0.255,-1.078 0,-1.54 l 0,1.54 z m 0,1.947 0,-0.547 c -0.34,-0.205 -0.649,-0.512 -0.872,-0.871 -0.153,-0.273 -0.255,-0.549 -0.307,-0.819 l 0,1.229 c 0.307,0.445 0.717,0.785 1.179,1.008 m 0,0.736 0,-0.547 -1.179,0.668 0,0.545 1.179,-0.666 z m 0,1.726 0,-0.546 -1.179,0.649 0,0.548 1.179,-0.651 z m 0,5.284 0,-0.632 -0.615,-0.341 -0.564,0.92 0,1.094 0.768,-1.279 0.411,0.238 z m 0,1.041 -1.179,2 0,-0.953 0.102,-0.156 -0.102,-0.052 0,-0.631 0.375,0.204 0.804,-1.367 0,0.955 z m 0,2.65 0,-0.546 -0.035,-0.018 0.035,-0.068 0,-0.956 -0.699,1.196 0.699,0.392 z m 0,1.131 0,-0.72 -0.067,0.136 -0.241,0.412 0.308,0.172 z m 0,3.743 0,-0.547 -1.179,-0.666 0,0.546 1.179,0.667 z m 1.421,-21.609 0,-0.48 c -0.48,0 -0.958,0.102 -1.421,0.325 l 0,0.549 c 0.036,-0.018 0.069,-0.034 0.102,-0.053 0.411,-0.239 0.873,-0.359 1.319,-0.341 m 0,4.171 0,-0.514 c -0.377,0 -0.753,-0.187 -0.958,-0.528 -0.308,-0.532 -0.12,-1.198 0.41,-1.506 0.171,-0.085 0.359,-0.136 0.548,-0.136 l 0,-0.494 c -0.275,0 -0.548,0.065 -0.804,0.203 -0.274,0.156 -0.479,0.359 -0.617,0.615 l 0,1.54 0.018,0.015 c 0.308,0.514 0.838,0.805 1.403,0.805 m 0,1.061 0,-0.071 c -0.498,0 -0.992,-0.135 -1.421,-0.41 l 0,0.547 c 0.069,0.035 0.12,0.07 0.187,0.086 l -0.187,0.103 0,0.547 0.668,-0.375 0.153,-0.086 0.6,-0.341 z m 0,3.434 0,-2.257 L 30.14,1.248 28.806,2 l 0,0.546 1.18,-0.669 c -0.048,0.515 0.017,1.064 0.241,1.575 m 0,3.009 -1.421,2.41 0,-0.955 0.036,-0.069 -0.036,-0.017 0,-0.632 0.326,0.187 1.095,-1.882 0,0.958 z m 0,0.769 0,-0.271 -0.121,0.203 0.121,0.068 z m 0,3.249 -0.054,0.085 -0.235,0.411 -0.892,-0.496 -0.24,0.41 0,-0.956 0.069,-0.104 0.89,0.498 0.462,-0.786 0,0.938 z m 0,2.054 0,-0.755 -0.087,-0.051 -0.495,0.855 -0.496,-0.273 0.513,-0.854 -0.856,-0.48 0,0.546 0.187,0.104 -0.187,0.307 0,0.72 0.102,0.067 0.497,0.273 0.409,0.24 0.413,-0.699 z m 0,3.979 0,-0.92 -0.289,0.496 c -0.124,0.187 -0.293,0.221 -0.481,0.119 l -0.651,-0.359 0,0.547 0.413,0.222 c 0.306,0.17 0.719,0.12 0.989,-0.121 l 0.019,0.016 z m 0,-16.565 0,0.071 0.135,-0.071 -0.135,0 z m 0,-4.168 0,0.494 c 0.391,0 0.767,0.187 0.974,0.545 0.307,0.516 0.119,1.182 -0.412,1.491 -0.171,0.1 -0.377,0.134 -0.562,0.134 l 0,0.514 c 0.289,0 0.562,-0.068 0.82,-0.223 0.768,-0.425 1.042,-1.4 0.598,-2.172 -0.31,-0.513 -0.856,-0.783 -1.418,-0.783 m 1.657,-0.445 0,-0.566 c -0.497,-0.309 -1.078,-0.462 -1.657,-0.462 l 0,0.48 c 0.598,0 1.176,0.189 1.657,0.548 m 0,7.93 C 31.815,3.197 31.746,3.112 31.695,3.026 31.335,2.409 31.438,1.675 31.884,1.18 l 0,2.084 z m 0,1.78 0,-0.53 C 31.438,4.29 31.063,3.949 30.806,3.521 30.294,2.649 30.362,1.607 30.876,0.82 l -0.649,0.375 0,2.257 c 0.05,0.104 0.1,0.206 0.169,0.31 0.344,0.596 0.871,1.023 1.488,1.282 m 0,1.794 -0.138,-0.067 -0.578,0.989 -0.941,-0.53 0,-0.271 0.461,-0.787 -0.208,-0.121 -0.253,0.41 0,-0.958 0.067,-0.102 1.06,0.599 -0.582,0.975 0.222,0.119 0.582,-0.973 0.308,0.17 0,0.547 z m 0,1.316 0,-1.111 -0.497,0.838 0.497,0.273 z m 0,3.59 -0.154,0.258 -0.496,0.837 -0.033,0.034 -0.888,-0.494 -0.086,0.154 0,-0.755 0.802,0.445 0.274,-0.462 -0.891,-0.513 1.182,-1.965 -0.496,-0.275 -0.871,1.471 0,-0.938 0.461,-0.772 0.24,-0.41 0.407,0.24 0.549,0.291 0,0.853 -0.803,1.335 0.803,0.443 0,0.223 z m 0,5.695 0,-0.548 -1.404,-0.787 0.514,-0.874 0.89,0.498 0,-0.94 -0.171,0.29 -0.479,-0.257 0.65,-1.075 0,-0.942 -1.657,2.788 0,0.92 1.657,0.927 z m 0,-5.918 0.088,0.071 -0.088,0.152 0,-0.223 z m 0,-2.631 0,0.853 0.36,-0.632 -0.36,-0.221 z m 1.215,-12.788 0,-0.532 c -0.087,0.035 -0.17,0.086 -0.24,0.119 -0.255,-0.392 -0.599,-0.697 -0.975,-0.921 l 0,0.566 c 0.24,0.203 0.462,0.445 0.632,0.732 0.067,0.104 0.122,0.207 0.153,0.309 0.105,-0.087 0.206,-0.152 0.309,-0.205 0.051,-0.032 0.087,-0.051 0.121,-0.068 m 0,3.368 0,-2.136 c -0.461,0.494 -0.566,1.248 -0.207,1.86 0.068,0.105 0.137,0.191 0.207,0.276 m 0,4.343 0,-0.495 c -0.376,0 -0.753,-0.206 -0.958,-0.548 -0.306,-0.514 -0.137,-1.199 0.408,-1.49 0.174,-0.1 0.36,-0.153 0.55,-0.153 l 0,-0.497 c -0.275,0 -0.55,0.07 -0.804,0.206 -0.171,0.105 -0.309,0.207 -0.411,0.344 l 0,2.084 c 0.308,0.36 0.754,0.549 1.215,0.549 m 0,1.47 0,-0.48 c -0.43,0 -0.839,-0.104 -1.215,-0.289 l 0,0.53 c 0.376,0.153 0.804,0.239 1.215,0.239 m 0,2.255 -0.087,-0.05 -0.563,0.991 -0.565,-0.325 0,-1.111 0.088,-0.153 -0.088,-0.052 0,-0.547 0.754,0.426 -0.582,0.976 0.204,0.137 0.583,-0.992 0.256,0.152 0,0.548 z m 0,1.301 0,-0.992 -0.445,0.752 0.445,0.24 z m 0,7.571 0,-0.546 -0.907,-0.51 0.907,-1.541 0,-0.394 -0.31,-0.171 -0.46,-0.271 0.275,-0.463 0.495,0.29 0,-0.632 -0.224,-0.136 0.224,-0.36 0,-0.958 -1.215,2.086 0,0.942 0.153,-0.293 0.479,0.26 -0.632,1.075 0,0.94 1.215,0.682 z m 0,1.711 0,-0.529 -1.215,-0.701 0,0.548 1.094,0.631 c 0.034,0.017 0.087,0.035 0.121,0.051 m 0,-4.702 0,0.394 0.171,-0.292 -0.171,-0.102 z m 1.214,-17.608 0,-0.461 c -0.412,0 -0.821,0.067 -1.214,0.22 l 0,0.532 c 0.393,-0.19 0.802,-0.291 1.214,-0.291 m 0,4.189 0,-0.514 c -0.395,0 -0.769,-0.187 -0.976,-0.549 -0.308,-0.51 -0.118,-1.177 0.41,-1.485 0.171,-0.085 0.378,-0.138 0.566,-0.138 l 0,-0.496 c -0.275,0 -0.566,0.071 -0.821,0.207 -0.155,0.087 -0.273,0.188 -0.393,0.309 l 0,2.136 c 0.306,0.342 0.751,0.513 1.214,0.53 m 0,3.283 0,-2.121 C 34.004,0.82 33.561,0.63 33.099,0.63 l 0,0.497 c 0.393,0 0.769,0.205 0.974,0.548 0.307,0.53 0.12,1.198 -0.41,1.487 -0.171,0.102 -0.379,0.156 -0.564,0.156 l 0,0.495 c 0.273,0 0.564,-0.07 0.819,-0.206 0.155,-0.086 0.275,-0.205 0.395,-0.324 m 0,1.761 0,-0.515 C 33.918,4.717 33.51,4.803 33.099,4.803 l 0,0.48 c 0.411,0 0.819,-0.068 1.214,-0.239 m 0,3.179 -0.017,0 -0.585,0.976 -0.612,-0.36 0,-0.992 0.139,-0.24 -0.139,-0.069 0,-0.548 0.802,0.446 -0.581,0.974 0.224,0.139 0.581,-0.993 0.188,0.12 0,0.547 z m 0,3.538 0,-1.452 -0.309,-0.172 0.309,-0.512 0,-0.939 -1.214,2.032 0,0.958 0.631,-1.06 0.463,0.255 -0.856,1.438 -0.238,-0.137 0,0.632 0.445,0.258 0,-0.019 0.769,-1.282 z m 0,6.001 0,-1.112 c -0.084,-0.12 -0.188,-0.22 -0.327,-0.291 l -0.887,-0.495 0,0.546 0.597,0.346 c 0.255,0.135 0.342,0.443 0.205,0.699 l 0,-0.016 c -0.154,0.254 -0.478,0.339 -0.717,0.186 l -0.085,-0.033 0,0.529 c 0.445,0.172 0.939,0.035 1.214,-0.359 m 0,-1.112 0,1.112 c 0.015,-0.02 0.034,-0.033 0.034,-0.051 0.204,-0.342 0.17,-0.751 -0.034,-1.061 m 0,-6.341 0,1.452 0.648,-1.093 -0.648,-0.359 z m 0,-2.633 0,0.547 0.204,0.119 -0.204,0.344 0,0.939 0.87,-1.471 -0.87,-0.478 z m 0,-6.514 c 0.067,0.067 0.135,0.17 0.204,0.273 0.359,0.6 0.255,1.351 -0.204,1.848 l 0,-2.121 z m 0,-4.344 c 0.563,0 1.109,0.277 1.402,0.789 0.444,0.75 0.186,1.742 -0.6,2.17 C 34.86,-0.07 34.585,0 34.313,0 l 0,-0.514 c 0.189,0 0.375,-0.036 0.547,-0.137 0.546,-0.308 0.718,-0.975 0.41,-1.488 -0.206,-0.358 -0.582,-0.547 -0.957,-0.547 l 0,-0.496 z m 3.128,1.713 0,-0.275 C 37.407,-2.205 37.269,-2.686 37.013,-3.131 36.449,-4.104 35.39,-4.65 34.313,-4.65 l 0,0.461 c 0.904,0.017 1.794,0.477 2.291,1.301 0.715,1.23 0.291,2.818 -0.977,3.537 -0.102,0.051 -0.205,0.103 -0.322,0.155 0.015,0.016 0.033,0.05 0.051,0.068 l 0,0.015 0.017,0 0,0.017 0.017,0.018 c 0.734,1.248 0.291,2.821 -0.976,3.539 -0.034,0.018 -0.067,0.053 -0.101,0.068 l 0,0.515 c 0.119,-0.052 0.238,-0.105 0.357,-0.172 1.385,-0.786 1.934,-2.463 1.298,-3.88 0.907,-0.547 1.422,-1.489 1.473,-2.461"
             style="fill:#ad3847;fill-opacity:1;fill-rule:evenodd;stroke:none"
             id="path52"
             inkscape:connector-curvature="0" /></g><g
           id="g54"
           transform="translate(68.1606,144.8662)"><path
             d="m 0,0 0.103,-0.224 c -0.172,-0.085 -0.309,-0.19 -0.361,-0.307 -0.068,-0.138 -0.068,-0.274 0,-0.41 0.069,-0.153 0.172,-0.257 0.309,-0.309 0.136,-0.053 0.272,-0.053 0.444,0.018 0.068,0.034 0.137,0.086 0.171,0.138 0.053,0.049 0.087,0.1 0.103,0.188 0.016,0.068 0.035,0.187 0.016,0.357 l 0,0.172 C 0.769,-0.139 0.804,0.033 0.873,0.172 0.957,0.306 1.077,0.41 1.248,0.477 1.437,0.563 1.623,0.579 1.812,0.494 2,0.425 2.136,0.306 2.224,0.119 2.307,-0.088 2.323,-0.274 2.256,-0.429 2.188,-0.601 2.068,-0.719 1.863,-0.805 L 1.845,-0.822 1.76,-0.617 C 1.896,-0.549 2,-0.445 2.035,-0.342 2.087,-0.238 2.087,-0.121 2.017,0.016 1.967,0.137 1.863,0.237 1.742,0.273 1.606,0.324 1.47,0.324 1.333,0.254 1.28,0.237 1.23,0.205 1.178,0.152 1.128,0.119 1.091,0.065 1.077,0.016 1.025,-0.068 1.009,-0.238 1.025,-0.464 l 0,-0.1 C 1.041,-0.805 1.009,-0.994 0.94,-1.131 0.873,-1.25 0.753,-1.368 0.58,-1.439 0.356,-1.54 0.153,-1.54 -0.018,-1.472 c -0.188,0.069 -0.341,0.205 -0.443,0.427 -0.089,0.223 -0.103,0.412 -0.018,0.6 C -0.408,-0.274 -0.24,-0.121 0,0"
             style="fill:#ad3847;fill-opacity:1;fill-rule:nonzero;stroke:none"
             id="path56"
             inkscape:connector-curvature="0" /></g><g
           id="g58"
           transform="translate(70.0054,141.6689)"><path
             d="m 0,0 c -0.29,-0.137 -0.546,-0.207 -0.768,-0.172 -0.204,0.035 -0.377,0.152 -0.497,0.342 -0.136,0.256 -0.136,0.479 0,0.719 0.139,0.22 0.412,0.461 0.857,0.701 C 0.019,1.846 0.379,1.965 0.633,1.965 0.906,1.982 1.113,1.863 1.265,1.622 1.385,1.417 1.403,1.213 1.351,1.025 1.284,0.838 1.13,0.666 0.906,0.528 L 0.77,0.732 C 0.958,0.854 1.062,0.973 1.113,1.109 1.162,1.246 1.162,1.367 1.079,1.504 0.975,1.674 0.821,1.758 0.6,1.726 0.379,1.709 0.068,1.605 -0.29,1.385 -0.667,1.18 -0.904,0.99 -1.024,0.801 -1.162,0.631 -1.179,0.461 -1.076,0.287 c 0.085,-0.135 0.204,-0.221 0.377,-0.236 0.171,0 0.358,0.033 0.58,0.151 L 0,0 z"
             style="fill:#ad3847;fill-opacity:1;fill-rule:nonzero;stroke:none"
             id="path60"
             inkscape:connector-curvature="0" /></g><g
           id="g62"
           transform="translate(69.5972,140.626)"><path
             d="M 0,0 2.305,1.59 2.444,1.4 0.135,-0.186 0,0 z"
             style="fill:#ad3847;fill-opacity:1;fill-rule:nonzero;stroke:none"
             id="path64"
             inkscape:connector-curvature="0" /></g><g
           id="g66"
           transform="translate(70.1772,139.8369)"><path
             d="M 0,0 2.154,1.762 2.991,0.789 2.82,0.652 2.154,1.438 1.384,0.805 1.966,0.104 1.812,-0.033 1.213,0.669 0.341,-0.051 1.01,-0.818 0.838,-0.955 0,0 z"
             style="fill:#ad3847;fill-opacity:1;fill-rule:nonzero;stroke:none"
             id="path68"
             inkscape:connector-curvature="0" /></g><g
           id="g70"
           transform="translate(71.5093,138.3506)"><path
             d="M 0,0 1.898,2.018 2.084,1.848 1.234,-0.633 2.873,1.146 3.044,0.992 1.166,-1.025 0.959,-0.855 1.78,1.59 0.173,-0.152 0,0 z"
             style="fill:#ad3847;fill-opacity:1;fill-rule:nonzero;stroke:none"
             id="path72"
             inkscape:connector-curvature="0" /></g><g
           id="g74"
           transform="translate(73.7153,136.5889)"><path
             d="M 0,0 1.42,2.086 0.888,2.445 1.027,2.617 2.293,1.796 2.153,1.609 1.624,1.967 0.188,-0.135 0,0 z"
             style="fill:#ad3847;fill-opacity:1;fill-rule:nonzero;stroke:none"
             id="path76"
             inkscape:connector-curvature="0" /></g><g
           id="g78"
           transform="translate(74.9634,135.8389)"><path
             d="M 0,0 1.3,2.428 1.505,2.324 0.205,-0.104 0,0 z"
             style="fill:#ad3847;fill-opacity:1;fill-rule:nonzero;stroke:none"
             id="path80"
             inkscape:connector-curvature="0" /></g><g
           id="g82"
           transform="translate(76.5718,136.2656)"><path
             d="m 0,0 0.426,-0.155 0,-0.221 -0.546,0.205 -0.53,-0.719 -0.204,0.069 1.28,1.728 0,-0.327 L 0,0 z M 0.426,-0.155 0.7,-0.257 0.853,1.145 0.426,0.58 l 0,0.327 0.427,0.564 0.255,-0.087 -0.306,-2.838 -0.221,0.084 0.085,0.891 -0.24,0.103 0,0.221 z"
             style="fill:#ad3847;fill-opacity:1;fill-rule:nonzero;stroke:none"
             id="path84"
             inkscape:connector-curvature="0" /></g><g
           id="g86"
           transform="translate(78.146,134.9834)"><path
             d="M 0,0 0.219,-0.053 -0.311,-0.839 -0.516,-0.785 0,0 z"
             style="fill:#ad3847;fill-opacity:1;fill-rule:nonzero;stroke:none"
             id="path88"
             inkscape:connector-curvature="0" /></g><g
           id="g90"
           transform="translate(79.9897,134.2822)"><path
             d="M 0,0 -0.394,2.822 -0.153,2.787 0.188,0.325 1.128,2.631 1.351,2.614 0.274,-0.018 0,0 z"
             style="fill:#ad3847;fill-opacity:1;fill-rule:nonzero;stroke:none"
             id="path92"
             inkscape:connector-curvature="0" /></g><g
           id="g94"
           transform="translate(81.5454,134.1611)"><path
             d="M 0,0 0.086,2.752 0.325,2.735 0.24,0 0,0 z"
             style="fill:#ad3847;fill-opacity:1;fill-rule:nonzero;stroke:none"
             id="path96"
             inkscape:connector-curvature="0" /></g><g
           id="g98"
           transform="translate(82.9468,134.1611)"><path
             d="m 0,0 -0.118,2.532 -0.634,-0.034 0,0.223 1.505,0.069 0,-0.224 L 0.119,2.549 0.241,0.021 0,0 z"
             style="fill:#ad3847;fill-opacity:1;fill-rule:nonzero;stroke:none"
             id="path100"
             inkscape:connector-curvature="0" /></g><g
           id="g102"
           transform="translate(84.522,135.376)"><path
             d="m 0,0 0.375,0.068 0,-0.221 L 0,-0.205 -0.088,-1.094 -0.309,-1.128 -0.018,1.693 0.254,1.744 0.375,1.453 0.375,0.923 0.153,1.42 0,0 z m 0.375,0.068 0.376,0.053 -0.376,0.802 0,0.53 1.077,-2.308 -0.24,-0.036 -0.375,0.823 -0.462,-0.085 0,0.221 z"
             style="fill:#ad3847;fill-opacity:1;fill-rule:nonzero;stroke:none"
             id="path104"
             inkscape:connector-curvature="0" /></g><g
           id="g106"
           transform="translate(87.6479,135.0176)"><path
             d="M 0,0 -1.04,2.548 0.155,3.009 0.224,2.802 -0.732,2.427 -0.357,1.521 0.497,1.847 0.582,1.657 -0.273,1.316 0.155,0.29 1.111,0.667 1.181,0.462 0,0 z"
             style="fill:#ad3847;fill-opacity:1;fill-rule:nonzero;stroke:none"
             id="path108"
             inkscape:connector-curvature="0" /></g><g
           id="g110"
           transform="translate(89.8716,136.0088)"><path
             d="M 0,0 -1.282,2.189 -1.847,1.88 -1.949,2.07 -0.634,2.805 -0.528,2.619 -1.077,2.309 0.206,0.12 0,0 z"
             style="fill:#ad3847;fill-opacity:1;fill-rule:nonzero;stroke:none"
             id="path112"
             inkscape:connector-curvature="0" /></g><g
           id="g114"
           transform="translate(92.0083,137.4443)"><path
             d="M 0,0 -1.88,2.036 -0.923,2.893 -0.768,2.718 -1.538,2.052 -0.854,1.316 -0.17,1.918 -0.034,1.762 -0.719,1.162 0.188,0.172 0,0 z"
             style="fill:#ad3847;fill-opacity:1;fill-rule:nonzero;stroke:none"
             id="path116"
             inkscape:connector-curvature="0" /></g><g
           id="g118"
           transform="translate(93.3921,138.7451)"><path
             d="M 0,0 -2.068,1.846 -1.915,2.018 0.154,0.17 0,0 z"
             style="fill:#ad3847;fill-opacity:1;fill-rule:nonzero;stroke:none"
             id="path120"
             inkscape:connector-curvature="0" /></g><g
           id="g122"
           transform="translate(93.2915,141.6846)"><path
             d="m 0,0 c -0.155,0.068 -0.275,0.121 -0.378,0.121 -0.204,0 -0.392,-0.103 -0.578,-0.344 L -1.145,-0.479 0,-1.316 l 0,-0.307 -1.453,1.078 0.341,0.444 c 0.222,0.306 0.462,0.443 0.734,0.443 0.103,0 0.241,-0.016 0.378,-0.084 L 0,0 z m 0.769,-1.881 0.189,0.258 c 0.188,0.237 0.238,0.444 0.188,0.631 C 1.076,-0.803 0.854,-0.58 0.479,-0.308 0.309,-0.17 0.152,-0.086 0,0 l 0,0.258 c 0.188,-0.071 0.394,-0.19 0.631,-0.359 0.411,-0.308 0.651,-0.581 0.736,-0.821 0.069,-0.24 0,-0.514 -0.221,-0.806 L 0.787,-2.188 0,-1.623 0,-1.316 0.769,-1.881 z"
             style="fill:#ad3847;fill-opacity:1;fill-rule:nonzero;stroke:none"
             id="path124"
             inkscape:connector-curvature="0" /></g><g
           id="g126"
           transform="translate(95.4438,141.3936)"><path
             d="M 0,0 -2.428,1.352 -1.795,2.445 -1.605,2.342 -2.12,1.471 -1.231,0.977 -0.785,1.761 -0.597,1.66 -1.06,0.872 -0.067,0.326 0.446,1.197 0.633,1.095 0,0 z"
             style="fill:#ad3847;fill-opacity:1;fill-rule:nonzero;stroke:none"
             id="path128"
             inkscape:connector-curvature="0" /></g><g
           id="g130"
           transform="translate(95.6177,143.3086)"><path
             d="M 0,0 0.101,0.206 C 0.288,0.136 0.443,0.118 0.598,0.154 0.731,0.206 0.834,0.291 0.888,0.427 0.973,0.599 0.973,0.735 0.92,0.872 0.871,0.993 0.769,1.094 0.614,1.161 0.526,1.197 0.459,1.216 0.391,1.216 0.324,1.216 0.256,1.197 0.186,1.161 0.12,1.129 0.015,1.061 -0.104,0.925 -0.156,0.872 -0.208,0.839 -0.226,0.804 -0.396,0.651 -0.565,0.55 -0.702,0.513 -0.856,0.479 -1.027,0.495 -1.198,0.583 c -0.187,0.084 -0.325,0.203 -0.394,0.391 -0.067,0.17 -0.051,0.36 0.034,0.548 0.086,0.207 0.206,0.341 0.377,0.395 0.171,0.065 0.359,0.051 0.545,-0.035 l 0.019,0 -0.085,-0.205 C -0.856,1.729 -0.993,1.745 -1.095,1.71 -1.215,1.661 -1.3,1.591 -1.352,1.452 -1.421,1.319 -1.421,1.197 -1.368,1.061 c 0.05,-0.121 0.135,-0.205 0.273,-0.275 0.068,-0.017 0.136,-0.033 0.188,-0.051 0.068,0 0.118,0 0.187,0.018 0.103,0.033 0.223,0.136 0.394,0.308 0.035,0.016 0.05,0.051 0.069,0.068 0.186,0.154 0.342,0.273 0.479,0.308 C 0.375,1.47 0.526,1.452 0.699,1.386 0.92,1.283 1.075,1.144 1.143,0.957 1.212,0.786 1.212,0.583 1.109,0.359 1.008,0.136 0.871,0 0.663,-0.05 0.478,-0.118 0.256,-0.103 0,0"
             style="fill:#ad3847;fill-opacity:1;fill-rule:nonzero;stroke:none"
             id="path132"
             inkscape:connector-curvature="0" /></g><g
           id="g134"
           transform="translate(109.9058,171.3037)"><path
             d="M 0,0 0,-59.252"
             style="fill:none;stroke:#ad3847;stroke-width:0.64999998;stroke-linecap:butt;stroke-linejoin:miter;stroke-miterlimit:4;stroke-opacity:1;stroke-dasharray:none"
             id="path136"
             inkscape:connector-curvature="0" /></g><g
           id="g138"
           transform="translate(116.8979,158.4897)"><path
             d="m 0,0 0,10.949 5.432,0 0,-1.137 -4.224,0 0,-3.52 3.946,0 0,-1.109 -3.946,0 0,-4.031 4.267,0 L 5.475,0 0,0 z"
             style="fill:#606163;fill-opacity:1;fill-rule:nonzero;stroke:none"
             id="path140"
             inkscape:connector-curvature="0" /></g><g
           id="g142"
           transform="translate(123.8013,161.9663)"><path
             d="m 0,0 1.166,0 0,-0.391 c 0,-0.744 0.172,-1.306 0.516,-1.685 0.343,-0.379 0.852,-0.569 1.525,-0.569 0.606,0 1.083,0.183 1.429,0.548 0.345,0.365 0.519,0.867 0.519,1.507 0,0.512 -0.106,0.906 -0.317,1.184 C 4.627,0.871 4.152,1.149 3.413,1.429 3.237,1.496 2.991,1.588 2.673,1.707 1.787,2.029 1.251,2.271 1.066,2.432 0.763,2.702 0.537,3.023 0.388,3.395 0.238,3.767 0.164,4.2 0.164,4.692 c 0,0.953 0.263,1.699 0.789,2.237 0.526,0.537 1.258,0.806 2.197,0.806 0.891,0 1.589,-0.248 2.094,-0.746 C 5.749,6.491 6.001,5.804 6.001,4.927 6.001,4.899 5.999,4.853 5.994,4.789 5.989,4.725 5.986,4.678 5.986,4.65 l -1.123,0 0,0.114 C 4.863,5.38 4.713,5.855 4.412,6.189 4.111,6.523 3.686,6.69 3.136,6.69 2.567,6.69 2.119,6.53 1.792,6.21 1.465,5.891 1.301,5.458 1.301,4.913 1.301,4.396 1.413,3.996 1.635,3.711 1.858,3.427 2.344,3.147 3.093,2.873 3.183,2.839 3.315,2.79 3.491,2.723 4.633,2.301 5.316,1.986 5.539,1.777 5.809,1.526 6.009,1.221 6.14,0.86 6.27,0.5 6.335,0.069 6.335,-0.434 6.335,-1.472 6.048,-2.28 5.475,-2.858 4.901,-3.437 4.103,-3.726 3.079,-3.726 c -1.019,0 -1.789,0.285 -2.311,0.854 -0.521,0.569 -0.782,1.405 -0.782,2.51 0,0.037 0.002,0.098 0.007,0.181 C -0.002,-0.098 0,-0.038 0,0"
             style="fill:#606163;fill-opacity:1;fill-rule:nonzero;stroke:none"
             id="path144"
             inkscape:connector-curvature="0" /></g><g
           id="g146"
           transform="translate(137.0259,162.5068)"><path
             d="M 0,0 1.208,0 C 1.194,-1.389 0.906,-2.449 0.345,-3.182 -0.217,-3.914 -1.026,-4.28 -2.083,-4.28 c -1.128,0 -1.964,0.466 -2.506,1.397 -0.543,0.931 -0.815,2.368 -0.815,4.312 0,2.029 0.269,3.497 0.807,4.404 0.538,0.908 1.407,1.362 2.606,1.362 1,0 1.772,-0.29 2.314,-0.871 C 0.866,5.743 1.137,4.917 1.137,3.846 l 0,-0.135 -1.18,0 c 0,0.749 -0.175,1.337 -0.526,1.764 -0.351,0.426 -0.829,0.639 -1.436,0.639 -0.745,0 -1.28,-0.361 -1.607,-1.084 -0.327,-0.723 -0.491,-1.923 -0.491,-3.601 0,-1.64 0.169,-2.807 0.505,-3.502 0.337,-0.694 0.891,-1.041 1.664,-1.041 0.621,0 1.099,0.255 1.433,0.764 C -0.167,-1.84 0,-1.114 0,-0.171 L 0,0 z"
             style="fill:#606163;fill-opacity:1;fill-rule:nonzero;stroke:none"
             id="path148"
             inkscape:connector-curvature="0" /></g><g
           id="g150"
           transform="translate(141.1206,163.9644)"><path
             d="m 0,0 c 0,-1.759 0.167,-2.975 0.5,-3.647 0.334,-0.673 0.913,-1.01 1.736,-1.01 0.833,0 1.413,0.328 1.743,0.985 0.328,0.656 0.493,1.88 0.493,3.672 0,1.787 -0.165,3.007 -0.493,3.662 C 3.649,4.315 3.069,4.643 2.236,4.643 1.413,4.643 0.834,4.307 0.5,3.637 0.167,2.966 0,1.753 0,0 m -1.273,0 c 0,2.038 0.276,3.504 0.828,4.397 C 0.106,5.291 1,5.737 2.236,5.737 3.481,5.737 4.377,5.295 4.924,4.412 5.471,3.527 5.745,2.057 5.745,0 5.745,-2.057 5.472,-3.528 4.928,-4.412 4.383,-5.296 3.486,-5.738 2.236,-5.738 c -1.231,0 -2.124,0.45 -2.678,1.351 -0.554,0.901 -0.831,2.363 -0.831,4.387"
             style="fill:#606163;fill-opacity:1;fill-rule:nonzero;stroke:none"
             id="path152"
             inkscape:connector-curvature="0" /></g><g
           id="g154"
           transform="translate(148.5996,158.4897)"><path
             d="m 0,0 0,10.949 1.223,0 0,-9.769 4.373,0 L 5.596,0 0,0 z"
             style="fill:#606163;fill-opacity:1;fill-rule:nonzero;stroke:none"
             id="path156"
             inkscape:connector-curvature="0" /></g><g
           id="g158"
           transform="translate(157.3594,162.7554)"><path
             d="M 0,0 2.915,0 1.457,5.738 0,0 z m -2.311,-4.266 2.987,10.95 1.556,0 3.03,-10.95 -1.239,0 -0.832,3.157 -3.468,0 -0.797,-3.157 -1.237,0 z"
             style="fill:#606163;fill-opacity:1;fill-rule:nonzero;stroke:none"
             id="path160"
             inkscape:connector-curvature="0" /></g><g
           id="g162"
           transform="translate(168.6563,159.5347)"><path
             d="m 0,0 1.586,0 c 0.512,0 0.909,0.052 1.191,0.157 0.282,0.104 0.504,0.272 0.664,0.505 0.256,0.374 0.442,0.841 0.555,1.4 0.113,0.559 0.171,1.344 0.171,2.354 0,1.767 -0.185,2.947 -0.555,3.54 C 3.242,8.548 2.553,8.845 1.543,8.845 L 0,8.845 0,0 z m -1.223,-1.045 0,10.949 3.1,0 C 3.119,9.904 4.034,9.489 4.622,8.66 5.209,7.831 5.504,6.541 5.504,4.792 5.504,3.56 5.402,2.544 5.201,1.746 5,0.947 4.684,0.313 4.252,-0.156 3.959,-0.479 3.627,-0.707 3.257,-0.842 2.887,-0.978 2.338,-1.045 1.607,-1.045 l -2.83,0 z"
             style="fill:#606163;fill-opacity:1;fill-rule:nonzero;stroke:none"
             id="path164"
             inkscape:connector-curvature="0" /></g><g
           id="g166"
           transform="translate(175.9082,158.4897)"><path
             d="m 0,0 0,10.949 5.432,0 0,-1.137 -4.223,0 0,-3.52 3.945,0 0,-1.109 -3.945,0 0,-4.031 4.266,0 L 5.475,0 0,0 z"
             style="fill:#606163;fill-opacity:1;fill-rule:nonzero;stroke:none"
             id="path168"
             inkscape:connector-curvature="0" /></g><g
           id="g170"
           transform="translate(120.0928,141.3164)"><path
             d="M 0,0 2.366,0 1.173,6.263 0,0 z m -3.995,-5.992 3.365,14.931 3.733,0 3.393,-14.931 -2.996,0 -0.737,3.752 -3.2,0 -0.717,-3.752 -2.841,0 z"
             style="fill:#606163;fill-opacity:1;fill-rule:nonzero;stroke:none"
             id="path172"
             inkscape:connector-curvature="0" /></g><g
           id="g174"
           transform="translate(130.7378,143.9438)"><path
             d="m 0,0 1.6,0 c 0.808,0 1.368,0.161 1.682,0.484 0.313,0.324 0.47,0.902 0.47,1.736 0,0.743 -0.171,1.263 -0.514,1.561 C 2.896,4.078 2.272,4.227 1.367,4.227 L 0,4.227 0,0 z m -2.686,-8.62 0,14.932 4.984,0 C 3.804,6.312 4.888,6.006 5.55,5.395 6.213,4.784 6.544,3.787 6.544,2.404 6.544,1.435 6.366,0.67 6.011,0.111 5.655,-0.448 5.132,-0.776 4.44,-0.873 5.759,-1.222 6.447,-2.337 6.505,-4.217 l 0,-0.195 0.078,-1.977 C 6.609,-6.952 6.68,-7.403 6.796,-7.742 6.913,-8.081 7.094,-8.374 7.339,-8.62 l -3.296,0 c -0.078,0.252 -0.136,0.549 -0.175,0.888 -0.038,0.339 -0.064,0.819 -0.077,1.44 l -0.039,1.561 0,0.397 c 0,0.866 -0.184,1.461 -0.553,1.784 -0.368,0.323 -1.118,0.485 -2.249,0.485 l -0.95,0 0,-6.555 -2.686,0 z"
             style="fill:#606163;fill-opacity:1;fill-rule:nonzero;stroke:none"
             id="path176"
             inkscape:connector-curvature="0" /></g><g
           id="g178"
           transform="translate(144.7119,137.293)"><path
             d="m 0,0 -0.812,0.834 1.383,1.405 0.59,-0.61 c 0.07,0.484 0.122,1.002 0.154,1.551 0.033,0.549 0.049,1.144 0.049,1.784 0,2.772 -0.142,4.492 -0.426,5.158 -0.283,0.665 -0.816,0.998 -1.595,0.998 -0.768,0 -1.294,-0.317 -1.577,-0.95 C -2.518,9.537 -2.66,7.979 -2.66,5.497 c 0,-2.417 0.134,-3.954 0.402,-4.61 0.267,-0.657 0.763,-0.985 1.485,-0.985 0.083,0 0.182,0.007 0.294,0.02 C -0.366,-0.064 -0.206,-0.039 0,0 M 1.819,-1.832 C 1.483,-2 1.114,-2.125 0.711,-2.205 c -0.403,-0.082 -0.86,-0.122 -1.37,-0.122 -0.981,0 -1.772,0.145 -2.372,0.436 -0.601,0.291 -1.117,0.776 -1.55,1.454 -0.315,0.492 -0.548,1.21 -0.696,2.158 -0.149,0.947 -0.223,2.205 -0.223,3.776 0,1.577 0.074,2.837 0.223,3.781 0.148,0.944 0.381,1.661 0.697,2.152 0.433,0.679 0.949,1.164 1.55,1.455 0.6,0.29 1.39,0.436 2.373,0.436 0.98,0 1.771,-0.146 2.373,-0.436 C 2.315,12.594 2.835,12.109 3.274,11.43 3.585,10.939 3.813,10.22 3.962,9.273 4.11,8.326 4.185,7.067 4.185,5.497 4.185,3.855 4.11,2.555 3.962,1.595 3.813,0.635 3.584,-0.043 3.274,-0.437 L 4.941,-2.104 3.526,-3.539 1.819,-1.832 z"
             style="fill:#606163;fill-opacity:1;fill-rule:nonzero;stroke:none"
             id="path180"
             inkscape:connector-curvature="0" /></g><g
           id="g182"
           transform="translate(151.166,150.2554)"><path
             d="m 0,0 2.782,0 0,-10.064 c 0,-1.15 0.141,-1.931 0.421,-2.342 0.281,-0.41 0.781,-0.615 1.498,-0.615 0.711,0 1.204,0.207 1.479,0.621 0.275,0.413 0.412,1.205 0.412,2.375 l 0,10.025 2.744,0 0,-10.306 c 0,-1.002 -0.057,-1.735 -0.17,-2.195 C 9.053,-12.964 8.864,-13.37 8.6,-13.718 8.198,-14.242 7.668,-14.634 7.01,-14.897 6.35,-15.159 5.568,-15.29 4.663,-15.29 c -1.706,0 -2.91,0.371 -3.612,1.111 C 0.35,-13.439 0,-12.148 0,-10.306 L 0,0 z"
             style="fill:#606163;fill-opacity:1;fill-rule:nonzero;stroke:none"
             id="path184"
             inkscape:connector-curvature="0" /></g><path
           d="m 163.022,150.255 2.782,0 0,-14.931 -2.782,0 0,14.931 z"
           style="fill:#606163;fill-opacity:1;fill-rule:nonzero;stroke:none"
           id="path186"
           inkscape:connector-curvature="0" /><g
           id="g188"
           transform="translate(170.4688,135.3242)"><path
             d="m 0,0 0,12.468 -3.199,0 0,2.463 9.18,0 0,-2.463 -3.199,0 L 2.782,0 0,0 z"
             style="fill:#606163;fill-opacity:1;fill-rule:nonzero;stroke:none"
             id="path190"
             inkscape:connector-curvature="0" /></g><g
           id="g192"
           transform="translate(177.9141,135.3242)"><path
             d="m 0,0 0,14.931 7.669,0 0,-2.482 -4.905,0 0,-3.451 4.566,0 0,-2.366 -4.566,0 0,-4.111 5.021,0 L 7.785,0 0,0 z"
             style="fill:#606163;fill-opacity:1;fill-rule:nonzero;stroke:none"
             id="path194"
             inkscape:connector-curvature="0" /></g><g
           id="g196"
           transform="translate(189.8682,135.3242)"><path
             d="m 0,0 0,12.468 -3.199,0 0,2.463 9.18,0 0,-2.463 -3.199,0 L 2.782,0 0,0 z"
             style="fill:#606163;fill-opacity:1;fill-rule:nonzero;stroke:none"
             id="path198"
             inkscape:connector-curvature="0" /></g><g
           id="g200"
           transform="translate(197.3145,150.2554)"><path
             d="m 0,0 2.782,0 0,-10.064 c 0,-1.15 0.141,-1.931 0.421,-2.342 0.281,-0.41 0.781,-0.615 1.498,-0.615 0.711,0 1.204,0.207 1.479,0.621 0.275,0.413 0.412,1.205 0.412,2.375 l 0,10.025 2.744,0 0,-10.306 c 0,-1.002 -0.057,-1.735 -0.17,-2.195 C 9.053,-12.964 8.864,-13.37 8.6,-13.718 8.198,-14.242 7.668,-14.634 7.01,-14.897 6.35,-15.159 5.568,-15.29 4.663,-15.29 c -1.706,0 -2.91,0.371 -3.612,1.111 C 0.35,-13.439 0,-12.148 0,-10.306 L 0,0 z"
             style="fill:#606163;fill-opacity:1;fill-rule:nonzero;stroke:none"
             id="path202"
             inkscape:connector-curvature="0" /></g><g
           id="g204"
           transform="translate(211.8574,143.9438)"><path
             d="M 0,0 1.6,0 C 2.407,0 2.968,0.161 3.281,0.484 3.595,0.808 3.752,1.386 3.752,2.22 3.752,2.963 3.58,3.483 3.238,3.781 2.895,4.078 2.271,4.227 1.367,4.227 L 0,4.227 0,0 z m -2.686,-8.62 0,14.932 4.983,0 C 3.803,6.312 4.887,6.006 5.55,5.395 6.213,4.784 6.544,3.787 6.544,2.404 6.544,1.435 6.365,0.67 6.011,0.111 5.654,-0.448 5.131,-0.776 4.439,-0.873 5.758,-1.222 6.447,-2.337 6.505,-4.217 l 0,-0.195 0.077,-1.977 C 6.608,-6.952 6.68,-7.403 6.796,-7.742 6.912,-8.081 7.094,-8.374 7.339,-8.62 l -3.296,0 c -0.078,0.252 -0.137,0.549 -0.176,0.888 -0.038,0.339 -0.064,0.819 -0.076,1.44 l -0.039,1.561 0,0.397 c 0,0.866 -0.185,1.461 -0.553,1.784 -0.369,0.323 -1.119,0.485 -2.25,0.485 l -0.949,0 0,-6.555 -2.686,0 z"
             style="fill:#606163;fill-opacity:1;fill-rule:nonzero;stroke:none"
             id="path206"
             inkscape:connector-curvature="0" /></g><g
           id="g208"
           transform="translate(223.5293,141.3164)"><path
             d="M 0,0 2.366,0 1.174,6.263 0,0 z m -3.994,-5.992 3.364,14.931 3.734,0 3.392,-14.931 -2.996,0 -0.736,3.752 -3.2,0 -0.717,-3.752 -2.841,0 z"
             style="fill:#606163;fill-opacity:1;fill-rule:nonzero;stroke:none"
             id="path210"
             inkscape:connector-curvature="0" /></g><g
           id="g212"
           transform="translate(117.1938,112.1602)"><path
             d="m 0,0 0,14.931 7.669,0 0,-2.482 -4.906,0 0,-3.452 4.567,0 0,-2.366 -4.567,0 0,-4.11 5.022,0 L 7.785,0 0,0 z"
             style="fill:#606163;fill-opacity:1;fill-rule:nonzero;stroke:none"
             id="path214"
             inkscape:connector-curvature="0" /></g><g
           id="g216"
           transform="translate(134.7129,114.3613)"><path
             d="M 0,0 1.231,0 C 1.858,0 2.298,0.045 2.55,0.135 2.802,0.226 3.002,0.381 3.151,0.601 3.41,0.988 3.594,1.52 3.704,2.195 3.813,2.871 3.869,3.951 3.869,5.438 3.869,6.887 3.804,7.939 3.675,8.6 3.545,9.258 3.326,9.756 3.016,10.092 2.854,10.26 2.646,10.379 2.39,10.446 2.135,10.514 1.736,10.548 1.193,10.548 L 0,10.548 0,0 z m -2.724,-2.201 0,14.93 4.47,0 c 0.911,0 1.636,-0.077 2.176,-0.233 C 4.461,12.342 4.906,12.09 5.255,11.74 5.778,11.229 6.148,10.585 6.365,9.807 6.582,9.027 6.69,7.816 6.69,6.176 6.69,4.055 6.616,2.558 6.467,1.682 6.318,0.806 6.066,0.061 5.71,-0.553 5.368,-1.167 4.892,-1.596 4.281,-1.838 3.67,-2.08 2.611,-2.201 1.105,-2.201 l -3.829,0 z"
             style="fill:#606163;fill-opacity:1;fill-rule:nonzero;stroke:none"
             id="path218"
             inkscape:connector-curvature="0" /></g><g
           id="g220"
           transform="translate(143.6621,112.1602)"><path
             d="m 0,0 0,14.931 7.668,0 0,-2.482 -4.905,0 0,-3.452 4.566,0 0,-2.366 -4.566,0 0,-4.11 5.022,0 L 7.785,0 0,0 z"
             style="fill:#606163;fill-opacity:1;fill-rule:nonzero;stroke:none"
             id="path222"
             inkscape:connector-curvature="0" /></g><g
           id="g224"
           transform="translate(153.2109,117.4053)"><path
             d="m 0,0 2.783,0 0,-0.96 c 0,-0.918 0.114,-1.543 0.344,-1.876 0.228,-0.333 0.625,-0.499 1.187,-0.499 0.588,0 1.036,0.148 1.343,0.445 0.308,0.298 0.46,0.738 0.46,1.319 0,0.447 -0.105,0.83 -0.319,1.149 C 5.584,-0.103 5.123,0.31 4.412,0.814 L 2.986,1.823 C 1.758,2.676 0.978,3.38 0.645,3.937 0.313,4.492 0.146,5.19 0.146,6.03 c 0,1.254 0.372,2.237 1.114,2.948 0.744,0.71 1.768,1.066 3.074,1.066 1.383,0 2.443,-0.378 3.18,-1.135 C 8.25,8.153 8.619,7.067 8.619,5.652 8.619,5.51 8.617,5.399 8.614,5.323 8.611,5.245 8.605,5.177 8.6,5.119 l -2.637,0 0,0.398 C 5.963,6.324 5.83,6.903 5.564,7.252 5.3,7.601 4.863,7.775 4.256,7.775 3.811,7.775 3.459,7.645 3.205,7.383 2.949,7.121 2.821,6.757 2.821,6.292 2.821,5.665 3.394,4.97 4.537,4.208 4.551,4.201 4.561,4.194 4.566,4.188 L 6.098,3.151 C 7.19,2.427 7.931,1.743 8.318,1.101 8.707,0.457 8.9,-0.362 8.9,-1.357 8.9,-2.715 8.512,-3.762 7.736,-4.499 6.961,-5.235 5.853,-5.604 4.412,-5.604 c -1.5,0 -2.617,0.388 -3.35,1.164 -0.734,0.775 -1.101,1.959 -1.101,3.548 0,0.168 0.014,0.446 0.039,0.834 L 0,0 z"
             style="fill:#606163;fill-opacity:1;fill-rule:nonzero;stroke:none"
             id="path226"
             inkscape:connector-curvature="0" /></g><path
           d="m 164.37,127.091 2.782,0 0,-14.931 -2.782,0 0,14.931 z"
           style="fill:#606163;fill-opacity:1;fill-rule:nonzero;stroke:none"
           id="path228"
           inkscape:connector-curvature="0" /><g
           id="g230"
           transform="translate(177.0605,112.1602)"><path
             d="M 0,0 -0.203,1.648 C -0.487,0.931 -0.877,0.417 -1.371,0.106 c -0.494,-0.309 -1.175,-0.465 -2.041,-0.465 -1.565,0 -2.664,0.591 -3.301,1.775 -0.637,1.182 -0.955,3.351 -0.955,6.505 0,1.474 0.076,2.655 0.228,3.544 0.151,0.889 0.389,1.575 0.712,2.06 0.388,0.594 0.902,1.034 1.542,1.319 0.639,0.283 1.434,0.426 2.385,0.426 1.603,0 2.783,-0.378 3.543,-1.135 0.76,-0.756 1.139,-1.932 1.139,-3.529 l 0,-0.377 -2.598,0 0,0.154 c 0,0.892 -0.166,1.566 -0.5,2.021 -0.332,0.456 -0.828,0.684 -1.487,0.684 -0.808,0 -1.36,-0.31 -1.658,-0.93 -0.298,-0.621 -0.447,-2.265 -0.447,-4.935 0,-2.108 0.143,-3.516 0.428,-4.227 0.283,-0.711 0.797,-1.066 1.541,-1.066 0.736,0 1.262,0.252 1.575,0.756 0.314,0.503 0.47,1.357 0.47,2.559 l 0,0.514 -1.929,0 0,2.386 4.605,0 L 1.881,0 0,0 z"
             style="fill:#606163;fill-opacity:1;fill-rule:nonzero;stroke:none"
             id="path232"
             inkscape:connector-curvature="0" /></g><g
           id="g234"
           transform="translate(181.3848,112.1602)"><path
             d="m 0,0 0,14.931 2.86,0 3.888,-10.443 -0.077,10.443 2.628,0 L 9.299,0 6.457,0 2.541,10.461 2.618,0 0,0 z"
             style="fill:#606163;fill-opacity:1;fill-rule:nonzero;stroke:none"
             id="path236"
             inkscape:connector-curvature="0" /></g></g></g></g></svg>