<?xml version="1.0" encoding="UTF-8" standalone="no"?>
<!-- Created with Inkscape (http://www.inkscape.org/) -->

<svg
   xmlns:dc="http://purl.org/dc/elements/1.1/"
   xmlns:cc="http://creativecommons.org/ns#"
   xmlns:rdf="http://www.w3.org/1999/02/22-rdf-syntax-ns#"
   xmlns:svg="http://www.w3.org/2000/svg"
   xmlns="http://www.w3.org/2000/svg"
   xmlns:sodipodi="http://sodipodi.sourceforge.net/DTD/sodipodi-0.dtd"
   xmlns:inkscape="http://www.inkscape.org/namespaces/inkscape"
   id="svg2"
   version="1.1"
   inkscape:version="0.48.4 r9939"
   width="200"
   height="90"
   xml:space="preserve"
   sodipodi:docname="projeto-comunitario.svg"
   inkscape:export-filename="/home/phls/Dropbox/eventos/flisol/2015/logos/projeto-comunitario.png"
   inkscape:export-xdpi="90"
   inkscape:export-ydpi="90"><metadata
     id="metadata8"><rdf:RDF><cc:Work
         rdf:about=""><dc:format>image/svg+xml</dc:format><dc:type
           rdf:resource="http://purl.org/dc/dcmitype/StillImage" /><dc:title></dc:title></cc:Work></rdf:RDF></metadata><defs
     id="defs6"><clipPath
       clipPathUnits="userSpaceOnUse"
       id="clipPath16"><path
         d="M 0,312 595,312 595,0 0,0 0,312 z"
         id="path18"
         inkscape:connector-curvature="0" /></clipPath></defs><sodipodi:namedview
     pagecolor="#ffffff"
     bordercolor="#666666"
     borderopacity="1"
     objecttolerance="10"
     gridtolerance="10"
     guidetolerance="10"
     inkscape:pageopacity="0"
     inkscape:pageshadow="2"
     inkscape:window-width="1920"
     inkscape:window-height="1028"
     id="namedview4"
     showgrid="false"
     inkscape:zoom="1.9791597"
     inkscape:cx="311.32737"
     inkscape:cy="114.15761"
     inkscape:window-x="0"
     inkscape:window-y="0"
     inkscape:window-maximized="1"
     inkscape:current-layer="g10" /><g
     id="g10"
     inkscape:groupmode="layer"
     inkscape:label="logo projeto comunitario"
     transform="matrix(1.25,0,0,-1.25,0,90)"><g
       id="g12"
       transform="matrix(0.32221793,0,0,0.32221793,-17.322908,-15.596149)"><g
         id="g14"
         clip-path="url(#clipPath16)"><g
           id="g20"
           transform="translate(297.8161,213.8454)"><path
             d="m 0,0 c 0,4.459 -0.84,8.142 -2.52,11.049 -2.003,3.555 -5.105,5.428 -9.305,5.622 C -19.579,16.219 -23.456,10.662 -23.456,0 c 0,-4.911 0.808,-9.014 2.439,-12.31 2.068,-4.2 5.186,-6.267 9.338,-6.203 C -3.893,-18.448 0,-12.277 0,0 m 7.754,0 c 0,-6.333 -1.615,-11.599 -4.846,-15.799 -3.554,-4.717 -8.465,-7.075 -14.733,-7.075 -6.203,0 -11.05,2.358 -14.539,7.075 -3.166,4.2 -4.749,9.466 -4.749,15.799 0,5.945 1.712,10.952 5.137,15.023 3.619,4.33 8.368,6.495 14.248,6.495 5.88,0 10.662,-2.165 14.345,-6.495 C 6.042,10.952 7.754,5.945 7.754,0 m -45.636,-22.584 c -0.84,-0.064 -1.615,-0.097 -2.326,-0.097 -4.006,0 -7.124,0.953 -9.354,2.859 -2.229,1.907 -3.343,4.54 -3.343,7.9 l 0,27.818 -4.847,0 0,4.555 4.847,0 0,11.825 7.075,2.52 0,-14.345 7.948,0 0,-4.555 -7.948,0 0,-27.624 c 0,-2.649 0.711,-4.523 2.132,-5.622 1.228,-0.905 3.167,-1.421 5.816,-1.551 l 0,-3.683 z M -72,4.168 c 0,3.392 -0.711,6.284 -2.148,8.658 -1.697,2.698 -4.023,4.039 -6.963,4.039 -5.88,0 -9.143,-4.232 -9.789,-12.697 l 18.9,0 z m 7.464,-22.293 c -2.715,-1.745 -5.138,-2.94 -7.27,-3.586 -2.585,-0.776 -5.202,-1.163 -7.851,-1.163 -4.717,0 -8.465,1.195 -11.243,3.586 -5.041,4.264 -7.528,10.209 -7.464,17.834 0.065,6.268 1.357,11.437 3.877,15.508 3.037,4.782 7.431,7.173 13.182,7.173 10.727,0 16.187,-7.076 16.381,-21.227 L -90.9,0 c -0.388,-5.492 0.646,-9.935 3.101,-13.327 2.456,-3.393 5.687,-5.025 9.693,-4.895 3.36,0.129 7.334,1.292 11.922,3.489 l 1.648,-3.392 z m -43.617,-7.56 0,47.299 -7.173,-2.52 0,-45.07 c 0,-10.404 -3.715,-15.605 -11.146,-15.605 -0.905,0 -1.826,0.064 -2.763,0.194 -0.937,0.129 -2.148,0.517 -3.634,1.163 l -1.551,-4.653 c 2.714,-1.163 5.266,-1.744 7.657,-1.744 12.407,0 18.61,6.978 18.61,20.936 m 1.066,60.869 c 0,-1.292 -0.452,-2.375 -1.357,-3.247 -0.904,-0.872 -2.003,-1.308 -3.296,-1.308 -1.227,0 -2.293,0.452 -3.198,1.357 -0.905,0.904 -1.357,1.97 -1.357,3.198 l 0,0.097 c 0,1.292 0.452,2.375 1.357,3.247 0.905,0.872 2.003,1.308 3.295,1.308 1.293,0 2.375,-0.452 3.248,-1.357 0.872,-0.904 1.308,-2.002 1.308,-3.295 M -133.467,0 c 0,4.459 -0.84,8.142 -2.52,11.049 -2.003,3.555 -5.105,5.428 -9.305,5.622 -7.754,-0.452 -11.631,-6.009 -11.631,-16.671 0,-4.911 0.808,-9.014 2.439,-12.31 2.068,-4.2 5.186,-6.267 9.338,-6.203 7.786,0.065 11.679,6.236 11.679,18.513 m 7.754,0 c 0,-6.333 -1.615,-11.599 -4.846,-15.799 -3.554,-4.717 -8.465,-7.075 -14.733,-7.075 -6.203,0 -11.05,2.358 -14.539,7.075 -3.166,4.2 -4.749,9.466 -4.749,15.799 0,5.945 1.712,10.952 5.137,15.023 3.619,4.33 8.368,6.495 14.248,6.495 5.88,0 10.662,-2.165 14.345,-6.495 3.425,-4.071 5.137,-9.078 5.137,-15.023 m -43.713,21.324 c -0.646,-1.293 -1.584,-3.199 -2.811,-5.719 -1.81,0.388 -3.134,0.582 -3.974,0.582 l -0.097,0 c -3.877,0 -7.334,-1.293 -10.371,-3.878 l 0,-34.311 -7.076,0 0,35.281 c 2.649,2.972 6.01,5.169 10.08,6.591 3.555,1.292 6.721,1.938 9.499,1.938 1.551,0 3.134,-0.161 4.75,-0.484 m -37.899,1.647 c 0,2.908 -1.098,5.493 -3.295,7.755 -2.197,2.261 -4.782,3.392 -7.754,3.392 l -11.341,0 0,-22.681 11.147,0 c 3.36,0 6.074,1.066 8.142,3.199 2.067,2.132 3.101,4.911 3.101,8.335 m 7.173,-0.194 c 0,-4.652 -1.551,-8.513 -4.653,-11.582 -3.101,-3.069 -6.978,-4.604 -11.631,-4.604 l -13.279,0 0,-28.593 -7.075,0 0,61.16 19.288,0.097 c 4.846,0 8.95,-1.599 12.31,-4.798 3.36,-3.199 5.04,-7.092 5.04,-11.68"
             style="fill:#231f20;fill-opacity:1;fill-rule:evenodd;stroke:none"
             id="path22"
             inkscape:connector-curvature="0" /></g><g
           id="g24"
           transform="translate(297.8161,213.8454)"><path
             d="m 0,0 c 0,4.459 -0.84,8.142 -2.52,11.049 -2.003,3.555 -5.105,5.428 -9.305,5.622 C -19.579,16.219 -23.456,10.662 -23.456,0 c 0,-4.911 0.808,-9.014 2.439,-12.31 2.068,-4.2 5.186,-6.267 9.338,-6.203 C -3.893,-18.448 0,-12.277 0,0 z m 7.754,0 c 0,-6.333 -1.615,-11.599 -4.846,-15.799 -3.554,-4.717 -8.465,-7.075 -14.733,-7.075 -6.203,0 -11.05,2.358 -14.539,7.075 -3.166,4.2 -4.749,9.466 -4.749,15.799 0,5.945 1.712,10.952 5.137,15.023 3.619,4.33 8.368,6.495 14.248,6.495 5.88,0 10.662,-2.165 14.345,-6.495 C 6.042,10.952 7.754,5.945 7.754,0 z m -45.636,-22.584 c -0.84,-0.064 -1.615,-0.097 -2.326,-0.097 -4.006,0 -7.124,0.953 -9.354,2.859 -2.229,1.907 -3.343,4.54 -3.343,7.9 l 0,27.818 -4.847,0 0,4.555 4.847,0 0,11.825 7.075,2.52 0,-14.345 7.948,0 0,-4.555 -7.948,0 0,-27.624 c 0,-2.649 0.711,-4.523 2.132,-5.622 1.228,-0.905 3.167,-1.421 5.816,-1.551 l 0,-3.683 z M -72,4.168 c 0,3.392 -0.711,6.284 -2.148,8.658 -1.697,2.698 -4.023,4.039 -6.963,4.039 -5.88,0 -9.143,-4.232 -9.789,-12.697 l 18.9,0 z m 7.464,-22.293 c -2.715,-1.745 -5.138,-2.94 -7.27,-3.586 -2.585,-0.776 -5.202,-1.163 -7.851,-1.163 -4.717,0 -8.465,1.195 -11.243,3.586 -5.041,4.264 -7.528,10.209 -7.464,17.834 0.065,6.268 1.357,11.437 3.877,15.508 3.037,4.782 7.431,7.173 13.182,7.173 10.727,0 16.187,-7.076 16.381,-21.227 L -90.9,0 c -0.388,-5.492 0.646,-9.935 3.101,-13.327 2.456,-3.393 5.687,-5.025 9.693,-4.895 3.36,0.129 7.334,1.292 11.922,3.489 l 1.648,-3.392 z m -43.617,-7.56 0,47.299 -7.173,-2.52 0,-45.07 c 0,-10.404 -3.715,-15.605 -11.146,-15.605 -0.905,0 -1.826,0.064 -2.763,0.194 -0.937,0.129 -2.148,0.517 -3.634,1.163 l -1.551,-4.653 c 2.714,-1.163 5.266,-1.744 7.657,-1.744 12.407,0 18.61,6.978 18.61,20.936 z m 1.066,60.869 c 0,-1.292 -0.452,-2.375 -1.357,-3.247 -0.904,-0.872 -2.003,-1.308 -3.296,-1.308 -1.227,0 -2.293,0.452 -3.198,1.357 -0.905,0.904 -1.357,1.97 -1.357,3.198 l 0,0.097 c 0,1.292 0.452,2.375 1.357,3.247 0.905,0.872 2.003,1.308 3.295,1.308 1.293,0 2.375,-0.452 3.248,-1.357 0.872,-0.904 1.308,-2.002 1.308,-3.295 z M -133.467,0 c 0,4.459 -0.84,8.142 -2.52,11.049 -2.003,3.555 -5.105,5.428 -9.305,5.622 -7.754,-0.452 -11.631,-6.009 -11.631,-16.671 0,-4.911 0.808,-9.014 2.439,-12.31 2.068,-4.2 5.186,-6.267 9.338,-6.203 7.786,0.065 11.679,6.236 11.679,18.513 z m 7.754,0 c 0,-6.333 -1.615,-11.599 -4.846,-15.799 -3.554,-4.717 -8.465,-7.075 -14.733,-7.075 -6.203,0 -11.05,2.358 -14.539,7.075 -3.166,4.2 -4.749,9.466 -4.749,15.799 0,5.945 1.712,10.952 5.137,15.023 3.619,4.33 8.368,6.495 14.248,6.495 5.88,0 10.662,-2.165 14.345,-6.495 3.425,-4.071 5.137,-9.078 5.137,-15.023 z m -43.713,21.324 c -0.646,-1.293 -1.584,-3.199 -2.811,-5.719 -1.81,0.388 -3.134,0.582 -3.974,0.582 l -0.097,0 c -3.877,0 -7.334,-1.293 -10.371,-3.878 l 0,-34.311 -7.076,0 0,35.281 c 2.649,2.972 6.01,5.169 10.08,6.591 3.555,1.292 6.721,1.938 9.499,1.938 1.551,0 3.134,-0.161 4.75,-0.484 z m -37.899,1.647 c 0,2.908 -1.098,5.493 -3.295,7.755 -2.197,2.261 -4.782,3.392 -7.754,3.392 l -11.341,0 0,-22.681 11.147,0 c 3.36,0 6.074,1.066 8.142,3.199 2.067,2.132 3.101,4.911 3.101,8.335 z m 7.173,-0.194 c 0,-4.652 -1.551,-8.513 -4.653,-11.582 -3.101,-3.069 -6.978,-4.604 -11.631,-4.604 l -13.279,0 0,-28.593 -7.075,0 0,61.16 19.288,0.097 c 4.846,0 8.95,-1.599 12.31,-4.798 3.36,-3.199 5.04,-7.092 5.04,-11.68 z"
             style="fill:none;stroke:#231f20;stroke-width:0.21600001;stroke-linecap:butt;stroke-linejoin:miter;stroke-miterlimit:22.9260006;stroke-opacity:1;stroke-dasharray:none"
             id="path26"
             inkscape:connector-curvature="0" /></g><g
           id="g28"
           transform="translate(531.4703,130.0626)"><path
             d="m 0,0 c 0,4.365 -0.823,7.972 -2.468,10.818 -1.961,3.48 -4.997,5.315 -9.11,5.505 C -19.17,15.88 -22.966,10.439 -22.966,0 c 0,-4.808 0.791,-8.826 2.389,-12.052 2.024,-4.113 5.077,-6.137 9.141,-6.074 C -3.812,-18.063 0,-12.021 0,0 m 7.592,0 c 0,-6.2 -1.582,-11.356 -4.745,-15.469 -3.48,-4.618 -8.288,-6.927 -14.425,-6.927 -6.073,0 -10.818,2.309 -14.235,6.927 -3.1,4.113 -4.65,9.269 -4.65,15.469 0,5.82 1.677,10.724 5.03,14.709 3.543,4.239 8.193,6.359 13.95,6.359 5.757,0 10.439,-2.12 14.045,-6.359 C 5.915,10.724 7.592,5.82 7.592,0 m -47.639,-21.542 -6.833,0 0,40.332 6.833,2.278 0,-42.61 z m 1.043,55.99 c 0,-1.265 -0.442,-2.325 -1.328,-3.179 -0.886,-0.854 -1.961,-1.281 -3.227,-1.281 -1.202,0 -2.245,0.443 -3.131,1.329 -0.886,0.885 -1.329,1.929 -1.329,3.131 l 0,0.095 c 0,1.266 0.443,2.325 1.329,3.179 0.886,0.854 1.961,1.282 3.226,1.282 1.265,0 2.325,-0.443 3.179,-1.329 0.855,-0.886 1.281,-1.961 1.281,-3.227 m -16.607,-13.57 c -0.632,-1.266 -1.55,-3.132 -2.752,-5.599 -1.771,0.379 -3.068,0.569 -3.891,0.569 l -0.095,0 c -3.796,0 -7.18,-1.265 -10.154,-3.796 l 0,-33.594 -6.927,0 0,34.543 c 2.594,2.91 5.883,5.061 9.869,6.453 3.48,1.266 6.58,1.898 9.3,1.898 1.519,0 3.069,-0.158 4.65,-0.474 m -40.98,-35.113 0,14.235 c -0.254,0 -3.29,-0.032 -9.111,-0.095 -2.72,0 -4.95,-0.744 -6.69,-2.23 -1.74,-1.487 -2.61,-3.496 -2.61,-6.026 0,-2.468 0.917,-4.634 2.752,-6.501 1.835,-1.866 4.081,-2.799 6.738,-2.799 3.796,-0.063 6.77,1.075 8.921,3.416 m 6.738,-0.949 c -4.872,-4.871 -11.104,-7.244 -18.696,-7.117 -3.796,0.063 -7.006,1.423 -9.632,4.08 -2.626,2.657 -3.907,5.884 -3.843,9.68 0.063,3.923 1.439,7.054 4.144,9.395 2.704,2.341 6.057,3.511 10.075,3.511 l 11.214,0 0,4.081 c 0,2.278 -0.886,4.176 -2.673,5.694 -1.788,1.518 -3.875,2.277 -6.264,2.277 -3.448,0 -7.054,-0.98 -10.818,-2.941 l -1.693,3.985 c 4.492,2.405 9.301,3.607 14.425,3.607 3.67,0 6.833,-1.076 9.49,-3.227 2.847,-2.341 4.271,-5.346 4.271,-9.015 l 0,-24.01 z m -4.651,50.771 -18.22,-9.015 -3.322,3.416 18.79,11.198 2.752,-5.599 z m -35.112,-57.699 c -0.823,-0.063 -1.582,-0.094 -2.278,-0.094 -3.922,0 -6.975,0.933 -9.158,2.799 -2.182,1.867 -3.274,4.445 -3.274,7.734 l 0,27.236 -4.745,0 0,4.461 4.745,0 0,11.577 6.928,2.468 0,-14.045 7.782,0 0,-4.461 -7.782,0 0,-27.046 c 0,-2.594 0.696,-4.428 2.088,-5.504 1.202,-0.886 3.1,-1.392 5.694,-1.518 l 0,-3.607 z m -29.055,0.57 -6.833,0 0,40.332 6.833,2.278 0,-42.61 z m 1.044,55.99 c 0,-1.265 -0.443,-2.325 -1.329,-3.179 -0.885,-0.854 -1.961,-1.281 -3.226,-1.281 -1.202,0 -2.246,0.443 -3.132,1.329 -0.886,0.885 -1.329,1.929 -1.329,3.131 l 0,0.095 c 0,1.266 0.443,2.325 1.329,3.179 0.886,0.854 1.961,1.282 3.227,1.282 1.265,0 2.325,-0.443 3.179,-1.329 0.854,-0.886 1.281,-1.961 1.281,-3.227 m -19.454,-55.99 -6.928,0 0,28.28 c 0,3.1 -0.933,5.52 -2.8,7.259 -1.866,1.74 -4.349,2.579 -7.449,2.515 -3.29,-0.063 -6.422,-1.138 -9.395,-3.226 l 0,-34.828 -6.928,0 0,35.682 c 3.986,2.91 7.655,4.808 11.008,5.694 3.164,0.822 5.947,1.234 8.352,1.234 1.644,0 3.194,-0.158 4.649,-0.475 2.721,-0.632 4.935,-1.803 6.643,-3.511 1.899,-1.898 2.848,-4.176 2.848,-6.833 l 0,-31.791 z m -42.99,6.073 c -6.326,-4.555 -13.222,-6.832 -20.688,-6.832 -3.543,0 -6.579,0.949 -9.11,2.847 -2.911,2.214 -4.366,5.251 -4.366,9.11 l 0,29.039 7.118,2.373 0,-29.04 c 0,-3.099 1.012,-5.535 3.037,-7.307 2.024,-1.771 4.586,-2.625 7.686,-2.562 3.037,0.063 6.169,1.171 9.396,3.321 l 0,34.828 6.927,0 0,-35.777 z m -43.654,-6.073 -6.927,0 0,28.28 c 0,6.706 -3.337,9.933 -10.028,9.679 -2.151,-0.063 -4.507,-1.075 -7.054,-3.036 0.253,-0.759 0.379,-1.803 0.379,-3.132 l 0,-31.791 -6.927,0 0,28.343 c 0,6.786 -3.385,9.996 -10.154,9.616 -2.594,-0.126 -4.745,-1.138 -6.453,-3.036 l 0,-34.923 -6.928,0 0,35.682 c 3.48,2.531 6.2,4.239 8.161,5.125 2.721,1.201 5.884,1.803 9.49,1.803 4.176,0.063 7.529,-1.297 10.06,-4.081 4.365,2.657 8.888,4.017 13.57,4.081 3.29,0 6.2,-1.013 8.731,-3.037 2.72,-2.215 4.08,-4.967 4.08,-8.257 l 0,-31.316 z M -333.001,0 c 0,4.365 -0.822,7.972 -2.467,10.818 -1.961,3.48 -4.998,5.315 -9.111,5.505 -7.591,-0.443 -11.388,-5.884 -11.388,-16.323 0,-4.808 0.791,-8.826 2.389,-12.052 2.024,-4.113 5.077,-6.137 9.142,-6.074 7.623,0.063 11.435,6.105 11.435,18.126 m 7.592,0 c 0,-6.2 -1.582,-11.356 -4.745,-15.469 -3.48,-4.618 -8.288,-6.927 -14.425,-6.927 -6.073,0 -10.818,2.309 -14.234,6.927 -3.1,4.113 -4.651,9.269 -4.651,15.469 0,5.82 1.677,10.724 5.03,14.709 3.543,4.239 8.193,6.359 13.95,6.359 5.757,0 10.439,-2.12 14.045,-6.359 3.354,-3.985 5.03,-8.889 5.03,-14.709 m -43.749,-14.52 c -6.453,-5.061 -13.602,-7.592 -21.447,-7.592 l -0.095,0 c -7.212,0 -13.127,3.543 -17.746,10.629 -4.112,6.327 -6.073,13.254 -5.884,20.783 0.253,7.971 2.373,14.804 6.359,20.498 4.555,6.58 10.597,9.807 18.126,9.68 7.212,-0.127 13.001,-1.803 17.366,-5.03 l -2.468,-4.175 c -3.985,2.594 -8.604,3.891 -13.855,3.891 -5.757,0 -10.09,-2.879 -13.001,-8.636 -2.341,-4.429 -3.574,-9.87 -3.701,-16.323 -0.126,-5.947 1.076,-11.451 3.606,-16.512 3.1,-6.137 7.339,-9.206 12.717,-9.206 3.1,0 5.947,0.538 8.541,1.614 1.581,0.569 4.523,2.088 8.825,4.555 l 2.657,-4.176 z"
             style="fill:#231f20;fill-opacity:1;fill-rule:evenodd;stroke:none"
             id="path30"
             inkscape:connector-curvature="0" /></g><g
           id="g32"
           transform="translate(531.4703,130.0626)"><path
             d="m 0,0 c 0,4.365 -0.823,7.972 -2.468,10.818 -1.961,3.48 -4.997,5.315 -9.11,5.505 C -19.17,15.88 -22.966,10.439 -22.966,0 c 0,-4.808 0.791,-8.826 2.389,-12.052 2.024,-4.113 5.077,-6.137 9.141,-6.074 C -3.812,-18.063 0,-12.021 0,0 z m 7.592,0 c 0,-6.2 -1.582,-11.356 -4.745,-15.469 -3.48,-4.618 -8.288,-6.927 -14.425,-6.927 -6.073,0 -10.818,2.309 -14.235,6.927 -3.1,4.113 -4.65,9.269 -4.65,15.469 0,5.82 1.677,10.724 5.03,14.709 3.543,4.239 8.193,6.359 13.95,6.359 5.757,0 10.439,-2.12 14.045,-6.359 C 5.915,10.724 7.592,5.82 7.592,0 z m -47.639,-21.542 -6.833,0 0,40.332 6.833,2.278 0,-42.61 z m 1.043,55.99 c 0,-1.265 -0.442,-2.325 -1.328,-3.179 -0.886,-0.854 -1.961,-1.281 -3.227,-1.281 -1.202,0 -2.245,0.443 -3.131,1.329 -0.886,0.885 -1.329,1.929 -1.329,3.131 l 0,0.095 c 0,1.266 0.443,2.325 1.329,3.179 0.886,0.854 1.961,1.282 3.226,1.282 1.265,0 2.325,-0.443 3.179,-1.329 0.855,-0.886 1.281,-1.961 1.281,-3.227 z m -16.607,-13.57 c -0.632,-1.266 -1.55,-3.132 -2.752,-5.599 -1.771,0.379 -3.068,0.569 -3.891,0.569 l -0.095,0 c -3.796,0 -7.18,-1.265 -10.154,-3.796 l 0,-33.594 -6.927,0 0,34.543 c 2.594,2.91 5.883,5.061 9.869,6.453 3.48,1.266 6.58,1.898 9.3,1.898 1.519,0 3.069,-0.158 4.65,-0.474 z m -40.98,-35.113 0,14.235 c -0.254,0 -3.29,-0.032 -9.111,-0.095 -2.72,0 -4.95,-0.744 -6.69,-2.23 -1.74,-1.487 -2.61,-3.496 -2.61,-6.026 0,-2.468 0.917,-4.634 2.752,-6.501 1.835,-1.866 4.081,-2.799 6.738,-2.799 3.796,-0.063 6.77,1.075 8.921,3.416 z m 6.738,-0.949 c -4.872,-4.871 -11.104,-7.244 -18.696,-7.117 -3.796,0.063 -7.006,1.423 -9.632,4.08 -2.626,2.657 -3.907,5.884 -3.843,9.68 0.063,3.923 1.439,7.054 4.144,9.395 2.704,2.341 6.057,3.511 10.075,3.511 l 11.214,0 0,4.081 c 0,2.278 -0.886,4.176 -2.673,5.694 -1.788,1.518 -3.875,2.277 -6.264,2.277 -3.448,0 -7.054,-0.98 -10.818,-2.941 l -1.693,3.985 c 4.492,2.405 9.301,3.607 14.425,3.607 3.67,0 6.833,-1.076 9.49,-3.227 2.847,-2.341 4.271,-5.346 4.271,-9.015 l 0,-24.01 z m -4.651,50.771 -18.22,-9.015 -3.322,3.416 18.79,11.198 2.752,-5.599 z m -35.112,-57.699 c -0.823,-0.063 -1.582,-0.094 -2.278,-0.094 -3.922,0 -6.975,0.933 -9.158,2.799 -2.182,1.867 -3.274,4.445 -3.274,7.734 l 0,27.236 -4.745,0 0,4.461 4.745,0 0,11.577 6.928,2.468 0,-14.045 7.782,0 0,-4.461 -7.782,0 0,-27.046 c 0,-2.594 0.696,-4.428 2.088,-5.504 1.202,-0.886 3.1,-1.392 5.694,-1.518 l 0,-3.607 z m -29.055,0.57 -6.833,0 0,40.332 6.833,2.278 0,-42.61 z m 1.044,55.99 c 0,-1.265 -0.443,-2.325 -1.329,-3.179 -0.885,-0.854 -1.961,-1.281 -3.226,-1.281 -1.202,0 -2.246,0.443 -3.132,1.329 -0.886,0.885 -1.329,1.929 -1.329,3.131 l 0,0.095 c 0,1.266 0.443,2.325 1.329,3.179 0.886,0.854 1.961,1.282 3.227,1.282 1.265,0 2.325,-0.443 3.179,-1.329 0.854,-0.886 1.281,-1.961 1.281,-3.227 z m -19.454,-55.99 -6.928,0 0,28.28 c 0,3.1 -0.933,5.52 -2.8,7.259 -1.866,1.74 -4.349,2.579 -7.449,2.515 -3.29,-0.063 -6.422,-1.138 -9.395,-3.226 l 0,-34.828 -6.928,0 0,35.682 c 3.986,2.91 7.655,4.808 11.008,5.694 3.164,0.822 5.947,1.234 8.352,1.234 1.644,0 3.194,-0.158 4.649,-0.475 2.721,-0.632 4.935,-1.803 6.643,-3.511 1.899,-1.898 2.848,-4.176 2.848,-6.833 l 0,-31.791 z m -42.99,6.073 c -6.326,-4.555 -13.222,-6.832 -20.688,-6.832 -3.543,0 -6.579,0.949 -9.11,2.847 -2.911,2.214 -4.366,5.251 -4.366,9.11 l 0,29.039 7.118,2.373 0,-29.04 c 0,-3.099 1.012,-5.535 3.037,-7.307 2.024,-1.771 4.586,-2.625 7.686,-2.562 3.037,0.063 6.169,1.171 9.396,3.321 l 0,34.828 6.927,0 0,-35.777 z m -43.654,-6.073 -6.927,0 0,28.28 c 0,6.706 -3.337,9.933 -10.028,9.679 -2.151,-0.063 -4.507,-1.075 -7.054,-3.036 0.253,-0.759 0.379,-1.803 0.379,-3.132 l 0,-31.791 -6.927,0 0,28.343 c 0,6.786 -3.385,9.996 -10.154,9.616 -2.594,-0.126 -4.745,-1.138 -6.453,-3.036 l 0,-34.923 -6.928,0 0,35.682 c 3.48,2.531 6.2,4.239 8.161,5.125 2.721,1.201 5.884,1.803 9.49,1.803 4.176,0.063 7.529,-1.297 10.06,-4.081 4.365,2.657 8.888,4.017 13.57,4.081 3.29,0 6.2,-1.013 8.731,-3.037 2.72,-2.215 4.08,-4.967 4.08,-8.257 l 0,-31.316 z M -333.001,0 c 0,4.365 -0.822,7.972 -2.467,10.818 -1.961,3.48 -4.998,5.315 -9.111,5.505 -7.591,-0.443 -11.388,-5.884 -11.388,-16.323 0,-4.808 0.791,-8.826 2.389,-12.052 2.024,-4.113 5.077,-6.137 9.142,-6.074 7.623,0.063 11.435,6.105 11.435,18.126 z m 7.592,0 c 0,-6.2 -1.582,-11.356 -4.745,-15.469 -3.48,-4.618 -8.288,-6.927 -14.425,-6.927 -6.073,0 -10.818,2.309 -14.234,6.927 -3.1,4.113 -4.651,9.269 -4.651,15.469 0,5.82 1.677,10.724 5.03,14.709 3.543,4.239 8.193,6.359 13.95,6.359 5.757,0 10.439,-2.12 14.045,-6.359 3.354,-3.985 5.03,-8.889 5.03,-14.709 z m -43.749,-14.52 c -6.453,-5.061 -13.602,-7.592 -21.447,-7.592 l -0.095,0 c -7.212,0 -13.127,3.543 -17.746,10.629 -4.112,6.327 -6.073,13.254 -5.884,20.783 0.253,7.971 2.373,14.804 6.359,20.498 4.555,6.58 10.597,9.807 18.126,9.68 7.212,-0.127 13.001,-1.803 17.366,-5.03 l -2.468,-4.175 c -3.985,2.594 -8.604,3.891 -13.855,3.891 -5.757,0 -10.09,-2.879 -13.001,-8.636 -2.341,-4.429 -3.574,-9.87 -3.701,-16.323 -0.126,-5.947 1.076,-11.451 3.606,-16.512 3.1,-6.137 7.339,-9.206 12.717,-9.206 3.1,0 5.947,0.538 8.541,1.614 1.581,0.569 4.523,2.088 8.825,4.555 l 2.657,-4.176 z"
             style="fill:none;stroke:#231f20;stroke-width:0.21600001;stroke-linecap:butt;stroke-linejoin:miter;stroke-miterlimit:22.9260006;stroke-opacity:1;stroke-dasharray:none"
             id="path34"
             inkscape:connector-curvature="0" /></g><g
           id="g36"
           transform="translate(521.5419,67.712)"><path
             d="M 0,0 C 0.602,0 1.119,-0.214 1.547,-0.642 1.975,-1.07 2.189,-1.582 2.189,-2.184 2.189,-2.786 1.975,-3.303 1.547,-3.736 1.119,-4.168 0.602,-4.387 0,-4.387 c -0.602,0 -1.114,0.219 -1.542,0.651 -0.428,0.433 -0.642,0.95 -0.642,1.552 0,0.602 0.214,1.114 0.642,1.542 C -1.114,-0.214 -0.602,0 0,0 m -10.316,3.571 c -0.876,0.194 -1.488,0.294 -1.836,0.294 -1.398,0 -2.542,-0.363 -3.422,-1.08 -0.885,-0.721 -1.328,-1.571 -1.328,-2.551 0,-1.622 0.955,-2.433 2.87,-2.433 1.398,0 2.636,0.667 3.716,1.995 l 0,3.775 z m 0.263,-5.874 c -1.109,-1.388 -2.805,-2.084 -5.083,-2.084 -1.229,0 -2.288,0.447 -3.189,1.333 -0.895,0.89 -1.348,1.994 -1.348,3.318 0,1.581 0.697,2.919 2.08,4.013 1.382,1.095 3.148,1.642 5.297,1.642 0.582,0 1.244,-0.129 1.98,-0.378 0,2.522 -1.125,3.785 -3.378,3.785 -1.731,0 -3.064,-0.462 -3.994,-1.398 l -1.169,2.318 c 0.527,0.428 1.254,0.791 2.179,1.1 0.93,0.308 1.815,0.457 2.661,0.457 2.263,0 3.91,-0.512 4.934,-1.542 1.025,-1.029 1.537,-2.665 1.537,-4.914 l 0,-5.596 c 0,-1.368 0.408,-2.283 1.224,-2.736 l 0,-1.387 c -1.129,0 -1.97,0.164 -2.527,0.482 -0.562,0.318 -0.96,0.851 -1.204,1.587 m -15.987,-1.791 0,13.276 -2.143,0 0,2.333 4.914,0 0,-15.609 -2.771,0 z m 1.518,21.508 c 0.472,0 0.88,-0.164 1.213,-0.502 0.339,-0.334 0.503,-0.736 0.503,-1.204 0,-0.472 -0.164,-0.88 -0.503,-1.214 -0.333,-0.338 -0.741,-0.502 -1.213,-0.502 -0.468,0 -0.871,0.164 -1.204,0.502 -0.333,0.334 -0.503,0.742 -0.503,1.214 0,0.478 0.165,0.881 0.498,1.214 0.328,0.328 0.731,0.492 1.209,0.492 m -9.561,-21.508 0,9.078 c 0,1.661 -0.248,2.825 -0.751,3.492 -0.497,0.666 -1.338,1 -2.512,1 -0.631,0 -1.293,-0.195 -1.984,-0.572 -0.687,-0.379 -1.219,-0.846 -1.587,-1.398 l 0,-11.6 -2.766,0 0,15.609 1.89,0 0.876,-2.015 c 0.915,1.537 2.407,2.303 4.477,2.303 3.417,0 5.128,-2.079 5.128,-6.237 l 0,-9.66 -2.771,0 z m -16.728,7.665 c -0.875,0.194 -1.487,0.294 -1.835,0.294 -1.398,0 -2.542,-0.363 -3.422,-1.08 -0.886,-0.721 -1.328,-1.571 -1.328,-2.551 0,-1.622 0.955,-2.433 2.87,-2.433 1.397,0 2.636,0.667 3.715,1.995 l 0,3.775 z m 0.264,-5.874 c -1.109,-1.388 -2.805,-2.084 -5.084,-2.084 -1.228,0 -2.288,0.447 -3.188,1.333 -0.895,0.89 -1.348,1.994 -1.348,3.318 0,1.581 0.696,2.919 2.079,4.013 1.383,1.095 3.149,1.642 5.298,1.642 0.582,0 1.243,-0.129 1.979,-0.378 0,2.522 -1.124,3.785 -3.377,3.785 -1.731,0 -3.064,-0.462 -3.994,-1.398 l -1.169,2.318 c 0.527,0.428 1.253,0.791 2.179,1.1 0.93,0.308 1.815,0.457 2.661,0.457 2.263,0 3.909,-0.512 4.934,-1.542 1.025,-1.029 1.537,-2.665 1.537,-4.914 l 0,-5.596 c 0,-1.368 0.408,-2.283 1.224,-2.736 l 0,-1.387 c -1.13,0 -1.97,0.164 -2.527,0.482 -0.562,0.318 -0.96,0.851 -1.204,1.587 M -66.096,7.899 c -0.701,1.049 -1.656,1.577 -2.87,1.577 -1.487,0 -2.691,-0.558 -3.606,-1.662 -0.92,-1.109 -1.378,-2.517 -1.378,-4.228 0,-3.76 1.706,-5.641 5.128,-5.641 0.438,0 0.96,0.14 1.572,0.418 0.612,0.274 1,0.567 1.154,0.881 l 0,8.655 z m 0,-11.978 0,1.149 c -0.965,-0.96 -2.363,-1.442 -4.198,-1.442 -1.955,0 -3.537,0.701 -4.75,2.099 -1.214,1.397 -1.821,3.263 -1.821,5.595 0,2.343 0.696,4.343 2.099,6 1.398,1.656 3.064,2.481 4.994,2.481 1.617,0 2.84,-0.378 3.676,-1.134 l 0,7.243 2.766,0 0,-21.991 -2.766,0 z m -17.021,7.65 c -0.876,0.194 -1.488,0.294 -1.836,0.294 -1.398,0 -2.542,-0.363 -3.422,-1.08 -0.885,-0.721 -1.328,-1.571 -1.328,-2.551 0,-1.622 0.955,-2.433 2.87,-2.433 1.398,0 2.636,0.667 3.716,1.995 l 0,3.775 z m 0.263,-5.874 c -1.109,-1.388 -2.805,-2.084 -5.083,-2.084 -1.229,0 -2.288,0.447 -3.189,1.333 -0.895,0.89 -1.348,1.994 -1.348,3.318 0,1.581 0.697,2.919 2.079,4.013 1.383,1.095 3.149,1.642 5.298,1.642 0.582,0 1.243,-0.129 1.98,-0.378 0,2.522 -1.125,3.785 -3.378,3.785 -1.731,0 -3.064,-0.462 -3.994,-1.398 l -1.169,2.318 c 0.527,0.428 1.254,0.791 2.179,1.1 0.93,0.308 1.815,0.457 2.661,0.457 2.263,0 3.91,-0.512 4.934,-1.542 1.025,-1.029 1.537,-2.665 1.537,-4.914 l 0,-5.596 c 0,-1.368 0.408,-2.283 1.224,-2.736 l 0,-1.387 c -1.129,0 -1.97,0.164 -2.527,0.482 -0.562,0.318 -0.96,0.851 -1.204,1.587 M -98.403,7.899 c -0.701,1.049 -1.656,1.577 -2.87,1.577 -1.487,0 -2.691,-0.558 -3.606,-1.662 -0.92,-1.109 -1.378,-2.517 -1.378,-4.228 0,-3.76 1.706,-5.641 5.129,-5.641 0.437,0 0.959,0.14 1.571,0.418 0.612,0.274 1,0.567 1.154,0.881 l 0,8.655 z m 0,-11.978 0,1.149 c -0.965,-0.96 -2.362,-1.442 -4.198,-1.442 -1.955,0 -3.537,0.701 -4.75,2.099 -1.214,1.397 -1.821,3.263 -1.821,5.595 0,2.343 0.697,4.343 2.099,6 1.398,1.656 3.065,2.481 4.994,2.481 1.617,0 2.841,-0.378 3.676,-1.134 l 0,7.243 2.766,0 0,-21.991 -2.766,0 z m -17.066,-0.015 0,13.276 -2.144,0 0,2.333 4.915,0 0,-15.609 -2.771,0 z m 1.517,21.508 c 0.473,0 0.881,-0.164 1.214,-0.502 0.338,-0.334 0.502,-0.736 0.502,-1.204 0,-0.472 -0.164,-0.88 -0.502,-1.214 -0.333,-0.338 -0.741,-0.502 -1.214,-0.502 -0.467,0 -0.87,0.164 -1.203,0.502 -0.334,0.334 -0.503,0.742 -0.503,1.214 0,0.478 0.164,0.881 0.497,1.214 0.329,0.328 0.732,0.492 1.209,0.492 m -5.859,-7.168 -1.373,-1.954 c -0.279,0.283 -0.776,0.552 -1.493,0.8 -0.716,0.254 -1.417,0.384 -2.103,0.384 -1.508,0 -2.702,-0.528 -3.587,-1.582 -0.885,-1.055 -1.328,-2.502 -1.328,-4.338 0,-1.825 0.453,-3.218 1.358,-4.173 0.9,-0.96 2.154,-1.438 3.76,-1.438 1.244,0 2.497,0.483 3.761,1.443 l 1.089,-2.333 c -1.487,-0.96 -3.327,-1.442 -5.521,-1.442 -2.129,0 -3.885,0.716 -5.278,2.144 -1.387,1.427 -2.084,3.362 -2.084,5.799 0,2.488 0.721,4.482 2.164,5.989 1.448,1.507 3.422,2.258 5.924,2.258 0.811,0 1.681,-0.169 2.626,-0.507 0.941,-0.343 1.637,-0.691 2.085,-1.05 m -30.616,-0.77 c -1.238,0 -2.273,-0.403 -3.109,-1.199 -0.796,-0.756 -1.243,-1.696 -1.353,-2.825 l 8.64,0 c 0,1.119 -0.348,2.049 -1.049,2.795 -0.766,0.821 -1.811,1.229 -3.129,1.229 m 6.715,-6.034 -11.251,0 c 0,-1.831 0.502,-3.233 1.502,-4.213 0.885,-0.855 2.019,-1.284 3.412,-1.284 1.582,0 2.905,0.463 3.964,1.383 l 1.164,-1.994 c -0.427,-0.428 -1.084,-0.796 -1.969,-1.109 -1.105,-0.408 -2.338,-0.612 -3.701,-0.612 -1.96,0 -3.626,0.666 -4.999,1.999 -1.522,1.468 -2.288,3.437 -2.288,5.915 0,2.576 0.786,4.64 2.348,6.192 1.397,1.393 3.054,2.084 4.969,2.084 2.223,0 3.969,-0.626 5.232,-1.88 1.224,-1.204 1.836,-2.8 1.836,-4.79 0,-0.617 -0.075,-1.179 -0.219,-1.691 m -19.876,4.457 c -0.701,1.049 -1.657,1.577 -2.87,1.577 -1.488,0 -2.691,-0.558 -3.606,-1.662 -0.921,-1.109 -1.378,-2.517 -1.378,-4.228 0,-3.76 1.706,-5.641 5.128,-5.641 0.438,0 0.96,0.14 1.572,0.418 0.612,0.274 1,0.567 1.154,0.881 l 0,8.655 z m 0,-11.978 0,1.149 c -0.965,-0.96 -2.363,-1.442 -4.198,-1.442 -1.955,0 -3.537,0.701 -4.751,2.099 -1.213,1.397 -1.82,3.263 -1.82,5.595 0,2.343 0.696,4.343 2.099,6 1.398,1.656 3.064,2.481 4.994,2.481 1.616,0 2.84,-0.378 3.676,-1.134 l 0,7.243 2.765,0 0,-21.991 -2.765,0 z m -28.736,13.555 c -1.238,0 -2.273,-0.403 -3.108,-1.199 -0.796,-0.756 -1.244,-1.696 -1.353,-2.825 l 8.64,0 c 0,1.119 -0.348,2.049 -1.05,2.795 -0.766,0.821 -1.81,1.229 -3.129,1.229 m 6.715,-6.034 -11.251,0 c 0,-1.831 0.502,-3.233 1.502,-4.213 0.886,-0.855 2.02,-1.284 3.413,-1.284 1.581,0 2.905,0.463 3.964,1.383 l 1.164,-1.994 c -0.428,-0.428 -1.085,-0.796 -1.97,-1.109 -1.104,-0.408 -2.338,-0.612 -3.701,-0.612 -1.96,0 -3.626,0.666 -4.999,1.999 -1.522,1.468 -2.288,3.437 -2.288,5.915 0,2.576 0.786,4.64 2.348,6.192 1.398,1.393 3.054,2.084 4.969,2.084 2.224,0 3.969,-0.626 5.233,-1.88 1.224,-1.204 1.835,-2.8 1.835,-4.79 0,-0.617 -0.074,-1.179 -0.219,-1.691 m -19.876,4.457 c -0.701,1.049 -1.656,1.577 -2.87,1.577 -1.487,0 -2.691,-0.558 -3.606,-1.662 -0.92,-1.109 -1.378,-2.517 -1.378,-4.228 0,-3.76 1.706,-5.641 5.128,-5.641 0.438,0 0.96,0.14 1.572,0.418 0.612,0.274 1,0.567 1.154,0.881 l 0,8.655 z m 0,-11.978 0,1.149 c -0.965,-0.96 -2.362,-1.442 -4.198,-1.442 -1.955,0 -3.537,0.701 -4.75,2.099 -1.214,1.397 -1.821,3.263 -1.821,5.595 0,2.343 0.697,4.343 2.099,6 1.398,1.656 3.064,2.481 4.994,2.481 1.617,0 2.841,-0.378 3.676,-1.134 l 0,7.243 2.766,0 0,-21.991 -2.766,0 z m -19.742,13.555 c -1.238,0 -2.273,-0.403 -3.109,-1.199 -0.796,-0.756 -1.243,-1.696 -1.353,-2.825 l 8.64,0 c 0,1.119 -0.348,2.049 -1.049,2.795 -0.766,0.821 -1.811,1.229 -3.129,1.229 m 6.715,-6.034 -11.251,0 c 0,-1.831 0.502,-3.233 1.502,-4.213 0.885,-0.855 2.019,-1.284 3.412,-1.284 1.582,0 2.905,0.463 3.964,1.383 l 1.164,-1.994 c -0.427,-0.428 -1.084,-0.796 -1.969,-1.109 -1.105,-0.408 -2.338,-0.612 -3.701,-0.612 -1.96,0 -3.626,0.666 -4.999,1.999 -1.522,1.468 -2.288,3.437 -2.288,5.915 0,2.576 0.786,4.64 2.348,6.192 1.397,1.393 3.054,2.084 4.969,2.084 2.223,0 3.969,-0.626 5.232,-1.88 1.224,-1.204 1.836,-2.8 1.836,-4.79 0,-0.617 -0.075,-1.179 -0.219,-1.691 m -16.26,5.407 c -0.602,0.418 -1.214,0.627 -1.826,0.627 -0.98,0 -1.835,-0.453 -2.571,-1.358 -0.732,-0.906 -1.1,-1.99 -1.1,-3.263 l 0,-8.949 -2.77,0 0,15.609 2.77,0 0,-2.492 c 1.01,1.855 2.512,2.78 4.502,2.78 0.497,0 1.213,-0.084 2.144,-0.258 l -1.149,-2.696 z m -24.602,-5.278 c -0.876,0.194 -1.488,0.294 -1.836,0.294 -1.397,0 -2.542,-0.363 -3.422,-1.08 -0.885,-0.721 -1.328,-1.571 -1.328,-2.551 0,-1.622 0.955,-2.433 2.87,-2.433 1.398,0 2.636,0.667 3.716,1.995 l 0,3.775 z m 0.263,-5.874 c -1.109,-1.388 -2.805,-2.084 -5.083,-2.084 -1.229,0 -2.288,0.447 -3.189,1.333 -0.895,0.89 -1.348,1.994 -1.348,3.318 0,1.581 0.697,2.919 2.08,4.013 1.382,1.095 3.148,1.642 5.297,1.642 0.582,0 1.244,-0.129 1.98,-0.378 0,2.522 -1.124,3.785 -3.378,3.785 -1.731,0 -3.064,-0.462 -3.994,-1.398 l -1.169,2.318 c 0.527,0.428 1.254,0.791 2.179,1.1 0.93,0.308 1.816,0.457 2.661,0.457 2.263,0 3.91,-0.512 4.934,-1.542 1.025,-1.029 1.537,-2.665 1.537,-4.914 l 0,-5.596 c 0,-1.368 0.408,-2.283 1.224,-2.736 l 0,-1.387 c -1.129,0 -1.97,0.164 -2.527,0.482 -0.562,0.318 -0.96,0.851 -1.204,1.587 m -19.657,11.629 -1.811,0 0,2.189 1.811,0 0,3.263 2.765,1.064 0,-4.327 4.288,0 0,-2.189 -4.288,0 0,-7.749 c 0,-1.313 0.224,-2.249 0.667,-2.801 0.442,-0.552 1.154,-0.831 2.133,-0.831 0.707,0 1.443,0.18 2.199,0.543 l 0.408,-2.438 c -1.144,-0.288 -2.402,-0.437 -3.77,-0.437 -1.239,0 -2.278,0.463 -3.129,1.377 -0.851,0.921 -1.273,2.08 -1.273,3.477 l 0,8.859 z m -14.097,-12.485 0.98,2.622 c 1.542,-1.01 2.785,-1.518 3.731,-1.518 1.705,0 2.561,0.722 2.561,2.159 0,1.03 -0.825,1.915 -2.477,2.652 -1.273,0.581 -2.129,1.024 -2.572,1.328 -0.442,0.298 -0.825,0.641 -1.149,1.024 -0.328,0.383 -0.567,0.791 -0.731,1.224 -0.159,0.433 -0.238,0.895 -0.238,1.393 0,1.283 0.467,2.283 1.397,3.004 0.935,0.716 2.154,1.074 3.661,1.074 1.134,0 2.567,-0.358 4.298,-1.074 l -0.786,-2.567 c -1.099,0.876 -2.204,1.314 -3.308,1.314 -0.662,0 -1.219,-0.16 -1.671,-0.468 -0.453,-0.313 -0.677,-0.706 -0.677,-1.184 0,-1 0.567,-1.756 1.706,-2.273 l 1.98,-0.9 c 1.214,-0.558 2.099,-1.184 2.651,-1.895 0.557,-0.712 0.831,-1.597 0.831,-2.667 0,-1.397 -0.487,-2.496 -1.472,-3.287 -0.98,-0.791 -2.338,-1.189 -4.079,-1.189 -1.642,0 -3.189,0.408 -4.636,1.228 m -8.824,12.635 c -1.238,0 -2.273,-0.403 -3.109,-1.199 -0.796,-0.756 -1.243,-1.696 -1.353,-2.825 l 8.64,0 c 0,1.119 -0.348,2.049 -1.049,2.795 -0.766,0.821 -1.811,1.229 -3.129,1.229 m 6.715,-6.034 -11.251,0 c 0,-1.831 0.502,-3.233 1.502,-4.213 0.885,-0.855 2.019,-1.284 3.412,-1.284 1.582,0 2.905,0.463 3.964,1.383 l 1.164,-1.994 c -0.427,-0.428 -1.084,-0.796 -1.969,-1.109 -1.105,-0.408 -2.338,-0.612 -3.701,-0.612 -1.96,0 -3.626,0.666 -4.999,1.999 -1.522,1.468 -2.288,3.437 -2.288,5.915 0,2.576 0.786,4.64 2.348,6.192 1.397,1.393 3.054,2.084 4.969,2.084 2.223,0 3.969,-0.626 5.232,-1.88 1.224,-1.204 1.836,-2.8 1.836,-4.79 0,-0.617 -0.075,-1.179 -0.219,-1.691 m -19.876,4.457 c -0.702,1.049 -1.657,1.577 -2.87,1.577 -1.488,0 -2.691,-0.558 -3.607,-1.662 -0.92,-1.109 -1.377,-2.517 -1.377,-4.228 0,-3.76 1.706,-5.641 5.128,-5.641 0.438,0 0.96,0.14 1.572,0.418 0.611,0.274 1,0.567 1.154,0.881 l 0,8.655 z m 0,-11.978 0,1.149 c -0.965,-0.96 -2.363,-1.442 -4.198,-1.442 -1.955,0 -3.537,0.701 -4.751,2.099 -1.213,1.397 -1.82,3.263 -1.82,5.595 0,2.343 0.696,4.343 2.099,6 1.397,1.656 3.064,2.481 4.994,2.481 1.616,0 2.84,-0.378 3.676,-1.134 l 0,7.243 2.765,0 0,-21.991 -2.765,0 z m -28.736,13.555 c -1.238,0 -2.273,-0.403 -3.108,-1.199 -0.796,-0.756 -1.244,-1.696 -1.353,-2.825 l 8.64,0 c 0,1.119 -0.348,2.049 -1.05,2.795 -0.766,0.821 -1.811,1.229 -3.129,1.229 m 6.715,-6.034 -11.251,0 c 0,-1.831 0.502,-3.233 1.502,-4.213 0.886,-0.855 2.02,-1.284 3.413,-1.284 1.581,0 2.904,0.463 3.964,1.383 l 1.164,-1.994 c -0.428,-0.428 -1.085,-0.796 -1.97,-1.109 -1.104,-0.408 -2.338,-0.612 -3.701,-0.612 -1.96,0 -3.626,0.666 -4.999,1.999 -1.522,1.468 -2.288,3.437 -2.288,5.915 0,2.576 0.786,4.64 2.348,6.192 1.398,1.393 3.054,2.084 4.969,2.084 2.224,0 3.969,-0.626 5.233,-1.88 1.223,-1.204 1.835,-2.8 1.835,-4.79 0,-0.617 -0.074,-1.179 -0.219,-1.691 m -27.004,4.705 0,-9.092 c 0.174,-0.264 0.547,-0.513 1.109,-0.751 0.562,-0.239 1.11,-0.359 1.647,-0.359 3.437,0 5.158,1.946 5.158,5.83 0,1.975 -0.408,3.417 -1.224,4.328 -0.815,0.915 -2.124,1.373 -3.919,1.373 -0.388,0 -0.866,-0.14 -1.428,-0.408 -0.567,-0.274 -1.01,-0.582 -1.343,-0.921 m 0,-11.38 0,-6.979 -2.765,0 0,21.727 2.765,0 0,-1.283 c 1.05,1.049 2.318,1.571 3.805,1.571 2.214,0 3.94,-0.686 5.173,-2.069 1.234,-1.378 1.851,-3.397 1.851,-6.058 0,-2.373 -0.622,-4.308 -1.865,-5.81 -1.244,-1.502 -3.04,-2.253 -5.393,-2.253 -0.661,0 -1.367,0.119 -2.118,0.353 -0.756,0.234 -1.239,0.497 -1.453,0.801 m -9.938,-0.861 0,13.276 -2.144,0 0,2.333 4.914,0 0,-15.609 -2.77,0 z m 1.517,21.508 c 0.472,0 0.88,-0.164 1.214,-0.502 0.338,-0.334 0.502,-0.736 0.502,-1.204 0,-0.472 -0.164,-0.88 -0.502,-1.214 -0.334,-0.338 -0.742,-0.502 -1.214,-0.502 -0.467,0 -0.871,0.164 -1.204,0.502 -0.333,0.334 -0.502,0.742 -0.502,1.214 0,0.478 0.164,0.881 0.497,1.214 0.329,0.328 0.732,0.492 1.209,0.492 m -5.86,-7.168 -1.372,-1.954 c -0.279,0.283 -0.776,0.552 -1.493,0.8 -0.716,0.254 -1.417,0.384 -2.104,0.384 -1.507,0 -2.701,-0.528 -3.586,-1.582 -0.885,-1.055 -1.328,-2.502 -1.328,-4.338 0,-1.825 0.453,-3.218 1.358,-4.173 0.9,-0.96 2.153,-1.438 3.76,-1.438 1.244,0 2.497,0.483 3.761,1.443 l 1.089,-2.333 c -1.487,-0.96 -3.328,-1.442 -5.521,-1.442 -2.129,0 -3.885,0.716 -5.278,2.144 -1.388,1.427 -2.084,3.362 -2.084,5.799 0,2.488 0.721,4.482 2.164,5.989 1.447,1.507 3.422,2.258 5.924,2.258 0.811,0 1.681,-0.169 2.626,-0.507 0.94,-0.343 1.637,-0.691 2.084,-1.05 m -18.946,-14.34 0,13.276 -2.144,0 0,2.333 4.915,0 0,-15.609 -2.771,0 z m 1.517,21.508 c 0.473,0 0.881,-0.164 1.214,-0.502 0.338,-0.334 0.502,-0.736 0.502,-1.204 0,-0.472 -0.164,-0.88 -0.502,-1.214 -0.333,-0.338 -0.741,-0.502 -1.214,-0.502 -0.467,0 -0.87,0.164 -1.204,0.502 -0.333,0.334 -0.502,0.742 -0.502,1.214 0,0.478 0.164,0.881 0.497,1.214 0.329,0.328 0.732,0.492 1.209,0.492 m -13.699,-8.088 -1.81,0 0,2.189 1.81,0 0,3.263 2.766,1.064 0,-4.327 4.288,0 0,-2.189 -4.288,0 0,-7.749 c 0,-1.313 0.224,-2.249 0.667,-2.801 0.442,-0.552 1.154,-0.831 2.133,-0.831 0.707,0 1.443,0.18 2.199,0.543 l 0.408,-2.438 c -1.144,-0.288 -2.403,-0.437 -3.771,-0.437 -1.238,0 -2.278,0.463 -3.128,1.377 -0.851,0.921 -1.274,2.08 -1.274,3.477 l 0,8.859 z m -4.108,-0.477 c -0.602,0.418 -1.214,0.627 -1.826,0.627 -0.98,0 -1.835,-0.453 -2.572,-1.358 -0.731,-0.906 -1.099,-1.99 -1.099,-3.263 l 0,-8.949 -2.77,0 0,15.609 2.77,0 0,-2.492 c 1.01,1.855 2.512,2.78 4.502,2.78 0.497,0 1.213,-0.084 2.144,-0.258 l -1.149,-2.696 z m -15.609,-5.278 c -0.875,0.194 -1.487,0.294 -1.836,0.294 -1.397,0 -2.541,-0.363 -3.422,-1.08 -0.885,-0.721 -1.328,-1.571 -1.328,-2.551 0,-1.622 0.955,-2.433 2.87,-2.433 1.398,0 2.636,0.667 3.716,1.995 l 0,3.775 z m 0.263,-5.874 c -1.109,-1.388 -2.805,-2.084 -5.083,-2.084 -1.229,0 -2.288,0.447 -3.189,1.333 -0.895,0.89 -1.347,1.994 -1.347,3.318 0,1.581 0.696,2.919 2.079,4.013 1.382,1.095 3.148,1.642 5.297,1.642 0.582,0 1.244,-0.129 1.98,-0.378 0,2.522 -1.124,3.785 -3.378,3.785 -1.73,0 -3.064,-0.462 -3.994,-1.398 l -1.169,2.318 c 0.528,0.428 1.254,0.791 2.179,1.1 0.93,0.308 1.816,0.457 2.661,0.457 2.263,0 3.91,-0.512 4.934,-1.542 1.025,-1.029 1.537,-2.665 1.537,-4.914 l 0,-5.596 c 0,-1.368 0.408,-2.283 1.224,-2.736 l 0,-1.387 c -1.129,0 -1.97,0.164 -2.527,0.482 -0.562,0.318 -0.96,0.851 -1.204,1.587 m -20.931,16.937 0,-7.884 c 1.234,-0.1 1.886,-0.15 1.955,-0.15 3.616,0 5.422,1.428 5.422,4.273 0,2.602 -1.93,3.905 -5.785,3.905 -0.388,0 -0.92,-0.05 -1.592,-0.144 m 0,-10.511 0,-8.217 -2.914,0 0,21.349 c 2.208,0.1 3.536,0.144 3.994,0.144 6.198,0 9.296,-2.074 9.296,-6.222 0,-4.8 -2.735,-7.198 -8.217,-7.198 -0.328,0 -1.049,0.05 -2.159,0.144"
             style="fill:#f47216;fill-opacity:1;fill-rule:evenodd;stroke:none"
             id="path38"
             inkscape:connector-curvature="0" /></g></g></g></g></svg>