<?xml version="1.0" encoding="UTF-8" standalone="no"?>
<!-- Created with Inkscape (http://www.inkscape.org/) -->

<svg
   xmlns:dc="http://purl.org/dc/elements/1.1/"
   xmlns:cc="http://creativecommons.org/ns#"
   xmlns:rdf="http://www.w3.org/1999/02/22-rdf-syntax-ns#"
   xmlns:svg="http://www.w3.org/2000/svg"
   xmlns="http://www.w3.org/2000/svg"
   xmlns:sodipodi="http://sodipodi.sourceforge.net/DTD/sodipodi-0.dtd"
   xmlns:inkscape="http://www.inkscape.org/namespaces/inkscape"
   width="180"
   height="100"
   id="svg2"
   sodipodi:version="0.32"
   inkscape:version="0.48.5 r10040"
   sodipodi:docname="logo-grupy.svg"
   inkscape:output_extension="org.inkscape.output.svg.inkscape"
   version="1.1"
   inkscape:export-filename="/media/phls/SAMSUNG/backup-notebook-phls-2016-02-01/phls/eventos/flisol/2016/logos/logo-grupy.png"
   inkscape:export-xdpi="90"
   inkscape:export-ydpi="90">
  <defs
     id="defs4">
    <inkscape:perspective
       sodipodi:type="inkscape:persp3d"
       inkscape:vp_x="0 : 526.18109 : 1"
       inkscape:vp_y="0 : 1000 : 0"
       inkscape:vp_z="744.09448 : 526.18109 : 1"
       inkscape:persp3d-origin="372.04724 : 350.78739 : 1"
       id="perspective10" />
  </defs>
  <sodipodi:namedview
     id="base"
     pagecolor="#ffffff"
     bordercolor="#666666"
     borderopacity="1.0"
     inkscape:pageopacity="0.0"
     inkscape:pageshadow="2"
     inkscape:zoom="1.7231349"
     inkscape:cx="230.48726"
     inkscape:cy="185.72596"
     inkscape:document-units="px"
     inkscape:current-layer="g3224"
     showgrid="false"
     showguides="true"
     inkscape:guide-bbox="true"
     inkscape:window-width="1920"
     inkscape:window-height="1022"
     inkscape:window-x="0"
     inkscape:window-y="0"
     inkscape:window-maximized="1" />
  <metadata
     id="metadata7">
    <rdf:RDF>
      <cc:Work
         rdf:about="">
        <dc:format>image/svg+xml</dc:format>
        <dc:type
           rdf:resource="http://purl.org/dc/dcmitype/StillImage" />
        <dc:title></dc:title>
      </cc:Work>
    </rdf:RDF>
  </metadata>
  <g
     inkscape:label="Camada 1"
     inkscape:groupmode="layer"
     id="layer1"
     transform="translate(0,-952.36218)">
    <g
       id="g3195"
       transform="translate(23.595739,-32.623673)"
       style="stroke:#cccccf">
      <g
         id="g3224"
         transform="translate(3.8984263,-13.952263)"
         style="stroke:#cccccf">
        <g
           id="g6256"
           transform="matrix(1.1733433,0,0,1.1733433,-311.21653,337.6683)"
           style="stroke-width:0.85226548">
          <path
             sodipodi:nodetypes="ccccsscccccccccssscsccccssscccccsscscccsssccccccsssccssscccsccscccscccscccccc"
             id="text2387"
             d="m 275.50785,601.13712 -0.36762,3.81358 c 1.34794,-2.73231 3.30094,-4.17883 5.859,-4.33959 l 0,10.23529 c -1.70027,2e-5 -2.94866,0.21919 -3.74517,0.65751 -0.79652,0.43836 -1.28668,1.05204 -1.47049,1.84103 -0.18382,0.77443 -0.27573,2.57163 -0.27572,5.39161 l 0,11.48456 -9.28249,0 0,-29.08399 9.28249,0 m 28.78953,0 0,29.08399 -9.44334,0 0.16084,-2.41088 c -0.64335,0.97896 -1.43987,1.71684 -2.38955,2.21363 -0.93439,0.48217 -2.01429,0.72326 -3.23969,0.72326 -1.39391,0 -2.55039,-0.23378 -3.46944,-0.70135 -0.91907,-0.46756 -1.60071,-1.08854 -2.04491,-1.86295 -0.42889,-0.7744 -0.69695,-1.57803 -0.80418,-2.41088 -0.10722,-0.84746 -0.16083,-2.52046 -0.16083,-5.01902 l 0,-19.6158 9.2825,0 0,19.79114 c -1e-5,2.26477 0.0689,3.60902 0.20678,4.03275 0.15316,0.42373 0.55143,0.6356 1.19478,0.63559 0.68928,1e-5 1.0952,-0.21916 1.21776,-0.65751 0.13783,-0.43834 0.20677,-1.84834 0.20678,-4.23 l 0,-19.57197 9.2825,0 m 12.82087,0 -0.16083,2.5643 c 0.82714,-1.03738 1.73854,-1.81178 2.7342,-2.32321 0.99563,-0.51137 2.08318,-0.76707 3.26265,-0.7671 1.43985,3e-5 2.68058,0.37262 3.72219,1.11777 1.0569,0.7306 1.71556,1.57806 1.97598,2.54239 0.26039,0.96437 0.39058,2.60085 0.3906,4.90943 l 0,12.25165 c -2e-5,2.64467 -0.16851,4.52954 -0.50548,5.65461 -0.32169,1.11047 -0.99566,2.00177 -2.02193,2.67389 -1.01099,0.65751 -2.2364,0.98627 -3.67623,0.98627 -1.14884,0 -2.21342,-0.2557 -3.19374,-0.7671 -0.98034,-0.5114 -1.87642,-1.27119 -2.68824,-2.27938 l 0,6.6628 -9.2825,0 0,-33.22632 9.44333,0 m 2.6423,8.46 c -2e-5,-1.79718 -0.069,-2.88573 -0.20679,-3.26565 -0.13787,-0.37987 -0.52082,-0.56982 -1.14882,-0.56984 -0.61272,2e-5 -1.01098,0.21919 -1.19478,0.65751 -0.16851,0.43837 -0.25275,1.49769 -0.25274,3.17798 l 0,12.0544 c -1e-5,1.75338 0.0919,2.84923 0.27572,3.28757 0.18379,0.43835 0.58206,0.65752 1.19478,0.65751 0.59737,1e-5 0.96499,-0.19725 1.10287,-0.59176 0.15316,-0.40911 0.22974,-1.38808 0.22976,-2.93689 l 0,-12.47083 m 31.79943,-8.46 c 0,0 -0.97966,7.7337 -1.39951,11.04815 -0.37973,2.99768 -1.26576,9.99227 -1.26576,9.99227 -0.41359,3.3314 -0.7659,5.60347 -1.05692,6.81621 -0.27573,1.21275 -0.74291,2.21363 -1.40156,3.00264 -0.65867,0.78902 -1.57774,1.36617 -2.75718,1.73146 -1.16415,0.37989 -3.03291,0.56984 -5.60625,0.56984 l -5.62924,0 c 0,0 -5.10139,-0.7836 -9.01824,4.98115 -1.51589,2.23107 -1.7788,5.47705 -1.7788,5.47705 0,0 -1.76086,-6.64076 4.25616,-11.92703 2.43496,-2.18107 6.26922,-2.98546 9.32103,-3.37485 0.41357,-0.14611 0.62036,-0.46026 0.62037,-0.94243 -1e-5,-0.23378 -0.19148,-1.24928 -0.57442,-3.04648 l -5.0778,-24.32798 8.43237,0 3.0329,19.6158 1.47049,-19.6158 8.43236,0"
             style="font-size:44.88621521px;font-style:normal;font-variant:normal;font-weight:normal;font-stretch:condensed;text-align:start;line-height:125%;writing-mode:lr-tb;text-anchor:start;fill:#002b3d;fill-opacity:1;stroke:none;font-family:Impact;-inkscape-font-specification:Impact Condensed"
             inkscape:connector-curvature="0" />
          <path
             style="fill:#002b3d;fill-opacity:1;fill-rule:nonzero;stroke:none;stroke-width:0.2;marker:none;visibility:visible;display:inline;overflow:visible;enable-background:accumulate"
             d="m 364.5625,533.15625 c -2.15954,-0.0306 -4.38897,0.63573 -6.03125,2.875 -1.69639,2.31306 1.01593,5.50319 0.75,4.8125 -2.46735,-6.40818 7.17608,4.27167 9,-1.1875 0.50001,-1.49655 0.60938,2.67676 -1.4375,4.5625 -0.39335,0.36238 -2.87792,3.2503 -4.84375,0.40625 -0.91678,-1.32632 1.50001,2.59374 1.5,2.59375 0,0 9.19474,-8.01731 8.1875,3.28125 -0.8341,9.35652 -9.5625,14.24997 -9.5625,14.25 l 10.09375,-0.0937 c 0,0 5.14889,-6.96034 5.3125,-15.15625 0.16747,-8.47275 -6,-14.28126 -6,-14.28125 0,0 -3.36952,-2.01147 -6.96875,-2.0625 z m 0.6875,2.25 c 1.04113,0 1.90624,0.86512 1.90625,1.90625 l -1.90625,0 -1.875,0 c 0,-1.04113 0.83388,-1.90624 1.875,-1.90625 z"
             transform="translate(-20.107673,34.470296)"
             id="rect2414"
             sodipodi:nodetypes="cssssscscccccccccc"
             inkscape:connector-curvature="0" />
          <path
             style="fill:#339900;fill-opacity:1;fill-rule:nonzero;stroke:none;stroke-width:0.2;marker:none;visibility:visible;display:inline;overflow:visible;enable-background:accumulate"
             d="m 356.65625,544.375 c -2.31544,0.0328 -4.46875,1.3125 -4.46875,1.3125 -10e-6,-2e-5 -3.98273,3.73686 -3.875,9.1875 0.10525,5.27256 1.65625,9.75 1.65625,9.75 l 9.71875,0.15625 c -10e-6,-10e-6 -7.05717,-3.23081 -7.59375,-9.25 -0.64795,-7.26852 5.25,-2.125 5.25,-2.125 -10e-6,2e-5 0.87343,-1.42997 1.0625,-1.78125 -0.0215,0.0277 -0.0452,0.0235 -0.0937,0.0937 -1.26465,1.82962 -2.87195,-0.0169 -3.125,-0.25 -1.31677,-1.21312 -1.22792,-3.86901 -0.90625,-2.90625 1.17337,3.51193 7.36853,-3.37247 5.78125,0.75 -0.17107,0.44431 1.59131,-1.60573 0.5,-3.09375 -1.0565,-1.44056 -2.51699,-1.86345 -3.90625,-1.84375 z m 0,1.21875 c 0.97779,0 1.78123,0.80345 1.78125,1.78125 l -1.78125,0 -1.78125,0 c 0,-0.97779 0.80345,-1.78126 1.78125,-1.78125 z"
             transform="translate(-20.107673,34.470296)"
             id="path3189"
             inkscape:connector-curvature="0" />
          <text
             xml:space="preserve"
             style="font-size:45.13033676px;font-style:normal;font-variant:normal;font-weight:normal;font-stretch:condensed;text-align:start;line-height:125%;writing-mode:lr-tb;text-anchor:start;fill:#339900;fill-opacity:1;stroke:none;font-family:Impact;-inkscape-font-specification:Impact Condensed"
             x="346.56525"
             y="640.96686"
             id="text3220"
             sodipodi:linespacing="125%"
             transform="scale(1.0172324,0.9830596)"><tspan
               sodipodi:role="line"
               id="tspan3222"
               x="346.56525"
               y="640.96686">pr</tspan></text>
          <path
             id="text3237"
             d="m 264.46069,601.35423 0,21.81899 c -3e-5,2.9462 -0.0712,4.85341 -0.2135,5.72161 -0.12811,0.85397 -0.60492,1.75776 -1.4304,2.71136 -0.82553,0.96783 -1.97839,1.70082 -3.45859,2.19898 -1.466,0.51238 -3.31627,0.76857 -5.55082,0.76857 -2.74695,0 -4.95304,-0.46969 -6.61828,-1.40905 -1.66525,-0.92514 -2.52634,-2.75406 -2.58327,-5.48677 l 8.36893,0 c -1e-5,1.25249 0.45544,1.87874 1.36636,1.87874 0.6547,0 1.0888,-0.19215 1.3023,-0.57643 0.21348,-0.38429 0.32023,-1.18845 0.32024,-2.41247 l 0,-2.13494 c -0.74012,0.66895 -1.52293,1.17422 -2.34842,1.51581 -0.81128,0.34159 -1.66526,0.51238 -2.56192,0.51238 -1.55139,0 -2.83234,-0.31312 -3.84287,-0.93937 -0.99631,-0.62624 -1.67948,-1.44463 -2.04954,-2.45517 -0.37005,-1.02476 -0.55508,-2.47651 -0.55508,-4.35526 l 0,-10.29036 c 0,-2.68999 0.48392,-4.62566 1.45176,-5.80701 0.96783,-1.1813 2.44093,-1.77197 4.4193,-1.772 1.08169,3e-5 2.06376,0.22064 2.94621,0.66183 0.89666,0.44125 1.6937,1.10308 2.39112,1.98549 l 0.61913,-2.13493 8.02734,0 m -8.64647,7.51495 c -2e-5,-1.29517 -0.0783,-2.12067 -0.23484,-2.47652 -0.14235,-0.35579 -0.4697,-0.53371 -0.98207,-0.53373 -0.49816,2e-5 -0.85399,0.2064 -1.06747,0.61913 -0.19927,0.39854 -0.2989,1.19558 -0.29889,2.39112 l 0,9.52179 c -1e-5,1.26674 0.0783,2.09224 0.23484,2.47652 0.15656,0.37006 0.48391,0.55509 0.98207,0.55508 0.56931,1e-5 0.93936,-0.22771 1.11017,-0.68317 0.17078,-0.45545 0.25617,-1.48733 0.25619,-3.09565 l 0,-8.77457"
             style="font-size:43.72337341px;font-style:normal;font-variant:normal;font-weight:normal;font-stretch:condensed;text-align:start;line-height:125%;writing-mode:lr-tb;text-anchor:start;fill:#002b3d;fill-opacity:1;stroke:none;font-family:Impact;-inkscape-font-specification:Impact Condensed"
             inkscape:connector-curvature="0" />
        </g>
      </g>
    </g>
  </g>
</svg>
