<?xml version="1.0" encoding="UTF-8" standalone="no"?>
<!-- Generator: Adobe Illustrator 16.0.0, SVG Export Plug-In . SVG Version: 6.00 Build 0)  -->

<svg
   xmlns:dc="http://purl.org/dc/elements/1.1/"
   xmlns:cc="http://creativecommons.org/ns#"
   xmlns:rdf="http://www.w3.org/1999/02/22-rdf-syntax-ns#"
   xmlns:svg="http://www.w3.org/2000/svg"
   xmlns="http://www.w3.org/2000/svg"
   xmlns:sodipodi="http://sodipodi.sourceforge.net/DTD/sodipodi-0.dtd"
   xmlns:inkscape="http://www.inkscape.org/namespaces/inkscape"
   version="1.1"
   id="source_1_"
   x="0px"
   y="0px"
   width="180"
   height="110"
   viewBox="0 0 180 110"
   enable-background="new 0 0 615.826 408"
   xml:space="preserve"
   inkscape:version="0.48.5 r10040"
   sodipodi:docname="logo-wpcwb.svg"
   inkscape:export-filename="/media/phls/SAMSUNG/backup-notebook-phls-2016-02-01/phls/eventos/flisol/2016/logos/logo-wpcwb.png"
   inkscape:export-xdpi="90"
   inkscape:export-ydpi="90"><metadata
     id="metadata163"><rdf:RDF><cc:Work
         rdf:about=""><dc:format>image/svg+xml</dc:format><dc:type
           rdf:resource="http://purl.org/dc/dcmitype/StillImage" /><dc:title /></cc:Work></rdf:RDF></metadata><defs
     id="defs161" /><sodipodi:namedview
     pagecolor="#ffffff"
     bordercolor="#666666"
     borderopacity="1"
     objecttolerance="10"
     gridtolerance="10"
     guidetolerance="10"
     inkscape:pageopacity="0"
     inkscape:pageshadow="2"
     inkscape:window-width="1920"
     inkscape:window-height="1022"
     id="namedview159"
     showgrid="false"
     inkscape:zoom="1.636051"
     inkscape:cx="151.22892"
     inkscape:cy="81.754421"
     inkscape:window-x="0"
     inkscape:window-y="0"
     inkscape:window-maximized="1"
     inkscape:current-layer="source_1_" /><linearGradient
     id="SVGID_1_"
     gradientUnits="userSpaceOnUse"
     x1="911.37518"
     y1="-233.36771"
     x2="919.21777"
     y2="-143.7267"
     gradientTransform="matrix(0.9791,0.0057,0.0059,-1,-397.2033,2.6931635)"><stop
       offset="0"
       style="stop-color:#761A1A"
       id="stop31" /><stop
       offset="0.0762"
       style="stop-color:#861C1C"
       id="stop33" /><stop
       offset="0.1963"
       style="stop-color:#971E1E"
       id="stop35" /><stop
       offset="0.3421"
       style="stop-color:#A42020"
       id="stop37" /><stop
       offset="0.5383"
       style="stop-color:#AB2121"
       id="stop39" /><stop
       offset="1"
       style="stop-color:#AD2121"
       id="stop41" /></linearGradient><linearGradient
     id="SVGID_2_"
     gradientUnits="userSpaceOnUse"
     x1="508.85379"
     y1="-230.2549"
     x2="508.85379"
     y2="-158.7095"
     gradientTransform="matrix(0.9985,-0.055,-0.055,-0.9985,-418.0491,29.380963)"><stop
       offset="0"
       style="stop-color:#761A1A"
       id="stop46" /><stop
       offset="0.0762"
       style="stop-color:#861C1C"
       id="stop48" /><stop
       offset="0.1963"
       style="stop-color:#971E1E"
       id="stop50" /><stop
       offset="0.3421"
       style="stop-color:#A42020"
       id="stop52" /><stop
       offset="0.5383"
       style="stop-color:#AB2121"
       id="stop54" /><stop
       offset="1"
       style="stop-color:#AD2121"
       id="stop56" /></linearGradient><linearGradient
     id="SVGID_3_"
     gradientUnits="userSpaceOnUse"
     x1="890.85773"
     y1="-204.3535"
     x2="887.49707"
     y2="-231.72321"
     gradientTransform="matrix(0.9791,0.0057,0.0059,-1,-397.2033,230.69317)"><stop
       offset="0"
       style="stop-color:#4C1111"
       id="stop61" /><stop
       offset="1"
       style="stop-color:#6A1413"
       id="stop63" /></linearGradient><linearGradient
     id="SVGID_4_"
     gradientUnits="userSpaceOnUse"
     x1="536.87921"
     y1="-222.83501"
     x2="554.96118"
     y2="-222.83501"
     gradientTransform="matrix(0.9985,-0.055,-0.055,-0.9985,-418.0491,257.38097)"><stop
       offset="0"
       style="stop-color:#4C1111"
       id="stop68" /><stop
       offset="1"
       style="stop-color:#6A1413"
       id="stop70" /></linearGradient><g
     id="g3140"
     transform="matrix(0.29935799,0,0,0.29935799,-0.77962094,64.402834)"><path
       style="fill:#ffffff"
       inkscape:connector-curvature="0"
       id="path3"
       d="m 592.151,-31.394 c -0.974,-3.513 -3.303,-6.26 -6.37,-7.685 -0.917,-0.447 -1.999,-0.783 -3.271,-0.961 -0.219,-0.03 -0.473,-0.065 -0.787,-0.086 -0.195,-0.016 -0.378,-0.026 -0.547,-0.033 -1.273,-0.508 -2.606,-0.851 -3.949,-1.011 -0.77,-0.4 -1.473,-0.662 -2.025,-0.847 -0.113,-0.107 -0.238,-0.221 -0.375,-0.341 -0.078,-0.269 -0.171,-0.542 -0.277,-0.818 -1.502,-3.878 -4.963,-6.811 -9.261,-7.846 -0.313,-0.075 -0.631,-0.136 -0.952,-0.183 -1.226,-0.897 -2.437,-1.423 -3.391,-1.765 -1.311,-3.187 -4.01,-5.833 -7.46,-7.052 -0.295,-0.104 -0.576,-0.19 -0.837,-0.261 -4.124,-4.464 -9.423,-6.92 -14.937,-6.92 -0.882,0 -1.771,0.064 -2.645,0.192 -1.104,0.161 -2.013,0.403 -2.676,0.58 -0.02,0.005 -0.036,0.01 -0.055,0.015 -0.292,-0.07 -0.581,-0.135 -0.867,-0.2 -0.543,-0.123 -1.287,-0.291 -1.463,-0.373 -1.255,-0.792 -2.418,-1.208 -3.276,-1.455 -0.557,-0.378 -1.3,-0.816 -2.229,-1.171 -0.639,-0.244 -1.231,-0.401 -1.737,-0.51 -0.707,-0.535 -1.71,-1.199 -3.018,-1.708 -2.474,-0.965 -4.854,-1.217 -6.766,-1.419 l -0.798,-0.087 c -0.983,-0.114 -2.141,-0.235 -3.405,-0.235 -2.739,0 -5.195,0.597 -7.307,1.774 -0.983,0.09 -2.244,0.31 -3.61,0.884 -0.266,0.111 -0.529,0.234 -0.794,0.363 -0.904,0.023 -2.181,0.114 -3.646,0.571 -1.608,0.503 -2.865,1.279 -3.772,1.943 -0.91,-0.169 -2.064,-0.352 -3.389,-0.352 -0.814,0 -1.621,0.07 -2.39,0.208 -0.18,0.032 -0.358,0.068 -0.538,0.108 -0.979,-0.21 -1.911,-0.348 -2.824,-0.418 -0.438,-0.034 -0.871,-0.05 -1.3,-0.05 -0.288,0 -0.571,0.007 -0.85,0.021 0.002,-0.351 0.003,-0.702 0.003,-1.054 0,-4.271 -0.021,-8.597 -0.041,-12.906 -0.021,-4.247 -0.041,-8.478 -0.041,-12.62 0,-0.964 0.007,-1.93 0.016,-2.897 0.033,-4.68 0.068,-9.52 -0.64,-14.526 -1.319,-9.348 -5.761,-18.157 -12.502,-24.806 -8.555,-8.437 -21.36,-13.275 -35.135,-13.275 -1.89,0 -3.79,0.094 -5.648,0.28 -8.893,0.89 -17.258,4.34 -24.084,9.783 -18.429,-24.61 -45.318,-42.16 -75.202,-48.775 -8.84,-1.956 -18.019,-2.948 -27.281,-2.948 -27.293,0 -54.698,8.59 -77.166,24.187 -7.302,5.068 -14.112,10.917 -20.244,17.384 -1.275,1.346 -2.538,2.737 -3.764,4.146 -2.209,-1.017 -4.498,-1.854 -6.855,-2.504 -4.134,-1.141 -8.538,-1.719 -13.09,-1.719 -4.052,0 -8.238,0.458 -12.441,1.36 -7.02,1.507 -12.718,3.833 -17.419,7.111 -7.366,5.136 -13.089,12.55 -16.111,20.879 -2.743,7.56 -2.743,15.117 -2.743,21.785 v 32.535 c -1.533,0.123 -2.846,0.434 -3.97,0.726 -0.874,-0.22 -1.647,-0.335 -2.233,-0.422 -0.059,-0.009 -0.118,-0.017 -0.178,-0.025 -0.338,-0.213 -0.681,-0.423 -1.029,-0.618 -0.895,-0.5 -1.752,-0.794 -2.438,-0.976 -0.862,-0.548 -1.966,-1.131 -3.379,-1.553 -0.161,-0.048 -0.318,-0.091 -0.471,-0.129 -3.348,-2.405 -7.088,-2.758 -8.477,-2.889 -0.446,-0.042 -0.908,-0.106 -1.377,-0.168 -1.239,-0.166 -2.781,-0.371 -4.433,-0.371 -0.912,0 -1.761,0.06 -2.593,0.184 -1.778,0.263 -3.225,0.854 -4.368,1.488 -0.083,0.008 -0.168,0.018 -0.255,0.028 -1.656,0.197 -3.212,0.614 -4.638,1.242 -0.731,0.048 -1.436,0.145 -2.127,0.292 -2.238,0.475 -3.887,1.494 -4.991,2.31 -0.63,-0.116 -1.38,-0.246 -2.208,-0.318 -0.427,-0.037 -0.844,-0.054 -1.254,-0.054 -1.134,0 -2.064,0.128 -2.744,0.221 -0.024,0.003 -0.049,0.007 -0.074,0.011 -1.319,-0.324 -2.674,-0.488 -4.035,-0.488 -2.533,0 -4.736,0.556 -6.559,1.1 l -0.755,0.218 c -1.845,0.526 -4.372,1.248 -6.833,2.973 -1.023,0.718 -1.769,1.477 -2.239,1.97 -0.755,0.417 -1.946,1.129 -3.083,2.34 -1.001,1.066 -1.65,2.196 -2.072,3.267 -0.418,0.194 -0.775,0.382 -1.071,0.541 -0.591,0.125 -1.436,0.327 -2.381,0.72 -1.088,0.452 -1.922,1.007 -2.442,1.375 -1.679,0.658 -4.684,1.881 -6.862,4.862 -0.468,0.057 -0.929,0.138 -1.38,0.243 -2.207,0.516 -3.799,1.487 -4.852,2.13 -0.082,0.05 -0.162,0.101 -0.243,0.15 -0.935,0.222 -1.83,0.549 -2.687,0.979 -0.954,0.116 -1.896,0.309 -2.821,0.578 -4.748,1.378 -8.451,4.842 -9.905,9.265 -1.345,4.089 -0.564,8.463 2.14,11.999 1.67,2.184 3.632,3.256 4.805,3.898 0.096,0.052 0.191,0.103 0.286,0.155 3.442,3.031 6.981,3.678 9.369,3.678 1.05,0 2.112,-0.122 3.165,-0.364 0,0 0.854,-0.2 1.012,-0.237 0.313,0.344 0.634,0.679 0.956,1.006 3.363,3.41 7.213,6.141 11.438,8.113 5.795,2.705 12.3,4.075 19.334,4.075 1.81,0 3.66,-0.095 5.498,-0.28 3.858,-0.389 7.715,-1.178 11.472,-2.348 -0.042,2.18 -0.063,4.406 -0.044,6.627 l 0.042,4.348 c 0.075,7.66 0.153,15.582 0.021,23.315 -0.054,3.138 -0.124,6.272 -0.194,9.409 -0.045,2.002 -0.09,4.021 -0.131,6.053 -9.527,-1.46 -19.036,-3.529 -28.635,-6.24 -0.768,-0.217 -1.543,-0.32 -2.313,-0.32 -2.891,0 -5.65,1.479 -7.229,4.027 -1.998,3.226 -1.617,7.385 0.934,10.192 3.894,4.288 7.771,8.826 11.521,13.215 4.562,5.339 9.23,10.804 14.151,16.095 -2.964,2.167 -6.046,4.228 -9.226,6.354 -2.963,1.979 -6.025,4.026 -9.094,6.232 -2.651,1.906 -3.978,5.162 -3.411,8.378 0.564,3.216 2.923,5.823 6.063,6.711 31.083,8.777 55.126,12.692 77.956,12.692 5.088,0 10.151,-0.209 15.051,-0.619 2.335,-0.195 4.484,-1.346 5.943,-3.179 1.459,-1.832 2.098,-4.185 1.765,-6.503 l -0.938,-6.538 c 16.854,-2.661 34.688,-3.96 54.242,-3.96 32.89,0 66.588,3.741 99.178,7.358 33.052,3.668 67.229,7.462 101.064,7.462 13.294,0 25.696,-0.567 37.663,-1.729 l 1.249,8.944 c 0.319,2.284 1.552,4.341 3.417,5.698 1.463,1.064 3.219,1.629 5.005,1.629 0.488,0 0.979,-0.042 1.468,-0.127 34.909,-6.112 63.425,-15.823 89.736,-30.563 2.934,-1.643 4.623,-4.858 4.312,-8.207 -0.312,-3.348 -2.565,-6.196 -5.751,-7.271 -7.452,-2.511 -14.737,-5.476 -21.481,-8.395 6.467,-10.645 12.775,-21.598 18.812,-32.669 1.813,-3.327 1.207,-7.452 -1.488,-10.118 -1.634,-1.615 -3.795,-2.455 -5.98,-2.455 -1.421,0 -2.852,0.354 -4.153,1.084 -1.455,0.815 -2.92,1.61 -4.392,2.393 -1.178,-0.771 -2.479,-1.43 -3.902,-1.938 -0.469,-0.166 -0.945,-0.32 -1.436,-0.459 -0.075,-2.815 -0.145,-5.633 -0.213,-8.449 l -0.138,-5.754 C 523.257,9.235 523.077,1.705 522.852,-5.715 l -0.023,-0.729 c 4.201,1.183 8.63,1.787 13.188,1.787 6.856,0 13.739,-1.438 19.899,-4.158 3.901,-1.724 7.26,-3.949 10.245,-5.981 0.689,0.076 1.401,0.112 2.166,0.112 0.647,0 1.291,-0.028 1.935,-0.061 0.358,-0.02 0.72,-0.04 1.081,-0.04 0.205,0 0.286,0.011 0.29,0.011 0.731,0.094 1.48,0.14 2.29,0.14 0.973,0 1.843,-0.065 2.61,-0.123 0.503,-0.038 0.979,-0.074 1.394,-0.074 0.006,0 0.33,0.004 0.33,0.004 1.918,0 3.397,-0.478 4.193,-0.731 l 0.179,-0.06 0.213,-0.047 c 1.045,-0.226 3.22,-0.692 5.336,-2.425 3.73,-3.064 5.329,-8.41 3.973,-13.304 z" /><g
       transform="translate(0,-228)"
       id="Shape_1_copy_2"><path
         style="fill:#267bcb"
         inkscape:connector-curvature="0"
         id="path6"
         d="m 461.848,210.868 c -14.048,0 -25.541,11.508 -25.541,25.573 v 31.183 h 51.085 v -31.183 c 0,-14.065 -11.496,-25.573 -25.544,-25.573 z m -56.026,0 c -14.049,0 -25.544,11.508 -25.544,25.573 v 31.183 h 51.085 v -31.183 c 0,-14.065 -11.494,-25.573 -25.541,-25.573 z m -54.822,0 c -14.048,0 -25.543,11.508 -25.543,25.573 v 31.183 h 51.085 v -31.183 c 0,-14.065 -11.495,-25.573 -25.542,-25.573 z m 26.951,-67.854 c 0,-7.096 -5.801,-12.903 -12.888,-12.903 -7.088,0 -12.886,5.807 -12.886,12.903 v 22.735 h 25.771 l 0.003,-22.735 0,0 z m 79.736,0 c 0,-7.096 -5.798,-12.903 -12.886,-12.903 -7.088,0 -12.886,5.807 -12.886,12.903 v 22.735 h 25.771 l 0.001,-22.735 0,0 z m -54.446,22.735 h 25.771 v -22.735 c 0,-7.096 -5.799,-12.903 -12.886,-12.903 -7.088,0 -12.889,5.807 -12.889,12.903 l 0.004,22.735 0,0 z m 87.328,68.174 v 33.917 h 17.726 v -51.656 h -4.435 c -5.355,0 -13.291,3.23 -13.291,17.739 z m -90.1,-89.737 c 0,-9.175 -4.059,-11.219 -6.798,-11.219 h -2.269 v 32.668 h 9.064 l 0.003,-21.449 0,0 z m -19.411,0 v 21.449 h 9.063 v -32.668 h -2.268 c -2.737,0 -6.795,2.044 -6.795,11.219 z m 79.736,0 v 21.449 h 9.063 v -32.668 h -2.267 c -2.738,0 -6.796,2.044 -6.796,11.219 z m -57.602,-25.164 v 8.334 h 25.871 V 87.841 h -1.689 c -14.86,0 -24.182,16.139 -24.182,31.181 z m 15.162,-31.014 c -5.638,0.554 -26.283,9.827 -26.283,35.139 v 4.209 h 8.154 c -2.391,-27.594 11.274,-36.395 18.129,-39.348 z m -36.468,39.348 h 8.155 v -4.209 c 0,-25.312 -20.646,-34.585 -26.283,-35.139 6.854,2.953 20.519,11.754 18.128,39.348 z m 79.734,0 h 8.154 v -4.209 c 0,-25.312 -20.645,-34.585 -26.281,-35.139 6.857,2.953 20.52,11.754 18.127,39.348 z m -83.125,-8.334 c 0,-15.042 -9.322,-31.181 -24.184,-31.181 h -1.688 v 39.515 h 25.871 v -8.334 z m 79.735,0 c 0,-15.042 -9.322,-31.181 -24.182,-31.181 h -1.688 v 39.515 h 25.87 v -8.334 z m -55.199,17.032 c 1.437,-2.923 3.138,-4.77 7.253,-6.394 h -7.253 v 6.394 z m 36.299,-6.394 h -7.25 v 6.394 c 1.434,-2.923 3.138,-4.77 7.25,-6.394 z m -10.174,0 h -7.25 c 4.114,1.624 5.817,3.471 7.25,6.394 v -6.394 z m 62.133,93.953 c 2.146,-8.907 7.352,-12.11 17.748,-14.354 h -17.748 v 14.354 z m -95.828,-14.351 h -35.134 c 10.396,2.241 15.933,9.156 18.076,18.064 2.156,-10.241 9.057,-15.98 17.058,-18.064 z m 56.507,0 h -35.134 c 7.997,2.084 14.9,7.823 17.055,18.064 2.144,-8.908 7.678,-15.823 18.079,-18.064 z m 37.02,14.351 V 209.26 h -17.749 c 10.4,2.243 15.603,5.446 17.749,14.353 z m -88.503,-87.559 v -6.394 h -8.487 c 4.814,1.624 7.263,2.647 8.487,6.394 z m -11.059,-6.394 h -8.487 v 6.394 c 1.224,-3.747 3.67,-4.77 8.487,-6.394 z m 79.736,0 h -8.488 v 6.394 c 1.224,-3.747 3.674,-4.77 8.488,-6.394 z m -91.293,6.394 v -6.394 h -7.252 c 4.114,1.624 5.819,3.471 7.252,6.394 z m 79.736,0 v -6.394 h -7.251 c 4.115,1.624 5.817,3.471 7.251,6.394 z m 31.245,65.909 c 0,-13.578 -10.332,-31.099 -28.179,-31.099 H 431.83 v 34.976 h 57.02 v -3.877 l 0,0 z m 2.471,3.883 h 16.811 c -1.447,-19.005 -14.743,-36.247 -40.377,-35.597 8.88,1.657 23.895,10.39 23.566,35.597 z M 377.489,171.222 h -52.741 v 34.619 h 52.741 v -34.619 z m 1.891,34.619 h 49.765 V 171.222 H 379.38 v 34.619 z" /></g><g
       transform="translate(0,-228)"
       id="Shape_1_copy_3"><path
         style="fill:#267bcb"
         inkscape:connector-curvature="0"
         id="path9"
         d="m 144.39,210.868 c -14.049,0 -25.544,11.508 -25.544,25.573 v 31.183 h 51.085 v -31.183 c 10e-4,-14.065 -11.493,-25.573 -25.541,-25.573 z m 56.026,0 c -14.047,0 -25.542,11.508 -25.542,25.573 v 31.183 h 51.085 v -31.183 c 0,-14.065 -11.495,-25.573 -25.543,-25.573 z m 54.822,0 c -14.047,0 -25.542,11.508 -25.542,25.573 v 31.183 h 51.085 v -31.183 c 0,-14.065 -11.495,-25.573 -25.543,-25.573 z m -26.951,-45.119 h 25.771 v -22.735 c 0,-7.096 -5.798,-12.903 -12.886,-12.903 -7.087,0 -12.886,5.807 -12.886,12.903 l 0.001,22.735 0,0 z m -66.85,-35.638 c -7.087,0 -12.886,5.807 -12.886,12.903 v 22.735 h 25.771 v -22.735 c 0.001,-7.096 -5.797,-12.903 -12.885,-12.903 z m 15.787,12.903 v 22.735 h 25.773 v -22.735 c 0,-7.096 -5.802,-12.903 -12.89,-12.903 -7.088,0 -12.883,5.807 -12.883,12.903 z m -74.846,73.17 h -4.435 v 51.656 h 17.726 v -33.917 c 0,-14.509 -7.936,-17.739 -13.291,-17.739 z m 103.391,-71.998 v 21.449 h 9.064 v -32.668 h -2.268 c -2.737,0 -6.796,2.044 -6.796,11.219 z m 19.411,0 c 0,-9.175 -4.058,-11.219 -6.796,-11.219 h -2.266 v 32.668 h 9.062 v -21.449 l 0,0 z m -79.736,0 c 0,-9.175 -4.059,-11.219 -6.798,-11.219 h -2.266 v 32.668 h 9.063 l 10e-4,-21.449 0,0 z m 57.601,-25.164 c 0,-15.042 -9.321,-31.181 -24.184,-31.181 h -1.688 v 39.515 h 25.871 v -8.334 l 10e-4,0 z m 2.969,8.334 h 8.154 v -4.209 c 0,-25.312 -20.646,-34.585 -26.283,-35.139 6.854,2.953 20.519,11.754 18.129,39.348 z M 242.48,88.008 c -5.637,0.554 -26.283,9.827 -26.283,35.139 v 4.209 h 8.154 c -2.39,-27.594 11.275,-36.395 18.129,-39.348 z m -79.737,0 c -5.64,0.554 -26.282,9.827 -26.282,35.139 v 4.209 h 8.152 c -2.388,-27.594 11.275,-36.395 18.13,-39.348 z m 65,31.014 v 8.334 h 25.869 V 87.841 h -1.688 c -14.859,0 -24.181,16.139 -24.181,31.181 z m -79.736,0 v 8.334 h 25.871 V 87.841 h -1.689 c -14.859,0 -24.182,16.139 -24.182,31.181 z m 55.2,17.032 v -6.394 h -7.25 c 4.114,1.624 5.815,3.471 7.25,6.394 z m -29.051,0 v -6.394 h -7.25 c 4.115,1.624 5.818,3.471 7.25,6.394 z m 10.175,-6.394 h -7.25 v 6.394 c 1.432,-2.923 3.136,-4.77 7.25,-6.394 z m -69.384,93.953 V 209.26 H 97.198 c 10.4,2.243 15.603,5.446 17.749,14.353 z m 130.964,-14.351 h -35.136 c 8,2.084 14.902,7.823 17.058,18.064 2.145,-8.908 7.679,-15.823 18.078,-18.064 z m -56.507,0 H 154.27 c 10.401,2.241 15.935,9.156 18.08,18.064 2.152,-10.241 9.055,-15.98 17.054,-18.064 z m -54.406,0 H 117.25 v 14.354 c 2.146,-8.91 7.349,-12.113 17.748,-14.354 z m 70.755,-73.208 c 1.225,-3.747 3.673,-4.77 8.489,-6.394 h -8.489 v 6.394 z m 19.546,0 v -6.394 h -8.487 c 4.816,1.624 7.263,2.647 8.487,6.394 z m -79.736,0 v -6.394 h -8.487 c 4.815,1.624 7.263,2.647 8.487,6.394 z m 82.806,-6.394 v 6.394 c 1.434,-2.923 3.138,-4.77 7.252,-6.394 h -7.252 z m -79.736,0 v 6.394 c 1.434,-2.923 3.136,-4.77 7.25,-6.394 h -7.25 z m -31.244,72.303 v 3.877 h 57.017 v -34.976 h -28.838 c -17.847,0.001 -28.179,17.521 -28.179,31.099 z m 21.096,-31.714 c -25.634,-0.65 -38.931,16.591 -40.377,35.597 h 16.81 c -0.331,-25.207 14.686,-33.94 23.567,-35.597 z m 90.263,0.973 v 34.619 h 52.744 v -34.619 h -52.744 z m -51.655,34.619 h 49.765 v -34.619 h -49.765 v 34.619 z" /></g><g
       transform="translate(0,-228)"
       id="Shape_4"><path
         style="fill:#1c5a93"
         inkscape:connector-curvature="0"
         id="path12"
         d="m 509.52,266.4 c -25.402,2.607 -33.486,-0.525 -41.521,-7.44 -51.575,-44.394 -26.594,17.56 -66.958,-28.319 -27.401,-31.144 -61.44,43.439 -61.44,43.439 l 26.769,21.359 41.104,21.549 119.568,-40.271 c -0.004,0.004 5.342,-12.666 -17.522,-10.317 z" /></g><g
       transform="translate(0,-228)"
       id="Shape_4_copy_2"><path
         style="fill:#1c5a93"
         inkscape:connector-curvature="0"
         id="path15"
         d="m 212.128,230.57 c -40.387,45.918 -15.393,-16.086 -66.994,28.345 -8.038,6.921 -16.203,10.722 -41.542,7.446 C 85.387,264.009 99.6,284.16 99.6,284.16 l 108.147,27.357 39.071,-16.093 26.78,-21.379 c 0.002,0.003 -34.054,-74.643 -61.47,-43.475 z" /></g><path
       style="fill:#21759b"
       inkscape:connector-curvature="0"
       id="path17"
       d="m 584.146,-28.191 v -0.019 -0.008 c -0.02,-0.25 -0.047,-0.481 -0.09,-0.684 -0.043,-0.211 -0.1,-0.414 -0.164,-0.601 -0.354,-1 -0.987,-1.527 -1.534,-1.804 -0.582,-0.298 -1.19,-0.371 -1.761,-0.324 -0.354,0.026 -0.688,0.101 -0.996,0.195 l -0.098,-0.07 c -0.167,-0.121 -0.358,-0.242 -0.569,-0.36 -0.988,-0.55 -2.44,-1.007 -4.471,-0.933 l -0.063,-0.06 c -0.109,-0.097 -0.238,-0.207 -0.383,-0.319 -0.727,-0.563 -1.765,-1.117 -3.088,-1.195 l -0.023,-0.004 c -0.199,-0.043 -0.707,-0.563 -1.188,-1.047 -0.48,-0.488 -0.941,-0.957 -1.384,-1.176 h -0.005 c -0.086,-0.039 -0.172,-0.074 -0.258,-0.105 -0.219,-0.079 -0.439,-0.128 -0.671,-0.18 -0.371,-0.085 -0.777,-0.18 -0.854,-0.266 0.012,-0.047 0.104,-0.308 0.189,-0.574 0.117,-0.386 0.238,-0.761 0.219,-1.125 l -0.004,-0.027 v -0.004 c -0.016,-0.305 -0.068,-0.598 -0.156,-0.875 -0.09,-0.278 -0.201,-0.539 -0.348,-0.785 -0.695,-1.199 -2.025,-2.007 -3.365,-2.257 v -0.004 h -0.02 c -0.152,-0.027 -0.301,-0.047 -0.449,-0.063 -0.145,-0.011 -0.293,-0.019 -0.439,-0.023 -0.479,0 -0.935,0.066 -1.358,0.187 -0.104,-0.171 -0.219,-0.343 -0.348,-0.515 -0.293,-0.391 -0.648,-0.77 -1.081,-1.105 -0.777,-0.601 -1.484,-0.765 -2.249,-0.937 -0.242,-0.059 -0.496,-0.114 -0.738,-0.188 -0.324,-0.093 -0.646,-0.269 -0.961,-0.441 -0.354,-0.191 -0.706,-0.387 -1.124,-0.527 h -0.008 v -0.004 c -0.346,-0.114 -0.672,-0.117 -0.995,-0.121 -0.25,-0.004 -0.5,-0.004 -0.543,-0.067 -0.035,-0.054 0.098,-0.324 0.229,-0.597 0.23,-0.469 0.466,-0.941 0.371,-1.523 v -0.012 c -0.035,-0.218 -0.078,-0.414 -0.129,-0.586 -0.051,-0.183 -0.113,-0.354 -0.184,-0.523 -0.363,-0.847 -0.918,-1.375 -1.385,-1.69 -0.507,-0.344 -1.046,-0.532 -1.554,-0.625 -0.332,-0.063 -0.646,-0.085 -0.933,-0.085 -0.063,-0.063 -0.139,-0.133 -0.22,-0.211 -0.427,-0.383 -0.974,-0.77 -1.607,-1.028 -0.078,-0.093 -0.168,-0.203 -0.273,-0.328 -0.172,-0.199 -0.369,-0.425 -0.598,-0.668 -1.194,-1.281 -3.143,-3.049 -5.247,-3.646 v 0.004 l -0.012,-0.004 v -0.004 c -0.234,-0.066 -0.48,-0.129 -0.738,-0.184 -0.254,-0.058 -0.504,-0.109 -0.746,-0.152 -1.292,-0.219 -2.61,-0.246 -3.92,-0.023 l -0.004,0.004 h -0.016 c -0.479,0.082 -0.956,0.246 -1.441,0.41 -0.646,0.222 -1.303,0.445 -1.826,0.406 h -0.012 c -0.289,-0.028 -0.664,-0.172 -1.038,-0.32 -0.348,-0.137 -0.695,-0.274 -1.059,-0.352 h -0.01 c -0.496,-0.105 -0.968,-0.148 -1.438,-0.187 h -0.004 c -0.707,-0.063 -1.414,-0.122 -1.987,-0.402 -0.383,-0.187 -0.699,-0.41 -1,-0.621 -0.784,-0.551 -1.464,-1.027 -2.752,-0.944 -0.023,-0.028 -0.047,-0.051 -0.07,-0.074 -0.133,-0.125 -0.279,-0.25 -0.453,-0.375 -0.77,-0.575 -1.925,-1.089 -3.609,-1.23 -0.438,-0.527 -1.117,-1.155 -2.133,-1.641 -1.181,-0.557 -2.818,-0.932 -5.067,-0.73 -0.043,0.005 -0.163,-0.015 -0.319,-0.042 -0.211,-0.035 -0.448,-0.086 -0.68,-0.137 -0.848,-0.179 -1.952,-0.402 -3.135,-0.285 -1.144,0.113 -2.31,0.535 -3.306,1.585 -0.141,-0.012 -0.288,-0.019 -0.443,-0.023 -0.242,-0.008 -0.499,-0.008 -0.767,0.004 -1.318,0.054 -2.937,0.371 -4.213,1.37 -0.547,-0.046 -1.14,-0.066 -1.726,-0.02 -0.754,0.063 -1.5,0.235 -2.147,0.598 -0.512,0.292 -0.874,0.64 -1.229,0.987 -0.406,0.391 -0.802,0.777 -1.348,0.91 -0.595,0.141 -1.227,0.262 -1.861,0.309 -0.605,0.047 -1.202,0.022 -1.749,-0.117 -0.457,-0.121 -0.906,-0.231 -1.353,-0.313 -0.465,-0.086 -0.94,-0.144 -1.443,-0.16 h -0.074 c -0.409,0.004 -0.956,0.125 -1.526,0.25 -0.654,0.141 -1.347,0.293 -1.433,0.254 h -0.009 c -0.181,-0.078 -0.397,-0.164 -0.637,-0.246 -0.241,-0.086 -0.534,-0.172 -0.879,-0.258 -1.654,-0.402 -4.187,-0.578 -6.849,0.84 -0.125,0.015 -0.273,0.03 -0.438,0.058 -0.245,0.039 -0.526,0.094 -0.813,0.16 -1.582,0.371 -3.904,1.273 -5.283,3.413 -0.102,0.152 -0.414,0.265 -0.726,0.382 -0.47,0.171 -0.938,0.343 -1.32,0.761 -0.809,0.883 -0.694,1.59 -0.577,2.327 0.043,0.27 0.09,0.547 0.026,0.785 -0.214,0.8 -1.534,1.203 -2.779,1.585 -0.894,0.273 -1.762,0.539 -2.393,0.98 l -0.006,0.004 c -0.405,0.285 -0.677,0.476 -1.569,0.617 -0.795,0.129 -1.417,0.375 -1.9,0.683 -0.375,0.242 -0.668,0.515 -0.894,0.796 -0.458,0.082 -1.021,0.215 -1.599,0.438 -0.754,0.293 -1.533,0.734 -2.168,1.414 -0.104,0.117 -0.211,0.242 -0.313,0.379 -0.104,0.137 -0.195,0.273 -0.272,0.402 -0.422,0.71 -0.637,1.523 -0.637,2.394 0,0.683 -0.087,0.858 -0.276,0.858 -0.271,0 -0.621,-0.055 -1.043,-0.121 l -0.479,-0.077 c -0.895,-0.134 -1.803,-0.181 -2.705,-0.091 -0.918,0.094 -1.823,0.324 -2.693,0.746 -0.323,0.153 -0.599,0.328 -0.836,0.508 -0.202,0.151 -0.405,0.323 -0.594,0.487 l -0.477,0.371 c -0.112,0.016 -0.188,0.024 -0.263,0.028 -0.216,0.015 -0.452,0.039 -0.754,0.101 -0.301,0.059 -0.621,0.157 -0.944,0.328 h -0.004 c -0.138,0.07 -0.396,0.211 -0.701,0.421 -0.221,0.149 -0.461,0.332 -0.691,0.547 -0.203,-0.012 -0.41,-0.015 -0.621,-0.012 -0.351,0.008 -0.693,0.032 -1.021,0.071 -1.797,0.222 -3.689,0.96 -4.834,2.229 l -0.005,0.004 c -0.099,0.106 -0.194,0.227 -0.289,0.356 -0.089,0.121 -0.177,0.246 -0.249,0.375 -0.401,0.671 -0.604,1.406 -0.604,2.175 v 0.008 h 0.005 c 0,0.266 0.022,0.535 0.073,0.805 v 0.012 l 0.021,0.113 0.004,0.008 c 0.048,0.218 0.111,0.445 0.193,0.675 0.441,1.234 1.191,2.063 2.046,2.648 0.725,0.5 1.504,0.812 2.229,1.05 0.051,0.078 0.101,0.156 0.155,0.23 0.125,0.164 0.257,0.32 0.404,0.465 0.73,0.718 1.788,1.226 3.12,1.452 0.979,0.164 1.733,-0.109 2.499,-0.387 0.406,-0.144 0.813,-0.293 1.218,-0.336 l 0.047,-0.003 c 0.108,-0.008 0.237,-0.02 0.389,-0.028 0.155,-0.008 0.297,-0.015 0.421,-0.019 0.729,-0.016 1.543,0.019 2.176,0.093 0.378,0.047 0.785,0.219 1.194,0.391 0.429,0.184 0.86,0.367 1.354,0.473 0.331,0.421 0.72,0.893 1.159,1.397 0.536,0.608 1.168,1.274 1.901,1.982 3.725,3.584 9.874,7.833 18.562,8.618 h 0.021 c 0.939,0.086 1.874,0.146 2.8,0.183 0.929,0.035 1.866,0.053 2.807,0.039 4.818,-0.054 9.617,-0.736 14.247,-2.089 v 0.004 l 0.004,-0.004 h 0.004 c 0.392,-0.112 0.729,-0.214 1.009,-0.306 0.296,-0.094 0.632,-0.201 1.003,-0.322 1.719,-0.578 3.396,-1.238 5.032,-1.979 h 0.003 l 0.005,-0.004 0.385,-0.178 h 0.004 l 0.382,-0.175 0.004,-0.004 c 0.685,-0.325 1.34,-0.649 1.972,-0.979 l 0.005,-0.003 c 0.16,-0.081 0.285,-0.161 0.418,-0.237 0.41,-0.25 0.978,-0.59 1.06,-0.517 0.039,0.039 -0.031,0 -0.018,0.035 v 0.008 l 0.023,0.056 0.004,0.008 c 0.228,0.559 0.136,2.254 0.098,3.076 v 0.004 c -0.012,0.242 -0.021,0.428 -0.021,0.479 v 0.024 h 0.004 c 0,1.287 -0.078,2.936 -0.16,4.725 -0.047,0.969 -0.094,1.977 -0.133,3.034 V -7.6 c -0.082,2.168 -0.043,4.324 -0.008,6.318 0.016,0.939 0.029,1.848 0.029,2.937 0,0.403 0.005,0.879 0.018,1.438 0.012,0.473 0.021,0.903 0.043,1.293 l 0.004,0.062 c 0.008,0.211 0.016,0.45 0.022,0.702 0.009,0.289 0.017,0.599 0.022,0.923 0.031,1.632 0.043,4.233 0.043,7.403 v 0.069 h 0.004 c 0,6.046 -0.059,13.937 -0.146,20.888 -0.014,1.133 -0.027,2.242 -0.043,3.313 -0.087,5.467 -0.188,9.969 -0.298,11.882 -0.065,1.146 -0.108,2.316 -0.137,3.503 -0.032,1.25 -0.047,2.409 -0.047,3.502 v 0.051 h 0.004 c 0,1.492 0.021,2.975 0.051,4.44 0.027,1.479 0.065,2.933 0.103,4.374 l 0.004,0.086 c 0.072,2.771 0.146,5.607 0.148,8.431 h 15.901 c -0.251,-5.471 -0.45,-10.913 -0.645,-16.354 L 516.21,56.928 515.819,46.68 v -0.004 l -0.004,-0.041 V 46.63 c -0.051,-1.075 -0.085,-2.104 -0.12,-3.127 l -0.005,-0.039 c -0.061,-1.745 -0.117,-3.46 -0.171,-5.166 -0.057,-1.788 -0.109,-3.483 -0.16,-5.167 -0.07,-2.351 -0.143,-4.703 -0.207,-7.061 -0.07,-2.352 -0.138,-4.705 -0.203,-7.057 -0.148,-5.127 -0.293,-10.254 -0.435,-15.381 -0.065,-2.392 -0.104,-4.715 -0.142,-7.033 -0.035,-2.293 -0.069,-4.588 -0.133,-6.908 l -0.012,-0.344 c -0.021,-0.865 -0.027,-1.752 -0.039,-2.64 -0.014,-1.03 -0.023,-2.062 -0.048,-3.022 v -0.008 l -0.004,-0.055 v -0.008 c -0.009,-0.188 -0.022,-0.352 -0.039,-0.551 -0.065,-0.844 -0.185,-2.293 -0.013,-2.938 0.258,0.183 0.367,0.259 0.496,0.351 0.474,0.338 0.949,0.675 1.44,0.981 2.524,1.569 5.271,2.729 8.115,3.576 2.827,0.84 5.757,1.362 8.664,1.668 h 0.014 c 0.896,0.094 1.831,0.147 2.778,0.164 0.952,0.017 1.909,-0.004 2.865,-0.063 4.955,-0.302 10.141,-1.568 14.638,-3.656 0.277,-0.129 0.604,-0.282 0.974,-0.471 0.336,-0.17 0.727,-0.371 1.168,-0.604 2.144,-1.152 4.94,-2.82 7.043,-4.476 l 0.031,-0.023 c 0.09,-0.074 0.198,-0.152 0.328,-0.238 0.107,-0.076 0.229,-0.15 0.354,-0.227 0.593,-0.354 1.27,-0.62 1.862,-0.604 0.439,0.014 0.904,0.086 1.374,0.16 0.659,0.109 1.327,0.215 2.058,0.188 0.055,0.004 0.125,0.014 0.211,0.017 h 0.004 c 0.082,0.004 0.195,0.008 0.35,0.012 0.616,0.011 1.558,-0.047 2.515,-0.351 0.479,0.121 1.214,0.271 2.041,0.326 0.988,0.063 2.12,-0.004 3.179,-0.401 0.005,0.004 -0.012,0.024 0.039,0.032 0.178,0.019 0.316,0.043 0.428,0.058 0.425,0.071 0.979,0.156 1.585,0.117 0.577,-0.035 1.187,-0.179 1.757,-0.543 0.297,0.009 0.637,-0.015 0.987,-0.093 v -0.004 c 0.494,-0.11 1.012,-0.321 1.482,-0.714 0.336,-0.281 0.699,-0.695 0.952,-1.285 0.245,-0.55 0.392,-1.28 0.33,-2.213 z m -148.017,0.714 h -0.006 l 0.009,-0.003 h 10e-4 l -0.004,0.003 z m 34.745,8.174 -0.017,-0.004 c -0.492,-0.047 -0.979,-0.109 -1.465,-0.186 -0.46,-0.068 -0.944,-0.162 -1.448,-0.271 -2.464,-0.539 -4.838,-1.452 -7,-2.762 h -0.005 v -0.004 c -0.191,-0.117 -0.476,-0.262 -0.781,-0.418 -0.825,-0.426 -1.885,-0.969 -2.042,-1.532 -0.021,-0.081 0.086,-0.137 0.23,-0.175 0.285,-0.079 0.695,-0.117 1.07,-0.148 v -0.004 c 0.439,-0.039 0.843,-0.074 1.153,-0.184 h 0.004 l 0.004,-0.004 c 0.745,-0.261 1.323,-0.722 1.855,-1.144 0.172,-0.133 0.335,-0.266 0.479,-0.367 0.431,-0.305 0.827,-0.414 1.391,0.371 v 0.004 c 0.199,0.272 0.401,0.546 0.613,0.808 0.201,0.254 0.422,0.508 0.658,0.77 1.163,1.284 2.521,2.372 4.071,3.217 2.203,1.19 4.604,1.849 7.063,2.136 -1.926,0.111 -3.882,0.084 -5.833,-0.103 z m 17.038,-7.218 c -1.813,0.332 -3.651,0.547 -5.497,0.617 -1.009,0.04 -2.022,0.04 -3.037,-0.026 -1,-0.063 -1.987,-0.195 -2.96,-0.414 l -0.121,-0.027 c -0.78,-0.176 -1.671,-0.379 -2.283,-0.77 l -0.051,-0.031 c -0.113,-0.075 -0.264,-0.168 -0.414,-0.27 0.058,0.016 0.121,0.028 0.211,0.043 0.433,0.082 0.836,0.152 1.253,0.176 0.445,0.031 0.895,0.012 1.375,-0.086 h 0.004 l 0.011,-0.004 c 0.332,-0.066 0.563,-0.129 0.797,-0.187 0.599,-0.153 1.198,-0.305 1.757,-0.246 1.034,0.113 2.052,0.363 3.051,0.605 2.386,0.578 4.688,1.141 7.294,0.07 0.164,0.059 0.347,0.109 0.554,0.152 -0.646,0.148 -1.294,0.281 -1.944,0.398 z m 40.684,0.142 c 1.073,-0.575 2.116,-1.304 3.081,-2.23 0.284,0.021 0.585,0.024 0.899,0.016 0.467,-0.016 0.952,-0.059 1.46,-0.133 h 0.01 c 0.107,0.004 0.533,0.18 0.986,0.367 l 0.023,0.008 c 0.473,0.195 1.021,0.422 1.671,0.621 -1.125,0.391 -2.354,0.73 -3.686,0.98 -1.41,0.261 -2.938,0.425 -4.564,0.437 l 0.12,-0.066 z m 4.095,6.617 0,0 c -0.002,0 -0.004,0 -0.006,0 h 0.006 z m 17.279,-2.697 c -0.624,0.277 -1.089,0.469 -1.425,0.609 h -0.006 l -0.309,0.129 -0.035,0.012 c -0.546,0.23 -1.085,0.438 -1.62,0.625 -0.533,0.188 -1.085,0.359 -1.646,0.52 -2.843,0.807 -5.798,1.176 -8.758,1.069 l -0.293,-0.011 -0.299,-0.012 c -0.774,-0.043 -1.558,-0.105 -2.334,-0.187 -0.184,-0.021 -0.366,-0.038 -0.551,-0.058 0.283,-0.035 0.563,-0.073 0.842,-0.116 1.444,-0.224 2.869,-0.56 4.265,-0.996 1.219,-0.388 2.425,-0.879 3.604,-1.444 1.159,-0.559 2.287,-1.189 3.373,-1.872 1.042,-0.651 1.964,-1.366 2.889,-2.081 0.256,-0.199 0.518,-0.398 0.889,-0.68 0.064,-0.05 0.25,-0.195 0.439,-0.347 0.931,-0.734 2.09,-1.652 2.938,-0.843 0.117,0.117 0.232,0.238 0.344,0.355 0.379,0.395 0.729,0.757 1.343,1.066 h 0.004 l 0.014,0.008 c 0.193,0.097 0.375,0.164 0.551,0.226 0.289,0.106 0.57,0.211 0.646,0.371 0.484,1.107 -2.737,2.716 -4.865,3.657 z" /><path
       style="fill:#21759b"
       inkscape:connector-curvature="0"
       id="path19"
       d="m 175.427,-28.191 v -0.019 -0.008 c -0.02,-0.25 -0.047,-0.481 -0.09,-0.684 -0.043,-0.211 -0.1,-0.414 -0.164,-0.601 -0.355,-1 -0.988,-1.527 -1.534,-1.804 -0.582,-0.298 -1.189,-0.371 -1.761,-0.324 -0.354,0.026 -0.688,0.101 -0.996,0.195 l -0.097,-0.07 c -0.168,-0.121 -0.359,-0.242 -0.57,-0.36 -0.988,-0.55 -2.44,-1.007 -4.471,-0.933 l -0.063,-0.06 c -0.108,-0.097 -0.238,-0.207 -0.383,-0.319 -0.727,-0.563 -1.765,-1.117 -3.088,-1.195 l -0.023,-0.004 c -0.199,-0.043 -0.707,-0.563 -1.189,-1.047 -0.48,-0.488 -0.941,-0.957 -1.382,-1.176 h -0.006 c -0.086,-0.039 -0.172,-0.074 -0.258,-0.105 -0.219,-0.079 -0.439,-0.128 -0.671,-0.18 -0.371,-0.085 -0.777,-0.18 -0.854,-0.266 0.012,-0.047 0.104,-0.308 0.189,-0.574 0.117,-0.386 0.238,-0.761 0.219,-1.125 l -0.004,-0.027 v -0.004 c -0.016,-0.305 -0.068,-0.598 -0.154,-0.875 -0.092,-0.278 -0.203,-0.539 -0.349,-0.785 -0.693,-1.199 -2.024,-2.007 -3.366,-2.257 v -0.004 h -0.02 c -0.152,-0.027 -0.301,-0.047 -0.449,-0.063 -0.145,-0.011 -0.293,-0.019 -0.439,-0.023 -0.479,0 -0.935,0.066 -1.359,0.187 -0.104,-0.171 -0.219,-0.343 -0.347,-0.515 -0.293,-0.391 -0.648,-0.77 -1.082,-1.105 -0.777,-0.601 -1.484,-0.765 -2.249,-0.937 -0.242,-0.059 -0.496,-0.114 -0.738,-0.188 -0.324,-0.093 -0.645,-0.269 -0.961,-0.441 -0.355,-0.191 -0.707,-0.387 -1.124,-0.527 h -0.008 v -0.004 c -0.344,-0.114 -0.672,-0.117 -0.996,-0.121 -0.25,-0.004 -0.5,-0.004 -0.542,-0.067 -0.035,-0.054 0.098,-0.324 0.229,-0.597 0.23,-0.469 0.466,-0.941 0.371,-1.523 v -0.012 c -0.035,-0.218 -0.078,-0.414 -0.128,-0.586 -0.051,-0.183 -0.111,-0.354 -0.184,-0.523 -0.363,-0.847 -0.917,-1.375 -1.382,-1.69 -0.51,-0.344 -1.048,-0.532 -1.556,-0.625 -0.332,-0.063 -0.646,-0.085 -0.933,-0.085 -0.063,-0.063 -0.137,-0.133 -0.219,-0.211 -0.428,-0.383 -0.974,-0.77 -1.608,-1.028 -0.078,-0.093 -0.168,-0.203 -0.271,-0.328 -0.174,-0.199 -0.371,-0.425 -0.599,-0.668 -1.193,-1.281 -3.143,-3.049 -5.248,-3.646 v 0.004 l -0.012,-0.004 v -0.004 c -0.234,-0.066 -0.48,-0.129 -0.738,-0.184 -0.254,-0.058 -0.504,-0.109 -0.746,-0.152 -1.292,-0.219 -2.61,-0.246 -3.92,-0.023 l -0.004,0.004 h -0.016 c -0.48,0.082 -0.957,0.246 -1.441,0.41 -0.646,0.222 -1.303,0.445 -1.826,0.406 h -0.012 c -0.289,-0.028 -0.664,-0.172 -1.039,-0.32 -0.348,-0.137 -0.694,-0.274 -1.058,-0.352 H 121.7 c -0.496,-0.105 -0.97,-0.148 -1.441,-0.187 h -0.004 c -0.707,-0.063 -1.414,-0.122 -1.987,-0.402 -0.382,-0.187 -0.699,-0.41 -1,-0.621 -0.785,-0.551 -1.464,-1.027 -2.752,-0.944 -0.021,-0.028 -0.047,-0.051 -0.069,-0.074 -0.134,-0.125 -0.28,-0.25 -0.452,-0.375 -0.771,-0.575 -1.927,-1.089 -3.612,-1.23 -0.438,-0.527 -1.117,-1.155 -2.132,-1.641 -1.181,-0.557 -2.819,-0.932 -5.068,-0.73 -0.043,0.005 -0.164,-0.015 -0.32,-0.042 -0.211,-0.035 -0.447,-0.086 -0.68,-0.137 -0.847,-0.179 -1.952,-0.402 -3.135,-0.285 -1.141,0.113 -2.308,0.535 -3.304,1.585 -0.142,-0.012 -0.289,-0.019 -0.444,-0.023 -0.242,-0.008 -0.5,-0.008 -0.765,0.004 -1.32,0.054 -2.938,0.371 -4.215,1.37 -0.547,-0.046 -1.141,-0.066 -1.726,-0.02 -0.753,0.063 -1.5,0.235 -2.146,0.598 -0.513,0.292 -0.875,0.64 -1.229,0.987 -0.406,0.391 -0.801,0.777 -1.346,0.91 -0.596,0.141 -1.229,0.262 -1.863,0.309 -0.605,0.047 -1.203,0.022 -1.75,-0.117 -0.457,-0.121 -0.906,-0.231 -1.35,-0.313 -0.467,-0.086 -0.942,-0.144 -1.446,-0.16 H 77.39 c -0.41,0.004 -0.957,0.125 -1.525,0.25 -0.655,0.141 -1.348,0.293 -1.434,0.254 h -0.008 c -0.179,-0.078 -0.397,-0.164 -0.635,-0.246 -0.242,-0.086 -0.535,-0.172 -0.879,-0.258 -1.655,-0.402 -4.188,-0.578 -6.85,0.84 -0.125,0.015 -0.271,0.03 -0.438,0.058 -0.246,0.039 -0.527,0.094 -0.813,0.16 -1.582,0.371 -3.903,1.273 -5.283,3.413 -0.102,0.152 -0.413,0.265 -0.726,0.382 -0.469,0.171 -0.938,0.343 -1.32,0.761 -0.808,0.883 -0.693,1.59 -0.578,2.327 0.043,0.27 0.092,0.547 0.027,0.785 -0.214,0.8 -1.534,1.203 -2.78,1.585 -0.894,0.273 -1.761,0.539 -2.393,0.98 l -0.004,0.004 c -0.407,0.285 -0.676,0.476 -1.57,0.617 -0.795,0.129 -1.417,0.375 -1.9,0.683 -0.375,0.242 -0.667,0.515 -0.895,0.796 -0.458,0.082 -1.02,0.215 -1.597,0.438 -0.753,0.293 -1.535,0.734 -2.167,1.414 -0.106,0.117 -0.211,0.242 -0.313,0.379 -0.104,0.137 -0.194,0.273 -0.271,0.402 -0.422,0.71 -0.639,1.523 -0.639,2.394 0,0.683 -0.086,0.858 -0.275,0.858 -0.271,0 -0.621,-0.055 -1.042,-0.121 l -0.481,-0.077 c -0.894,-0.134 -1.803,-0.181 -2.706,-0.091 -0.917,0.094 -1.822,0.324 -2.692,0.746 -0.324,0.153 -0.6,0.328 -0.835,0.508 -0.203,0.151 -0.406,0.323 -0.596,0.487 l -0.476,0.371 c -0.112,0.016 -0.188,0.024 -0.261,0.028 -0.217,0.015 -0.453,0.039 -0.754,0.101 -0.302,0.059 -0.62,0.157 -0.944,0.328 h -0.004 c -0.138,0.07 -0.397,0.211 -0.703,0.421 -0.219,0.149 -0.46,0.332 -0.691,0.547 -0.203,-0.012 -0.409,-0.015 -0.621,-0.012 -0.351,0.008 -0.692,0.032 -1.021,0.071 -1.796,0.222 -3.689,0.96 -4.833,2.229 l -0.004,0.004 c -0.1,0.106 -0.195,0.227 -0.289,0.356 -0.09,0.121 -0.176,0.246 -0.25,0.375 -0.402,0.671 -0.605,1.406 -0.605,2.175 v 0.008 h 0.004 c 0,0.266 0.023,0.535 0.074,0.805 v 0.012 l 0.021,0.113 0.004,0.008 c 0.047,0.218 0.112,0.445 0.193,0.675 0.442,1.234 1.191,2.063 2.048,2.648 0.723,0.5 1.504,0.812 2.226,1.05 0.051,0.078 0.101,0.156 0.156,0.23 0.125,0.164 0.257,0.32 0.403,0.465 0.731,0.718 1.789,1.226 3.121,1.452 0.979,0.164 1.733,-0.109 2.499,-0.387 0.405,-0.144 0.813,-0.293 1.219,-0.336 l 0.047,-0.003 c 0.107,-0.008 0.236,-0.02 0.387,-0.028 0.156,-0.008 0.297,-0.015 0.421,-0.019 0.73,-0.016 1.543,0.019 2.175,0.093 0.378,0.047 0.785,0.219 1.194,0.391 0.429,0.184 0.863,0.367 1.354,0.473 0.332,0.421 0.721,0.893 1.159,1.397 0.536,0.608 1.167,1.274 1.902,1.982 3.724,3.584 9.875,7.833 18.561,8.618 h 0.021 c 0.938,0.086 1.874,0.146 2.798,0.183 0.93,0.035 1.867,0.053 2.808,0.039 4.818,-0.054 9.617,-0.736 14.247,-2.089 v 0.004 l 0.004,-0.004 h 0.006 c 0.39,-0.112 0.726,-0.214 1.008,-0.306 0.296,-0.094 0.632,-0.201 1.002,-0.322 1.718,-0.578 3.396,-1.238 5.034,-1.979 h 0.003 l 0.004,-0.004 0.383,-0.178 h 0.004 l 0.382,-0.175 0.004,-0.004 c 0.685,-0.325 1.34,-0.649 1.973,-0.979 l 0.004,-0.003 c 0.161,-0.081 0.286,-0.161 0.418,-0.237 0.411,-0.25 0.977,-0.59 1.059,-0.517 0.039,0.039 -0.031,0 -0.016,0.035 v 0.008 l 0.022,0.056 0.004,0.008 c 0.228,0.559 0.138,2.254 0.099,3.076 v 0.004 c -0.013,0.242 -0.023,0.428 -0.023,0.479 v 0.024 h 0.004 c 0,1.287 -0.078,2.936 -0.16,4.725 -0.047,0.969 -0.094,1.977 -0.133,3.034 V -7.6 c -0.082,2.168 -0.043,4.324 -0.008,6.318 0.016,0.939 0.031,1.848 0.031,2.937 0,0.403 0.004,0.879 0.016,1.438 0.012,0.473 0.023,0.903 0.043,1.293 l 0.004,0.062 c 0.01,0.211 0.017,0.45 0.023,0.702 0.008,0.289 0.016,0.599 0.022,0.923 0.031,1.632 0.043,4.233 0.043,7.403 v 0.069 h 0.006 c 0,6.046 -0.061,13.937 -0.149,20.888 -0.012,1.133 -0.027,2.242 -0.043,3.313 -0.086,5.467 -0.188,9.969 -0.296,11.882 -0.067,1.146 -0.109,2.316 -0.136,3.503 -0.032,1.25 -0.049,2.409 -0.049,3.502 v 0.051 h 0.006 c 0,1.492 0.019,2.975 0.049,4.44 0.027,1.479 0.065,2.933 0.102,4.374 l 0.004,0.086 c 0.072,2.771 0.146,5.607 0.149,8.431 h 15.903 c -0.251,-5.471 -0.451,-10.913 -0.646,-16.354 L 107.49,56.928 107.099,46.68 v -0.004 l -0.004,-0.041 V 46.63 c -0.051,-1.075 -0.085,-2.104 -0.121,-3.127 l -0.004,-0.039 c -0.059,-1.745 -0.117,-3.46 -0.171,-5.166 -0.055,-1.788 -0.109,-3.483 -0.16,-5.167 -0.07,-2.351 -0.141,-4.703 -0.207,-7.061 -0.07,-2.352 -0.137,-4.705 -0.203,-7.057 -0.146,-5.127 -0.292,-10.254 -0.433,-15.381 -0.066,-2.392 -0.105,-4.715 -0.143,-7.033 -0.033,-2.293 -0.068,-4.588 -0.133,-6.908 l -0.012,-0.344 c -0.021,-0.865 -0.027,-1.752 -0.039,-2.64 -0.012,-1.03 -0.023,-2.062 -0.047,-3.022 v -0.008 l -0.004,-0.055 v -0.008 c -0.008,-0.188 -0.023,-0.352 -0.039,-0.551 -0.066,-0.844 -0.186,-2.293 -0.013,-2.938 0.259,0.183 0.366,0.259 0.495,0.351 0.474,0.338 0.949,0.675 1.44,0.981 2.526,1.569 5.271,2.729 8.117,3.576 2.827,0.84 5.755,1.362 8.664,1.668 h 0.012 c 0.898,0.094 1.832,0.147 2.78,0.164 0.953,0.017 1.909,-0.004 2.865,-0.063 4.954,-0.302 10.14,-1.568 14.638,-3.656 0.275,-0.129 0.604,-0.282 0.972,-0.471 0.336,-0.17 0.728,-0.371 1.167,-0.604 2.145,-1.152 4.943,-2.82 7.043,-4.476 l 0.031,-0.023 c 0.09,-0.074 0.199,-0.152 0.328,-0.238 0.107,-0.076 0.229,-0.15 0.354,-0.227 0.595,-0.354 1.271,-0.62 1.862,-0.604 0.441,0.014 0.906,0.086 1.375,0.16 0.66,0.109 1.327,0.215 2.058,0.188 0.057,0.004 0.125,0.014 0.212,0.017 h 0.005 c 0.082,0.004 0.193,0.008 0.347,0.012 0.617,0.011 1.558,-0.047 2.515,-0.351 0.48,0.121 1.214,0.271 2.042,0.326 0.988,0.063 2.12,-0.004 3.18,-0.401 0.004,0.004 -0.013,0.024 0.038,0.032 0.177,0.019 0.315,0.043 0.427,0.058 0.426,0.071 0.979,0.156 1.585,0.117 0.578,-0.035 1.187,-0.179 1.757,-0.543 0.297,0.009 0.636,-0.015 0.987,-0.093 v -0.004 c 0.496,-0.11 1.012,-0.321 1.482,-0.714 0.336,-0.281 0.699,-0.695 0.953,-1.285 0.244,-0.55 0.392,-1.28 0.33,-2.213 z m -148.018,0.714 h -0.006 l 0.009,-0.003 -0.003,0.003 z m 34.747,8.174 -0.016,-0.004 c -0.492,-0.047 -0.979,-0.109 -1.464,-0.186 -0.46,-0.068 -0.944,-0.162 -1.449,-0.271 -2.463,-0.539 -4.837,-1.452 -7,-2.762 h -0.004 v -0.004 c -0.194,-0.117 -0.479,-0.262 -0.784,-0.418 -0.827,-0.426 -1.885,-0.969 -2.042,-1.532 -0.021,-0.081 0.086,-0.137 0.231,-0.175 0.285,-0.079 0.694,-0.117 1.069,-0.148 v -0.004 c 0.44,-0.039 0.844,-0.074 1.154,-0.184 h 0.004 l 0.004,-0.004 c 0.745,-0.261 1.323,-0.722 1.855,-1.144 0.172,-0.133 0.336,-0.266 0.479,-0.367 0.432,-0.305 0.828,-0.414 1.392,0.371 v 0.004 c 0.199,0.272 0.4,0.546 0.612,0.808 0.202,0.254 0.423,0.508 0.659,0.77 1.164,1.284 2.521,2.372 4.072,3.217 2.203,1.19 4.604,1.849 7.063,2.136 -1.926,0.111 -3.882,0.084 -5.835,-0.103 z m 17.038,-7.218 c -1.813,0.332 -3.652,0.547 -5.497,0.617 -1.009,0.04 -2.023,0.04 -3.037,-0.026 -1,-0.063 -1.987,-0.195 -2.959,-0.414 l -0.121,-0.027 c -0.78,-0.176 -1.673,-0.379 -2.284,-0.77 l -0.051,-0.031 c -0.113,-0.075 -0.263,-0.168 -0.414,-0.27 0.058,0.016 0.121,0.028 0.211,0.043 0.433,0.082 0.836,0.152 1.253,0.176 0.443,0.031 0.894,0.012 1.375,-0.086 h 0.004 l 0.011,-0.004 c 0.332,-0.066 0.563,-0.129 0.797,-0.187 0.599,-0.153 1.198,-0.305 1.757,-0.246 1.035,0.113 2.052,0.363 3.051,0.605 2.385,0.578 4.688,1.141 7.294,0.07 0.164,0.059 0.346,0.109 0.554,0.152 -0.648,0.148 -1.296,0.281 -1.944,0.398 z m 40.682,0.142 c 1.073,-0.575 2.116,-1.304 3.081,-2.23 0.285,0.021 0.585,0.024 0.9,0.016 0.464,-0.016 0.953,-0.059 1.46,-0.133 h 0.01 c 0.107,0.004 0.533,0.18 0.986,0.367 l 0.023,0.008 c 0.473,0.195 1.021,0.422 1.671,0.621 -1.125,0.391 -2.354,0.73 -3.688,0.98 -1.408,0.261 -2.936,0.425 -4.563,0.437 l 0.12,-0.066 z m 4.096,6.617 0,0 c -0.002,0 -0.004,0 -0.006,0 h 0.006 z m 17.277,-2.697 c -0.625,0.277 -1.089,0.469 -1.427,0.609 h -0.003 l -0.309,0.129 -0.035,0.012 c -0.546,0.23 -1.085,0.438 -1.621,0.625 -0.535,0.188 -1.085,0.359 -1.646,0.52 -2.842,0.807 -5.798,1.176 -8.757,1.069 l -0.293,-0.011 -0.299,-0.012 c -0.775,-0.043 -1.558,-0.105 -2.334,-0.187 -0.184,-0.021 -0.366,-0.038 -0.55,-0.058 0.284,-0.035 0.563,-0.073 0.841,-0.116 1.444,-0.224 2.87,-0.56 4.265,-0.996 1.218,-0.388 2.425,-0.879 3.604,-1.444 1.159,-0.559 2.288,-1.189 3.374,-1.872 1.042,-0.651 1.963,-1.366 2.891,-2.081 0.254,-0.199 0.516,-0.398 0.886,-0.68 0.065,-0.05 0.25,-0.195 0.439,-0.347 0.931,-0.734 2.089,-1.652 2.938,-0.843 0.117,0.117 0.232,0.238 0.344,0.355 0.379,0.395 0.726,0.757 1.343,1.066 h 0.004 l 0.014,0.008 c 0.193,0.097 0.375,0.164 0.551,0.226 0.289,0.106 0.57,0.211 0.644,0.371 0.485,1.107 -2.736,2.716 -4.864,3.657 z" /><g
       transform="translate(0,-228)"
       id="Shape_5"><path
         style="fill:#1c5a93"
         inkscape:connector-curvature="0"
         id="path22"
         d="m 190.699,172.956 c 2.579,41.03 28.65,74.993 64.291,89.617 L 197.02,130.205 c -4.939,13.252 -7.266,27.721 -6.321,42.751 z m 173.308,-16.148 c -0.806,-12.815 -5.967,-21.396 -10.344,-28.051 -5.79,-8.212 -11.176,-15.13 -11.712,-23.673 -0.601,-9.527 6.066,-18.852 16.251,-19.492 0.46,-0.029 0.897,0 1.348,0 -19.504,-15.738 -44.725,-24.511 -71.71,-22.814 -36.216,2.278 -66.906,22.864 -83.672,52.169 2.438,-0.075 4.733,-0.172 6.68,-0.294 10.84,-0.682 27.544,-3.055 27.544,-3.055 5.565,-0.679 6.741,7.489 1.2,8.501 0,0 -5.576,1.01 -11.801,1.731 l 44.808,109.911 18.41,-69.461 -18.932,-43.234 c -5.606,0.023 -10.937,-0.302 -10.937,-0.302 -5.606,0.021 -5.49,-8.56 0.121,-8.584 0,0 17.198,0.241 27.384,-0.399 10.838,-0.681 27.546,-3.055 27.546,-3.055 5.567,-0.679 6.742,7.489 1.198,8.501 0,0 -5.583,1.01 -11.802,1.731 l 44.47,109.073 8.17,-35.196 c 3.574,-14.627 6.338,-25.136 5.78,-34.007 z m -67.258,18.582 -25.421,92.331 c 9.461,2.148 19.376,3.022 29.551,2.383 12.071,-0.76 23.518,-3.569 34.054,-8.041 -0.304,-0.428 -0.591,-0.883 -0.832,-1.383 l -37.352,-85.29 z m 85.444,-64.404 c 0.652,3.273 1.127,6.799 1.367,10.615 0.661,10.515 -0.563,22.463 -5.548,37.624 l -25.904,93.533 c 29.688,-19.906 48.313,-54.597 45.908,-92.84 -1.133,-18.023 -6.803,-34.677 -15.823,-48.932 z m 33.004,47.851 C 411.009,92.208 353.388,41.413 286.759,45.603 c -66.63,4.19 -117.427,61.804 -113.237,128.433 4.19,66.633 61.808,117.432 128.438,113.241 66.629,-4.191 117.429,-61.806 113.237,-128.44 z M 301.609,281.736 C 238.038,285.734 183.061,237.26 179.063,173.687 175.065,110.114 223.536,55.142 287.107,51.144 c 63.572,-3.998 118.552,44.469 122.548,108.042 3.998,63.576 -44.473,118.552 -108.046,122.55 z" /></g><g
       transform="translate(0,-228)"
       id="Ellipse_1_copy"><ellipse
         d="m 417.6,165.24001 c 0,66.87008 -53.77821,121.079 -120.117,121.079 -66.33878,0 -120.117,-54.20892 -120.117,-121.079 0,-66.870091 53.77822,-121.079007 120.117,-121.079007 66.33879,0 120.117,54.208916 120.117,121.079007 z"
         style="fill:#ffffff"
         sodipodi:ry="121.079"
         sodipodi:rx="120.117"
         sodipodi:cy="165.24001"
         sodipodi:cx="297.483"
         id="ellipse25"
         ry="121.079"
         rx="120.117"
         cy="165.24001"
         cx="297.483"
         transform="matrix(-0.9982,0.0601,-0.0601,-0.9982,604.3594,312.3016)" /></g><g
       transform="translate(0,-228)"
       id="Shape_5_copy"><path
         inkscape:connector-curvature="0"
         id="path28"
         d="m 192.859,172.236 c 2.58,41.03 28.652,74.993 64.291,89.618 L 199.182,129.485 c -4.941,13.252 -7.268,27.722 -6.323,42.751 z m 173.308,-16.149 c -0.808,-12.815 -5.967,-21.396 -10.346,-28.051 -5.79,-8.212 -11.174,-15.13 -11.712,-23.673 -0.599,-9.527 6.068,-18.852 16.251,-19.492 0.46,-0.029 0.899,0 1.35,-10e-4 -19.504,-15.738 -44.727,-24.511 -71.711,-22.814 -36.216,2.278 -66.906,22.864 -83.672,52.169 2.438,-0.075 4.732,-0.171 6.68,-0.294 10.84,-0.682 27.544,-3.055 27.544,-3.055 5.565,-0.678 6.741,7.489 1.201,8.501 0,0 -5.577,1.01 -11.801,1.731 l 44.808,109.912 18.409,-69.461 -18.934,-43.234 c -5.604,0.023 -10.935,-0.301 -10.935,-0.301 -5.608,0.021 -5.49,-8.56 0.121,-8.584 0,0 17.198,0.242 27.383,-0.399 10.839,-0.682 27.546,-3.055 27.546,-3.055 5.567,-0.679 6.743,7.489 1.199,8.501 0,0 -5.583,1.011 -11.802,1.731 l 44.47,109.073 8.17,-35.196 c 3.574,-14.626 6.339,-25.137 5.781,-34.008 z m -67.259,18.583 -25.423,92.331 c 9.461,2.147 19.376,3.022 29.553,2.382 12.069,-0.759 23.518,-3.57 34.054,-8.041 -0.304,-0.427 -0.59,-0.883 -0.832,-1.382 l -37.352,-85.29 z m 85.445,-64.404 c 0.653,3.273 1.128,6.799 1.368,10.616 0.661,10.515 -0.565,22.463 -5.549,37.624 l -25.903,93.533 c 29.688,-19.907 48.313,-54.598 45.908,-92.841 -1.134,-18.023 -6.804,-34.677 -15.824,-48.932 z m 33.004,47.851 C 413.169,91.489 355.548,40.693 288.919,44.883 c -66.63,4.19 -117.428,61.805 -113.237,128.433 4.191,66.633 61.806,117.432 128.438,113.243 66.628,-4.191 117.428,-61.809 113.237,-128.442 z M 303.77,281.018 C 240.197,285.016 185.222,236.542 181.224,172.968 177.226,109.395 225.695,54.423 289.268,50.425 352.84,46.427 407.817,94.894 411.815,158.467 415.813,222.04 367.342,277.02 303.77,281.018 z" /></g><path
       style="fill:url(#SVGID_1_)"
       inkscape:connector-curvature="0"
       id="path43"
       d="m 513.969,78.716 c 8.319,-13.312 16.212,-26.847 23.694,-40.573 -27.235,15.258 -55.748,24.123 -87.049,29.604 2.474,17.73 4.945,35.461 7.423,53.191 31.304,-5.48 59.813,-14.35 87.049,-29.604 -10.712,-3.609 -20.884,-8.019 -31.117,-12.618 z" /><path
       style="fill:url(#SVGID_2_)"
       inkscape:connector-curvature="0"
       id="path58"
       d="M 140.497,53.729 C 110.123,56.276 82.102,53.782 52.73,45.487 63.475,57.323 73.316,70.094 84.715,81.3 c -8.14,7.24 -17.108,12.335 -25.963,18.703 29.372,8.295 59.611,14.33 89.985,11.783 -2.69,-18.411 -5.543,-39.649 -8.24,-58.057 z" /><polygon
       transform="translate(0,-228)"
       style="fill:url(#SVGID_3_)"
       id="polygon65"
       points="490.644,325.416 458.037,348.938 455.648,331.822 " /><polygon
       transform="translate(0,-228)"
       style="fill:url(#SVGID_4_)"
       id="polygon72"
       points="130.019,328.688 148.74,339.784 146.644,325.174 " /><g
       transform="translate(0,-228)"
       id="Shape_7"><path
         style="fill:#c32b2b"
         inkscape:connector-curvature="0"
         id="path75"
         d="M 484.731,269.928 C 364.64,299.776 244.17,243.092 124.106,273.2 c 1.973,18.495 3.942,36.993 5.913,55.488 120.064,-30.108 240.538,26.591 360.625,-3.272 -1.972,-18.495 -3.944,-36.992 -5.913,-55.488 z" /></g><g
       transform="translate(0,-228)"
       id="g77"><path
         style="fill:#3b3b3b"
         inkscape:connector-curvature="0"
         id="path79"
         d="m 199.182,129.485 c -4.939,13.252 -7.268,27.722 -6.323,42.751 1.563,24.85 11.753,47.097 27.456,64.038 6.894,-2.537 14.172,-5.522 21.707,-8.965 l -42.84,-97.824 z" /><path
         style="fill:#3b3b3b"
         inkscape:connector-curvature="0"
         id="path81"
         d="m 208.391,240.343 c -15.549,-18.317 -25.547,-41.605 -27.167,-67.375 -3.998,-63.573 44.471,-118.545 108.044,-122.543 39.438,-2.48 75.563,15.235 98.266,44.217 0.9,-1.848 1.772,-3.717 2.626,-5.599 -23.877,-29.078 -60.905,-46.696 -101.239,-44.16 -66.63,4.19 -117.428,61.805 -113.237,128.433 1.646,26.144 11.517,49.848 26.927,68.752 1.877,-0.531 3.808,-1.108 5.78,-1.725 z" /><path
         style="fill:#3b3b3b"
         inkscape:connector-curvature="0"
         id="path83"
         d="m 298.908,174.67 -6.766,24.568 c 4.48,-3.011 8.95,-6.158 13.383,-9.456 l -6.617,-15.112 z" /><path
         style="fill:#3b3b3b"
         inkscape:connector-curvature="0"
         id="path85"
         d="m 360.904,136.657 c -1.615,-3.241 -3.404,-6.074 -5.081,-8.621 -5.789,-8.212 -11.174,-15.13 -11.712,-23.673 -0.599,-9.527 6.068,-18.852 16.251,-19.492 0.46,-0.029 0.899,0 1.35,-10e-4 C 342.207,69.132 316.985,60.359 290,62.056 c -36.216,2.278 -66.906,22.864 -83.672,52.169 2.438,-0.075 4.732,-0.171 6.68,-0.294 10.84,-0.682 27.544,-3.055 27.544,-3.055 5.565,-0.678 6.741,7.489 1.201,8.501 0,0 -5.577,1.01 -11.801,1.731 l 37.934,93.051 c 4.458,-2.502 8.946,-5.144 13.444,-7.933 l 11.838,-44.669 -18.934,-43.234 c -5.604,0.023 -10.935,-0.301 -10.935,-0.301 -5.608,0.021 -5.49,-8.56 0.121,-8.584 0,0 17.198,0.242 27.383,-0.399 10.839,-0.682 27.546,-3.055 27.546,-3.055 5.567,-0.679 6.743,7.489 1.199,8.501 0,0 -5.583,1.011 -11.802,1.731 l 21.908,53.737 c 11.122,-10.097 21.681,-21.194 31.25,-33.296 z" /></g><g
       transform="translate(0,-228)"
       id="g87"><path
         style="fill:#4c1111"
         inkscape:connector-curvature="0"
         id="path89"
         d="m 157.152,288.23 -1.922,0.121 0.558,-4.697 9.609,-0.604 -0.523,4.694 -2.054,0.129 1.47,9.891 4.231,-10.249 -1.922,0.121 0.524,-4.693 8.273,-0.521 -0.523,4.694 -2.053,0.129 2.457,9.994 3.213,-10.35 -1.726,0.111 0.524,-4.693 9.675,-0.607 -0.458,4.689 -2.118,0.133 -7.115,19.588 -4.82,0.303 -2.381,-11.389 -4.33,11.81 -4.984,0.313 -3.605,-18.917 z" /><path
         style="fill:#4c1111"
         inkscape:connector-curvature="0"
         id="path91"
         d="m 184.265,299.124 c -0.023,-5.147 3.908,-8.996 9.097,-9.021 4.896,-0.022 8.143,3.098 8.161,7.389 0.024,5.28 -3.908,8.995 -9.063,9.02 -4.962,0.023 -8.176,-3.163 -8.195,-7.388 z m 11.386,-1.143 c -0.007,-1.485 -1.057,-2.569 -2.524,-2.563 -1.6,0.008 -2.932,1.434 -2.922,3.215 0.007,1.52 0.99,2.537 2.491,2.53 1.598,-0.007 2.962,-1.465 2.955,-3.182 z" /><path
         style="fill:#4c1111"
         inkscape:connector-curvature="0"
         id="path93"
         d="m 210.979,306.162 -9.367,-0.07 0.852,-4.681 1.893,0.015 1.124,-6.263 -1.859,-0.015 0.851,-4.713 7.409,0.055 -0.375,2.109 0.294,0.002 c 0.729,-1.645 1.879,-2.494 3.413,-2.482 1.762,0.014 2.961,1.275 2.947,3.092 -0.017,2.146 -1.365,3.688 -3.291,3.673 -1.633,-0.013 -2.866,-0.946 -3.146,-2.764 l -0.293,-0.002 -1.229,7.352 1.664,0.013 -0.887,4.679 z" /><path
         style="fill:#4c1111"
         inkscape:connector-curvature="0"
         id="path95"
         d="m 229.223,305.02 c -1.631,1.214 -2.985,1.806 -4.779,1.76 -3.556,-0.093 -6.028,-2.929 -5.917,-7.25 0.146,-5.641 3.767,-9.278 8.529,-9.155 1.729,0.044 3.021,0.573 3.875,1.618 l 0.901,-4.532 -1.893,-0.049 0.938,-4.664 7.567,0.194 -3.625,18.987 1.664,0.043 -0.872,4.665 -6.688,-0.172 0.3,-1.445 z m -4.832,-6.265 c -0.047,1.814 0.938,2.93 2.633,2.973 1.794,0.048 3.042,-1.506 3.097,-3.584 0.044,-1.716 -0.874,-2.827 -2.439,-2.868 -1.959,-0.051 -3.235,1.335 -3.291,3.479 z" /><path
         style="fill:#4c1111"
         inkscape:connector-curvature="0"
         id="path97"
         d="m 248.257,302.56 -1.064,4.604 -10.689,-0.575 1.063,-4.604 2.348,0.126 3.285,-14.301 -2.348,-0.127 1.064,-4.604 10.006,0.539 c 5.704,0.307 8.504,2.938 8.273,7.222 -0.28,5.24 -4.021,7.915 -10.474,7.567 l -2.705,-0.146 -0.976,4.179 2.217,0.12 z m 1.68,-8.768 c 2.314,0.125 3.854,-1.147 3.942,-2.796 0.082,-1.516 -1.164,-2.674 -3.087,-2.777 l -1.435,-0.076 -1.278,5.551 1.858,0.098 z" /><path
         style="fill:#4c1111"
         inkscape:connector-curvature="0"
         id="path99"
         d="m 266.663,308.516 -9.328,-0.828 1.226,-4.595 1.885,0.167 1.626,-6.148 -1.853,-0.164 1.229,-4.629 7.378,0.654 -0.544,2.072 0.293,0.025 c 0.859,-1.58 2.073,-2.334 3.602,-2.198 1.755,0.155 2.847,1.512 2.687,3.319 -0.188,2.137 -1.658,3.563 -3.576,3.393 -1.625,-0.144 -2.778,-1.174 -2.911,-3.007 l -0.292,-0.026 -1.82,7.227 1.657,0.146 -1.259,4.592 z" /><path
         style="fill:#4c1111"
         inkscape:connector-curvature="0"
         id="path101"
         d="m 289.639,308.473 c -2.144,1.782 -4.806,2.496 -7.687,2.117 -4.952,-0.65 -7.713,-3.941 -7.075,-8.784 0.641,-4.874 4.688,-8.104 10.092,-7.393 4.661,0.612 7.163,3.871 6.513,8.811 -0.052,0.394 -0.14,0.814 -0.229,1.235 l -10.583,-1.393 c -0.229,1.733 0.698,2.953 2.414,3.18 1.036,0.137 1.929,-0.146 2.941,-0.845 l 3.614,3.072 z m -3.364,-6.965 c 0.018,-0.131 0.063,-0.226 0.075,-0.323 0.186,-1.406 -0.637,-2.412 -2.062,-2.601 -1.489,-0.196 -2.539,0.531 -3.16,2.246 l 5.147,0.678 z" /><path
         style="fill:#4c1111"
         inkscape:connector-curvature="0"
         id="path103"
         d="m 292.452,306.251 3.667,0.396 c 0.025,1.596 0.749,2.503 2.177,2.655 0.909,0.1 1.549,-0.363 1.62,-1.02 0.115,-1.083 -1.255,-1.762 -3.122,-3.024 -2.02,-1.379 -2.985,-2.776 -2.784,-4.646 0.292,-2.724 2.905,-4.731 6.378,-4.357 1.558,0.168 2.969,0.784 4.305,1.791 l 0.33,-0.927 3.474,0.374 -1.291,4.673 -3.604,-0.388 c -0.355,-1.268 -1.007,-1.935 -2.013,-2.042 -0.812,-0.088 -1.373,0.25 -1.434,0.808 -0.099,0.919 1.121,1.481 2.924,2.737 2.29,1.606 3.306,3.144 3.091,5.146 -0.308,2.854 -2.963,4.658 -6.599,4.268 -1.688,-0.183 -3.261,-0.815 -4.594,-1.854 l -0.265,0.935 -3.667,-0.396 1.407,-5.129 z" /><path
         style="fill:#4c1111"
         inkscape:connector-curvature="0"
         id="path105"
         d="m 308.162,307.934 3.671,0.347 c 0.047,1.596 0.78,2.494 2.211,2.629 0.909,0.086 1.543,-0.385 1.604,-1.042 0.103,-1.084 -1.276,-1.744 -3.16,-2.982 -2.034,-1.353 -3.02,-2.737 -2.843,-4.609 0.257,-2.729 2.843,-4.771 6.317,-4.442 1.561,0.147 2.979,0.746 4.327,1.734 l 0.316,-0.932 3.478,0.328 -1.229,4.689 -3.605,-0.34 c -0.372,-1.263 -1.031,-1.922 -2.038,-2.017 -0.813,-0.077 -1.369,0.27 -1.422,0.827 -0.087,0.92 1.14,1.466 2.958,2.698 2.309,1.577 3.346,3.101 3.155,5.104 -0.27,2.857 -2.899,4.697 -6.539,4.354 -1.688,-0.16 -3.271,-0.773 -4.615,-1.795 l -0.252,0.938 -3.671,-0.347 1.337,-5.142 z" /><path
         style="fill:#4c1111"
         inkscape:connector-curvature="0"
         id="path107"
         d="m 352.673,293.206 5.921,0.47 -2.267,8.758 -5.921,-0.469 c -0.442,-2.253 -1.849,-3.522 -3.931,-3.688 -3.221,-0.255 -5.917,2.378 -6.265,6.753 -0.256,3.225 1.1,5.119 3.995,5.349 2.113,0.168 3.755,-0.695 5.052,-2.611 l 5.965,3.222 c -2.496,4.236 -6.45,6.208 -11.525,5.807 -6.57,-0.521 -10.645,-5.711 -10.111,-12.422 0.253,-3.191 1.505,-6.171 3.546,-8.394 2.548,-2.811 5.461,-4.035 8.974,-3.758 2.343,0.187 4.271,1.067 6.069,2.732 l 0.498,-1.749 z" /><path
         style="fill:#4c1111"
         inkscape:connector-curvature="0"
         id="path109"
         d="m 367.454,302.381 7.457,0.521 -2.654,10.796 1.889,0.132 -1.143,4.648 -7.262,-0.507 0.636,-2.535 c -1.983,1.681 -4.034,2.464 -6.118,2.317 -2.344,-0.163 -3.535,-1.371 -3.389,-3.478 0.034,-0.494 0.262,-1.404 0.585,-2.737 l 1.269,-5.038 -1.889,-0.132 1.144,-4.649 7.718,0.538 -2.411,9.688 c -0.043,0.13 -0.055,0.294 -0.063,0.426 -0.057,0.79 0.313,1.146 1.191,1.208 1.172,0.082 2.104,-0.614 2.512,-2.239 l 1.014,-4.195 -1.66,-0.115 1.174,-4.649 z" /><path
         style="fill:#4c1111"
         inkscape:connector-curvature="0"
         id="path111"
         d="m 383.593,319.141 -9.35,-0.563 1.098,-4.629 1.89,0.114 1.454,-6.194 -1.855,-0.112 1.101,-4.662 7.396,0.447 -0.486,2.086 0.293,0.02 c 0.817,-1.604 2.01,-2.393 3.541,-2.301 1.759,0.106 2.889,1.433 2.778,3.243 -0.131,2.143 -1.561,3.609 -3.481,3.493 -1.629,-0.099 -2.811,-1.096 -2.994,-2.926 l -0.293,-0.019 -1.619,7.275 1.662,0.101 -1.135,4.627 z" /><path
         style="fill:#4c1111"
         inkscape:connector-curvature="0"
         id="path113"
         d="m 399.791,319.973 -9.651,-0.389 1.035,-4.648 1.859,0.075 1.36,-6.221 -1.892,-0.076 1.005,-4.683 7.695,0.31 -2.333,10.904 1.988,0.08 -1.066,4.648 z m -3.448,-23.061 6.326,0.255 -1.054,5.044 -6.391,-0.257 1.119,-5.042 z" /><path
         style="fill:#4c1111"
         inkscape:connector-curvature="0"
         id="path115"
         d="m 410.573,312.868 c -0.127,0.727 -0.222,1.223 -0.221,1.485 0.004,0.66 0.464,1.055 1.377,1.049 0.164,-10e-4 0.327,-0.002 0.522,-0.036 l -0.821,4.593 -3.427,0.021 c -2.709,0.017 -3.952,-0.405 -3.964,-2.319 -0.004,-0.693 0.088,-1.851 0.372,-3.402 l 0.947,-5.221 -1.959,0.012 0.787,-4.725 1.959,-0.013 0.885,-4.955 5.744,-0.035 -0.852,4.956 1.926,-0.013 -0.788,4.726 -1.763,0.011 -0.724,3.866 z" /><path
         style="fill:#4c1111"
         inkscape:connector-curvature="0"
         id="path117"
         d="m 422.447,319.739 -9.655,0.234 0.734,-4.705 1.86,-0.045 0.958,-6.295 -1.893,0.046 0.701,-4.736 7.699,-0.188 -1.628,11.031 1.99,-0.048 -0.766,4.706 z m -4.922,-22.788 6.329,-0.153 -0.726,5.102 -6.396,0.154 0.793,-5.103 z" /><path
         style="fill:#4c1111"
         inkscape:connector-curvature="0"
         id="path119"
         d="m 426.43,300.607 0.56,-4.758 7.627,-0.414 -1.082,8.983 c 1.099,-0.854 2.314,-1.316 3.65,-1.389 3.618,-0.196 6.576,2.519 6.814,6.936 0.291,5.372 -2.96,9.317 -7.132,9.544 -2.184,0.118 -3.823,-0.586 -5.022,-2.207 l -0.246,2.097 -7.528,0.408 0.563,-4.725 1.891,-0.103 1.798,-14.478 -1.893,0.106 z m 8.825,13.868 c 1.793,-0.098 3.013,-1.718 2.909,-3.596 -0.085,-1.582 -1.256,-2.676 -2.854,-2.589 -1.792,0.097 -2.99,1.518 -2.883,3.495 0.094,1.681 1.229,2.778 2.828,2.69 z" /><path
         style="fill:#4c1111"
         inkscape:connector-curvature="0"
         id="path121"
         d="m 456.882,316.06 c -1.463,1.41 -2.729,2.171 -4.517,2.354 -3.539,0.362 -6.354,-2.135 -6.797,-6.436 -0.576,-5.611 2.518,-9.678 7.355,-10.173 1.946,-0.199 3.442,0.312 4.801,1.697 l 0.105,-1.836 6.43,-0.658 -0.293,4.807 -1.431,0.146 -0.498,6.32 1.655,-0.17 -0.268,4.736 -6.657,0.683 0.115,-1.47 z m -5.596,-5.596 c 0.187,1.805 1.305,2.785 2.991,2.612 1.787,-0.184 2.826,-1.882 2.613,-3.949 -0.175,-1.707 -1.229,-2.693 -2.787,-2.534 -1.947,0.2 -3.035,1.737 -2.817,3.871 z" /></g><g
       transform="translate(0,-228)"
       id="g123"><path
         style="fill:#ffffff"
         inkscape:connector-curvature="0"
         id="path125"
         d="m 156.302,287.38 -1.922,0.121 0.557,-4.696 9.61,-0.604 -0.524,4.693 -2.053,0.129 1.469,9.892 4.232,-10.249 -1.922,0.121 0.523,-4.694 8.274,-0.52 -0.524,4.694 -2.052,0.129 2.457,9.994 3.212,-10.351 -1.727,0.108 0.523,-4.694 9.675,-0.606 -0.458,4.689 -2.117,0.133 -7.115,19.587 -4.821,0.303 -2.38,-11.388 -4.331,11.81 -4.984,0.313 -3.602,-18.914 z" /><path
         style="fill:#ffffff"
         inkscape:connector-curvature="0"
         id="path127"
         d="m 183.414,298.273 c -0.024,-5.148 3.907,-8.996 9.097,-9.021 4.896,-0.021 8.142,3.098 8.161,7.389 0.023,5.28 -3.908,8.995 -9.064,9.021 -4.961,0.023 -8.174,-3.164 -8.194,-7.389 z m 11.386,-1.142 c -0.007,-1.484 -1.057,-2.568 -2.525,-2.563 -1.599,0.008 -2.931,1.433 -2.922,3.215 0.007,1.519 0.991,2.537 2.492,2.53 1.599,-0.007 2.963,-1.465 2.955,-3.182 z" /><path
         style="fill:#ffffff"
         inkscape:connector-curvature="0"
         id="path129"
         d="m 210.128,305.313 -9.367,-0.07 0.851,-4.682 1.894,0.016 1.124,-6.264 -1.86,-0.015 0.852,-4.713 7.408,0.056 -0.375,2.109 0.294,0.002 c 0.73,-1.645 1.88,-2.494 3.413,-2.482 1.763,0.014 2.961,1.275 2.947,3.092 -0.016,2.146 -1.365,3.687 -3.291,3.673 -1.632,-0.013 -2.866,-0.946 -3.146,-2.765 l -0.293,-0.002 -1.229,7.353 1.665,0.012 -0.887,4.68 z" /><path
         style="fill:#ffffff"
         inkscape:connector-curvature="0"
         id="path131"
         d="m 228.373,304.169 c -1.631,1.213 -2.985,1.805 -4.779,1.759 -3.556,-0.092 -6.029,-2.928 -5.917,-7.25 0.146,-5.641 3.766,-9.277 8.529,-9.154 1.729,0.043 3.021,0.572 3.875,1.617 l 0.9,-4.531 -1.892,-0.049 0.937,-4.664 7.568,0.194 -3.625,18.987 1.664,0.043 -0.872,4.665 -6.688,-0.172 0.3,-1.445 z m -4.833,-6.265 c -0.047,1.813 0.937,2.93 2.633,2.973 1.794,0.047 3.042,-1.506 3.096,-3.584 0.044,-1.716 -0.874,-2.828 -2.438,-2.869 -1.959,-0.05 -3.235,1.337 -3.291,3.48 z" /><path
         style="fill:#ffffff"
         inkscape:connector-curvature="0"
         id="path133"
         d="m 247.406,301.709 -1.063,4.604 -10.69,-0.575 1.064,-4.604 2.347,0.126 3.285,-14.301 -2.349,-0.126 1.063,-4.604 10.006,0.539 c 5.704,0.308 8.505,2.938 8.274,7.223 -0.281,5.24 -4.021,7.915 -10.474,7.566 l -2.705,-0.146 -0.977,4.178 2.219,0.12 z m 1.68,-8.768 c 2.313,0.125 3.854,-1.147 3.941,-2.797 0.082,-1.516 -1.164,-2.674 -3.087,-2.776 l -1.434,-0.077 -1.279,5.551 1.859,0.099 z" /><path
         style="fill:#ffffff"
         inkscape:connector-curvature="0"
         id="path135"
         d="m 265.813,307.665 -9.328,-0.828 1.227,-4.595 1.885,0.167 1.626,-6.149 -1.853,-0.164 1.229,-4.628 7.378,0.654 -0.544,2.071 0.293,0.025 c 0.86,-1.58 2.074,-2.333 3.603,-2.197 1.755,0.155 2.847,1.512 2.687,3.318 -0.188,2.137 -1.659,3.563 -3.577,3.394 -1.625,-0.145 -2.777,-1.175 -2.911,-3.007 l -0.292,-0.026 -1.819,7.226 1.656,0.147 -1.26,4.592 z" /><path
         style="fill:#ffffff"
         inkscape:connector-curvature="0"
         id="path137"
         d="m 288.788,307.622 c -2.145,1.782 -4.807,2.496 -7.688,2.117 -4.952,-0.651 -7.712,-3.942 -7.075,-8.784 0.642,-4.875 4.688,-8.104 10.093,-7.393 4.66,0.612 7.162,3.871 6.513,8.811 -0.052,0.393 -0.141,0.814 -0.229,1.235 l -10.583,-1.394 c -0.228,1.734 0.698,2.954 2.414,3.18 1.036,0.138 1.93,-0.146 2.942,-0.845 l 3.613,3.073 z m -3.363,-6.965 c 0.017,-0.131 0.063,-0.227 0.075,-0.323 0.185,-1.407 -0.638,-2.413 -2.063,-2.601 -1.489,-0.196 -2.539,0.53 -3.16,2.245 l 5.148,0.679 z" /><path
         style="fill:#ffffff"
         inkscape:connector-curvature="0"
         id="path139"
         d="m 291.602,305.4 3.667,0.396 c 0.026,1.596 0.749,2.503 2.177,2.656 0.909,0.099 1.55,-0.364 1.62,-1.021 0.116,-1.083 -1.255,-1.762 -3.122,-3.023 -2.019,-1.379 -2.984,-2.777 -2.783,-4.647 0.292,-2.723 2.904,-4.73 6.378,-4.356 1.558,0.168 2.969,0.783 4.305,1.791 l 0.33,-0.928 3.473,0.375 -1.29,4.673 -3.603,-0.389 c -0.356,-1.267 -1.007,-1.934 -2.014,-2.042 -0.811,-0.088 -1.373,0.25 -1.433,0.809 -0.099,0.919 1.121,1.48 2.923,2.736 2.29,1.607 3.307,3.145 3.091,5.146 -0.307,2.854 -2.963,4.658 -6.598,4.267 -1.688,-0.182 -3.261,-0.814 -4.594,-1.854 l -0.266,0.934 -3.667,-0.395 1.406,-5.128 z" /><path
         style="fill:#ffffff"
         inkscape:connector-curvature="0"
         id="path141"
         d="m 307.312,307.083 3.671,0.346 c 0.047,1.597 0.781,2.494 2.211,2.629 0.909,0.086 1.543,-0.385 1.605,-1.042 0.102,-1.084 -1.277,-1.743 -3.16,-2.981 -2.035,-1.354 -3.02,-2.738 -2.843,-4.61 0.257,-2.728 2.843,-4.771 6.316,-4.441 1.562,0.146 2.979,0.746 4.327,1.733 l 0.317,-0.931 3.477,0.328 -1.229,4.688 -3.606,-0.34 c -0.372,-1.262 -1.03,-1.921 -2.038,-2.016 -0.812,-0.077 -1.368,0.269 -1.422,0.827 -0.087,0.92 1.141,1.466 2.958,2.697 2.31,1.577 3.347,3.102 3.156,5.104 -0.27,2.856 -2.9,4.697 -6.539,4.354 -1.688,-0.159 -3.271,-0.772 -4.616,-1.795 l -0.252,0.938 -3.671,-0.348 1.338,-5.14 z" /><path
         style="fill:#ffffff"
         inkscape:connector-curvature="0"
         id="path143"
         d="m 351.823,292.355 5.922,0.47 -2.268,8.758 -5.92,-0.469 c -0.443,-2.253 -1.849,-3.523 -3.931,-3.688 -3.222,-0.255 -5.917,2.378 -6.266,6.753 -0.256,3.226 1.101,5.119 3.995,5.35 2.114,0.168 3.755,-0.695 5.052,-2.611 l 5.966,3.221 c -2.496,4.237 -6.45,6.208 -11.525,5.808 -6.571,-0.521 -10.645,-5.711 -10.112,-12.422 0.253,-3.191 1.505,-6.172 3.546,-8.394 2.549,-2.812 5.462,-4.036 8.975,-3.758 2.343,0.187 4.27,1.067 6.068,2.731 l 0.498,-1.749 z" /><path
         style="fill:#ffffff"
         inkscape:connector-curvature="0"
         id="path145"
         d="m 366.604,301.53 7.457,0.521 -2.653,10.796 1.889,0.132 -1.144,4.649 -7.262,-0.507 0.636,-2.535 c -1.982,1.68 -4.033,2.463 -6.117,2.317 -2.345,-0.163 -3.535,-1.371 -3.39,-3.479 0.035,-0.494 0.262,-1.404 0.585,-2.737 l 1.27,-5.037 -1.89,-0.133 1.145,-4.648 7.718,0.538 -2.412,9.688 c -0.043,0.13 -0.054,0.294 -0.063,0.426 -0.058,0.79 0.312,1.146 1.19,1.208 1.172,0.082 2.104,-0.613 2.513,-2.238 l 1.014,-4.195 -1.66,-0.116 1.174,-4.65 z" /><path
         style="fill:#ffffff"
         inkscape:connector-curvature="0"
         id="path147"
         d="m 382.742,318.29 -9.351,-0.564 1.098,-4.629 1.891,0.114 1.454,-6.194 -1.856,-0.111 1.102,-4.662 7.395,0.447 -0.486,2.086 0.294,0.019 c 0.816,-1.604 2.01,-2.392 3.54,-2.3 1.76,0.105 2.89,1.432 2.778,3.243 -0.13,2.142 -1.56,3.608 -3.48,3.493 -1.629,-0.1 -2.812,-1.097 -2.994,-2.927 l -0.293,-0.018 -1.619,7.275 1.662,0.101 -1.135,4.627 z" /><path
         style="fill:#ffffff"
         inkscape:connector-curvature="0"
         id="path149"
         d="m 398.941,319.122 -9.65,-0.389 1.035,-4.648 1.858,0.075 1.361,-6.221 -1.893,-0.076 1.006,-4.684 7.694,0.311 -2.333,10.903 1.989,0.08 -1.067,4.649 z m -3.449,-23.059 6.325,0.254 -1.053,5.045 -6.391,-0.257 1.119,-5.042 z" /><path
         style="fill:#ffffff"
         inkscape:connector-curvature="0"
         id="path151"
         d="m 409.723,312.018 c -0.127,0.728 -0.222,1.224 -0.221,1.486 0.004,0.66 0.464,1.054 1.377,1.048 0.164,-0.001 0.327,-0.002 0.521,-0.036 l -0.82,4.594 -3.428,0.021 c -2.709,0.017 -3.951,-0.405 -3.964,-2.319 -0.004,-0.692 0.088,-1.85 0.372,-3.401 l 0.948,-5.222 -1.959,0.013 0.787,-4.726 1.959,-0.012 0.885,-4.956 5.744,-0.035 -0.853,4.956 1.927,-0.012 -0.788,4.725 -1.764,0.012 -0.723,3.864 z" /><path
         style="fill:#ffffff"
         inkscape:connector-curvature="0"
         id="path153"
         d="m 421.596,318.889 -9.656,0.235 0.735,-4.705 1.86,-0.045 0.958,-6.295 -1.894,0.046 0.702,-4.737 7.699,-0.188 -1.628,11.031 1.989,-0.049 -0.765,4.707 z m -4.922,-22.787 6.329,-0.153 -0.727,5.101 -6.395,0.155 0.793,-5.103 z" /><path
         style="fill:#ffffff"
         inkscape:connector-curvature="0"
         id="path155"
         d="m 425.578,299.757 0.561,-4.758 7.627,-0.414 -1.082,8.984 c 1.098,-0.854 2.313,-1.316 3.65,-1.39 3.617,-0.195 6.575,2.52 6.814,6.937 0.291,5.372 -2.96,9.316 -7.132,9.544 -2.184,0.118 -3.824,-0.586 -5.023,-2.207 l -0.246,2.096 -7.527,0.409 0.562,-4.725 1.892,-0.104 1.798,-14.477 -1.894,0.105 z m 8.827,13.867 c 1.793,-0.098 3.014,-1.718 2.91,-3.596 -0.085,-1.582 -1.256,-2.677 -2.854,-2.589 -1.792,0.097 -2.99,1.518 -2.884,3.494 0.093,1.682 1.23,2.778 2.828,2.691 z" /><path
         style="fill:#ffffff"
         inkscape:connector-curvature="0"
         id="path157"
         d="m 456.031,315.209 c -1.463,1.41 -2.729,2.17 -4.516,2.354 -3.539,0.361 -6.355,-2.136 -6.797,-6.436 -0.576,-5.612 2.517,-9.678 7.354,-10.173 1.947,-0.2 3.443,0.311 4.802,1.697 l 0.105,-1.836 6.429,-0.658 -0.293,4.806 -1.43,0.146 -0.498,6.319 1.655,-0.17 -0.269,4.737 -6.656,0.682 0.114,-1.468 z m -5.594,-5.596 c 0.186,1.805 1.304,2.785 2.991,2.611 1.787,-0.183 2.826,-1.882 2.612,-3.948 -0.175,-1.707 -1.229,-2.693 -2.786,-2.534 -1.947,0.2 -3.037,1.737 -2.817,3.871 z" /></g></g></svg>