<?xml version="1.0" encoding="UTF-8" standalone="no"?>
<!-- Created with Inkscape (http://www.inkscape.org/) -->

<svg
   xmlns:dc="http://purl.org/dc/elements/1.1/"
   xmlns:cc="http://creativecommons.org/ns#"
   xmlns:rdf="http://www.w3.org/1999/02/22-rdf-syntax-ns#"
   xmlns:svg="http://www.w3.org/2000/svg"
   xmlns="http://www.w3.org/2000/svg"
   xmlns:sodipodi="http://sodipodi.sourceforge.net/DTD/sodipodi-0.dtd"
   xmlns:inkscape="http://www.inkscape.org/namespaces/inkscape"
   id="svg2"
   version="1.1"
   inkscape:version="0.48.4 r9939"
   width="200"
   height="90"
   xml:space="preserve"
   sodipodi:docname="escola-politécnica.svg"
   inkscape:export-filename="/home/phls/Dropbox/eventos/flisol/2015/logos/escola-politécnica.png"
   inkscape:export-xdpi="90"
   inkscape:export-ydpi="90"><metadata
     id="metadata8"><rdf:RDF><cc:Work
         rdf:about=""><dc:format>image/svg+xml</dc:format><dc:type
           rdf:resource="http://purl.org/dc/dcmitype/StillImage" /><dc:title></dc:title></cc:Work></rdf:RDF></metadata><defs
     id="defs6"><clipPath
       clipPathUnits="userSpaceOnUse"
       id="clipPath16"><path
         d="m 0,283.465 283.465,0 L 283.465,0 0,0 0,283.465 z"
         id="path18"
         inkscape:connector-curvature="0" /></clipPath></defs><sodipodi:namedview
     pagecolor="#ffffff"
     bordercolor="#666666"
     borderopacity="1"
     objecttolerance="10"
     gridtolerance="10"
     guidetolerance="10"
     inkscape:pageopacity="0"
     inkscape:pageshadow="2"
     inkscape:window-width="1920"
     inkscape:window-height="1028"
     id="namedview4"
     showgrid="false"
     inkscape:zoom="1.8838554"
     inkscape:cx="177.16562"
     inkscape:cy="177.16562"
     inkscape:window-x="0"
     inkscape:window-y="0"
     inkscape:window-maximized="1"
     inkscape:current-layer="g10" /><g
     id="g10"
     inkscape:groupmode="layer"
     inkscape:label="escola politécnica"
     transform="matrix(1.25,0,0,-1.25,0,90.00003)"><g
       id="g12"
       transform="matrix(0.97616974,0,0,0.97616974,-54.670997,-104.42668)"><g
         id="g14"
         clip-path="url(#clipPath16)"><g
           id="g20"
           transform="translate(73.2954,109.1416)"><path
             d="M 0,0 C 0.139,0 0.277,0.016 0.43,0.059 0.579,0.096 0.706,0.16 0.825,0.25 0.938,0.342 1.027,0.441 1.092,0.555 1.16,0.668 1.209,0.814 1.252,0.992 1.289,1.174 1.305,1.352 1.305,1.529 1.305,1.751 1.275,1.975 1.209,2.193 1.16,2.358 1.072,2.497 0.957,2.631 0.849,2.758 0.701,2.864 0.546,2.936 0.384,3.003 0.209,3.043 0.025,3.043 -0.115,3.043 -0.27,3.016 -0.407,2.969 -0.553,2.924 -0.666,2.855 -0.766,2.782 -0.854,2.704 -0.933,2.596 -1.024,2.457 -1.098,2.313 -1.156,2.16 -1.195,1.99 -1.238,1.821 -1.258,1.668 -1.258,1.549 c 0,-0.137 0.02,-0.295 0.063,-0.465 C -1.156,0.916 -1.1,0.762 -1.031,0.635 -0.956,0.512 -0.861,0.402 -0.768,0.301 -0.662,0.201 -0.547,0.129 -0.41,0.074 -0.285,0.023 -0.148,0 0,0 m -1.703,1.529 c 0,0.165 0.019,0.317 0.055,0.446 0.044,0.131 0.108,0.273 0.207,0.427 0.094,0.149 0.208,0.28 0.341,0.38 0.134,0.101 0.319,0.189 0.563,0.269 0.168,0.053 0.377,0.08 0.631,0.08 0.172,0 0.34,-0.024 0.506,-0.068 C 0.768,3.016 0.91,2.959 1.044,2.874 1.178,2.791 1.316,2.666 1.448,2.492 1.539,2.369 1.613,2.255 1.661,2.113 1.722,1.932 1.753,1.751 1.753,1.563 1.753,1.342 1.734,1.162 1.691,1.023 1.653,0.887 1.578,0.738 1.481,0.602 1.404,0.492 1.272,0.367 1.082,0.225 0.957,0.131 0.809,0.059 0.619,0 0.436,-0.059 0.235,-0.088 0.023,-0.088 c -0.218,0 -0.41,0.024 -0.586,0.076 -0.167,0.041 -0.306,0.108 -0.426,0.186 -0.111,0.07 -0.234,0.181 -0.346,0.32 -0.12,0.141 -0.216,0.299 -0.278,0.479 -0.059,0.166 -0.09,0.351 -0.09,0.556 m -2.951,1.564 c 0.032,0.005 0.047,0.009 0.056,0.009 0.059,0 0.143,-0.004 0.273,-0.009 0.071,-0.007 0.116,-0.007 0.145,-0.007 0.03,0 0.107,0.007 0.227,0.012 l 0.408,0.021 c 0.116,0.012 0.24,0.019 0.383,0.019 0.263,0 0.463,-0.036 0.621,-0.111 0.152,-0.068 0.266,-0.183 0.353,-0.338 0.079,-0.162 0.118,-0.32 0.118,-0.464 0,-0.264 -0.084,-0.479 -0.266,-0.662 -0.18,-0.188 -0.424,-0.29 -0.724,-0.29 -0.088,0 -0.165,0.014 -0.217,0.028 -0.06,0.015 -0.119,0.056 -0.192,0.099 -0.038,0.024 -0.056,0.045 -0.061,0.071 0.005,0.009 0.013,0.021 0.026,0.023 0.023,0 0.046,-0.002 0.07,-0.015 0.057,-0.022 0.129,-0.03 0.209,-0.03 0.132,0 0.254,0.031 0.371,0.1 0.115,0.06 0.202,0.15 0.266,0.267 0.051,0.123 0.082,0.248 0.082,0.377 0,0.123 -0.031,0.248 -0.09,0.368 -0.066,0.125 -0.146,0.221 -0.248,0.29 -0.052,0.045 -0.142,0.075 -0.26,0.108 -0.125,0.021 -0.217,0.037 -0.279,0.037 -0.201,0 -0.322,-0.019 -0.359,-0.04 L -3.746,2.924 -3.735,2.643 -3.74,2.589 c -0.002,-0.044 -0.006,-0.11 -0.006,-0.204 0,-0.328 0.006,-0.539 0.016,-0.622 l 0,-0.136 0.028,-1.123 c 0,-0.018 0,-0.043 -0.003,-0.088 0,-0.047 -0.006,-0.084 -0.006,-0.117 0,-0.078 0.006,-0.139 0.018,-0.18 C -3.65,0.107 -3.535,0.074 -3.345,0.033 -3.262,0.014 -3.213,0.002 -3.201,0 c 0.012,-0.006 0.019,-0.012 0.029,-0.035 -0.004,-0.022 -0.013,-0.039 -0.021,-0.043 -0.016,-0.006 -0.036,-0.01 -0.067,-0.01 -0.013,0 -0.062,0.004 -0.135,0.01 -0.14,0.014 -0.253,0.021 -0.334,0.021 l -0.423,-0.017 -0.262,0.01 c -0.022,0 -0.065,-0.002 -0.145,-0.002 l 0,0.058 0.321,0.067 c 0.056,0.011 0.086,0.025 0.096,0.037 0.015,0.025 0.025,0.068 0.025,0.138 0,0.016 0.002,0.045 0.002,0.098 0.004,0.035 0.004,0.084 0.004,0.143 0,0.193 -0.01,0.601 -0.028,1.231 -0.009,0.292 -0.011,0.593 -0.011,0.899 l 0,0.049 c 0,0.104 -0.018,0.184 -0.053,0.215 -0.061,0.057 -0.211,0.1 -0.451,0.129 -0.006,0.024 -0.01,0.035 -0.01,0.045 0,0.02 0.004,0.033 0.01,0.05 m -2.239,0.018 c 0.007,-0.025 0.01,-0.048 0.01,-0.066 0,-0.006 -0.003,-0.023 -0.004,-0.042 -0.041,-0.011 -0.081,-0.017 -0.106,-0.017 -0.01,0 -0.027,0 -0.06,0.006 -0.023,0 -0.047,0.004 -0.061,0.004 -0.07,0 -0.134,-0.019 -0.176,-0.04 C -7.323,2.936 -7.342,2.912 -7.347,2.879 L -7.371,2.602 -7.365,1.385 C -7.363,0.934 -7.35,0.656 -7.323,0.553 -7.29,0.441 -7.24,0.355 -7.178,0.287 c 0.064,-0.074 0.162,-0.137 0.292,-0.18 0.135,-0.046 0.262,-0.074 0.382,-0.074 0.281,0 0.5,0.041 0.651,0.123 0.141,0.078 0.245,0.194 0.313,0.336 0.067,0.133 0.095,0.358 0.095,0.645 0,0.008 -0.003,0.07 -0.005,0.195 l 0,0.07 c 0,0.03 0,0.078 0.002,0.161 0.003,0.076 0.005,0.117 0.005,0.128 l -0.036,0.711 c -0.011,0.234 -0.025,0.37 -0.039,0.418 -0.015,0.044 -0.034,0.076 -0.064,0.104 -0.066,0.035 -0.193,0.074 -0.367,0.113 -0.005,0.026 -0.012,0.049 -0.012,0.07 0.057,0.004 0.129,0.012 0.186,0.012 0.063,0 0.131,-0.002 0.21,-0.012 0.1,-0.005 0.161,-0.009 0.17,-0.009 l 0.394,0.009 0.073,0 -0.005,-0.089 C -5.131,2.992 -5.252,2.965 -5.29,2.931 -5.33,2.896 -5.347,2.829 -5.347,2.732 c 0,-0.05 0.003,-0.164 0.007,-0.33 L -5.323,1.888 -5.326,1.688 -5.32,1.436 C -5.32,1.111 -5.33,0.896 -5.344,0.773 -5.373,0.613 -5.408,0.486 -5.455,0.393 -5.51,0.297 -5.57,0.213 -5.662,0.137 -5.756,0.059 -5.883,-0.006 -6.037,-0.055 c -0.151,-0.047 -0.299,-0.072 -0.45,-0.072 -0.232,0 -0.4,0.014 -0.509,0.049 -0.186,0.058 -0.334,0.129 -0.443,0.226 -0.12,0.086 -0.188,0.184 -0.233,0.276 -0.057,0.117 -0.089,0.291 -0.089,0.533 l 0,0.168 -0.005,0.685 0.005,0.555 0,0.377 c 0,0.092 -0.01,0.158 -0.043,0.197 -0.014,0.026 -0.045,0.038 -0.07,0.038 l -0.146,0 c -0.111,0 -0.181,0.009 -0.208,0.034 -10e-4,0.011 -0.01,0.026 -0.01,0.034 0,0.018 0.01,0.031 0.017,0.041 0.02,0.01 0.041,0.016 0.065,0.016 l 0.065,0 0.165,0.002 0.391,0 0.642,0.007 z m -3.527,-1.466 0.096,0 c 0.125,0 0.26,0.009 0.407,0.035 0.118,0.023 0.2,0.056 0.271,0.103 0.064,0.053 0.118,0.123 0.167,0.215 0.043,0.092 0.064,0.195 0.064,0.295 0,0.112 -0.032,0.225 -0.104,0.361 -0.058,0.088 -0.145,0.168 -0.272,0.229 -0.133,0.066 -0.285,0.094 -0.467,0.094 -0.047,0 -0.099,0 -0.168,-0.006 -0.008,-0.085 -0.012,-0.149 -0.012,-0.192 l 0.012,-0.463 0,-0.186 c 0,-0.132 0.003,-0.284 0.006,-0.485 m -0.91,-1.616 c 0.238,0.034 0.375,0.053 0.404,0.067 0.018,0.008 0.037,0.025 0.059,0.068 l 0,0.031 c 0,0.039 0.007,0.19 0.017,0.44 0.006,0.078 0.006,0.148 0.006,0.215 l -0.01,0.295 0.004,0.326 0,0.617 0,0.439 c 0.006,0.187 -0.01,0.305 -0.041,0.347 -0.027,0.05 -0.105,0.07 -0.23,0.085 -0.129,0.018 -0.197,0.033 -0.209,0.037 -0.018,0.007 -0.022,0.022 -0.022,0.041 0,0.008 0.003,0.026 0.008,0.046 0.016,0.013 0.054,0.021 0.113,0.021 0.008,0 0.036,0.003 0.073,0.007 0.031,0.006 0.066,0.008 0.099,0.008 l 0.199,0 0.651,0.004 c 0.36,0 0.619,-0.025 0.764,-0.08 C -9.3,2.992 -9.182,2.896 -9.092,2.77 -9.008,2.643 -8.959,2.495 -8.959,2.337 -8.959,2.035 -9.119,1.805 -9.436,1.654 -9.488,1.623 -9.535,1.604 -9.563,1.574 -9.509,1.457 -9.434,1.313 -9.334,1.15 L -9.02,0.613 c 0.124,-0.197 0.209,-0.316 0.256,-0.369 0.051,-0.049 0.105,-0.094 0.17,-0.123 0.074,-0.037 0.186,-0.062 0.35,-0.098 l 0,-0.035 0,-0.037 c -0.223,-0.006 -0.488,-0.006 -0.794,-0.006 -0.023,0 -0.05,0 -0.085,0.006 -0.118,0.225 -0.25,0.465 -0.412,0.735 l -0.367,0.666 c -0.045,0.07 -0.082,0.111 -0.118,0.128 -0.035,0.02 -0.076,0.026 -0.123,0.026 l -0.214,0 -0.066,0 C -10.426,1.455 -10.43,1.348 -10.43,1.188 l 0,-0.84 c 0,-0.03 0.004,-0.08 0.022,-0.127 0.01,-0.035 0.035,-0.065 0.063,-0.084 0.033,-0.016 0.132,-0.043 0.281,-0.078 l 0.101,-0.036 c 0.012,-0.011 0.016,-0.031 0.016,-0.058 -0.045,-0.01 -0.076,-0.014 -0.092,-0.014 -0.149,0 -0.257,0 -0.311,0.006 l -0.076,0 -0.333,-0.002 -0.329,0.002 c -0.016,0 -0.087,-0.002 -0.219,-0.006 l -0.047,0.006 -0.011,0.031 c 0,0.012 0.011,0.026 0.035,0.041 m -0.744,2.915 0.03,-0.376 c 0.01,-0.113 0.013,-0.195 0.013,-0.233 L -12.1,2.325 c -0.105,0.247 -0.242,0.431 -0.406,0.558 -0.16,0.125 -0.364,0.193 -0.599,0.193 -0.286,0 -0.512,-0.043 -0.672,-0.111 -0.229,-0.098 -0.432,-0.27 -0.594,-0.518 -0.17,-0.249 -0.249,-0.548 -0.249,-0.892 0,-0.207 0.028,-0.387 0.089,-0.541 0.056,-0.164 0.146,-0.321 0.257,-0.451 0.108,-0.139 0.24,-0.264 0.395,-0.362 0.094,-0.07 0.209,-0.119 0.349,-0.156 0.078,-0.022 0.19,-0.029 0.341,-0.029 0.1,0 0.207,0.013 0.332,0.047 0.119,0.021 0.209,0.064 0.265,0.113 0.059,0.045 0.101,0.101 0.125,0.162 0.019,0.055 0.033,0.168 0.033,0.34 0,0.287 -0.021,0.447 -0.058,0.496 -0.039,0.047 -0.154,0.074 -0.355,0.09 l -0.096,0.004 -0.069,-0.002 c -0.009,0.002 -0.025,0.007 -0.037,0.007 l -0.04,0.061 c 0,0.008 0.009,0.023 0.019,0.039 0.084,0.012 0.268,0.018 0.555,0.018 0.062,0 0.163,0 0.311,-0.006 l 0.251,-0.01 0.234,0.002 c 0.045,0 0.097,-0.002 0.156,-0.002 0.011,-0.002 0.019,-0.008 0.019,-0.008 0.005,-0.01 0.005,-0.015 0.005,-0.025 0,-0.018 0,-0.043 -0.013,-0.069 -0.065,-0.019 -0.118,-0.021 -0.157,-0.021 l -0.154,0 c -0.06,0 -0.103,-0.02 -0.138,-0.057 -0.015,-0.015 -0.02,-0.08 -0.02,-0.181 l 0.001,-0.325 c 0,-0.216 -0.004,-0.357 -0.024,-0.421 -0.011,-0.034 -0.032,-0.067 -0.065,-0.094 -0.029,-0.033 -0.095,-0.065 -0.192,-0.104 -0.147,-0.058 -0.279,-0.097 -0.392,-0.115 -0.212,-0.033 -0.424,-0.057 -0.621,-0.057 -0.327,0 -0.595,0.043 -0.799,0.123 -0.205,0.083 -0.387,0.2 -0.54,0.346 -0.146,0.149 -0.255,0.301 -0.316,0.447 -0.098,0.221 -0.138,0.442 -0.138,0.678 0,0.281 0.072,0.565 0.216,0.84 0.151,0.273 0.4,0.5 0.735,0.666 0.24,0.121 0.562,0.182 0.967,0.182 0.287,0 0.512,-0.019 0.689,-0.073 0.184,-0.044 0.326,-0.104 0.426,-0.163"
             style="fill:#606163;fill-opacity:1;fill-rule:nonzero;stroke:none"
             id="path22"
             inkscape:connector-curvature="0" /></g><g
           id="g24"
           transform="translate(96.6724,110.499)"><path
             d="M 0,0 0.367,0.953 C 0.414,0.85 0.473,0.707 0.561,0.509 0.635,0.311 0.697,0.148 0.746,0 L 0.688,-0.006 C 0.619,-0.006 0.395,0 0,0 m -1.146,-1.381 0.042,0 c 0.108,0 0.219,0.012 0.344,0.026 l 0.11,0.019 c 0.375,-0.027 0.623,-0.041 0.722,-0.041 0.004,0.02 0.008,0.033 0.008,0.053 0,0.027 -0.004,0.062 -0.004,0.127 -0.101,0.015 -0.162,0.025 -0.174,0.025 -0.111,0.016 -0.179,0.037 -0.222,0.07 -0.02,0.02 -0.03,0.045 -0.03,0.092 0,0.031 0.01,0.088 0.047,0.172 0.11,0.309 0.182,0.504 0.211,0.582 L 0.852,-0.262 1.047,-0.738 1.141,-0.98 C 1.15,-1.002 1.156,-1.025 1.156,-1.053 1.156,-1.068 1.148,-1.092 1.131,-1.107 1.117,-1.115 1.074,-1.133 0.988,-1.156 L 0.709,-1.217 C 0.705,-1.273 0.703,-1.328 0.703,-1.381 l 0.131,0.008 0.408,0.018 c 0.057,0.007 0.158,0.007 0.285,0.007 0.116,0 0.246,-0.007 0.397,-0.017 0.142,-0.008 0.275,-0.016 0.398,-0.016 0,0.024 0.004,0.037 0.004,0.047 0,0.035 -0.004,0.072 -0.013,0.125 C 2.234,-1.182 2.162,-1.156 2.098,-1.145 2.031,-1.137 1.98,-1.123 1.953,-1.1 1.938,-1.092 1.914,-1.053 1.879,-0.979 1.814,-0.854 1.773,-0.752 1.74,-0.666 1.684,-0.508 1.641,-0.393 1.609,-0.314 1.555,-0.189 1.482,-0.025 1.412,0.18 1.332,0.382 1.242,0.589 1.148,0.803 l -0.427,1.015 -0.028,0.047 -0.105,0 -0.158,0 -0.576,-1.531 -0.499,-1.307 c -0.044,-0.066 -0.08,-0.119 -0.105,-0.14 -0.027,-0.02 -0.104,-0.043 -0.229,-0.069 -0.08,-0.011 -0.128,-0.025 -0.162,-0.035 L -1.146,-1.381 z M -3.914,1.942 C -3.928,1.914 -3.945,1.848 -3.973,1.75 -4.055,1.434 -4.131,1.217 -4.182,1.113 c 0.02,-0.023 0.073,-0.058 0.149,-0.101 0.019,0 0.047,0.033 0.088,0.086 0.14,0.18 0.244,0.291 0.314,0.336 0.055,0.029 0.158,0.043 0.311,0.043 0.283,0 0.447,-0.002 0.502,-0.012 0.015,0 0.025,-0.002 0.033,-0.017 0.004,-0.003 0.01,-0.014 0.021,-0.033 0.006,-0.05 0.01,-0.209 0.01,-0.462 L -2.74,0.02 c 0,-0.424 -0.004,-0.747 -0.018,-0.94 -0.002,-0.053 -0.017,-0.09 -0.027,-0.119 -0.069,-0.031 -0.194,-0.074 -0.361,-0.117 -0.098,-0.02 -0.165,-0.053 -0.2,-0.106 l 0,-0.021 0.002,-0.053 c 0,-0.012 0.002,-0.029 0.006,-0.057 0.027,0 0.086,0 0.178,0.012 0.24,0.018 0.385,0.026 0.437,0.026 0.311,0 0.524,-0.002 0.637,-0.014 0.119,-0.012 0.27,-0.024 0.43,-0.024 0.027,0 0.056,0 0.093,0.004 0.008,0.032 0.01,0.047 0.01,0.061 0,0.015 -0.002,0.053 -0.011,0.111 -0.045,0.01 -0.088,0.031 -0.135,0.041 -0.108,0.031 -0.164,0.039 -0.182,0.041 -0.07,0.012 -0.119,0.02 -0.152,0.033 -0.016,0.055 -0.03,0.143 -0.03,0.25 l 0.002,0.323 -0.007,0.783 0,0.724 -0.002,0.331 c 0,0.038 0.007,0.087 0.015,0.156 0.073,0.01 0.131,0.012 0.18,0.012 0.305,0 0.482,-0.002 0.518,-0.012 0.025,-0.008 0.046,-0.022 0.068,-0.043 0.014,-0.022 0.047,-0.082 0.092,-0.205 0.056,-0.119 0.103,-0.213 0.146,-0.278 0.045,0.005 0.106,0.017 0.168,0.04 0.018,0.029 0.02,0.069 0.02,0.117 l 0.004,0.119 -0.004,0.222 c 0,0.228 0,0.397 -0.002,0.51 -0.037,0.002 -0.063,0.007 -0.08,0.007 L -1.049,1.947 C -1.063,1.919 -1.072,1.896 -1.08,1.886 -1.102,1.822 -1.125,1.78 -1.143,1.762 l -0.148,-0.018 -0.764,0 -0.552,0 -0.303,0 -0.049,-0.004 c -0.1,-0.002 -0.207,-0.002 -0.334,-0.002 -0.203,0 -0.318,0.002 -0.338,0.006 -0.021,0.024 -0.058,0.078 -0.109,0.158 -0.006,0.012 -0.008,0.022 -0.026,0.04 l -0.148,0 z M -4.67,1.735 c -0.156,0.047 -0.273,0.087 -0.371,0.099 -0.15,0.031 -0.273,0.043 -0.35,0.043 -0.361,0 -0.64,-0.095 -0.824,-0.27 C -6.406,1.425 -6.5,1.201 -6.5,0.939 c 0,-0.13 0.035,-0.261 0.1,-0.409 0.068,-0.136 0.16,-0.243 0.279,-0.333 0.119,-0.084 0.322,-0.177 0.625,-0.289 0.308,-0.103 0.484,-0.185 0.56,-0.252 0.11,-0.105 0.168,-0.211 0.168,-0.336 0,-0.103 -0.031,-0.191 -0.095,-0.275 -0.069,-0.092 -0.153,-0.152 -0.262,-0.19 -0.102,-0.037 -0.201,-0.062 -0.289,-0.062 -0.1,0 -0.195,0.021 -0.277,0.051 -0.08,0.033 -0.161,0.076 -0.225,0.129 -0.053,0.048 -0.111,0.113 -0.164,0.199 -0.025,0.035 -0.074,0.148 -0.152,0.334 l -0.227,-0.006 0,-0.096 c 0,-0.047 0,-0.125 0.002,-0.228 0.008,-0.203 0.01,-0.313 0.01,-0.336 l 0,-0.026 c 0.006,-0.023 0.015,-0.043 0.025,-0.05 0.02,-0.014 0.07,-0.037 0.152,-0.059 l 0.301,-0.086 c 0.153,-0.033 0.295,-0.051 0.403,-0.051 0.175,0 0.324,0.018 0.429,0.043 0.116,0.032 0.223,0.076 0.324,0.145 0.102,0.068 0.18,0.129 0.233,0.176 0.07,0.068 0.117,0.142 0.15,0.226 0.055,0.143 0.082,0.299 0.082,0.457 0,0.139 -0.021,0.254 -0.054,0.35 -0.032,0.09 -0.104,0.193 -0.202,0.297 -0.074,0.075 -0.183,0.15 -0.328,0.214 -0.14,0.066 -0.256,0.108 -0.359,0.141 -0.303,0.09 -0.494,0.182 -0.592,0.28 -0.086,0.092 -0.137,0.199 -0.137,0.296 0,0.131 0.051,0.237 0.143,0.319 0.102,0.087 0.223,0.127 0.381,0.127 0.172,0 0.318,-0.061 0.445,-0.201 0.069,-0.073 0.147,-0.223 0.209,-0.437 l 0.035,-0.005 0.176,-0.017 0.027,0.01 c 0.002,0.035 0.01,0.066 0.01,0.095 0,0.098 -0.01,0.225 -0.033,0.396 -0.01,0.112 -0.025,0.196 -0.043,0.255 m -3.877,-3.12 c 0.033,0.004 0.109,0.008 0.211,0.02 0.172,0.011 0.289,0.021 0.383,0.021 l 0.43,-0.004 c 0.197,-0.017 0.306,-0.029 0.334,-0.033 0.029,-0.008 0.048,-0.012 0.06,-0.012 0.01,0 0.035,0 0.09,0.008 0.008,0.004 0.031,0.004 0.051,0.004 l 0,0.084 c 0,0.024 0,0.07 -0.004,0.121 -0.092,0.014 -0.139,0.02 -0.151,0.02 -0.086,0.011 -0.17,0.023 -0.271,0.043 -0.012,0.031 -0.016,0.045 -0.016,0.056 l 0.006,0.098 -0.006,0.49 0.008,0.332 -0.002,0.649 c 0,0.15 0.002,0.365 0.01,0.634 -0.008,0.047 -0.01,0.104 -0.01,0.178 0,0.074 0.01,0.148 0.02,0.188 0.054,0.016 0.119,0.043 0.205,0.066 0.08,0.014 0.154,0.035 0.222,0.061 0.008,0.043 0.008,0.08 0.008,0.105 l 0,0.078 c -0.033,0 -0.115,-0.004 -0.23,-0.009 -0.213,-0.019 -0.375,-0.024 -0.469,-0.024 -0.02,0 -0.07,0.003 -0.158,0.005 L -8.533,1.822 -8.527,1.607 C -8.506,1.604 -8.471,1.602 -8.438,1.602 -8.287,1.592 -8.182,1.578 -8.113,1.539 -8.104,1.507 -8.1,1.48 -8.1,1.465 l 0,-0.111 0.024,-0.28 -0.014,-0.133 0.004,-0.324 c 0,-0.013 -0.006,-0.181 -0.016,-0.504 l 0.002,-0.136 -0.004,-0.561 0.002,-0.287 c 0,-0.088 -0.015,-0.156 -0.043,-0.209 -0.05,-0.033 -0.132,-0.057 -0.238,-0.082 -0.076,-0.02 -0.131,-0.035 -0.164,-0.047 l 0,-0.176 z m -2.404,1.745 0,0.069 c 0.002,0.12 0.002,0.214 0.012,0.294 l -0.008,0.266 0.013,0.204 -0.005,0.332 0.005,0.053 c 0.053,0.004 0.116,0.009 0.19,0.009 0.16,0 0.275,-0.009 0.353,-0.032 0.09,-0.038 0.174,-0.083 0.231,-0.157 0.047,-0.042 0.082,-0.101 0.113,-0.197 0.026,-0.094 0.043,-0.191 0.043,-0.292 0,-0.169 -0.062,-0.305 -0.176,-0.403 -0.121,-0.101 -0.314,-0.149 -0.593,-0.149 -0.038,0 -0.098,0.003 -0.178,0.003 m -1.104,-1.596 c -0.004,-0.026 -0.004,-0.053 -0.004,-0.077 0,-0.011 0,-0.035 0.002,-0.076 l 0.104,0 c 0.088,0 0.182,0.008 0.289,0.02 l 0.332,0.021 c 0.019,0 0.057,0.002 0.1,0.002 0.062,0 0.271,-0.011 0.625,-0.047 l 0.097,0.004 c 0.008,0 0.028,-0.004 0.055,-0.004 0.01,0.045 0.012,0.106 0.012,0.184 -0.088,0.037 -0.198,0.072 -0.327,0.096 -0.07,0.013 -0.136,0.035 -0.185,0.06 l 0.021,0.467 -0.017,0.545 c 0,0.068 0.002,0.125 0.012,0.164 0.074,0.012 0.136,0.014 0.166,0.014 0.123,0 0.201,-0.022 0.257,-0.049 0.03,-0.024 0.092,-0.121 0.166,-0.277 0.178,-0.352 0.303,-0.604 0.379,-0.764 0.026,-0.057 0.075,-0.149 0.141,-0.276 l 0.082,-0.164 c 0.025,0.008 0.064,0.012 0.105,0.016 0.104,0.012 0.161,0.02 0.178,0.02 l 0.242,-0.006 c 0.078,0 0.143,-0.002 0.198,-0.01 l 0.099,0 0.127,-0.02 0.053,0 0.068,0 0,0.059 c 0,0.021 -0.01,0.049 -0.013,0.072 -0.041,0.026 -0.102,0.055 -0.172,0.086 -0.092,0.039 -0.155,0.069 -0.186,0.098 -0.033,0.025 -0.099,0.125 -0.197,0.295 l -0.397,0.638 c -0.039,0.067 -0.095,0.155 -0.16,0.25 -0.037,0.045 -0.058,0.088 -0.08,0.124 0.219,0.068 0.389,0.165 0.494,0.301 0.102,0.136 0.159,0.289 0.159,0.456 0,0.217 -0.096,0.412 -0.297,0.592 -0.198,0.166 -0.469,0.254 -0.803,0.254 -0.215,0 -0.418,-0.01 -0.608,-0.028 L -11.246,1.782 -11.377,1.78 c -0.006,0 -0.07,0.002 -0.187,0.014 -0.114,0 -0.194,-0.002 -0.231,-0.002 -0.07,0 -0.148,-0.01 -0.225,-0.024 l -0.011,-0.024 0.008,-0.142 c 0.039,-0.01 0.127,-0.02 0.261,-0.024 l 0.149,-0.035 c 0.004,-0.095 0.011,-0.314 0.011,-0.652 0,-0.161 -0.003,-0.327 -0.007,-0.502 l -0.004,-0.135 0.004,-0.227 -0.012,-0.295 0.008,-0.548 c 0,-0.137 -0.004,-0.217 -0.012,-0.243 0,-0.009 -0.006,-0.035 -0.01,-0.068 -0.074,-0.029 -0.144,-0.045 -0.23,-0.055 -0.082,-0.011 -0.149,-0.027 -0.19,-0.054 M -14.477,0 l 0.354,0.953 c 0.05,-0.103 0.111,-0.246 0.193,-0.444 0.078,-0.198 0.142,-0.361 0.194,-0.509 l -0.062,-0.006 C -13.87,-0.006 -14.096,0 -14.477,0 m -1.162,-1.381 0.047,0 c 0.112,0 0.221,0.012 0.346,0.026 l 0.1,0.019 c 0.385,-0.027 0.63,-0.041 0.732,-0.041 0.004,0.02 0.006,0.033 0.006,0.053 0,0.027 -0.002,0.062 -0.006,0.127 -0.102,0.015 -0.162,0.025 -0.18,0.025 -0.105,0.016 -0.172,0.037 -0.209,0.07 -0.025,0.02 -0.037,0.045 -0.037,0.092 0,0.031 0.014,0.088 0.049,0.172 0.11,0.309 0.178,0.504 0.215,0.582 l 0.938,-0.006 0.196,-0.476 0.102,-0.242 c 0.01,-0.022 0.01,-0.045 0.01,-0.073 0,-0.015 -0.008,-0.039 -0.024,-0.054 -0.013,-0.008 -0.068,-0.026 -0.144,-0.049 l -0.273,-0.061 c -0.006,-0.056 -0.006,-0.111 -0.006,-0.164 l 0.116,0.008 0.423,0.018 c 0.05,0.007 0.15,0.007 0.277,0.007 0.119,0 0.248,-0.007 0.393,-0.017 0.146,-0.008 0.285,-0.016 0.406,-0.016 l 0,0.047 c 0,0.035 -0.01,0.072 -0.018,0.125 -0.074,0.027 -0.14,0.053 -0.209,0.064 -0.064,0.008 -0.115,0.022 -0.148,0.045 -0.012,0.008 -0.039,0.047 -0.07,0.121 -0.061,0.125 -0.106,0.227 -0.133,0.313 -0.063,0.158 -0.106,0.273 -0.139,0.352 -0.057,0.125 -0.127,0.289 -0.199,0.494 -0.08,0.202 -0.168,0.409 -0.255,0.623 l -0.43,1.015 -0.025,0.047 -0.111,0 -0.156,0 -0.584,-1.531 -0.504,-1.307 c -0.039,-0.066 -0.065,-0.119 -0.093,-0.14 -0.028,-0.02 -0.104,-0.043 -0.229,-0.069 -0.082,-0.011 -0.14,-0.025 -0.166,-0.035 l -0.008,-0.164 z m -4.425,0 0.004,0.164 c 0.205,0.031 0.334,0.072 0.396,0.127 0.035,0.037 0.059,0.145 0.08,0.307 l 0.03,0.881 0.034,0.888 c 0.006,0.059 0.008,0.085 0.008,0.098 0,0.234 -0.011,0.364 -0.039,0.402 -0.029,0.035 -0.13,0.08 -0.316,0.106 -0.045,0.01 -0.082,0.019 -0.113,0.025 -0.002,0.041 -0.002,0.076 -0.002,0.102 l 0,0.082 c 0.063,0.003 0.131,0.003 0.218,0.003 l 0.716,-0.024 c 0.017,-0.003 0.038,-0.007 0.069,-0.007 l 0.118,-0.005 c 0.025,-0.033 0.056,-0.075 0.086,-0.129 0.057,-0.12 0.136,-0.294 0.234,-0.526 l 0.027,-0.068 0.385,-0.832 c 0.009,-0.02 0.024,-0.049 0.042,-0.09 0.024,-0.057 0.05,-0.113 0.079,-0.168 0.026,-0.057 0.051,-0.107 0.08,-0.174 0.033,-0.062 0.059,-0.123 0.08,-0.166 0.018,0.041 0.045,0.082 0.069,0.123 0.065,0.153 0.127,0.295 0.192,0.42 0.107,0.224 0.255,0.565 0.442,1.027 0.029,0.071 0.079,0.18 0.149,0.332 0.058,0.148 0.1,0.227 0.103,0.233 0.015,0.012 0.047,0.018 0.09,0.018 l 0.08,0 c 0.082,0.009 0.186,0.014 0.309,0.014 0.172,0 0.309,0.01 0.41,0.022 0.109,0.009 0.164,0.011 0.18,0.011 0.011,0 0.035,-0.002 0.058,-0.002 l 0,-0.059 -0.005,-0.072 c 0,-0.017 0,-0.041 -0.002,-0.069 -0.157,-0.021 -0.284,-0.047 -0.377,-0.101 -0.067,-0.032 -0.1,-0.075 -0.1,-0.125 l 0,-0.035 0.045,-0.758 c 0.003,-0.067 0.014,-0.403 0.035,-1.024 0.01,-0.134 0.02,-0.308 0.036,-0.523 0.001,-0.026 0.007,-0.047 0.007,-0.059 0,-0.045 0.007,-0.066 0.025,-0.08 0.01,-0.008 0.159,-0.053 0.438,-0.144 0,-0.026 0.002,-0.047 0.002,-0.053 0,-0.045 -0.002,-0.074 -0.002,-0.107 -0.043,0 -0.154,0.003 -0.332,0.027 -0.181,0.021 -0.35,0.025 -0.503,0.025 -0.237,0 -0.468,-0.004 -0.694,-0.025 -0.03,0 -0.063,-0.004 -0.092,-0.008 l 0.006,0.168 c 0.071,0.027 0.16,0.053 0.276,0.072 0.075,0.012 0.125,0.035 0.144,0.067 0.019,0.031 0.029,0.115 0.029,0.256 l 0,0.142 c -0.01,0.178 -0.013,0.41 -0.016,0.717 l -0.037,0.873 c -0.01,0.127 -0.013,0.205 -0.018,0.252 l -0.609,-1.402 c -0.018,-0.032 -0.044,-0.081 -0.064,-0.139 -0.043,-0.088 -0.074,-0.145 -0.081,-0.172 -0.13,-0.303 -0.214,-0.535 -0.267,-0.695 -0.011,-0.045 -0.031,-0.096 -0.054,-0.162 l -0.188,0.004 -0.133,0.38 c -0.049,0.094 -0.113,0.246 -0.209,0.442 -0.055,0.125 -0.092,0.217 -0.127,0.287 -0.015,0.025 -0.029,0.047 -0.033,0.066 l -0.028,0.059 c 0,0.012 0,0.017 -0.013,0.025 l -0.361,0.789 -0.229,0.483 -0.019,-1.168 -0.016,-0.756 c 0,-0.125 0.023,-0.211 0.072,-0.264 0.052,-0.054 0.147,-0.099 0.303,-0.133 l 0.121,-0.035 0,-0.179 c -0.103,0 -0.205,0.007 -0.312,0.023 -0.106,0.012 -0.252,0.02 -0.434,0.02 -0.037,0 -0.2,-0.008 -0.482,-0.024"
             style="fill:#606163;fill-opacity:1;fill-rule:evenodd;stroke:none"
             id="path26"
             inkscape:connector-curvature="0" /></g><path
           d="m 99.055,115.517 -40.82,0 0,0.234 40.82,0 0,-0.234 z"
           style="fill:#606163;fill-opacity:1;fill-rule:evenodd;stroke:none"
           id="path28"
           inkscape:connector-curvature="0" /><g
           id="g30"
           transform="translate(58.0884,118.9482)"><path
             d="m 0,0 0,9.016 3.284,0 0,-1.1 -2.034,0 0,-3.023 2.034,0 0,-1.095 -0.139,0 -1.895,0 L 1.25,0 0,0 z m 3.284,9.016 0.103,0 C 3.95,9.016 4.356,8.996 4.652,8.942 4.938,8.891 5.199,8.803 5.42,8.669 5.795,8.48 6.088,8.175 6.293,7.779 6.477,7.389 6.58,6.945 6.58,6.418 6.58,5.9 6.477,5.455 6.293,5.078 6.088,4.705 5.795,4.394 5.408,4.156 5.199,4.035 4.918,3.935 4.634,3.883 4.356,3.828 3.9,3.798 3.284,3.798 l 0,1.095 0.07,0 c 0.732,0 1.245,0.113 1.539,0.343 0.29,0.219 0.423,0.616 0.423,1.182 0,0.527 -0.133,0.918 -0.423,1.143 C 4.599,7.798 4.119,7.916 3.458,7.916 l -0.174,0 0,1.1 z"
             style="fill:#ad3847;fill-opacity:1;fill-rule:nonzero;stroke:none"
             id="path32"
             inkscape:connector-curvature="0" /></g><g
           id="g34"
           transform="translate(66.0259,122.374)"><path
             d="m 0,0 0,5.59 1.237,0 0,-5.609 c 0,-0.833 0.199,-1.475 0.568,-1.862 0.398,-0.414 0.979,-0.617 1.777,-0.617 0.809,0 1.389,0.203 1.779,0.617 0.395,0.41 0.586,1.029 0.586,1.862 l 0,5.609 1.261,0 0,-5.59 c 0,-1.217 -0.32,-2.121 -0.963,-2.752 -0.626,-0.619 -1.563,-0.932 -2.796,-0.932 -1.164,0 -2.013,0.313 -2.598,0.932 C 0.283,-2.14 0,-1.233 0,0"
             style="fill:#ad3847;fill-opacity:1;fill-rule:nonzero;stroke:none"
             id="path36"
             inkscape:connector-curvature="0" /></g><g
           id="g38"
           transform="translate(81.4888,122.2969)"><path
             d="m 0,0 1.217,0 c -0.05,-1.089 -0.444,-1.976 -1.145,-2.63 -0.715,-0.645 -1.635,-0.976 -2.769,-0.976 -1.278,0 -2.292,0.427 -3.024,1.298 -0.736,0.878 -1.111,2.07 -1.111,3.598 0,1.42 0.392,2.545 1.161,3.363 0.769,0.839 1.812,1.248 3.114,1.248 C -1.516,5.901 -0.663,5.647 0,5.116 0.67,4.585 1.047,3.87 1.15,2.962 l -1.214,0 c -0.124,0.6 -0.415,1.061 -0.84,1.37 -0.44,0.321 -1.004,0.478 -1.709,0.478 -0.92,0 -1.639,-0.311 -2.149,-0.961 -0.533,-0.631 -0.789,-1.533 -0.789,-2.715 0,-1.094 0.272,-1.983 0.807,-2.651 0.544,-0.668 1.248,-0.99 2.115,-0.99 0.754,0 1.384,0.221 1.864,0.684 C -0.285,-1.361 -0.031,-0.749 0,0"
             style="fill:#ad3847;fill-opacity:1;fill-rule:nonzero;stroke:none"
             id="path40"
             inkscape:connector-curvature="0" /></g><g
           id="g42"
           transform="translate(84.0923,118.9482)"><path
             d="m 0,0 0,9.016 3.281,0 0,-1.1 -2.037,0 0,-3.023 2.037,0 0,-1.095 -0.131,0 -1.906,0 L 1.244,0 0,0 z m 3.281,9.016 0.106,0 C 3.93,9.016 4.357,8.996 4.65,8.942 4.939,8.891 5.197,8.803 5.42,8.669 5.791,8.48 6.086,8.175 6.273,7.779 6.48,7.389 6.58,6.945 6.58,6.418 6.58,5.9 6.48,5.455 6.273,5.078 6.086,4.705 5.791,4.394 5.404,4.156 5.18,4.035 4.922,3.935 4.615,3.883 4.342,3.828 3.9,3.798 3.281,3.798 l 0,1.095 0.065,0 c 0.74,0 1.248,0.113 1.525,0.343 C 5.166,5.455 5.32,5.852 5.32,6.418 5.32,6.945 5.18,7.336 4.891,7.561 4.594,7.798 4.119,7.916 3.436,7.916 l -0.155,0 0,1.1 z"
             style="fill:#ad3847;fill-opacity:1;fill-rule:nonzero;stroke:none"
             id="path44"
             inkscape:connector-curvature="0" /></g><g
           id="g46"
           transform="translate(92.0571,127.9639)"><path
             d="m 0,0 3.371,0 0,-1.066 -2.141,0 0,-3.042 2.141,0 0,-1.038 -0.088,0 -2.035,0 0,-3.87 L 0,-9.016 0,0 z m 3.371,0 0.221,0 c 0.562,0 0.99,-0.02 1.263,-0.073 0.27,-0.052 0.532,-0.14 0.737,-0.238 0.398,-0.205 0.685,-0.498 0.89,-0.872 0.204,-0.379 0.303,-0.805 0.303,-1.313 0,-0.481 -0.099,-0.911 -0.32,-1.255 -0.207,-0.341 -0.529,-0.61 -0.94,-0.803 0.352,-0.098 0.612,-0.275 0.766,-0.495 0.137,-0.237 0.242,-0.631 0.277,-1.174 l 0.098,-1.488 c 0.035,-0.33 0.072,-0.567 0.135,-0.723 0.074,-0.152 0.158,-0.271 0.295,-0.339 l 0,-0.243 -1.455,0 c -0.1,0.192 -0.186,0.582 -0.239,1.2 l 0,0.033 -0.066,1.183 c -0.051,0.613 -0.168,0.992 -0.391,1.178 -0.226,0.169 -0.757,0.254 -1.574,0.276 l 0,1.038 c 0.783,0 1.332,0.12 1.641,0.357 0.324,0.237 0.476,0.659 0.476,1.233 0,0.53 -0.138,0.91 -0.443,1.131 -0.303,0.219 -0.857,0.321 -1.674,0.321 l 0,1.066 z"
             style="fill:#ad3847;fill-opacity:1;fill-rule:nonzero;stroke:none"
             id="path48"
             inkscape:connector-curvature="0" /></g><g
           id="g50"
           transform="translate(61.2515,149.2979)"><path
             d="m 0,0 c -0.272,0 -0.548,-0.068 -0.803,-0.224 -0.785,-0.43 -1.042,-1.417 -0.598,-2.174 0.293,-0.509 0.839,-0.79 1.401,-0.79 l 0,0.501 c -0.379,0 -0.753,0.187 -0.96,0.546 -0.303,0.516 -0.133,1.18 0.412,1.487 0.169,0.103 0.362,0.138 0.548,0.138 L 0,0 z M 0,3.284 C -0.462,2.783 -0.562,2.031 -0.202,1.432 -0.132,1.33 -0.073,1.23 0,1.16 L 0,3.284 z M 0,5.041 0,4.527 C -0.035,4.512 -0.073,4.476 -0.117,4.466 -1.369,3.743 -1.81,2.166 -1.08,0.916 l 0.018,-0.01 0,-0.018 0.02,0 0,-0.021 C -1.026,0.848 -1.005,0.816 -0.993,0.796 -1.108,0.751 -1.218,0.697 -1.316,0.647 -2.579,-0.068 -3.009,-1.662 -2.289,-2.896 -1.794,-3.717 -0.911,-4.179 0,-4.193 l 0,-0.459 c -1.08,0 -2.138,0.547 -2.701,1.521 -0.277,0.444 -0.396,0.926 -0.427,1.385 l 0,0.277 c 0.051,0.973 0.561,1.911 1.471,2.457 -0.632,1.42 -0.088,3.092 1.295,3.885 C -0.237,4.939 -0.117,4.988 0,5.041 M 0,9.617 0,8.688 -0.202,8.342 0,8.224 0,7.673 -0.868,8.152 0,9.617 z M 0,11.76 0,10.305 -0.651,10.662 0,11.76 z m 0,6.001 0,-1.114 c -0.202,0.308 -0.237,0.723 -0.035,1.062 0,0.02 0.016,0.033 0.035,0.052 m 1.212,-21.664 0,-0.528 C 0.821,-4.582 0.409,-4.652 0,-4.652 l 0,0.459 c 0.409,0 0.821,0.109 1.212,0.29 m 0,3.376 0,-2.145 C 1.095,-2.787 0.978,-2.896 0.821,-2.98 0.565,-3.109 0.272,-3.188 0,-3.188 l 0,0.501 c 0.19,0 0.378,0.054 0.565,0.135 0.53,0.311 0.717,0.975 0.413,1.49 C 0.772,-0.701 0.394,-0.516 0,-0.516 L 0,0 c 0.464,-0.021 0.89,-0.191 1.212,-0.527 m 0,4.337 0,-0.497 C 1.026,3.313 0.821,3.261 0.652,3.162 0.121,2.867 -0.073,2.203 0.241,1.67 0.446,1.33 0.821,1.125 1.212,1.125 l 0,-0.496 C 0.751,0.629 0.312,0.816 0,1.16 L 0,3.284 C 0.121,3.402 0.241,3.521 0.394,3.602 0.652,3.743 0.94,3.81 1.212,3.81 m 0,1.465 0,-0.472 C 0.806,4.803 0.394,4.719 0,4.527 l 0,0.514 c 0.394,0.174 0.806,0.234 1.212,0.234 m 0,3.561 L 0.603,9.191 0.02,8.224 0,8.224 0,7.673 0.19,7.553 0.772,8.541 0.993,8.41 0.409,7.433 1.212,6.99 l 0,0.546 -0.135,0.068 0.135,0.241 0,0.991 z m 0,3.967 0,-0.633 -0.234,0.136 -0.857,-1.439 0.461,-0.254 0.63,1.063 0,-0.957 L 0,8.688 0,9.617 0.312,10.135 0,10.305 l 0,1.455 0.772,1.281 0,0.021 0.44,-0.259 z m 0,1.008 0,-0.391 -0.168,0.103 0.168,0.288 z m 0,2.598 -0.595,0.345 C 0.36,16.887 0.272,17.197 0.409,17.452 l 0,-0.018 c 0.156,0.256 0.463,0.343 0.717,0.191 l 0.086,-0.039 0,0.535 C 0.772,18.291 0.272,18.154 0,17.761 l 0,-1.114 c 0.085,-0.12 0.19,-0.219 0.327,-0.292 l 0.885,-0.492 0,0.546 z m 0,-8.564 0.447,0.751 -0.447,0.24 0,-0.991 z m 0,-10.517 0,2.145 c 0.07,-0.09 0.142,-0.174 0.19,-0.281 0.372,-0.612 0.277,-1.365 -0.19,-1.864 m 1.212,-1.994 0,-0.567 C 2.052,-5.01 1.708,-4.704 1.451,-4.313 1.367,-4.346 1.296,-4.397 1.212,-4.431 l 0,0.528 c 0.033,0.018 0.07,0.033 0.101,0.075 0.123,0.045 0.221,0.111 0.329,0.2 0.037,-0.106 0.087,-0.2 0.149,-0.309 0.177,-0.29 0.396,-0.529 0.633,-0.729 m 0,7.927 0,-2.086 C 2.327,1.041 2.187,0.936 2.02,0.831 1.755,0.697 1.489,0.629 1.212,0.629 l 0,0.496 c 0.19,0 0.379,0.05 0.543,0.151 C 2.29,1.568 2.481,2.256 2.17,2.762 1.968,3.112 1.591,3.313 1.212,3.313 l 0,0.497 c 0.467,0 0.906,-0.185 1.212,-0.549 m 0,1.78 0,-0.529 C 2.052,4.699 1.642,4.803 1.212,4.803 l 0,0.472 c 0.412,0 0.84,-0.084 1.212,-0.234 m 0,3.111 0,-1.107 -0.077,-0.158 0.077,-0.05 0,-0.548 L 1.679,6.717 2.257,7.687 2.052,7.826 1.471,6.837 1.212,6.99 l 0,0.546 0.07,-0.05 0.586,0.987 0.556,-0.321 z m 0,1.59 0,-0.852 -0.372,0.225 0.372,0.627 z m 0,2.001 0,-0.225 -0.077,0.07 0.077,0.155 z m -1.212,5.843 1.212,-0.699 0,0.547 -1.087,0.632 C 1.296,18.086 1.245,18.1 1.212,18.121 l 0,-0.535 z m 1.212,-1.863 -1.212,0.686 0,-0.546 0.906,-0.515 -0.906,-1.537 0,-0.391 0.307,-0.17 0.464,-0.277 -0.275,-0.465 -0.496,0.295 0,-0.633 0.224,-0.137 -0.224,-0.357 0,-0.957 1.212,2.084 0,0.937 -0.167,-0.29 -0.466,0.259 0.633,1.078 0,0.936 z m 0,-8.678 0.501,0.835 -0.501,0.272 0,-1.107 z m 0,-5.87 C 2.874,1.67 2.976,2.408 2.617,3.025 2.565,3.112 2.497,3.192 2.424,3.261 l 0,-2.086 z m 1.665,-6.39 0,-0.473 c -0.582,0 -1.164,0.143 -1.665,0.455 l 0,0.567 c 0.483,-0.365 1.059,-0.549 1.665,-0.549 m 0,4.17 0,-0.514 c -0.211,0 -0.4,-0.033 -0.565,-0.138 -0.533,-0.309 -0.721,-0.975 -0.41,-1.491 0.199,-0.355 0.575,-0.546 0.975,-0.546 l 0,-0.493 c -0.565,0 -1.113,0.277 -1.418,0.789 -0.451,0.766 -0.174,1.741 0.596,2.171 0.257,0.154 0.529,0.222 0.822,0.222 m 0,1.065 0,-0.075 -0.141,0 0.141,0.075 z m 0,3.429 0,-2.256 L 3.435,0.816 C 3.948,1.605 4.021,2.646 3.507,3.521 3.25,3.948 2.874,4.289 2.424,4.512 l 0,0.529 C 3.044,4.789 3.577,4.355 3.913,3.762 3.986,3.656 4.038,3.555 4.089,3.449 m 0,3.779 0,-0.273 L 3.628,6.17 3.829,6.046 4.089,6.457 4.089,5.5 4.021,5.4 2.956,5.996 3.544,6.977 3.313,7.089 2.734,6.116 l -0.31,0.173 0,0.548 0.141,-0.068 0.582,0.996 0.942,-0.537 z m 0,5.301 0,-0.753 L 3.286,12.221 3.006,11.76 3.878,11.246 2.719,9.281 3.212,9.006 4.089,10.473 4.089,9.535 3.628,8.77 3.385,8.362 2.956,8.596 2.424,8.89 l 0,0.852 0.807,1.332 -0.807,0.444 0,0.225 0.16,0.255 0.499,0.838 0.031,0.033 0.872,-0.495 0.103,0.155 z m -0.26,3.57 -0.516,-0.869 -0.889,0.493 0,-0.936 0.173,0.285 0.461,-0.252 -0.634,-1.08 0,-0.937 1.665,2.785 0,0.926 -1.665,0.92 0,-0.547 1.405,-0.788 z m 0.26,-9.144 0.098,0.204 -0.098,0.069 0,-0.273 z m 1.418,-11.781 0,-0.546 C 5.041,-5.589 4.567,-5.688 4.089,-5.688 l 0,0.473 c 0.438,-0.018 0.9,0.1 1.312,0.342 0.036,0.016 0.069,0.033 0.106,0.047 m 0,2.955 0,-1.531 C 5.368,-3.661 5.161,-3.87 4.888,-4.023 4.634,-4.16 4.358,-4.227 4.089,-4.227 l 0,0.493 c 0.184,0 0.373,0.056 0.545,0.136 0.527,0.317 0.715,0.978 0.407,1.512 -0.198,0.34 -0.579,0.527 -0.952,0.527 l 0,0.514 c 0.545,0 1.089,-0.292 1.401,-0.803 l 0.017,-0.023 z m 0,2.687 0,-0.543 L 5.321,0.167 C 5.387,0.155 5.437,0.12 5.507,0.08 l 0,-0.547 c -0.434,0.276 -0.926,0.412 -1.418,0.412 l 0,0.075 0.597,0.335 0.157,0.087 0.664,0.374 z m 0,1.727 0,-0.547 L 4.17,1.248 4.089,1.193 l 0,2.256 C 4.312,2.943 4.376,2.393 4.322,1.874 l 1.185,0.669 z m 0,6.328 0,-0.963 L 5.454,7.845 5.507,7.826 5.507,7.197 5.178,7.381 4.089,5.5 l 0,0.957 1.418,2.414 z m 0,2.02 -0.24,-0.418 -0.891,0.498 -0.234,-0.403 -0.053,-0.095 0,-0.938 0.461,0.783 0.887,-0.494 0.07,0.107 0,0.96 z m 0,1.755 0,-0.716 -0.186,-0.309 0.186,-0.103 0,-0.547 -0.858,0.482 0.498,0.853 -0.484,0.27 -0.493,-0.847 -0.081,0.047 0,0.753 0.41,0.7 0.408,-0.241 0.494,-0.273 0.106,-0.069 z m 0,3.747 0,-0.549 -0.647,0.358 C 4.663,16.307 4.476,16.271 4.376,16.087 l -0.287,-0.499 0,0.926 0.014,-0.018 c 0.273,0.236 0.686,0.29 0.99,0.115 l 0.414,-0.218 z m 0,-4.463 0,0.716 0.306,-0.167 -0.24,-0.411 -0.066,-0.138 z m 0,-1.999 0.703,1.193 -0.703,0.394 0,-0.547 0.029,-0.016 -0.029,-0.064 0,-0.96 z m 0,-13.333 c 0.253,0.459 0.275,1.039 0,1.531 l 0,-1.531 z m 1.176,0.304 0,-1.248 C 6.427,-4.718 6.065,-5.043 5.644,-5.285 5.585,-5.318 5.557,-5.332 5.507,-5.372 l 0,0.546 c 0.627,0.395 1.037,1.026 1.176,1.728 m 0,2.178 0,-1.239 C 6.614,-1.883 6.532,-1.61 6.38,-1.337 6.155,-0.979 5.843,-0.666 5.507,-0.467 l 0,0.547 c 0.457,-0.217 0.873,-0.559 1.176,-1 m 0,2.403 0,-0.547 -1.176,-0.663 0,0.543 1.176,0.667 z m 0,1.728 0,-0.565 -1.176,-0.65 0,0.547 1.176,0.668 z m 0,5.66 -0.768,-1.285 -0.408,0.24 0,-0.629 0.611,-0.343 0.565,0.919 0,1.098 z m 0,1.996 0,-0.953 -0.104,-0.155 0.104,-0.052 0,-0.633 -0.377,0.207 -0.799,-1.373 0,0.963 1.176,1.996 z m 0,4.856 0,-0.547 -1.176,0.668 0,0.549 1.176,-0.67 z M 8.29,9.23 l -0.767,0 -0.84,0.477 0,-0.633 0.088,-0.05 -0.088,-0.153 0,-1.098 0.398,0.684 0,-5.024 -0.398,-0.222 0,-0.565 0.398,0.241 0,-1.182 -0.398,-0.222 0,-0.547 0.398,0.224 0,-2.922 c -0.07,0.223 -0.175,0.439 -0.289,0.649 -0.038,0.068 -0.074,0.119 -0.109,0.193 l 0,-1.239 C 6.718,-2.38 6.739,-2.604 6.718,-2.822 6.7,-2.907 6.7,-3.014 6.683,-3.098 l 0,-1.248 c 0.223,0.323 0.377,0.685 0.445,1.065 0.153,-1.301 0.549,-2.518 1.162,-3.612 l 0,1.08 c -0.459,1.095 -0.719,2.27 -0.731,3.515 l -0.376,0 0.376,0 0,11.044 0.731,0 0,0.484 z m 0,4.375 0,-0.959 -0.099,-0.167 0.099,-0.069 0,-0.545 -0.336,0.186 -0.809,-1.354 0.458,-0.258 0.687,1.182 0,-1.182 -0.015,0.034 -0.464,-0.778 -0.017,0 -0.943,0.528 -0.168,-0.309 0,0.953 1.607,2.738 z m 0,1.194 0,-0.546 -1.607,0.923 0,0.547 1.607,-0.924 z m 0.258,-21.142 0,-0.973 C 8.464,-7.181 8.38,-7.035 8.29,-6.893 l 0,1.08 c 0.09,-0.171 0.174,-0.345 0.258,-0.53 m 0,15.089 -0.258,0 0,0.484 0.258,0 0,-0.484 z m 0,3.506 0,-1.297 -0.018,-0.05 0.018,-0.038 0,-0.715 C 8.464,10.25 8.38,10.342 8.29,10.439 l 0,1.182 0.125,0.169 -0.125,0.075 0,0.545 0.258,-0.158 z m 0,1.801 0,-0.959 -0.258,-0.448 0,0.959 0.258,0.448 z m 0,0.615 0,-0.549 -0.258,0.134 0,0.546 0.258,-0.131 z m 0.495,-21.869 0,-0.839 c -0.171,0.243 -0.341,0.48 -0.495,0.724 l 0,0.973 c 0.154,-0.289 0.324,-0.586 0.495,-0.858 m 0,15.947 -0.495,0 0,0.484 0.495,0 0,-0.484 z m 0,1.596 0,-0.666 C 8.872,9.824 8.718,10.001 8.548,10.152 l 0,0.715 c 0.154,-0.181 0.324,-0.359 0.495,-0.525 m 0,1.644 0,-0.55 -0.153,0.082 -0.342,-0.563 0,1.297 0.495,-0.266 z m 0,2.409 0,-0.465 -0.101,-0.168 0.101,-0.053 0,-0.547 -0.341,0.19 -0.154,-0.258 0,0.959 0.037,0.056 -0.037,0.01 0,0.549 0.495,-0.273 z m 0,-0.465 0.208,0.34 -0.208,0.125 0,-0.465 z m 1.694,-23.093 0,-0.621 c -0.636,0.52 -1.199,1.095 -1.694,1.744 l 0,0.839 c 0.478,-0.721 1.044,-1.385 1.694,-1.962 m 0,12.532 0,-8.431 -1.674,0.978 0,8.409 1.674,-0.956 z m 0,5.861 0,-0.484 -1.694,0 0,0.484 0.532,0 C 9.382,9.37 9.213,9.518 9.043,9.676 l 0,0.666 C 9.456,9.931 9.898,9.549 10.36,9.23 l 0.377,0 z m 0,1.793 0,-0.55 -1.694,0.963 0,0.55 1.694,-0.963 z m 0,7.183 0,-1.163 c -0.015,-0.035 -0.031,-0.068 -0.031,-0.106 l 0.031,0 0,-0.498 -0.244,0 c -0.133,-0.322 -0.235,-0.644 -0.357,-0.988 0.208,-0.103 0.394,-0.185 0.601,-0.275 l 0,-0.546 C 10.48,14.736 10.241,14.837 10.001,14.955 9.886,14.477 9.78,13.996 9.695,13.523 l 1.042,0 0,-0.5 -0.479,0 0.479,-0.27 0,-0.548 -1.694,0.957 0,0.547 0.155,-0.084 c 0.276,1.586 0.803,3.146 1.539,4.581 m 3.764,-29.405 0,-0.497 c -1.406,0.374 -2.669,1.024 -3.764,1.912 l 0,0.621 c 1.065,-0.942 2.338,-1.646 3.764,-2.036 m 0,12.404 -3.764,2.164 0,-8.431 3.764,-2.139 0,8.406 z m 0,5.201 0,-4.443 -1.836,1.046 0,4.44 1.836,-1.043 z m 0,2.824 -0.567,0 -3.197,1.793 0,-0.55 2.221,-1.243 -2.221,0 0,-0.484 3.764,0 0,0.484 z m 0,4.293 0,-0.5 -1.045,0 C 13.423,12.439 13.251,11.93 12.978,11.486 l 1.523,-0.857 0,-0.545 -3.764,2.121 0,0.548 1.829,-1.024 c 0.225,0.37 0.359,0.8 0.412,1.294 l -2.241,0 0,0.5 3.764,0 z m 0,1.125 0,-0.496 c -0.311,-0.033 -0.615,-0.043 -0.926,-0.043 -0.959,0 -1.945,0.18 -2.838,0.521 l 0,0.546 c 0.893,-0.377 1.879,-0.579 2.838,-0.579 0.311,0 0.615,0.016 0.926,0.051 m 0,1.791 -3.764,0 0,0.497 3.764,0 0,-0.497 z m 0,6.605 0,-0.702 c -0.231,-0.202 -0.43,-0.407 -0.636,-0.635 0.189,-0.151 0.405,-0.287 0.636,-0.37 l 0,-0.532 c -0.361,0.117 -0.689,0.289 -0.976,0.544 -0.26,-0.292 -0.514,-0.581 -0.751,-0.888 l 1.727,0 0,-0.496 -2.088,0 c -0.346,-0.479 -0.67,-0.975 -0.963,-1.486 0.963,-0.497 2.006,-0.718 3.051,-0.633 l 0,-0.494 c -1.131,-0.088 -2.26,0.15 -3.27,0.714 -0.176,-0.337 -0.343,-0.664 -0.494,-1.023 l 0,1.163 c 0.942,1.81 2.221,3.451 3.764,4.838 m 2.103,-34.604 0,-0.477 c -0.722,0.03 -1.446,0.148 -2.103,0.341 l 0,0.497 c 0.657,-0.189 1.381,-0.311 2.103,-0.361 m 0,11.58 -2.103,1.185 0,-8.406 2.103,-1.213 0,8.434 z m 0,5.171 0,-4.459 -2.103,1.231 0,4.443 2.103,-1.215 z m 0,6.327 0,-1.383 C 16.515,9.963 16.409,9.768 16.312,9.604 l 0.292,-0.168 0,-0.69 -2.103,0 0,0.484 1.5,0 -1.5,0.854 0,0.545 1.342,-0.772 c 0.335,0.533 0.584,1.079 0.761,1.661 m 0,1.505 -2.104,0 0,0.5 2.104,0 0,-0.5 z m 0,2.207 0,-0.548 c -0.673,-0.276 -1.389,-0.441 -2.103,-0.53 l 0,0.496 c 0.714,0.104 1.43,0.292 2.103,0.582 m 0,1.209 -2.104,0 0,0.497 2.104,0 0,-0.497 z m 0,1.956 0,-0.53 c -0.689,-0.291 -1.389,-0.481 -2.103,-0.513 l 0,0.494 c 0.714,0.053 1.43,0.22 2.103,0.549 m 0,1.57 -2.104,0 0,0.496 2.104,0 0,-0.496 z m 0,1.572 0,-0.562 c -0.655,-0.323 -1.423,-0.391 -2.103,-0.17 l 0,0.532 c 0.68,-0.28 1.468,-0.207 2.103,0.2 m 0,7.336 0,-0.478 0,-1.509 -0.501,0 -1.053,0 0,-1.022 1.554,0 0,-1.488 0,-0.478 -0.226,0 c -0.671,-0.48 -1.299,-0.991 -1.877,-1.556 l 0,0.702 c 0.512,0.445 1.039,0.89 1.602,1.283 l 0,1.055 -1.249,0 -0.306,0 0,1.984 0.502,0 1.053,-0.016 0,1.045 0,0.478 0.501,0 z m 0,-28.141 0,4.459 0.201,-0.099 0,-4.463 -0.201,0.103 z m 0,-9.146 0,8.434 0.219,-0.143 0,-8.411 -0.219,0.12 z m 1.11,-3.146 0,-0.477 c -0.188,0 -0.38,-0.02 -0.567,-0.02 -0.187,0 -0.357,0.02 -0.543,0.02 l 0,0.477 c 0.186,0 0.356,-0.011 0.543,-0.011 0.187,0 0.379,0.011 0.567,0.011 m 0,11.58 0,-8.434 -0.223,-0.12 0,8.411 0.223,0.143 z m 0,5.195 0,-4.464 -0.223,-0.122 0,4.463 0.223,0.123 z m 0,4.221 0,-0.69 -1.11,0 0,0.69 0.37,-0.206 0.377,0 0.363,0.206 z m 0,4.087 0,-0.5 -0.294,0 c 0.035,-0.515 0.137,-1.025 0.294,-1.505 l 0,-1.366 c -0.24,0.477 -0.413,0.991 -0.549,1.502 -0.137,-0.511 -0.326,-1.025 -0.561,-1.519 l 0,1.383 c 0.148,0.48 0.252,0.99 0.283,1.505 l -0.283,0 0,0.5 1.11,0 z m 0,1.674 0,-0.549 C 17.505,14.736 17.317,14.82 17.131,14.9 16.96,14.837 16.79,14.752 16.604,14.682 l 0,0.548 c 0.186,0.066 0.356,0.151 0.527,0.254 0.186,-0.103 0.374,-0.203 0.583,-0.287 m 0,1.242 -1.109,0 0,0.497 1.109,0 0,-0.497 z m 0,1.922 0,-0.515 c -0.209,0.084 -0.397,0.185 -0.583,0.289 -0.171,-0.104 -0.341,-0.186 -0.527,-0.27 l 0,0.53 c 0.186,0.084 0.356,0.164 0.527,0.275 0.186,-0.111 0.374,-0.207 0.583,-0.309 m 0,1.604 -1.109,0 0,0.496 1.109,0 0,-0.496 z m 0,1.537 0,-0.563 c -0.223,0.106 -0.397,0.243 -0.583,0.398 C 16.96,21.193 16.79,21.07 16.604,20.975 l 0,0.562 c 0.186,0.141 0.37,0.292 0.527,0.479 0.17,-0.203 0.36,-0.375 0.583,-0.514 m 0,4.362 0,-1.966 -1.11,0 0,0.478 1.04,0 0,1.488 0.07,0 z m 0,3.009 0,-1.987 -0.07,0 0,1.509 -1.04,0 0,0.478 1.11,0 z m 2.097,-40.072 0,-0.497 c -0.679,-0.193 -1.379,-0.287 -2.097,-0.341 l 0,0.477 c 0.718,0.05 1.438,0.172 2.097,0.361 m 0,12.404 -2.097,-1.185 0,-8.434 2.097,1.213 0,8.406 z m 0,5.223 0,-4.465 -2.097,-1.212 0,4.464 2.097,1.213 z m 0,4.201 0,-0.545 -1.499,-0.854 1.499,0 0,-0.484 -2.097,0 0,0.69 0.29,0.168 c -0.107,0.164 -0.21,0.359 -0.29,0.548 l 0,1.366 c 0.17,-0.582 0.422,-1.128 0.748,-1.661 l 1.349,0.772 z m 0,2.394 -2.097,0 0,0.5 2.097,0 0,-0.5 z m 0,1.625 0,-0.496 c -0.714,0.065 -1.433,0.243 -2.097,0.496 l 0,0.549 c 0.664,-0.275 1.383,-0.461 2.097,-0.549 m 0,1.791 -2.097,0 0,0.497 2.097,0 0,-0.497 z m 0,1.392 0,-0.499 c -0.714,0.052 -1.417,0.225 -2.097,0.514 l 0,0.515 c 0.664,-0.308 1.383,-0.482 2.097,-0.53 m 0,2.134 -2.097,0 0,0.496 2.097,0 0,-0.496 z m 0,1.4 0,-0.527 c -0.679,-0.254 -1.449,-0.207 -2.097,0.101 l 0,0.563 c 0.629,-0.394 1.418,-0.445 2.097,-0.137 m 0,1.608 0,-0.699 c -0.609,0.579 -1.263,1.128 -1.949,1.624 l -0.148,0 0,1.966 1.488,0 0,1.022 -1.083,0 -0.405,0 0,1.987 0.405,0 0,-0.478 0,-1.045 1.083,0.016 0.479,0 0,-1.984 -0.315,0 -1.247,0 0,-1.055 c 0.603,-0.429 1.165,-0.876 1.692,-1.354 m 0,-21.01 1.817,1.046 0,4.44 -1.817,-1.021 0,-4.465 z m 3.747,-11.109 0,-0.638 c -1.079,-0.871 -2.356,-1.538 -3.747,-1.912 l 0,0.497 c 1.407,0.407 2.686,1.111 3.747,2.053 m 0,12.492 0,-8.408 -3.747,-2.139 0,8.406 3.747,2.141 z m 0,7.677 -3.175,-1.793 -0.572,0 0,-0.484 3.747,0 0,0.484 -2.205,0 2.205,1.243 0,0.55 z m 0,2.5 0,-0.5 -2.219,0 c 0.049,-0.494 0.187,-0.924 0.406,-1.294 l 1.813,1.005 0,-0.546 -3.747,-2.104 0,0.545 1.528,0.857 c -0.274,0.444 -0.445,0.953 -0.502,1.537 l -1.026,0 0,0.5 3.747,0 z m 0,1.674 0,-0.549 c -0.907,-0.343 -1.914,-0.539 -2.888,-0.539 -0.273,0 -0.566,0.01 -0.859,0.043 l 0,0.496 c 0.293,-0.035 0.586,-0.051 0.859,-0.051 0.974,0 1.981,0.223 2.888,0.6 m 0,2.889 0,-1.647 -3.747,0 0,0.498 3.731,0 c -0.174,0.395 -0.346,0.753 -0.533,1.129 -1.01,-0.543 -2.102,-0.783 -3.198,-0.734 l 0,0.499 c 1.012,-0.054 2.041,0.151 2.956,0.648 -0.288,0.535 -0.608,1.027 -0.955,1.501 l 0,-0.015 -2.001,0 0,0.496 1.643,0 c -0.236,0.307 -0.476,0.596 -0.754,0.888 -0.252,-0.241 -0.559,-0.41 -0.889,-0.511 l 0,0.527 c 0.211,0.09 0.395,0.205 0.572,0.342 -0.191,0.189 -0.379,0.376 -0.572,0.567 l 0,0.699 c 1.542,-1.403 2.805,-3.061 3.747,-4.887 m 0,-23.148 0,8.408 1.691,0.979 0,-8.409 -1.691,-0.978 z m 2.185,-1.266 0,-0.975 c -0.597,-0.941 -1.33,-1.773 -2.185,-2.481 l 0,0.638 c 0.89,0.781 1.642,1.758 2.185,2.818 m 0,17.264 0,-0.713 C 25.399,9.857 25.052,9.535 24.667,9.23 l 1.076,0 0,-0.484 -2.185,0 0,0.484 0.31,0 c 0.701,0.493 1.332,1.063 1.875,1.706 m 0,1.316 -2.185,-1.229 0,-0.55 1.865,1.045 0.32,-0.533 0,1.267 z m 0,2.396 0,-0.539 -0.014,0 0.014,-0.04 0,-0.963 -0.133,0.246 -2.052,-1.164 0,0.546 0.5,0.289 -0.5,0 0,0.5 0.99,0 c -0.082,0.473 -0.19,0.954 -0.322,1.417 -0.204,-0.103 -0.44,-0.204 -0.668,-0.292 l 0,0.549 c 0.175,0.069 0.359,0.151 0.527,0.236 -0.1,0.34 -0.217,0.684 -0.338,1.006 l -0.189,0 0,1.647 c 0.718,-1.422 1.23,-2.94 1.494,-4.497 l 0.301,0.173 -0.29,0.508 0.68,0.378 z m 0.278,-20.392 0,-1.08 c -0.086,-0.175 -0.188,-0.321 -0.278,-0.479 l 0,0.975 c 0.09,0.205 0.192,0.392 0.278,0.584 m 0,14.49 -0.277,0 0,0.484 0.277,0 0,-0.484 z m 0,3.664 0,-0.545 -0.118,-0.075 0.118,-0.169 0,-1.095 c -0.098,-0.101 -0.188,-0.208 -0.278,-0.303 l 0,0.713 0,0.019 0,0.03 0,1.267 0.278,0.158 z m 0,1.195 0,-0.959 -0.278,0.46 0,0.963 0.278,-0.464 z m 0,1.194 0,-0.546 -0.278,-0.144 0,0.539 0.278,0.151 z m 1.603,-5.092 -0.853,-0.477 -0.75,0 0,-0.484 0.701,0 0,-11.044 0.392,0 -0.392,0 c -0.014,-1.21 -0.254,-2.368 -0.701,-3.446 l 0,-1.08 c 0.595,1.094 1.007,2.325 1.126,3.636 0.09,-0.41 0.241,-0.8 0.477,-1.158 l 0,1.248 c -0.016,0.084 -0.016,0.191 -0.029,0.276 -0.018,0.218 0,0.442 0.029,0.663 l 0,1.239 C 27.595,-0.994 27.56,-1.045 27.526,-1.113 27.368,-1.352 27.272,-1.61 27.198,-1.871 l 0,3.046 0.426,-0.239 0,0.547 -0.426,0.241 0,1.183 0.426,-0.261 0,0.546 -0.426,0.257 0,5.065 0.426,-0.741 0,1.098 -0.08,0.153 0.08,0.05 0,0.633 z m 0,1.16 0,-0.953 -0.168,0.309 -0.951,-0.528 -0.484,0.831 0,1.095 0.687,-1.182 0.453,0.258 -0.799,1.354 -0.341,-0.186 0,0.545 0.101,0.069 -0.101,0.167 0,0.959 1.603,-2.738 z m 0,4.856 0,-0.547 -1.603,-0.923 0,0.546 1.603,0.924 z m 1.186,-20.549 0,-0.546 c -0.051,0.04 -0.086,0.054 -0.141,0.087 -0.424,0.242 -0.789,0.567 -1.045,0.939 l 0,1.248 c 0.139,-0.702 0.553,-1.333 1.186,-1.728 m 0,2.955 c -0.276,-0.492 -0.256,-1.072 0,-1.531 l 0,1.531 z m 0,1.951 0,-0.547 C 28.466,-0.666 28.161,-0.979 27.938,-1.337 27.78,-1.61 27.683,-1.883 27.624,-2.159 l 0,1.239 c 0.314,0.441 0.717,0.783 1.186,1 m 0,0.736 0,-0.543 -1.186,0.663 0,0.547 1.186,-0.667 z m 0,1.727 0,-0.547 -1.186,0.65 0,0.546 1.186,-0.649 z m 0,5.283 0,-0.629 -0.618,-0.343 -0.568,0.919 0,1.098 0.773,-1.285 0.413,0.24 z m 0,1.045 -1.186,1.996 0,-0.953 0.107,-0.155 -0.107,-0.052 0,-0.633 0.383,0.207 0.803,-1.373 0,0.963 z m 0,2.647 0,-0.547 -0.038,-0.016 0.038,-0.064 0,-0.96 -0.702,1.193 0.702,0.394 z m 0,1.128 0,-0.716 -0.073,0.138 -0.24,0.411 0.313,0.167 z m 0,3.747 0,-0.549 -1.186,-0.668 0,0.547 1.186,0.67 z m 1.419,-21.608 0,-0.473 c -0.478,0 -0.962,0.099 -1.419,0.316 l 0,0.546 c 0.033,-0.014 0.064,-0.031 0.097,-0.047 0.414,-0.242 0.875,-0.36 1.322,-0.342 m 0,4.17 0,-0.514 c -0.378,0 -0.751,-0.187 -0.962,-0.527 -0.305,-0.534 -0.12,-1.195 0.414,-1.512 0.17,-0.08 0.357,-0.136 0.548,-0.136 l 0,-0.493 c -0.277,0 -0.548,0.067 -0.808,0.204 -0.274,0.153 -0.475,0.362 -0.611,0.621 l 0,1.531 0.017,0.023 c 0.305,0.511 0.838,0.803 1.402,0.803 m 0,1.065 0,-0.075 c -0.5,0 -0.99,-0.136 -1.419,-0.412 l 0,0.547 c 0.064,0.04 0.117,0.075 0.185,0.087 l -0.185,0.106 0,0.543 0.668,-0.374 0.152,-0.087 0.599,-0.335 z m 0,3.429 0,-2.256 -0.091,0.055 -1.328,0.748 0,0.547 1.171,-0.669 c -0.044,0.519 0.024,1.069 0.248,1.575 m 0,3.008 -1.419,2.414 0,-0.963 0.033,-0.063 -0.033,-0.019 0,-0.629 0.322,0.184 1.097,-1.881 0,0.957 z m 0,0.771 0,-0.273 -0.126,0.204 0.126,0.069 z m 0,3.245 -0.054,0.095 -0.238,0.403 -0.889,-0.498 -0.238,0.418 0,-0.96 0.064,-0.107 0.893,0.494 0.462,-0.783 0,0.938 z m 0,2.056 0,-0.753 -0.091,-0.047 -0.489,0.847 -0.502,-0.27 0.518,-0.853 -0.855,-0.482 0,0.547 0.185,0.103 -0.185,0.309 0,0.716 0.097,0.069 0.494,0.273 0.412,0.241 0.416,-0.7 z m 0,3.985 0,-0.926 -0.292,0.499 c -0.124,0.184 -0.288,0.22 -0.481,0.115 l -0.646,-0.358 0,0.549 0.408,0.218 c 0.304,0.175 0.719,0.121 0.994,-0.115 l 0.017,0.018 z m 0,-16.569 0,0.075 0.135,-0.075 -0.135,0 z m 0,-4.172 0,0.493 c 0.387,0 0.766,0.191 0.969,0.546 0.309,0.516 0.127,1.182 -0.408,1.491 -0.174,0.105 -0.381,0.138 -0.561,0.138 l 0,0.514 c 0.288,0 0.561,-0.068 0.817,-0.222 0.766,-0.43 1.043,-1.405 0.598,-2.171 -0.305,-0.512 -0.854,-0.789 -1.415,-0.789 m 1.655,-0.439 0,-0.567 C 31.39,-5.545 30.806,-5.688 30.229,-5.688 l 0,0.473 c 0.598,0 1.18,0.184 1.655,0.549 m 0,7.927 C 31.812,3.192 31.749,3.112 31.694,3.025 31.339,2.408 31.442,1.67 31.884,1.175 l 0,2.086 z m 0,1.78 0,-0.529 C 31.442,4.289 31.065,3.948 30.806,3.521 30.296,2.646 30.364,1.605 30.87,0.816 l -0.641,0.377 0,2.256 c 0.049,0.106 0.098,0.207 0.165,0.313 0.349,0.593 0.873,1.027 1.49,1.279 m 0,1.796 -0.135,-0.068 -0.582,0.996 -0.938,-0.537 0,-0.273 0.458,-0.785 -0.202,-0.124 -0.256,0.411 0,-0.957 0.067,-0.1 1.064,0.596 -0.588,0.981 0.223,0.112 0.576,-0.973 0.313,0.173 0,0.548 z m 0,1.315 0,-1.107 -0.494,0.835 0.494,0.272 z m 0,3.591 -0.153,0.255 -0.496,0.838 -0.037,0.033 -0.886,-0.495 -0.083,0.155 0,-0.753 0.799,0.445 0.274,-0.461 -0.893,-0.514 1.184,-1.965 -0.498,-0.275 -0.866,1.467 0,-0.938 0.458,-0.765 0.244,-0.408 0.408,0.234 0.545,0.294 0,0.852 -0.801,1.332 0.801,0.444 0,0.225 z m 0,5.691 0,-0.547 -1.399,-0.788 0.51,-0.869 0.889,0.493 0,-0.936 -0.174,0.285 -0.475,-0.252 0.649,-1.08 0,-0.937 -1.655,2.785 0,0.926 1.655,0.92 z m 0,-5.916 0.09,0.07 -0.09,0.155 0,-0.225 z m 0,-2.628 0,0.852 0.359,-0.627 -0.359,-0.225 z m 1.217,-12.793 0,-0.528 c -0.084,0.034 -0.17,0.085 -0.243,0.118 -0.254,-0.391 -0.597,-0.697 -0.974,-0.92 l 0,0.567 c 0.238,0.2 0.459,0.439 0.629,0.729 0.078,0.109 0.125,0.203 0.156,0.309 0.098,-0.089 0.203,-0.155 0.31,-0.2 0.049,-0.042 0.084,-0.057 0.122,-0.075 m 0,3.376 0,-2.145 c -0.463,0.499 -0.567,1.252 -0.211,1.864 0.07,0.107 0.138,0.191 0.211,0.281 m 0,4.337 0,-0.497 C 32.72,3.313 32.343,3.112 32.138,2.762 31.835,2.256 32.003,1.568 32.548,1.276 32.72,1.175 32.909,1.125 33.101,1.125 l 0,-0.496 c -0.274,0 -0.553,0.068 -0.805,0.202 -0.174,0.105 -0.313,0.21 -0.412,0.344 l 0,2.086 c 0.306,0.364 0.754,0.549 1.217,0.549 m 0,1.465 0,-0.472 c -0.432,0 -0.84,-0.104 -1.217,-0.291 l 0,0.529 c 0.377,0.15 0.801,0.234 1.217,0.234 m 0,2.261 -0.084,-0.05 -0.573,0.987 -0.56,-0.321 0,-1.107 0.09,-0.158 -0.09,-0.05 0,-0.548 0.754,0.428 -0.584,0.97 0.207,0.139 0.58,-0.989 0.26,0.153 0,0.546 z m 0,1.3 0,-0.991 -0.444,0.751 0.444,0.24 z m 0,7.573 0,-0.546 -0.911,-0.515 0.911,-1.537 0,-0.391 -0.311,-0.17 -0.461,-0.277 0.275,-0.465 0.497,0.295 0,-0.633 -0.229,-0.137 0.229,-0.357 0,-0.957 -1.217,2.084 0,0.937 0.152,-0.29 0.477,0.259 -0.629,1.078 0,0.936 1.217,0.686 z m 0,1.712 0,-0.535 -1.217,-0.699 0,0.547 1.095,0.632 c 0.038,0.02 0.084,0.034 0.122,0.055 m 0,-4.701 0,0.391 0.168,-0.288 -0.168,-0.103 z m 1.214,-17.613 0,-0.459 c -0.41,0 -0.824,0.07 -1.214,0.221 l 0,0.528 c 0.39,-0.181 0.804,-0.29 1.214,-0.29 m 0,4.193 0,-0.516 c -0.4,0 -0.767,-0.185 -0.98,-0.546 -0.307,-0.515 -0.117,-1.179 0.41,-1.49 0.17,-0.081 0.377,-0.135 0.57,-0.135 l 0,-0.501 c -0.275,0 -0.57,0.079 -0.824,0.208 -0.156,0.084 -0.273,0.193 -0.39,0.308 l 0,2.145 c 0.3,0.336 0.75,0.506 1.214,0.527 m 0,3.284 0,-2.124 C 34.007,0.816 33.562,0.629 33.101,0.629 l 0,0.496 c 0.39,0 0.767,0.205 0.972,0.545 0.305,0.533 0.117,1.197 -0.416,1.492 -0.166,0.099 -0.371,0.151 -0.556,0.151 l 0,0.497 c 0.271,0 0.556,-0.067 0.814,-0.208 0.158,-0.081 0.275,-0.2 0.4,-0.318 m 0,1.757 0,-0.514 c -0.4,0.192 -0.81,0.276 -1.214,0.276 l 0,0.472 c 0.404,0 0.814,-0.06 1.214,-0.234 m 0,3.183 -0.019,0 -0.586,0.967 -0.609,-0.355 0,-0.991 0.13,-0.241 -0.13,-0.068 0,-0.546 0.804,0.443 -0.582,0.977 0.225,0.131 0.574,-0.988 0.193,0.12 0,0.551 z m 0,3.536 0,-1.455 -0.308,-0.17 0.308,-0.518 0,-0.929 -1.214,2.031 0,0.957 0.625,-1.063 0.464,0.254 -0.855,1.439 -0.234,-0.136 0,0.633 0.447,0.259 0,-0.021 0.767,-1.281 z m 0,6.001 0,-1.114 c -0.091,-0.12 -0.193,-0.219 -0.33,-0.292 l -0.884,-0.492 0,0.546 0.593,0.345 c 0.256,0.133 0.346,0.443 0.211,0.698 l 0,-0.018 c -0.16,0.256 -0.48,0.343 -0.72,0.191 l -0.084,-0.039 0,0.535 c 0.447,0.17 0.939,0.033 1.214,-0.36 m 0,-1.114 0,1.114 c 0.018,-0.019 0.026,-0.032 0.026,-0.052 0.215,-0.339 0.174,-0.754 -0.026,-1.062 m 0,-6.342 0,1.455 0.645,-1.098 -0.645,-0.357 z m 0,-2.632 0,0.551 0.2,0.118 -0.2,0.346 0,0.929 0.87,-1.465 -0.87,-0.479 z m 0,-6.513 c 0.063,0.07 0.131,0.17 0.2,0.272 0.361,0.599 0.265,1.351 -0.2,1.852 l 0,-2.124 z m 0,-4.348 c 0.561,0 1.104,0.281 1.397,0.79 0.443,0.757 0.191,1.744 -0.594,2.174 C 34.862,-0.068 34.585,0 34.315,0 l 0,-0.516 c 0.184,0 0.373,-0.035 0.547,-0.138 0.541,-0.307 0.711,-0.971 0.412,-1.487 -0.211,-0.359 -0.586,-0.546 -0.959,-0.546 l 0,-0.501 z m 3.127,1.719 0,-0.277 c -0.035,-0.459 -0.171,-0.941 -0.429,-1.385 -0.567,-0.974 -1.625,-1.521 -2.698,-1.521 l 0,0.459 c 0.907,0.014 1.791,0.476 2.288,1.297 0.72,1.234 0.289,2.828 -0.977,3.543 -0.102,0.05 -0.207,0.104 -0.324,0.149 0.021,0.02 0.037,0.052 0.056,0.071 l 0,0.021 0.014,0 0,0.018 0.016,0.01 c 0.732,1.25 0.293,2.827 -0.977,3.55 -0.033,0.01 -0.07,0.046 -0.096,0.061 l 0,0.514 c 0.114,-0.053 0.241,-0.102 0.356,-0.168 1.385,-0.793 1.932,-2.465 1.303,-3.885 0.9,-0.546 1.418,-1.484 1.468,-2.457"
             style="fill:#ad3847;fill-opacity:1;fill-rule:evenodd;stroke:none"
             id="path52"
             inkscape:connector-curvature="0" /></g><g
           id="g54"
           transform="translate(64.3989,141.9521)"><path
             d="m 0,0 0.103,-0.219 c -0.167,-0.09 -0.306,-0.193 -0.363,-0.318 -0.065,-0.129 -0.065,-0.268 0,-0.404 0.069,-0.156 0.17,-0.252 0.311,-0.309 0.137,-0.049 0.271,-0.049 0.441,0.017 0.074,0.04 0.135,0.087 0.177,0.136 0.048,0.054 0.081,0.104 0.097,0.189 0.019,0.07 0.035,0.195 0.019,0.357 l 0,0.178 c -0.019,0.239 0.016,0.406 0.089,0.545 0.081,0.133 0.2,0.24 0.372,0.307 C 1.434,0.565 1.627,0.582 1.805,0.497 2,0.429 2.138,0.305 2.221,0.121 2.307,-0.086 2.322,-0.272 2.254,-0.428 2.186,-0.596 2.069,-0.713 1.86,-0.805 L 1.842,-0.82 1.76,-0.616 C 1.894,-0.551 2,-0.445 2.03,-0.344 2.084,-0.242 2.084,-0.119 2.014,0.02 1.965,0.135 1.86,0.242 1.74,0.273 1.606,0.322 1.471,0.322 1.328,0.255 1.281,0.242 1.229,0.203 1.175,0.154 1.126,0.121 1.091,0.064 1.074,0.02 1.022,-0.07 1.009,-0.242 1.022,-0.461 l 0,-0.106 C 1.039,-0.805 1.009,-0.993 0.941,-1.135 0.874,-1.25 0.75,-1.369 0.58,-1.436 0.359,-1.539 0.147,-1.539 -0.018,-1.471 c -0.185,0.069 -0.345,0.209 -0.447,0.428 -0.086,0.223 -0.098,0.405 -0.012,0.598 C -0.413,-0.272 -0.24,-0.119 0,0"
             style="fill:#ad3847;fill-opacity:1;fill-rule:nonzero;stroke:none"
             id="path56"
             inkscape:connector-curvature="0" /></g><g
           id="g58"
           transform="translate(66.2407,138.7529)"><path
             d="m 0,0 c -0.289,-0.135 -0.545,-0.205 -0.768,-0.17 -0.2,0.035 -0.378,0.154 -0.494,0.34 -0.136,0.259 -0.136,0.482 0,0.723 0.137,0.222 0.414,0.459 0.854,0.701 C 0.019,1.848 0.379,1.966 0.636,1.966 0.907,1.987 1.117,1.865 1.266,1.625 1.391,1.424 1.406,1.215 1.357,1.027 1.279,0.841 1.129,0.674 0.907,0.535 L 0.771,0.742 C 0.954,0.861 1.063,0.977 1.117,1.115 1.166,1.248 1.166,1.373 1.076,1.512 0.975,1.674 0.824,1.764 0.596,1.729 0.379,1.715 0.068,1.604 -0.289,1.389 -0.667,1.18 -0.9,0.996 -1.021,0.805 -1.16,0.634 -1.173,0.461 -1.076,0.297 c 0.083,-0.137 0.21,-0.221 0.375,-0.24 0.174,0 0.361,0.033 0.583,0.15 L 0,0 z"
             style="fill:#ad3847;fill-opacity:1;fill-rule:nonzero;stroke:none"
             id="path60"
             inkscape:connector-curvature="0" /></g><g
           id="g62"
           transform="translate(65.8325,137.7119)"><path
             d="M 0,0 2.307,1.59 2.446,1.404 0.135,-0.186 0,0 z"
             style="fill:#ad3847;fill-opacity:1;fill-rule:nonzero;stroke:none"
             id="path64"
             inkscape:connector-curvature="0" /></g><g
           id="g66"
           transform="translate(66.4126,136.9287)"><path
             d="M 0,0 2.158,1.756 2.994,0.783 2.824,0.645 2.158,1.434 1.383,0.803 1.967,0.096 1.816,-0.037 1.219,0.668 0.346,-0.055 1.008,-0.819 0.842,-0.965 0,0 z"
             style="fill:#ad3847;fill-opacity:1;fill-rule:nonzero;stroke:none"
             id="path68"
             inkscape:connector-curvature="0" /></g><g
           id="g70"
           transform="translate(67.7505,135.4404)"><path
             d="M 0,0 1.895,2.011 2.086,1.844 1.229,-0.633 2.864,1.146 3.039,0.988 1.158,-1.029 0.956,-0.857 1.776,1.584 0.168,-0.157 0,0 z"
             style="fill:#ad3847;fill-opacity:1;fill-rule:nonzero;stroke:none"
             id="path72"
             inkscape:connector-curvature="0" /></g><g
           id="g74"
           transform="translate(69.9536,133.6826)"><path
             d="M 0,0 1.422,2.08 0.887,2.438 1.026,2.609 2.292,1.791 2.152,1.601 1.623,1.963 0.188,-0.143 0,0 z"
             style="fill:#ad3847;fill-opacity:1;fill-rule:nonzero;stroke:none"
             id="path76"
             inkscape:connector-curvature="0" /></g><g
           id="g78"
           transform="translate(71.2036,132.9238)"><path
             d="M 0,0 1.296,2.43 1.498,2.331 0.204,-0.101 0,0 z"
             style="fill:#ad3847;fill-opacity:1;fill-rule:nonzero;stroke:none"
             id="path80"
             inkscape:connector-curvature="0" /></g><g
           id="g82"
           transform="translate(72.8071,133.3545)"><path
             d="m 0,0 0.427,-0.157 0,-0.22 -0.546,0.203 -0.526,-0.716 -0.205,0.074 1.277,1.72 0,-0.327 L 0,0 z m 0.427,-0.157 0.27,-0.099 0.16,1.401 -0.43,-0.568 0,0.327 0.43,0.563 0.252,-0.084 -0.3,-2.838 -0.227,0.088 0.09,0.889 -0.245,0.101 0,0.22 z"
             style="fill:#ad3847;fill-opacity:1;fill-rule:nonzero;stroke:none"
             id="path84"
             inkscape:connector-curvature="0" /></g><g
           id="g86"
           transform="translate(74.3774,132.0713)"><path
             d="M 0,0 0.229,-0.054 -0.297,-0.838 -0.51,-0.789 0,0 z"
             style="fill:#ad3847;fill-opacity:1;fill-rule:nonzero;stroke:none"
             id="path88"
             inkscape:connector-curvature="0" /></g><g
           id="g90"
           transform="translate(76.2271,131.3701)"><path
             d="M 0,0 -0.391,2.82 -0.155,2.787 0.183,0.322 1.127,2.635 1.352,2.615 0.272,-0.02 0,0 z"
             style="fill:#ad3847;fill-opacity:1;fill-rule:nonzero;stroke:none"
             id="path92"
             inkscape:connector-curvature="0" /></g><g
           id="g94"
           transform="translate(77.7847,131.25)"><path
             d="M 0,0 0.089,2.755 0.323,2.735 0.239,0 0,0 z"
             style="fill:#ad3847;fill-opacity:1;fill-rule:nonzero;stroke:none"
             id="path96"
             inkscape:connector-curvature="0" /></g><g
           id="g98"
           transform="translate(79.187,131.25)"><path
             d="m 0,0 -0.125,2.53 -0.632,-0.027 0,0.217 1.508,0.07 0,-0.228 L 0.116,2.548 0.235,0.017 0,0 z"
             style="fill:#ad3847;fill-opacity:1;fill-rule:nonzero;stroke:none"
             id="path100"
             inkscape:connector-curvature="0" /></g><g
           id="g102"
           transform="translate(80.7583,132.4648)"><path
             d="m 0,0 0.375,0.073 0,-0.228 L 0,-0.204 l -0.082,-0.891 -0.223,-0.033 0.289,2.82 0.268,0.05 0.123,-0.285 0,-0.534 L 0.15,1.417 0,0 z m 0.375,0.073 0.373,0.042 -0.373,0.808 0,0.534 1.08,-2.316 -0.242,-0.031 -0.38,0.822 -0.458,-0.087 0,0.228 z"
             style="fill:#ad3847;fill-opacity:1;fill-rule:nonzero;stroke:none"
             id="path104"
             inkscape:connector-curvature="0" /></g><g
           id="g106"
           transform="translate(83.8892,132.1064)"><path
             d="M 0,0 -1.048,2.545 0.145,3.004 0.219,2.8 -0.741,2.43 -0.363,1.52 0.496,1.846 0.578,1.66 -0.277,1.314 0.145,0.29 1.109,0.662 1.182,0.462 0,0 z"
             style="fill:#ad3847;fill-opacity:1;fill-rule:nonzero;stroke:none"
             id="path108"
             inkscape:connector-curvature="0" /></g><g
           id="g110"
           transform="translate(86.1021,133.0986)"><path
             d="M 0,0 -1.277,2.185 -1.842,1.881 -1.941,2.066 -0.625,2.801 -0.521,2.615 -1.064,2.309 0.213,0.119 0,0 z"
             style="fill:#ad3847;fill-opacity:1;fill-rule:nonzero;stroke:none"
             id="path112"
             inkscape:connector-curvature="0" /></g><g
           id="g114"
           transform="translate(88.2485,134.5361)"><path
             d="m 0,0 -1.883,2.029 0.957,0.858 0.156,-0.168 -0.771,-0.668 0.68,-0.737 0.683,0.6 0.141,-0.158 -0.684,-0.6 L 0.186,0.165 0,0 z"
             style="fill:#ad3847;fill-opacity:1;fill-rule:nonzero;stroke:none"
             id="path116"
             inkscape:connector-curvature="0" /></g><g
           id="g118"
           transform="translate(89.6274,135.8311)"><path
             d="M 0,0 -2.063,1.852 -1.908,2.018 0.158,0.168 0,0 z"
             style="fill:#ad3847;fill-opacity:1;fill-rule:nonzero;stroke:none"
             id="path120"
             inkscape:connector-curvature="0" /></g><g
           id="g122"
           transform="translate(89.5298,138.7764)"><path
             d="m 0,0 c -0.156,0.066 -0.271,0.123 -0.381,0.123 -0.199,0 -0.392,-0.111 -0.578,-0.352 L -1.145,-0.482 0,-1.325 l 0,-0.304 -1.459,1.083 0.342,0.441 c 0.226,0.308 0.463,0.445 0.736,0.445 0.11,0 0.244,-0.018 0.381,-0.086 L 0,0 z m 0.77,-1.885 0.191,0.256 C 1.143,-1.391 1.199,-1.18 1.143,-0.993 1.072,-0.805 0.854,-0.581 0.48,-0.314 0.309,-0.174 0.154,-0.092 0,0 l 0,0.254 c 0.188,-0.07 0.391,-0.188 0.629,-0.359 0.414,-0.309 0.646,-0.586 0.742,-0.823 0.068,-0.24 0,-0.51 -0.228,-0.802 L 0.787,-2.189 0,-1.629 l 0,0.304 0.77,-0.56 z"
             style="fill:#ad3847;fill-opacity:1;fill-rule:nonzero;stroke:none"
             id="path124"
             inkscape:connector-curvature="0" /></g><g
           id="g126"
           transform="translate(91.6802,138.4824)"><path
             d="M 0,0 -2.422,1.349 -1.797,2.441 -1.602,2.335 -2.121,1.47 -1.227,0.979 -0.779,1.761 -0.596,1.659 -1.057,0.871 -0.064,0.327 0.441,1.193 0.637,1.095 0,0 z"
             style="fill:#ad3847;fill-opacity:1;fill-rule:nonzero;stroke:none"
             id="path128"
             inkscape:connector-curvature="0" /></g><g
           id="g130"
           transform="translate(91.8521,140.3916)"><path
             d="M 0,0 0.102,0.209 C 0.297,0.139 0.445,0.125 0.598,0.158 0.738,0.209 0.842,0.299 0.889,0.426 0.971,0.6 0.971,0.74 0.926,0.871 0.875,0.993 0.773,1.1 0.621,1.168 0.531,1.201 0.465,1.217 0.395,1.217 0.33,1.217 0.258,1.201 0.189,1.168 0.121,1.133 0.016,1.062 -0.1,0.923 -0.152,0.871 -0.207,0.848 -0.221,0.808 -0.389,0.652 -0.563,0.556 -0.699,0.518 c -0.151,-0.036 -0.33,-0.019 -0.5,0.07 -0.184,0.088 -0.324,0.201 -0.393,0.394 -0.062,0.166 -0.047,0.36 0.039,0.546 0.084,0.204 0.205,0.337 0.373,0.394 0.17,0.067 0.362,0.051 0.549,-0.039 l 0.012,0 -0.08,-0.201 C -0.85,1.732 -0.994,1.749 -1.096,1.715 -1.211,1.664 -1.297,1.594 -1.348,1.457 -1.42,1.318 -1.42,1.201 -1.361,1.062 -1.314,0.944 -1.229,0.859 -1.096,0.789 -1.029,0.77 -0.951,0.756 -0.902,0.74 c 0.068,0 0.115,0 0.185,0.016 0.098,0.033 0.219,0.139 0.395,0.306 0.033,0.019 0.049,0.053 0.068,0.071 0.19,0.155 0.34,0.275 0.481,0.308 C 0.377,1.475 0.531,1.457 0.701,1.392 0.926,1.288 1.074,1.148 1.148,0.965 1.211,0.789 1.211,0.588 1.109,0.367 1.008,0.139 0.875,0 0.666,-0.045 0.482,-0.11 0.258,-0.102 0,0"
             style="fill:#ad3847;fill-opacity:1;fill-rule:nonzero;stroke:none"
             id="path132"
             inkscape:connector-curvature="0" /></g><g
           id="g134"
           transform="translate(106.0435,168.3037)"><path
             d="M 0,0 0,-59.25"
             style="fill:none;stroke:#ad3847;stroke-width:0.64999998;stroke-linecap:butt;stroke-linejoin:miter;stroke-miterlimit:4;stroke-opacity:1;stroke-dasharray:none"
             id="path136"
             inkscape:connector-curvature="0" /></g><g
           id="g138"
           transform="translate(112.9824,132.1211)"><path
             d="m 0,0 0,10.949 5.433,0 0,-1.137 -4.224,0 0,-3.52 3.946,0 0,-1.108 -3.946,0 0,-4.032 4.266,0 L 5.475,0 0,0 z"
             style="fill:#606163;fill-opacity:1;fill-rule:nonzero;stroke:none"
             id="path140"
             inkscape:connector-curvature="0" /></g><g
           id="g142"
           transform="translate(119.8857,135.5977)"><path
             d="m 0,0 1.166,0 0,-0.391 c 0,-0.744 0.172,-1.306 0.516,-1.685 0.343,-0.379 0.851,-0.569 1.525,-0.569 0.606,0 1.083,0.182 1.429,0.547 0.345,0.366 0.518,0.868 0.518,1.508 0,0.512 -0.105,0.906 -0.316,1.184 C 4.627,0.871 4.152,1.149 3.413,1.43 3.237,1.496 2.991,1.588 2.674,1.707 1.787,2.029 1.252,2.271 1.066,2.432 0.764,2.701 0.537,3.023 0.388,3.395 0.238,3.768 0.164,4.199 0.164,4.692 c 0,0.953 0.263,1.699 0.789,2.237 0.526,0.537 1.258,0.806 2.196,0.806 0.892,0 1.59,-0.248 2.094,-0.746 C 5.748,6.491 6.001,5.804 6.001,4.927 6.001,4.899 5.998,4.853 5.994,4.789 5.989,4.725 5.986,4.678 5.986,4.65 l -1.123,0 0,0.114 C 4.863,5.38 4.713,5.855 4.412,6.189 4.11,6.523 3.686,6.69 3.136,6.69 2.566,6.69 2.119,6.53 1.792,6.21 1.465,5.891 1.301,5.458 1.301,4.913 1.301,4.396 1.412,3.996 1.636,3.711 1.858,3.427 2.344,3.147 3.093,2.873 3.183,2.84 3.315,2.789 3.491,2.723 4.633,2.301 5.315,1.986 5.539,1.777 5.809,1.526 6.009,1.221 6.14,0.86 6.27,0.5 6.335,0.068 6.335,-0.434 c 0,-1.038 -0.287,-1.845 -0.86,-2.423 -0.574,-0.58 -1.372,-0.869 -2.396,-0.869 -1.019,0 -1.79,0.285 -2.311,0.854 -0.522,0.569 -0.782,1.405 -0.782,2.51 0,0.038 0.002,0.098 0.007,0.18 C -0.002,-0.098 0,-0.038 0,0"
             style="fill:#606163;fill-opacity:1;fill-rule:nonzero;stroke:none"
             id="path144"
             inkscape:connector-curvature="0" /></g><g
           id="g146"
           transform="translate(133.1104,136.1387)"><path
             d="M 0,0 1.208,0 C 1.194,-1.39 0.906,-2.449 0.345,-3.182 c -0.562,-0.732 -1.371,-1.099 -2.428,-1.099 -1.129,0 -1.964,0.467 -2.507,1.397 -0.542,0.932 -0.813,2.368 -0.813,4.313 0,2.028 0.268,3.496 0.806,4.404 0.538,0.908 1.407,1.361 2.606,1.361 1,0 1.771,-0.29 2.314,-0.87 C 0.866,5.743 1.138,4.917 1.138,3.846 l 0,-0.135 -1.181,0 c 0,0.748 -0.175,1.336 -0.526,1.763 -0.351,0.426 -0.829,0.64 -1.436,0.64 -0.744,0 -1.28,-0.362 -1.607,-1.084 -0.327,-0.723 -0.491,-1.924 -0.491,-3.601 0,-1.64 0.168,-2.808 0.505,-3.502 0.337,-0.695 0.891,-1.042 1.664,-1.042 0.621,0 1.098,0.256 1.433,0.764 C -0.167,-1.841 0,-1.114 0,-0.172 L 0,0 z"
             style="fill:#606163;fill-opacity:1;fill-rule:nonzero;stroke:none"
             id="path148"
             inkscape:connector-curvature="0" /></g><g
           id="g150"
           transform="translate(137.2061,137.5957)"><path
             d="m 0,0 c 0,-1.759 0.167,-2.975 0.5,-3.647 0.334,-0.673 0.912,-1.01 1.736,-1.01 0.832,0 1.413,0.329 1.743,0.985 0.329,0.656 0.493,1.88 0.493,3.672 0,1.787 -0.164,3.007 -0.493,3.662 C 3.649,4.315 3.068,4.643 2.236,4.643 1.412,4.643 0.834,4.307 0.5,3.637 0.167,2.966 0,1.754 0,0 m -1.272,0 c 0,2.038 0.275,3.504 0.827,4.397 C 0.106,5.291 1,5.737 2.236,5.737 3.481,5.737 4.377,5.295 4.924,4.412 5.471,3.527 5.744,2.057 5.744,0 5.744,-2.057 5.473,-3.527 4.928,-4.412 4.383,-5.296 3.486,-5.738 2.236,-5.738 c -1.231,0 -2.124,0.451 -2.677,1.351 -0.555,0.901 -0.831,2.364 -0.831,4.387"
             style="fill:#606163;fill-opacity:1;fill-rule:nonzero;stroke:none"
             id="path152"
             inkscape:connector-curvature="0" /></g><g
           id="g154"
           transform="translate(144.6846,132.1211)"><path
             d="m 0,0 0,10.949 1.224,0 0,-9.769 4.372,0 L 5.596,0 0,0 z"
             style="fill:#606163;fill-opacity:1;fill-rule:nonzero;stroke:none"
             id="path156"
             inkscape:connector-curvature="0" /></g><g
           id="g158"
           transform="translate(153.4443,136.3867)"><path
             d="M 0,0 2.915,0 1.457,5.738 0,0 z m -2.311,-4.266 2.986,10.95 1.557,0 3.029,-10.95 -1.237,0 -0.832,3.157 -3.469,0 -0.797,-3.157 -1.237,0 z"
             style="fill:#606163;fill-opacity:1;fill-rule:nonzero;stroke:none"
             id="path160"
             inkscape:connector-curvature="0" /></g><g
           id="g162"
           transform="translate(115.9648,117.3516)"><path
             d="m 0,0 1.163,0 c 0.866,0 1.474,0.17 1.822,0.51 0.35,0.339 0.524,0.919 0.524,1.74 0,0.827 -0.159,1.4 -0.48,1.721 -0.32,0.32 -0.929,0.48 -1.827,0.48 L 0,4.451 0,0 z m -2.686,-8.396 0,14.931 4.829,0 c 1.473,0 2.533,-0.33 3.179,-0.989 C 5.969,4.887 6.292,3.807 6.292,2.309 6.292,0.834 5.947,-0.264 5.259,-0.983 4.57,-1.705 3.519,-2.064 2.104,-2.064 l -2.027,0 0,-6.332 -2.763,0 z"
             style="fill:#606163;fill-opacity:1;fill-rule:nonzero;stroke:none"
             id="path164"
             inkscape:connector-curvature="0" /></g><g
           id="g166"
           transform="translate(126.6387,116.4219)"><path
             d="m 0,0 c 0,-2.457 0.144,-4.003 0.43,-4.64 0.287,-0.636 0.817,-0.955 1.591,-0.955 0.761,0 1.282,0.312 1.562,0.936 0.28,0.624 0.421,2.177 0.421,4.659 0,2.481 -0.143,4.039 -0.426,4.672 C 3.295,5.306 2.769,5.623 2.002,5.623 1.234,5.623 0.709,5.306 0.425,4.672 0.142,4.039 0,2.481 0,0 m -2.841,0 c 0,1.583 0.074,2.848 0.223,3.795 0.148,0.947 0.381,1.66 0.697,2.138 0.433,0.678 0.949,1.163 1.55,1.454 0.6,0.291 1.392,0.436 2.373,0.436 0.981,0 1.772,-0.145 2.373,-0.436 C 4.975,7.096 5.495,6.611 5.934,5.933 6.25,5.441 6.481,4.725 6.626,3.78 6.771,2.837 6.845,1.576 6.845,0 6.845,-1.571 6.77,-2.83 6.621,-3.777 6.473,-4.724 6.244,-5.443 5.934,-5.934 5.495,-6.613 4.975,-7.098 4.375,-7.389 3.774,-7.68 2.983,-7.824 2.002,-7.824 c -0.981,0 -1.773,0.144 -2.373,0.435 -0.601,0.291 -1.117,0.776 -1.55,1.455 -0.316,0.479 -0.549,1.191 -0.697,2.137 C -2.767,-2.85 -2.841,-1.584 -2.841,0"
             style="fill:#606163;fill-opacity:1;fill-rule:nonzero;stroke:none"
             id="path168"
             inkscape:connector-curvature="0" /></g><g
           id="g170"
           transform="translate(135.7529,108.9561)"><path
             d="m 0,0 0,14.931 2.782,0 0,-12.391 5.022,0 L 7.804,0 0,0 z"
             style="fill:#606163;fill-opacity:1;fill-rule:nonzero;stroke:none"
             id="path172"
             inkscape:connector-curvature="0" /></g><path
           d="m 145.438,123.887 2.782,0 0,-14.931 -2.782,0 0,14.931 z"
           style="fill:#606163;fill-opacity:1;fill-rule:nonzero;stroke:none"
           id="path174"
           inkscape:connector-curvature="0" /><g
           id="g176"
           transform="translate(152.8838,108.9561)"><path
             d="m 0,0 0,12.468 -3.199,0 0,2.463 9.18,0 0,-2.463 -3.199,0 L 2.782,0 0,0 z"
             style="fill:#606163;fill-opacity:1;fill-rule:nonzero;stroke:none"
             id="path178"
             inkscape:connector-curvature="0" /></g><g
           id="g180"
           transform="translate(162.7148,125.1367)"><path
             d="m 0,0 1.687,2.764 2.482,0 L 1.212,0 0,0 z m -2.385,-16.181 0,14.931 7.668,0 0,-2.482 -4.905,0 0,-3.452 4.566,0 0,-2.365 -4.566,0 0,-4.111 5.022,0 0,-2.521 -7.785,0 z"
             style="fill:#606163;fill-opacity:1;fill-rule:nonzero;stroke:none"
             id="path182"
             inkscape:connector-curvature="0" /></g><g
           id="g184"
           transform="translate(176.0928,114.2793)"><path
             d="m 0,0 2.705,0 c 0,-0.065 0.003,-0.16 0.01,-0.287 0.007,-0.125 0.01,-0.225 0.01,-0.295 0,-1.727 -0.364,-3.008 -1.091,-3.844 -0.727,-0.838 -1.841,-1.256 -3.34,-1.256 -0.711,0 -1.322,0.092 -1.832,0.276 -0.511,0.184 -0.95,0.47 -1.318,0.858 -0.505,0.517 -0.861,1.228 -1.068,2.134 -0.206,0.904 -0.309,2.481 -0.309,4.73 0,1.538 0.061,2.762 0.183,3.67 0.123,0.909 0.314,1.585 0.572,2.032 0.401,0.684 0.899,1.18 1.494,1.488 0.594,0.307 1.354,0.46 2.278,0.46 1.513,0 2.613,-0.394 3.301,-1.183 C 2.283,7.994 2.631,6.728 2.638,4.982 l -2.696,0 0,0.36 c 0,0.807 -0.13,1.41 -0.392,1.807 -0.262,0.398 -0.661,0.597 -1.197,0.597 -0.666,0 -1.121,-0.275 -1.363,-0.824 -0.242,-0.55 -0.364,-2.068 -0.364,-4.557 0,-2.689 0.118,-4.324 0.354,-4.906 0.236,-0.582 0.687,-0.872 1.353,-0.872 0.62,0 1.053,0.227 1.299,0.683 C -0.122,-2.273 0,-1.432 0,-0.204 L 0,0 z"
             style="fill:#606163;fill-opacity:1;fill-rule:nonzero;stroke:none"
             id="path186"
             inkscape:connector-curvature="0" /></g><g
           id="g188"
           transform="translate(181.0381,108.9561)"><path
             d="m 0,0 0,14.931 2.859,0 3.888,-10.442 -0.077,10.442 2.627,0 L 9.297,0 6.456,0 2.54,10.461 2.617,0 0,0 z"
             style="fill:#606163;fill-opacity:1;fill-rule:nonzero;stroke:none"
             id="path190"
             inkscape:connector-curvature="0" /></g><path
           d="m 192.876,123.887 2.782,0 0,-14.931 -2.782,0 0,14.931 z"
           style="fill:#606163;fill-opacity:1;fill-rule:nonzero;stroke:none"
           id="path192"
           inkscape:connector-curvature="0" /><g
           id="g194"
           transform="translate(204.1309,114.2793)"><path
             d="m 0,0 2.705,0 c 0,-0.065 0.003,-0.16 0.01,-0.287 0.007,-0.125 0.01,-0.225 0.01,-0.295 0,-1.727 -0.364,-3.008 -1.091,-3.844 -0.727,-0.838 -1.841,-1.256 -3.34,-1.256 -0.711,0 -1.322,0.092 -1.832,0.276 -0.511,0.184 -0.95,0.47 -1.318,0.858 -0.505,0.517 -0.861,1.228 -1.068,2.134 -0.206,0.904 -0.309,2.481 -0.309,4.73 0,1.538 0.061,2.762 0.183,3.67 0.123,0.909 0.314,1.585 0.572,2.032 0.401,0.684 0.899,1.18 1.494,1.488 0.594,0.307 1.354,0.46 2.278,0.46 1.513,0 2.613,-0.394 3.301,-1.183 C 2.283,7.994 2.631,6.728 2.638,4.982 l -2.696,0 0,0.36 c 0,0.807 -0.13,1.41 -0.392,1.807 -0.262,0.398 -0.661,0.597 -1.197,0.597 -0.666,0 -1.121,-0.275 -1.363,-0.824 -0.242,-0.55 -0.364,-2.068 -0.364,-4.557 0,-2.689 0.118,-4.324 0.354,-4.906 0.236,-0.582 0.687,-0.872 1.353,-0.872 0.62,0 1.053,0.227 1.299,0.683 C -0.122,-2.273 0,-1.432 0,-0.204 L 0,0 z"
             style="fill:#606163;fill-opacity:1;fill-rule:nonzero;stroke:none"
             id="path196"
             inkscape:connector-curvature="0" /></g><g
           id="g198"
           transform="translate(211.9746,114.9473)"><path
             d="M 0,0 2.365,0 1.173,6.264 0,0 z m -3.994,-5.991 3.364,14.93 3.733,0 3.393,-14.93 -2.996,0 -0.737,3.752 -3.2,0 -0.716,-3.752 -2.841,0 z"
             style="fill:#606163;fill-opacity:1;fill-rule:nonzero;stroke:none"
             id="path200"
             inkscape:connector-curvature="0" /></g></g></g></g></svg>