<?xml version="1.0" encoding="UTF-8" standalone="no"?>
<!-- Created with Inkscape (http://www.inkscape.org/) -->

<svg
   xmlns:dc="http://purl.org/dc/elements/1.1/"
   xmlns:cc="http://creativecommons.org/ns#"
   xmlns:rdf="http://www.w3.org/1999/02/22-rdf-syntax-ns#"
   xmlns:svg="http://www.w3.org/2000/svg"
   xmlns="http://www.w3.org/2000/svg"
   xmlns:xlink="http://www.w3.org/1999/xlink"
   xmlns:sodipodi="http://sodipodi.sourceforge.net/DTD/sodipodi-0.dtd"
   xmlns:inkscape="http://www.inkscape.org/namespaces/inkscape"
   width="1045.3334"
   height="213.33333"
   viewBox="0 0 980.00001 200"
   id="svg2"
   version="1.1"
   inkscape:version="0.92.1 r15371"
   sodipodi:docname="cabecalho-site-curitiba.svg"
   style="enable-background:new"
   inkscape:export-filename="/home/phls/phls/eventos/flisol/2017/comunicacao-curitiba/cabecalhos-logos/cabecalho-site-curitiba.png"
   inkscape:export-xdpi="95.849998"
   inkscape:export-ydpi="95.849998">
  <defs
     id="defs4">
    <filter
       inkscape:collect="always"
       id="filter14506-80-6-61"
       style="color-interpolation-filters:sRGB">
      <feGaussianBlur
         inkscape:collect="always"
         stdDeviation="0.70957443"
         id="feGaussianBlur14508-15-9-2" />
    </filter>
    <radialGradient
       r="68.636078"
       fy="170.44995"
       fx="339.39481"
       cy="170.44995"
       cx="339.39481"
       gradientUnits="userSpaceOnUse"
       id="radialGradient20235"
       xlink:href="#linearGradient11737"
       inkscape:collect="always"
       gradientTransform="matrix(0.68715852,0,0,0.68715852,599.61371,681.9423)" />
    <linearGradient
       id="linearGradient11737">
      <stop
         style="stop-color:#ffffff;stop-opacity:0;"
         offset="0"
         id="stop11739" />
      <stop
         id="stop11741"
         offset="0.7044031"
         style="stop-color:#0046af;stop-opacity:0;" />
      <stop
         id="stop11743"
         offset="0.86842364"
         style="stop-color:#0044ab;stop-opacity:0.42352942;" />
      <stop
         style="stop-color:#003996;stop-opacity:0.64999998;"
         offset="0.95386213"
         id="stop11745" />
      <stop
         style="stop-color:#002c80;stop-opacity:1;"
         offset="1"
         id="stop11747" />
    </linearGradient>
    <radialGradient
       r="68.136078"
       fy="131.75188"
       fx="360.3381"
       cy="131.75188"
       cx="360.3381"
       gradientTransform="matrix(2.0322283,0,0,2.0322283,-350.33294,-138.65768)"
       gradientUnits="userSpaceOnUse"
       id="radialGradient20237"
       xlink:href="#linearGradient11729"
       inkscape:collect="always" />
    <linearGradient
       id="linearGradient11729">
      <stop
         id="stop11731"
         offset="0"
         style="stop-color:#5bcaff;stop-opacity:1;" />
      <stop
         id="stop11733"
         offset="1"
         style="stop-color:#0071de;stop-opacity:1;" />
    </linearGradient>
    <filter
       height="1.3200001"
       y="-0.16"
       width="1.3200001"
       x="-0.16"
       id="filter4645"
       inkscape:collect="always">
      <feGaussianBlur
         id="feGaussianBlur4647"
         stdDeviation="9.0848104"
         inkscape:collect="always" />
    </filter>
    <filter
       inkscape:collect="always"
       id="filter15293">
      <feGaussianBlur
         inkscape:collect="always"
         stdDeviation="2.6999294"
         id="feGaussianBlur15295" />
    </filter>
    <linearGradient
       y2="138.7977"
       x2="571.87354"
       y1="92.872658"
       x1="530.65643"
       gradientTransform="matrix(-0.63593482,-0.37693419,-0.22248174,0.57997513,1235.4192,915.11076)"
       gradientUnits="userSpaceOnUse"
       id="linearGradient20239"
       xlink:href="#linearGradient5073"
       inkscape:collect="always" />
    <linearGradient
       id="linearGradient5073">
      <stop
         id="stop5075"
         offset="0"
         style="stop-color:#ffffff;stop-opacity:1;" />
      <stop
         id="stop5077"
         offset="1"
         style="stop-color:#ffffff;stop-opacity:0;" />
    </linearGradient>
    <radialGradient
       id="SVGID_7_-6-5"
       cx="41.2771"
       cy="77.994598"
       r="115.1427"
       gradientTransform="matrix(-0.84619544,-0.01152432,-0.01108788,0.8280536,939.39246,860.03256)"
       gradientUnits="userSpaceOnUse">
      <stop
         offset="0"
         style="stop-color:#F9B233"
         id="stop8653-6-0" />
      <stop
         offset="1"
         style="stop-color:#AF1917"
         id="stop8655-1-2" />
    </radialGradient>
    <filter
       inkscape:collect="always"
       style="color-interpolation-filters:sRGB"
       id="filter31850"
       x="-0.084295951"
       width="1.1685919"
       y="-0.11197349"
       height="1.223947">
      <feGaussianBlur
         inkscape:collect="always"
         stdDeviation="8.3413016"
         id="feGaussianBlur31852" />
    </filter>
    <radialGradient
       id="rect5602_1_-1-0"
       cx="39.507702"
       cy="136.8791"
       r="629.53729"
       gradientTransform="matrix(1.3632974,0,0,-0.20235957,428.83696,971.60444)"
       gradientUnits="userSpaceOnUse">
      <stop
         offset="0"
         style="stop-color:#ED6D14"
         id="stop6328-3-0" />
      <stop
         offset="1"
         style="stop-color:#AF1917"
         id="stop6330-0-2" />
    </radialGradient>
    <filter
       inkscape:collect="always"
       style="color-interpolation-filters:sRGB"
       id="filter6301">
      <feBlend
         inkscape:collect="always"
         mode="multiply"
         in2="BackgroundImage"
         id="feBlend6303" />
    </filter>
  </defs>
  <sodipodi:namedview
     id="base"
     pagecolor="#ffffff"
     bordercolor="#666666"
     borderopacity="1.0"
     inkscape:pageopacity="0.0"
     inkscape:pageshadow="2"
     inkscape:zoom="1.4"
     inkscape:cx="820.7584"
     inkscape:cy="38.336901"
     inkscape:document-units="px"
     inkscape:current-layer="layer1"
     showgrid="false"
     units="px"
     inkscape:window-width="1920"
     inkscape:window-height="1021"
     inkscape:window-x="0"
     inkscape:window-y="0"
     inkscape:window-maximized="1" />
  <metadata
     id="metadata7">
    <rdf:RDF>
      <cc:Work
         rdf:about="">
        <dc:format>image/svg+xml</dc:format>
        <dc:type
           rdf:resource="http://purl.org/dc/dcmitype/StillImage" />
        <dc:title></dc:title>
      </cc:Work>
    </rdf:RDF>
  </metadata>
  <g
     inkscape:groupmode="layer"
     id="layer2"
     inkscape:label="BG">
    <rect
       transform="translate(0,-852.36216)"
       id="rect5602-3"
       x="-0.91273612"
       y="851.28516"
       class="st0"
       width="981.04175"
       height="202.12848"
       style="fill:url(#rect5602_1_-1-0)" />
  </g>
  <g
     inkscape:groupmode="layer"
     id="layer3"
     inkscape:label="Sombras"
     style="filter:url(#filter6301)">
    <path
       style="display:inline;fill:#666666;filter:url(#filter31850)"
       id="path31666"
       d="m 778.74314,780.11277 c 0,0 -108.1476,30.20337 -165.0225,81.71961 -51.3945,46.64473 -70.028,97.06488 -70.028,97.06488 l -2.4357,-177.32303 z"
       class="st422"
       inkscape:connector-curvature="0"
       transform="matrix(-0.69488091,0,0,0.70079898,1354.7526,-546.16752)" />
  </g>
  <g
     inkscape:label="Arte"
     inkscape:groupmode="layer"
     id="layer1"
     transform="translate(0,-852.36216)">
    <path
       inkscape:connector-curvature="0"
       class="st422"
       d="m 816.33194,851.67341 c 0,0 72.88422,20.97771 112.40552,57.08023 35.713,32.68858 51.1618,68.5231 51.1618,68.5231 l -0.053,-126.08942 z"
       id="path27117"
       style="fill:url(#SVGID_7_-6-5)"
       sodipodi:nodetypes="ccccc" />
    <g
       id="g27125"
       transform="matrix(0.05276131,0.84463379,-0.88476127,0.05526793,975.84262,850.57266)">
      <g
         id="g27127">
        <path
           id="path27129"
           d="m 26.1,65.8 c 2.2,-2.7 3.3,-4 5.5,-6.6 0.8,0.9 1.3,1.3 2.1,2.2 -3.3,3.7 -4.9,5.7 -8,9.6 -5.6,-5.7 -8.4,-8.5 -14,-14.2 1,-1.3 1.5,-2 2.5,-3.2 4.9,4.9 7.2,7.3 11.9,12.2 z"
           class="st1"
           inkscape:connector-curvature="0"
           style="fill:#ffffff" />
        <path
           id="path27131"
           d="m 37.4,57.5 c -1.1,1.2 -1.6,1.7 -2.7,2.9 -5.5,-5.8 -8.2,-8.8 -13.6,-14.6 1.1,-1.2 1.7,-1.8 2.8,-3 5.4,5.8 8.1,8.8 13.5,14.7 z"
           class="st1"
           inkscape:connector-curvature="0"
           style="fill:#ffffff" />
        <path
           id="path27133"
           d="m 24.6,42.1 c 0.9,-1 1.4,-1.4 2.3,-2.4 0.2,-0.3 0.5,-0.4 0.8,-0.4 0.3,0 0.5,0 0.8,0.1 4.7,2.2 7.1,3.3 11.8,5.6 0.4,0.2 0.8,0.4 1.2,0.6 0.4,0.3 0.9,0.5 1.3,0.8 -0.5,-1 -0.9,-1.8 -1.2,-2.7 -1.7,-5 -2.6,-7.6 -4.2,-12.6 -0.1,-0.2 -0.1,-0.5 0,-0.8 0.1,-0.3 0.2,-0.5 0.5,-0.8 1,-0.9 1.5,-1.3 2.5,-2.1 2.5,8.4 3.8,12.5 6.5,20.9 -1.1,1 -1.6,1.4 -2.6,2.4 -8,-3.6 -11.9,-5.3 -19.7,-8.6 z"
           class="st1"
           inkscape:connector-curvature="0"
           style="fill:#ffffff" />
        <path
           id="path27135"
           d="m 51.8,33.9 c 2,2.4 3,3.6 5,6 -1.2,1 -1.9,1.5 -3.1,2.5 -5.2,-6.1 -7.8,-9.2 -13,-15.3 2.1,-1.7 3.1,-2.5 5.3,-4.2 1.2,-0.9 2.3,-1.6 3.4,-2 1,-0.4 2,-0.6 2.9,-0.6 0.9,0 1.7,0.2 2.4,0.6 0.7,0.4 1.3,0.9 1.9,1.5 0.4,0.5 0.7,1.1 0.9,1.7 0.2,0.6 0.3,1.2 0.3,1.8 0,0.6 -0.2,1.2 -0.4,1.9 -0.3,0.6 -0.6,1.3 -1.1,1.9 0.6,-0.1 1.2,-0.1 1.8,0.1 3.6,1 5.4,1.6 9.1,2.7 -1.2,0.8 -1.8,1.2 -2.9,2 -0.3,0.2 -0.6,0.3 -0.8,0.4 -0.3,0 -0.6,0 -0.8,-0.1 -3.1,-0.9 -4.6,-1.4 -7.7,-2.3 -0.3,-0.1 -0.5,-0.1 -0.8,-0.1 -0.2,0 -0.5,0.2 -0.8,0.4 -0.8,0.4 -1.1,0.6 -1.6,1.1 z m -1.7,-2.1 c 0.8,-0.6 1.2,-0.9 2,-1.5 0.6,-0.5 1.1,-0.9 1.4,-1.4 0.3,-0.5 0.6,-0.9 0.7,-1.4 0.1,-0.5 0.1,-0.9 0,-1.3 -0.1,-0.4 -0.3,-0.8 -0.7,-1.2 -0.6,-0.8 -1.4,-1.2 -2.4,-1.2 -0.9,0 -2,0.5 -3.2,1.4 -0.8,0.6 -1.2,0.9 -2.1,1.6 1.7,2 2.6,3 4.3,5 z"
           class="st1"
           inkscape:connector-curvature="0"
           style="fill:#ffffff" />
        <path
           id="path27137"
           d="m 67.1,9.2 c 0.7,0.9 1.1,1.4 1.8,2.3 -3.4,1.9 -5.1,2.9 -8.4,5 1.4,1.7 2.1,2.6 3.4,4.4 2.6,-1.6 3.9,-2.4 6.5,-3.9 0.7,0.9 1,1.4 1.7,2.3 -2.6,1.5 -3.9,2.3 -6.5,3.9 1.4,1.8 2.1,2.7 3.5,4.4 3.2,-2 4.8,-3 8.2,-4.8 0.7,0.9 1.1,1.4 1.8,2.4 -4.7,2.6 -7,4 -11.5,7 -5,-6.3 -7.5,-9.4 -12.5,-15.6 4.7,-3.3 7.1,-4.7 12,-7.4 z"
           class="st1"
           inkscape:connector-curvature="0"
           style="fill:#ffffff" />
      </g>
    </g>
    <g
       id="g6000"
       transform="matrix(1.1576057,0,0,1.1576057,-82.923326,-131.17352)">
      <g
         id="g6845_1_"
         transform="matrix(0.30142031,0,0,0.30142031,573.72761,1227.635)">
        <g
           id="g6848_1_"
           transform="translate(-1.9999988,247.45081)">
          <g
             id="path6850_1_">
            <g
               id="g24832">
              <path
                 style="fill:#ffffff"
                 inkscape:connector-curvature="0"
                 class="st1"
                 d="m -1004.7,-1162.6 c -6.2,0 -11.2,-5 -11.2,-11.2 V -1297 c 0,-24.9 20.3,-45.2 45.2,-45.2 h 21.3 c 6.2,0 11.2,5 11.2,11.2 0,6.2 -5,11.2 -11.2,11.2 h -21.3 c -12.6,0 -22.8,10.2 -22.8,22.8 v 123.2 c 0,6.2 -5,11.2 -11.2,11.2 z"
                 id="path24834" />
            </g>
          </g>
          <g
             id="path6852_1_">
            <g
               id="g24837">
              <path
                 style="fill:#ffffff"
                 inkscape:connector-curvature="0"
                 class="st1"
                 d="m -957.4,-1245.5 h -58.9 c -6.2,0 -11.2,-5 -11.2,-11.2 0,-6.2 5,-11.2 11.2,-11.2 h 58.9 c 6.2,0 11.2,5 11.2,11.2 0,6.2 -5,11.2 -11.2,11.2 z"
                 id="path24839" />
            </g>
          </g>
        </g>
        <g
           id="path6854_1_">
          <g
             id="g24842">
            <path
               style="fill:#ffffff"
               inkscape:connector-curvature="0"
               class="st1"
               d="m -837.3,-915.2 c -6.2,0 -11.2,-5 -11.2,-11.2 v -157.8 c 0,-6.2 5,-11.2 11.2,-11.2 6.2,0 11.2,5 11.2,11.2 v 157.8 c 0,6.2 -5.1,11.2 -11.2,11.2 z"
               id="path24844" />
          </g>
        </g>
        <g
           id="path6856_1_">
          <g
             id="g24847">
            <path
               style="fill:#ffffff"
               inkscape:connector-curvature="0"
               class="st1"
               d="m -758.9,-915.2 h -37.5 c -6.2,0 -11.2,-5 -11.2,-11.2 0,-6.2 5,-11.2 11.2,-11.2 h 37.5 c 13.5,0 24.5,-10.9 24.5,-24.3 v -7.1 c 0,-6.6 -2.5,-12.7 -7.2,-17.3 -4.6,-4.5 -10.6,-7 -17.1,-7 -0.2,0 -0.4,0 -0.6,0 -1,0.2 -2.2,0.3 -3.5,0.4 -1.3,0 -3.3,0 -6.3,0.1 -25.9,0 -47,-21 -47,-46.7 v -7.1 c 0,-25.8 21,-46.7 46.9,-46.7 h 37.5 c 6.2,0 11.2,5 11.2,11.2 0,6.2 -5,11.2 -11.2,11.2 h -37.5 c -13.5,0 -24.5,10.9 -24.5,24.3 v 7.1 c 0,13.4 11,24.3 24.5,24.3 0.1,0 0.3,0 0.4,0 1,-0.2 2.2,-0.3 3.5,-0.4 1.3,0 3.3,0 6.3,-0.1 0.1,0 0.2,0 0.3,0 12.4,0 24.1,4.8 32.9,13.6 8.9,8.8 13.8,20.6 13.8,33.2 v 7.1 c 0,25.6 -21,46.6 -46.9,46.6 z"
               id="path24849" />
          </g>
        </g>
        <g
           id="rect6858_1_">
          <g
             id="g24852">
            <path
               style="fill:#ffffff"
               inkscape:connector-curvature="0"
               class="st1"
               d="m -640.2,-915.2 h -31.4 c -18.4,0 -33.4,-15 -33.4,-33.4 v -66.6 c 0,-18.4 15,-33.4 33.4,-33.4 h 31.4 c 18.4,0 33.4,15 33.4,33.4 v 66.6 c 0,18.5 -15,33.4 -33.4,33.4 z m -31.4,-110.9 c -6,0 -11,4.9 -11,11 v 66.6 c 0,6 4.9,11 11,11 h 31.4 c 6,0 11,-4.9 11,-11 v -66.6 c 0,-6 -4.9,-11 -11,-11 z"
               id="path24854" />
          </g>
        </g>
        <g
           id="path6860_1_">
          <g
             id="g24857">
            <path
               style="fill:#ffffff"
               inkscape:connector-curvature="0"
               class="st1"
               d="M -866.8,-915.2 H -888 c -24.9,0 -45.2,-20.3 -45.2,-45.2 v -123.2 c 0,-6.2 5,-11.2 11.2,-11.2 6.2,0 11.2,5 11.2,11.2 v 123.2 c 0,12.6 10.2,22.8 22.8,22.8 h 21.3 c 6.2,0 11.2,5 11.2,11.2 0,6.2 -5.1,11.2 -11.3,11.2 z"
               id="path24859" />
          </g>
        </g>
        <g
           id="path6862_1_">
          <g
             id="g24862">
            <path
               style="fill:#ffffff"
               inkscape:connector-curvature="0"
               class="st1"
               d="M -531.7,-915.2 H -553 c -24.9,0 -45.2,-20.3 -45.2,-45.2 v -123.2 c 0,-6.2 5,-11.2 11.2,-11.2 6.2,0 11.2,5 11.2,11.2 v 123.2 c 0,12.6 10.2,22.8 22.8,22.8 h 21.3 c 6.2,0 11.2,5 11.2,11.2 0,6.2 -5,11.2 -11.2,11.2 z"
               id="path24864" />
          </g>
        </g>
      </g>
      <g
         id="g6864_1_"
         transform="matrix(0.31857772,0,0,0.31857772,556.62966,1394.8471)">
        <g
           id="path6866_1_">
          <g
             id="g24868">
            <path
               style="fill:#ffffff"
               inkscape:connector-curvature="0"
               sodipodi:nodetypes="cccccccccccccccccccc"
               class="st1"
               d="m -294.1,-1453.3 77.8,77.3 45.6,-42.1 -38.1,-36.1 -25.4,24.8 17.8,17 21.6,-16.4 1.9,1.9 -18.4,19.1 c -2.8,2.8 -5.8,3.7 -9.3,0.6 l -18.5,-17.8 c -2.2,-2.8 -2.7,-5.5 -0.9,-8.1 0,0 11.2,-14.9 26.5,-28.3 4.8,-3.5 8.9,-2.6 12.7,0.9 l 40.6,35.4 c 3.7,4.3 2.9,9.7 -1,13.7 l -46.7,49.8 c -4.4,5.1 -14.7,4.8 -19.1,-0.2 l -81.4,-77.9 z"
               id="path24870" />
          </g>
        </g>
        <g
           id="path6868_1_">
          <g
             id="g24873">
            <path
               style="fill:#ffffff"
               inkscape:connector-curvature="0"
               sodipodi:nodetypes="cccccccccccccccccccc"
               class="st1"
               d="m -336.4,-1498.7 -77.8,-77.3 -45.6,42.1 38.1,36.1 25.4,-24.8 -17.8,-17 -21.6,16.4 -1.9,-1.9 18.4,-19.1 c 2.8,-2.8 5.8,-3.7 9.3,-0.6 l 18.5,17.8 c 2.2,2.8 2.7,5.5 0.9,8.1 0,0 -11.2,14.9 -26.5,28.3 -4.8,3.5 -8.9,2.6 -12.7,-0.9 l -40.6,-35.4 c -3.7,-4.3 -2.9,-9.7 1,-13.7 l 46.7,-49.8 c 4.4,-5.1 14.7,-4.8 19.1,0.2 l 81.4,77.9 z"
               id="path24875" />
          </g>
        </g>
        <g
           id="path6870_1_">
          <g
             id="g24878">
            <path
               style="fill:#ffffff"
               inkscape:connector-curvature="0"
               sodipodi:nodetypes="cccccccccccccccccccc"
               class="st1"
               d="m -292.6,-1497.2 77.3,-77.8 -42.1,-45.6 -36.1,38.1 24.8,25.4 17,-17.8 -16.4,-21.6 1.9,-1.9 19.1,18.4 c 2.8,2.8 3.7,5.8 0.6,9.3 l -17.8,18.5 c -2.8,2.2 -5.5,2.7 -8.1,0.9 0,0 -14.9,-11.2 -28.3,-26.5 -3.5,-4.8 -2.6,-8.9 0.9,-12.7 l 35.4,-40.6 c 4.3,-3.7 9.7,-2.9 13.7,1 l 49.8,46.7 c 5.1,4.4 4.8,14.7 -0.2,19.1 l -77.9,81.4 z"
               id="path24880" />
          </g>
        </g>
        <g
           id="path6872_1_">
          <g
             id="g24883">
            <path
               style="fill:#ffffff"
               inkscape:connector-curvature="0"
               sodipodi:nodetypes="cccccccccccccccccccc"
               class="st1"
               d="m -337.9,-1454.8 -77.3,77.8 42.1,45.6 36.1,-38.1 -24.8,-25.4 -17,17.8 16.4,21.6 -1.9,1.9 -19.1,-18.4 c -2.8,-2.8 -3.7,-5.8 -0.6,-9.3 l 17.8,-18.5 c 2.8,-2.2 5.5,-2.7 8.1,-0.9 0,0 14.9,11.2 28.3,26.5 3.5,4.8 2.6,8.9 -0.9,12.7 l -35.3,40.5 c -4.3,3.7 -9.7,2.9 -13.7,-1 l -49.8,-46.7 c -5.1,-4.4 -4.8,-14.7 0.2,-19.1 l 77.9,-81.4 z"
               id="path24885" />
          </g>
        </g>
        <g
           id="g6874_1_"
           transform="matrix(1.0923337,0.25861982,-0.25861982,1.0923337,160.90403,65.72318)">
          <g
             id="path6876_1_">
            <g
               id="g24889">
              <path
                 style="fill:#ffffff"
                 inkscape:connector-curvature="0"
                 sodipodi:nodetypes="ccsccc"
                 class="st1"
                 d="m -716.2,-1184.4 22.9,68.7 c 0,0 16.2,-7.5 17.1,2.7 0.9,10.2 -22.4,9 -22.4,9 l -21.9,-79.9 z"
                 id="path24891" />
            </g>
          </g>
          <g
             id="ellipse6878_1_">
            <g
               id="g24894">
              <ellipse
                 style="fill:#ffffff"
                 transform="matrix(-0.2049,0.9788,-0.9788,-0.2049,-1969.4539,-714.7151)"
                 class="st1"
                 cx="-694.40002"
                 cy="-1157.3"
                 rx="7.1999998"
                 ry="10.5"
                 id="ellipse24896" />
            </g>
          </g>
          <g
             id="ellipse6880_1_">
            <g
               id="g24899">
              <ellipse
                 style="fill:#ffffff"
                 transform="matrix(-0.2049,0.9788,-0.9788,-0.2049,-1938.2141,-705.644)"
                 class="st1"
                 cx="-682.5"
                 cy="-1140.1"
                 rx="7.1999998"
                 ry="10.5"
                 id="ellipse24901" />
            </g>
          </g>
          <g
             id="path6882_1_">
            <g
               id="g24904">
              <path
                 style="fill:#ffffff"
                 inkscape:connector-curvature="0"
                 sodipodi:nodetypes="ccsccc"
                 class="st1"
                 d="m -742.2,-1293.1 -22.9,-68.7 c 0,0 -16.2,7.5 -17.1,-2.7 -0.9,-10.2 22.4,-9 22.4,-9 l 21.9,79.9 z"
                 id="path24906" />
            </g>
          </g>
          <g
             id="ellipse6884_1_">
            <g
               id="g24909">
              <ellipse
                 style="fill:#ffffff"
                 transform="matrix(-0.2049,0.9788,-0.9788,-0.2049,-2212.728,-842.939)"
                 class="st1"
                 cx="-764"
                 cy="-1320.2"
                 rx="7.1999998"
                 ry="10.5"
                 id="ellipse24911" />
            </g>
          </g>
          <g
             id="ellipse6886_1_">
            <g
               id="g24914">
              <ellipse
                 style="fill:#ffffff"
                 transform="matrix(-0.2049,0.9788,-0.9788,-0.2049,-2243.9678,-852.0101)"
                 class="st1"
                 cx="-775.90002"
                 cy="-1337.5"
                 rx="7.1999998"
                 ry="10.5"
                 id="ellipse24916" />
            </g>
          </g>
          <g
             id="path6888_1_">
            <g
               id="g24919">
              <path
                 style="fill:#ffffff"
                 inkscape:connector-curvature="0"
                 sodipodi:nodetypes="ccsccc"
                 class="st1"
                 d="m -674.9,-1251.8 68.7,-22.9 c 0,0 -7.5,-16.2 2.7,-17.1 10.2,-0.8 9,22.4 9,22.4 l -79.9,21.9 z"
                 id="path24921" />
            </g>
          </g>
          <g
             id="ellipse6890_1_">
            <g
               id="g24924">
              <ellipse
                 style="fill:#ffffff"
                 transform="matrix(-0.2049,0.9788,-0.9788,-0.2049,-2026.9791,-900.4641)"
                 class="st1"
                 cx="-647.70001"
                 cy="-1273.6"
                 rx="10.5"
                 ry="7.1999998"
                 id="ellipse24926" />
            </g>
          </g>
          <g
             id="ellipse6892_1_">
            <g
               id="g24929">
              <ellipse
                 style="fill:#ffffff"
                 transform="matrix(-0.2049,0.9788,-0.9788,-0.2049,-2017.908,-931.7039)"
                 class="st1"
                 cx="-630.5"
                 cy="-1285.5"
                 rx="10.5"
                 ry="7.1999998"
                 id="ellipse24931" />
            </g>
          </g>
          <g
             id="path6894_1_">
            <g
               id="g24934">
              <path
                 style="fill:#ffffff"
                 inkscape:connector-curvature="0"
                 sodipodi:nodetypes="ccsccc"
                 class="st1"
                 d="m -783.5,-1225.8 -68.7,22.9 c 0,0 7.5,16.2 -2.7,17.1 -10.2,0.9 -9,-22.4 -9,-22.4 l 79.9,-21.9 z"
                 id="path24936" />
            </g>
          </g>
          <g
             id="ellipse6896_1_">
            <g
               id="g24939">
              <ellipse
                 style="fill:#ffffff"
                 transform="matrix(-0.2049,0.9788,-0.9788,-0.2049,-2155.2029,-657.1899)"
                 class="st1"
                 cx="-810.70001"
                 cy="-1204"
                 rx="10.5"
                 ry="7.1999998"
                 id="ellipse24941" />
            </g>
          </g>
          <g
             id="ellipse6898_1_">
            <g
               id="g24944">
              <ellipse
                 style="fill:#ffffff"
                 transform="matrix(-0.2049,0.9788,-0.9788,-0.2049,-2164.2742,-625.9502)"
                 class="st1"
                 cx="-827.90002"
                 cy="-1192.1"
                 rx="10.5"
                 ry="7.1999998"
                 id="ellipse24946" />
            </g>
          </g>
        </g>
      </g>
      <g
         transform="matrix(0.79901111,0,0,0.79901111,218.04701,815.05418)"
         style="enable-background:new"
         class="st421"
         id="g26872">
        <g
           id="g26874">
          <path
             style="fill:#ffffff"
             inkscape:connector-curvature="0"
             class="st1"
             d="m 60.7,187.9 v -10.2 h 6.9 v 1.2 H 62 v 3.2 h 4.8 v 1.2 H 62 v 4.7 h -1.3 z"
             id="path26876" />
        </g>
        <g
           id="g26878">
          <path
             style="fill:#ffffff"
             inkscape:connector-curvature="0"
             class="st1"
             d="m 74.3,185.6 1.3,0.2 c -0.2,0.8 -0.6,1.3 -1.1,1.8 -0.6,0.4 -1.3,0.6 -2.1,0.6 -1.1,0 -1.9,-0.3 -2.6,-1 -0.6,-0.7 -1,-1.6 -1,-2.8 0,-1.2 0.3,-2.2 1,-2.9 0.6,-0.7 1.5,-1 2.5,-1 1,0 1.8,0.3 2.4,1 0.6,0.7 0.9,1.6 0.9,2.8 0,0.1 0,0.2 0,0.3 h -5.5 c 0,0.8 0.3,1.4 0.7,1.9 0.4,0.4 0.9,0.6 1.6,0.6 0.5,0 0.9,-0.1 1.2,-0.4 0.3,-0.2 0.5,-0.6 0.7,-1.1 z m -4.1,-2.1 h 4.1 c -0.1,-0.6 -0.2,-1.1 -0.5,-1.4 -0.4,-0.5 -0.9,-0.7 -1.6,-0.7 -0.6,0 -1.1,0.2 -1.5,0.6 -0.3,0.4 -0.5,0.9 -0.5,1.5 z"
             id="path26880" />
        </g>
        <g
           id="g26882">
          <path
             style="fill:#ffffff"
             inkscape:connector-curvature="0"
             class="st1"
             d="m 76.7,185.7 1.2,-0.2 c 0.1,0.5 0.3,0.9 0.6,1.1 0.3,0.3 0.8,0.4 1.3,0.4 0.6,0 1,-0.1 1.3,-0.4 0.3,-0.2 0.4,-0.5 0.4,-0.8 0,-0.3 -0.1,-0.5 -0.4,-0.7 -0.2,-0.1 -0.6,-0.3 -1.3,-0.4 -0.9,-0.2 -1.6,-0.4 -1.9,-0.6 -0.4,-0.2 -0.6,-0.4 -0.8,-0.7 -0.2,-0.3 -0.3,-0.6 -0.3,-1 0,-0.3 0.1,-0.6 0.2,-0.9 0.2,-0.3 0.4,-0.5 0.6,-0.7 0.2,-0.1 0.5,-0.3 0.8,-0.4 0.3,-0.1 0.7,-0.2 1.1,-0.2 0.6,0 1.1,0.1 1.5,0.3 0.4,0.2 0.8,0.4 1,0.7 0.2,0.3 0.4,0.7 0.4,1.1 l -1.2,0.2 c -0.1,-0.4 -0.2,-0.7 -0.5,-0.9 -0.3,-0.2 -0.6,-0.3 -1.1,-0.3 -0.6,0 -1,0.1 -1.2,0.3 -0.2,0.2 -0.4,0.4 -0.4,0.7 0,0.2 0.1,0.3 0.2,0.4 0.1,0.1 0.3,0.2 0.5,0.3 0.1,0 0.5,0.2 1.1,0.3 0.9,0.2 1.5,0.4 1.9,0.6 0.4,0.2 0.6,0.4 0.8,0.7 0.2,0.3 0.3,0.6 0.3,1.1 0,0.4 -0.1,0.8 -0.4,1.2 -0.2,0.4 -0.6,0.7 -1.1,0.9 -0.5,0.2 -1,0.3 -1.6,0.3 -1,0 -1.7,-0.2 -2.2,-0.6 -0.5,-0.4 -0.7,-1 -0.8,-1.8 z"
             id="path26884" />
        </g>
        <g
           id="g26886">
          <path
             style="fill:#ffffff"
             inkscape:connector-curvature="0"
             class="st1"
             d="m 87.1,186.8 0.2,1.1 c -0.4,0.1 -0.7,0.1 -0.9,0.1 -0.5,0 -0.8,-0.1 -1.1,-0.2 -0.3,-0.1 -0.4,-0.3 -0.5,-0.6 -0.1,-0.2 -0.2,-0.7 -0.2,-1.5 v -4.3 h -0.9 v -1 h 0.9 v -1.8 l 1.2,-0.8 v 2.6 h 1.3 v 1 h -1.3 v 4.3 c 0,0.4 0,0.6 0.1,0.7 0,0.1 0.1,0.2 0.2,0.2 0.1,0.1 0.2,0.1 0.4,0.1 0.2,0.2 0.3,0.2 0.6,0.1 z"
             id="path26888" />
        </g>
        <g
           id="g26890">
          <path
             style="fill:#ffffff"
             inkscape:connector-curvature="0"
             class="st1"
             d="m 88.3,179.2 v -1.4 h 1.3 v 1.4 z m 0,8.7 v -7.4 h 1.3 v 7.4 z"
             id="path26892" />
        </g>
        <g
           id="g26894">
          <path
             style="fill:#ffffff"
             inkscape:connector-curvature="0"
             class="st1"
             d="m 93.5,187.9 -2.8,-7.4 H 92 l 1.6,4.4 c 0.2,0.5 0.3,1 0.5,1.5 0.1,-0.4 0.3,-0.9 0.5,-1.4 l 1.6,-4.5 h 1.3 l -2.8,7.4 z"
             id="path26896" />
        </g>
        <g
           id="g26898">
          <path
             style="fill:#ffffff"
             inkscape:connector-curvature="0"
             class="st1"
             d="m 103.5,187 c -0.5,0.4 -0.9,0.7 -1.3,0.8 -0.4,0.2 -0.9,0.2 -1.4,0.2 -0.8,0 -1.4,-0.2 -1.9,-0.6 -0.4,-0.4 -0.7,-0.9 -0.7,-1.5 0,-0.4 0.1,-0.7 0.2,-1 0.2,-0.3 0.4,-0.5 0.6,-0.7 0.3,-0.2 0.6,-0.3 0.9,-0.4 0.2,-0.1 0.6,-0.1 1.1,-0.2 1,-0.1 1.8,-0.3 2.2,-0.4 0,-0.2 0,-0.3 0,-0.3 0,-0.5 -0.1,-0.9 -0.4,-1.1 -0.3,-0.3 -0.8,-0.4 -1.4,-0.4 -0.6,0 -1,0.1 -1.3,0.3 -0.3,0.2 -0.5,0.6 -0.6,1.1 l -1.2,-0.2 c 0.1,-0.5 0.3,-1 0.6,-1.3 0.3,-0.3 0.6,-0.6 1.1,-0.7 0.5,-0.2 1,-0.3 1.7,-0.3 0.6,0 1.1,0.1 1.5,0.2 0.4,0.1 0.7,0.3 0.9,0.6 0.2,0.3 0.3,0.5 0.4,0.9 0,0.2 0.1,0.6 0.1,1.2 v 1.7 c 0,1.2 0,1.9 0.1,2.2 0.1,0.3 0.2,0.6 0.3,0.9 h -1.3 c -0.1,-0.3 -0.2,-0.6 -0.2,-1 z m -0.1,-2.8 c -0.5,0.2 -1.1,0.3 -2.1,0.5 -0.5,0.1 -0.9,0.2 -1.1,0.3 -0.2,0.1 -0.4,0.2 -0.5,0.4 -0.1,0.2 -0.2,0.4 -0.2,0.6 0,0.3 0.1,0.6 0.4,0.8 0.3,0.2 0.6,0.3 1.1,0.3 0.5,0 0.9,-0.1 1.3,-0.3 0.4,-0.2 0.7,-0.5 0.8,-0.9 0.1,-0.3 0.2,-0.7 0.2,-1.3 v -0.4 z"
             id="path26900" />
        </g>
        <g
           id="g26902">
          <path
             style="fill:#ffffff"
             inkscape:connector-curvature="0"
             class="st1"
             d="m 106.6,187.9 v -10.2 h 1.3 v 10.2 z"
             id="path26904" />
        </g>
        <g
           id="g26906">
          <path
             style="fill:#ffffff"
             inkscape:connector-curvature="0"
             class="st1"
             d="m 113.8,187.9 v -10.2 h 1.4 v 9 h 5 v 1.2 z"
             id="path26908" />
        </g>
        <g
           id="g26910">
          <path
             style="fill:#ffffff"
             inkscape:connector-curvature="0"
             class="st1"
             d="m 126.5,187 c -0.5,0.4 -0.9,0.7 -1.3,0.8 -0.4,0.2 -0.9,0.2 -1.4,0.2 -0.8,0 -1.4,-0.2 -1.9,-0.6 -0.4,-0.4 -0.7,-0.9 -0.7,-1.5 0,-0.4 0.1,-0.7 0.2,-1 0.2,-0.3 0.4,-0.5 0.6,-0.7 0.3,-0.2 0.6,-0.3 0.9,-0.4 0.2,-0.1 0.6,-0.1 1.1,-0.2 1,-0.1 1.8,-0.3 2.2,-0.4 0,-0.2 0,-0.3 0,-0.3 0,-0.5 -0.1,-0.9 -0.4,-1.1 -0.3,-0.3 -0.8,-0.4 -1.4,-0.4 -0.6,0 -1,0.1 -1.3,0.3 -0.3,0.2 -0.5,0.6 -0.6,1.1 l -1.2,-0.2 c 0.1,-0.5 0.3,-1 0.6,-1.3 0.3,-0.3 0.6,-0.6 1.1,-0.7 0.5,-0.2 1,-0.3 1.7,-0.3 0.6,0 1.1,0.1 1.5,0.2 0.4,0.1 0.7,0.3 0.9,0.6 0.2,0.3 0.3,0.5 0.4,0.9 0,0.2 0.1,0.6 0.1,1.2 v 1.7 c 0,1.2 0,1.9 0.1,2.2 0.1,0.3 0.2,0.6 0.3,0.9 h -1.3 c -0.1,-0.3 -0.1,-0.6 -0.2,-1 z m -0.1,-2.8 c -0.5,0.2 -1.1,0.3 -2.1,0.5 -0.5,0.1 -0.9,0.2 -1.1,0.3 -0.2,0.1 -0.4,0.2 -0.5,0.4 -0.1,0.2 -0.2,0.4 -0.2,0.6 0,0.3 0.1,0.6 0.4,0.8 0.3,0.2 0.6,0.3 1.1,0.3 0.5,0 0.9,-0.1 1.3,-0.3 0.4,-0.2 0.7,-0.5 0.8,-0.9 0.1,-0.3 0.2,-0.7 0.2,-1.3 v -0.4 z"
             id="path26912" />
        </g>
        <g
           id="g26914">
          <path
             style="fill:#ffffff"
             inkscape:connector-curvature="0"
             class="st1"
             d="m 132.4,186.8 0.2,1.1 c -0.4,0.1 -0.7,0.1 -0.9,0.1 -0.5,0 -0.8,-0.1 -1.1,-0.2 -0.3,-0.1 -0.4,-0.3 -0.5,-0.6 -0.1,-0.2 -0.2,-0.7 -0.2,-1.5 v -4.3 H 129 v -1 h 0.9 v -1.8 l 1.2,-0.8 v 2.6 h 1.3 v 1 h -1.3 v 4.3 c 0,0.4 0,0.6 0.1,0.7 0,0.1 0.1,0.2 0.2,0.2 0.1,0.1 0.2,0.1 0.4,0.1 0.2,0.2 0.4,0.2 0.6,0.1 z"
             id="path26916" />
        </g>
        <g
           id="g26918">
          <path
             style="fill:#ffffff"
             inkscape:connector-curvature="0"
             class="st1"
             d="m 133.6,179.2 v -1.4 h 1.3 v 1.4 z m 0,8.7 v -7.4 h 1.3 v 7.4 z"
             id="path26920" />
        </g>
        <g
           id="g26922">
          <path
             style="fill:#ffffff"
             inkscape:connector-curvature="0"
             class="st1"
             d="m 136.8,187.9 v -7.4 h 1.1 v 1.1 c 0.5,-0.8 1.3,-1.2 2.4,-1.2 0.4,0 0.9,0.1 1.2,0.2 0.4,0.2 0.7,0.4 0.8,0.6 0.2,0.3 0.3,0.6 0.4,0.9 0,0.2 0.1,0.6 0.1,1.2 v 4.6 h -1.3 v -4.5 c 0,-0.5 0,-0.9 -0.1,-1.1 -0.1,-0.2 -0.3,-0.5 -0.5,-0.6 -0.2,-0.2 -0.5,-0.2 -0.9,-0.2 -0.5,0 -1,0.2 -1.4,0.5 -0.4,0.3 -0.6,1 -0.6,1.9 v 4.1 h -1.2 z"
             id="path26924" />
        </g>
        <g
           id="g26926">
          <path
             style="fill:#ffffff"
             inkscape:connector-curvature="0"
             class="st1"
             d="m 144.3,184.2 c 0,-1.4 0.4,-2.4 1.1,-3.1 0.6,-0.5 1.4,-0.8 2.3,-0.8 1,0 1.9,0.3 2.5,1 0.6,0.7 1,1.6 1,2.8 0,1 -0.1,1.7 -0.4,2.3 -0.3,0.5 -0.7,1 -1.2,1.3 -0.5,0.3 -1.1,0.5 -1.8,0.5 -1,0 -1.9,-0.3 -2.5,-1 -0.7,-0.8 -1,-1.7 -1,-3 z m 1.3,0 c 0,0.9 0.2,1.7 0.6,2.1 0.4,0.5 0.9,0.7 1.6,0.7 0.6,0 1.1,-0.2 1.6,-0.7 0.4,-0.5 0.6,-1.2 0.6,-2.2 0,-0.9 -0.2,-1.6 -0.6,-2.1 -0.4,-0.5 -0.9,-0.7 -1.6,-0.7 -0.6,0 -1.1,0.2 -1.6,0.7 -0.4,0.6 -0.6,1.3 -0.6,2.2 z"
             id="path26928" />
        </g>
        <g
           id="g26930">
          <path
             style="fill:#ffffff"
             inkscape:connector-curvature="0"
             class="st1"
             d="m 152.2,184.9 v -1.3 h 3.9 v 1.3 z"
             id="path26932" />
        </g>
        <g
           id="g26934">
          <path
             style="fill:#ffffff"
             inkscape:connector-curvature="0"
             class="st1"
             d="m 162.3,187 c -0.5,0.4 -0.9,0.7 -1.3,0.8 -0.4,0.2 -0.9,0.2 -1.4,0.2 -0.8,0 -1.4,-0.2 -1.9,-0.6 -0.4,-0.4 -0.7,-0.9 -0.7,-1.5 0,-0.4 0.1,-0.7 0.2,-1 0.2,-0.3 0.4,-0.5 0.6,-0.7 0.3,-0.2 0.6,-0.3 0.9,-0.4 0.2,-0.1 0.6,-0.1 1.1,-0.2 1,-0.1 1.8,-0.3 2.2,-0.4 0,-0.2 0,-0.3 0,-0.3 0,-0.5 -0.1,-0.9 -0.4,-1.1 -0.3,-0.3 -0.8,-0.4 -1.4,-0.4 -0.6,0 -1,0.1 -1.3,0.3 -0.3,0.2 -0.5,0.6 -0.6,1.1 l -1.2,-0.2 c 0.1,-0.5 0.3,-1 0.6,-1.3 0.3,-0.3 0.6,-0.6 1.1,-0.7 0.5,-0.2 1,-0.3 1.7,-0.3 0.6,0 1.1,0.1 1.5,0.2 0.4,0.1 0.7,0.3 0.9,0.6 0.2,0.2 0.3,0.5 0.4,0.9 0,0.2 0.1,0.6 0.1,1.2 v 1.7 c 0,1.2 0,1.9 0.1,2.2 0.1,0.3 0.2,0.6 0.3,0.9 h -1.3 c -0.1,-0.3 -0.2,-0.6 -0.2,-1 z m -0.1,-2.8 c -0.5,0.2 -1.1,0.3 -2.1,0.5 -0.5,0.1 -0.9,0.2 -1.1,0.3 -0.2,0.1 -0.4,0.2 -0.5,0.4 -0.1,0.2 -0.2,0.4 -0.2,0.6 0,0.3 0.1,0.6 0.4,0.8 0.3,0.2 0.6,0.3 1.1,0.3 0.5,0 0.9,-0.1 1.3,-0.3 0.4,-0.2 0.7,-0.5 0.8,-0.9 0.1,-0.3 0.2,-0.7 0.2,-1.3 v -0.4 z"
             id="path26936" />
        </g>
        <g
           id="g26938">
          <path
             style="fill:#ffffff"
             inkscape:connector-curvature="0"
             class="st1"
             d="m 165.4,187.9 v -7.4 h 1.1 v 1 c 0.2,-0.4 0.5,-0.7 0.9,-0.9 0.4,-0.2 0.8,-0.3 1.3,-0.3 0.5,0 1,0.1 1.4,0.3 0.4,0.2 0.6,0.5 0.7,1 0.6,-0.9 1.4,-1.3 2.3,-1.3 0.7,0 1.3,0.2 1.7,0.6 0.4,0.4 0.6,1 0.6,1.9 v 5.1 h -1.2 v -4.7 c 0,-0.5 0,-0.9 -0.1,-1.1 -0.1,-0.2 -0.2,-0.4 -0.4,-0.5 -0.2,-0.1 -0.5,-0.2 -0.8,-0.2 -0.5,0 -1,0.2 -1.3,0.5 -0.3,0.3 -0.5,0.9 -0.5,1.7 v 4.3 h -1.3 v -4.8 c 0,-0.6 -0.1,-1 -0.3,-1.3 -0.2,-0.3 -0.5,-0.4 -1,-0.4 -0.4,0 -0.7,0.1 -1,0.3 -0.3,0.2 -0.5,0.5 -0.7,0.8 -0.1,0.4 -0.2,0.9 -0.2,1.6 v 3.8 z"
             id="path26940" />
        </g>
        <g
           id="g26942">
          <path
             style="fill:#ffffff"
             inkscape:connector-curvature="0"
             class="st1"
             d="m 182.4,185.6 1.3,0.2 c -0.2,0.8 -0.6,1.3 -1.1,1.8 -0.6,0.4 -1.3,0.6 -2.1,0.6 -1.1,0 -1.9,-0.3 -2.6,-1 -0.6,-0.7 -1,-1.6 -1,-2.8 0,-1.2 0.3,-2.2 1,-2.9 0.6,-0.7 1.5,-1 2.5,-1 1,0 1.8,0.3 2.4,1 0.6,0.7 0.9,1.6 0.9,2.8 0,0.1 0,0.2 0,0.3 h -5.5 c 0,0.8 0.3,1.4 0.7,1.9 0.4,0.4 0.9,0.6 1.6,0.6 0.5,0 0.9,-0.1 1.2,-0.4 0.2,-0.2 0.5,-0.6 0.7,-1.1 z m -4.1,-2.1 h 4.1 c -0.1,-0.6 -0.2,-1.1 -0.5,-1.4 -0.4,-0.5 -0.9,-0.7 -1.6,-0.7 -0.6,0 -1.1,0.2 -1.5,0.6 -0.3,0.4 -0.5,0.9 -0.5,1.5 z"
             id="path26944" />
        </g>
        <g
           id="g26946">
          <path
             style="fill:#ffffff"
             inkscape:connector-curvature="0"
             class="st1"
             d="m 185.3,187.9 v -7.4 h 1.1 v 1.1 c 0.3,-0.5 0.6,-0.9 0.8,-1 0.2,-0.2 0.5,-0.3 0.8,-0.3 0.4,0 0.9,0.1 1.3,0.4 l -0.4,1.2 c -0.3,-0.2 -0.6,-0.3 -0.9,-0.3 -0.3,0 -0.5,0.1 -0.7,0.2 -0.2,0.2 -0.4,0.4 -0.5,0.7 -0.1,0.4 -0.2,0.9 -0.2,1.5 v 3.9 z"
             id="path26948" />
        </g>
        <g
           id="g26950">
          <path
             style="fill:#ffffff"
             inkscape:connector-curvature="0"
             class="st1"
             d="m 190,179.2 v -1.4 h 1.3 v 1.4 z m 0,8.7 v -7.4 h 1.3 v 7.4 z"
             id="path26952" />
        </g>
        <g
           id="g26954">
          <path
             style="fill:#ffffff"
             inkscape:connector-curvature="0"
             class="st1"
             d="m 198.1,185.2 1.2,0.2 c -0.1,0.9 -0.5,1.5 -1,2 -0.6,0.5 -1.2,0.7 -2,0.7 -1,0 -1.8,-0.3 -2.4,-1 -0.6,-0.7 -0.9,-1.6 -0.9,-2.9 0,-0.8 0.1,-1.5 0.4,-2.1 0.3,-0.6 0.7,-1.1 1.2,-1.4 0.5,-0.3 1.1,-0.5 1.8,-0.5 0.8,0 1.5,0.2 2,0.6 0.5,0.4 0.8,1 1,1.7 l -1.2,0.2 c -0.1,-0.5 -0.3,-0.9 -0.6,-1.1 -0.3,-0.3 -0.7,-0.4 -1.1,-0.4 -0.6,0 -1.1,0.2 -1.5,0.7 -0.4,0.5 -0.6,1.2 -0.6,2.2 0,1 0.2,1.7 0.6,2.2 0.4,0.5 0.9,0.7 1.5,0.7 0.5,0 0.9,-0.2 1.2,-0.5 0.1,-0.2 0.3,-0.6 0.4,-1.3 z"
             id="path26956" />
        </g>
        <g
           id="g26958">
          <path
             style="fill:#ffffff"
             inkscape:connector-curvature="0"
             class="st1"
             d="m 205.2,187 c -0.5,0.4 -0.9,0.7 -1.3,0.8 -0.4,0.2 -0.9,0.2 -1.4,0.2 -0.8,0 -1.4,-0.2 -1.9,-0.6 -0.4,-0.4 -0.7,-0.9 -0.7,-1.5 0,-0.4 0.1,-0.7 0.2,-1 0.2,-0.3 0.4,-0.5 0.6,-0.7 0.3,-0.2 0.6,-0.3 0.9,-0.4 0.2,-0.1 0.6,-0.1 1.1,-0.2 1,-0.1 1.8,-0.3 2.2,-0.4 0,-0.2 0,-0.3 0,-0.3 0,-0.5 -0.1,-0.9 -0.4,-1.1 -0.3,-0.3 -0.8,-0.4 -1.4,-0.4 -0.6,0 -1,0.1 -1.3,0.3 -0.3,0.2 -0.5,0.6 -0.6,1.1 l -1.2,-0.2 c 0.1,-0.5 0.3,-1 0.6,-1.3 0.3,-0.3 0.6,-0.6 1.1,-0.7 0.5,-0.2 1,-0.3 1.7,-0.3 0.6,0 1.1,0.1 1.5,0.2 0.4,0.1 0.7,0.3 0.9,0.6 0.2,0.2 0.3,0.5 0.4,0.9 0,0.2 0.1,0.6 0.1,1.2 v 1.7 c 0,1.2 0,1.9 0.1,2.2 0.1,0.3 0.2,0.6 0.3,0.9 h -1.3 c -0.1,-0.3 -0.2,-0.6 -0.2,-1 z m -0.1,-2.8 c -0.5,0.2 -1.1,0.3 -2.1,0.5 -0.5,0.1 -0.9,0.2 -1.1,0.3 -0.2,0.1 -0.4,0.2 -0.5,0.4 -0.1,0.2 -0.2,0.4 -0.2,0.6 0,0.3 0.1,0.6 0.4,0.8 0.3,0.2 0.6,0.3 1.1,0.3 0.5,0 0.9,-0.1 1.3,-0.3 0.4,-0.2 0.7,-0.5 0.8,-0.9 0.1,-0.3 0.2,-0.7 0.2,-1.3 v -0.4 z"
             id="path26960" />
        </g>
        <g
           id="g26962">
          <path
             style="fill:#ffffff"
             inkscape:connector-curvature="0"
             class="st1"
             d="m 208.3,187.9 v -7.4 h 1.1 v 1.1 c 0.5,-0.8 1.3,-1.2 2.4,-1.2 0.4,0 0.9,0.1 1.2,0.2 0.4,0.2 0.7,0.4 0.8,0.6 0.2,0.3 0.3,0.6 0.4,0.9 0,0.2 0.1,0.6 0.1,1.2 v 4.6 H 213 v -4.5 c 0,-0.5 0,-0.9 -0.1,-1.1 -0.1,-0.2 -0.3,-0.5 -0.5,-0.6 -0.2,-0.2 -0.5,-0.2 -0.9,-0.2 -0.5,0 -1,0.2 -1.4,0.5 -0.4,0.3 -0.6,1 -0.6,1.9 v 4.1 h -1.2 z"
             id="path26964" />
        </g>
        <g
           id="g26966">
          <path
             style="fill:#ffffff"
             inkscape:connector-curvature="0"
             class="st1"
             d="m 215.8,184.2 c 0,-1.4 0.4,-2.4 1.1,-3.1 0.6,-0.5 1.4,-0.8 2.3,-0.8 1,0 1.9,0.3 2.5,1 0.6,0.7 1,1.6 1,2.8 0,1 -0.1,1.7 -0.4,2.3 -0.3,0.5 -0.7,1 -1.2,1.3 -0.5,0.3 -1.1,0.5 -1.8,0.5 -1,0 -1.9,-0.3 -2.5,-1 -0.7,-0.8 -1,-1.7 -1,-3 z m 1.3,0 c 0,0.9 0.2,1.7 0.6,2.1 0.4,0.5 0.9,0.7 1.6,0.7 0.6,0 1.1,-0.2 1.6,-0.7 0.4,-0.5 0.6,-1.2 0.6,-2.2 0,-0.9 -0.2,-1.6 -0.6,-2.1 -0.4,-0.5 -0.9,-0.7 -1.6,-0.7 -0.6,0 -1.1,0.2 -1.6,0.7 -0.4,0.6 -0.6,1.3 -0.6,2.2 z"
             id="path26968" />
        </g>
        <g
           id="g26970">
          <path
             style="fill:#ffffff"
             inkscape:connector-curvature="0"
             class="st1"
             d="M 233,187.9 V 187 c -0.5,0.7 -1.2,1.1 -2.1,1.1 -0.6,0 -1.1,-0.2 -1.6,-0.5 -0.5,-0.3 -0.9,-0.8 -1.2,-1.4 -0.3,-0.6 -0.4,-1.3 -0.4,-2 0,-0.7 0.1,-1.4 0.4,-2 0.2,-0.6 0.6,-1.1 1.1,-1.4 0.5,-0.3 1,-0.5 1.7,-0.5 0.4,0 0.8,0.1 1.2,0.3 0.3,0.2 0.6,0.4 0.9,0.7 v -3.7 h 1.2 v 10.2 H 233 Z m -4,-3.7 c 0,0.9 0.2,1.7 0.6,2.1 0.4,0.5 0.9,0.7 1.4,0.7 0.5,0 1,-0.2 1.4,-0.7 0.4,-0.4 0.6,-1.1 0.6,-2.1 0,-1 -0.2,-1.8 -0.6,-2.2 -0.4,-0.5 -0.9,-0.7 -1.4,-0.7 -0.6,0 -1,0.2 -1.4,0.7 -0.4,0.5 -0.6,1.3 -0.6,2.2 z"
             id="path26972" />
        </g>
        <g
           id="g26974">
          <path
             style="fill:#ffffff"
             inkscape:connector-curvature="0"
             class="st1"
             d="m 241.2,185.6 1.3,0.2 c -0.2,0.8 -0.6,1.3 -1.1,1.8 -0.6,0.4 -1.3,0.6 -2.1,0.6 -1.1,0 -1.9,-0.3 -2.6,-1 -0.6,-0.7 -1,-1.6 -1,-2.8 0,-1.2 0.3,-2.2 1,-2.9 0.6,-0.7 1.5,-1 2.5,-1 1,0 1.8,0.3 2.4,1 0.6,0.7 0.9,1.6 0.9,2.8 0,0.1 0,0.2 0,0.3 H 237 c 0,0.8 0.3,1.4 0.7,1.9 0.4,0.4 0.9,0.6 1.6,0.6 0.5,0 0.9,-0.1 1.2,-0.4 0.3,-0.2 0.5,-0.6 0.7,-1.1 z m -4.1,-2.1 h 4.1 c -0.1,-0.6 -0.2,-1.1 -0.5,-1.4 -0.4,-0.5 -0.9,-0.7 -1.6,-0.7 -0.6,0 -1.1,0.2 -1.5,0.6 -0.2,0.4 -0.5,0.9 -0.5,1.5 z"
             id="path26976" />
        </g>
      </g>
      <g
         transform="matrix(0.79901111,0,0,0.79901111,218.04701,810.98736)"
         style="enable-background:new"
         class="st421"
         id="g26978">
        <g
           id="g26980">
          <path
             style="fill:#ffffff"
             inkscape:connector-curvature="0"
             class="st1"
             d="M 64,207.2 V 197 h 1.4 v 10.2 z"
             id="path26982" />
        </g>
        <g
           id="g26984">
          <path
             style="fill:#ffffff"
             inkscape:connector-curvature="0"
             class="st1"
             d="m 67.6,207.2 v -7.4 h 1.1 v 1.1 c 0.5,-0.8 1.3,-1.2 2.4,-1.2 0.4,0 0.9,0.1 1.2,0.2 0.4,0.2 0.7,0.4 0.8,0.6 0.2,0.3 0.3,0.6 0.4,0.9 0,0.2 0.1,0.6 0.1,1.2 v 4.6 h -1.3 v -4.5 c 0,-0.5 0,-0.9 -0.1,-1.1 -0.1,-0.2 -0.3,-0.5 -0.5,-0.6 -0.2,-0.2 -0.5,-0.2 -0.9,-0.2 -0.5,0 -1,0.2 -1.4,0.5 -0.4,0.3 -0.6,1 -0.6,1.9 v 4.1 h -1.2 z"
             id="path26986" />
        </g>
        <g
           id="g26988">
          <path
             style="fill:#ffffff"
             inkscape:connector-curvature="0"
             class="st1"
             d="m 75.1,205 1.2,-0.2 c 0.1,0.5 0.3,0.9 0.6,1.1 0.3,0.3 0.8,0.4 1.3,0.4 0.6,0 1,-0.1 1.3,-0.4 0.3,-0.2 0.4,-0.5 0.4,-0.8 0,-0.3 -0.1,-0.5 -0.4,-0.7 -0.2,-0.1 -0.6,-0.3 -1.3,-0.4 -0.9,-0.2 -1.6,-0.4 -1.9,-0.6 -0.4,-0.2 -0.6,-0.4 -0.8,-0.7 -0.2,-0.3 -0.3,-0.6 -0.3,-1 0,-0.3 0.1,-0.6 0.2,-0.9 0.2,-0.3 0.4,-0.5 0.6,-0.7 0.2,-0.1 0.5,-0.3 0.8,-0.4 0.3,-0.1 0.7,-0.2 1.1,-0.2 0.6,0 1.1,0.1 1.5,0.3 0.4,0.2 0.8,0.4 1,0.7 0.2,0.3 0.4,0.7 0.4,1.1 l -1.2,0.2 c -0.1,-0.4 -0.2,-0.7 -0.5,-0.9 -0.3,-0.2 -0.6,-0.3 -1.1,-0.3 -0.6,0 -1,0.1 -1.2,0.3 -0.2,0.2 -0.4,0.4 -0.4,0.7 0,0.2 0.1,0.3 0.2,0.4 0.1,0.1 0.3,0.2 0.5,0.3 0.1,0 0.5,0.2 1.1,0.3 0.9,0.2 1.5,0.4 1.9,0.6 0.4,0.2 0.6,0.4 0.8,0.7 0.2,0.3 0.3,0.6 0.3,1.1 0,0.4 -0.1,0.8 -0.4,1.2 -0.2,0.4 -0.6,0.7 -1.1,0.9 -0.5,0.2 -1,0.3 -1.6,0.3 -1,0 -1.7,-0.2 -2.2,-0.6 -0.5,-0.4 -0.7,-1 -0.8,-1.8 z"
             id="path26990" />
        </g>
        <g
           id="g26992">
          <path
             style="fill:#ffffff"
             inkscape:connector-curvature="0"
             class="st1"
             d="m 85.5,206.1 0.2,1.1 c -0.4,0.1 -0.7,0.1 -0.9,0.1 -0.5,0 -0.8,-0.1 -1.1,-0.2 -0.3,-0.1 -0.4,-0.3 -0.5,-0.6 C 83.1,206.3 83,205.8 83,205 v -4.3 h -1 v -1 h 1 V 198 l 1.2,-0.8 v 2.6 h 1.3 v 1 h -1.3 v 4.3 c 0,0.4 0,0.6 0.1,0.7 0,0.1 0.1,0.2 0.2,0.2 0.1,0.1 0.2,0.1 0.4,0.1 0.2,0.1 0.4,0 0.6,0 z"
             id="path26994" />
        </g>
        <g
           id="g26996">
          <path
             style="fill:#ffffff"
             inkscape:connector-curvature="0"
             class="st1"
             d="m 91.5,206.3 c -0.5,0.4 -0.9,0.7 -1.3,0.8 -0.4,0.2 -0.9,0.2 -1.4,0.2 -0.8,0 -1.4,-0.2 -1.9,-0.6 -0.4,-0.4 -0.7,-0.9 -0.7,-1.5 0,-0.4 0.1,-0.7 0.2,-1 0.1,-0.3 0.4,-0.5 0.6,-0.7 0.3,-0.2 0.6,-0.3 0.9,-0.4 0.2,-0.1 0.6,-0.1 1.1,-0.2 1,-0.1 1.8,-0.3 2.2,-0.4 0,-0.2 0,-0.3 0,-0.3 0,-0.5 -0.1,-0.9 -0.4,-1.1 -0.3,-0.3 -0.8,-0.4 -1.4,-0.4 -0.6,0 -1,0.1 -1.3,0.3 -0.3,0.2 -0.5,0.6 -0.6,1.1 l -1.2,-0.2 c 0.1,-0.5 0.3,-1 0.6,-1.3 0.3,-0.3 0.6,-0.6 1.1,-0.7 0.5,-0.2 1,-0.3 1.7,-0.3 0.6,0 1.1,0.1 1.5,0.2 0.4,0.1 0.7,0.3 0.9,0.6 0.2,0.2 0.3,0.5 0.4,0.9 0,0.2 0.1,0.6 0.1,1.2 v 1.7 c 0,1.2 0,1.9 0.1,2.2 0.1,0.3 0.2,0.6 0.3,0.9 h -1.3 c 0,-0.3 -0.1,-0.6 -0.2,-1 z m -0.1,-2.8 c -0.5,0.2 -1.1,0.3 -2.1,0.5 -0.5,0.1 -0.9,0.2 -1.1,0.3 -0.2,0.1 -0.4,0.2 -0.5,0.4 -0.1,0.2 -0.2,0.4 -0.2,0.6 0,0.3 0.1,0.6 0.4,0.8 0.3,0.2 0.6,0.3 1.1,0.3 0.5,0 0.9,-0.1 1.3,-0.3 0.4,-0.2 0.7,-0.5 0.8,-0.9 0.1,-0.3 0.2,-0.7 0.2,-1.3 v -0.4 z"
             id="path26998" />
        </g>
        <g
           id="g27000">
          <path
             style="fill:#ffffff"
             inkscape:connector-curvature="0"
             class="st1"
             d="M 94.6,207.2 V 197 h 1.3 v 10.2 z"
             id="path27002" />
        </g>
        <g
           id="g27004">
          <path
             style="fill:#ffffff"
             inkscape:connector-curvature="0"
             class="st1"
             d="m 102.7,206.3 c -0.5,0.4 -0.9,0.7 -1.3,0.8 -0.4,0.2 -0.9,0.2 -1.4,0.2 -0.8,0 -1.4,-0.2 -1.9,-0.6 -0.4,-0.4 -0.7,-0.9 -0.7,-1.5 0,-0.4 0.1,-0.7 0.2,-1 0.2,-0.3 0.4,-0.5 0.6,-0.7 0.3,-0.2 0.6,-0.3 0.9,-0.4 0.2,-0.1 0.6,-0.1 1.1,-0.2 1,-0.1 1.8,-0.3 2.2,-0.4 0,-0.2 0,-0.3 0,-0.3 0,-0.5 -0.1,-0.9 -0.4,-1.1 -0.3,-0.3 -0.8,-0.4 -1.4,-0.4 -0.6,0 -1,0.1 -1.3,0.3 -0.3,0.2 -0.5,0.6 -0.6,1.1 l -1.2,-0.2 c 0.1,-0.5 0.3,-1 0.6,-1.3 0.3,-0.3 0.6,-0.6 1.1,-0.7 0.5,-0.2 1,-0.3 1.7,-0.3 0.6,0 1.1,0.1 1.5,0.2 0.4,0.1 0.7,0.3 0.9,0.6 0.2,0.3 0.3,0.5 0.4,0.9 0,0.2 0.1,0.6 0.1,1.2 v 1.7 c 0,1.2 0,1.9 0.1,2.2 0.1,0.3 0.2,0.6 0.3,0.9 h -1.3 c -0.1,-0.3 -0.2,-0.6 -0.2,-1 z m -0.1,-2.8 c -0.5,0.2 -1.1,0.3 -2.1,0.5 -0.5,0.1 -0.9,0.2 -1.1,0.3 -0.2,0.1 -0.4,0.2 -0.5,0.4 -0.1,0.2 -0.2,0.4 -0.2,0.6 0,0.3 0.1,0.6 0.4,0.8 0.3,0.2 0.6,0.3 1.1,0.3 0.5,0 0.9,-0.1 1.3,-0.3 0.4,-0.2 0.7,-0.5 0.8,-0.9 0.1,-0.3 0.2,-0.7 0.2,-1.3 v -0.4 z"
             id="path27006" />
        </g>
        <g
           id="g27008">
          <path
             style="fill:#ffffff"
             inkscape:connector-curvature="0"
             class="st1"
             d="m 110.6,204.5 1.2,0.2 c -0.1,0.9 -0.5,1.5 -1,2 -0.6,0.5 -1.2,0.7 -2,0.7 -1,0 -1.8,-0.3 -2.4,-1 -0.6,-0.7 -0.9,-1.6 -0.9,-2.9 0,-0.8 0.1,-1.5 0.4,-2.1 0.3,-0.6 0.7,-1.1 1.2,-1.4 0.5,-0.3 1.1,-0.5 1.8,-0.5 0.8,0 1.5,0.2 2,0.6 0.5,0.4 0.8,1 1,1.7 l -1.2,0.2 c -0.1,-0.5 -0.3,-0.9 -0.6,-1.1 -0.3,-0.3 -0.7,-0.4 -1.1,-0.4 -0.6,0 -1.1,0.2 -1.5,0.7 -0.4,0.5 -0.6,1.2 -0.6,2.2 0,1 0.2,1.7 0.6,2.2 0.4,0.5 0.9,0.7 1.5,0.7 0.5,0 0.9,-0.2 1.2,-0.5 0.1,-0.2 0.3,-0.7 0.4,-1.3 z m -2.9,3.7 0.4,-1.2 h 0.9 l -0.2,0.7 c 0.4,0 0.7,0.2 0.9,0.4 0.2,0.2 0.3,0.4 0.3,0.7 0,0.3 -0.2,0.7 -0.5,0.9 -0.3,0.3 -0.8,0.4 -1.5,0.4 -0.4,0 -0.7,0 -1,-0.1 l 0.1,-0.8 c 0.3,0 0.5,0 0.7,0 0.4,0 0.7,-0.1 0.9,-0.2 0.1,-0.1 0.2,-0.2 0.2,-0.3 0,-0.1 0,-0.2 -0.1,-0.2 -0.1,-0.1 -0.2,-0.1 -0.3,-0.2 -0.2,-0.1 -0.4,-0.1 -0.8,-0.1 z"
             id="path27010" />
        </g>
        <g
           id="g27012">
          <path
             style="fill:#ffffff"
             inkscape:connector-curvature="0"
             class="st1"
             d="m 117.8,206.3 c -0.5,0.4 -0.9,0.7 -1.3,0.8 -0.4,0.2 -0.9,0.2 -1.4,0.2 -0.8,0 -1.4,-0.2 -1.9,-0.6 -0.4,-0.4 -0.7,-0.9 -0.7,-1.5 0,-0.4 0.1,-0.7 0.2,-1 0.2,-0.3 0.4,-0.5 0.6,-0.7 0.3,-0.2 0.6,-0.3 0.9,-0.4 0.2,-0.1 0.6,-0.1 1.1,-0.2 1,-0.1 1.8,-0.3 2.2,-0.4 0,-0.2 0,-0.3 0,-0.3 0,-0.5 -0.1,-0.9 -0.4,-1.1 -0.3,-0.3 -0.8,-0.4 -1.4,-0.4 -0.6,0 -1,0.1 -1.3,0.3 -0.3,0.2 -0.5,0.6 -0.6,1.1 l -1.2,-0.2 c 0.1,-0.5 0.3,-1 0.6,-1.3 0.3,-0.3 0.6,-0.6 1.1,-0.7 0.5,-0.2 1,-0.3 1.7,-0.3 0.6,0 1.1,0.1 1.5,0.2 0.4,0.1 0.7,0.3 0.9,0.6 0.2,0.3 0.3,0.5 0.4,0.9 0,0.2 0.1,0.6 0.1,1.2 v 1.7 c 0,1.2 0,1.9 0.1,2.2 0.1,0.3 0.2,0.6 0.3,0.9 H 118 c -0.1,-0.3 -0.2,-0.6 -0.2,-1 z m -4.2,-7.6 c 0,-0.5 0.1,-0.9 0.4,-1.2 0.3,-0.3 0.6,-0.4 1,-0.4 0.3,0 0.7,0.1 1.2,0.4 0.3,0.1 0.5,0.2 0.7,0.2 0.1,0 0.3,0 0.3,-0.1 0.1,-0.1 0.1,-0.2 0.2,-0.5 h 0.9 c 0,0.5 -0.1,0.9 -0.4,1.2 -0.3,0.3 -0.6,0.4 -1,0.4 -0.3,0 -0.7,-0.1 -1.2,-0.4 -0.3,-0.2 -0.5,-0.3 -0.7,-0.3 -0.2,0 -0.3,0.1 -0.4,0.2 -0.1,0.1 -0.2,0.3 -0.1,0.5 z m 4.1,4.8 c -0.5,0.2 -1.1,0.3 -2.1,0.5 -0.5,0.1 -0.9,0.2 -1.1,0.3 -0.2,0.1 -0.4,0.2 -0.5,0.4 -0.1,0.2 -0.2,0.4 -0.2,0.6 0,0.3 0.1,0.6 0.4,0.8 0.3,0.2 0.6,0.3 1.1,0.3 0.5,0 0.9,-0.1 1.3,-0.3 0.4,-0.2 0.7,-0.5 0.8,-0.9 0.1,-0.3 0.2,-0.7 0.2,-1.3 v -0.4 z"
             id="path27014" />
        </g>
        <g
           id="g27016">
          <path
             style="fill:#ffffff"
             inkscape:connector-curvature="0"
             class="st1"
             d="m 120.4,203.5 c 0,-1.4 0.4,-2.4 1.1,-3.1 0.6,-0.5 1.4,-0.8 2.3,-0.8 1,0 1.9,0.3 2.5,1 0.6,0.7 1,1.6 1,2.8 0,1 -0.1,1.7 -0.4,2.3 -0.3,0.5 -0.7,1 -1.2,1.3 -0.5,0.3 -1.1,0.5 -1.8,0.5 -1,0 -1.9,-0.3 -2.5,-1 -0.7,-0.8 -1,-1.7 -1,-3 z m 1.3,0 c 0,0.9 0.2,1.7 0.6,2.1 0.4,0.5 0.9,0.7 1.6,0.7 0.6,0 1.1,-0.2 1.6,-0.7 0.4,-0.5 0.6,-1.2 0.6,-2.2 0,-0.9 -0.2,-1.6 -0.6,-2.1 -0.4,-0.5 -0.9,-0.7 -1.6,-0.7 -0.6,0 -1.1,0.2 -1.6,0.7 -0.4,0.6 -0.6,1.3 -0.6,2.2 z"
             id="path27018" />
        </g>
        <g
           id="g27020">
          <path
             style="fill:#ffffff"
             inkscape:connector-curvature="0"
             class="st1"
             d="m 137.6,207.2 v -0.9 c -0.5,0.7 -1.2,1.1 -2.1,1.1 -0.6,0 -1.1,-0.2 -1.6,-0.5 -0.5,-0.3 -0.9,-0.8 -1.2,-1.4 -0.3,-0.6 -0.4,-1.3 -0.4,-2 0,-0.7 0.1,-1.4 0.4,-2 0.2,-0.6 0.6,-1.1 1.1,-1.4 0.5,-0.3 1,-0.5 1.7,-0.5 0.4,0 0.8,0.1 1.2,0.3 0.3,0.2 0.6,0.4 0.9,0.7 V 197 h 1.2 v 10.2 z m -3.9,-3.7 c 0,0.9 0.2,1.7 0.6,2.1 0.4,0.5 0.9,0.7 1.4,0.7 0.5,0 1,-0.2 1.4,-0.7 0.4,-0.4 0.6,-1.1 0.6,-2.1 0,-1 -0.2,-1.8 -0.6,-2.2 -0.4,-0.5 -0.9,-0.7 -1.4,-0.7 -0.6,0 -1,0.2 -1.4,0.7 -0.5,0.5 -0.6,1.2 -0.6,2.2 z"
             id="path27022" />
        </g>
        <g
           id="g27024">
          <path
             style="fill:#ffffff"
             inkscape:connector-curvature="0"
             class="st1"
             d="m 145.9,204.8 1.3,0.2 c -0.2,0.8 -0.6,1.3 -1.1,1.8 -0.6,0.4 -1.3,0.6 -2.1,0.6 -1.1,0 -1.9,-0.3 -2.6,-1 -0.6,-0.7 -1,-1.6 -1,-2.8 0,-1.2 0.3,-2.2 1,-2.9 0.6,-0.7 1.5,-1 2.5,-1 1,0 1.8,0.3 2.4,1 0.6,0.7 0.9,1.6 0.9,2.8 0,0.1 0,0.2 0,0.3 h -5.5 c 0,0.8 0.3,1.4 0.7,1.9 0.4,0.4 0.9,0.6 1.6,0.6 0.5,0 0.9,-0.1 1.2,-0.4 0.2,-0.1 0.5,-0.5 0.7,-1.1 z m -4.2,-2 h 4.1 c -0.1,-0.6 -0.2,-1.1 -0.5,-1.4 -0.4,-0.5 -0.9,-0.7 -1.6,-0.7 -0.6,0 -1.1,0.2 -1.5,0.6 -0.2,0.3 -0.4,0.9 -0.5,1.5 z"
             id="path27026" />
        </g>
        <g
           id="g27028">
          <path
             style="fill:#ffffff"
             inkscape:connector-curvature="0"
             class="st1"
             d="m 152.4,203.9 1.3,-0.1 c 0.1,0.5 0.2,0.9 0.4,1.3 0.2,0.3 0.6,0.6 1,0.8 0.5,0.2 1,0.3 1.6,0.3 0.5,0 1,-0.1 1.4,-0.2 0.4,-0.2 0.7,-0.4 0.9,-0.6 0.2,-0.3 0.3,-0.6 0.3,-0.9 0,-0.3 -0.1,-0.6 -0.3,-0.8 -0.2,-0.2 -0.5,-0.4 -0.9,-0.6 -0.3,-0.1 -0.9,-0.3 -1.8,-0.5 -0.9,-0.2 -1.6,-0.4 -2,-0.6 -0.5,-0.3 -0.9,-0.6 -1.1,-1 -0.2,-0.4 -0.4,-0.8 -0.4,-1.3 0,-0.5 0.1,-1 0.4,-1.4 0.3,-0.4 0.7,-0.8 1.3,-1 0.6,-0.2 1.2,-0.3 1.9,-0.3 0.8,0 1.4,0.1 2,0.4 0.6,0.2 1,0.6 1.3,1.1 0.3,0.5 0.5,1 0.5,1.6 l -1.3,0.1 c -0.1,-0.6 -0.3,-1.1 -0.7,-1.5 -0.4,-0.3 -1,-0.5 -1.8,-0.5 -0.8,0 -1.4,0.2 -1.8,0.5 -0.4,0.3 -0.6,0.7 -0.6,1.1 0,0.4 0.1,0.7 0.4,0.9 0.3,0.2 0.9,0.5 2,0.7 1.1,0.2 1.9,0.5 2.3,0.7 0.6,0.3 1,0.6 1.3,1 0.3,0.4 0.4,0.9 0.4,1.5 0,0.5 -0.2,1.1 -0.5,1.5 -0.3,0.5 -0.8,0.9 -1.3,1.1 -0.6,0.3 -1.2,0.4 -2,0.4 -0.9,0 -1.7,-0.1 -2.3,-0.4 -0.6,-0.3 -1.1,-0.7 -1.5,-1.2 -0.2,-0.8 -0.4,-1.4 -0.4,-2.1 z"
             id="path27030" />
        </g>
        <g
           id="g27032">
          <path
             style="fill:#ffffff"
             inkscape:connector-curvature="0"
             class="st1"
             d="m 161.8,203.5 c 0,-1.4 0.4,-2.4 1.1,-3.1 0.6,-0.5 1.4,-0.8 2.3,-0.8 1,0 1.9,0.3 2.5,1 0.6,0.7 1,1.6 1,2.8 0,1 -0.1,1.7 -0.4,2.3 -0.3,0.5 -0.7,1 -1.2,1.3 -0.5,0.3 -1.1,0.5 -1.8,0.5 -1,0 -1.9,-0.3 -2.5,-1 -0.7,-0.8 -1,-1.7 -1,-3 z m 1.3,0 c 0,0.9 0.2,1.7 0.6,2.1 0.4,0.5 0.9,0.7 1.6,0.7 0.6,0 1.1,-0.2 1.6,-0.7 0.4,-0.5 0.6,-1.2 0.6,-2.2 0,-0.9 -0.2,-1.6 -0.6,-2.1 -0.4,-0.5 -0.9,-0.7 -1.6,-0.7 -0.6,0 -1.1,0.2 -1.6,0.7 -0.4,0.6 -0.6,1.3 -0.6,2.2 z"
             id="path27034" />
        </g>
        <g
           id="g27036">
          <path
             style="fill:#ffffff"
             inkscape:connector-curvature="0"
             class="st1"
             d="m 170.5,207.2 v -6.4 h -1.1 v -1 h 1.1 V 199 c 0,-0.5 0,-0.9 0.1,-1.1 0.1,-0.3 0.3,-0.6 0.6,-0.8 0.3,-0.2 0.7,-0.3 1.3,-0.3 0.4,0 0.7,0 1.2,0.1 l -0.2,1.1 c -0.3,0 -0.5,-0.1 -0.7,-0.1 -0.4,0 -0.7,0.1 -0.8,0.2 -0.2,0.2 -0.2,0.5 -0.2,0.9 v 0.7 h 1.4 v 1 h -1.4 v 6.4 h -1.3 z"
             id="path27038" />
        </g>
        <g
           id="g27040">
          <path
             style="fill:#ffffff"
             inkscape:connector-curvature="0"
             class="st1"
             d="m 176.9,206.1 0.2,1.1 c -0.4,0.1 -0.7,0.1 -0.9,0.1 -0.5,0 -0.8,-0.1 -1.1,-0.2 -0.3,-0.1 -0.4,-0.3 -0.5,-0.6 -0.1,-0.2 -0.2,-0.7 -0.2,-1.5 v -4.3 h -0.9 v -1 h 0.9 V 198 l 1.2,-0.8 v 2.6 h 1.3 v 1 h -1.3 v 4.3 c 0,0.4 0,0.6 0.1,0.7 0,0.1 0.1,0.2 0.2,0.2 0.1,0.1 0.2,0.1 0.4,0.1 0.2,0.1 0.4,0 0.6,0 z"
             id="path27042" />
        </g>
        <g
           id="g27044">
          <path
             style="fill:#ffffff"
             inkscape:connector-curvature="0"
             class="st1"
             d="m 179.5,207.2 -2.3,-7.4 h 1.3 l 1.2,4.3 0.4,1.6 c 0,-0.1 0.1,-0.6 0.4,-1.5 l 1.2,-4.3 h 1.3 l 1.1,4.3 0.4,1.4 0.4,-1.4 1.3,-4.3 h 1.2 l -2.3,7.4 h -1.3 l -1.2,-4.4 -0.3,-1.3 -1.5,5.7 h -1.3 z"
             id="path27046" />
        </g>
        <g
           id="g27048">
          <path
             style="fill:#ffffff"
             inkscape:connector-curvature="0"
             class="st1"
             d="m 193.3,206.3 c -0.5,0.4 -0.9,0.7 -1.3,0.8 -0.4,0.2 -0.9,0.2 -1.4,0.2 -0.8,0 -1.4,-0.2 -1.9,-0.6 -0.4,-0.4 -0.7,-0.9 -0.7,-1.5 0,-0.4 0.1,-0.7 0.2,-1 0.2,-0.3 0.4,-0.5 0.6,-0.7 0.3,-0.2 0.6,-0.3 0.9,-0.4 0.2,-0.1 0.6,-0.1 1.1,-0.2 1,-0.1 1.8,-0.3 2.2,-0.4 0,-0.2 0,-0.3 0,-0.3 0,-0.5 -0.1,-0.9 -0.4,-1.1 -0.3,-0.3 -0.8,-0.4 -1.4,-0.4 -0.6,0 -1,0.1 -1.3,0.3 -0.3,0.2 -0.5,0.6 -0.6,1.1 l -1.2,-0.2 c 0.1,-0.5 0.3,-1 0.6,-1.3 0.3,-0.3 0.6,-0.6 1.1,-0.7 0.5,-0.2 1,-0.3 1.7,-0.3 0.6,0 1.1,0.1 1.5,0.2 0.4,0.1 0.7,0.3 0.9,0.6 0.2,0.2 0.3,0.5 0.4,0.9 0,0.2 0.1,0.6 0.1,1.2 v 1.7 c 0,1.2 0,1.9 0.1,2.2 0.1,0.3 0.2,0.6 0.3,0.9 h -1.3 c -0.1,-0.3 -0.2,-0.6 -0.2,-1 z m -0.1,-2.8 c -0.5,0.2 -1.1,0.3 -2.1,0.5 -0.5,0.1 -0.9,0.2 -1.1,0.3 -0.2,0.1 -0.4,0.2 -0.5,0.4 -0.1,0.2 -0.2,0.4 -0.2,0.6 0,0.3 0.1,0.6 0.4,0.8 0.3,0.2 0.6,0.3 1.1,0.3 0.5,0 0.9,-0.1 1.3,-0.3 0.4,-0.2 0.7,-0.5 0.8,-0.9 0.1,-0.3 0.2,-0.7 0.2,-1.3 v -0.4 z"
             id="path27050" />
        </g>
        <g
           id="g27052">
          <path
             style="fill:#ffffff"
             inkscape:connector-curvature="0"
             class="st1"
             d="m 196.4,207.2 v -7.4 h 1.1 v 1.1 c 0.3,-0.5 0.6,-0.9 0.8,-1 0.2,-0.2 0.5,-0.3 0.8,-0.3 0.4,0 0.9,0.1 1.3,0.4 l -0.4,1.2 c -0.3,-0.2 -0.6,-0.3 -0.9,-0.3 -0.3,0 -0.5,0.1 -0.7,0.2 -0.2,0.2 -0.4,0.4 -0.5,0.7 -0.1,0.4 -0.2,0.9 -0.2,1.5 v 3.9 z"
             id="path27054" />
        </g>
        <g
           id="g27056">
          <path
             style="fill:#ffffff"
             inkscape:connector-curvature="0"
             class="st1"
             d="m 206.3,204.8 1.3,0.2 c -0.2,0.8 -0.6,1.3 -1.1,1.8 -0.6,0.4 -1.3,0.6 -2.1,0.6 -1.1,0 -1.9,-0.3 -2.6,-1 -0.6,-0.7 -1,-1.6 -1,-2.8 0,-1.2 0.3,-2.2 1,-2.9 0.6,-0.7 1.5,-1 2.5,-1 1,0 1.8,0.3 2.4,1 0.6,0.7 0.9,1.6 0.9,2.8 0,0.1 0,0.2 0,0.3 h -5.5 c 0,0.8 0.3,1.4 0.7,1.9 0.4,0.4 0.9,0.6 1.6,0.6 0.5,0 0.9,-0.1 1.2,-0.4 0.2,-0.1 0.5,-0.5 0.7,-1.1 z m -4.2,-2 h 4.1 c -0.1,-0.6 -0.2,-1.1 -0.5,-1.4 -0.4,-0.5 -0.9,-0.7 -1.6,-0.7 -0.6,0 -1.1,0.2 -1.5,0.6 -0.2,0.3 -0.4,0.9 -0.5,1.5 z"
             id="path27058" />
        </g>
        <g
           id="g27060">
          <path
             style="fill:#ffffff"
             inkscape:connector-curvature="0"
             class="st1"
             d="M 213.2,207.2 V 197 h 1.4 v 9 h 5 v 1.2 z"
             id="path27062" />
        </g>
        <g
           id="g27064">
          <path
             style="fill:#ffffff"
             inkscape:connector-curvature="0"
             class="st1"
             d="M 221.1,198.4 V 197 h 1.3 v 1.4 z m 0,8.8 v -7.4 h 1.3 v 7.4 z"
             id="path27066" />
        </g>
        <g
           id="g27068">
          <path
             style="fill:#ffffff"
             inkscape:connector-curvature="0"
             class="st1"
             d="m 226.3,207.2 -2.8,-7.4 h 1.3 l 1.6,4.4 c 0.2,0.5 0.3,1 0.5,1.5 0.1,-0.4 0.3,-0.9 0.5,-1.4 l 1.6,-4.5 h 1.3 l -2.8,7.4 z"
             id="path27070" />
        </g>
        <g
           id="g27072">
          <path
             style="fill:#ffffff"
             inkscape:connector-curvature="0"
             class="st1"
             d="m 231.4,207.2 v -7.4 h 1.1 v 1.1 c 0.3,-0.5 0.6,-0.9 0.8,-1 0.2,-0.2 0.5,-0.3 0.8,-0.3 0.4,0 0.9,0.1 1.3,0.4 l -0.4,1.2 c -0.3,-0.2 -0.6,-0.3 -0.9,-0.3 -0.3,0 -0.5,0.1 -0.7,0.2 -0.2,0.2 -0.4,0.4 -0.5,0.7 -0.1,0.4 -0.2,0.9 -0.2,1.5 v 3.9 z"
             id="path27074" />
        </g>
        <g
           id="g27076">
          <path
             style="fill:#ffffff"
             inkscape:connector-curvature="0"
             class="st1"
             d="m 241.2,204.8 1.3,0.2 c -0.2,0.8 -0.6,1.3 -1.1,1.8 -0.6,0.4 -1.3,0.6 -2.1,0.6 -1.1,0 -1.9,-0.3 -2.6,-1 -0.6,-0.7 -1,-1.6 -1,-2.8 0,-1.2 0.3,-2.2 1,-2.9 0.6,-0.7 1.5,-1 2.5,-1 1,0 1.8,0.3 2.4,1 0.6,0.7 0.9,1.6 0.9,2.8 0,0.1 0,0.2 0,0.3 H 237 c 0,0.8 0.3,1.4 0.7,1.9 0.4,0.4 0.9,0.6 1.6,0.6 0.5,0 0.9,-0.1 1.2,-0.4 0.3,-0.1 0.5,-0.5 0.7,-1.1 z m -4.1,-2 h 4.1 c -0.1,-0.6 -0.2,-1.1 -0.5,-1.4 -0.4,-0.5 -0.9,-0.7 -1.6,-0.7 -0.6,0 -1.1,0.2 -1.5,0.6 -0.2,0.3 -0.5,0.9 -0.5,1.5 z"
             id="path27078" />
        </g>
      </g>
      <g
         transform="translate(-10.142857)"
         id="g5990">
        <path
           style="fill:#ffffff"
           inkscape:connector-curvature="0"
           class="st1"
           d="m 551.16306,891.84864 c 3.45713,0 7.16119,1.89318 7.98431,6.17344 h -3.53943 c -0.74082,-1.97551 -2.30476,-2.79863 -4.36257,-2.79863 -3.04556,0 -5.10337,2.22244 -5.10337,5.51494 0,2.96325 1.9755,5.43263 5.10337,5.43263 2.14013,0 3.86869,-0.98776 4.44488,-3.12788 h 3.53944 c -0.74082,4.52719 -4.44488,6.42038 -7.98432,6.42038 -4.52719,0 -8.80744,-3.04557 -8.80744,-8.80744 -0.16462,-5.76188 4.11563,-8.88976 8.72513,-8.80744 z"
           id="path27082" />
        <path
           style="fill:#ffffff"
           inkscape:connector-curvature="0"
           class="st1"
           d="m 568.77794,903.53701 v -11.52375 h 3.70406 v 11.44144 c 0,1.81088 1.48163,2.79863 3.21019,2.79863 1.72857,0 3.21019,-0.90544 3.21019,-2.79863 v -11.44144 h 3.62175 v 11.52375 c 0,3.86869 -3.21019,5.92651 -6.83194,5.92651 -3.62175,0 -6.91425,-2.05782 -6.91425,-5.92651 z"
           id="path27084" />
        <path
           style="fill:#ffffff"
           inkscape:connector-curvature="0"
           class="st1"
           d="m 607.54714,908.7227 v 0.49388 h -3.951 l -3.53944,-5.67957 h -3.04556 v 5.67957 h -3.70407 v -17.28563 c 2.46938,0 4.93875,0 7.40813,0 3.951,0 6.09113,2.88094 6.09113,5.9265 0,2.22244 -1.07007,4.11563 -3.04557,5.10338 z m -6.91425,-8.23125 c 1.56394,0 2.55169,-1.23469 2.55169,-2.71631 0,-1.48163 -0.98775,-2.634 -2.55169,-2.634 h -3.70407 v 5.268 h 3.70407 z"
           id="path27086" />
        <path
           style="fill:#ffffff"
           inkscape:connector-curvature="0"
           class="st1"
           d="m 624.83277,906.33564 v 2.96325 h -8.5605 v -2.96325 h 2.46937 V 894.8942 h -2.22243 v -2.88094 h 8.14894 v 2.88094 h -2.22244 v 11.44144 z"
           id="path27088" />
        <path
           style="fill:#ffffff"
           inkscape:connector-curvature="0"
           class="st1"
           d="m 633.31096,895.22345 v -3.21019 h 12.75844 v 3.21019 h -4.6095 v 14.07544 h -3.53944 v -14.07544 z"
           id="path27090" />
        <path
           style="fill:#ffffff"
           inkscape:connector-curvature="0"
           class="st1"
           d="m 663.1081,906.33564 v 2.96325 h -8.56051 v -2.96325 h 2.46938 V 894.8942 h -2.30475 v -2.88094 h 8.14894 v 2.88094 h -2.22244 v 11.44144 z"
           id="path27092" />
        <path
           style="fill:#ffffff"
           inkscape:connector-curvature="0"
           class="st1"
           d="m 684.09779,900.32683 c 1.56394,0.6585 2.46938,2.05781 2.46938,3.86868 0,3.04557 -2.05782,5.10338 -5.43263,5.10338 h -7.98432 v -17.20332 h 7.32582 c 3.12788,0 5.43263,1.89319 5.43263,5.10338 -0.0823,1.15238 -0.74082,2.46938 -1.81088,3.12788 z m -7.32581,-5.18569 v 3.951 h 3.37481 c 1.23469,0 2.05781,-0.6585 2.05781,-1.81088 0,-1.23469 -0.82312,-2.05781 -2.05781,-2.05781 h -3.37481 z m 0,6.99656 v 3.951 h 4.11562 c 1.23469,0 1.9755,-0.74081 2.05781,-1.89319 0,-0.6585 -0.24693,-1.317 -0.74081,-1.72856 -0.41156,-0.32925 -0.90544,-0.32925 -1.48162,-0.32925 z"
           id="path27094" />
        <path
           style="fill:#ffffff"
           inkscape:connector-curvature="0"
           class="st1"
           d="m 699.32561,906.41795 -1.317,2.88094 h -3.86869 v -0.49387 l 7.902,-16.87407 h 1.72856 l 7.90201,16.87407 v 0.49387 h -3.78638 l -1.317,-2.88094 z m 1.23469,-3.12787 h 4.77412 l -2.38706,-5.67957 z"
           id="path27096" />
      </g>
      <g
         transform="matrix(2.3400635,0,0,2.3400635,-1150.9107,-1160.7379)"
         id="g5984">
        <path
           style="fill:#ffffff"
           inkscape:connector-curvature="0"
           class="st1"
           d="m 721.13843,896.29351 h -1.07007 c 0,-2.96325 1.56394,-4.52719 4.85644,-4.52719 5.18569,-0.0823 6.33807,5.268 3.21019,8.88976 -1.07006,1.23468 -2.05781,2.46937 -3.21019,3.78637 l -3.2925,3.78638 3.53944,-0.0823 h 5.18569 v 1.07006 h -10.61832 v -0.24694 l 7.65507,-8.97206 c 2.55169,-2.79863 2.05781,-7.24351 -2.30475,-7.24351 -2.634,0 -3.951,1.15238 -3.951,3.53944 z"
           id="path27098" />
        <path
           style="fill:#ffffff"
           inkscape:connector-curvature="0"
           class="st1"
           d="m 753.158,897.69282 v 5.84419 c 0,3.70407 -2.79863,5.92651 -6.33806,5.92651 -3.53944,0 -6.33807,-2.22244 -6.33807,-5.92651 v -5.84419 c 0,-3.70406 2.79863,-5.9265 6.33807,-5.9265 3.53943,0 6.33806,2.30475 6.33806,5.9265 z m -1.56394,7.73738 c 0.24694,-0.6585 0.32925,-1.317 0.32925,-2.05781 v -5.35031 c 0,-0.74082 -0.16462,-1.48163 -0.32925,-2.05782 -0.74081,-1.9755 -2.55169,-3.04556 -4.77412,-3.04556 -2.30475,0 -4.11563,1.07006 -4.77413,3.04556 -0.24694,0.57619 -0.32925,1.317 -0.32925,2.05782 v 5.35031 c 0,0.74081 0.0823,1.48162 0.32925,2.05781 0.74081,1.89319 2.55169,2.96325 4.77413,2.96325 2.22243,0 4.03331,-1.07006 4.77412,-2.96325 z"
           id="path27100" />
        <path
           style="fill:#ffffff"
           inkscape:connector-curvature="0"
           class="st1"
           d="m 763.44707,893.00101 v -0.98775 h 4.36256 v 16.21557 h 3.62175 v 1.07006 h -8.47819 v -1.07006 h 3.62175 v -15.14551 h -3.12787 z"
           id="path27102" />
        <path
           style="fill:#ffffff"
           inkscape:connector-curvature="0"
           class="st1"
           d="m 791.35101,892.17789 -8.23125,17.03869 h -1.317 l 7.81969,-16.13326 h -9.38363 v -1.15237 h 11.11219 z"
           id="path27104" />
      </g>
      <g
         transform="matrix(0,-0.37697491,-0.80426445,0,696.78913,1009.6244)"
         id="g27106">
        <line
           x1="60.299999"
           y1="219.8"
           x2="362.89999"
           y2="219.8"
           id="line27108" />
        <rect
           style="fill:#ffffff"
           x="60.299999"
           y="218.8"
           class="st1"
           width="302.60001"
           height="2"
           id="rect27110" />
      </g>
      <g
         transform="matrix(0.56809895,0,0,0.56809895,-16.546299,470.3774)"
         id="g64289">
        <path
           transform="matrix(0.80201649,0,0,0.80201649,1926.4315,1753.3757)"
           inkscape:connector-curvature="0"
           id="path20199"
           d="m -1358.6983,-1122.7245 c 0,0 0.7308,-3.0048 4.5476,-3.0048 3.8168,0 6.8216,3.8168 6.8216,3.8168 0,0 -5.6846,-2.4362 -7.7149,-2.4362 -2.0302,0 -3.6543,1.6242 -3.6543,1.6242 z"
           style="color:#000000;display:inline;overflow:visible;visibility:visible;opacity:0.56734691;fill:#ffffff;fill-opacity:1;fill-rule:nonzero;stroke:none;stroke-width:1px;marker:none;filter:url(#filter14506-80-6-61);enable-background:accumulate" />
        <circle
           id="path20221"
           style="color:#000000;display:inline;overflow:visible;visibility:visible;fill:#ffffff;fill-opacity:1;fill-rule:nonzero;stroke:#0055d4;stroke-width:5.43439388;stroke-opacity:1;marker:none;enable-background:accumulate"
           cx="832.83185"
           cy="799.06836"
           r="44.300766" />
        <circle
           id="path20223"
           style="color:#000000;display:inline;overflow:visible;visibility:visible;fill:#0055d4;fill-opacity:1;fill-rule:nonzero;stroke:none;stroke-width:1;marker:none;enable-background:accumulate"
           cx="832.83179"
           cy="799.06842"
           r="46.820286" />
        <circle
           style="color:#000000;display:inline;overflow:visible;visibility:visible;opacity:0.4820717;fill:url(#radialGradient20235);fill-opacity:1;fill-rule:nonzero;stroke:none;stroke-width:1;marker:none;enable-background:accumulate"
           id="path20225"
           cx="832.83179"
           cy="799.06842"
           r="46.820286" />
        <circle
           id="path20227"
           style="color:#000000;display:inline;overflow:visible;visibility:visible;fill:url(#radialGradient20237);fill-opacity:1;fill-rule:nonzero;stroke:none;stroke-width:1.35547781;marker:none;filter:url(#filter4645);enable-background:accumulate"
           transform="matrix(0.52233967,0,0,0.52233967,655.55246,703.17964)"
           cx="339.39481"
           cy="170.44995"
           r="68.136078" />
        <path
           transform="matrix(0.79084698,0,0,0.79084698,1911.5515,1740.0631)"
           inkscape:connector-curvature="0"
           id="path20229"
           d="m -1392.4809,-1232.0483 c -0.8019,0.033 -1.509,0.2328 -2.0475,0.6749 -0.2982,2.8855 0.7189,6.5887 2.9222,8.6149 -0.1902,-0.2464 -0.4195,-0.6929 -0.7355,-1.4291 -0.9777,-1.6628 -2.7369,-9.0374 0.656,-5.4787 1.989,4.1785 2.6367,9.2781 5.7252,12.9819 2.3538,3.8651 6.8255,4.1147 10.5955,5.0816 3.2734,1.588 4.3264,6.2894 7.8522,7.2255 2.5104,3.2637 -0.6389,7.349 -2.0078,10.5006 -2.7461,4.8644 2.8883,7.8174 4.6716,11.632 3.6086,4.9811 7.031,11.5771 4.3138,17.8452 -1.6058,4.5347 -1.9956,9.5445 -3.1409,14.2721 -0.5096,3.3536 -1.2328,10.3996 2.3855,11.0564 0.7253,-3.6267 0.4384,-7.5298 3.3595,-10.2624 2.8735,-5.4672 8.4716,-8.8774 12.7226,-12.7436 1.9606,-2.3297 5.7601,-7.6173 9.5221,-10.203 1.6683,-2.8236 1.1693,-7.6219 4.2343,-10.4213 2.348,-2.4836 3.5146,-8.2489 -0.994,-8.9324 -6.0092,-2.3954 -10.9523,-6.9424 -14.9491,-12.0886 -4.3284,-2.3316 -7.0463,-2.9684 -11.6629,-4.4538 -0.281,-0.091 -0.6668,2.4248 -1.5084,2.4164 -1.1507,-0.011 0.2655,-3.2189 -2.2349,-3.1236 -0.4188,1.379 -2.8098,3.5597 -4.453,4.0295 -0.6343,-1.0347 -2.8863,-3.2068 -2.7234,-4.9624 -0.075,-3.5364 -4.592,-3.6234 -2.8626,-6.9872 -1.0331,-2.9637 -5.1833,4.3511 -6.8781,-0.6552 -1.002,-4.349 -1.1763,-11.7175 -5.1885,-12.545 -1.9336,-0.7657 -5.1682,-2.1428 -7.5739,-2.0447 z m 24.8308,12.2251 c 0.3973,0.1244 2.1717,-0.4166 4.1253,-0.3854 1.8411,0.03 4.9133,1.545 5.4703,1.0618 -0.868,-2.878 -6.9897,-2.3488 -6.8746,-2.3354 -0.9249,0.7782 -3.383,1.4105 -2.721,1.659 z m 20.154,5.4712 c -0.1529,0.27 -0.9304,0.3375 -0.9313,-0.2161 0.3055,-0.5351 0.9002,-0.076 0.9313,0.2161 z m -3.6979,-1.0674 c -3.4763,-0.1072 -1.191,-1.878 -3.0367,-1.8379 -1.2939,0.027 -0.927,1.3862 -3.1699,1.1772 2.062,0.9711 2.2009,0.732 3.6375,1.4994 2.0386,-0.1206 3.2905,-0.092 2.5691,-0.8387 z"
           style="font-size:12px;fill:#0055d4;fill-opacity:1;fill-rule:nonzero;stroke:#ff7d23;stroke-width:1.1452688;stroke-opacity:1;filter:url(#filter15293)"
           sodipodi:nodetypes="cccccccccccccccccccssccccccccscccccccsccc" />
        <path
           sodipodi:nodetypes="cccccccccccccccccccssccccccccscccccccsccc"
           style="font-size:12px;fill:#ccff00;fill-opacity:1;fill-rule:nonzero;stroke:#d4ff2a;stroke-width:0.90573239;stroke-opacity:1"
           d="m 810.31213,765.70152 c -0.63419,0.0263 -1.19339,0.18405 -1.61927,0.53375 -0.23585,2.282 0.56853,5.21059 2.31098,6.81301 -0.15035,-0.19482 -0.33168,-0.54797 -0.58166,-1.13017 -0.77323,-1.31503 -2.16443,-7.14723 0.5188,-4.33284 1.57299,3.30456 2.08527,7.33761 4.52776,10.26674 1.86155,3.05667 5.39798,3.25412 8.37947,4.01874 2.58876,1.25589 3.42149,4.97392 6.20988,5.71426 1.98528,2.58107 -0.50531,5.81191 -1.58793,8.30439 -2.17167,3.84701 2.28426,6.18235 3.69457,9.19916 2.85388,3.93921 5.56048,9.15569 3.41154,14.11276 -1.26993,3.58625 -1.57824,7.54828 -2.48398,11.28705 -0.40296,2.65217 -0.97493,8.22451 1.88655,8.74394 0.5736,-2.86818 0.34672,-5.95491 2.65688,-8.11599 2.27248,-4.3237 6.6997,-7.0207 10.0616,-10.07827 1.55061,-1.84244 4.55538,-6.02411 7.53053,-8.06898 1.31938,-2.233 0.92475,-6.02774 3.34867,-8.24162 1.85693,-1.96418 2.77951,-6.52363 -0.78608,-7.06417 -4.75238,-1.89443 -8.66161,-5.49037 -11.82244,-9.56028 -3.42312,-1.84389 -5.57251,-2.34757 -9.22352,-3.52221 -0.22227,-0.0725 -0.52741,1.91762 -1.19294,1.911 -0.91008,-0.009 0.20995,-2.54565 -1.76745,-2.47029 -0.33122,1.0905 -2.22212,2.81511 -3.52167,3.18673 -0.50159,-0.81833 -2.28262,-2.53614 -2.15383,-3.92454 -0.0589,-2.79672 -3.63153,-2.86556 -2.26387,-5.52578 -0.81697,-2.34386 -4.09917,3.44106 -5.43947,-0.51817 -0.79243,-3.43943 -0.93028,-9.26673 -4.10333,-9.92121 -1.52915,-0.60557 -4.0873,-1.69463 -5.98979,-1.61701 z m 19.63736,9.66815 c 0.3142,0.0984 1.71745,-0.32941 3.26245,-0.30478 1.45606,0.0236 3.88568,1.22184 4.32623,0.83971 -0.68645,-2.27602 -5.52777,-1.85757 -5.43675,-1.84697 -0.73147,0.61544 -2.67544,1.1155 -2.15193,1.31204 z m 15.93872,4.32687 c -0.12092,0.21357 -0.73582,0.26692 -0.73654,-0.17091 0.24165,-0.42316 0.71199,-0.0598 0.73654,0.17091 z m -2.92443,-0.84414 c -2.74926,-0.0851 -0.94196,-1.48522 -2.40164,-1.45352 -1.02321,0.0217 -0.7331,1.09629 -2.50689,0.931 1.63078,0.76797 1.74064,0.57894 2.8767,1.18578 1.6122,-0.0954 2.60235,-0.0725 2.03183,-0.66326 z"
           id="path20231"
           inkscape:connector-curvature="0" />
        <path
           style="opacity:0.87980772;fill:url(#linearGradient20239);fill-opacity:1;stroke:none"
           d="m 847.16792,758.59388 c 3.13845,1.65749 7.34032,4.24345 9.19436,5.91688 2.13544,1.1261 5.62324,4.03105 8.67356,6.32011 0,0 -4.21908,-4.75863 -8.01509,-7.46469 -3.03937,-2.09794 -6.46838,-3.56885 -9.85283,-4.7723 z m 15.59037,8.4177 4.09753,5.0154 3.65237,3.8048 -3.02289,-4.3467 z m -8.13284,-2.24205 c -5.11467,-3.20856 -14.27779,-7.52927 -14.27779,-7.52927 0,0 4.48012,4.83652 6.16578,10.75349 1.68574,5.91706 -0.50776,10.42226 -0.50776,10.42226 0,0 6.68603,1.226 14.82331,6.56077 8.2456,5.40568 12.87127,16.5816 12.87127,16.5816 0,0 0.47179,-6.27365 -2.05212,-15.21848 -2.52382,-8.94483 -6.00491,-13.65871 -6.00491,-13.65871 0,0 -5.90311,-4.7032 -11.01778,-7.91166 z m 12.99916,9.48664 c 1.84099,3.30058 4.12651,6.80395 4.86188,9.64414 1.58956,2.65326 2.90703,7.14542 4.23611,12.25936 0,0 -0.17291,-9.44778 -2.35038,-13.19679 -2.22674,-3.62021 -6.74761,-8.70671 -6.74761,-8.70671 z"
           id="path20233"
           inkscape:connector-curvature="0"
           sodipodi:nodetypes="cccccccccczczcsczczccccc" />
      </g>
    </g>
    <g
       id="g5760"
       transform="matrix(0.90956717,0,0,0.90956717,-3.884434,89.52332)">
      <text
         id="text66785"
         y="922.84204"
         x="76.412865"
         style="font-style:normal;font-variant:normal;font-weight:300;font-stretch:normal;line-height:0%;font-family:Lato;-inkscape-font-specification:'Lato, Light';text-align:start;letter-spacing:0px;word-spacing:0px;writing-mode:lr-tb;text-anchor:start;fill:#ffffff;fill-opacity:1;stroke:none;stroke-width:1px;stroke-linecap:butt;stroke-linejoin:miter;stroke-opacity:1"
         xml:space="preserve"><tspan
           y="922.84204"
           x="76.412865"
           id="tspan66787"
           sodipodi:role="line"
           style="font-size:74.9460907px;line-height:1.25">08</tspan></text>
      <text
         xml:space="preserve"
         style="font-style:normal;font-variant:normal;font-weight:900;font-stretch:normal;line-height:0%;font-family:Lato;-inkscape-font-specification:'Lato, Heavy';text-align:center;letter-spacing:0px;word-spacing:0px;writing-mode:lr-tb;text-anchor:middle;fill:#ffffff;fill-opacity:1;stroke:none;stroke-width:1px;stroke-linecap:butt;stroke-linejoin:miter;stroke-opacity:1"
         x="119.9241"
         y="959.05554"
         id="text4702"><tspan
           sodipodi:role="line"
           id="tspan4704"
           style="font-style:normal;font-variant:normal;font-weight:900;font-stretch:normal;font-size:32.909729px;line-height:125%;font-family:Lato;-inkscape-font-specification:'Lato, Heavy';text-align:center;letter-spacing:0px;writing-mode:lr-tb;text-anchor:middle;fill:#ffffff"
           x="119.9241"
           y="959.05554">ABRIL</tspan></text>
      <path
         inkscape:connector-curvature="0"
         id="path8085"
         d="m 165.99318,893.11721 h 14.457 V 1022.5552 H 59.374183 v -129.43799 0 h 15.0976"
         style="opacity:1;fill:none;fill-opacity:1;stroke:#ffffff;stroke-width:1.79617095;stroke-miterlimit:4;stroke-dasharray:none;stroke-opacity:1" />
      <text
         id="text66870"
         y="986.23456"
         x="119.02102"
         style="font-style:normal;font-weight:normal;line-height:0%;font-family:sans-serif;letter-spacing:0px;word-spacing:0px;fill:#ffffff;fill-opacity:1;stroke:none;stroke-width:1px;stroke-linecap:butt;stroke-linejoin:miter;stroke-opacity:1"
         xml:space="preserve"><tspan
           id="tspan4720"
           y="986.23456"
           x="119.02102"
           style="font-style:normal;font-variant:normal;font-weight:500;font-stretch:normal;font-size:22.4537487px;line-height:100%;font-family:Lato;-inkscape-font-specification:'Lato, Medium';text-align:center;letter-spacing:0px;writing-mode:lr-tb;text-anchor:middle;fill:#ffffff"
           sodipodi:role="line">NO SEPT</tspan><tspan
           id="tspan5706"
           y="1008.6883"
           x="119.02102"
           style="font-style:normal;font-variant:normal;font-weight:500;font-stretch:normal;font-size:22.4537487px;line-height:100%;font-family:Lato;-inkscape-font-specification:'Lato, Medium';text-align:center;letter-spacing:0px;writing-mode:lr-tb;text-anchor:middle;fill:#ffffff"
           sodipodi:role="line">DA UFPR</tspan></text>
    </g>
    <g
       style="font-style:normal;font-variant:normal;font-weight:normal;font-stretch:normal;font-size:74.36846924px;line-height:125%;font-family:Lato;-inkscape-font-specification:'Lato, Normal';text-align:start;letter-spacing:0px;word-spacing:0px;writing-mode:lr-tb;text-anchor:start;fill:#ffcc00;fill-opacity:1;stroke:none;stroke-width:1px;stroke-linecap:butt;stroke-linejoin:miter;stroke-opacity:1"
       id="text4722">
      <path
         d="m 836.93231,914.1557 v 45.64511 q 0,1.67038 0.36313,2.25138 0.36312,0.58101 1.56144,1.19832 0.18157,0.0726 0.54469,0.21788 1.34357,0.50838 1.34357,1.48882 v 2.06983 h -14.81559 v -2.06983 q 0,-0.98044 1.37988,-1.48882 0.36313,-0.14525 0.58101,-0.25419 1.12569,-0.54469 1.45251,-1.08938 0.36313,-0.581 0.36313,-2.32401 v -38.67306 h -5.4106 v -3.4134 l 7.87986,-3.55865 z"
         style="font-style:normal;font-variant:normal;font-weight:normal;font-stretch:condensed;font-size:74.36846924px;line-height:125%;font-family:'Cheltenhm XBdCn BT';-inkscape-font-specification:'Cheltenhm XBdCn BT, Condensed';text-align:start;letter-spacing:0px;writing-mode:lr-tb;text-anchor:start;fill:#ffcc00"
         id="path6357"
         inkscape:connector-curvature="0" />
      <path
         d="m 864.63892,938.23104 q 4.64803,1.4162 7.22623,5.08379 2.57821,3.63127 2.57821,8.82399 0,7.33517 -3.84915,11.58376 -3.84915,4.21228 -10.56701,4.21228 -5.08378,0 -8.17036,-2.36033 -3.05027,-2.39664 -3.05027,-6.20948 0,-2.25139 1.30726,-3.74021 1.30726,-1.52513 3.23183,-1.52513 2.03352,0 3.23184,1.12569 1.19832,1.08938 1.19832,2.94133 0,1.16201 -0.50838,2.14245 -0.47207,0.94413 -1.45251,1.7067 0.72625,0.79888 1.74301,1.19832 1.01676,0.39944 2.25139,0.39944 3.05027,0 4.50278,-2.68714 1.45251,-2.72345 1.45251,-8.46087 0,-6.46366 -1.85195,-9.25974 -1.81564,-2.79608 -6.13685,-3.08658 l 0.0363,-4.03072 q 3.9944,-0.0726 5.91897,-2.25139 1.96089,-2.21507 1.96089,-6.75416 0,-4.53909 -1.19832,-6.68155 -1.16201,-2.14245 -3.66759,-2.14245 -1.162,0 -2.06982,0.43576 -0.87151,0.43575 -1.56145,1.34357 0.83519,0.581 1.23463,1.41619 0.39944,0.8352 0.39944,1.92458 0,1.74301 -1.162,2.79608 -1.16201,1.05307 -3.15921,1.05307 -1.85195,0 -2.97764,-1.1257 -1.08939,-1.162 -1.08939,-3.08658 0,-3.84915 3.08659,-6.35473 3.08658,-2.50558 7.91617,-2.50558 5.51954,0 8.82399,3.26815 3.30446,3.23183 3.30446,8.64243 0,4.53909 -2.21507,7.55305 -2.21508,3.01395 -6.71786,4.61171 z"
         style="font-style:normal;font-variant:normal;font-weight:normal;font-stretch:condensed;font-size:74.36846924px;line-height:125%;font-family:'Cheltenhm XBdCn BT';-inkscape-font-specification:'Cheltenhm XBdCn BT, Condensed';text-align:start;letter-spacing:0px;writing-mode:lr-tb;text-anchor:start;fill:#ffcc00"
         id="path6359"
         inkscape:connector-curvature="0" />
    </g>
    <path
       style="opacity:1;fill:#ffcc00;fill-opacity:1;stroke:none;stroke-width:1.89046311;stroke-miterlimit:4;stroke-dasharray:none;stroke-opacity:1"
       d="m 849.43443,965.88752 a 89.72436,39.907423 0 0 0 -73.06515,16.79671 124.89008,39.763243 0 0 1 73.06515,-7.57756 124.89008,39.763243 0 0 1 72.93517,7.53061 89.72436,39.907423 0 0 0 -72.93517,-16.74976 z"
       id="path6209"
       inkscape:connector-curvature="0" />
    <g
       style="font-style:normal;font-weight:normal;font-size:15.49371815px;line-height:125%;font-family:sans-serif;letter-spacing:0px;word-spacing:0px;fill:#ffcc00;fill-opacity:1;stroke:none;stroke-width:1px;stroke-linecap:butt;stroke-linejoin:miter;stroke-opacity:1"
       id="text6214">
      <path
         d="m 794.20548,998.63903 c -0.10845,0.29438 -0.20142,0.40284 -0.46481,0.43383 l -0.51129,0.0465 v 1.25494 h 3.57905 v -1.31692 l -0.92963,-0.0465 0.46482,-1.36345 h 3.62553 l 0.32536,0.96061 c 0.10846,0.34087 -0.0465,0.43383 -0.37184,0.46482 l -0.58877,0.0465 v 1.25494 h 3.99738 v -1.31692 l -0.88314,-0.0465 h -0.0155 l -3.16072,-8.93987 h -3.54806 v 1.25499 l 0.9761,0.093 -2.49449,7.22007 z m 3.9509,-6.83273 h 0.0465 l 1.39444,4.41571 h -2.88183 l 1.44091,-4.41571 z"
         style="font-style:normal;font-variant:normal;font-weight:normal;font-stretch:normal;font-size:15.49371815px;line-height:125%;font-family:'Bree Serif';-inkscape-font-specification:'Bree Serif, Normal';text-align:center;writing-mode:lr-tb;text-anchor:middle;fill:#ffcc00"
         id="path6310"
         inkscape:connector-curvature="0" />
      <path
         d="m 803.82878,993.82049 0.65073,0.0465 c 0.27889,0.0155 0.38735,0.13944 0.38735,0.4803 v 4.29176 c 0,0.38735 -0.15494,0.48031 -0.44932,0.51129 l -0.51129,0.0465 v 1.17746 h 3.6875 v -1.23944 l -0.88314,-0.0465 v -3.74948 c 0,-0.80567 0.57327,-1.56487 1.59585,-1.56487 1.05357,0 1.27049,0.65074 1.27049,1.67333 v 3.1917 c 0,0.38735 -0.15494,0.48031 -0.44932,0.51129 l -0.51129,0.0465 v 1.17747 h 3.6875 v -1.23945 l -0.88314,-0.0465 v -4.04386 c 0,-1.82826 -0.91413,-2.69591 -2.4635,-2.69591 -1.02259,0 -1.9677,0.46481 -2.50998,1.2395 v -1.00709 h -2.61844 z"
         style="font-style:normal;font-variant:normal;font-weight:normal;font-stretch:normal;font-size:15.49371815px;line-height:125%;font-family:'Bree Serif';-inkscape-font-specification:'Bree Serif, Normal';text-align:center;writing-mode:lr-tb;text-anchor:middle;fill:#ffcc00"
         id="path6312"
         inkscape:connector-curvature="0" />
      <path
         d="m 816.6393,999.24329 c -1.4874,0 -1.68882,-1.54937 -1.68882,-2.99029 0,-1.4874 0.4958,-2.54097 1.71981,-2.54097 1.23949,0 1.65782,1.06907 1.65782,2.80436 0,1.61135 -0.4803,2.7269 -1.68881,2.7269 z m -3.56356,-2.77338 c 0,2.80436 1.36345,4.13679 3.43961,4.13679 2.04517,0 3.703,-1.36341 3.703,-4.33821 0,-3.56355 -2.30857,-3.91991 -3.4551,-3.91991 -1.59585,0 -3.68751,0.89864 -3.68751,4.12133 z"
         style="font-style:normal;font-variant:normal;font-weight:normal;font-stretch:normal;font-size:15.49371815px;line-height:125%;font-family:'Bree Serif';-inkscape-font-specification:'Bree Serif, Normal';text-align:center;writing-mode:lr-tb;text-anchor:middle;fill:#ffcc00"
         id="path6314"
         inkscape:connector-curvature="0" />
      <path
         d="m 825.32074,993.75851 c 0.27889,0.10846 0.35636,0.23241 0.35636,0.52679 v 0.65073 l 1.39443,-0.10845 v -1.85925 c -0.60425,-0.29438 -1.51838,-0.61975 -2.57195,-0.61975 -1.62684,0 -2.99029,0.85216 -2.99029,2.4635 0,1.71981 1.25499,2.10715 2.40153,2.40153 0.83666,0.21691 1.51838,0.35636 1.51838,1.10005 0,0.65074 -0.44932,0.94512 -1.224,0.94512 -0.37185,0 -0.72821,-0.0465 -1.02259,-0.15494 -0.27889,-0.10845 -0.35635,-0.2324 -0.35635,-0.52678 v -0.7437 l -1.39444,0.10845 v 2.15359 c 0.65074,0.3254 1.87474,0.4803 2.85084,0.4803 1.65783,0 2.99029,-0.8676 2.99029,-2.47895 0,-1.68881 -1.33246,-2.07616 -2.54097,-2.41702 -0.7282,-0.20142 -1.4719,-0.41833 -1.4719,-1.13104 0,-0.61975 0.4958,-0.92962 1.16203,-0.92962 0.37185,0 0.60425,0.031 0.89863,0.13944 z"
         style="font-style:normal;font-variant:normal;font-weight:normal;font-stretch:normal;font-size:15.49371815px;line-height:125%;font-family:'Bree Serif';-inkscape-font-specification:'Bree Serif, Normal';text-align:center;writing-mode:lr-tb;text-anchor:middle;fill:#ffcc00"
         id="path6316"
         inkscape:connector-curvature="0" />
      <path
         d="m 832.28348,998.56156 c 0,0.38735 -0.15494,0.48031 -0.44932,0.5113 l -0.51129,0.0465 v 1.25494 h 3.74947 v -1.31692 l -0.88314,-0.0465 v -7.1426 c 0,-0.37185 0.18593,-0.46481 0.44932,-0.4958 l 0.51129,-0.0465 v -1.25499 h -3.74948 v 1.31696 l 0.88315,0.0465 z"
         style="font-style:normal;font-variant:normal;font-weight:normal;font-stretch:normal;font-size:15.49371815px;line-height:125%;font-family:'Bree Serif';-inkscape-font-specification:'Bree Serif, Normal';text-align:center;writing-mode:lr-tb;text-anchor:middle;fill:#ffcc00"
         id="path6318"
         inkscape:connector-curvature="0" />
      <path
         d="m 835.9964,993.82049 0.65074,0.0465 c 0.27888,0.0155 0.38734,0.13944 0.38734,0.4803 v 4.29176 c 0,0.38735 -0.15494,0.48031 -0.44932,0.51129 l -0.51129,0.0465 v 1.17746 h 3.6875 v -1.23944 l -0.88314,-0.0465 v -3.74948 c 0,-0.80567 0.57327,-1.56487 1.59585,-1.56487 1.05358,0 1.27049,0.65074 1.27049,1.67333 v 3.1917 c 0,0.38735 -0.15494,0.48031 -0.44932,0.51129 l -0.51129,0.0465 v 1.17747 h 3.6875 v -1.23945 l -0.88314,-0.0465 v -4.04386 c 0,-1.82826 -0.91413,-2.69591 -2.4635,-2.69591 -1.02258,0 -1.9677,0.46481 -2.50998,1.2395 v -1.00709 h -2.61844 z"
         style="font-style:normal;font-variant:normal;font-weight:normal;font-stretch:normal;font-size:15.49371815px;line-height:125%;font-family:'Bree Serif';-inkscape-font-specification:'Bree Serif, Normal';text-align:center;writing-mode:lr-tb;text-anchor:middle;fill:#ffcc00"
         id="path6320"
         inkscape:connector-curvature="0" />
      <path
         d="m 849.43889,993.75851 c 0.27889,0.10846 0.35636,0.23241 0.35636,0.52679 v 0.65073 l 1.39443,-0.10845 v -1.85925 c -0.60425,-0.29438 -1.51838,-0.61975 -2.57195,-0.61975 -1.62684,0 -2.99029,0.85216 -2.99029,2.4635 0,1.71981 1.25499,2.10715 2.40152,2.40153 0.83667,0.21691 1.51839,0.35636 1.51839,1.10005 0,0.65074 -0.44932,0.94512 -1.22401,0.94512 -0.37184,0 -0.7282,-0.0465 -1.02258,-0.15494 -0.27889,-0.10845 -0.35636,-0.2324 -0.35636,-0.52678 v -0.7437 l -1.39443,0.10845 v 2.15359 c 0.65074,0.3254 1.87474,0.4803 2.85084,0.4803 1.65783,0 2.99029,-0.8676 2.99029,-2.47895 0,-1.68881 -1.33246,-2.07616 -2.54097,-2.41702 -0.7282,-0.20142 -1.4719,-0.41833 -1.4719,-1.13104 0,-0.61975 0.4958,-0.92962 1.16203,-0.92962 0.37185,0 0.60425,0.031 0.89863,0.13944 z"
         style="font-style:normal;font-variant:normal;font-weight:normal;font-stretch:normal;font-size:15.49371815px;line-height:125%;font-family:'Bree Serif';-inkscape-font-specification:'Bree Serif, Normal';text-align:center;writing-mode:lr-tb;text-anchor:middle;fill:#ffcc00"
         id="path6322"
         inkscape:connector-curvature="0" />
      <path
         d="m 853.9535,990.93865 c -0.32537,0.88315 -0.69722,1.71981 -1.78178,1.81277 l -0.15494,1.13104 h 1.10006 v 4.13682 c 0,1.08456 -0.0155,2.57192 2.40152,2.57192 0.72821,0 1.50289,-0.2169 1.96771,-0.5422 l -0.46482,-1.19306 c -0.2479,0.15494 -0.63524,0.32537 -1.05357,0.32537 -0.63524,0 -1.00709,-0.27888 -1.00709,-1.224 v -4.07485 h 1.90573 l 0.15493,-1.30147 h -2.06066 v -1.64234 z"
         style="font-style:normal;font-variant:normal;font-weight:normal;font-stretch:normal;font-size:15.49371815px;line-height:125%;font-family:'Bree Serif';-inkscape-font-specification:'Bree Serif, Normal';text-align:center;writing-mode:lr-tb;text-anchor:middle;fill:#ffcc00"
         id="path6324"
         inkscape:connector-curvature="0" />
      <path
         d="m 865.04591,992.89086 c -1.11555,-0.41833 -2.24659,-0.54228 -2.75788,-0.54228 -2.78887,0 -4.09035,1.7353 -4.09035,4.46219 0,2.21561 0.91413,3.76493 3.09875,3.76493 0.85215,0 1.64233,-0.4183 2.12264,-1.1155 l 0.0465,0.0155 v 0.8986 h 2.4635 v -1.23946 l -0.4958,-0.031 c -0.29438,-0.0155 -0.38734,-0.10845 -0.38734,-0.44931 v -5.76367 z m -1.79727,5.01997 c 0,0.66623 -0.58876,1.34795 -1.54938,1.34795 -1.30147,0 -1.61134,-1.224 -1.61134,-2.50998 0,-1.67332 0.4958,-3.05226 1.9677,-3.05226 0.48031,0 0.96061,0.093 1.19302,0.20141 z"
         style="font-style:normal;font-variant:normal;font-weight:normal;font-stretch:normal;font-size:15.49371815px;line-height:125%;font-family:'Bree Serif';-inkscape-font-specification:'Bree Serif, Normal';text-align:center;writing-mode:lr-tb;text-anchor:middle;fill:#ffcc00"
         id="path6326"
         inkscape:connector-curvature="0" />
      <path
         d="m 869.63835,989.32731 h -2.77338 v 1.28598 l 0.54228,0.031 c 0.23241,0.0155 0.38734,0.093 0.38734,0.37185 v 7.63841 c 0,0.37185 -0.17043,0.46481 -0.44931,0.49579 l -0.5113,0.0465 v 1.17746 h 3.68751 v -1.23944 l -0.88314,-0.0465 v -9.76104 z"
         style="font-style:normal;font-variant:normal;font-weight:normal;font-stretch:normal;font-size:15.49371815px;line-height:125%;font-family:'Bree Serif';-inkscape-font-specification:'Bree Serif, Normal';text-align:center;writing-mode:lr-tb;text-anchor:middle;fill:#ffcc00"
         id="path6328"
         inkscape:connector-curvature="0" />
      <path
         d="m 878.45161,992.89086 c -1.11555,-0.41833 -2.24659,-0.54228 -2.75788,-0.54228 -2.78887,0 -4.09034,1.7353 -4.09034,4.46219 0,2.21561 0.91412,3.76493 3.09874,3.76493 0.85215,0 1.64233,-0.4183 2.12264,-1.1155 l 0.0465,0.0155 v 0.8986 h 2.4635 v -1.23946 l -0.4958,-0.031 c -0.29438,-0.0155 -0.38734,-0.10845 -0.38734,-0.44931 v -5.76367 z m -1.79727,5.01997 c 0,0.66623 -0.58876,1.34795 -1.54937,1.34795 -1.30148,0 -1.61135,-1.224 -1.61135,-2.50998 0,-1.67332 0.4958,-3.05226 1.9677,-3.05226 0.48031,0 0.96061,0.093 1.19302,0.20141 z"
         style="font-style:normal;font-variant:normal;font-weight:normal;font-stretch:normal;font-size:15.49371815px;line-height:125%;font-family:'Bree Serif';-inkscape-font-specification:'Bree Serif, Normal';text-align:center;writing-mode:lr-tb;text-anchor:middle;fill:#ffcc00"
         id="path6330"
         inkscape:connector-curvature="0" />
      <path
         d="m 880.1777,993.82049 0.65074,0.0465 c 0.27888,0.0155 0.38734,0.13944 0.38734,0.4803 v 4.29176 c 0,0.38735 -0.15494,0.48031 -0.44932,0.51129 l -0.51129,0.0465 v 1.17746 h 3.6875 v -1.23944 l -0.88314,-0.0465 v -3.74948 c 0,-0.80567 0.57327,-1.56487 1.59586,-1.56487 1.05357,0 1.27048,0.65074 1.27048,1.67333 v 3.1917 c 0,0.38735 -0.15494,0.48031 -0.44932,0.51129 l -0.51129,0.0465 v 1.17747 h 3.6875 v -1.23945 l -0.88314,-0.0465 v -4.04386 c 0,-1.82826 -0.91413,-2.69591 -2.4635,-2.69591 -1.02258,0 -1.9677,0.46481 -2.50998,1.2395 v -1.00709 h -2.61844 z"
         style="font-style:normal;font-variant:normal;font-weight:normal;font-stretch:normal;font-size:15.49371815px;line-height:125%;font-family:'Bree Serif';-inkscape-font-specification:'Bree Serif, Normal';text-align:center;writing-mode:lr-tb;text-anchor:middle;fill:#ffcc00"
         id="path6332"
         inkscape:connector-curvature="0" />
      <path
         d="m 893.44977,992.34858 c -2.41702,0 -3.78047,1.78178 -3.78047,4.43121 0,1.93671 0.71271,3.79591 3.12973,3.79591 0.85216,0 1.62684,-0.3563 2.10715,-1.13099 l 0.0465,0.0155 v 0.91409 h 2.50998 v -1.23946 l -0.54228,-0.031 c -0.26339,0 -0.37185,-0.093 -0.38734,-0.35635 v -9.42018 h -2.88183 v 1.224 l 0.66623,0.0465 c 0.26339,0.0155 0.40284,0.10846 0.40284,0.37185 v 1.56487 c -0.35636,-0.10846 -0.72821,-0.18593 -1.27049,-0.18593 z m 1.27049,5.60873 c 0,0.68172 -0.60426,1.25499 -1.47191,1.25499 -1.33246,0 -1.67332,-1.19302 -1.67332,-2.60294 0,-1.51839 0.4958,-2.91282 1.9677,-2.91282 0.48031,0 0.89864,0.12395 1.17753,0.2479 z"
         style="font-style:normal;font-variant:normal;font-weight:normal;font-stretch:normal;font-size:15.49371815px;line-height:125%;font-family:'Bree Serif';-inkscape-font-specification:'Bree Serif, Normal';text-align:center;writing-mode:lr-tb;text-anchor:middle;fill:#ffcc00"
         id="path6334"
         inkscape:connector-curvature="0" />
      <path
         d="m 901.9304,999.24329 c -1.48739,0 -1.68881,-1.54937 -1.68881,-2.99029 0,-1.4874 0.4958,-2.54097 1.7198,-2.54097 1.2395,0 1.65783,1.06907 1.65783,2.80436 0,1.61135 -0.48031,2.7269 -1.68882,2.7269 z m -3.56355,-2.77338 c 0,2.80436 1.36344,4.13679 3.4396,4.13679 2.04517,0 3.703,-1.36341 3.703,-4.33821 0,-3.56355 -2.30856,-3.91991 -3.4551,-3.91991 -1.59585,0 -3.6875,0.89864 -3.6875,4.12133 z"
         style="font-style:normal;font-variant:normal;font-weight:normal;font-stretch:normal;font-size:15.49371815px;line-height:125%;font-family:'Bree Serif';-inkscape-font-specification:'Bree Serif, Normal';text-align:center;writing-mode:lr-tb;text-anchor:middle;fill:#ffcc00"
         id="path6336"
         inkscape:connector-curvature="0" />
      <path
         d="m 822.38674,1019.7415 v -3.0678 l -1.58036,-0.1084 v 1.0845 c 0,0.2944 -0.031,0.4958 -0.35635,0.4958 h -2.57196 v -6.9102 c 0,-0.3718 0.18592,-0.4648 0.44932,-0.4958 l 0.51129,-0.047 v -1.2549 h -3.73399 v 1.3169 l 0.88315,0.047 v 7.2046 c 0,0.3099 -0.18593,0.4028 -0.44932,0.4338 l -0.5113,0.046 v 1.255 h 7.35952 z"
         style="font-style:normal;font-variant:normal;font-weight:normal;font-stretch:normal;font-size:15.49371815px;line-height:125%;font-family:'Bree Serif';-inkscape-font-specification:'Bree Serif, Normal';text-align:center;writing-mode:lr-tb;text-anchor:middle;fill:#ffcc00"
         id="path6338"
         inkscape:connector-curvature="0" />
      <path
         d="m 826.1689,1011.9481 h -2.77337 v 1.286 l 0.54228,0.031 c 0.29438,0 0.38734,0.1085 0.38734,0.4493 v 4.3073 c 0,0.3718 -0.17043,0.4648 -0.44932,0.4958 l -0.51129,0.046 v 1.1775 h 3.6875 v -1.2395 l -0.88314,-0.046 z m -2.27757,-2.1536 c 0,0.6507 0.46481,1.1311 1.17752,1.1311 0.69722,0 1.19302,-0.4804 1.19302,-1.1311 0,-0.6507 -0.4958,-1.162 -1.17753,-1.162 -0.7282,0 -1.19301,0.5113 -1.19301,1.162 z"
         style="font-style:normal;font-variant:normal;font-weight:normal;font-stretch:normal;font-size:15.49371815px;line-height:125%;font-family:'Bree Serif';-inkscape-font-specification:'Bree Serif, Normal';text-align:center;writing-mode:lr-tb;text-anchor:middle;fill:#ffcc00"
         id="path6340"
         inkscape:connector-curvature="0" />
      <path
         d="m 828.64596,1019.2767 c 0.65074,0.3718 1.99869,0.6662 3.08325,0.6662 2.49449,0 3.74948,-1.4564 3.74948,-4.4777 0,-2.417 -1.2395,-3.7495 -3.16072,-3.7495 -0.7282,0 -1.44091,0.2479 -1.87474,0.6508 v -3.672 h -2.72689 v 1.2859 l 0.54228,0.031 c 0.26339,0.015 0.38734,0.1085 0.38734,0.3719 z m 1.79727,-5.02 c 0,-0.6972 0.68173,-1.162 1.39444,-1.162 1.44091,0 1.73529,1.4099 1.73529,2.6184 0,2.1226 -0.68172,2.8663 -1.76628,2.8663 -0.51129,0 -1.06907,-0.1549 -1.36345,-0.3098 z"
         style="font-style:normal;font-variant:normal;font-weight:normal;font-stretch:normal;font-size:15.49371815px;line-height:125%;font-family:'Bree Serif';-inkscape-font-specification:'Bree Serif, Normal';text-align:center;writing-mode:lr-tb;text-anchor:middle;fill:#ffcc00"
         id="path6342"
         inkscape:connector-curvature="0" />
      <path
         d="m 840.47759,1011.7157 c -2.54097,0 -3.82694,2.0142 -3.82694,4.3073 0,2.3085 1.02258,3.9199 3.65651,3.9199 1.45641,0 2.479,-0.6507 2.7269,-0.8677 l -0.58876,-1.2549 c -0.37185,0.2633 -1.03808,0.6817 -1.95221,0.6817 -1.31697,0 -1.84376,-0.8212 -1.90573,-1.8283 1.82826,-0.016 4.41571,-0.4183 4.41571,-2.8043 0,-1.379 -1.00709,-2.1537 -2.52548,-2.1537 z m 0.82117,2.1846 c 0,1.1931 -1.62684,1.4565 -2.77337,1.4719 0.0465,-1.1465 0.60425,-2.3395 1.84375,-2.3395 0.55777,0 0.92962,0.2944 0.92962,0.8676 z"
         style="font-style:normal;font-variant:normal;font-weight:normal;font-stretch:normal;font-size:15.49371815px;line-height:125%;font-family:'Bree Serif';-inkscape-font-specification:'Bree Serif, Normal';text-align:center;writing-mode:lr-tb;text-anchor:middle;fill:#ffcc00"
         id="path6344"
         inkscape:connector-curvature="0" />
      <path
         d="m 845.05405,1018.0062 c 0,0.3873 -0.15494,0.4803 -0.44932,0.5113 l -0.51129,0.046 v 1.1775 h 4.15232 v -1.224 l -1.34796,-0.062 v -3.5945 c 0,-0.8987 0.57327,-1.5649 1.40993,-1.5649 0.17043,0 0.27889,0.015 0.41833,0.077 0.12395,0.062 0.15494,0.2014 0.15494,0.3873 v 0.7127 l 1.44091,-0.1084 v -2.3086 c -0.51129,-0.2479 -0.9761,-0.3409 -1.48739,-0.3409 -1.02259,0 -1.84376,0.6198 -2.20011,1.3945 v -1.1621 h -2.61844 v 1.255 l 0.65074,0.047 c 0.29438,0.015 0.38734,0.124 0.38734,0.4648 v 4.2918 z"
         style="font-style:normal;font-variant:normal;font-weight:normal;font-stretch:normal;font-size:15.49371815px;line-height:125%;font-family:'Bree Serif';-inkscape-font-specification:'Bree Serif, Normal';text-align:center;writing-mode:lr-tb;text-anchor:middle;fill:#ffcc00"
         id="path6346"
         inkscape:connector-curvature="0" />
      <path
         d="m 855.15426,1011.7157 c -2.41702,0 -3.78047,1.7818 -3.78047,4.4312 0,1.9367 0.71271,3.796 3.12973,3.796 0.85216,0 1.62684,-0.3564 2.10715,-1.131 l 0.0465,0.015 v 0.9142 h 2.50998 v -1.2395 l -0.54228,-0.031 c -0.26339,0 -0.37185,-0.093 -0.38734,-0.3564 v -9.4201 h -2.88183 v 1.224 l 0.66623,0.046 c 0.26339,0.016 0.40283,0.1085 0.40283,0.3719 v 1.5649 c -0.35635,-0.1085 -0.7282,-0.186 -1.27048,-0.186 z m 1.27048,5.6088 c 0,0.6817 -0.60425,1.2549 -1.4719,1.2549 -1.33246,0 -1.67332,-1.193 -1.67332,-2.6029 0,-1.5184 0.4958,-2.9128 1.9677,-2.9128 0.48031,0 0.89864,0.1239 1.17752,0.2479 z"
         style="font-style:normal;font-variant:normal;font-weight:normal;font-stretch:normal;font-size:15.49371815px;line-height:125%;font-family:'Bree Serif';-inkscape-font-specification:'Bree Serif, Normal';text-align:center;writing-mode:lr-tb;text-anchor:middle;fill:#ffcc00"
         id="path6348"
         inkscape:connector-curvature="0" />
      <path
         d="m 867.02802,1012.258 c -1.11555,-0.4183 -2.24659,-0.5423 -2.75789,-0.5423 -2.78887,0 -4.09034,1.7353 -4.09034,4.4622 0,2.2156 0.91413,3.765 3.09875,3.765 0.85215,0 1.64233,-0.4183 2.12264,-1.1156 l 0.0465,0.015 v 0.8987 h 2.4635 v -1.2395 l -0.4958,-0.031 c -0.29438,-0.015 -0.38734,-0.1085 -0.38734,-0.4493 v -5.7637 z m -1.79728,5.02 c 0,0.6662 -0.58876,1.3479 -1.54937,1.3479 -1.30147,0 -1.61134,-1.224 -1.61134,-2.51 0,-1.6733 0.4958,-3.0522 1.9677,-3.0522 0.4803,0 0.96061,0.093 1.19301,0.2014 z"
         style="font-style:normal;font-variant:normal;font-weight:normal;font-stretch:normal;font-size:15.49371815px;line-height:125%;font-family:'Bree Serif';-inkscape-font-specification:'Bree Serif, Normal';text-align:center;writing-mode:lr-tb;text-anchor:middle;fill:#ffcc00"
         id="path6350"
         inkscape:connector-curvature="0" />
      <path
         d="m 872.736,1011.7157 c -2.41702,0 -3.78047,1.7818 -3.78047,4.4312 0,1.9367 0.71271,3.796 3.12973,3.796 0.85216,0 1.62684,-0.3564 2.10715,-1.131 l 0.0465,0.015 v 0.9142 h 2.50998 v -1.2395 l -0.54228,-0.031 c -0.26339,0 -0.37185,-0.093 -0.38734,-0.3564 v -9.4201 h -2.88183 v 1.224 l 0.66623,0.046 c 0.26339,0.016 0.40283,0.1085 0.40283,0.3719 v 1.5649 c -0.35635,-0.1085 -0.7282,-0.186 -1.27048,-0.186 z m 1.27048,5.6088 c 0,0.6817 -0.60425,1.2549 -1.4719,1.2549 -1.33246,0 -1.67332,-1.193 -1.67332,-2.6029 0,-1.5184 0.4958,-2.9128 1.9677,-2.9128 0.4803,0 0.89864,0.1239 1.17752,0.2479 z"
         style="font-style:normal;font-variant:normal;font-weight:normal;font-stretch:normal;font-size:15.49371815px;line-height:125%;font-family:'Bree Serif';-inkscape-font-specification:'Bree Serif, Normal';text-align:center;writing-mode:lr-tb;text-anchor:middle;fill:#ffcc00"
         id="path6352"
         inkscape:connector-curvature="0" />
      <path
         d="m 881.542,1011.7157 c -2.54097,0 -3.82695,2.0142 -3.82695,4.3073 0,2.3085 1.02258,3.9199 3.65652,3.9199 1.45641,0 2.47899,-0.6507 2.72689,-0.8677 l -0.58876,-1.2549 c -0.37185,0.2633 -1.03808,0.6817 -1.95221,0.6817 -1.31697,0 -1.84375,-0.8212 -1.90573,-1.8283 1.82826,-0.016 4.41571,-0.4183 4.41571,-2.8043 0,-1.379 -1.00709,-2.1537 -2.52547,-2.1537 z m 0.82116,2.1846 c 0,1.1931 -1.62684,1.4565 -2.77337,1.4719 0.0465,-1.1465 0.60425,-2.3395 1.84375,-2.3395 0.55777,0 0.92962,0.2944 0.92962,0.8676 z"
         style="font-style:normal;font-variant:normal;font-weight:normal;font-stretch:normal;font-size:15.49371815px;line-height:125%;font-family:'Bree Serif';-inkscape-font-specification:'Bree Serif, Normal';text-align:center;writing-mode:lr-tb;text-anchor:middle;fill:#ffcc00"
         id="path6354"
         inkscape:connector-curvature="0" />
    </g>
    <text
       xml:space="preserve"
       style="font-style:normal;font-variant:normal;font-weight:900;font-stretch:normal;line-height:0%;font-family:Lato;-inkscape-font-specification:'Lato, Heavy';text-align:start;letter-spacing:0px;word-spacing:0px;writing-mode:lr-tb;text-anchor:start;fill:#ffcc00;fill-opacity:1;stroke:none;stroke-width:1px;stroke-linecap:butt;stroke-linejoin:miter;stroke-opacity:1"
       x="255.26851"
       y="1035.2601"
       id="text4722-1"><tspan
         sodipodi:role="line"
         id="tspan4724-3"
         style="font-style:normal;font-variant:normal;font-weight:900;font-stretch:normal;font-size:14.08033562px;line-height:125%;font-family:Lato;-inkscape-font-specification:'Lato, Heavy';text-align:start;letter-spacing:0px;writing-mode:lr-tb;text-anchor:start;fill:#ffcc00"
         x="255.26851"
         y="1035.2601">INSTALAO GRTIS DE SOFTWARE LIVRE EM SEU COMPUTADOR</tspan></text>
  </g>
</svg>
