<?xml version="1.0" encoding="UTF-8" standalone="no"?>
<!-- Created with Inkscape (http://www.inkscape.org/) -->

<svg
   xmlns:dc="http://purl.org/dc/elements/1.1/"
   xmlns:cc="http://creativecommons.org/ns#"
   xmlns:rdf="http://www.w3.org/1999/02/22-rdf-syntax-ns#"
   xmlns:svg="http://www.w3.org/2000/svg"
   xmlns="http://www.w3.org/2000/svg"
   xmlns:xlink="http://www.w3.org/1999/xlink"
   xmlns:sodipodi="http://sodipodi.sourceforge.net/DTD/sodipodi-0.dtd"
   xmlns:inkscape="http://www.inkscape.org/namespaces/inkscape"
   width="135mm"
   height="65mm"
   viewBox="0 0 478.34644 230.31496"
   id="svg7212"
   version="1.1"
   inkscape:version="0.91 r13725"
   sodipodi:docname="06.svg"
   inkscape:export-filename="/home/angelowz/Ãrea de Trabalho/ghhgh"
   inkscape:export-xdpi="248.22133"
   inkscape:export-ydpi="248.22133">
  <title
     id="title7546">Flisol</title>
  <defs
     id="defs7214">
    <filter
       id="filter14511"
       inkscape:collect="always">
      <feGaussianBlur
         id="feGaussianBlur14513"
         stdDeviation="0.85627009"
         inkscape:collect="always" />
    </filter>
    <filter
       style="color-interpolation-filters:sRGB"
       id="filter14506-80-6-24"
       inkscape:collect="always">
      <feGaussianBlur
         id="feGaussianBlur14508-15-9-58"
         stdDeviation="0.70957443"
         inkscape:collect="always" />
    </filter>
    <filter
       style="color-interpolation-filters:sRGB"
       id="filter14511-1"
       inkscape:collect="always">
      <feGaussianBlur
         id="feGaussianBlur14513-1"
         stdDeviation="0.85627009"
         inkscape:collect="always" />
    </filter>
    <filter
       style="color-interpolation-filters:sRGB"
       id="filter14506-80-6-946"
       inkscape:collect="always">
      <feGaussianBlur
         id="feGaussianBlur14508-15-9-03"
         stdDeviation="0.70957443"
         inkscape:collect="always" />
    </filter>
    <filter
       style="color-interpolation-filters:sRGB"
       id="filter14511-9"
       inkscape:collect="always">
      <feGaussianBlur
         id="feGaussianBlur14513-0"
         stdDeviation="0.85627009"
         inkscape:collect="always" />
    </filter>
    <filter
       style="color-interpolation-filters:sRGB"
       id="filter14511-3"
       inkscape:collect="always">
      <feGaussianBlur
         id="feGaussianBlur14513-8"
         stdDeviation="0.85627009"
         inkscape:collect="always" />
    </filter>
    <filter
       style="color-interpolation-filters:sRGB"
       id="filter14506-80-6-9"
       inkscape:collect="always">
      <feGaussianBlur
         id="feGaussianBlur14508-15-9-7"
         stdDeviation="0.70957443"
         inkscape:collect="always" />
    </filter>
    <filter
       style="color-interpolation-filters:sRGB"
       id="filter14506-80-3-8"
       inkscape:collect="always">
      <feGaussianBlur
         id="feGaussianBlur14508-15-7-9"
         stdDeviation="0.70957443"
         inkscape:collect="always" />
    </filter>
    <filter
       style="color-interpolation-filters:sRGB"
       id="filter14506-80-6"
       inkscape:collect="always">
      <feGaussianBlur
         id="feGaussianBlur14508-15-9"
         stdDeviation="0.70957443"
         inkscape:collect="always" />
    </filter>
    <filter
       style="color-interpolation-filters:sRGB"
       id="filter14506-80-3"
       inkscape:collect="always">
      <feGaussianBlur
         id="feGaussianBlur14508-15-7"
         stdDeviation="0.70957443"
         inkscape:collect="always" />
    </filter>
    <filter
       style="color-interpolation-filters:sRGB"
       id="filter14506-80-6-8"
       inkscape:collect="always">
      <feGaussianBlur
         id="feGaussianBlur14508-15-9-27"
         stdDeviation="0.70957443"
         inkscape:collect="always" />
    </filter>
    <filter
       style="color-interpolation-filters:sRGB"
       id="filter14506-80-6-94"
       inkscape:collect="always">
      <feGaussianBlur
         id="feGaussianBlur14508-15-9-1"
         stdDeviation="0.70957443"
         inkscape:collect="always" />
    </filter>
    <filter
       style="color-interpolation-filters:sRGB"
       id="filter14506-80-6-6"
       inkscape:collect="always">
      <feGaussianBlur
         id="feGaussianBlur14508-15-9-0"
         stdDeviation="0.70957443"
         inkscape:collect="always" />
    </filter>
    <filter
       style="color-interpolation-filters:sRGB"
       id="filter14506-80-6-66"
       inkscape:collect="always">
      <feGaussianBlur
         id="feGaussianBlur14508-15-9-6"
         stdDeviation="0.70957443"
         inkscape:collect="always" />
    </filter>
    <filter
       style="color-interpolation-filters:sRGB"
       id="filter14506-80-6-67"
       inkscape:collect="always">
      <feGaussianBlur
         id="feGaussianBlur14508-15-9-14"
         stdDeviation="0.70957443"
         inkscape:collect="always" />
    </filter>
    <filter
       style="color-interpolation-filters:sRGB"
       id="filter14506-80-6-61"
       inkscape:collect="always">
      <feGaussianBlur
         id="feGaussianBlur14508-15-9-2"
         stdDeviation="0.70957443"
         inkscape:collect="always" />
    </filter>
    <filter
       style="color-interpolation-filters:sRGB"
       id="filter14506-80-6-4"
       inkscape:collect="always">
      <feGaussianBlur
         id="feGaussianBlur14508-15-9-9"
         stdDeviation="0.70957443"
         inkscape:collect="always" />
    </filter>
    <filter
       style="color-interpolation-filters:sRGB"
       id="filter14506-80-6-2"
       inkscape:collect="always">
      <feGaussianBlur
         id="feGaussianBlur14508-15-9-3"
         stdDeviation="0.70957443"
         inkscape:collect="always" />
    </filter>
    <filter
       style="color-interpolation-filters:sRGB"
       id="filter14506-80-6-1"
       inkscape:collect="always">
      <feGaussianBlur
         id="feGaussianBlur14508-15-9-5"
         stdDeviation="0.70957443"
         inkscape:collect="always" />
    </filter>
    <filter
       style="color-interpolation-filters:sRGB"
       id="filter14506-80-6-3"
       inkscape:collect="always">
      <feGaussianBlur
         id="feGaussianBlur14508-15-9-16"
         stdDeviation="0.70957443"
         inkscape:collect="always" />
    </filter>
    <filter
       style="color-interpolation-filters:sRGB"
       id="filter14506-80-6-12"
       inkscape:collect="always">
      <feGaussianBlur
         id="feGaussianBlur14508-15-9-60"
         stdDeviation="0.70957443"
         inkscape:collect="always" />
    </filter>
    <filter
       style="color-interpolation-filters:sRGB"
       id="filter14506-80-6-121"
       inkscape:collect="always">
      <feGaussianBlur
         id="feGaussianBlur14508-15-9-4"
         stdDeviation="0.70957443"
         inkscape:collect="always" />
    </filter>
    <filter
       style="color-interpolation-filters:sRGB"
       id="filter14506-80-6-82"
       inkscape:collect="always">
      <feGaussianBlur
         id="feGaussianBlur14508-15-9-45"
         stdDeviation="0.70957443"
         inkscape:collect="always" />
    </filter>
    <radialGradient
       inkscape:collect="always"
       xlink:href="#linearGradient11737"
       id="radialGradient20235"
       gradientUnits="userSpaceOnUse"
       cx="339.39481"
       cy="170.44995"
       fx="339.39481"
       fy="170.44995"
       r="68.636078"
       gradientTransform="matrix(0.68715852,0,0,0.68715852,293.12742,249.2698)" />
    <linearGradient
       id="linearGradient11737">
      <stop
         id="stop11739"
         offset="0"
         style="stop-color:#ffffff;stop-opacity:0;" />
      <stop
         style="stop-color:#0046af;stop-opacity:0;"
         offset="0.7044031"
         id="stop11741" />
      <stop
         style="stop-color:#0044ab;stop-opacity:0.42352942;"
         offset="0.86842364"
         id="stop11743" />
      <stop
         id="stop11745"
         offset="0.95386213"
         style="stop-color:#003996;stop-opacity:0.64999998;" />
      <stop
         id="stop11747"
         offset="1"
         style="stop-color:#002c80;stop-opacity:1;" />
    </linearGradient>
    <radialGradient
       inkscape:collect="always"
       xlink:href="#linearGradient11729"
       id="radialGradient20237"
       gradientUnits="userSpaceOnUse"
       gradientTransform="matrix(2.0322283,0,0,2.0322283,-350.33294,-138.65768)"
       cx="360.3381"
       cy="131.75188"
       fx="360.3381"
       fy="131.75188"
       r="68.136078" />
    <linearGradient
       id="linearGradient11729">
      <stop
         style="stop-color:#5bcaff;stop-opacity:1;"
         offset="0"
         id="stop11731" />
      <stop
         style="stop-color:#0071de;stop-opacity:1;"
         offset="1"
         id="stop11733" />
    </linearGradient>
    <filter
       inkscape:collect="always"
       id="filter4645"
       x="-0.16"
       width="1.3200001"
       y="-0.16"
       height="1.3200001">
      <feGaussianBlur
         inkscape:collect="always"
         stdDeviation="9.0848104"
         id="feGaussianBlur4647" />
    </filter>
    <filter
       id="filter15293"
       inkscape:collect="always">
      <feGaussianBlur
         id="feGaussianBlur15295"
         stdDeviation="2.6999294"
         inkscape:collect="always" />
    </filter>
    <linearGradient
       inkscape:collect="always"
       xlink:href="#linearGradient5073"
       id="linearGradient20239"
       gradientUnits="userSpaceOnUse"
       gradientTransform="matrix(-0.63593482,-0.37693419,-0.22248174,0.57997513,928.93292,482.43826)"
       x1="530.65643"
       y1="92.872658"
       x2="571.87354"
       y2="138.7977" />
    <linearGradient
       id="linearGradient5073">
      <stop
         style="stop-color:#ffffff;stop-opacity:1;"
         offset="0"
         id="stop5075" />
      <stop
         style="stop-color:#ffffff;stop-opacity:0;"
         offset="1"
         id="stop5077" />
    </linearGradient>
  </defs>
  <sodipodi:namedview
     id="base"
     pagecolor="#ffffff"
     bordercolor="#666666"
     borderopacity="1.0"
     inkscape:pageopacity="0.0"
     inkscape:pageshadow="2"
     inkscape:zoom="1.3170253"
     inkscape:cx="251.95875"
     inkscape:cy="143.65751"
     inkscape:document-units="px"
     inkscape:current-layer="layer1"
     showgrid="false"
     fit-margin-top="0"
     fit-margin-left="0"
     fit-margin-right="0"
     fit-margin-bottom="0"
     inkscape:window-width="1440"
     inkscape:window-height="836"
     inkscape:window-x="0"
     inkscape:window-y="27"
     inkscape:window-maximized="1"
     showborder="false"
     inkscape:snap-path-clip="true"
     inkscape:snap-path-mask="true"
     inkscape:snap-bbox="true" />
  <metadata
     id="metadata7217">
    <rdf:RDF>
      <cc:Work
         rdf:about="">
        <dc:format>image/svg+xml</dc:format>
        <dc:type
           rdf:resource="http://purl.org/dc/dcmitype/StillImage" />
        <dc:title>Flisol</dc:title>
        <cc:license
           rdf:resource="http://creativecommons.org/licenses/by/3.0/" />
        <dc:date>5/febrero/2015</dc:date>
        <dc:creator>
          <cc:Agent>
            <dc:title>Xavier Araque</dc:title>
          </cc:Agent>
        </dc:creator>
        <dc:rights>
          <cc:Agent>
            <dc:title>CC</dc:title>
          </cc:Agent>
        </dc:rights>
        <dc:publisher>
          <cc:Agent>
            <dc:title>Inkscape</dc:title>
          </cc:Agent>
        </dc:publisher>
        <dc:source>Flisol</dc:source>
        <dc:language>ES</dc:language>
        <dc:subject>
          <rdf:Bag>
            <rdf:li>Logo Flisol 2015</rdf:li>
          </rdf:Bag>
        </dc:subject>
        <dc:description>Logo realizado para el refrescamiento del Flisol 2015

https://www.loomio.org/d/dWQYBfTA/votacion-logo</dc:description>
      </cc:Work>
      <cc:License
         rdf:about="http://creativecommons.org/licenses/by/3.0/">
        <cc:permits
           rdf:resource="http://creativecommons.org/ns#Reproduction" />
        <cc:permits
           rdf:resource="http://creativecommons.org/ns#Distribution" />
        <cc:requires
           rdf:resource="http://creativecommons.org/ns#Notice" />
        <cc:requires
           rdf:resource="http://creativecommons.org/ns#Attribution" />
        <cc:permits
           rdf:resource="http://creativecommons.org/ns#DerivativeWorks" />
      </cc:License>
    </rdf:RDF>
  </metadata>
  <g
     inkscape:label="Capa 1"
     inkscape:groupmode="layer"
     id="layer1"
     transform="translate(-189.70479,-231.69125)">
    <g
       id="g7642"
       transform="translate(20.938978,-17.717597)">
      <path
         sodipodi:nodetypes="cccccccccccccccccccc"
         style="color:#000000;display:inline;overflow:visible;visibility:visible;fill:#ff7d23;fill-opacity:1;fill-rule:nonzero;stroke:none;stroke-width:2.59126377;marker:none;enable-background:accumulate"
         d="m 513.9608,353.56324 -44.13714,-43.87168 -25.87107,23.91297 21.62019,20.47217 14.43701,-14.05234 -10.08034,-9.66136 -12.23219,9.28992 -1.05002,-1.0569 10.41203,-10.84796 c 1.5623,-1.5661 3.2696,-2.07539 5.28214,-0.36129 l 10.4834,10.12092 c 1.25453,1.57253 1.53168,3.11644 0.49371,4.62186 0,0 -6.34465,8.44695 -15.05653,16.06778 -2.71602,1.98962 -5.07672,1.49781 -7.22022,-0.51083 l -23.03939,-20.06288 c -2.12702,-2.43832 -1.67261,-5.49199 0.5506,-7.76774 l 26.49647,-28.26654 c 2.5039,-2.9017 8.31743,-2.71602 10.84035,0.0879 l 46.20258,44.18525 z"
         id="path20109"
         inkscape:connector-curvature="0" />
      <path
         style="color:#000000;display:inline;overflow:visible;visibility:visible;opacity:0.6857143;fill:#ffb44f;fill-opacity:1;fill-rule:nonzero;stroke:none;stroke-width:2.59126377;marker:none;filter:url(#filter14511);enable-background:accumulate"
         d="m -1323.2724,-1299.9234 c -1.0643,-0.099 -2.0814,0.2102 -3.1562,1.125 -0.02,0.017 -0.042,0.014 -0.063,0.031 l -24.7812,28.5313 c -0.02,0.021 -0.041,0.042 -0.062,0.062 -1.033,1.1023 -1.5008,2.0454 -1.5937,2.9062 -0.091,0.8461 0.1372,1.7967 1.0937,3.125 0.017,0.023 0.014,0.039 0.031,0.063 9.2143,10.4941 19.3609,18.1454 19.5,18.25 0.8033,0.6802 2.5621,0.8617 3.2946,0.3254 l 12.5021,-13.4846 c 0.7731,-1.44 0.092,-2.7525 -0.7664,-3.6221 l -11.7412,-13.0598 11.8974,13.6223 c 0.6453,0.8488 -0.051,1.5235 -0.7827,2.2991 l -12.0718,12.5365 c -0.8378,0.8893 -1.5643,1.3557 -2.4188,0.4824 l -17.7267,-17.7558 c -0.815,-0.8294 -0.8295,-2.3111 -0.031,-3.1563 l 25.5312,-26.9687 c 0.8561,-0.8928 2.4733,-0.8776 3.3126,0.031 l 29.8124,32.25 c 0.7806,0.8423 0.7661,2.2983 -0.031,3.125 l -53.1562,53.4687 6.4374,6.8125 53.4376,-55.875 c 0.04,-0.043 0.082,-0.085 0.125,-0.125 1.1209,-1.0087 1.9378,-3.0223 1.9687,-5.0938 0.031,-2.0714 -0.7094,-4.0211 -1.8437,-5 -0.021,-0.02 -0.042,-0.041 -0.063,-0.062 l -35.25,-33.0626 c -0.01,-0.01 -0.021,-0.021 -0.031,-0.031 -1.1159,-1.0901 -2.2918,-1.6494 -3.375,-1.75 z"
         id="path20111"
         inkscape:connector-curvature="0"
         sodipodi:nodetypes="cccccccccccccccccccccccccccccccccc"
         transform="matrix(0,-0.80201649,0.80201649,0,1480.2604,-727.52032)" />
      <path
         style="color:#000000;display:inline;overflow:visible;visibility:visible;opacity:0.56734691;fill:#ffffff;fill-opacity:1;fill-rule:nonzero;stroke:none;stroke-width:1px;marker:none;filter:url(#filter14506-80-6-24);enable-background:accumulate"
         d="m -1473.2089,-1233.1614 35.1032,-37.1835 c 0,0 2.8603,-1.6468 5.3739,-1.6468 2.5135,0 4.8538,2.1669 4.8538,2.1669 l 33.4564,31.6362 -1.8202,0.5201 -34.1498,-31.8963 c 0,0 -1.6468,-1.0401 -3.727,-0.7801 -2.0802,0.2601 -3.9004,1.8202 -3.9004,1.8202 z"
         id="path20113"
         inkscape:connector-curvature="0"
         transform="matrix(0.80201649,0,0,0.80201649,1619.9451,1320.7033)" />
      <path
         sodipodi:nodetypes="ccsccc"
         inkscape:connector-curvature="0"
         id="path20115"
         d="m 490.38967,366.50217 -45.94309,4.10125 c 0,0 2.25717,11.14775 -4.16601,10.17771 -6.42318,-0.96995 -2.31677,-15.21422 -2.31677,-15.21422 l 52.72204,-1.82885 z"
         style="color:#000000;display:inline;overflow:visible;visibility:visible;fill:#ff7d23;fill-opacity:1;fill-rule:nonzero;stroke:none;stroke-width:2.59126377;marker:none;enable-background:accumulate" />
      <path
         inkscape:transform-center-y="6.7306959"
         inkscape:transform-center-x="-24.590277"
         transform="matrix(-7.8345213e-4,-0.80201611,0.80201611,-7.8345213e-4,1405.7268,-644.43782)"
         sodipodi:nodetypes="ccscccccccccc"
         inkscape:connector-curvature="0"
         id="path20117"
         d="m -1269.6991,-1208.0559 c -1.0072,0.083 -1.9322,0.2662 -2.6875,0.5312 -1.5106,0.5299 -2.2819,1.1806 -2.5,2.625 -0.2411,1.5967 0.1437,2.1992 0.9063,2.7812 0.7625,0.5821 2.1451,0.987 3.6562,1.125 3.0223,0.2762 6.375,-0.375 6.375,-0.375 0.8234,-0.163 1.7118,0.5072 1.7812,1.3438 l 3.7931,44.1749 1.1389,-0.01 -1.6194,-50.9477 c -1.2298,-0.3219 -4.1371,-1.0363 -7.6563,-1.25 -1.0938,-0.067 -2.1803,-0.083 -3.1875,0 z"
         style="color:#000000;display:inline;overflow:visible;visibility:visible;opacity:0.6857143;fill:#ffb44f;fill-opacity:1;fill-rule:nonzero;stroke:none;stroke-width:2.59126377;marker:none;filter:url(#filter14511-1);enable-background:accumulate" />
      <path
         style="color:#000000;display:inline;overflow:visible;visibility:visible;opacity:0.56734691;fill:#ffffff;fill-opacity:1;fill-rule:nonzero;stroke:none;stroke-width:1px;marker:none;filter:url(#filter14506-80-6-946);enable-background:accumulate"
         d="m -1420.4928,-1191.5216 c 0,0 -51.7161,1.3282 -52.0482,1.4942 -0.332,0.166 -1.3282,5.4787 -1.3282,6.5579 0,1.0791 0.3321,3.4865 0.3321,3.4865 0,0 1.2452,-8.3012 1.9093,-8.6332 0.664,-0.3321 51.135,-1.9923 51.135,-1.9923 z"
         id="path20119"
         inkscape:connector-curvature="0"
         transform="matrix(0.80201649,0,0,0.80201649,1619.9451,1320.7033)" />
      <ellipse
         ry="6.687932"
         rx="4.567368"
         cy="140.56126"
         cx="585.58179"
         transform="matrix(0.90525856,0.42486108,-0.42486108,0.90525856,0,0)"
         id="path20121"
         style="color:#000000;display:inline;overflow:visible;visibility:visible;fill:#ff7d23;fill-opacity:1;fill-rule:nonzero;stroke:none;stroke-width:2.59126377;marker:none;enable-background:accumulate" />
      <ellipse
         ry="6.687932"
         rx="4.567368"
         cy="150.24919"
         cx="576.40137"
         style="color:#000000;display:inline;overflow:visible;visibility:visible;fill:#ff7d23;fill-opacity:1;fill-rule:nonzero;stroke:none;stroke-width:2.59126377;marker:none;enable-background:accumulate"
         id="path20123"
         transform="matrix(0.90525856,0.42486108,-0.42486108,0.90525856,0,0)" />
      <ellipse
         ry="7.0285716"
         rx="4.8000002"
         cy="505.67648"
         cx="-148.45714"
         style="color:#000000;display:inline;overflow:visible;visibility:visible;opacity:0.6857143;fill:#ffb44f;fill-opacity:1;fill-rule:nonzero;stroke:none;stroke-width:2.99897122;marker:none;filter:url(#filter14511-9);enable-background:accumulate"
         id="path20125"
         transform="matrix(0.62732884,0.29442154,-0.29442154,0.62732884,712.65628,101.5715)" />
      <ellipse
         ry="7.0285716"
         rx="4.8000002"
         cy="505.67648"
         cx="-148.45714"
         transform="matrix(0.60503776,0.28395975,-0.28395975,0.60503776,691.36496,115.8769)"
         id="path20127"
         style="color:#000000;display:inline;overflow:visible;visibility:visible;opacity:0.6857143;fill:#ffb44f;fill-opacity:1;fill-rule:nonzero;stroke:none;stroke-width:3.10946083;marker:none;filter:url(#filter14511-3);enable-background:accumulate" />
      <path
         inkscape:connector-curvature="0"
         id="path20129"
         d="m 538.02122,379.30452 44.13724,43.87168 25.87107,-23.91306 -21.6202,-20.47208 -14.43701,14.05225 10.08026,9.66145 12.23219,-9.28992 1.0501,1.05681 -10.41211,10.84796 c -1.56221,1.5661 -3.26961,2.07539 -5.28205,0.36129 l -10.4834,-10.12083 c -1.25462,-1.57262 -1.53169,-3.11644 -0.49372,-4.62186 0,0 6.34466,-8.44704 15.05644,-16.06787 2.71602,-1.98962 5.07681,-1.49772 7.22023,0.51092 l 23.03938,20.06279 c 2.12702,2.43832 1.67262,5.492 -0.55059,7.76774 l -26.49647,28.26654 c -2.5039,2.9017 -8.31744,2.71611 -10.84035,-0.0879 l -46.20258,-44.18534 z"
         style="color:#000000;display:inline;overflow:visible;visibility:visible;fill:#ff7d23;fill-opacity:1;fill-rule:nonzero;stroke:none;stroke-width:2.59126377;marker:none;enable-background:accumulate"
         sodipodi:nodetypes="cccccccccccccccccccc" />
      <path
         sodipodi:nodetypes="cccccccccccccccccccccccccccccccccc"
         inkscape:connector-curvature="0"
         id="path20131"
         d="m -1323.2724,-1299.9234 c -1.0643,-0.099 -2.0814,0.2102 -3.1562,1.125 -0.02,0.017 -0.042,0.014 -0.063,0.031 l -24.7812,28.5313 c -0.02,0.021 -0.041,0.042 -0.062,0.062 -1.033,1.1023 -1.5008,2.0454 -1.5937,2.9062 -0.091,0.8461 0.1372,1.7967 1.0937,3.125 0.017,0.023 0.014,0.039 0.031,0.063 9.2143,10.4941 19.3609,18.1454 19.5,18.25 0.8033,0.6802 2.5621,0.8617 3.2946,0.3254 l 12.5021,-13.4846 c 0.7731,-1.44 0.092,-2.7525 -0.7664,-3.6221 l -11.7412,-13.0598 11.8974,13.6223 c 0.6453,0.8488 -0.051,1.5235 -0.7827,2.2991 l -12.0718,12.5365 c -0.8378,0.8893 -1.5643,1.3557 -2.4188,0.4824 l -17.7267,-17.7558 c -0.815,-0.8294 -0.8295,-2.3111 -0.031,-3.1563 l 25.5312,-26.9687 c 0.8561,-0.8928 2.4733,-0.8776 3.3126,0.031 l 29.8124,32.25 c 0.7806,0.8423 0.7661,2.2983 -0.031,3.125 l -53.1562,53.4687 6.4374,6.8125 53.4376,-55.875 c 0.04,-0.043 0.082,-0.085 0.125,-0.125 1.1209,-1.0087 1.9378,-3.0223 1.9687,-5.0938 0.031,-2.0714 -0.7094,-4.0211 -1.8437,-5 -0.021,-0.02 -0.042,-0.041 -0.063,-0.062 l -35.25,-33.0626 c -0.01,-0.01 -0.021,-0.021 -0.031,-0.031 -1.1159,-1.0901 -2.2918,-1.6494 -3.375,-1.75 z"
         style="color:#000000;display:inline;overflow:visible;visibility:visible;opacity:0.6857143;fill:#ffb44f;fill-opacity:1;fill-rule:nonzero;stroke:none;stroke-width:2.59126377;marker:none;filter:url(#filter14511);enable-background:accumulate"
         transform="matrix(0,0.80201649,-0.80201649,0,-428.27838,1460.388)" />
      <path
         style="color:#000000;display:inline;overflow:visible;visibility:visible;fill:#ff7d23;fill-opacity:1;fill-rule:nonzero;stroke:none;stroke-width:2.59126377;marker:none;enable-background:accumulate"
         d="m 561.59245,366.36559 45.943,-4.10134 c 0,0 -2.25709,-11.14775 4.1661,-10.17771 6.42318,0.96995 2.31668,15.21422 2.31668,15.21422 l -52.72195,1.82885 z"
         id="path20133"
         inkscape:connector-curvature="0"
         sodipodi:nodetypes="ccsccc" />
      <path
         style="color:#000000;display:inline;overflow:visible;visibility:visible;opacity:0.6857143;fill:#ffb44f;fill-opacity:1;fill-rule:nonzero;stroke:none;stroke-width:2.59126377;marker:none;filter:url(#filter14511-1);enable-background:accumulate"
         d="m -1269.6991,-1208.0559 c -1.0072,0.083 -1.9322,0.2662 -2.6875,0.5312 -1.5106,0.5299 -2.2819,1.1806 -2.5,2.625 -0.2411,1.5967 0.1437,2.1992 0.9063,2.7812 0.7625,0.5821 2.1451,0.987 3.6562,1.125 3.0223,0.2762 6.375,-0.375 6.375,-0.375 0.8234,-0.163 1.7118,0.5072 1.7812,1.3438 l 3.7931,44.1749 1.1389,-0.01 -1.6194,-50.9477 c -1.2298,-0.3219 -4.1371,-1.0363 -7.6563,-1.25 -1.0938,-0.067 -2.1803,-0.083 -3.1875,0 z"
         id="path20135"
         inkscape:connector-curvature="0"
         sodipodi:nodetypes="ccscccccccccc"
         transform="matrix(7.8345213e-4,0.80201611,-0.80201611,7.8345213e-4,-353.77169,1377.0116)"
         inkscape:transform-center-x="24.590278"
         inkscape:transform-center-y="-6.7306757" />
      <path
         style="color:#000000;display:inline;overflow:visible;visibility:visible;opacity:0.56734691;fill:#ffffff;fill-opacity:1;fill-rule:nonzero;stroke:none;stroke-width:1px;marker:none;filter:url(#filter14506-80-6-9);enable-background:accumulate"
         d="m -1306.156,-1189.687 45.2219,-4.3176 c 0,0 -1.9984,-11.6018 1.9428,-12.268 3.9413,-0.6661 4.5753,2.9001 4.5753,2.9001 0,0 -2.238,-2.5397 -4.4618,-1.4703 -2.1536,1.0356 -0.724,11.5043 -0.724,11.5043 l -46.4838,4.3657 z"
         id="path20137"
         inkscape:connector-curvature="0"
         sodipodi:nodetypes="ccccsccc"
         transform="matrix(0.80201649,0,0,0.80201649,1619.9451,1320.7033)" />
      <ellipse
         ry="6.687932"
         rx="4.567368"
         cy="-75.927223"
         cx="-678.10095"
         style="color:#000000;display:inline;overflow:visible;visibility:visible;fill:#ff7d23;fill-opacity:1;fill-rule:nonzero;stroke:none;stroke-width:2.59126377;marker:none;enable-background:accumulate"
         id="path20139"
         transform="matrix(-0.90525856,-0.42486108,0.42486108,-0.90525856,0,0)" />
      <ellipse
         ry="6.687932"
         rx="4.567368"
         cy="-66.239273"
         cx="-687.28137"
         transform="matrix(-0.90525856,-0.42486108,0.42486108,-0.90525856,0,0)"
         id="path20141"
         style="color:#000000;display:inline;overflow:visible;visibility:visible;fill:#ff7d23;fill-opacity:1;fill-rule:nonzero;stroke:none;stroke-width:2.59126377;marker:none;enable-background:accumulate" />
      <ellipse
         ry="7.0285716"
         rx="4.8000002"
         cy="505.67648"
         cx="-148.45714"
         transform="matrix(-0.62732884,-0.29442154,0.29442154,-0.62732884,339.71413,629.8163)"
         id="path20143"
         style="color:#000000;display:inline;overflow:visible;visibility:visible;opacity:0.6857143;fill:#ffb44f;fill-opacity:1;fill-rule:nonzero;stroke:none;stroke-width:2.99897122;marker:none;filter:url(#filter14511-9);enable-background:accumulate" />
      <ellipse
         ry="7.0285716"
         rx="4.8000002"
         cy="505.67648"
         cx="-148.45714"
         style="color:#000000;display:inline;overflow:visible;visibility:visible;opacity:0.6857143;fill:#ffb44f;fill-opacity:1;fill-rule:nonzero;stroke:none;stroke-width:3.10946083;marker:none;filter:url(#filter14511-3);enable-background:accumulate"
         id="path20145"
         transform="matrix(-0.60503776,-0.28395975,0.28395975,-0.60503776,360.90935,615.05857)" />
      <path
         inkscape:connector-curvature="0"
         id="path20147"
         d="m 513.12038,378.46409 -43.87168,44.13715 23.91305,25.87106 20.47209,-21.62019 -14.05226,-14.43701 -9.66145,10.08035 9.28992,12.23218 -1.05681,1.05002 -10.84796,-10.41203 c -1.5661,-1.56229 -2.07539,-3.2696 -0.36138,-5.28214 l 10.12092,-10.4834 c 1.57262,-1.25453 3.11645,-1.53168 4.62186,-0.49371 0,0 8.44704,6.34465 16.06787,15.05653 1.98963,2.71602 1.49772,5.07672 -0.51092,7.22023 l -20.06287,23.03938 c -2.43824,2.12702 -5.49191,1.67262 -7.76765,-0.55059 l -28.26655,-26.49648 c -2.9017,-2.50389 -2.71611,-8.31752 0.0879,-10.84034 l 44.18524,-46.20259 z"
         style="color:#000000;display:inline;overflow:visible;visibility:visible;fill:#ff7d23;fill-opacity:1;fill-rule:nonzero;stroke:none;stroke-width:2.59126377;marker:none;enable-background:accumulate"
         sodipodi:nodetypes="cccccccccccccccccccc" />
      <path
         sodipodi:nodetypes="cccccccccccccccccccccccccccccccccc"
         inkscape:connector-curvature="0"
         id="path20149"
         d="m -1323.2724,-1299.9234 c -1.0643,-0.099 -2.0814,0.2102 -3.1562,1.125 -0.02,0.017 -0.042,0.014 -0.063,0.031 l -24.7812,28.5313 c -0.02,0.021 -0.041,0.042 -0.062,0.062 -1.033,1.1023 -1.5008,2.0454 -1.5937,2.9062 -0.091,0.8461 0.1372,1.7967 1.0937,3.125 0.017,0.023 0.014,0.039 0.031,0.063 9.2143,10.4941 19.3609,18.1454 19.5,18.25 0.8033,0.6802 2.5621,0.8617 3.2946,0.3254 l 12.5021,-13.4846 c 0.7731,-1.44 0.092,-2.7525 -0.7664,-3.6221 l -11.7412,-13.0598 11.8974,13.6223 c 0.6453,0.8488 -0.051,1.5235 -0.7827,2.2991 l -12.0718,12.5365 c -0.8378,0.8893 -1.5643,1.3557 -2.4188,0.4824 l -17.7267,-17.7558 c -0.815,-0.8294 -0.8295,-2.3111 -0.031,-3.1563 l 25.5312,-26.9687 c 0.8561,-0.8928 2.4733,-0.8776 3.3126,0.031 l 29.8124,32.25 c 0.7806,0.8423 0.7661,2.2983 -0.031,3.125 l -53.1562,53.4687 6.4374,6.8125 53.4376,-55.875 c 0.04,-0.043 0.082,-0.085 0.125,-0.125 1.1209,-1.0087 1.9378,-3.0223 1.9687,-5.0938 0.031,-2.0714 -0.7094,-4.0211 -1.8437,-5 -0.021,-0.02 -0.042,-0.041 -0.063,-0.062 l -35.25,-33.0626 c -0.01,-0.01 -0.021,-0.021 -0.031,-0.031 -1.1159,-1.0901 -2.2918,-1.6494 -3.375,-1.75 z"
         style="color:#000000;display:inline;overflow:visible;visibility:visible;opacity:0.6857143;fill:#ffb44f;fill-opacity:1;fill-rule:nonzero;stroke:none;stroke-width:2.59126377;marker:none;filter:url(#filter14511);enable-background:accumulate"
         transform="matrix(-0.80201649,0,0,-0.80201649,-567.65032,-588.66968)" />
      <path
         style="color:#000000;display:inline;overflow:visible;visibility:visible;fill:#ff7d23;fill-opacity:1;fill-rule:nonzero;stroke:none;stroke-width:2.59126377;marker:none;enable-background:accumulate"
         d="m 526.0593,402.03523 4.10125,45.94309 c 0,0 11.14784,-2.25718 10.17781,4.166 -0.96995,6.42318 -15.21422,2.31678 -15.21422,2.31678 l -1.82886,-52.72205 z"
         id="path20151"
         inkscape:connector-curvature="0"
         sodipodi:nodetypes="ccsccc" />
      <ellipse
         ry="6.687932"
         rx="4.567368"
         cy="664.15839"
         cx="-154.50381"
         style="color:#000000;display:inline;overflow:visible;visibility:visible;fill:#ff7d23;fill-opacity:1;fill-rule:nonzero;stroke:none;stroke-width:2.59126377;marker:none;enable-background:accumulate"
         id="path20153"
         transform="matrix(0.42486108,-0.90525856,0.90525856,0.42486108,0,0)" />
      <ellipse
         ry="6.687932"
         rx="4.567368"
         cy="673.84631"
         cx="-163.68428"
         transform="matrix(0.42486108,-0.90525856,0.90525856,0.42486108,0,0)"
         id="path20155"
         style="color:#000000;display:inline;overflow:visible;visibility:visible;fill:#ff7d23;fill-opacity:1;fill-rule:nonzero;stroke:none;stroke-width:2.59126377;marker:none;enable-background:accumulate" />
      <ellipse
         ry="7.0285716"
         rx="4.8000002"
         cy="505.67648"
         cx="-148.45714"
         transform="matrix(0.29442154,-0.62732884,0.62732884,0.29442154,261.50505,179.81336)"
         id="path20157"
         style="color:#000000;display:inline;overflow:visible;visibility:visible;opacity:0.6857143;fill:#ffb44f;fill-opacity:1;fill-rule:nonzero;stroke:none;stroke-width:2.99897122;marker:none;filter:url(#filter14511-9);enable-background:accumulate" />
      <ellipse
         ry="7.0285716"
         rx="4.8000002"
         cy="505.67648"
         cx="-148.45714"
         style="color:#000000;display:inline;overflow:visible;visibility:visible;opacity:0.6857143;fill:#ffb44f;fill-opacity:1;fill-rule:nonzero;stroke:none;stroke-width:3.10946083;marker:none;filter:url(#filter14511-3);enable-background:accumulate"
         id="path20159"
         transform="matrix(0.28395975,-0.60503776,0.60503776,0.28395975,276.17601,200.81756)" />
      <path
         sodipodi:nodetypes="cccccccccccccccccccc"
         style="color:#000000;display:inline;overflow:visible;visibility:visible;fill:#ff7d23;fill-opacity:1;fill-rule:nonzero;stroke:none;stroke-width:2.59126377;marker:none;enable-background:accumulate"
         d="m 538.86165,354.40367 43.87168,-44.13724 -23.91296,-25.87106 -20.47218,21.62019 14.05235,14.43701 9.66135,-10.08026 -9.28991,-12.23218 1.0568,-1.05011 10.84805,10.41212 c 1.5661,1.56221 2.0754,3.2696 0.3613,5.28205 l -10.12093,10.4834 c -1.57253,1.25462 -3.11644,1.53168 -4.62186,0.49371 0,0 -8.44695,-6.34465 -16.06778,-15.05644 -1.98962,-2.71602 -1.49781,-5.07681 0.51083,-7.22023 l 20.06288,-23.03938 c 2.43832,-2.12702 5.492,-1.67262 7.76765,0.55059 l 28.26664,26.49639 c 2.90169,2.50389 2.71602,8.31752 -0.0879,10.84044 l -44.18524,46.20258 z"
         id="path20161"
         inkscape:connector-curvature="0" />
      <path
         style="color:#000000;display:inline;overflow:visible;visibility:visible;opacity:0.6857143;fill:#ffb44f;fill-opacity:1;fill-rule:nonzero;stroke:none;stroke-width:2.59126377;marker:none;filter:url(#filter14511);enable-background:accumulate"
         d="m -1323.2724,-1299.9234 c -1.0643,-0.099 -2.0814,0.2102 -3.1562,1.125 -0.02,0.017 -0.042,0.014 -0.063,0.031 l -24.7812,28.5313 c -0.02,0.021 -0.041,0.042 -0.062,0.062 -1.033,1.1023 -1.5008,2.0454 -1.5937,2.9062 -0.091,0.8461 0.1372,1.7967 1.0937,3.125 0.017,0.023 0.014,0.039 0.031,0.063 9.2143,10.4941 19.3609,18.1454 19.5,18.25 0.8033,0.6802 2.5621,0.8617 3.2946,0.3254 l 12.5021,-13.4846 c 0.7731,-1.44 0.092,-2.7525 -0.7664,-3.6221 l -11.7412,-13.0598 11.8974,13.6223 c 0.6453,0.8488 -0.051,1.5235 -0.7827,2.2991 l -12.0718,12.5365 c -0.8378,0.8893 -1.5643,1.3557 -2.4188,0.4824 l -17.7267,-17.7558 c -0.815,-0.8294 -0.8295,-2.3111 -0.031,-3.1563 l 25.5312,-26.9687 c 0.8561,-0.8928 2.4733,-0.8776 3.3126,0.031 l 29.8124,32.25 c 0.7806,0.8423 0.7661,2.2983 -0.031,3.125 l -53.1562,53.4687 6.4374,6.8125 53.4376,-55.875 c 0.04,-0.043 0.082,-0.085 0.125,-0.125 1.1209,-1.0087 1.9378,-3.0223 1.9687,-5.0938 0.031,-2.0714 -0.7094,-4.0211 -1.8437,-5 -0.021,-0.02 -0.042,-0.041 -0.063,-0.062 l -35.25,-33.0626 c -0.01,-0.01 -0.021,-0.021 -0.031,-0.031 -1.1159,-1.0901 -2.2918,-1.6494 -3.375,-1.75 z"
         id="path20163"
         inkscape:connector-curvature="0"
         sodipodi:nodetypes="cccccccccccccccccccccccccccccccccc"
         transform="matrix(0.80201649,0,0,0.80201649,1619.9451,1320.7033)" />
      <path
         sodipodi:nodetypes="ccsccc"
         inkscape:connector-curvature="0"
         id="path20165"
         d="m 525.92272,330.83244 -4.10125,-45.943 c 0,0 -11.14775,2.25709 -10.17771,-4.16609 0.96995,-6.42318 15.21422,-2.31668 15.21422,-2.31668 l 1.82885,52.72195 z"
         style="color:#000000;display:inline;overflow:visible;visibility:visible;fill:#ff7d23;fill-opacity:1;fill-rule:nonzero;stroke:none;stroke-width:2.59126377;marker:none;enable-background:accumulate" />
      <path
         sodipodi:nodetypes="ccscccccccccc"
         inkscape:connector-curvature="0"
         id="path20167"
         d="m -1374.9422,-1300.3744 c -1.0072,0.083 -1.9322,0.2662 -2.6875,0.5312 -1.5106,0.5299 -2.2819,1.1806 -2.5,2.625 -0.2411,1.5967 0.1437,2.1992 0.9063,2.7812 0.7625,0.5821 2.1451,0.987 3.6562,1.125 3.0223,0.2762 6.375,-0.375 6.375,-0.375 0.8234,-0.163 1.7118,0.5072 1.7812,1.3438 l 3.7931,44.1749 1.1389,-0.01 -1.6194,-50.9477 c -1.2298,-0.3219 -4.1371,-1.0363 -7.6563,-1.25 -1.0938,-0.067 -2.1803,-0.083 -3.1875,0 z"
         style="color:#000000;display:inline;overflow:visible;visibility:visible;opacity:0.6857143;fill:#ffb44f;fill-opacity:1;fill-rule:nonzero;stroke:none;stroke-width:2.59126377;marker:none;filter:url(#filter14511-1);enable-background:accumulate"
         transform="matrix(0.80201649,0,0,0.80201649,1619.9451,1320.7033)" />
      <ellipse
         ry="6.687932"
         rx="4.567368"
         cy="-599.52441"
         cx="61.984684"
         transform="matrix(-0.42486108,0.90525856,-0.90525856,-0.42486108,0,0)"
         id="path20169"
         style="color:#000000;display:inline;overflow:visible;visibility:visible;fill:#ff7d23;fill-opacity:1;fill-rule:nonzero;stroke:none;stroke-width:2.59126377;marker:none;enable-background:accumulate" />
      <path
         style="color:#000000;display:inline;overflow:visible;visibility:visible;opacity:0.56734691;fill:#ffffff;fill-opacity:1;fill-rule:nonzero;stroke:none;stroke-width:1px;marker:none;filter:url(#filter14506-80-3-8);enable-background:accumulate"
         d="m -1366.0757,-1296.8757 2.9879,48.4826 0.7523,0.041 -2.5177,-50.2026 c 0,0 -5.0273,-1.8468 -10.1572,-1.4364 -5.1299,0.4104 -5.1299,1.9494 -5.1299,2.2572 0,0.3078 2.9754,-0.7182 6.5663,-0.7182 3.5909,0 7.4983,1.5764 7.4983,1.5764 z"
         id="path20171"
         inkscape:connector-curvature="0"
         sodipodi:nodetypes="ccccsssc"
         transform="matrix(0.80201649,0,0,0.80201649,1619.9451,1320.7033)" />
      <ellipse
         ry="6.687932"
         rx="4.567368"
         cy="-589.83636"
         cx="52.804253"
         style="color:#000000;display:inline;overflow:visible;visibility:visible;fill:#ff7d23;fill-opacity:1;fill-rule:nonzero;stroke:none;stroke-width:2.59126377;marker:none;enable-background:accumulate"
         id="path20173"
         transform="matrix(-0.42486108,0.90525856,-0.90525856,-0.42486108,0,0)" />
      <path
         style="color:#000000;display:inline;overflow:visible;visibility:visible;opacity:0.56734691;fill:#ffffff;fill-opacity:1;fill-rule:nonzero;stroke:none;stroke-width:1px;marker:none;filter:url(#filter14506-80-6);enable-background:accumulate"
         d="m -1323.7812,-1299.625 c -0.2035,0.014 -0.9298,0.053 -1.139,0.111 -1.6737,0.4648 -2.719,1.483 -2.719,1.483 0,0 3.3668,-1.1259 5.1336,-0.1962 1.7667,0.9299 36.9813,34.4239 37.8181,35.5397 1.9299,2.6425 2.3022,5.2601 2.3022,5.2601 0,0 0.9676,-3.5887 -0.4272,-5.5414 -1.3947,-1.9527 -38.3125,-35.9062 -38.3125,-35.9062 0,0 -1.2324,-0.8479 -2.6562,-0.75 z m -5.3438,24.5625 c 0,0 11.6962,13.072 12.6259,14.8387 0.93,1.7668 -0.4793,3.3216 -0.4793,3.3216 0,0 1.5274,-1.3831 1.9022,-2.1541 0.4701,-0.9673 -0.3964,-2.2288 -0.8613,-2.6937 -0.465,-0.465 -13.1875,-13.3125 -13.1875,-13.3125 z m -20.1875,8.2813 c 0,0 -1.1539,0.8518 -1.2774,2.3766 -0.1235,1.5248 16.6211,18.5454 18.016,19.0103 1.7111,0.4649 2.4765,-1.1529 2.4765,-1.1529 0,0 -0.9301,0.3099 -1.395,0.3099 -0.4649,0 -17.0135,-16.95 -17.8504,-18.1588 -0.8369,-1.2089 0.03,-2.3851 0.03,-2.3851 z m 57.1875,7.625 -28.8125,29.4687 1.2813,2.5 c 0,0 24.5465,-27.0503 26.4062,-29.375 1.8597,-2.3246 1.125,-2.5937 1.125,-2.5937 z"
         id="path20175"
         inkscape:connector-curvature="0"
         sodipodi:nodetypes="ccccccccccccsscczccscccccccc"
         transform="matrix(0.80201649,0,0,0.80201649,1619.9451,1320.7033)" />
      <ellipse
         ry="7.0285716"
         rx="4.8000002"
         cy="505.67648"
         cx="-148.45714"
         style="color:#000000;display:inline;overflow:visible;visibility:visible;opacity:0.6857143;fill:#ffb44f;fill-opacity:1;fill-rule:nonzero;stroke:none;stroke-width:2.99897122;marker:none;filter:url(#filter14511-9);enable-background:accumulate"
         id="path20177"
         transform="matrix(-0.29442154,0.62732884,-0.62732884,-0.29442154,789.33014,552.42881)" />
      <path
         sodipodi:nodetypes="cscsc"
         inkscape:connector-curvature="0"
         id="path20179"
         d="m -1382.1923,-1262.03 c 0,0 1.7414,-2.4152 4.8221,-2.2572 4.0013,0.2052 7.6948,5.5403 7.6948,5.5403 0,0 -5.0272,-3.3857 -7.4896,-3.6935 -2.4623,-0.3078 -5.0273,0.4104 -5.0273,0.4104 z"
         style="color:#000000;display:inline;overflow:visible;visibility:visible;opacity:0.56734691;fill:#ffffff;fill-opacity:1;fill-rule:nonzero;stroke:none;stroke-width:1px;marker:none;filter:url(#filter14506-80-3);enable-background:accumulate"
         transform="matrix(0.80201649,0,0,0.80201649,1619.9451,1320.7033)" />
      <ellipse
         ry="7.0285716"
         rx="4.8000002"
         cy="505.67648"
         cx="-148.45714"
         transform="matrix(-0.28395975,0.60503776,-0.60503776,-0.28395975,774.65918,531.32027)"
         id="path20181"
         style="color:#000000;display:inline;overflow:visible;visibility:visible;opacity:0.6857143;fill:#ffb44f;fill-opacity:1;fill-rule:nonzero;stroke:none;stroke-width:3.10946083;marker:none;filter:url(#filter14511-3);enable-background:accumulate" />
      <path
         style="color:#000000;display:inline;overflow:visible;visibility:visible;opacity:0.56734691;fill:#ffffff;fill-opacity:1;fill-rule:nonzero;stroke:none;stroke-width:1px;marker:none;filter:url(#filter14506-80-3);enable-background:accumulate"
         d="m -1388.6559,-1277.7274 c 0,0 1.7414,-2.4152 4.8221,-2.2572 4.0013,0.2052 7.6948,5.5403 7.6948,5.5403 0,0 -5.0272,-3.3857 -7.4896,-3.6935 -2.4623,-0.3078 -5.0273,0.4104 -5.0273,0.4104 z"
         id="path20183"
         inkscape:connector-curvature="0"
         sodipodi:nodetypes="cscsc"
         transform="matrix(0.80201649,0,0,0.80201649,1619.9451,1320.7033)" />
      <path
         style="color:#000000;display:inline;overflow:visible;visibility:visible;opacity:0.56734691;fill:#ffffff;fill-opacity:1;fill-rule:nonzero;stroke:none;stroke-width:1px;marker:none;filter:url(#filter14506-80-6-8);enable-background:accumulate"
         d="m -1412.5395,-1158.7811 -32.5646,33.7015 c 0,0 -0.7309,1.2993 -0.8121,2.9235 -0.081,1.6242 0.3248,3.0859 0.3248,3.0859 0,0 0.8121,-4.2228 2.2739,-5.847 1.4617,-1.6241 31.9149,-32.3209 31.9149,-32.3209 z"
         id="path20185"
         inkscape:connector-curvature="0"
         transform="matrix(0.80201649,0,0,0.80201649,1619.9451,1320.7033)" />
      <path
         style="color:#000000;display:inline;overflow:visible;visibility:visible;opacity:0.56734691;fill:#ffffff;fill-opacity:1;fill-rule:nonzero;stroke:none;stroke-width:1px;marker:none;filter:url(#filter14506-80-6-94);enable-background:accumulate"
         d="m -1324.5275,-1147.2279 30.4476,30.4476 c 0,0 33.4589,-29.89 34.0166,-30.8937 0.5576,-1.0038 -33.5705,33.5704 -33.5705,33.5704 l -32.2321,-32.4551 z"
         id="path20187"
         inkscape:connector-curvature="0"
         transform="matrix(0.80201649,0,0,0.80201649,1619.9451,1320.7033)" />
      <path
         style="color:#000000;display:inline;overflow:visible;visibility:visible;opacity:0.56734691;fill:#ffffff;fill-opacity:1;fill-rule:nonzero;stroke:none;stroke-width:1px;marker:none;filter:url(#filter14506-80-6-6);enable-background:accumulate"
         d="m -1282.4724,-1210.88 c 0,0 1.8873,-3.6637 4.8849,-3.7192 2.9976,-0.055 3.4972,3.9968 3.4972,3.9968 0,0 -1.8238,-2.4183 -3.8302,-2.4425 -2.0064,-0.024 -4.5519,2.1649 -4.5519,2.1649 z"
         id="path20189"
         inkscape:connector-curvature="0"
         sodipodi:nodetypes="ccczc"
         transform="matrix(0.80201649,0,0,0.80201649,1619.9451,1320.7033)" />
      <path
         inkscape:connector-curvature="0"
         id="path20191"
         d="m -1298.1265,-1204.7738 c 0,0 1.8873,-3.6637 4.8849,-3.7192 2.9976,-0.055 3.4972,3.9968 3.4972,3.9968 0,0 -2.2204,-2.5536 -3.8302,-2.4425 -1.6099,0.111 -4.5519,2.1649 -4.5519,2.1649 z"
         style="color:#000000;display:inline;overflow:visible;visibility:visible;opacity:0.56734691;fill:#ffffff;fill-opacity:1;fill-rule:nonzero;stroke:none;stroke-width:1px;marker:none;filter:url(#filter14506-80-6-6);enable-background:accumulate"
         transform="matrix(0.80201649,0,0,0.80201649,1619.9451,1320.7033)" />
      <path
         style="color:#000000;display:inline;overflow:visible;visibility:visible;opacity:0.56734691;fill:#ffffff;fill-opacity:1;fill-rule:nonzero;stroke:none;stroke-width:1px;marker:none;filter:url(#filter14506-80-6-66);enable-background:accumulate"
         d="m -1310.3633,-1159.0501 19.5178,-19.7407 c 1.7149,-1.5693 3.5719,-1.7264 5.7995,-0.3346 l 30.2246,26.5441 c 0,0 -26.0853,-21.6601 -31.3597,-25.6338 -0.4902,-0.3692 -1.85,-0.4434 -2.8022,0.032 -0.9523,0.4758 -21.38,19.1325 -21.38,19.1325 z"
         id="path20193"
         inkscape:connector-curvature="0"
         sodipodi:nodetypes="ccccszc"
         transform="matrix(0.80201649,0,0,0.80201649,1619.9451,1320.7033)" />
      <path
         style="color:#000000;display:inline;overflow:visible;visibility:visible;opacity:0.56734691;fill:#ffffff;fill-opacity:1;fill-rule:nonzero;stroke:none;stroke-width:1px;marker:none;filter:url(#filter14506-80-6-67);enable-background:accumulate"
         d="m -1307.575,-1156.0388 13.3836,12.1568 13.0489,-9.8146 c 0,0 -12.4913,11.4875 -13.0489,11.376 -0.5577,-0.1115 -13.3836,-13.7182 -13.3836,-13.7182 z"
         id="path20195"
         inkscape:connector-curvature="0"
         transform="matrix(0.80201649,0,0,0.80201649,1619.9451,1320.7033)" />
      <path
         inkscape:transform-center-y="-24.567136"
         inkscape:transform-center-x="-6.8834051"
         transform="matrix(-0.8020074,-0.00381928,0.00381928,-0.8020074,-478.80269,-519.34426)"
         sodipodi:nodetypes="ccscccccccccc"
         inkscape:connector-curvature="0"
         id="path20197"
         d="m -1269.6991,-1208.0559 c -1.0072,0.083 -1.9322,0.2662 -2.6875,0.5312 -1.5106,0.5299 -2.2819,1.1806 -2.5,2.625 -0.2411,1.5967 0.1437,2.1992 0.9063,2.7812 0.7625,0.5821 2.1451,0.987 3.6562,1.125 3.0223,0.2762 6.375,-0.375 6.375,-0.375 0.8234,-0.163 1.7118,0.5072 1.7812,1.3438 l 3.7931,44.1749 1.1389,-0.01 -1.6194,-50.9477 c -1.2298,-0.3219 -4.1371,-1.0363 -7.6563,-1.25 -1.0938,-0.067 -2.1803,-0.083 -3.1875,0 z"
         style="color:#000000;display:inline;overflow:visible;visibility:visible;opacity:0.6857143;fill:#ffb44f;fill-opacity:1;fill-rule:nonzero;stroke:none;stroke-width:2.59126377;marker:none;filter:url(#filter14511-1);enable-background:accumulate" />
      <path
         style="color:#000000;display:inline;overflow:visible;visibility:visible;opacity:0.56734691;fill:#ffffff;fill-opacity:1;fill-rule:nonzero;stroke:none;stroke-width:1px;marker:none;filter:url(#filter14506-80-6-61);enable-background:accumulate"
         d="m -1358.6983,-1122.7245 c 0,0 0.7308,-3.0048 4.5476,-3.0048 3.8168,0 6.8216,3.8168 6.8216,3.8168 0,0 -5.6846,-2.4362 -7.7149,-2.4362 -2.0302,0 -3.6543,1.6242 -3.6543,1.6242 z"
         id="path20199"
         inkscape:connector-curvature="0"
         transform="matrix(0.80201649,0,0,0.80201649,1619.9451,1320.7033)" />
      <path
         inkscape:connector-curvature="0"
         id="path20201"
         d="m -1352.0392,-1107.1325 c 0,0 0.7308,-3.0048 4.5476,-3.0048 3.8168,0 6.8216,3.8168 6.8216,3.8168 0,0 -5.6846,-2.4362 -7.7149,-2.4362 -2.0302,0 -3.6543,1.6242 -3.6543,1.6242 z"
         style="color:#000000;display:inline;overflow:visible;visibility:visible;opacity:0.56734691;fill:#ffffff;fill-opacity:1;fill-rule:nonzero;stroke:none;stroke-width:1px;marker:none;filter:url(#filter14506-80-6-61);enable-background:accumulate"
         transform="matrix(0.80201649,0,0,0.80201649,1619.9451,1320.7033)" />
      <path
         style="color:#000000;display:inline;overflow:visible;visibility:visible;opacity:0.56734691;fill:#ffffff;fill-opacity:1;fill-rule:nonzero;stroke:none;stroke-width:1px;marker:none;filter:url(#filter14506-80-6-4);enable-background:accumulate"
         d="m -1363.1648,-1131.0078 3.5732,44.2586 c 0,0 3.898,-0.6497 5.847,-0.6497 1.949,0 5.9282,0.8121 6.3342,2.8423 0.4061,2.0302 -0.2436,2.3551 -0.2436,2.3551 0,0 -0.406,-4.0605 -6.9027,-3.8168 -6.4967,0.2436 -6.1718,0.2436 -6.1718,0.2436 l -3.2484,-46.0452 z"
         id="path20203"
         inkscape:connector-curvature="0"
         transform="matrix(0.80201649,0,0,0.80201649,1619.9451,1320.7033)" />
      <path
         style="color:#000000;display:inline;overflow:visible;visibility:visible;opacity:0.56734691;fill:#ffffff;fill-opacity:1;fill-rule:nonzero;stroke:none;stroke-width:1px;marker:none;filter:url(#filter14506-80-6-2);enable-background:accumulate"
         d="m -1412.9456,-1121.9125 14.0491,-13.8054 c 0,0 0.9745,-0.7309 1.949,-0.7309 0.9745,0 2.1114,0.4061 2.1114,0.4061 l 19.0028,18.0282 c 0,0 1.2181,1.6242 1.4617,2.3551 0.2437,0.7309 -20.4645,-19.0028 -21.2766,-19.3276 -0.8121,-0.3249 -2.0302,-0.3249 -2.9235,0.3248 -0.8933,0.6497 -14.3739,12.7497 -14.3739,12.7497 z"
         id="path20205"
         inkscape:connector-curvature="0"
         transform="matrix(0.80201649,0,0,0.80201649,1619.9451,1320.7033)" />
      <path
         style="color:#000000;display:inline;overflow:visible;visibility:visible;opacity:0.56734691;fill:#ffffff;fill-opacity:1;fill-rule:nonzero;stroke:none;stroke-width:1px;marker:none;filter:url(#filter14506-80-6-1);enable-background:accumulate"
         d="m -1409.7784,-1119.5574 11.6128,14.7799 c 0,0 -11.8565,-13.4806 -11.9377,-13.8054 -0.081,-0.3248 0.3249,-0.9745 0.3249,-0.9745 z"
         id="path20207"
         inkscape:connector-curvature="0"
         transform="matrix(0.80201649,0,0,0.80201649,1619.9451,1320.7033)" />
      <path
         style="color:#000000;display:inline;overflow:visible;visibility:visible;opacity:0.56734691;fill:#ffffff;fill-opacity:1;fill-rule:nonzero;stroke:none;stroke-width:1px;marker:none;filter:url(#filter14506-80-6-3);enable-background:accumulate"
         d="m -1377.2139,-1114.1977 c 0,0 -0.812,0 -1.2181,0.2437 -0.406,0.2436 -26.0679,27.6108 -26.0679,27.6108 l -31.0216,-33.2954 0,-1.1369 c 0,0 -1.2181,1.0557 -0.4873,1.949 0.7309,0.8933 31.6713,34.1887 31.6713,34.1887 z"
         id="path20209"
         inkscape:connector-curvature="0"
         transform="matrix(0.80201649,0,0,0.80201649,1619.9451,1320.7033)" />
      <path
         style="color:#000000;display:inline;overflow:visible;visibility:visible;opacity:0.56734691;fill:#ffffff;fill-opacity:1;fill-rule:nonzero;stroke:none;stroke-width:1px;marker:none;filter:url(#filter14506-80-6-12);enable-background:accumulate"
         d="m -1447.3658,-1178.3983 -4.2543,2.8108 c 0,0 1.6713,-3.0387 4.4062,-3.0387 2.7349,0 3.7225,3.4945 3.7225,3.4945 0,0 -2.279,-2.5829 -4.1783,-2.279 -1.8992,0.3038 -3.9504,1.8232 0.3039,-0.9876 z"
         id="path20211"
         inkscape:connector-curvature="0"
         transform="matrix(0.80201649,0,0,0.80201649,1619.9451,1320.7033)" />
      <path
         inkscape:connector-curvature="0"
         id="path20213"
         d="m -1431.4882,-1184.172 -4.2543,2.8108 c 0,0 1.6713,-3.0387 4.4062,-3.0387 2.7349,0 3.7225,3.4945 3.7225,3.4945 0,0 -2.279,-2.5829 -4.1783,-2.279 -1.8992,0.3038 -3.9504,1.8232 0.3039,-0.9876 z"
         style="color:#000000;display:inline;overflow:visible;visibility:visible;opacity:0.56734691;fill:#ffffff;fill-opacity:1;fill-rule:nonzero;stroke:none;stroke-width:1px;marker:none;filter:url(#filter14506-80-6-12);enable-background:accumulate"
         transform="matrix(0.80201649,0,0,0.80201649,1619.9451,1320.7033)" />
      <path
         style="color:#000000;display:inline;overflow:visible;visibility:visible;opacity:0.56734691;fill:#ffffff;fill-opacity:1;fill-rule:nonzero;stroke:none;stroke-width:1px;marker:none;filter:url(#filter14506-80-6-121);enable-background:accumulate"
         d="m -1449.2,-1225.014 13.0012,-13.0879 c 0,0 1.2134,-0.8667 2.1669,-0.8667 0.9534,0 2.5135,0.9534 2.5135,0.9534 0,0 13.5213,12.8278 13.7813,13.7812 0.26,0.9535 0.26,2.1669 0.26,2.1669 0,0 -0.6067,-2.1669 -3.467,-4.6804 -2.8602,-2.5136 -11.6144,-10.661 -11.6144,-10.661 0,0 -0.8667,-0.52 -1.7335,-0.3467 -0.8667,0.1733 -14.908,12.7412 -14.908,12.7412 z"
         id="path20215"
         inkscape:connector-curvature="0"
         transform="matrix(0.80201649,0,0,0.80201649,1619.9451,1320.7033)" />
      <path
         style="color:#000000;display:inline;overflow:visible;visibility:visible;opacity:0.56734691;fill:#ffffff;fill-opacity:1;fill-rule:nonzero;stroke:none;stroke-width:1px;marker:none;filter:url(#filter14506-80-6-82);enable-background:accumulate"
         d="m -1466.9683,-1231.5146 c 0,0 -0.6067,0.78 -0.26,1.0401 0.3467,0.26 27.5625,26.3491 27.5625,26.3491 l 1.6468,-0.9535 c 0,0 -0.7801,1.4735 -1.3868,1.5602 -0.6067,0.087 -0.6934,0 -6.1539,-4.7671 -5.4605,-4.7671 -22.9688,-21.322 -22.6221,-22.1021 0.3467,-0.78 1.2135,-1.1267 1.2135,-1.1267 z"
         id="path20217"
         inkscape:connector-curvature="0"
         transform="matrix(0.80201649,0,0,0.80201649,1619.9451,1320.7033)" />
      <path
         style="color:#000000;font-style:normal;font-variant:normal;font-weight:normal;font-stretch:normal;font-size:medium;line-height:normal;font-family:Sans;-inkscape-font-specification:Sans;text-indent:0;text-align:start;text-decoration:none;text-decoration-line:none;letter-spacing:normal;word-spacing:normal;text-transform:none;direction:ltr;block-progression:tb;writing-mode:lr-tb;baseline-shift:baseline;text-anchor:start;display:inline;overflow:visible;visibility:visible;fill:#ff8e2a;fill-opacity:1;stroke:none;stroke-width:2;marker:none;enable-background:accumulate"
         d="m 295.47046,317.55033 a 6.4167736,6.4167736 0 0 0 -6.34012,6.50995 l 0,84.74258 a 6.4250384,6.4250384 0 0 0 12.85007,0 l 0,-84.74258 a 6.4167736,6.4167736 0 0 0 -6.50995,-6.50995 z m -45.45644,0.3113 a 6.4167736,6.4167736 0 0 0 -6.34012,6.51004 l 0,66.14672 c 0,13.56089 11.12022,24.6812 24.6812,24.6812 l 11.43487,0 a 6.4167736,6.4167736 0 1 0 0,-12.82172 l -11.43487,0 c -6.67379,0 -11.85938,-5.18568 -11.85938,-11.85948 l 0,-66.14672 a 6.4167736,6.4167736 0 0 0 -6.4817,-6.51004 z m 169.00403,0 a 6.4167736,6.4167736 0 0 0 -6.31186,6.51004 l 0,66.14672 c 0,13.56089 11.09196,24.6812 24.65294,24.6812 l 11.43487,0 a 6.4167736,6.4167736 0 1 0 0,-12.82172 l -11.43487,0 c -6.67389,0 -11.83113,-5.18568 -11.83113,-11.85948 l 0,-66.14672 a 6.4167736,6.4167736 0 0 0 -6.50995,-6.51004 z m -196.11937,0.11322 c -13.5609,0 -24.6812,11.09196 -24.6812,24.65294 l 0,15.34084 a 6.4167736,6.4167736 0 0 0 0,12.59539 l 0,38.23884 a 6.4167736,6.4167736 0 1 0 12.82177,0 l 0,-38.09736 20.09594,0 a 6.42504,6.42504 0 0 0 0,-12.85008 l -20.09594,0 0,-15.22763 c 0,-6.67397 5.18553,-11.83112 11.85943,-11.83112 l 11.40657,0 a 6.4167736,6.4167736 0 1 0 0,-12.82182 l -11.40657,0 z m 103.05538,0.79251 -0.31139,0.0281 c 0,0 -5.21584,0.54127 -10.41592,3.7645 -5.19999,3.22323 -10.72722,10.01278 -10.72722,20.01097 0,9.2219 3.09208,16.18562 7.44394,20.88846 4.35186,4.70274 9.39335,7.33896 13.3879,9.99131 4.53727,3.01283 8.7789,5.49345 11.46313,8.03837 2.68432,2.54511 3.96258,4.54922 3.96258,8.60446 0,8.39623 -6.32953,12.90668 -10.86879,12.90668 -7.92244,0 -15.70875,-0.50938 -15.70875,-0.50938 a 5.9843835,5.9843835 0 0 0 -0.76426,11.94425 c 0,0 8.05242,0.50957 16.47301,0.50957 11.80396,0 22.81313,-10.39772 22.81313,-24.85112 0,-7.36949 -3.45564,-13.29769 -7.67037,-17.29378 -4.21483,-3.99618 -9.01974,-6.61828 -13.07651,-9.31211 -4.59958,-3.05413 -8.654,-5.36048 -11.23679,-8.15159 -2.58269,-2.79101 -4.27388,-5.91705 -4.27388,-12.76512 0,-6.07193 2.37855,-8.16626 5.09475,-9.84983 2.60343,-1.61375 5.08097,-1.97966 5.29282,-2.00955 l 15.82206,0 a 5.9784307,5.9784307 0 1 0 0,-11.94444 l -16.35979,0 -0.33965,0 z m 47.69242,24.05861 c -10.03198,0 -18.28447,8.28066 -18.28447,18.31273 l 0,35.74807 c 0,10.03208 8.25249,18.31282 18.28447,18.31282 l 16.89761,0 c 10.03199,0 18.31273,-8.28065 18.31273,-18.31282 l 0,-35.74807 c 0,-10.03207 -8.28074,-18.31273 -18.31273,-18.31273 l -16.89761,0 z m 0,12.82173 16.89761,0 c 3.14489,0 5.46266,2.34602 5.46266,5.491 l 0,35.74807 c 0,3.14498 -2.31777,5.4911 -5.46266,5.4911 l -16.89761,0 c -3.14488,0 -5.46265,-2.34612 -5.46265,-5.4911 l 0,-35.74807 c 0,-3.14498 2.31777,-5.491 5.46265,-5.491 z"
         id="path20219"
         inkscape:connector-curvature="0" />
      <circle
         r="44.300766"
         cy="366.39584"
         cx="526.34552"
         style="color:#000000;display:inline;overflow:visible;visibility:visible;fill:#ffffff;fill-opacity:1;fill-rule:nonzero;stroke:#0055d4;stroke-width:5.43439388;stroke-opacity:1;marker:none;enable-background:accumulate"
         id="path20221" />
      <circle
         r="46.820286"
         cy="366.39594"
         cx="526.34546"
         style="color:#000000;display:inline;overflow:visible;visibility:visible;fill:#0055d4;fill-opacity:1;fill-rule:nonzero;stroke:none;stroke-width:1;marker:none;enable-background:accumulate"
         id="path20223" />
      <circle
         r="46.820286"
         cy="366.39594"
         cx="526.34546"
         id="path20225"
         style="color:#000000;display:inline;overflow:visible;visibility:visible;opacity:0.4820717;fill:url(#radialGradient20235);fill-opacity:1;fill-rule:nonzero;stroke:none;stroke-width:1;marker:none;enable-background:accumulate" />
      <circle
         r="68.136078"
         cy="170.44995"
         cx="339.39481"
         transform="matrix(0.52233967,0,0,0.52233967,349.06617,270.50714)"
         style="color:#000000;display:inline;overflow:visible;visibility:visible;fill:url(#radialGradient20237);fill-opacity:1;fill-rule:nonzero;stroke:none;stroke-width:1.35547781;marker:none;filter:url(#filter4645);enable-background:accumulate"
         id="path20227" />
      <path
         sodipodi:nodetypes="cccccccccccccccccccssccccccccscccccccsccc"
         style="font-size:12px;fill:#0055d4;fill-opacity:1;fill-rule:nonzero;stroke:#ff7d23;stroke-width:1.1452688;stroke-opacity:1;filter:url(#filter15293)"
         d="m -1392.4809,-1232.0483 c -0.8019,0.033 -1.509,0.2328 -2.0475,0.6749 -0.2982,2.8855 0.7189,6.5887 2.9222,8.6149 -0.1902,-0.2464 -0.4195,-0.6929 -0.7355,-1.4291 -0.9777,-1.6628 -2.7369,-9.0374 0.656,-5.4787 1.989,4.1785 2.6367,9.2781 5.7252,12.9819 2.3538,3.8651 6.8255,4.1147 10.5955,5.0816 3.2734,1.588 4.3264,6.2894 7.8522,7.2255 2.5104,3.2637 -0.6389,7.349 -2.0078,10.5006 -2.7461,4.8644 2.8883,7.8174 4.6716,11.632 3.6086,4.9811 7.031,11.5771 4.3138,17.8452 -1.6058,4.5347 -1.9956,9.5445 -3.1409,14.2721 -0.5096,3.3536 -1.2328,10.3996 2.3855,11.0564 0.7253,-3.6267 0.4384,-7.5298 3.3595,-10.2624 2.8735,-5.4672 8.4716,-8.8774 12.7226,-12.7436 1.9606,-2.3297 5.7601,-7.6173 9.5221,-10.203 1.6683,-2.8236 1.1693,-7.6219 4.2343,-10.4213 2.348,-2.4836 3.5146,-8.2489 -0.994,-8.9324 -6.0092,-2.3954 -10.9523,-6.9424 -14.9491,-12.0886 -4.3284,-2.3316 -7.0463,-2.9684 -11.6629,-4.4538 -0.281,-0.091 -0.6668,2.4248 -1.5084,2.4164 -1.1507,-0.011 0.2655,-3.2189 -2.2349,-3.1236 -0.4188,1.379 -2.8098,3.5597 -4.453,4.0295 -0.6343,-1.0347 -2.8863,-3.2068 -2.7234,-4.9624 -0.075,-3.5364 -4.592,-3.6234 -2.8626,-6.9872 -1.0331,-2.9637 -5.1833,4.3511 -6.8781,-0.6552 -1.002,-4.349 -1.1763,-11.7175 -5.1885,-12.545 -1.9336,-0.7657 -5.1682,-2.1428 -7.5739,-2.0447 z m 24.8308,12.2251 c 0.3973,0.1244 2.1717,-0.4166 4.1253,-0.3854 1.8411,0.03 4.9133,1.545 5.4703,1.0618 -0.868,-2.878 -6.9897,-2.3488 -6.8746,-2.3354 -0.9249,0.7782 -3.383,1.4105 -2.721,1.659 z m 20.154,5.4712 c -0.1529,0.27 -0.9304,0.3375 -0.9313,-0.2161 0.3055,-0.5351 0.9002,-0.076 0.9313,0.2161 z m -3.6979,-1.0674 c -3.4763,-0.1072 -1.191,-1.878 -3.0367,-1.8379 -1.2939,0.027 -0.927,1.3862 -3.1699,1.1772 2.062,0.9711 2.2009,0.732 3.6375,1.4994 2.0386,-0.1206 3.2905,-0.092 2.5691,-0.8387 z"
         id="path20229"
         inkscape:connector-curvature="0"
         transform="matrix(0.79084698,0,0,0.79084698,1605.0651,1307.3906)" />
      <path
         inkscape:connector-curvature="0"
         id="path20231"
         d="m 503.82584,333.02902 c -0.63419,0.0263 -1.19339,0.18405 -1.61927,0.53375 -0.23585,2.282 0.56853,5.21059 2.31098,6.81301 -0.15035,-0.19482 -0.33168,-0.54797 -0.58166,-1.13017 -0.77323,-1.31503 -2.16443,-7.14723 0.5188,-4.33284 1.57299,3.30456 2.08527,7.33761 4.52776,10.26674 1.86155,3.05667 5.39798,3.25412 8.37947,4.01874 2.58876,1.25589 3.42149,4.97392 6.20988,5.71426 1.98528,2.58107 -0.50531,5.81191 -1.58793,8.30439 -2.17167,3.84701 2.28426,6.18235 3.69457,9.19916 2.85388,3.93921 5.56048,9.15569 3.41154,14.11276 -1.26993,3.58625 -1.57824,7.54828 -2.48398,11.28705 -0.40296,2.65217 -0.97493,8.22451 1.88655,8.74394 0.5736,-2.86818 0.34672,-5.95491 2.65688,-8.11599 2.27248,-4.3237 6.6997,-7.0207 10.0616,-10.07827 1.55061,-1.84244 4.55538,-6.02411 7.53053,-8.06898 1.31938,-2.233 0.92475,-6.02774 3.34867,-8.24162 1.85693,-1.96418 2.77951,-6.52363 -0.78608,-7.06417 -4.75238,-1.89443 -8.66161,-5.49037 -11.82244,-9.56028 -3.42312,-1.84389 -5.57251,-2.34757 -9.22352,-3.52221 -0.22227,-0.0725 -0.52741,1.91762 -1.19294,1.911 -0.91008,-0.009 0.20995,-2.54565 -1.76745,-2.47029 -0.33122,1.0905 -2.22212,2.81511 -3.52167,3.18673 -0.50159,-0.81833 -2.28262,-2.53614 -2.15383,-3.92454 -0.0589,-2.79672 -3.63153,-2.86556 -2.26387,-5.52578 -0.81697,-2.34386 -4.09917,3.44106 -5.43947,-0.51817 -0.79243,-3.43943 -0.93028,-9.26673 -4.10333,-9.92121 -1.52915,-0.60557 -4.0873,-1.69463 -5.98979,-1.61701 z m 19.63736,9.66815 c 0.3142,0.0984 1.71745,-0.32941 3.26245,-0.30478 1.45606,0.0236 3.88568,1.22184 4.32623,0.83971 -0.68645,-2.27602 -5.52777,-1.85757 -5.43675,-1.84697 -0.73147,0.61544 -2.67544,1.1155 -2.15193,1.31204 z m 15.93872,4.32687 c -0.12092,0.21357 -0.73582,0.26692 -0.73654,-0.17091 0.24165,-0.42316 0.71199,-0.0598 0.73654,0.17091 z m -2.92443,-0.84414 c -2.74926,-0.0851 -0.94196,-1.48522 -2.40164,-1.45352 -1.02321,0.0217 -0.7331,1.09629 -2.50689,0.931 1.63078,0.76797 1.74064,0.57894 2.8767,1.18578 1.6122,-0.0954 2.60235,-0.0725 2.03183,-0.66326 z"
         style="font-size:12px;fill:#ccff00;fill-opacity:1;fill-rule:nonzero;stroke:#d4ff2a;stroke-width:0.90573239;stroke-opacity:1"
         sodipodi:nodetypes="cccccccccccccccccccssccccccccscccccccsccc" />
      <path
         sodipodi:nodetypes="cccccccccczczcsczczccccc"
         inkscape:connector-curvature="0"
         id="path20233"
         d="m 540.68163,325.92138 c 3.13845,1.65749 7.34032,4.24345 9.19436,5.91688 2.13544,1.1261 5.62324,4.03105 8.67356,6.32011 0,0 -4.21908,-4.75863 -8.01509,-7.46469 -3.03937,-2.09794 -6.46838,-3.56885 -9.85283,-4.7723 z m 15.59037,8.4177 4.09753,5.0154 3.65237,3.8048 -3.02289,-4.3467 z m -8.13284,-2.24205 c -5.11467,-3.20856 -14.27779,-7.52927 -14.27779,-7.52927 0,0 4.48012,4.83652 6.16578,10.75349 1.68574,5.91706 -0.50776,10.42226 -0.50776,10.42226 0,0 6.68603,1.226 14.82331,6.56077 8.2456,5.40568 12.87127,16.5816 12.87127,16.5816 0,0 0.47179,-6.27365 -2.05212,-15.21848 -2.52382,-8.94483 -6.00491,-13.65871 -6.00491,-13.65871 0,0 -5.90311,-4.7032 -11.01778,-7.91166 z m 12.99916,9.48664 c 1.84099,3.30058 4.12651,6.80395 4.86188,9.64414 1.58956,2.65326 2.90703,7.14542 4.23611,12.25936 0,0 -0.17291,-9.44778 -2.35038,-13.19679 -2.22674,-3.62021 -6.74761,-8.70671 -6.74761,-8.70671 z"
         style="opacity:0.87980772;fill:url(#linearGradient20239);fill-opacity:1;stroke:none" />
    </g>
    <rect
       style="opacity:1;fill:none;fill-opacity:1;stroke:#999999;stroke-width:1;stroke-miterlimit:4;stroke-dasharray:none"
       id="rect7707"
       width="422.52325"
       height="179.30898"
       x="214.40932"
       y="258.5296" />
    <rect
       y="-258.38992"
       x="193.38072"
       height="21.211151"
       width="464.15771"
       id="rect7709"
       style="opacity:1;fill:none;fill-opacity:1;stroke:#999999;stroke-width:0.95590943;stroke-miterlimit:4;stroke-dasharray:none"
       transform="scale(1,-1)" />
    <rect
       transform="scale(1,-1)"
       style="opacity:1;fill:none;fill-opacity:1;stroke:#999999;stroke-width:0.95590949;stroke-miterlimit:4;stroke-dasharray:none"
       id="rect7711"
       width="464.15771"
       height="21.211151"
       x="193.38072"
       y="-459.18936" />
    <rect
       y="237.14345"
       x="-214.10487"
       height="222.08122"
       width="20.756891"
       id="rect7715"
       style="opacity:1;fill:none;fill-opacity:1;stroke:#999999;stroke-width:1.1545192;stroke-miterlimit:4;stroke-dasharray:none"
       transform="scale(-1,1)" />
    <rect
       transform="scale(-1,1)"
       style="opacity:1;fill:none;fill-opacity:1;stroke:#999999;stroke-width:1.1545192;stroke-miterlimit:4;stroke-dasharray:none"
       id="rect7717"
       width="20.756891"
       height="222.08122"
       x="-657.52838"
       y="237.14345" />
  </g>
</svg>
