<?xml version="1.0" encoding="UTF-8" standalone="no"?>
<!-- Created with Inkscape (http://www.inkscape.org/) -->

<svg
   xmlns:dc="http://purl.org/dc/elements/1.1/"
   xmlns:cc="http://creativecommons.org/ns#"
   xmlns:rdf="http://www.w3.org/1999/02/22-rdf-syntax-ns#"
   xmlns:svg="http://www.w3.org/2000/svg"
   xmlns="http://www.w3.org/2000/svg"
   xmlns:xlink="http://www.w3.org/1999/xlink"
   xmlns:sodipodi="http://sodipodi.sourceforge.net/DTD/sodipodi-0.dtd"
   xmlns:inkscape="http://www.inkscape.org/namespaces/inkscape"
   width="1000"
   height="1000"
   viewBox="0 0 264.58333 264.58334"
   version="1.1"
   id="svg8"
   inkscape:version="0.92.1 r15371"
   sodipodi:docname="banner-contador-3-dias.svg"
   enable-background="new"
   inkscape:export-filename="/home/phls/phls/eventos/flisol/2017/comunicacao-curitiba/banner-midias-sociais-novo/banner-contador-3-dias.png"
   inkscape:export-xdpi="96"
   inkscape:export-ydpi="96">
  <defs
     id="defs2">
    <radialGradient
       id="rect5602_1_-1-0"
       cx="39.507702"
       cy="136.8791"
       r="629.53729"
       gradientTransform="matrix(0.36767629,0,0,-0.26488582,115.90193,189.91301)"
       gradientUnits="userSpaceOnUse">
      <stop
         offset="0"
         style="stop-color:#ED6D14"
         id="stop6328-3-0" />
      <stop
         offset="1"
         style="stop-color:#AF1917"
         id="stop6330-0-2" />
    </radialGradient>
    <linearGradient
       id="linearGradient11737">
      <stop
         style="stop-color:#ffffff;stop-opacity:0;"
         offset="0"
         id="stop11739" />
      <stop
         id="stop11741"
         offset="0.7044031"
         style="stop-color:#0046af;stop-opacity:0;" />
      <stop
         id="stop11743"
         offset="0.86842364"
         style="stop-color:#0044ab;stop-opacity:0.42352942;" />
      <stop
         style="stop-color:#003996;stop-opacity:0.64999998;"
         offset="0.95386213"
         id="stop11745" />
      <stop
         style="stop-color:#002c80;stop-opacity:1;"
         offset="1"
         id="stop11747" />
    </linearGradient>
    <linearGradient
       id="linearGradient11729">
      <stop
         id="stop11731"
         offset="0"
         style="stop-color:#5bcaff;stop-opacity:1;" />
      <stop
         id="stop11733"
         offset="1"
         style="stop-color:#0071de;stop-opacity:1;" />
    </linearGradient>
    <linearGradient
       id="linearGradient5073">
      <stop
         id="stop5075"
         offset="0"
         style="stop-color:#ffffff;stop-opacity:1;" />
      <stop
         id="stop5077"
         offset="1"
         style="stop-color:#ffffff;stop-opacity:0;" />
    </linearGradient>
    <radialGradient
       id="SVGID_7_-6"
       cx="41.2771"
       cy="77.994598"
       r="115.1427"
       gradientTransform="matrix(0.59465161,-0.00803016,0.00779185,0.57698869,27.560967,38.49588)"
       gradientUnits="userSpaceOnUse">
      <stop
         offset="0"
         style="stop-color:#F9B233"
         id="stop8653-6" />
      <stop
         offset="1"
         style="stop-color:#AF1917"
         id="stop8655-1" />
    </radialGradient>
    <radialGradient
       id="rect5602_1_-1-0-5"
       cx="39.507702"
       cy="136.8791"
       r="629.53729"
       gradientTransform="matrix(0.36767629,0,0,-0.26488583,115.90192,157.49637)"
       gradientUnits="userSpaceOnUse">
      <stop
         offset="0"
         style="stop-color:#ED6D14"
         id="stop6328-3-0-6" />
      <stop
         offset="1"
         style="stop-color:#AF1917"
         id="stop6330-0-2-5" />
    </radialGradient>
    <filter
       inkscape:collect="always"
       style="color-interpolation-filters:sRGB"
       id="filter5204">
      <feBlend
         inkscape:collect="always"
         mode="multiply"
         in2="BackgroundImage"
         id="feBlend5206" />
    </filter>
    <filter
       inkscape:collect="always"
       id="filter14506-80-6-61"
       style="color-interpolation-filters:sRGB">
      <feGaussianBlur
         inkscape:collect="always"
         stdDeviation="0.70957443"
         id="feGaussianBlur14508-15-9-2" />
    </filter>
    <radialGradient
       r="68.636078"
       fy="170.44995"
       fx="339.39481"
       cy="170.44995"
       cx="339.39481"
       gradientUnits="userSpaceOnUse"
       id="radialGradient20235"
       xlink:href="#linearGradient11737"
       inkscape:collect="always"
       gradientTransform="matrix(0.68715852,0,0,0.68715852,599.61371,681.9423)" />
    <radialGradient
       r="68.136078"
       fy="131.75188"
       fx="360.3381"
       cy="131.75188"
       cx="360.3381"
       gradientTransform="matrix(2.0322283,0,0,2.0322283,-350.33294,-138.65768)"
       gradientUnits="userSpaceOnUse"
       id="radialGradient20237"
       xlink:href="#linearGradient11729"
       inkscape:collect="always" />
    <filter
       height="1.3200001"
       y="-0.16"
       width="1.3200001"
       x="-0.16"
       id="filter4645"
       inkscape:collect="always">
      <feGaussianBlur
         id="feGaussianBlur4647"
         stdDeviation="9.0848104"
         inkscape:collect="always" />
    </filter>
    <filter
       inkscape:collect="always"
       id="filter15293">
      <feGaussianBlur
         inkscape:collect="always"
         stdDeviation="2.6999294"
         id="feGaussianBlur15295" />
    </filter>
    <linearGradient
       y2="138.7977"
       x2="571.87354"
       y1="92.872658"
       x1="530.65643"
       gradientTransform="matrix(-0.63593482,-0.37693419,-0.22248174,0.57997513,1235.4192,915.11076)"
       gradientUnits="userSpaceOnUse"
       id="linearGradient20239"
       xlink:href="#linearGradient5073"
       inkscape:collect="always" />
  </defs>
  <sodipodi:namedview
     id="base"
     pagecolor="#ffffff"
     bordercolor="#666666"
     borderopacity="1.0"
     inkscape:pageopacity="0.0"
     inkscape:pageshadow="2"
     inkscape:zoom="0.49497475"
     inkscape:cx="-213.55584"
     inkscape:cy="468.94231"
     inkscape:document-units="mm"
     inkscape:current-layer="layer1"
     showgrid="false"
     units="px"
     inkscape:snap-others="true"
     inkscape:snap-nodes="false"
     inkscape:window-width="1559"
     inkscape:window-height="871"
     inkscape:window-x="175"
     inkscape:window-y="39"
     inkscape:window-maximized="0"
     showguides="true" />
  <metadata
     id="metadata5">
    <rdf:RDF>
      <cc:Work
         rdf:about="">
        <dc:format>image/svg+xml</dc:format>
        <dc:type
           rdf:resource="http://purl.org/dc/dcmitype/StillImage" />
        <dc:title />
      </cc:Work>
    </rdf:RDF>
  </metadata>
  <g
     inkscape:groupmode="layer"
     id="layer2"
     inkscape:label="BG">
    <rect
       id="rect5602-3"
       x="-5.0862632e-006"
       y="-3.3839596e-014"
       class="st0"
       width="264.58337"
       height="264.58337"
       style="fill:url(#rect5602_1_-1-0-5);stroke-width:0.42072514" />
  </g>
  <g
     inkscape:groupmode="layer"
     id="layer3"
     inkscape:label="Sombra"
     style="filter:url(#filter5204)" />
  <g
     inkscape:label="Arte"
     inkscape:groupmode="layer"
     id="layer1"
     transform="translate(0,-32.41665)"
     style="display:inline">
    <text
       id="text5349"
       y="65.854614"
       x="133.23032"
       style="font-style:normal;font-variant:normal;font-weight:300;font-stretch:normal;font-size:21.3312397px;line-height:1.25;font-family:Lato;-inkscape-font-specification:'Lato, Light';font-variant-ligatures:normal;font-variant-caps:normal;font-variant-numeric:normal;font-feature-settings:normal;text-align:start;letter-spacing:0px;word-spacing:0px;writing-mode:lr-tb;text-anchor:start;fill:#ffffff;fill-opacity:1;stroke:none;stroke-width:0.53328037"
       xml:space="preserve"><tspan
         style="font-style:normal;font-variant:normal;font-weight:normal;font-stretch:normal;font-size:21.33131599px;font-family:Lato;-inkscape-font-specification:'Lato, Normal';font-variant-ligatures:normal;font-variant-caps:normal;font-variant-numeric:normal;font-feature-settings:normal;text-align:center;writing-mode:lr-tb;text-anchor:middle;fill:#ffffff;stroke-width:0.53328037"
         y="65.854614"
         x="133.23032"
         sodipodi:role="line"
         id="tspan4836">Prepare-se,</tspan><tspan
         style="font-style:normal;font-variant:normal;font-weight:normal;font-stretch:normal;font-size:21.33131599px;font-family:Lato;-inkscape-font-specification:'Lato, Normal';font-variant-ligatures:normal;font-variant-caps:normal;font-variant-numeric:normal;font-feature-settings:normal;text-align:center;writing-mode:lr-tb;text-anchor:middle;fill:#ffffff;stroke-width:0.53328037"
         y="92.518692"
         x="133.23032"
         sodipodi:role="line"
         id="tspan4834" /></text>
    <g
       transform="matrix(0.25988627,0,0,0.25988627,26.012496,135.86639)"
       id="g66581">
      <g
         id="g6845_1_"
         transform="matrix(0.4459748,0,0,0.4459748,547.07787,921.78732)">
        <g
           id="g6848_1_"
           transform="translate(-1.9999988,247.45081)">
          <g
             id="path6850_1_">
            <g
               id="g24832">
              <path
                 style="fill:#ffffff"
                 inkscape:connector-curvature="0"
                 class="st1"
                 d="m -1004.7,-1162.6 c -6.2,0 -11.2,-5 -11.2,-11.2 V -1297 c 0,-24.9 20.3,-45.2 45.2,-45.2 h 21.3 c 6.2,0 11.2,5 11.2,11.2 0,6.2 -5,11.2 -11.2,11.2 h -21.3 c -12.6,0 -22.8,10.2 -22.8,22.8 v 123.2 c 0,6.2 -5,11.2 -11.2,11.2 z"
                 id="path24834" />
            </g>
          </g>
          <g
             id="path6852_1_">
            <g
               id="g24837">
              <path
                 style="fill:#ffffff"
                 inkscape:connector-curvature="0"
                 class="st1"
                 d="m -957.4,-1245.5 h -58.9 c -6.2,0 -11.2,-5 -11.2,-11.2 0,-6.2 5,-11.2 11.2,-11.2 h 58.9 c 6.2,0 11.2,5 11.2,11.2 0,6.2 -5,11.2 -11.2,11.2 z"
                 id="path24839" />
            </g>
          </g>
        </g>
        <g
           id="path6854_1_">
          <g
             id="g24842">
            <path
               style="fill:#ffffff"
               inkscape:connector-curvature="0"
               class="st1"
               d="m -837.3,-915.2 c -6.2,0 -11.2,-5 -11.2,-11.2 v -157.8 c 0,-6.2 5,-11.2 11.2,-11.2 6.2,0 11.2,5 11.2,11.2 v 157.8 c 0,6.2 -5.1,11.2 -11.2,11.2 z"
               id="path24844" />
          </g>
        </g>
        <g
           id="path6856_1_">
          <g
             id="g24847">
            <path
               style="fill:#ffffff"
               inkscape:connector-curvature="0"
               class="st1"
               d="m -758.9,-915.2 h -37.5 c -6.2,0 -11.2,-5 -11.2,-11.2 0,-6.2 5,-11.2 11.2,-11.2 h 37.5 c 13.5,0 24.5,-10.9 24.5,-24.3 v -7.1 c 0,-6.6 -2.5,-12.7 -7.2,-17.3 -4.6,-4.5 -10.6,-7 -17.1,-7 -0.2,0 -0.4,0 -0.6,0 -1,0.2 -2.2,0.3 -3.5,0.4 -1.3,0 -3.3,0 -6.3,0.1 -25.9,0 -47,-21 -47,-46.7 v -7.1 c 0,-25.8 21,-46.7 46.9,-46.7 h 37.5 c 6.2,0 11.2,5 11.2,11.2 0,6.2 -5,11.2 -11.2,11.2 h -37.5 c -13.5,0 -24.5,10.9 -24.5,24.3 v 7.1 c 0,13.4 11,24.3 24.5,24.3 0.1,0 0.3,0 0.4,0 1,-0.2 2.2,-0.3 3.5,-0.4 1.3,0 3.3,0 6.3,-0.1 0.1,0 0.2,0 0.3,0 12.4,0 24.1,4.8 32.9,13.6 8.9,8.8 13.8,20.6 13.8,33.2 v 7.1 c 0,25.6 -21,46.6 -46.9,46.6 z"
               id="path24849" />
          </g>
        </g>
        <g
           id="rect6858_1_">
          <g
             id="g24852">
            <path
               style="fill:#ffffff"
               inkscape:connector-curvature="0"
               class="st1"
               d="m -640.2,-915.2 h -31.4 c -18.4,0 -33.4,-15 -33.4,-33.4 v -66.6 c 0,-18.4 15,-33.4 33.4,-33.4 h 31.4 c 18.4,0 33.4,15 33.4,33.4 v 66.6 c 0,18.5 -15,33.4 -33.4,33.4 z m -31.4,-110.9 c -6,0 -11,4.9 -11,11 v 66.6 c 0,6 4.9,11 11,11 h 31.4 c 6,0 11,-4.9 11,-11 v -66.6 c 0,-6 -4.9,-11 -11,-11 z"
               id="path24854" />
          </g>
        </g>
        <g
           id="path6860_1_">
          <g
             id="g24857">
            <path
               style="fill:#ffffff"
               inkscape:connector-curvature="0"
               class="st1"
               d="M -866.8,-915.2 H -888 c -24.9,0 -45.2,-20.3 -45.2,-45.2 v -123.2 c 0,-6.2 5,-11.2 11.2,-11.2 6.2,0 11.2,5 11.2,11.2 v 123.2 c 0,12.6 10.2,22.8 22.8,22.8 h 21.3 c 6.2,0 11.2,5 11.2,11.2 0,6.2 -5.1,11.2 -11.3,11.2 z"
               id="path24859" />
          </g>
        </g>
        <g
           id="path6862_1_">
          <g
             id="g24862">
            <path
               style="fill:#ffffff"
               inkscape:connector-curvature="0"
               class="st1"
               d="M -531.7,-915.2 H -553 c -24.9,0 -45.2,-20.3 -45.2,-45.2 v -123.2 c 0,-6.2 5,-11.2 11.2,-11.2 6.2,0 11.2,5 11.2,11.2 v 123.2 c 0,12.6 10.2,22.8 22.8,22.8 h 21.3 c 6.2,0 11.2,5 11.2,11.2 0,6.2 -5,11.2 -11.2,11.2 z"
               id="path24864" />
          </g>
        </g>
      </g>
      <g
         id="g6864_1_"
         transform="matrix(0.47136053,0,0,0.47136053,521.78012,1169.1906)">
        <g
           id="path6866_1_">
          <g
             id="g24868">
            <path
               style="fill:#ffffff"
               inkscape:connector-curvature="0"
               sodipodi:nodetypes="cccccccccccccccccccc"
               class="st1"
               d="m -294.1,-1453.3 77.8,77.3 45.6,-42.1 -38.1,-36.1 -25.4,24.8 17.8,17 21.6,-16.4 1.9,1.9 -18.4,19.1 c -2.8,2.8 -5.8,3.7 -9.3,0.6 l -18.5,-17.8 c -2.2,-2.8 -2.7,-5.5 -0.9,-8.1 0,0 11.2,-14.9 26.5,-28.3 4.8,-3.5 8.9,-2.6 12.7,0.9 l 40.6,35.4 c 3.7,4.3 2.9,9.7 -1,13.7 l -46.7,49.8 c -4.4,5.1 -14.7,4.8 -19.1,-0.2 l -81.4,-77.9 z"
               id="path24870" />
          </g>
        </g>
        <g
           id="path6868_1_">
          <g
             id="g24873">
            <path
               style="fill:#ffffff"
               inkscape:connector-curvature="0"
               sodipodi:nodetypes="cccccccccccccccccccc"
               class="st1"
               d="m -336.4,-1498.7 -77.8,-77.3 -45.6,42.1 38.1,36.1 25.4,-24.8 -17.8,-17 -21.6,16.4 -1.9,-1.9 18.4,-19.1 c 2.8,-2.8 5.8,-3.7 9.3,-0.6 l 18.5,17.8 c 2.2,2.8 2.7,5.5 0.9,8.1 0,0 -11.2,14.9 -26.5,28.3 -4.8,3.5 -8.9,2.6 -12.7,-0.9 l -40.6,-35.4 c -3.7,-4.3 -2.9,-9.7 1,-13.7 l 46.7,-49.8 c 4.4,-5.1 14.7,-4.8 19.1,0.2 l 81.4,77.9 z"
               id="path24875" />
          </g>
        </g>
        <g
           id="path6870_1_">
          <g
             id="g24878">
            <path
               style="fill:#ffffff"
               inkscape:connector-curvature="0"
               sodipodi:nodetypes="cccccccccccccccccccc"
               class="st1"
               d="m -292.6,-1497.2 77.3,-77.8 -42.1,-45.6 -36.1,38.1 24.8,25.4 17,-17.8 -16.4,-21.6 1.9,-1.9 19.1,18.4 c 2.8,2.8 3.7,5.8 0.6,9.3 l -17.8,18.5 c -2.8,2.2 -5.5,2.7 -8.1,0.9 0,0 -14.9,-11.2 -28.3,-26.5 -3.5,-4.8 -2.6,-8.9 0.9,-12.7 l 35.4,-40.6 c 4.3,-3.7 9.7,-2.9 13.7,1 l 49.8,46.7 c 5.1,4.4 4.8,14.7 -0.2,19.1 l -77.9,81.4 z"
               id="path24880" />
          </g>
        </g>
        <g
           id="path6872_1_">
          <g
             id="g24883">
            <path
               style="fill:#ffffff"
               inkscape:connector-curvature="0"
               sodipodi:nodetypes="cccccccccccccccccccc"
               class="st1"
               d="m -337.9,-1454.8 -77.3,77.8 42.1,45.6 36.1,-38.1 -24.8,-25.4 -17,17.8 16.4,21.6 -1.9,1.9 -19.1,-18.4 c -2.8,-2.8 -3.7,-5.8 -0.6,-9.3 l 17.8,-18.5 c 2.8,-2.2 5.5,-2.7 8.1,-0.9 0,0 14.9,11.2 28.3,26.5 3.5,4.8 2.6,8.9 -0.9,12.7 l -35.3,40.5 c -4.3,3.7 -9.7,2.9 -13.7,-1 l -49.8,-46.7 c -5.1,-4.4 -4.8,-14.7 0.2,-19.1 l 77.9,-81.4 z"
               id="path24885" />
          </g>
        </g>
        <g
           id="g6874_1_"
           transform="matrix(1.0923337,0.25861982,-0.25861982,1.0923337,160.90403,65.72318)">
          <g
             id="path6876_1_">
            <g
               id="g24889">
              <path
                 style="fill:#ffffff"
                 inkscape:connector-curvature="0"
                 sodipodi:nodetypes="ccsccc"
                 class="st1"
                 d="m -716.2,-1184.4 22.9,68.7 c 0,0 16.2,-7.5 17.1,2.7 0.9,10.2 -22.4,9 -22.4,9 l -21.9,-79.9 z"
                 id="path24891" />
            </g>
          </g>
          <g
             id="ellipse6878_1_">
            <g
               id="g24894">
              <ellipse
                 style="fill:#ffffff"
                 transform="matrix(-0.2049,0.9788,-0.9788,-0.2049,-1969.4539,-714.7151)"
                 class="st1"
                 cx="-694.40002"
                 cy="-1157.3"
                 rx="7.1999998"
                 ry="10.5"
                 id="ellipse24896" />
            </g>
          </g>
          <g
             id="ellipse6880_1_">
            <g
               id="g24899">
              <ellipse
                 style="fill:#ffffff"
                 transform="matrix(-0.2049,0.9788,-0.9788,-0.2049,-1938.2141,-705.644)"
                 class="st1"
                 cx="-682.5"
                 cy="-1140.1"
                 rx="7.1999998"
                 ry="10.5"
                 id="ellipse24901" />
            </g>
          </g>
          <g
             id="path6882_1_">
            <g
               id="g24904">
              <path
                 style="fill:#ffffff"
                 inkscape:connector-curvature="0"
                 sodipodi:nodetypes="ccsccc"
                 class="st1"
                 d="m -742.2,-1293.1 -22.9,-68.7 c 0,0 -16.2,7.5 -17.1,-2.7 -0.9,-10.2 22.4,-9 22.4,-9 l 21.9,79.9 z"
                 id="path24906" />
            </g>
          </g>
          <g
             id="ellipse6884_1_">
            <g
               id="g24909">
              <ellipse
                 style="fill:#ffffff"
                 transform="matrix(-0.2049,0.9788,-0.9788,-0.2049,-2212.728,-842.939)"
                 class="st1"
                 cx="-764"
                 cy="-1320.2"
                 rx="7.1999998"
                 ry="10.5"
                 id="ellipse24911" />
            </g>
          </g>
          <g
             id="ellipse6886_1_">
            <g
               id="g24914">
              <ellipse
                 style="fill:#ffffff"
                 transform="matrix(-0.2049,0.9788,-0.9788,-0.2049,-2243.9678,-852.0101)"
                 class="st1"
                 cx="-775.90002"
                 cy="-1337.5"
                 rx="7.1999998"
                 ry="10.5"
                 id="ellipse24916" />
            </g>
          </g>
          <g
             id="path6888_1_">
            <g
               id="g24919">
              <path
                 style="fill:#ffffff"
                 inkscape:connector-curvature="0"
                 sodipodi:nodetypes="ccsccc"
                 class="st1"
                 d="m -674.9,-1251.8 68.7,-22.9 c 0,0 -7.5,-16.2 2.7,-17.1 10.2,-0.8 9,22.4 9,22.4 l -79.9,21.9 z"
                 id="path24921" />
            </g>
          </g>
          <g
             id="ellipse6890_1_">
            <g
               id="g24924">
              <ellipse
                 style="fill:#ffffff"
                 transform="matrix(-0.2049,0.9788,-0.9788,-0.2049,-2026.9791,-900.4641)"
                 class="st1"
                 cx="-647.70001"
                 cy="-1273.6"
                 rx="10.5"
                 ry="7.1999998"
                 id="ellipse24926" />
            </g>
          </g>
          <g
             id="ellipse6892_1_">
            <g
               id="g24929">
              <ellipse
                 style="fill:#ffffff"
                 transform="matrix(-0.2049,0.9788,-0.9788,-0.2049,-2017.908,-931.7039)"
                 class="st1"
                 cx="-630.5"
                 cy="-1285.5"
                 rx="10.5"
                 ry="7.1999998"
                 id="ellipse24931" />
            </g>
          </g>
          <g
             id="path6894_1_">
            <g
               id="g24934">
              <path
                 style="fill:#ffffff"
                 inkscape:connector-curvature="0"
                 sodipodi:nodetypes="ccsccc"
                 class="st1"
                 d="m -783.5,-1225.8 -68.7,22.9 c 0,0 7.5,16.2 -2.7,17.1 -10.2,0.9 -9,-22.4 -9,-22.4 l 79.9,-21.9 z"
                 id="path24936" />
            </g>
          </g>
          <g
             id="ellipse6896_1_">
            <g
               id="g24939">
              <ellipse
                 style="fill:#ffffff"
                 transform="matrix(-0.2049,0.9788,-0.9788,-0.2049,-2155.2029,-657.1899)"
                 class="st1"
                 cx="-810.70001"
                 cy="-1204"
                 rx="10.5"
                 ry="7.1999998"
                 id="ellipse24941" />
            </g>
          </g>
          <g
             id="ellipse6898_1_">
            <g
               id="g24944">
              <ellipse
                 style="fill:#ffffff"
                 transform="matrix(-0.2049,0.9788,-0.9788,-0.2049,-2164.2742,-625.9502)"
                 class="st1"
                 cx="-827.90002"
                 cy="-1192.1"
                 rx="10.5"
                 ry="7.1999998"
                 id="ellipse24946" />
            </g>
          </g>
        </g>
      </g>
      <g
         transform="matrix(1.1950803,0,0,1.1950803,420.17448,144.09023)"
         id="g27080">
        <path
           style="fill:#ffffff"
           inkscape:connector-curvature="0"
           class="st1"
           d="m 71.2,233.3 c 4.2,0 8.7,2.3 9.7,7.5 h -4.3 c -0.9,-2.4 -2.8,-3.4 -5.3,-3.4 -3.7,0 -6.2,2.7 -6.2,6.7 0,3.6 2.4,6.6 6.2,6.6 2.6,0 4.7,-1.2 5.4,-3.8 H 81 c -0.9,5.5 -5.4,7.8 -9.7,7.8 -5.5,0 -10.7,-3.7 -10.7,-10.7 -0.2,-7 5,-10.8 10.6,-10.7 z"
           id="path27082" />
        <path
           style="fill:#ffffff"
           inkscape:connector-curvature="0"
           class="st1"
           d="m 92.6,247.5 v -14 h 4.5 v 13.9 c 0,2.2 1.8,3.4 3.9,3.4 2.1,0 3.9,-1.1 3.9,-3.4 v -13.9 h 4.4 v 14 c 0,4.7 -3.9,7.2 -8.3,7.2 -4.4,0 -8.4,-2.5 -8.4,-7.2 z"
           id="path27084" />
        <path
           style="fill:#ffffff"
           inkscape:connector-curvature="0"
           class="st1"
           d="m 139.7,253.8 v 0.6 h -4.8 l -4.3,-6.9 h -3.7 v 6.9 h -4.5 v -21 c 3,0 6,0 9,0 4.8,0 7.4,3.5 7.4,7.2 0,2.7 -1.3,5 -3.7,6.2 z m -8.4,-10 c 1.9,0 3.1,-1.5 3.1,-3.3 0,-1.8 -1.2,-3.2 -3.1,-3.2 h -4.5 v 6.4 h 4.5 z"
           id="path27086" />
        <path
           style="fill:#ffffff"
           inkscape:connector-curvature="0"
           class="st1"
           d="m 160.7,250.9 v 3.6 h -10.4 v -3.6 h 3 V 237 h -2.7 v -3.5 h 9.9 v 3.5 h -2.7 v 13.9 z"
           id="path27088" />
        <path
           style="fill:#ffffff"
           inkscape:connector-curvature="0"
           class="st1"
           d="m 171,237.4 v -3.9 h 15.5 v 3.9 h -5.6 v 17.1 h -4.3 v -17.1 z"
           id="path27090" />
        <path
           style="fill:#ffffff"
           inkscape:connector-curvature="0"
           class="st1"
           d="m 207.2,250.9 v 3.6 h -10.4 v -3.6 h 3 V 237 H 197 v -3.5 h 9.9 v 3.5 h -2.7 v 13.9 z"
           id="path27092" />
        <path
           style="fill:#ffffff"
           inkscape:connector-curvature="0"
           class="st1"
           d="m 232.7,243.6 c 1.9,0.8 3,2.5 3,4.7 0,3.7 -2.5,6.2 -6.6,6.2 h -9.7 v -20.9 h 8.9 c 3.8,0 6.6,2.3 6.6,6.2 -0.1,1.4 -0.9,3 -2.2,3.8 z m -8.9,-6.3 v 4.8 h 4.1 c 1.5,0 2.5,-0.8 2.5,-2.2 0,-1.5 -1,-2.5 -2.5,-2.5 h -4.1 z m 0,8.5 v 4.8 h 5 c 1.5,0 2.4,-0.9 2.5,-2.3 0,-0.8 -0.3,-1.6 -0.9,-2.1 -0.5,-0.4 -1.1,-0.4 -1.8,-0.4 z"
           id="path27094" />
        <path
           style="fill:#ffffff"
           inkscape:connector-curvature="0"
           class="st1"
           d="m 251.2,251 -1.6,3.5 h -4.7 v -0.6 l 9.6,-20.5 h 2.1 l 9.6,20.5 v 0.6 h -4.6 L 260,251 Z m 1.5,-3.8 h 5.8 l -2.9,-6.9 z"
           id="path27096" />
        <path
           style="fill:#ffffff;stroke-width:2.34769464"
           inkscape:connector-curvature="0"
           class="st1"
           d="m 66.010865,281.28869 h -3.052003 c 0,-8.4517 4.46062,-12.91232 13.851399,-12.91232 14.790476,-0.23477 18.077249,15.02524 9.156009,25.3551 -3.052003,3.52154 -5.869237,7.04308 -9.156009,10.79939 l -9.390779,10.7994 10.095087,-0.23477 h 14.790477 v 3.052 H 62.019784 v -0.7043 l 21.833561,-25.58988 c 7.277853,-7.98216 5.869236,-20.65971 -6.573545,-20.65971 -7.512623,0 -11.268935,3.28677 -11.268935,10.09509 z"
           id="path27098" />
        <path
           style="fill:#ffffff;stroke-width:2.34769464"
           inkscape:connector-curvature="0"
           class="st1"
           d="m 157.33618,285.27977 v 16.66863 c 0,10.56463 -7.98215,16.9034 -18.07724,16.9034 -10.09509,0 -18.07725,-6.33877 -18.07725,-16.9034 v -16.66863 c 0,-10.56463 7.98216,-16.9034 18.07725,-16.9034 10.09509,0 18.07724,6.57354 18.07724,16.9034 z m -4.46062,22.06833 c 0.70431,-1.87816 0.93908,-3.75631 0.93908,-5.86924 v -15.26001 c 0,-2.11293 -0.46954,-4.22585 -0.93908,-5.86924 -2.11292,-5.63447 -7.27784,-8.68647 -13.61662,-8.68647 -6.57355,0 -11.73847,3.052 -13.61663,8.68647 -0.70431,1.64339 -0.93908,3.75631 -0.93908,5.86924 v 15.26001 c 0,2.11293 0.23477,4.22585 0.93908,5.86924 2.11293,5.3997 7.27785,8.4517 13.61663,8.4517 6.33878,0 11.5037,-3.052 13.61662,-8.4517 z"
           id="path27100" />
        <path
           style="fill:#ffffff;stroke-width:2.34769464"
           inkscape:connector-curvature="0"
           class="st1"
           d="m 186.68236,271.89791 v -2.81723 h 12.44279 v 46.24958 H 209.455 v 3.052 h -24.18125 v -3.052 h 10.32985 v -43.19758 h -8.92124 z"
           id="path27102" />
        <path
           style="fill:#ffffff;stroke-width:2.34769464"
           inkscape:connector-curvature="0"
           class="st1"
           d="m 266.26921,269.55021 -23.47694,48.59728 h -3.75632 l 22.3031,-46.01481 h -26.76371 v -3.28677 h 31.69387 z"
           id="path27104" />
      </g>
      <g
         transform="matrix(0,0.48836395,-1.561504,0,815.1068,371.34446)"
         id="g27106">
        <line
           x1="60.299999"
           y1="219.8"
           x2="362.89999"
           y2="219.8"
           id="line27108" />
        <rect
           style="fill:#ffffff"
           x="60.299999"
           y="218.8"
           class="st1"
           width="302.60001"
           height="2"
           id="rect27110" />
      </g>
      <g
         transform="matrix(0.84054661,0,0,0.84054661,-326.27832,-198.63428)"
         id="g64289">
        <path
           transform="matrix(0.80201649,0,0,0.80201649,1926.4315,1753.3757)"
           inkscape:connector-curvature="0"
           id="path20199"
           d="m -1358.6983,-1122.7245 c 0,0 0.7308,-3.0048 4.5476,-3.0048 3.8168,0 6.8216,3.8168 6.8216,3.8168 0,0 -5.6846,-2.4362 -7.7149,-2.4362 -2.0302,0 -3.6543,1.6242 -3.6543,1.6242 z"
           style="color:#000000;display:inline;overflow:visible;visibility:visible;opacity:0.56734691;fill:#ffffff;fill-opacity:1;fill-rule:nonzero;stroke:none;stroke-width:1px;marker:none;filter:url(#filter14506-80-6-61);enable-background:accumulate" />
        <circle
           id="path20221"
           style="color:#000000;display:inline;overflow:visible;visibility:visible;fill:#ffffff;fill-opacity:1;fill-rule:nonzero;stroke:#0055d4;stroke-width:5.43439388;stroke-opacity:1;marker:none;enable-background:accumulate"
           cx="832.83185"
           cy="799.06836"
           r="44.300766" />
        <circle
           id="path20223"
           style="color:#000000;display:inline;overflow:visible;visibility:visible;fill:#0055d4;fill-opacity:1;fill-rule:nonzero;stroke:none;stroke-width:1;marker:none;enable-background:accumulate"
           cx="832.83179"
           cy="799.06842"
           r="46.820286" />
        <circle
           style="color:#000000;display:inline;overflow:visible;visibility:visible;opacity:0.4820717;fill:url(#radialGradient20235);fill-opacity:1;fill-rule:nonzero;stroke:none;stroke-width:1;marker:none;enable-background:accumulate"
           id="path20225"
           cx="832.83179"
           cy="799.06842"
           r="46.820286" />
        <circle
           id="path20227"
           style="color:#000000;display:inline;overflow:visible;visibility:visible;fill:url(#radialGradient20237);fill-opacity:1;fill-rule:nonzero;stroke:none;stroke-width:1.35547781;marker:none;filter:url(#filter4645);enable-background:accumulate"
           transform="matrix(0.52233967,0,0,0.52233967,655.55246,703.17964)"
           cx="339.39481"
           cy="170.44995"
           r="68.136078" />
        <path
           transform="matrix(0.79084698,0,0,0.79084698,1911.5515,1740.0631)"
           inkscape:connector-curvature="0"
           id="path20229"
           d="m -1392.4809,-1232.0483 c -0.8019,0.033 -1.509,0.2328 -2.0475,0.6749 -0.2982,2.8855 0.7189,6.5887 2.9222,8.6149 -0.1902,-0.2464 -0.4195,-0.6929 -0.7355,-1.4291 -0.9777,-1.6628 -2.7369,-9.0374 0.656,-5.4787 1.989,4.1785 2.6367,9.2781 5.7252,12.9819 2.3538,3.8651 6.8255,4.1147 10.5955,5.0816 3.2734,1.588 4.3264,6.2894 7.8522,7.2255 2.5104,3.2637 -0.6389,7.349 -2.0078,10.5006 -2.7461,4.8644 2.8883,7.8174 4.6716,11.632 3.6086,4.9811 7.031,11.5771 4.3138,17.8452 -1.6058,4.5347 -1.9956,9.5445 -3.1409,14.2721 -0.5096,3.3536 -1.2328,10.3996 2.3855,11.0564 0.7253,-3.6267 0.4384,-7.5298 3.3595,-10.2624 2.8735,-5.4672 8.4716,-8.8774 12.7226,-12.7436 1.9606,-2.3297 5.7601,-7.6173 9.5221,-10.203 1.6683,-2.8236 1.1693,-7.6219 4.2343,-10.4213 2.348,-2.4836 3.5146,-8.2489 -0.994,-8.9324 -6.0092,-2.3954 -10.9523,-6.9424 -14.9491,-12.0886 -4.3284,-2.3316 -7.0463,-2.9684 -11.6629,-4.4538 -0.281,-0.091 -0.6668,2.4248 -1.5084,2.4164 -1.1507,-0.011 0.2655,-3.2189 -2.2349,-3.1236 -0.4188,1.379 -2.8098,3.5597 -4.453,4.0295 -0.6343,-1.0347 -2.8863,-3.2068 -2.7234,-4.9624 -0.075,-3.5364 -4.592,-3.6234 -2.8626,-6.9872 -1.0331,-2.9637 -5.1833,4.3511 -6.8781,-0.6552 -1.002,-4.349 -1.1763,-11.7175 -5.1885,-12.545 -1.9336,-0.7657 -5.1682,-2.1428 -7.5739,-2.0447 z m 24.8308,12.2251 c 0.3973,0.1244 2.1717,-0.4166 4.1253,-0.3854 1.8411,0.03 4.9133,1.545 5.4703,1.0618 -0.868,-2.878 -6.9897,-2.3488 -6.8746,-2.3354 -0.9249,0.7782 -3.383,1.4105 -2.721,1.659 z m 20.154,5.4712 c -0.1529,0.27 -0.9304,0.3375 -0.9313,-0.2161 0.3055,-0.5351 0.9002,-0.076 0.9313,0.2161 z m -3.6979,-1.0674 c -3.4763,-0.1072 -1.191,-1.878 -3.0367,-1.8379 -1.2939,0.027 -0.927,1.3862 -3.1699,1.1772 2.062,0.9711 2.2009,0.732 3.6375,1.4994 2.0386,-0.1206 3.2905,-0.092 2.5691,-0.8387 z"
           style="font-size:12px;fill:#0055d4;fill-opacity:1;fill-rule:nonzero;stroke:#ff7d23;stroke-width:1.1452688;stroke-opacity:1;filter:url(#filter15293)"
           sodipodi:nodetypes="cccccccccccccccccccssccccccccscccccccsccc" />
        <path
           sodipodi:nodetypes="cccccccccccccccccccssccccccccscccccccsccc"
           style="font-size:12px;fill:#ccff00;fill-opacity:1;fill-rule:nonzero;stroke:#d4ff2a;stroke-width:0.90573239;stroke-opacity:1"
           d="m 810.31213,765.70152 c -0.63419,0.0263 -1.19339,0.18405 -1.61927,0.53375 -0.23585,2.282 0.56853,5.21059 2.31098,6.81301 -0.15035,-0.19482 -0.33168,-0.54797 -0.58166,-1.13017 -0.77323,-1.31503 -2.16443,-7.14723 0.5188,-4.33284 1.57299,3.30456 2.08527,7.33761 4.52776,10.26674 1.86155,3.05667 5.39798,3.25412 8.37947,4.01874 2.58876,1.25589 3.42149,4.97392 6.20988,5.71426 1.98528,2.58107 -0.50531,5.81191 -1.58793,8.30439 -2.17167,3.84701 2.28426,6.18235 3.69457,9.19916 2.85388,3.93921 5.56048,9.15569 3.41154,14.11276 -1.26993,3.58625 -1.57824,7.54828 -2.48398,11.28705 -0.40296,2.65217 -0.97493,8.22451 1.88655,8.74394 0.5736,-2.86818 0.34672,-5.95491 2.65688,-8.11599 2.27248,-4.3237 6.6997,-7.0207 10.0616,-10.07827 1.55061,-1.84244 4.55538,-6.02411 7.53053,-8.06898 1.31938,-2.233 0.92475,-6.02774 3.34867,-8.24162 1.85693,-1.96418 2.77951,-6.52363 -0.78608,-7.06417 -4.75238,-1.89443 -8.66161,-5.49037 -11.82244,-9.56028 -3.42312,-1.84389 -5.57251,-2.34757 -9.22352,-3.52221 -0.22227,-0.0725 -0.52741,1.91762 -1.19294,1.911 -0.91008,-0.009 0.20995,-2.54565 -1.76745,-2.47029 -0.33122,1.0905 -2.22212,2.81511 -3.52167,3.18673 -0.50159,-0.81833 -2.28262,-2.53614 -2.15383,-3.92454 -0.0589,-2.79672 -3.63153,-2.86556 -2.26387,-5.52578 -0.81697,-2.34386 -4.09917,3.44106 -5.43947,-0.51817 -0.79243,-3.43943 -0.93028,-9.26673 -4.10333,-9.92121 -1.52915,-0.60557 -4.0873,-1.69463 -5.98979,-1.61701 z m 19.63736,9.66815 c 0.3142,0.0984 1.71745,-0.32941 3.26245,-0.30478 1.45606,0.0236 3.88568,1.22184 4.32623,0.83971 -0.68645,-2.27602 -5.52777,-1.85757 -5.43675,-1.84697 -0.73147,0.61544 -2.67544,1.1155 -2.15193,1.31204 z m 15.93872,4.32687 c -0.12092,0.21357 -0.73582,0.26692 -0.73654,-0.17091 0.24165,-0.42316 0.71199,-0.0598 0.73654,0.17091 z m -2.92443,-0.84414 c -2.74926,-0.0851 -0.94196,-1.48522 -2.40164,-1.45352 -1.02321,0.0217 -0.7331,1.09629 -2.50689,0.931 1.63078,0.76797 1.74064,0.57894 2.8767,1.18578 1.6122,-0.0954 2.60235,-0.0725 2.03183,-0.66326 z"
           id="path20231"
           inkscape:connector-curvature="0" />
        <path
           style="opacity:0.87980772;fill:url(#linearGradient20239);fill-opacity:1;stroke:none"
           d="m 847.16792,758.59388 c 3.13845,1.65749 7.34032,4.24345 9.19436,5.91688 2.13544,1.1261 5.62324,4.03105 8.67356,6.32011 0,0 -4.21908,-4.75863 -8.01509,-7.46469 -3.03937,-2.09794 -6.46838,-3.56885 -9.85283,-4.7723 z m 15.59037,8.4177 4.09753,5.0154 3.65237,3.8048 -3.02289,-4.3467 z m -8.13284,-2.24205 c -5.11467,-3.20856 -14.27779,-7.52927 -14.27779,-7.52927 0,0 4.48012,4.83652 6.16578,10.75349 1.68574,5.91706 -0.50776,10.42226 -0.50776,10.42226 0,0 6.68603,1.226 14.82331,6.56077 8.2456,5.40568 12.87127,16.5816 12.87127,16.5816 0,0 0.47179,-6.27365 -2.05212,-15.21848 -2.52382,-8.94483 -6.00491,-13.65871 -6.00491,-13.65871 0,0 -5.90311,-4.7032 -11.01778,-7.91166 z m 12.99916,9.48664 c 1.84099,3.30058 4.12651,6.80395 4.86188,9.64414 1.58956,2.65326 2.90703,7.14542 4.23611,12.25936 0,0 -0.17291,-9.44778 -2.35038,-13.19679 -2.22674,-3.62021 -6.74761,-8.70671 -6.74761,-8.70671 z"
           id="path20233"
           inkscape:connector-curvature="0"
           sodipodi:nodetypes="cccccccccczczcsczczccccc" />
      </g>
    </g>
    <text
       id="text4832"
       y="210.70523"
       x="129.92883"
       style="font-style:normal;font-variant:normal;font-weight:300;font-stretch:normal;font-size:125.57112122px;line-height:1.25;font-family:Lato;-inkscape-font-specification:'Lato, Light';font-variant-ligatures:normal;font-variant-caps:normal;font-variant-numeric:normal;font-feature-settings:normal;text-align:start;letter-spacing:0px;word-spacing:0px;writing-mode:lr-tb;text-anchor:start;fill:#ffffff;fill-opacity:1;stroke:none;stroke-width:3.13927436"
       xml:space="preserve"><tspan
         style="font-style:normal;font-variant:normal;font-weight:normal;font-stretch:normal;font-size:125.57156372px;font-family:Lato;-inkscape-font-specification:'Lato, Normal';font-variant-ligatures:normal;font-variant-caps:normal;font-variant-numeric:normal;font-feature-settings:normal;text-align:center;writing-mode:lr-tb;text-anchor:middle;fill:#ffffff;stroke-width:3.13927436"
         y="210.70523"
         x="129.92883"
         sodipodi:role="line"
         id="tspan4830"><tspan
           id="tspan4828"
           style="font-style:normal;font-variant:normal;font-weight:900;font-stretch:normal;font-size:125.57156372px;font-family:Lato;-inkscape-font-specification:'Lato, Heavy';font-variant-ligatures:normal;font-variant-caps:normal;font-variant-numeric:normal;font-feature-settings:normal;text-align:center;writing-mode:lr-tb;text-anchor:middle;stroke-width:3.13927436">3</tspan></tspan></text>
    <text
       xml:space="preserve"
       style="font-style:normal;font-variant:normal;font-weight:300;font-stretch:normal;font-size:21.3312397px;line-height:1.25;font-family:Lato;-inkscape-font-specification:'Lato, Light';font-variant-ligatures:normal;font-variant-caps:normal;font-variant-numeric:normal;font-feature-settings:normal;text-align:start;letter-spacing:0px;word-spacing:0px;writing-mode:lr-tb;text-anchor:start;fill:#ffffff;fill-opacity:1;stroke:none;stroke-width:0.53328037"
       x="133.23032"
       y="87.300644"
       id="text4844"><tspan
         id="tspan4842"
         sodipodi:role="line"
         x="133.23032"
         y="87.300644"
         style="font-style:normal;font-variant:normal;font-weight:bold;font-stretch:normal;font-size:21.33131599px;font-family:Lato;-inkscape-font-specification:'Lato, Normal';font-variant-ligatures:normal;font-variant-caps:normal;font-variant-numeric:normal;font-feature-settings:normal;text-align:center;writing-mode:lr-tb;text-anchor:middle;fill:#ffffff;stroke-width:0.53328037">faltam apenas:</tspan></text>
    <text
       id="text4850"
       y="210.20697"
       x="181.33882"
       style="font-style:normal;font-variant:normal;font-weight:300;font-stretch:normal;font-size:21.3312397px;line-height:1.25;font-family:Lato;-inkscape-font-specification:'Lato, Light';font-variant-ligatures:normal;font-variant-caps:normal;font-variant-numeric:normal;font-feature-settings:normal;text-align:start;letter-spacing:0px;word-spacing:0px;writing-mode:lr-tb;text-anchor:start;fill:#ffffff;fill-opacity:1;stroke:none;stroke-width:0.53328037"
       xml:space="preserve"><tspan
         style="font-style:normal;font-variant:normal;font-weight:bold;font-stretch:normal;font-size:21.33131599px;font-family:Lato;-inkscape-font-specification:'Lato, Normal';font-variant-ligatures:normal;font-variant-caps:normal;font-variant-numeric:normal;font-feature-settings:normal;text-align:center;writing-mode:lr-tb;text-anchor:middle;fill:#ffffff;stroke-width:0.53328037"
         y="210.20697"
         x="181.33882"
         sodipodi:role="line"
         id="tspan4848">dias</tspan></text>
  </g>
  <style
     id="style4763"
     type="text/css">
	.st0{fill:#52677A;}
	.st1{fill:#B7CDD8;}
	.st2{fill:#FFFFFF;}
	.st3{fill:#F06024;}
	.st4{fill:#CE521F;}
	.st5{fill:#2C3B52;}
	.st6{fill:#EBEBEB;}
	.st7{fill:#BABABA;}
	.st8{fill:#E7E6E6;}
	.st9{fill:#8E96A3;}
	.st10{fill:#3D4D5C;}
	.st11{fill:#3E9697;}
	.st12{opacity:9.000000e-02;}
	.st13{fill:#DDDDDD;}
	.st14{fill:#CAD74B;}
</style>
</svg>
